<?xml version="1.0" encoding="utf-8" standalone="no"?>
<!DOCTYPE svg PUBLIC "-//W3C//DTD SVG 1.1//EN"
  "http://www.w3.org/Graphics/SVG/1.1/DTD/svg11.dtd">
<svg xmlns:xlink="http://www.w3.org/1999/xlink" width="857.764437pt" height="568.2675pt" viewBox="0 0 857.764437 568.2675" xmlns="http://www.w3.org/2000/svg" version="1.1">
 <metadata>
  <rdf:RDF xmlns:dc="http://purl.org/dc/elements/1.1/" xmlns:cc="http://creativecommons.org/ns#" xmlns:rdf="http://www.w3.org/1999/02/22-rdf-syntax-ns#">
   <cc:Work>
    <dc:type rdf:resource="http://purl.org/dc/dcmitype/StillImage"/>
    <dc:date>2025-09-14T14:43:18.488401</dc:date>
    <dc:format>image/svg+xml</dc:format>
    <dc:creator>
     <cc:Agent>
      <dc:title>Matplotlib v3.10.3, https://matplotlib.org/</dc:title>
     </cc:Agent>
    </dc:creator>
   </cc:Work>
  </rdf:RDF>
 </metadata>
 <defs>
  <style type="text/css">*{stroke-linejoin: round; stroke-linecap: butt}</style>
 </defs>
 <g id="figure_1">
  <g id="patch_1">
   <path d="M -0 568.2675 
L 857.764437 568.2675 
L 857.764437 0 
L -0 0 
z
" style="fill: #ffffff"/>
  </g>
  <g id="axes_1">
   <g id="patch_2">
    <path d="M 47.6525 526.84 
L 737.5225 526.84 
L 737.5225 7.2 
L 47.6525 7.2 
z
" style="fill: #ffffff"/>
   </g>
   <g id="matplotlib.axis_1">
    <g id="xtick_1">
     <g id="line2d_1">
      <path d="M 72.675333 526.84 
L 72.675333 7.2 
" clip-path="url(#pc5db448bc5)" style="fill: none; stroke: #b0b0b0; stroke-opacity: 0.3; stroke-width: 0.8; stroke-linecap: square"/>
     </g>
     <g id="line2d_2">
      <defs>
       <path id="m56e58c3a89" d="M 0 0 
L 0 3.5 
" style="stroke: #000000; stroke-width: 0.8"/>
      </defs>
      <g>
       <use xlink:href="#m56e58c3a89" x="72.675333" y="526.84" style="stroke: #000000; stroke-width: 0.8"/>
      </g>
     </g>
     <g id="text_1">
      <!-- 0 -->
      <g transform="translate(69.494083 541.438437) scale(0.1 -0.1)">
       <defs>
        <path id="DejaVuSans-30" d="M 2034 4250 
Q 1547 4250 1301 3770 
Q 1056 3291 1056 2328 
Q 1056 1369 1301 889 
Q 1547 409 2034 409 
Q 2525 409 2770 889 
Q 3016 1369 3016 2328 
Q 3016 3291 2770 3770 
Q 2525 4250 2034 4250 
z
M 2034 4750 
Q 2819 4750 3233 4129 
Q 3647 3509 3647 2328 
Q 3647 1150 3233 529 
Q 2819 -91 2034 -91 
Q 1250 -91 836 529 
Q 422 1150 422 2328 
Q 422 3509 836 4129 
Q 1250 4750 2034 4750 
z
" transform="scale(0.015625)"/>
       </defs>
       <use xlink:href="#DejaVuSans-30"/>
      </g>
     </g>
    </g>
    <g id="xtick_2">
     <g id="line2d_3">
      <path d="M 199.373221 526.84 
L 199.373221 7.2 
" clip-path="url(#pc5db448bc5)" style="fill: none; stroke: #b0b0b0; stroke-opacity: 0.3; stroke-width: 0.8; stroke-linecap: square"/>
     </g>
     <g id="line2d_4">
      <g>
       <use xlink:href="#m56e58c3a89" x="199.373221" y="526.84" style="stroke: #000000; stroke-width: 0.8"/>
      </g>
     </g>
     <g id="text_2">
      <!-- 2 -->
      <g transform="translate(196.191971 541.438437) scale(0.1 -0.1)">
       <defs>
        <path id="DejaVuSans-32" d="M 1228 531 
L 3431 531 
L 3431 0 
L 469 0 
L 469 531 
Q 828 903 1448 1529 
Q 2069 2156 2228 2338 
Q 2531 2678 2651 2914 
Q 2772 3150 2772 3378 
Q 2772 3750 2511 3984 
Q 2250 4219 1831 4219 
Q 1534 4219 1204 4116 
Q 875 4013 500 3803 
L 500 4441 
Q 881 4594 1212 4672 
Q 1544 4750 1819 4750 
Q 2544 4750 2975 4387 
Q 3406 4025 3406 3419 
Q 3406 3131 3298 2873 
Q 3191 2616 2906 2266 
Q 2828 2175 2409 1742 
Q 1991 1309 1228 531 
z
" transform="scale(0.015625)"/>
       </defs>
       <use xlink:href="#DejaVuSans-32"/>
      </g>
     </g>
    </g>
    <g id="xtick_3">
     <g id="line2d_5">
      <path d="M 326.071109 526.84 
L 326.071109 7.2 
" clip-path="url(#pc5db448bc5)" style="fill: none; stroke: #b0b0b0; stroke-opacity: 0.3; stroke-width: 0.8; stroke-linecap: square"/>
     </g>
     <g id="line2d_6">
      <g>
       <use xlink:href="#m56e58c3a89" x="326.071109" y="526.84" style="stroke: #000000; stroke-width: 0.8"/>
      </g>
     </g>
     <g id="text_3">
      <!-- 4 -->
      <g transform="translate(322.889859 541.438437) scale(0.1 -0.1)">
       <defs>
        <path id="DejaVuSans-34" d="M 2419 4116 
L 825 1625 
L 2419 1625 
L 2419 4116 
z
M 2253 4666 
L 3047 4666 
L 3047 1625 
L 3713 1625 
L 3713 1100 
L 3047 1100 
L 3047 0 
L 2419 0 
L 2419 1100 
L 313 1100 
L 313 1709 
L 2253 4666 
z
" transform="scale(0.015625)"/>
       </defs>
       <use xlink:href="#DejaVuSans-34"/>
      </g>
     </g>
    </g>
    <g id="xtick_4">
     <g id="line2d_7">
      <path d="M 452.768997 526.84 
L 452.768997 7.2 
" clip-path="url(#pc5db448bc5)" style="fill: none; stroke: #b0b0b0; stroke-opacity: 0.3; stroke-width: 0.8; stroke-linecap: square"/>
     </g>
     <g id="line2d_8">
      <g>
       <use xlink:href="#m56e58c3a89" x="452.768997" y="526.84" style="stroke: #000000; stroke-width: 0.8"/>
      </g>
     </g>
     <g id="text_4">
      <!-- 6 -->
      <g transform="translate(449.587747 541.438437) scale(0.1 -0.1)">
       <defs>
        <path id="DejaVuSans-36" d="M 2113 2584 
Q 1688 2584 1439 2293 
Q 1191 2003 1191 1497 
Q 1191 994 1439 701 
Q 1688 409 2113 409 
Q 2538 409 2786 701 
Q 3034 994 3034 1497 
Q 3034 2003 2786 2293 
Q 2538 2584 2113 2584 
z
M 3366 4563 
L 3366 3988 
Q 3128 4100 2886 4159 
Q 2644 4219 2406 4219 
Q 1781 4219 1451 3797 
Q 1122 3375 1075 2522 
Q 1259 2794 1537 2939 
Q 1816 3084 2150 3084 
Q 2853 3084 3261 2657 
Q 3669 2231 3669 1497 
Q 3669 778 3244 343 
Q 2819 -91 2113 -91 
Q 1303 -91 875 529 
Q 447 1150 447 2328 
Q 447 3434 972 4092 
Q 1497 4750 2381 4750 
Q 2619 4750 2861 4703 
Q 3103 4656 3366 4563 
z
" transform="scale(0.015625)"/>
       </defs>
       <use xlink:href="#DejaVuSans-36"/>
      </g>
     </g>
    </g>
    <g id="xtick_5">
     <g id="line2d_9">
      <path d="M 579.466885 526.84 
L 579.466885 7.2 
" clip-path="url(#pc5db448bc5)" style="fill: none; stroke: #b0b0b0; stroke-opacity: 0.3; stroke-width: 0.8; stroke-linecap: square"/>
     </g>
     <g id="line2d_10">
      <g>
       <use xlink:href="#m56e58c3a89" x="579.466885" y="526.84" style="stroke: #000000; stroke-width: 0.8"/>
      </g>
     </g>
     <g id="text_5">
      <!-- 8 -->
      <g transform="translate(576.285635 541.438437) scale(0.1 -0.1)">
       <defs>
        <path id="DejaVuSans-38" d="M 2034 2216 
Q 1584 2216 1326 1975 
Q 1069 1734 1069 1313 
Q 1069 891 1326 650 
Q 1584 409 2034 409 
Q 2484 409 2743 651 
Q 3003 894 3003 1313 
Q 3003 1734 2745 1975 
Q 2488 2216 2034 2216 
z
M 1403 2484 
Q 997 2584 770 2862 
Q 544 3141 544 3541 
Q 544 4100 942 4425 
Q 1341 4750 2034 4750 
Q 2731 4750 3128 4425 
Q 3525 4100 3525 3541 
Q 3525 3141 3298 2862 
Q 3072 2584 2669 2484 
Q 3125 2378 3379 2068 
Q 3634 1759 3634 1313 
Q 3634 634 3220 271 
Q 2806 -91 2034 -91 
Q 1263 -91 848 271 
Q 434 634 434 1313 
Q 434 1759 690 2068 
Q 947 2378 1403 2484 
z
M 1172 3481 
Q 1172 3119 1398 2916 
Q 1625 2713 2034 2713 
Q 2441 2713 2670 2916 
Q 2900 3119 2900 3481 
Q 2900 3844 2670 4047 
Q 2441 4250 2034 4250 
Q 1625 4250 1398 4047 
Q 1172 3844 1172 3481 
z
" transform="scale(0.015625)"/>
       </defs>
       <use xlink:href="#DejaVuSans-38"/>
      </g>
     </g>
    </g>
    <g id="xtick_6">
     <g id="line2d_11">
      <path d="M 706.164773 526.84 
L 706.164773 7.2 
" clip-path="url(#pc5db448bc5)" style="fill: none; stroke: #b0b0b0; stroke-opacity: 0.3; stroke-width: 0.8; stroke-linecap: square"/>
     </g>
     <g id="line2d_12">
      <g>
       <use xlink:href="#m56e58c3a89" x="706.164773" y="526.84" style="stroke: #000000; stroke-width: 0.8"/>
      </g>
     </g>
     <g id="text_6">
      <!-- 10 -->
      <g transform="translate(699.802273 541.438437) scale(0.1 -0.1)">
       <defs>
        <path id="DejaVuSans-31" d="M 794 531 
L 1825 531 
L 1825 4091 
L 703 3866 
L 703 4441 
L 1819 4666 
L 2450 4666 
L 2450 531 
L 3481 531 
L 3481 0 
L 794 0 
L 794 531 
z
" transform="scale(0.015625)"/>
       </defs>
       <use xlink:href="#DejaVuSans-31"/>
       <use xlink:href="#DejaVuSans-30" transform="translate(63.623047 0)"/>
      </g>
     </g>
    </g>
    <g id="text_7">
     <!-- Δ/T -->
     <g transform="translate(381.165469 558.155937) scale(0.14 -0.14)">
      <defs>
       <path id="DejaVuSans-394" d="M 2188 4044 
L 906 525 
L 3472 525 
L 2188 4044 
z
M 50 0 
L 1831 4666 
L 2547 4666 
L 4325 0 
L 50 0 
z
" transform="scale(0.015625)"/>
       <path id="DejaVuSans-2f" d="M 1625 4666 
L 2156 4666 
L 531 -594 
L 0 -594 
L 1625 4666 
z
" transform="scale(0.015625)"/>
       <path id="DejaVuSans-54" d="M -19 4666 
L 3928 4666 
L 3928 4134 
L 2272 4134 
L 2272 0 
L 1638 0 
L 1638 4134 
L -19 4134 
L -19 4666 
z
" transform="scale(0.015625)"/>
      </defs>
      <use xlink:href="#DejaVuSans-394"/>
      <use xlink:href="#DejaVuSans-2f" transform="translate(68.408203 0)"/>
      <use xlink:href="#DejaVuSans-54" transform="translate(102.099609 0)"/>
     </g>
    </g>
   </g>
   <g id="matplotlib.axis_2">
    <g id="ytick_1">
     <g id="line2d_13">
      <path d="M 47.6525 503.22 
L 737.5225 503.22 
" clip-path="url(#pc5db448bc5)" style="fill: none; stroke: #b0b0b0; stroke-opacity: 0.3; stroke-width: 0.8; stroke-linecap: square"/>
     </g>
     <g id="line2d_14">
      <defs>
       <path id="m603ed2f57c" d="M 0 0 
L -3.5 0 
" style="stroke: #000000; stroke-width: 0.8"/>
      </defs>
      <g>
       <use xlink:href="#m603ed2f57c" x="47.6525" y="503.22" style="stroke: #000000; stroke-width: 0.8"/>
      </g>
     </g>
     <g id="text_8">
      <!-- 0.0 -->
      <g transform="translate(24.749375 507.019219) scale(0.1 -0.1)">
       <defs>
        <path id="DejaVuSans-2e" d="M 684 794 
L 1344 794 
L 1344 0 
L 684 0 
L 684 794 
z
" transform="scale(0.015625)"/>
       </defs>
       <use xlink:href="#DejaVuSans-30"/>
       <use xlink:href="#DejaVuSans-2e" transform="translate(63.623047 0)"/>
       <use xlink:href="#DejaVuSans-30" transform="translate(95.410156 0)"/>
      </g>
     </g>
    </g>
    <g id="ytick_2">
     <g id="line2d_15">
      <path d="M 47.6525 437.074956 
L 737.5225 437.074956 
" clip-path="url(#pc5db448bc5)" style="fill: none; stroke: #b0b0b0; stroke-opacity: 0.3; stroke-width: 0.8; stroke-linecap: square"/>
     </g>
     <g id="line2d_16">
      <g>
       <use xlink:href="#m603ed2f57c" x="47.6525" y="437.074956" style="stroke: #000000; stroke-width: 0.8"/>
      </g>
     </g>
     <g id="text_9">
      <!-- 0.5 -->
      <g transform="translate(24.749375 440.874175) scale(0.1 -0.1)">
       <defs>
        <path id="DejaVuSans-35" d="M 691 4666 
L 3169 4666 
L 3169 4134 
L 1269 4134 
L 1269 2991 
Q 1406 3038 1543 3061 
Q 1681 3084 1819 3084 
Q 2600 3084 3056 2656 
Q 3513 2228 3513 1497 
Q 3513 744 3044 326 
Q 2575 -91 1722 -91 
Q 1428 -91 1123 -41 
Q 819 9 494 109 
L 494 744 
Q 775 591 1075 516 
Q 1375 441 1709 441 
Q 2250 441 2565 725 
Q 2881 1009 2881 1497 
Q 2881 1984 2565 2268 
Q 2250 2553 1709 2553 
Q 1456 2553 1204 2497 
Q 953 2441 691 2322 
L 691 4666 
z
" transform="scale(0.015625)"/>
       </defs>
       <use xlink:href="#DejaVuSans-30"/>
       <use xlink:href="#DejaVuSans-2e" transform="translate(63.623047 0)"/>
       <use xlink:href="#DejaVuSans-35" transform="translate(95.410156 0)"/>
      </g>
     </g>
    </g>
    <g id="ytick_3">
     <g id="line2d_17">
      <path d="M 47.6525 370.929912 
L 737.5225 370.929912 
" clip-path="url(#pc5db448bc5)" style="fill: none; stroke: #b0b0b0; stroke-opacity: 0.3; stroke-width: 0.8; stroke-linecap: square"/>
     </g>
     <g id="line2d_18">
      <g>
       <use xlink:href="#m603ed2f57c" x="47.6525" y="370.929912" style="stroke: #000000; stroke-width: 0.8"/>
      </g>
     </g>
     <g id="text_10">
      <!-- 1.0 -->
      <g transform="translate(24.749375 374.729131) scale(0.1 -0.1)">
       <use xlink:href="#DejaVuSans-31"/>
       <use xlink:href="#DejaVuSans-2e" transform="translate(63.623047 0)"/>
       <use xlink:href="#DejaVuSans-30" transform="translate(95.410156 0)"/>
      </g>
     </g>
    </g>
    <g id="ytick_4">
     <g id="line2d_19">
      <path d="M 47.6525 304.784868 
L 737.5225 304.784868 
" clip-path="url(#pc5db448bc5)" style="fill: none; stroke: #b0b0b0; stroke-opacity: 0.3; stroke-width: 0.8; stroke-linecap: square"/>
     </g>
     <g id="line2d_20">
      <g>
       <use xlink:href="#m603ed2f57c" x="47.6525" y="304.784868" style="stroke: #000000; stroke-width: 0.8"/>
      </g>
     </g>
     <g id="text_11">
      <!-- 1.5 -->
      <g transform="translate(24.749375 308.584087) scale(0.1 -0.1)">
       <use xlink:href="#DejaVuSans-31"/>
       <use xlink:href="#DejaVuSans-2e" transform="translate(63.623047 0)"/>
       <use xlink:href="#DejaVuSans-35" transform="translate(95.410156 0)"/>
      </g>
     </g>
    </g>
    <g id="ytick_5">
     <g id="line2d_21">
      <path d="M 47.6525 238.639824 
L 737.5225 238.639824 
" clip-path="url(#pc5db448bc5)" style="fill: none; stroke: #b0b0b0; stroke-opacity: 0.3; stroke-width: 0.8; stroke-linecap: square"/>
     </g>
     <g id="line2d_22">
      <g>
       <use xlink:href="#m603ed2f57c" x="47.6525" y="238.639824" style="stroke: #000000; stroke-width: 0.8"/>
      </g>
     </g>
     <g id="text_12">
      <!-- 2.0 -->
      <g transform="translate(24.749375 242.439043) scale(0.1 -0.1)">
       <use xlink:href="#DejaVuSans-32"/>
       <use xlink:href="#DejaVuSans-2e" transform="translate(63.623047 0)"/>
       <use xlink:href="#DejaVuSans-30" transform="translate(95.410156 0)"/>
      </g>
     </g>
    </g>
    <g id="ytick_6">
     <g id="line2d_23">
      <path d="M 47.6525 172.49478 
L 737.5225 172.49478 
" clip-path="url(#pc5db448bc5)" style="fill: none; stroke: #b0b0b0; stroke-opacity: 0.3; stroke-width: 0.8; stroke-linecap: square"/>
     </g>
     <g id="line2d_24">
      <g>
       <use xlink:href="#m603ed2f57c" x="47.6525" y="172.49478" style="stroke: #000000; stroke-width: 0.8"/>
      </g>
     </g>
     <g id="text_13">
      <!-- 2.5 -->
      <g transform="translate(24.749375 176.293999) scale(0.1 -0.1)">
       <use xlink:href="#DejaVuSans-32"/>
       <use xlink:href="#DejaVuSans-2e" transform="translate(63.623047 0)"/>
       <use xlink:href="#DejaVuSans-35" transform="translate(95.410156 0)"/>
      </g>
     </g>
    </g>
    <g id="ytick_7">
     <g id="line2d_25">
      <path d="M 47.6525 106.349736 
L 737.5225 106.349736 
" clip-path="url(#pc5db448bc5)" style="fill: none; stroke: #b0b0b0; stroke-opacity: 0.3; stroke-width: 0.8; stroke-linecap: square"/>
     </g>
     <g id="line2d_26">
      <g>
       <use xlink:href="#m603ed2f57c" x="47.6525" y="106.349736" style="stroke: #000000; stroke-width: 0.8"/>
      </g>
     </g>
     <g id="text_14">
      <!-- 3.0 -->
      <g transform="translate(24.749375 110.148955) scale(0.1 -0.1)">
       <defs>
        <path id="DejaVuSans-33" d="M 2597 2516 
Q 3050 2419 3304 2112 
Q 3559 1806 3559 1356 
Q 3559 666 3084 287 
Q 2609 -91 1734 -91 
Q 1441 -91 1130 -33 
Q 819 25 488 141 
L 488 750 
Q 750 597 1062 519 
Q 1375 441 1716 441 
Q 2309 441 2620 675 
Q 2931 909 2931 1356 
Q 2931 1769 2642 2001 
Q 2353 2234 1838 2234 
L 1294 2234 
L 1294 2753 
L 1863 2753 
Q 2328 2753 2575 2939 
Q 2822 3125 2822 3475 
Q 2822 3834 2567 4026 
Q 2313 4219 1838 4219 
Q 1578 4219 1281 4162 
Q 984 4106 628 3988 
L 628 4550 
Q 988 4650 1302 4700 
Q 1616 4750 1894 4750 
Q 2613 4750 3031 4423 
Q 3450 4097 3450 3541 
Q 3450 3153 3228 2886 
Q 3006 2619 2597 2516 
z
" transform="scale(0.015625)"/>
       </defs>
       <use xlink:href="#DejaVuSans-33"/>
       <use xlink:href="#DejaVuSans-2e" transform="translate(63.623047 0)"/>
       <use xlink:href="#DejaVuSans-30" transform="translate(95.410156 0)"/>
      </g>
     </g>
    </g>
    <g id="ytick_8">
     <g id="line2d_27">
      <path d="M 47.6525 40.204692 
L 737.5225 40.204692 
" clip-path="url(#pc5db448bc5)" style="fill: none; stroke: #b0b0b0; stroke-opacity: 0.3; stroke-width: 0.8; stroke-linecap: square"/>
     </g>
     <g id="line2d_28">
      <g>
       <use xlink:href="#m603ed2f57c" x="47.6525" y="40.204692" style="stroke: #000000; stroke-width: 0.8"/>
      </g>
     </g>
     <g id="text_15">
      <!-- 3.5 -->
      <g transform="translate(24.749375 44.003911) scale(0.1 -0.1)">
       <use xlink:href="#DejaVuSans-33"/>
       <use xlink:href="#DejaVuSans-2e" transform="translate(63.623047 0)"/>
       <use xlink:href="#DejaVuSans-35" transform="translate(95.410156 0)"/>
      </g>
     </g>
    </g>
    <g id="text_16">
     <!-- rᵢ (mining share) / αᵢ (hashrate ratio) -->
     <g transform="translate(17.837812 394.23625) rotate(-90) scale(0.14 -0.14)">
      <defs>
       <path id="DejaVuSans-72" d="M 2631 2963 
Q 2534 3019 2420 3045 
Q 2306 3072 2169 3072 
Q 1681 3072 1420 2755 
Q 1159 2438 1159 1844 
L 1159 0 
L 581 0 
L 581 3500 
L 1159 3500 
L 1159 2956 
Q 1341 3275 1631 3429 
Q 1922 3584 2338 3584 
Q 2397 3584 2469 3576 
Q 2541 3569 2628 3553 
L 2631 2963 
z
" transform="scale(0.015625)"/>
       <path id="DejaVuSans-1d62" d="M 381 1935 
L 744 1935 
L 744 -24 
L 381 -24 
L 381 1935 
z
M 381 2697 
L 744 2697 
L 744 2291 
L 381 2291 
L 381 2697 
z
" transform="scale(0.015625)"/>
       <path id="DejaVuSans-20" transform="scale(0.015625)"/>
       <path id="DejaVuSans-28" d="M 1984 4856 
Q 1566 4138 1362 3434 
Q 1159 2731 1159 2009 
Q 1159 1288 1364 580 
Q 1569 -128 1984 -844 
L 1484 -844 
Q 1016 -109 783 600 
Q 550 1309 550 2009 
Q 550 2706 781 3412 
Q 1013 4119 1484 4856 
L 1984 4856 
z
" transform="scale(0.015625)"/>
       <path id="DejaVuSans-6d" d="M 3328 2828 
Q 3544 3216 3844 3400 
Q 4144 3584 4550 3584 
Q 5097 3584 5394 3201 
Q 5691 2819 5691 2113 
L 5691 0 
L 5113 0 
L 5113 2094 
Q 5113 2597 4934 2840 
Q 4756 3084 4391 3084 
Q 3944 3084 3684 2787 
Q 3425 2491 3425 1978 
L 3425 0 
L 2847 0 
L 2847 2094 
Q 2847 2600 2669 2842 
Q 2491 3084 2119 3084 
Q 1678 3084 1418 2786 
Q 1159 2488 1159 1978 
L 1159 0 
L 581 0 
L 581 3500 
L 1159 3500 
L 1159 2956 
Q 1356 3278 1631 3431 
Q 1906 3584 2284 3584 
Q 2666 3584 2933 3390 
Q 3200 3197 3328 2828 
z
" transform="scale(0.015625)"/>
       <path id="DejaVuSans-69" d="M 603 3500 
L 1178 3500 
L 1178 0 
L 603 0 
L 603 3500 
z
M 603 4863 
L 1178 4863 
L 1178 4134 
L 603 4134 
L 603 4863 
z
" transform="scale(0.015625)"/>
       <path id="DejaVuSans-6e" d="M 3513 2113 
L 3513 0 
L 2938 0 
L 2938 2094 
Q 2938 2591 2744 2837 
Q 2550 3084 2163 3084 
Q 1697 3084 1428 2787 
Q 1159 2491 1159 1978 
L 1159 0 
L 581 0 
L 581 3500 
L 1159 3500 
L 1159 2956 
Q 1366 3272 1645 3428 
Q 1925 3584 2291 3584 
Q 2894 3584 3203 3211 
Q 3513 2838 3513 2113 
z
" transform="scale(0.015625)"/>
       <path id="DejaVuSans-67" d="M 2906 1791 
Q 2906 2416 2648 2759 
Q 2391 3103 1925 3103 
Q 1463 3103 1205 2759 
Q 947 2416 947 1791 
Q 947 1169 1205 825 
Q 1463 481 1925 481 
Q 2391 481 2648 825 
Q 2906 1169 2906 1791 
z
M 3481 434 
Q 3481 -459 3084 -895 
Q 2688 -1331 1869 -1331 
Q 1566 -1331 1297 -1286 
Q 1028 -1241 775 -1147 
L 775 -588 
Q 1028 -725 1275 -790 
Q 1522 -856 1778 -856 
Q 2344 -856 2625 -561 
Q 2906 -266 2906 331 
L 2906 616 
Q 2728 306 2450 153 
Q 2172 0 1784 0 
Q 1141 0 747 490 
Q 353 981 353 1791 
Q 353 2603 747 3093 
Q 1141 3584 1784 3584 
Q 2172 3584 2450 3431 
Q 2728 3278 2906 2969 
L 2906 3500 
L 3481 3500 
L 3481 434 
z
" transform="scale(0.015625)"/>
       <path id="DejaVuSans-73" d="M 2834 3397 
L 2834 2853 
Q 2591 2978 2328 3040 
Q 2066 3103 1784 3103 
Q 1356 3103 1142 2972 
Q 928 2841 928 2578 
Q 928 2378 1081 2264 
Q 1234 2150 1697 2047 
L 1894 2003 
Q 2506 1872 2764 1633 
Q 3022 1394 3022 966 
Q 3022 478 2636 193 
Q 2250 -91 1575 -91 
Q 1294 -91 989 -36 
Q 684 19 347 128 
L 347 722 
Q 666 556 975 473 
Q 1284 391 1588 391 
Q 1994 391 2212 530 
Q 2431 669 2431 922 
Q 2431 1156 2273 1281 
Q 2116 1406 1581 1522 
L 1381 1569 
Q 847 1681 609 1914 
Q 372 2147 372 2553 
Q 372 3047 722 3315 
Q 1072 3584 1716 3584 
Q 2034 3584 2315 3537 
Q 2597 3491 2834 3397 
z
" transform="scale(0.015625)"/>
       <path id="DejaVuSans-68" d="M 3513 2113 
L 3513 0 
L 2938 0 
L 2938 2094 
Q 2938 2591 2744 2837 
Q 2550 3084 2163 3084 
Q 1697 3084 1428 2787 
Q 1159 2491 1159 1978 
L 1159 0 
L 581 0 
L 581 4863 
L 1159 4863 
L 1159 2956 
Q 1366 3272 1645 3428 
Q 1925 3584 2291 3584 
Q 2894 3584 3203 3211 
Q 3513 2838 3513 2113 
z
" transform="scale(0.015625)"/>
       <path id="DejaVuSans-61" d="M 2194 1759 
Q 1497 1759 1228 1600 
Q 959 1441 959 1056 
Q 959 750 1161 570 
Q 1363 391 1709 391 
Q 2188 391 2477 730 
Q 2766 1069 2766 1631 
L 2766 1759 
L 2194 1759 
z
M 3341 1997 
L 3341 0 
L 2766 0 
L 2766 531 
Q 2569 213 2275 61 
Q 1981 -91 1556 -91 
Q 1019 -91 701 211 
Q 384 513 384 1019 
Q 384 1609 779 1909 
Q 1175 2209 1959 2209 
L 2766 2209 
L 2766 2266 
Q 2766 2663 2505 2880 
Q 2244 3097 1772 3097 
Q 1472 3097 1187 3025 
Q 903 2953 641 2809 
L 641 3341 
Q 956 3463 1253 3523 
Q 1550 3584 1831 3584 
Q 2591 3584 2966 3190 
Q 3341 2797 3341 1997 
z
" transform="scale(0.015625)"/>
       <path id="DejaVuSans-65" d="M 3597 1894 
L 3597 1613 
L 953 1613 
Q 991 1019 1311 708 
Q 1631 397 2203 397 
Q 2534 397 2845 478 
Q 3156 559 3463 722 
L 3463 178 
Q 3153 47 2828 -22 
Q 2503 -91 2169 -91 
Q 1331 -91 842 396 
Q 353 884 353 1716 
Q 353 2575 817 3079 
Q 1281 3584 2069 3584 
Q 2775 3584 3186 3129 
Q 3597 2675 3597 1894 
z
M 3022 2063 
Q 3016 2534 2758 2815 
Q 2500 3097 2075 3097 
Q 1594 3097 1305 2825 
Q 1016 2553 972 2059 
L 3022 2063 
z
" transform="scale(0.015625)"/>
       <path id="DejaVuSans-29" d="M 513 4856 
L 1013 4856 
Q 1481 4119 1714 3412 
Q 1947 2706 1947 2009 
Q 1947 1309 1714 600 
Q 1481 -109 1013 -844 
L 513 -844 
Q 928 -128 1133 580 
Q 1338 1288 1338 2009 
Q 1338 2731 1133 3434 
Q 928 4138 513 4856 
z
" transform="scale(0.015625)"/>
       <path id="DejaVuSans-3b1" d="M 2644 1628 
L 2506 2350 
Q 2366 3091 1809 3091 
Q 1391 3091 1200 2747 
Q 959 2316 959 1747 
Q 959 1059 1194 731 
Q 1431 397 1809 397 
Q 2228 397 2453 1063 
L 2644 1628 
z
M 2966 2584 
L 3275 3500 
L 3788 3500 
L 3147 1603 
L 3272 919 
Q 3300 766 3409 638 
Q 3538 488 3638 488 
L 3913 488 
L 3913 0 
L 3569 0 
Q 3275 0 3013 263 
Q 2884 394 2831 669 
Q 2688 322 2394 50 
Q 2256 -78 1809 -78 
Q 1075 -78 719 397 
Q 353 888 353 1747 
Q 353 2666 750 3097 
Q 1191 3578 1809 3578 
Q 2781 3578 2966 2584 
z
" transform="scale(0.015625)"/>
       <path id="DejaVuSans-74" d="M 1172 4494 
L 1172 3500 
L 2356 3500 
L 2356 3053 
L 1172 3053 
L 1172 1153 
Q 1172 725 1289 603 
Q 1406 481 1766 481 
L 2356 481 
L 2356 0 
L 1766 0 
Q 1100 0 847 248 
Q 594 497 594 1153 
L 594 3053 
L 172 3053 
L 172 3500 
L 594 3500 
L 594 4494 
L 1172 4494 
z
" transform="scale(0.015625)"/>
       <path id="DejaVuSans-6f" d="M 1959 3097 
Q 1497 3097 1228 2736 
Q 959 2375 959 1747 
Q 959 1119 1226 758 
Q 1494 397 1959 397 
Q 2419 397 2687 759 
Q 2956 1122 2956 1747 
Q 2956 2369 2687 2733 
Q 2419 3097 1959 3097 
z
M 1959 3584 
Q 2709 3584 3137 3096 
Q 3566 2609 3566 1747 
Q 3566 888 3137 398 
Q 2709 -91 1959 -91 
Q 1206 -91 779 398 
Q 353 888 353 1747 
Q 353 2609 779 3096 
Q 1206 3584 1959 3584 
z
" transform="scale(0.015625)"/>
      </defs>
      <use xlink:href="#DejaVuSans-72"/>
      <use xlink:href="#DejaVuSans-1d62" transform="translate(41.113281 0)"/>
      <use xlink:href="#DejaVuSans-20" transform="translate(58.984375 0)"/>
      <use xlink:href="#DejaVuSans-28" transform="translate(90.771484 0)"/>
      <use xlink:href="#DejaVuSans-6d" transform="translate(129.785156 0)"/>
      <use xlink:href="#DejaVuSans-69" transform="translate(227.197266 0)"/>
      <use xlink:href="#DejaVuSans-6e" transform="translate(254.980469 0)"/>
      <use xlink:href="#DejaVuSans-69" transform="translate(318.359375 0)"/>
      <use xlink:href="#DejaVuSans-6e" transform="translate(346.142578 0)"/>
      <use xlink:href="#DejaVuSans-67" transform="translate(409.521484 0)"/>
      <use xlink:href="#DejaVuSans-20" transform="translate(472.998047 0)"/>
      <use xlink:href="#DejaVuSans-73" transform="translate(504.785156 0)"/>
      <use xlink:href="#DejaVuSans-68" transform="translate(556.884766 0)"/>
      <use xlink:href="#DejaVuSans-61" transform="translate(620.263672 0)"/>
      <use xlink:href="#DejaVuSans-72" transform="translate(681.542969 0)"/>
      <use xlink:href="#DejaVuSans-65" transform="translate(720.40625 0)"/>
      <use xlink:href="#DejaVuSans-29" transform="translate(781.929688 0)"/>
      <use xlink:href="#DejaVuSans-20" transform="translate(820.943359 0)"/>
      <use xlink:href="#DejaVuSans-2f" transform="translate(852.730469 0)"/>
      <use xlink:href="#DejaVuSans-20" transform="translate(886.421875 0)"/>
      <use xlink:href="#DejaVuSans-3b1" transform="translate(918.208984 0)"/>
      <use xlink:href="#DejaVuSans-1d62" transform="translate(984.126953 0)"/>
      <use xlink:href="#DejaVuSans-20" transform="translate(1001.998047 0)"/>
      <use xlink:href="#DejaVuSans-28" transform="translate(1033.785156 0)"/>
      <use xlink:href="#DejaVuSans-68" transform="translate(1072.798828 0)"/>
      <use xlink:href="#DejaVuSans-61" transform="translate(1136.177734 0)"/>
      <use xlink:href="#DejaVuSans-73" transform="translate(1197.457031 0)"/>
      <use xlink:href="#DejaVuSans-68" transform="translate(1249.556641 0)"/>
      <use xlink:href="#DejaVuSans-72" transform="translate(1312.935547 0)"/>
      <use xlink:href="#DejaVuSans-61" transform="translate(1354.048828 0)"/>
      <use xlink:href="#DejaVuSans-74" transform="translate(1415.328125 0)"/>
      <use xlink:href="#DejaVuSans-65" transform="translate(1454.537109 0)"/>
      <use xlink:href="#DejaVuSans-20" transform="translate(1516.060547 0)"/>
      <use xlink:href="#DejaVuSans-72" transform="translate(1547.847656 0)"/>
      <use xlink:href="#DejaVuSans-61" transform="translate(1588.960938 0)"/>
      <use xlink:href="#DejaVuSans-74" transform="translate(1650.240234 0)"/>
      <use xlink:href="#DejaVuSans-69" transform="translate(1689.449219 0)"/>
      <use xlink:href="#DejaVuSans-6f" transform="translate(1717.232422 0)"/>
      <use xlink:href="#DejaVuSans-29" transform="translate(1778.414062 0)"/>
     </g>
    </g>
   </g>
   <g id="line2d_29">
    <path d="M 79.010227 366.253073 
L 79.714034 366.532443 
L 80.593951 365.670659 
L 81.725152 364.832549 
L 83.23349 364.145963 
L 85.345122 360.973459 
L 88.512569 358.605919 
L 93.791648 353.241073 
L 104.349805 338.415538 
L 136.024277 266.13454 
L 167.698749 196.566743 
L 199.373221 145.053807 
L 231.047693 112.192351 
L 262.722165 85.82269 
L 326.071109 58.060916 
L 357.745581 48.893801 
L 389.420053 42.491972 
L 421.094525 39.987115 
L 452.768997 37.084511 
L 484.443469 35.375147 
L 516.117941 34.39025 
L 547.792413 32.785058 
L 611.141357 32.008505 
L 642.815829 31.648639 
L 674.490301 31.326654 
L 706.164773 30.82 
" clip-path="url(#pc5db448bc5)" style="fill: none; stroke: #1f77b4; stroke-width: 2; stroke-linecap: square"/>
    <defs>
     <path id="m59190c03fb" d="M 0 3 
C 0.795609 3 1.55874 2.683901 2.12132 2.12132 
C 2.683901 1.55874 3 0.795609 3 0 
C 3 -0.795609 2.683901 -1.55874 2.12132 -2.12132 
C 1.55874 -2.683901 0.795609 -3 0 -3 
C -0.795609 -3 -1.55874 -2.683901 -2.12132 -2.12132 
C -2.683901 -1.55874 -3 -0.795609 -3 0 
C -3 0.795609 -2.683901 1.55874 -2.12132 2.12132 
C -1.55874 2.683901 -0.795609 3 0 3 
z
" style="stroke: #1f77b4"/>
    </defs>
    <g clip-path="url(#pc5db448bc5)">
     <use xlink:href="#m59190c03fb" x="79.010227" y="366.253073" style="fill: #1f77b4; stroke: #1f77b4"/>
     <use xlink:href="#m59190c03fb" x="79.714034" y="366.532443" style="fill: #1f77b4; stroke: #1f77b4"/>
     <use xlink:href="#m59190c03fb" x="80.593951" y="365.670659" style="fill: #1f77b4; stroke: #1f77b4"/>
     <use xlink:href="#m59190c03fb" x="81.725152" y="364.832549" style="fill: #1f77b4; stroke: #1f77b4"/>
     <use xlink:href="#m59190c03fb" x="83.23349" y="364.145963" style="fill: #1f77b4; stroke: #1f77b4"/>
     <use xlink:href="#m59190c03fb" x="85.345122" y="360.973459" style="fill: #1f77b4; stroke: #1f77b4"/>
     <use xlink:href="#m59190c03fb" x="88.512569" y="358.605919" style="fill: #1f77b4; stroke: #1f77b4"/>
     <use xlink:href="#m59190c03fb" x="93.791648" y="353.241073" style="fill: #1f77b4; stroke: #1f77b4"/>
     <use xlink:href="#m59190c03fb" x="104.349805" y="338.415538" style="fill: #1f77b4; stroke: #1f77b4"/>
     <use xlink:href="#m59190c03fb" x="136.024277" y="266.13454" style="fill: #1f77b4; stroke: #1f77b4"/>
     <use xlink:href="#m59190c03fb" x="167.698749" y="196.566743" style="fill: #1f77b4; stroke: #1f77b4"/>
     <use xlink:href="#m59190c03fb" x="199.373221" y="145.053807" style="fill: #1f77b4; stroke: #1f77b4"/>
     <use xlink:href="#m59190c03fb" x="231.047693" y="112.192351" style="fill: #1f77b4; stroke: #1f77b4"/>
     <use xlink:href="#m59190c03fb" x="262.722165" y="85.82269" style="fill: #1f77b4; stroke: #1f77b4"/>
     <use xlink:href="#m59190c03fb" x="326.071109" y="58.060916" style="fill: #1f77b4; stroke: #1f77b4"/>
     <use xlink:href="#m59190c03fb" x="357.745581" y="48.893801" style="fill: #1f77b4; stroke: #1f77b4"/>
     <use xlink:href="#m59190c03fb" x="389.420053" y="42.491972" style="fill: #1f77b4; stroke: #1f77b4"/>
     <use xlink:href="#m59190c03fb" x="421.094525" y="39.987115" style="fill: #1f77b4; stroke: #1f77b4"/>
     <use xlink:href="#m59190c03fb" x="452.768997" y="37.084511" style="fill: #1f77b4; stroke: #1f77b4"/>
     <use xlink:href="#m59190c03fb" x="484.443469" y="35.375147" style="fill: #1f77b4; stroke: #1f77b4"/>
     <use xlink:href="#m59190c03fb" x="516.117941" y="34.39025" style="fill: #1f77b4; stroke: #1f77b4"/>
     <use xlink:href="#m59190c03fb" x="547.792413" y="32.785058" style="fill: #1f77b4; stroke: #1f77b4"/>
     <use xlink:href="#m59190c03fb" x="611.141357" y="32.008505" style="fill: #1f77b4; stroke: #1f77b4"/>
     <use xlink:href="#m59190c03fb" x="642.815829" y="31.648639" style="fill: #1f77b4; stroke: #1f77b4"/>
     <use xlink:href="#m59190c03fb" x="674.490301" y="31.326654" style="fill: #1f77b4; stroke: #1f77b4"/>
     <use xlink:href="#m59190c03fb" x="706.164773" y="30.82" style="fill: #1f77b4; stroke: #1f77b4"/>
    </g>
   </g>
   <g id="line2d_30">
    <path d="M 79.010227 370.039509 
L 79.714034 370.920412 
L 80.593951 368.027249 
L 81.725152 369.529967 
L 83.23349 369.901328 
L 85.345122 370.669959 
L 88.512569 370.842685 
L 93.791648 369.797692 
L 104.349805 366.844075 
L 136.024277 372.777218 
L 167.698749 389.747561 
L 199.373221 411.001513 
L 231.047693 428.636852 
L 262.722165 449.303535 
L 326.071109 472.457474 
L 357.745581 482.389227 
L 389.420053 489.134183 
L 421.094525 491.733712 
L 452.768997 494.704601 
L 484.443469 496.682316 
L 516.117941 496.760042 
L 547.792413 499.558206 
L 611.141357 500.611835 
L 642.815829 501.268195 
L 674.490301 501.492739 
L 706.164773 502.010917 
" clip-path="url(#pc5db448bc5)" style="fill: none; stroke: #ff7f0e; stroke-width: 2; stroke-linecap: square"/>
    <defs>
     <path id="mfa1bd6bb46" d="M 0 3 
C 0.795609 3 1.55874 2.683901 2.12132 2.12132 
C 2.683901 1.55874 3 0.795609 3 0 
C 3 -0.795609 2.683901 -1.55874 2.12132 -2.12132 
C 1.55874 -2.683901 0.795609 -3 0 -3 
C -0.795609 -3 -1.55874 -2.683901 -2.12132 -2.12132 
C -2.683901 -1.55874 -3 -0.795609 -3 0 
C -3 0.795609 -2.683901 1.55874 -2.12132 2.12132 
C -1.55874 2.683901 -0.795609 3 0 3 
z
" style="stroke: #ff7f0e"/>
    </defs>
    <g clip-path="url(#pc5db448bc5)">
     <use xlink:href="#mfa1bd6bb46" x="79.010227" y="370.039509" style="fill: #ff7f0e; stroke: #ff7f0e"/>
     <use xlink:href="#mfa1bd6bb46" x="79.714034" y="370.920412" style="fill: #ff7f0e; stroke: #ff7f0e"/>
     <use xlink:href="#mfa1bd6bb46" x="80.593951" y="368.027249" style="fill: #ff7f0e; stroke: #ff7f0e"/>
     <use xlink:href="#mfa1bd6bb46" x="81.725152" y="369.529967" style="fill: #ff7f0e; stroke: #ff7f0e"/>
     <use xlink:href="#mfa1bd6bb46" x="83.23349" y="369.901328" style="fill: #ff7f0e; stroke: #ff7f0e"/>
     <use xlink:href="#mfa1bd6bb46" x="85.345122" y="370.669959" style="fill: #ff7f0e; stroke: #ff7f0e"/>
     <use xlink:href="#mfa1bd6bb46" x="88.512569" y="370.842685" style="fill: #ff7f0e; stroke: #ff7f0e"/>
     <use xlink:href="#mfa1bd6bb46" x="93.791648" y="369.797692" style="fill: #ff7f0e; stroke: #ff7f0e"/>
     <use xlink:href="#mfa1bd6bb46" x="104.349805" y="366.844075" style="fill: #ff7f0e; stroke: #ff7f0e"/>
     <use xlink:href="#mfa1bd6bb46" x="136.024277" y="372.777218" style="fill: #ff7f0e; stroke: #ff7f0e"/>
     <use xlink:href="#mfa1bd6bb46" x="167.698749" y="389.747561" style="fill: #ff7f0e; stroke: #ff7f0e"/>
     <use xlink:href="#mfa1bd6bb46" x="199.373221" y="411.001513" style="fill: #ff7f0e; stroke: #ff7f0e"/>
     <use xlink:href="#mfa1bd6bb46" x="231.047693" y="428.636852" style="fill: #ff7f0e; stroke: #ff7f0e"/>
     <use xlink:href="#mfa1bd6bb46" x="262.722165" y="449.303535" style="fill: #ff7f0e; stroke: #ff7f0e"/>
     <use xlink:href="#mfa1bd6bb46" x="326.071109" y="472.457474" style="fill: #ff7f0e; stroke: #ff7f0e"/>
     <use xlink:href="#mfa1bd6bb46" x="357.745581" y="482.389227" style="fill: #ff7f0e; stroke: #ff7f0e"/>
     <use xlink:href="#mfa1bd6bb46" x="389.420053" y="489.134183" style="fill: #ff7f0e; stroke: #ff7f0e"/>
     <use xlink:href="#mfa1bd6bb46" x="421.094525" y="491.733712" style="fill: #ff7f0e; stroke: #ff7f0e"/>
     <use xlink:href="#mfa1bd6bb46" x="452.768997" y="494.704601" style="fill: #ff7f0e; stroke: #ff7f0e"/>
     <use xlink:href="#mfa1bd6bb46" x="484.443469" y="496.682316" style="fill: #ff7f0e; stroke: #ff7f0e"/>
     <use xlink:href="#mfa1bd6bb46" x="516.117941" y="496.760042" style="fill: #ff7f0e; stroke: #ff7f0e"/>
     <use xlink:href="#mfa1bd6bb46" x="547.792413" y="499.558206" style="fill: #ff7f0e; stroke: #ff7f0e"/>
     <use xlink:href="#mfa1bd6bb46" x="611.141357" y="500.611835" style="fill: #ff7f0e; stroke: #ff7f0e"/>
     <use xlink:href="#mfa1bd6bb46" x="642.815829" y="501.268195" style="fill: #ff7f0e; stroke: #ff7f0e"/>
     <use xlink:href="#mfa1bd6bb46" x="674.490301" y="501.492739" style="fill: #ff7f0e; stroke: #ff7f0e"/>
     <use xlink:href="#mfa1bd6bb46" x="706.164773" y="502.010917" style="fill: #ff7f0e; stroke: #ff7f0e"/>
    </g>
   </g>
   <g id="line2d_31">
    <path d="M 79.010227 371.980551 
L 79.714034 371.991196 
L 80.593951 372.800199 
L 81.725152 371.778301 
L 83.23349 372.310539 
L 85.345122 370.958653 
L 88.512569 370.798981 
L 93.791648 374.077572 
L 104.349805 373.726295 
L 136.024277 391.684033 
L 167.698749 413.356797 
L 199.373221 441.224822 
L 231.047693 458.831282 
L 262.722165 474.063957 
L 326.071109 490.776256 
L 357.745581 493.405516 
L 389.420053 497.067319 
L 421.094525 498.121152 
L 452.768997 499.547552 
L 484.443469 500.548161 
L 516.117941 501.953272 
L 547.792413 502.272615 
L 611.141357 502.400352 
L 642.815829 502.112943 
L 674.490301 502.410997 
L 706.164773 502.826143 
" clip-path="url(#pc5db448bc5)" style="fill: none; stroke: #2ca02c; stroke-width: 2; stroke-linecap: square"/>
    <defs>
     <path id="mec9009097c" d="M 0 3 
C 0.795609 3 1.55874 2.683901 2.12132 2.12132 
C 2.683901 1.55874 3 0.795609 3 0 
C 3 -0.795609 2.683901 -1.55874 2.12132 -2.12132 
C 1.55874 -2.683901 0.795609 -3 0 -3 
C -0.795609 -3 -1.55874 -2.683901 -2.12132 -2.12132 
C -2.683901 -1.55874 -3 -0.795609 -3 0 
C -3 0.795609 -2.683901 1.55874 -2.12132 2.12132 
C -1.55874 2.683901 -0.795609 3 0 3 
z
" style="stroke: #2ca02c"/>
    </defs>
    <g clip-path="url(#pc5db448bc5)">
     <use xlink:href="#mec9009097c" x="79.010227" y="371.980551" style="fill: #2ca02c; stroke: #2ca02c"/>
     <use xlink:href="#mec9009097c" x="79.714034" y="371.991196" style="fill: #2ca02c; stroke: #2ca02c"/>
     <use xlink:href="#mec9009097c" x="80.593951" y="372.800199" style="fill: #2ca02c; stroke: #2ca02c"/>
     <use xlink:href="#mec9009097c" x="81.725152" y="371.778301" style="fill: #2ca02c; stroke: #2ca02c"/>
     <use xlink:href="#mec9009097c" x="83.23349" y="372.310539" style="fill: #2ca02c; stroke: #2ca02c"/>
     <use xlink:href="#mec9009097c" x="85.345122" y="370.958653" style="fill: #2ca02c; stroke: #2ca02c"/>
     <use xlink:href="#mec9009097c" x="88.512569" y="370.798981" style="fill: #2ca02c; stroke: #2ca02c"/>
     <use xlink:href="#mec9009097c" x="93.791648" y="374.077572" style="fill: #2ca02c; stroke: #2ca02c"/>
     <use xlink:href="#mec9009097c" x="104.349805" y="373.726295" style="fill: #2ca02c; stroke: #2ca02c"/>
     <use xlink:href="#mec9009097c" x="136.024277" y="391.684033" style="fill: #2ca02c; stroke: #2ca02c"/>
     <use xlink:href="#mec9009097c" x="167.698749" y="413.356797" style="fill: #2ca02c; stroke: #2ca02c"/>
     <use xlink:href="#mec9009097c" x="199.373221" y="441.224822" style="fill: #2ca02c; stroke: #2ca02c"/>
     <use xlink:href="#mec9009097c" x="231.047693" y="458.831282" style="fill: #2ca02c; stroke: #2ca02c"/>
     <use xlink:href="#mec9009097c" x="262.722165" y="474.063957" style="fill: #2ca02c; stroke: #2ca02c"/>
     <use xlink:href="#mec9009097c" x="326.071109" y="490.776256" style="fill: #2ca02c; stroke: #2ca02c"/>
     <use xlink:href="#mec9009097c" x="357.745581" y="493.405516" style="fill: #2ca02c; stroke: #2ca02c"/>
     <use xlink:href="#mec9009097c" x="389.420053" y="497.067319" style="fill: #2ca02c; stroke: #2ca02c"/>
     <use xlink:href="#mec9009097c" x="421.094525" y="498.121152" style="fill: #2ca02c; stroke: #2ca02c"/>
     <use xlink:href="#mec9009097c" x="452.768997" y="499.547552" style="fill: #2ca02c; stroke: #2ca02c"/>
     <use xlink:href="#mec9009097c" x="484.443469" y="500.548161" style="fill: #2ca02c; stroke: #2ca02c"/>
     <use xlink:href="#mec9009097c" x="516.117941" y="501.953272" style="fill: #2ca02c; stroke: #2ca02c"/>
     <use xlink:href="#mec9009097c" x="547.792413" y="502.272615" style="fill: #2ca02c; stroke: #2ca02c"/>
     <use xlink:href="#mec9009097c" x="611.141357" y="502.400352" style="fill: #2ca02c; stroke: #2ca02c"/>
     <use xlink:href="#mec9009097c" x="642.815829" y="502.112943" style="fill: #2ca02c; stroke: #2ca02c"/>
     <use xlink:href="#mec9009097c" x="674.490301" y="502.410997" style="fill: #2ca02c; stroke: #2ca02c"/>
     <use xlink:href="#mec9009097c" x="706.164773" y="502.826143" style="fill: #2ca02c; stroke: #2ca02c"/>
    </g>
   </g>
   <g id="line2d_32">
    <path d="M 79.010227 371.841742 
L 79.714034 372.323555 
L 80.593951 371.673108 
L 81.725152 374.021945 
L 83.23349 372.419918 
L 85.345122 372.793322 
L 88.512569 374.937389 
L 93.791648 375.623971 
L 104.349805 380.960046 
L 136.024277 400.630047 
L 167.698749 432.249 
L 199.373221 453.689662 
L 231.047693 471.637182 
L 262.722165 481.056619 
L 326.071109 493.692155 
L 357.745581 497.655064 
L 389.420053 499.437771 
L 421.094525 500.630257 
L 452.768997 501.895015 
L 484.443469 502.003423 
L 516.117941 502.292511 
L 547.792413 502.08774 
L 611.141357 502.388873 
L 642.815829 502.593644 
L 674.490301 502.738187 
L 706.164773 502.65387 
" clip-path="url(#pc5db448bc5)" style="fill: none; stroke: #d62728; stroke-width: 2; stroke-linecap: square"/>
    <defs>
     <path id="m5ad6da498b" d="M 0 3 
C 0.795609 3 1.55874 2.683901 2.12132 2.12132 
C 2.683901 1.55874 3 0.795609 3 0 
C 3 -0.795609 2.683901 -1.55874 2.12132 -2.12132 
C 1.55874 -2.683901 0.795609 -3 0 -3 
C -0.795609 -3 -1.55874 -2.683901 -2.12132 -2.12132 
C -2.683901 -1.55874 -3 -0.795609 -3 0 
C -3 0.795609 -2.683901 1.55874 -2.12132 2.12132 
C -1.55874 2.683901 -0.795609 3 0 3 
z
" style="stroke: #d62728"/>
    </defs>
    <g clip-path="url(#pc5db448bc5)">
     <use xlink:href="#m5ad6da498b" x="79.010227" y="371.841742" style="fill: #d62728; stroke: #d62728"/>
     <use xlink:href="#m5ad6da498b" x="79.714034" y="372.323555" style="fill: #d62728; stroke: #d62728"/>
     <use xlink:href="#m5ad6da498b" x="80.593951" y="371.673108" style="fill: #d62728; stroke: #d62728"/>
     <use xlink:href="#m5ad6da498b" x="81.725152" y="374.021945" style="fill: #d62728; stroke: #d62728"/>
     <use xlink:href="#m5ad6da498b" x="83.23349" y="372.419918" style="fill: #d62728; stroke: #d62728"/>
     <use xlink:href="#m5ad6da498b" x="85.345122" y="372.793322" style="fill: #d62728; stroke: #d62728"/>
     <use xlink:href="#m5ad6da498b" x="88.512569" y="374.937389" style="fill: #d62728; stroke: #d62728"/>
     <use xlink:href="#m5ad6da498b" x="93.791648" y="375.623971" style="fill: #d62728; stroke: #d62728"/>
     <use xlink:href="#m5ad6da498b" x="104.349805" y="380.960046" style="fill: #d62728; stroke: #d62728"/>
     <use xlink:href="#m5ad6da498b" x="136.024277" y="400.630047" style="fill: #d62728; stroke: #d62728"/>
     <use xlink:href="#m5ad6da498b" x="167.698749" y="432.249" style="fill: #d62728; stroke: #d62728"/>
     <use xlink:href="#m5ad6da498b" x="199.373221" y="453.689662" style="fill: #d62728; stroke: #d62728"/>
     <use xlink:href="#m5ad6da498b" x="231.047693" y="471.637182" style="fill: #d62728; stroke: #d62728"/>
     <use xlink:href="#m5ad6da498b" x="262.722165" y="481.056619" style="fill: #d62728; stroke: #d62728"/>
     <use xlink:href="#m5ad6da498b" x="326.071109" y="493.692155" style="fill: #d62728; stroke: #d62728"/>
     <use xlink:href="#m5ad6da498b" x="357.745581" y="497.655064" style="fill: #d62728; stroke: #d62728"/>
     <use xlink:href="#m5ad6da498b" x="389.420053" y="499.437771" style="fill: #d62728; stroke: #d62728"/>
     <use xlink:href="#m5ad6da498b" x="421.094525" y="500.630257" style="fill: #d62728; stroke: #d62728"/>
     <use xlink:href="#m5ad6da498b" x="452.768997" y="501.895015" style="fill: #d62728; stroke: #d62728"/>
     <use xlink:href="#m5ad6da498b" x="484.443469" y="502.003423" style="fill: #d62728; stroke: #d62728"/>
     <use xlink:href="#m5ad6da498b" x="516.117941" y="502.292511" style="fill: #d62728; stroke: #d62728"/>
     <use xlink:href="#m5ad6da498b" x="547.792413" y="502.08774" style="fill: #d62728; stroke: #d62728"/>
     <use xlink:href="#m5ad6da498b" x="611.141357" y="502.388873" style="fill: #d62728; stroke: #d62728"/>
     <use xlink:href="#m5ad6da498b" x="642.815829" y="502.593644" style="fill: #d62728; stroke: #d62728"/>
     <use xlink:href="#m5ad6da498b" x="674.490301" y="502.738187" style="fill: #d62728; stroke: #d62728"/>
     <use xlink:href="#m5ad6da498b" x="706.164773" y="502.65387" style="fill: #d62728; stroke: #d62728"/>
    </g>
   </g>
   <g id="line2d_33">
    <path d="M 79.010227 371.192687 
L 79.714034 372.924756 
L 80.593951 374.906492 
L 81.725152 371.660814 
L 83.23349 374.438365 
L 85.345122 377.137895 
L 88.512569 376.248455 
L 93.791648 376.420101 
L 104.349805 385.938676 
L 136.024277 414.884506 
L 167.698749 448.527206 
L 199.373221 473.478355 
L 231.047693 486.024149 
L 262.722165 493.358132 
L 326.071109 498.257858 
L 357.745581 500.426844 
L 389.420053 501.768807 
L 421.094525 501.706391 
L 452.768997 502.22133 
L 484.443469 502.346164 
L 516.117941 502.720665 
L 547.792413 502.705061 
L 611.141357 502.876707 
L 642.815829 502.985937 
L 674.490301 502.939124 
L 706.164773 503.095166 
" clip-path="url(#pc5db448bc5)" style="fill: none; stroke: #9467bd; stroke-width: 2; stroke-linecap: square"/>
    <defs>
     <path id="md41968e80a" d="M 0 3 
C 0.795609 3 1.55874 2.683901 2.12132 2.12132 
C 2.683901 1.55874 3 0.795609 3 0 
C 3 -0.795609 2.683901 -1.55874 2.12132 -2.12132 
C 1.55874 -2.683901 0.795609 -3 0 -3 
C -0.795609 -3 -1.55874 -2.683901 -2.12132 -2.12132 
C -2.683901 -1.55874 -3 -0.795609 -3 0 
C -3 0.795609 -2.683901 1.55874 -2.12132 2.12132 
C -1.55874 2.683901 -0.795609 3 0 3 
z
" style="stroke: #9467bd"/>
    </defs>
    <g clip-path="url(#pc5db448bc5)">
     <use xlink:href="#md41968e80a" x="79.010227" y="371.192687" style="fill: #9467bd; stroke: #9467bd"/>
     <use xlink:href="#md41968e80a" x="79.714034" y="372.924756" style="fill: #9467bd; stroke: #9467bd"/>
     <use xlink:href="#md41968e80a" x="80.593951" y="374.906492" style="fill: #9467bd; stroke: #9467bd"/>
     <use xlink:href="#md41968e80a" x="81.725152" y="371.660814" style="fill: #9467bd; stroke: #9467bd"/>
     <use xlink:href="#md41968e80a" x="83.23349" y="374.438365" style="fill: #9467bd; stroke: #9467bd"/>
     <use xlink:href="#md41968e80a" x="85.345122" y="377.137895" style="fill: #9467bd; stroke: #9467bd"/>
     <use xlink:href="#md41968e80a" x="88.512569" y="376.248455" style="fill: #9467bd; stroke: #9467bd"/>
     <use xlink:href="#md41968e80a" x="93.791648" y="376.420101" style="fill: #9467bd; stroke: #9467bd"/>
     <use xlink:href="#md41968e80a" x="104.349805" y="385.938676" style="fill: #9467bd; stroke: #9467bd"/>
     <use xlink:href="#md41968e80a" x="136.024277" y="414.884506" style="fill: #9467bd; stroke: #9467bd"/>
     <use xlink:href="#md41968e80a" x="167.698749" y="448.527206" style="fill: #9467bd; stroke: #9467bd"/>
     <use xlink:href="#md41968e80a" x="199.373221" y="473.478355" style="fill: #9467bd; stroke: #9467bd"/>
     <use xlink:href="#md41968e80a" x="231.047693" y="486.024149" style="fill: #9467bd; stroke: #9467bd"/>
     <use xlink:href="#md41968e80a" x="262.722165" y="493.358132" style="fill: #9467bd; stroke: #9467bd"/>
     <use xlink:href="#md41968e80a" x="326.071109" y="498.257858" style="fill: #9467bd; stroke: #9467bd"/>
     <use xlink:href="#md41968e80a" x="357.745581" y="500.426844" style="fill: #9467bd; stroke: #9467bd"/>
     <use xlink:href="#md41968e80a" x="389.420053" y="501.768807" style="fill: #9467bd; stroke: #9467bd"/>
     <use xlink:href="#md41968e80a" x="421.094525" y="501.706391" style="fill: #9467bd; stroke: #9467bd"/>
     <use xlink:href="#md41968e80a" x="452.768997" y="502.22133" style="fill: #9467bd; stroke: #9467bd"/>
     <use xlink:href="#md41968e80a" x="484.443469" y="502.346164" style="fill: #9467bd; stroke: #9467bd"/>
     <use xlink:href="#md41968e80a" x="516.117941" y="502.720665" style="fill: #9467bd; stroke: #9467bd"/>
     <use xlink:href="#md41968e80a" x="547.792413" y="502.705061" style="fill: #9467bd; stroke: #9467bd"/>
     <use xlink:href="#md41968e80a" x="611.141357" y="502.876707" style="fill: #9467bd; stroke: #9467bd"/>
     <use xlink:href="#md41968e80a" x="642.815829" y="502.985937" style="fill: #9467bd; stroke: #9467bd"/>
     <use xlink:href="#md41968e80a" x="674.490301" y="502.939124" style="fill: #9467bd; stroke: #9467bd"/>
     <use xlink:href="#md41968e80a" x="706.164773" y="503.095166" style="fill: #9467bd; stroke: #9467bd"/>
    </g>
   </g>
   <g id="line2d_34">
    <path d="M 79.010227 373.855909 
L 79.714034 368.735128 
L 80.593951 376.316173 
L 81.725152 375.143256 
L 83.23349 376.97415 
L 85.345122 375.829842 
L 88.512569 380.206822 
L 93.791648 383.153417 
L 104.349805 392.679786 
L 136.024277 436.506807 
L 167.698749 471.40822 
L 199.373221 486.198409 
L 231.047693 495.524524 
L 262.722165 499.672643 
L 326.071109 502.104299 
L 357.745581 502.504807 
L 389.420053 502.476199 
L 421.094525 502.562023 
L 452.768997 502.8481 
L 484.443469 503.134177 
L 516.117941 503.134177 
L 547.792413 503.076961 
L 611.141357 503.048354 
L 642.815829 503.191392 
L 674.490301 503.048354 
L 706.164773 503.191392 
" clip-path="url(#pc5db448bc5)" style="fill: none; stroke: #8c564b; stroke-width: 2; stroke-linecap: square"/>
    <defs>
     <path id="m422ec3c86a" d="M 0 3 
C 0.795609 3 1.55874 2.683901 2.12132 2.12132 
C 2.683901 1.55874 3 0.795609 3 0 
C 3 -0.795609 2.683901 -1.55874 2.12132 -2.12132 
C 1.55874 -2.683901 0.795609 -3 0 -3 
C -0.795609 -3 -1.55874 -2.683901 -2.12132 -2.12132 
C -2.683901 -1.55874 -3 -0.795609 -3 0 
C -3 0.795609 -2.683901 1.55874 -2.12132 2.12132 
C -1.55874 2.683901 -0.795609 3 0 3 
z
" style="stroke: #8c564b"/>
    </defs>
    <g clip-path="url(#pc5db448bc5)">
     <use xlink:href="#m422ec3c86a" x="79.010227" y="373.855909" style="fill: #8c564b; stroke: #8c564b"/>
     <use xlink:href="#m422ec3c86a" x="79.714034" y="368.735128" style="fill: #8c564b; stroke: #8c564b"/>
     <use xlink:href="#m422ec3c86a" x="80.593951" y="376.316173" style="fill: #8c564b; stroke: #8c564b"/>
     <use xlink:href="#m422ec3c86a" x="81.725152" y="375.143256" style="fill: #8c564b; stroke: #8c564b"/>
     <use xlink:href="#m422ec3c86a" x="83.23349" y="376.97415" style="fill: #8c564b; stroke: #8c564b"/>
     <use xlink:href="#m422ec3c86a" x="85.345122" y="375.829842" style="fill: #8c564b; stroke: #8c564b"/>
     <use xlink:href="#m422ec3c86a" x="88.512569" y="380.206822" style="fill: #8c564b; stroke: #8c564b"/>
     <use xlink:href="#m422ec3c86a" x="93.791648" y="383.153417" style="fill: #8c564b; stroke: #8c564b"/>
     <use xlink:href="#m422ec3c86a" x="104.349805" y="392.679786" style="fill: #8c564b; stroke: #8c564b"/>
     <use xlink:href="#m422ec3c86a" x="136.024277" y="436.506807" style="fill: #8c564b; stroke: #8c564b"/>
     <use xlink:href="#m422ec3c86a" x="167.698749" y="471.40822" style="fill: #8c564b; stroke: #8c564b"/>
     <use xlink:href="#m422ec3c86a" x="199.373221" y="486.198409" style="fill: #8c564b; stroke: #8c564b"/>
     <use xlink:href="#m422ec3c86a" x="231.047693" y="495.524524" style="fill: #8c564b; stroke: #8c564b"/>
     <use xlink:href="#m422ec3c86a" x="262.722165" y="499.672643" style="fill: #8c564b; stroke: #8c564b"/>
     <use xlink:href="#m422ec3c86a" x="326.071109" y="502.104299" style="fill: #8c564b; stroke: #8c564b"/>
     <use xlink:href="#m422ec3c86a" x="357.745581" y="502.504807" style="fill: #8c564b; stroke: #8c564b"/>
     <use xlink:href="#m422ec3c86a" x="389.420053" y="502.476199" style="fill: #8c564b; stroke: #8c564b"/>
     <use xlink:href="#m422ec3c86a" x="421.094525" y="502.562023" style="fill: #8c564b; stroke: #8c564b"/>
     <use xlink:href="#m422ec3c86a" x="452.768997" y="502.8481" style="fill: #8c564b; stroke: #8c564b"/>
     <use xlink:href="#m422ec3c86a" x="484.443469" y="503.134177" style="fill: #8c564b; stroke: #8c564b"/>
     <use xlink:href="#m422ec3c86a" x="516.117941" y="503.134177" style="fill: #8c564b; stroke: #8c564b"/>
     <use xlink:href="#m422ec3c86a" x="547.792413" y="503.076961" style="fill: #8c564b; stroke: #8c564b"/>
     <use xlink:href="#m422ec3c86a" x="611.141357" y="503.048354" style="fill: #8c564b; stroke: #8c564b"/>
     <use xlink:href="#m422ec3c86a" x="642.815829" y="503.191392" style="fill: #8c564b; stroke: #8c564b"/>
     <use xlink:href="#m422ec3c86a" x="674.490301" y="503.048354" style="fill: #8c564b; stroke: #8c564b"/>
     <use xlink:href="#m422ec3c86a" x="706.164773" y="503.191392" style="fill: #8c564b; stroke: #8c564b"/>
    </g>
   </g>
   <g id="line2d_35">
    <path d="M 79.010227 374.272605 
L 79.714034 374.501467 
L 80.593951 376.626614 
L 81.725152 373.586019 
L 83.23349 370.774286 
L 85.345122 379.144096 
L 88.512569 381.269244 
L 93.791648 385.944568 
L 104.349805 397.322279 
L 136.024277 443.290848 
L 167.698749 473.206382 
L 199.373221 489.292112 
L 231.047693 496.550307 
L 262.722165 500.310183 
L 326.071109 501.944912 
L 357.745581 502.794971 
L 389.420053 502.631498 
L 421.094525 502.958443 
L 452.768997 502.533414 
L 484.443469 502.86036 
L 516.117941 503.121916 
L 547.792413 503.22 
L 611.141357 503.22 
L 642.815829 503.056527 
L 674.490301 503.187305 
L 706.164773 503.22 
" clip-path="url(#pc5db448bc5)" style="fill: none; stroke: #e377c2; stroke-width: 2; stroke-linecap: square"/>
    <defs>
     <path id="mb98935d8a6" d="M 0 3 
C 0.795609 3 1.55874 2.683901 2.12132 2.12132 
C 2.683901 1.55874 3 0.795609 3 0 
C 3 -0.795609 2.683901 -1.55874 2.12132 -2.12132 
C 1.55874 -2.683901 0.795609 -3 0 -3 
C -0.795609 -3 -1.55874 -2.683901 -2.12132 -2.12132 
C -2.683901 -1.55874 -3 -0.795609 -3 0 
C -3 0.795609 -2.683901 1.55874 -2.12132 2.12132 
C -1.55874 2.683901 -0.795609 3 0 3 
z
" style="stroke: #e377c2"/>
    </defs>
    <g clip-path="url(#pc5db448bc5)">
     <use xlink:href="#mb98935d8a6" x="79.010227" y="374.272605" style="fill: #e377c2; stroke: #e377c2"/>
     <use xlink:href="#mb98935d8a6" x="79.714034" y="374.501467" style="fill: #e377c2; stroke: #e377c2"/>
     <use xlink:href="#mb98935d8a6" x="80.593951" y="376.626614" style="fill: #e377c2; stroke: #e377c2"/>
     <use xlink:href="#mb98935d8a6" x="81.725152" y="373.586019" style="fill: #e377c2; stroke: #e377c2"/>
     <use xlink:href="#mb98935d8a6" x="83.23349" y="370.774286" style="fill: #e377c2; stroke: #e377c2"/>
     <use xlink:href="#mb98935d8a6" x="85.345122" y="379.144096" style="fill: #e377c2; stroke: #e377c2"/>
     <use xlink:href="#mb98935d8a6" x="88.512569" y="381.269244" style="fill: #e377c2; stroke: #e377c2"/>
     <use xlink:href="#mb98935d8a6" x="93.791648" y="385.944568" style="fill: #e377c2; stroke: #e377c2"/>
     <use xlink:href="#mb98935d8a6" x="104.349805" y="397.322279" style="fill: #e377c2; stroke: #e377c2"/>
     <use xlink:href="#mb98935d8a6" x="136.024277" y="443.290848" style="fill: #e377c2; stroke: #e377c2"/>
     <use xlink:href="#mb98935d8a6" x="167.698749" y="473.206382" style="fill: #e377c2; stroke: #e377c2"/>
     <use xlink:href="#mb98935d8a6" x="199.373221" y="489.292112" style="fill: #e377c2; stroke: #e377c2"/>
     <use xlink:href="#mb98935d8a6" x="231.047693" y="496.550307" style="fill: #e377c2; stroke: #e377c2"/>
     <use xlink:href="#mb98935d8a6" x="262.722165" y="500.310183" style="fill: #e377c2; stroke: #e377c2"/>
     <use xlink:href="#mb98935d8a6" x="326.071109" y="501.944912" style="fill: #e377c2; stroke: #e377c2"/>
     <use xlink:href="#mb98935d8a6" x="357.745581" y="502.794971" style="fill: #e377c2; stroke: #e377c2"/>
     <use xlink:href="#mb98935d8a6" x="389.420053" y="502.631498" style="fill: #e377c2; stroke: #e377c2"/>
     <use xlink:href="#mb98935d8a6" x="421.094525" y="502.958443" style="fill: #e377c2; stroke: #e377c2"/>
     <use xlink:href="#mb98935d8a6" x="452.768997" y="502.533414" style="fill: #e377c2; stroke: #e377c2"/>
     <use xlink:href="#mb98935d8a6" x="484.443469" y="502.86036" style="fill: #e377c2; stroke: #e377c2"/>
     <use xlink:href="#mb98935d8a6" x="516.117941" y="503.121916" style="fill: #e377c2; stroke: #e377c2"/>
     <use xlink:href="#mb98935d8a6" x="547.792413" y="503.22" style="fill: #e377c2; stroke: #e377c2"/>
     <use xlink:href="#mb98935d8a6" x="611.141357" y="503.22" style="fill: #e377c2; stroke: #e377c2"/>
     <use xlink:href="#mb98935d8a6" x="642.815829" y="503.056527" style="fill: #e377c2; stroke: #e377c2"/>
     <use xlink:href="#mb98935d8a6" x="674.490301" y="503.187305" style="fill: #e377c2; stroke: #e377c2"/>
     <use xlink:href="#mb98935d8a6" x="706.164773" y="503.22" style="fill: #e377c2; stroke: #e377c2"/>
    </g>
   </g>
   <g id="line2d_36">
    <path d="M 79.010227 373.558165 
L 79.714034 373.558165 
L 80.593951 374.141763 
L 81.725152 374.79402 
L 83.23349 375.034325 
L 85.345122 376.991096 
L 88.512569 381.522566 
L 93.791648 385.024157 
L 104.349805 397.863322 
L 136.024277 441.804849 
L 167.698749 474.383373 
L 199.373221 491.101751 
L 231.047693 495.942185 
L 262.722165 500.439325 
L 326.071109 502.19012 
L 357.745581 502.842377 
L 389.420053 502.567743 
L 421.094525 502.979695 
L 452.768997 503.048353 
L 484.443469 502.911036 
L 516.117941 503.082683 
L 547.792413 503.151341 
L 611.141357 503.082683 
L 642.815829 503.117012 
L 674.490301 503.22 
L 706.164773 503.22 
" clip-path="url(#pc5db448bc5)" style="fill: none; stroke: #17becf; stroke-width: 2; stroke-linecap: square"/>
    <defs>
     <path id="mb8f0cb7d5f" d="M 0 3 
C 0.795609 3 1.55874 2.683901 2.12132 2.12132 
C 2.683901 1.55874 3 0.795609 3 0 
C 3 -0.795609 2.683901 -1.55874 2.12132 -2.12132 
C 1.55874 -2.683901 0.795609 -3 0 -3 
C -0.795609 -3 -1.55874 -2.683901 -2.12132 -2.12132 
C -2.683901 -1.55874 -3 -0.795609 -3 0 
C -3 0.795609 -2.683901 1.55874 -2.12132 2.12132 
C -1.55874 2.683901 -0.795609 3 0 3 
z
" style="stroke: #17becf"/>
    </defs>
    <g clip-path="url(#pc5db448bc5)">
     <use xlink:href="#mb8f0cb7d5f" x="79.010227" y="373.558165" style="fill: #17becf; stroke: #17becf"/>
     <use xlink:href="#mb8f0cb7d5f" x="79.714034" y="373.558165" style="fill: #17becf; stroke: #17becf"/>
     <use xlink:href="#mb8f0cb7d5f" x="80.593951" y="374.141763" style="fill: #17becf; stroke: #17becf"/>
     <use xlink:href="#mb8f0cb7d5f" x="81.725152" y="374.79402" style="fill: #17becf; stroke: #17becf"/>
     <use xlink:href="#mb8f0cb7d5f" x="83.23349" y="375.034325" style="fill: #17becf; stroke: #17becf"/>
     <use xlink:href="#mb8f0cb7d5f" x="85.345122" y="376.991096" style="fill: #17becf; stroke: #17becf"/>
     <use xlink:href="#mb8f0cb7d5f" x="88.512569" y="381.522566" style="fill: #17becf; stroke: #17becf"/>
     <use xlink:href="#mb8f0cb7d5f" x="93.791648" y="385.024157" style="fill: #17becf; stroke: #17becf"/>
     <use xlink:href="#mb8f0cb7d5f" x="104.349805" y="397.863322" style="fill: #17becf; stroke: #17becf"/>
     <use xlink:href="#mb8f0cb7d5f" x="136.024277" y="441.804849" style="fill: #17becf; stroke: #17becf"/>
     <use xlink:href="#mb8f0cb7d5f" x="167.698749" y="474.383373" style="fill: #17becf; stroke: #17becf"/>
     <use xlink:href="#mb8f0cb7d5f" x="199.373221" y="491.101751" style="fill: #17becf; stroke: #17becf"/>
     <use xlink:href="#mb8f0cb7d5f" x="231.047693" y="495.942185" style="fill: #17becf; stroke: #17becf"/>
     <use xlink:href="#mb8f0cb7d5f" x="262.722165" y="500.439325" style="fill: #17becf; stroke: #17becf"/>
     <use xlink:href="#mb8f0cb7d5f" x="326.071109" y="502.19012" style="fill: #17becf; stroke: #17becf"/>
     <use xlink:href="#mb8f0cb7d5f" x="357.745581" y="502.842377" style="fill: #17becf; stroke: #17becf"/>
     <use xlink:href="#mb8f0cb7d5f" x="389.420053" y="502.567743" style="fill: #17becf; stroke: #17becf"/>
     <use xlink:href="#mb8f0cb7d5f" x="421.094525" y="502.979695" style="fill: #17becf; stroke: #17becf"/>
     <use xlink:href="#mb8f0cb7d5f" x="452.768997" y="503.048353" style="fill: #17becf; stroke: #17becf"/>
     <use xlink:href="#mb8f0cb7d5f" x="484.443469" y="502.911036" style="fill: #17becf; stroke: #17becf"/>
     <use xlink:href="#mb8f0cb7d5f" x="516.117941" y="503.082683" style="fill: #17becf; stroke: #17becf"/>
     <use xlink:href="#mb8f0cb7d5f" x="547.792413" y="503.151341" style="fill: #17becf; stroke: #17becf"/>
     <use xlink:href="#mb8f0cb7d5f" x="611.141357" y="503.082683" style="fill: #17becf; stroke: #17becf"/>
     <use xlink:href="#mb8f0cb7d5f" x="642.815829" y="503.117012" style="fill: #17becf; stroke: #17becf"/>
     <use xlink:href="#mb8f0cb7d5f" x="674.490301" y="503.22" style="fill: #17becf; stroke: #17becf"/>
     <use xlink:href="#mb8f0cb7d5f" x="706.164773" y="503.22" style="fill: #17becf; stroke: #17becf"/>
    </g>
   </g>
   <g id="line2d_37">
    <path d="M 79.010227 374.746226 
L 79.714034 378.041833 
L 80.593951 378.920662 
L 81.725152 375.954615 
L 83.23349 375.789835 
L 85.345122 384.413342 
L 88.512569 380.898027 
L 93.791648 385.511878 
L 104.349805 398.749235 
L 136.024277 452.852129 
L 167.698749 484.105475 
L 199.373221 496.079517 
L 231.047693 498.77093 
L 262.722165 501.572196 
L 326.071109 502.505952 
L 357.745581 502.670732 
L 389.420053 503.000293 
L 421.094525 503.000293 
L 452.768997 502.890439 
L 484.443469 503.000293 
L 516.117941 503.22 
L 547.792413 503.22 
L 611.141357 503.22 
L 642.815829 503.22 
L 674.490301 503.22 
L 706.164773 503.22 
" clip-path="url(#pc5db448bc5)" style="fill: none; stroke: #bcbd22; stroke-width: 2; stroke-linecap: square"/>
    <defs>
     <path id="mba5895dc4f" d="M 0 3 
C 0.795609 3 1.55874 2.683901 2.12132 2.12132 
C 2.683901 1.55874 3 0.795609 3 0 
C 3 -0.795609 2.683901 -1.55874 2.12132 -2.12132 
C 1.55874 -2.683901 0.795609 -3 0 -3 
C -0.795609 -3 -1.55874 -2.683901 -2.12132 -2.12132 
C -2.683901 -1.55874 -3 -0.795609 -3 0 
C -3 0.795609 -2.683901 1.55874 -2.12132 2.12132 
C -1.55874 2.683901 -0.795609 3 0 3 
z
" style="stroke: #bcbd22"/>
    </defs>
    <g clip-path="url(#pc5db448bc5)">
     <use xlink:href="#mba5895dc4f" x="79.010227" y="374.746226" style="fill: #bcbd22; stroke: #bcbd22"/>
     <use xlink:href="#mba5895dc4f" x="79.714034" y="378.041833" style="fill: #bcbd22; stroke: #bcbd22"/>
     <use xlink:href="#mba5895dc4f" x="80.593951" y="378.920662" style="fill: #bcbd22; stroke: #bcbd22"/>
     <use xlink:href="#mba5895dc4f" x="81.725152" y="375.954615" style="fill: #bcbd22; stroke: #bcbd22"/>
     <use xlink:href="#mba5895dc4f" x="83.23349" y="375.789835" style="fill: #bcbd22; stroke: #bcbd22"/>
     <use xlink:href="#mba5895dc4f" x="85.345122" y="384.413342" style="fill: #bcbd22; stroke: #bcbd22"/>
     <use xlink:href="#mba5895dc4f" x="88.512569" y="380.898027" style="fill: #bcbd22; stroke: #bcbd22"/>
     <use xlink:href="#mba5895dc4f" x="93.791648" y="385.511878" style="fill: #bcbd22; stroke: #bcbd22"/>
     <use xlink:href="#mba5895dc4f" x="104.349805" y="398.749235" style="fill: #bcbd22; stroke: #bcbd22"/>
     <use xlink:href="#mba5895dc4f" x="136.024277" y="452.852129" style="fill: #bcbd22; stroke: #bcbd22"/>
     <use xlink:href="#mba5895dc4f" x="167.698749" y="484.105475" style="fill: #bcbd22; stroke: #bcbd22"/>
     <use xlink:href="#mba5895dc4f" x="199.373221" y="496.079517" style="fill: #bcbd22; stroke: #bcbd22"/>
     <use xlink:href="#mba5895dc4f" x="231.047693" y="498.77093" style="fill: #bcbd22; stroke: #bcbd22"/>
     <use xlink:href="#mba5895dc4f" x="262.722165" y="501.572196" style="fill: #bcbd22; stroke: #bcbd22"/>
     <use xlink:href="#mba5895dc4f" x="326.071109" y="502.505952" style="fill: #bcbd22; stroke: #bcbd22"/>
     <use xlink:href="#mba5895dc4f" x="357.745581" y="502.670732" style="fill: #bcbd22; stroke: #bcbd22"/>
     <use xlink:href="#mba5895dc4f" x="389.420053" y="503.000293" style="fill: #bcbd22; stroke: #bcbd22"/>
     <use xlink:href="#mba5895dc4f" x="421.094525" y="503.000293" style="fill: #bcbd22; stroke: #bcbd22"/>
     <use xlink:href="#mba5895dc4f" x="452.768997" y="502.890439" style="fill: #bcbd22; stroke: #bcbd22"/>
     <use xlink:href="#mba5895dc4f" x="484.443469" y="503.000293" style="fill: #bcbd22; stroke: #bcbd22"/>
     <use xlink:href="#mba5895dc4f" x="516.117941" y="503.22" style="fill: #bcbd22; stroke: #bcbd22"/>
     <use xlink:href="#mba5895dc4f" x="547.792413" y="503.22" style="fill: #bcbd22; stroke: #bcbd22"/>
     <use xlink:href="#mba5895dc4f" x="611.141357" y="503.22" style="fill: #bcbd22; stroke: #bcbd22"/>
     <use xlink:href="#mba5895dc4f" x="642.815829" y="503.22" style="fill: #bcbd22; stroke: #bcbd22"/>
     <use xlink:href="#mba5895dc4f" x="674.490301" y="503.22" style="fill: #bcbd22; stroke: #bcbd22"/>
     <use xlink:href="#mba5895dc4f" x="706.164773" y="503.22" style="fill: #bcbd22; stroke: #bcbd22"/>
    </g>
   </g>
   <g id="line2d_38">
    <path d="M 47.6525 370.929912 
L 737.5225 370.929912 
" clip-path="url(#pc5db448bc5)" style="fill: none; stroke-dasharray: 5.55,2.4; stroke-dashoffset: 0; stroke: #000000; stroke-opacity: 0.5; stroke-width: 1.5"/>
   </g>
   <g id="patch_3">
    <path d="M 47.6525 526.84 
L 47.6525 7.2 
" style="fill: none; stroke: #000000; stroke-width: 0.8; stroke-linejoin: miter; stroke-linecap: square"/>
   </g>
   <g id="patch_4">
    <path d="M 737.5225 526.84 
L 737.5225 7.2 
" style="fill: none; stroke: #000000; stroke-width: 0.8; stroke-linejoin: miter; stroke-linecap: square"/>
   </g>
   <g id="patch_5">
    <path d="M 47.6525 526.84 
L 737.5225 526.84 
" style="fill: none; stroke: #000000; stroke-width: 0.8; stroke-linejoin: miter; stroke-linecap: square"/>
   </g>
   <g id="patch_6">
    <path d="M 47.6525 7.2 
L 737.5225 7.2 
" style="fill: none; stroke: #000000; stroke-width: 0.8; stroke-linejoin: miter; stroke-linecap: square"/>
   </g>
   <g id="legend_1">
    <g id="patch_7">
     <path d="M 779.016 147.303125 
L 848.564437 147.303125 
Q 850.564437 147.303125 850.564437 145.303125 
L 850.564437 14.2 
Q 850.564437 12.2 848.564437 12.2 
L 779.016 12.2 
Q 777.016 12.2 777.016 14.2 
L 777.016 145.303125 
Q 777.016 147.303125 779.016 147.303125 
z
" style="fill: #ffffff; opacity: 0.8; stroke: #cccccc; stroke-linejoin: miter"/>
    </g>
    <g id="line2d_39">
     <path d="M 781.016 20.298438 
L 791.016 20.298438 
L 801.016 20.298438 
" style="fill: none; stroke: #1f77b4; stroke-width: 2; stroke-linecap: square"/>
     <g>
      <use xlink:href="#m59190c03fb" x="791.016" y="20.298438" style="fill: #1f77b4; stroke: #1f77b4"/>
     </g>
    </g>
    <g id="text_17">
     <!-- Miner 0 -->
     <g transform="translate(809.016 23.798438) scale(0.1 -0.1)">
      <defs>
       <path id="DejaVuSans-4d" d="M 628 4666 
L 1569 4666 
L 2759 1491 
L 3956 4666 
L 4897 4666 
L 4897 0 
L 4281 0 
L 4281 4097 
L 3078 897 
L 2444 897 
L 1241 4097 
L 1241 0 
L 628 0 
L 628 4666 
z
" transform="scale(0.015625)"/>
      </defs>
      <use xlink:href="#DejaVuSans-4d"/>
      <use xlink:href="#DejaVuSans-69" transform="translate(86.279297 0)"/>
      <use xlink:href="#DejaVuSans-6e" transform="translate(114.0625 0)"/>
      <use xlink:href="#DejaVuSans-65" transform="translate(177.441406 0)"/>
      <use xlink:href="#DejaVuSans-72" transform="translate(238.964844 0)"/>
      <use xlink:href="#DejaVuSans-20" transform="translate(280.078125 0)"/>
      <use xlink:href="#DejaVuSans-30" transform="translate(311.865234 0)"/>
     </g>
    </g>
    <g id="line2d_40">
     <path d="M 781.016 34.976563 
L 791.016 34.976563 
L 801.016 34.976563 
" style="fill: none; stroke: #ff7f0e; stroke-width: 2; stroke-linecap: square"/>
     <g>
      <use xlink:href="#mfa1bd6bb46" x="791.016" y="34.976563" style="fill: #ff7f0e; stroke: #ff7f0e"/>
     </g>
    </g>
    <g id="text_18">
     <!-- Miner 1 -->
     <g transform="translate(809.016 38.476563) scale(0.1 -0.1)">
      <use xlink:href="#DejaVuSans-4d"/>
      <use xlink:href="#DejaVuSans-69" transform="translate(86.279297 0)"/>
      <use xlink:href="#DejaVuSans-6e" transform="translate(114.0625 0)"/>
      <use xlink:href="#DejaVuSans-65" transform="translate(177.441406 0)"/>
      <use xlink:href="#DejaVuSans-72" transform="translate(238.964844 0)"/>
      <use xlink:href="#DejaVuSans-20" transform="translate(280.078125 0)"/>
      <use xlink:href="#DejaVuSans-31" transform="translate(311.865234 0)"/>
     </g>
    </g>
    <g id="line2d_41">
     <path d="M 781.016 49.654688 
L 791.016 49.654688 
L 801.016 49.654688 
" style="fill: none; stroke: #2ca02c; stroke-width: 2; stroke-linecap: square"/>
     <g>
      <use xlink:href="#mec9009097c" x="791.016" y="49.654688" style="fill: #2ca02c; stroke: #2ca02c"/>
     </g>
    </g>
    <g id="text_19">
     <!-- Miner 2 -->
     <g transform="translate(809.016 53.154688) scale(0.1 -0.1)">
      <use xlink:href="#DejaVuSans-4d"/>
      <use xlink:href="#DejaVuSans-69" transform="translate(86.279297 0)"/>
      <use xlink:href="#DejaVuSans-6e" transform="translate(114.0625 0)"/>
      <use xlink:href="#DejaVuSans-65" transform="translate(177.441406 0)"/>
      <use xlink:href="#DejaVuSans-72" transform="translate(238.964844 0)"/>
      <use xlink:href="#DejaVuSans-20" transform="translate(280.078125 0)"/>
      <use xlink:href="#DejaVuSans-32" transform="translate(311.865234 0)"/>
     </g>
    </g>
    <g id="line2d_42">
     <path d="M 781.016 64.332813 
L 791.016 64.332813 
L 801.016 64.332813 
" style="fill: none; stroke: #d62728; stroke-width: 2; stroke-linecap: square"/>
     <g>
      <use xlink:href="#m5ad6da498b" x="791.016" y="64.332813" style="fill: #d62728; stroke: #d62728"/>
     </g>
    </g>
    <g id="text_20">
     <!-- Miner 3 -->
     <g transform="translate(809.016 67.832813) scale(0.1 -0.1)">
      <use xlink:href="#DejaVuSans-4d"/>
      <use xlink:href="#DejaVuSans-69" transform="translate(86.279297 0)"/>
      <use xlink:href="#DejaVuSans-6e" transform="translate(114.0625 0)"/>
      <use xlink:href="#DejaVuSans-65" transform="translate(177.441406 0)"/>
      <use xlink:href="#DejaVuSans-72" transform="translate(238.964844 0)"/>
      <use xlink:href="#DejaVuSans-20" transform="translate(280.078125 0)"/>
      <use xlink:href="#DejaVuSans-33" transform="translate(311.865234 0)"/>
     </g>
    </g>
    <g id="line2d_43">
     <path d="M 781.016 79.010938 
L 791.016 79.010938 
L 801.016 79.010938 
" style="fill: none; stroke: #9467bd; stroke-width: 2; stroke-linecap: square"/>
     <g>
      <use xlink:href="#md41968e80a" x="791.016" y="79.010938" style="fill: #9467bd; stroke: #9467bd"/>
     </g>
    </g>
    <g id="text_21">
     <!-- Miner 4 -->
     <g transform="translate(809.016 82.510938) scale(0.1 -0.1)">
      <use xlink:href="#DejaVuSans-4d"/>
      <use xlink:href="#DejaVuSans-69" transform="translate(86.279297 0)"/>
      <use xlink:href="#DejaVuSans-6e" transform="translate(114.0625 0)"/>
      <use xlink:href="#DejaVuSans-65" transform="translate(177.441406 0)"/>
      <use xlink:href="#DejaVuSans-72" transform="translate(238.964844 0)"/>
      <use xlink:href="#DejaVuSans-20" transform="translate(280.078125 0)"/>
      <use xlink:href="#DejaVuSans-34" transform="translate(311.865234 0)"/>
     </g>
    </g>
    <g id="line2d_44">
     <path d="M 781.016 93.689063 
L 791.016 93.689063 
L 801.016 93.689063 
" style="fill: none; stroke: #8c564b; stroke-width: 2; stroke-linecap: square"/>
     <g>
      <use xlink:href="#m422ec3c86a" x="791.016" y="93.689063" style="fill: #8c564b; stroke: #8c564b"/>
     </g>
    </g>
    <g id="text_22">
     <!-- Miner 5 -->
     <g transform="translate(809.016 97.189063) scale(0.1 -0.1)">
      <use xlink:href="#DejaVuSans-4d"/>
      <use xlink:href="#DejaVuSans-69" transform="translate(86.279297 0)"/>
      <use xlink:href="#DejaVuSans-6e" transform="translate(114.0625 0)"/>
      <use xlink:href="#DejaVuSans-65" transform="translate(177.441406 0)"/>
      <use xlink:href="#DejaVuSans-72" transform="translate(238.964844 0)"/>
      <use xlink:href="#DejaVuSans-20" transform="translate(280.078125 0)"/>
      <use xlink:href="#DejaVuSans-35" transform="translate(311.865234 0)"/>
     </g>
    </g>
    <g id="line2d_45">
     <path d="M 781.016 108.367188 
L 791.016 108.367188 
L 801.016 108.367188 
" style="fill: none; stroke: #e377c2; stroke-width: 2; stroke-linecap: square"/>
     <g>
      <use xlink:href="#mb98935d8a6" x="791.016" y="108.367188" style="fill: #e377c2; stroke: #e377c2"/>
     </g>
    </g>
    <g id="text_23">
     <!-- Miner 6 -->
     <g transform="translate(809.016 111.867188) scale(0.1 -0.1)">
      <use xlink:href="#DejaVuSans-4d"/>
      <use xlink:href="#DejaVuSans-69" transform="translate(86.279297 0)"/>
      <use xlink:href="#DejaVuSans-6e" transform="translate(114.0625 0)"/>
      <use xlink:href="#DejaVuSans-65" transform="translate(177.441406 0)"/>
      <use xlink:href="#DejaVuSans-72" transform="translate(238.964844 0)"/>
      <use xlink:href="#DejaVuSans-20" transform="translate(280.078125 0)"/>
      <use xlink:href="#DejaVuSans-36" transform="translate(311.865234 0)"/>
     </g>
    </g>
    <g id="line2d_46">
     <path d="M 781.016 123.045313 
L 791.016 123.045313 
L 801.016 123.045313 
" style="fill: none; stroke: #17becf; stroke-width: 2; stroke-linecap: square"/>
     <g>
      <use xlink:href="#mb8f0cb7d5f" x="791.016" y="123.045313" style="fill: #17becf; stroke: #17becf"/>
     </g>
    </g>
    <g id="text_24">
     <!-- Miner 7 -->
     <g transform="translate(809.016 126.545313) scale(0.1 -0.1)">
      <defs>
       <path id="DejaVuSans-37" d="M 525 4666 
L 3525 4666 
L 3525 4397 
L 1831 0 
L 1172 0 
L 2766 4134 
L 525 4134 
L 525 4666 
z
" transform="scale(0.015625)"/>
      </defs>
      <use xlink:href="#DejaVuSans-4d"/>
      <use xlink:href="#DejaVuSans-69" transform="translate(86.279297 0)"/>
      <use xlink:href="#DejaVuSans-6e" transform="translate(114.0625 0)"/>
      <use xlink:href="#DejaVuSans-65" transform="translate(177.441406 0)"/>
      <use xlink:href="#DejaVuSans-72" transform="translate(238.964844 0)"/>
      <use xlink:href="#DejaVuSans-20" transform="translate(280.078125 0)"/>
      <use xlink:href="#DejaVuSans-37" transform="translate(311.865234 0)"/>
     </g>
    </g>
    <g id="line2d_47">
     <path d="M 781.016 137.723438 
L 791.016 137.723438 
L 801.016 137.723438 
" style="fill: none; stroke: #bcbd22; stroke-width: 2; stroke-linecap: square"/>
     <g>
      <use xlink:href="#mba5895dc4f" x="791.016" y="137.723438" style="fill: #bcbd22; stroke: #bcbd22"/>
     </g>
    </g>
    <g id="text_25">
     <!-- Miner 8 -->
     <g transform="translate(809.016 141.223438) scale(0.1 -0.1)">
      <use xlink:href="#DejaVuSans-4d"/>
      <use xlink:href="#DejaVuSans-69" transform="translate(86.279297 0)"/>
      <use xlink:href="#DejaVuSans-6e" transform="translate(114.0625 0)"/>
      <use xlink:href="#DejaVuSans-65" transform="translate(177.441406 0)"/>
      <use xlink:href="#DejaVuSans-72" transform="translate(238.964844 0)"/>
      <use xlink:href="#DejaVuSans-20" transform="translate(280.078125 0)"/>
      <use xlink:href="#DejaVuSans-38" transform="translate(311.865234 0)"/>
     </g>
    </g>
   </g>
  </g>
 </g>
 <defs>
  <clipPath id="pc5db448bc5">
   <rect x="47.6525" y="7.2" width="689.87" height="519.64"/>
  </clipPath>
 </defs>
</svg>
