<?xml version="1.0" encoding="utf-8" standalone="no"?>
<!DOCTYPE svg PUBLIC "-//W3C//DTD SVG 1.1//EN"
  "http://www.w3.org/Graphics/SVG/1.1/DTD/svg11.dtd">
<svg xmlns:xlink="http://www.w3.org/1999/xlink" width="853.49375pt" height="569.08125pt" viewBox="0 0 853.49375 569.08125" xmlns="http://www.w3.org/2000/svg" version="1.1">
 <metadata>
  <rdf:RDF xmlns:dc="http://purl.org/dc/elements/1.1/" xmlns:cc="http://creativecommons.org/ns#" xmlns:rdf="http://www.w3.org/1999/02/22-rdf-syntax-ns#">
   <cc:Work>
    <dc:type rdf:resource="http://purl.org/dc/dcmitype/StillImage"/>
    <dc:date>2025-09-14T15:06:15.690266</dc:date>
    <dc:format>image/svg+xml</dc:format>
    <dc:creator>
     <cc:Agent>
      <dc:title>Matplotlib v3.10.3, https://matplotlib.org/</dc:title>
     </cc:Agent>
    </dc:creator>
   </cc:Work>
  </rdf:RDF>
 </metadata>
 <defs>
  <style type="text/css">*{stroke-linejoin: round; stroke-linecap: butt}</style>
 </defs>
 <g id="figure_1">
  <g id="patch_1">
   <path d="M 0 569.08125 
L 853.49375 569.08125 
L 853.49375 0 
L 0 0 
z
" style="fill: #ffffff"/>
  </g>
  <g id="axes_1">
   <g id="patch_2">
    <path d="M 63.00125 516.04 
L 689.30125 516.04 
L 689.30125 7.2 
L 63.00125 7.2 
z
" style="fill: #ffffff"/>
   </g>
   <g id="matplotlib.axis_1">
    <g id="xtick_1">
     <g id="line2d_1">
      <path d="M 89.646225 516.04 
L 89.646225 7.2 
" clip-path="url(#p349cd1284d)" style="fill: none; stroke: #b0b0b0; stroke-opacity: 0.3; stroke-width: 0.8; stroke-linecap: square"/>
     </g>
     <g id="line2d_2">
      <defs>
       <path id="mbec1487248" d="M 0 0 
L 0 3.5 
" style="stroke: #000000; stroke-width: 0.8"/>
      </defs>
      <g>
       <use xlink:href="#mbec1487248" x="89.646225" y="516.04" style="stroke: #000000; stroke-width: 0.8"/>
      </g>
     </g>
     <g id="text_1">
      <!-- 0 -->
      <g transform="translate(84.556225 535.1975) scale(0.16 -0.16)">
       <defs>
        <path id="DejaVuSans-30" d="M 2034 4250 
Q 1547 4250 1301 3770 
Q 1056 3291 1056 2328 
Q 1056 1369 1301 889 
Q 1547 409 2034 409 
Q 2525 409 2770 889 
Q 3016 1369 3016 2328 
Q 3016 3291 2770 3770 
Q 2525 4250 2034 4250 
z
M 2034 4750 
Q 2819 4750 3233 4129 
Q 3647 3509 3647 2328 
Q 3647 1150 3233 529 
Q 2819 -91 2034 -91 
Q 1250 -91 836 529 
Q 422 1150 422 2328 
Q 422 3509 836 4129 
Q 1250 4750 2034 4750 
z
" transform="scale(0.015625)"/>
       </defs>
       <use xlink:href="#DejaVuSans-30"/>
      </g>
     </g>
    </g>
    <g id="xtick_2">
     <g id="line2d_3">
      <path d="M 173.463135 516.04 
L 173.463135 7.2 
" clip-path="url(#p349cd1284d)" style="fill: none; stroke: #b0b0b0; stroke-opacity: 0.3; stroke-width: 0.8; stroke-linecap: square"/>
     </g>
     <g id="line2d_4">
      <g>
       <use xlink:href="#mbec1487248" x="173.463135" y="516.04" style="stroke: #000000; stroke-width: 0.8"/>
      </g>
     </g>
     <g id="text_2">
      <!-- 5 -->
      <g transform="translate(168.373135 535.1975) scale(0.16 -0.16)">
       <defs>
        <path id="DejaVuSans-35" d="M 691 4666 
L 3169 4666 
L 3169 4134 
L 1269 4134 
L 1269 2991 
Q 1406 3038 1543 3061 
Q 1681 3084 1819 3084 
Q 2600 3084 3056 2656 
Q 3513 2228 3513 1497 
Q 3513 744 3044 326 
Q 2575 -91 1722 -91 
Q 1428 -91 1123 -41 
Q 819 9 494 109 
L 494 744 
Q 775 591 1075 516 
Q 1375 441 1709 441 
Q 2250 441 2565 725 
Q 2881 1009 2881 1497 
Q 2881 1984 2565 2268 
Q 2250 2553 1709 2553 
Q 1456 2553 1204 2497 
Q 953 2441 691 2322 
L 691 4666 
z
" transform="scale(0.015625)"/>
       </defs>
       <use xlink:href="#DejaVuSans-35"/>
      </g>
     </g>
    </g>
    <g id="xtick_3">
     <g id="line2d_5">
      <path d="M 257.280044 516.04 
L 257.280044 7.2 
" clip-path="url(#p349cd1284d)" style="fill: none; stroke: #b0b0b0; stroke-opacity: 0.3; stroke-width: 0.8; stroke-linecap: square"/>
     </g>
     <g id="line2d_6">
      <g>
       <use xlink:href="#mbec1487248" x="257.280044" y="516.04" style="stroke: #000000; stroke-width: 0.8"/>
      </g>
     </g>
     <g id="text_3">
      <!-- 10 -->
      <g transform="translate(247.100044 535.1975) scale(0.16 -0.16)">
       <defs>
        <path id="DejaVuSans-31" d="M 794 531 
L 1825 531 
L 1825 4091 
L 703 3866 
L 703 4441 
L 1819 4666 
L 2450 4666 
L 2450 531 
L 3481 531 
L 3481 0 
L 794 0 
L 794 531 
z
" transform="scale(0.015625)"/>
       </defs>
       <use xlink:href="#DejaVuSans-31"/>
       <use xlink:href="#DejaVuSans-30" transform="translate(63.623047 0)"/>
      </g>
     </g>
    </g>
    <g id="xtick_4">
     <g id="line2d_7">
      <path d="M 341.096953 516.04 
L 341.096953 7.2 
" clip-path="url(#p349cd1284d)" style="fill: none; stroke: #b0b0b0; stroke-opacity: 0.3; stroke-width: 0.8; stroke-linecap: square"/>
     </g>
     <g id="line2d_8">
      <g>
       <use xlink:href="#mbec1487248" x="341.096953" y="516.04" style="stroke: #000000; stroke-width: 0.8"/>
      </g>
     </g>
     <g id="text_4">
      <!-- 15 -->
      <g transform="translate(330.916953 535.1975) scale(0.16 -0.16)">
       <use xlink:href="#DejaVuSans-31"/>
       <use xlink:href="#DejaVuSans-35" transform="translate(63.623047 0)"/>
      </g>
     </g>
    </g>
    <g id="xtick_5">
     <g id="line2d_9">
      <path d="M 424.913862 516.04 
L 424.913862 7.2 
" clip-path="url(#p349cd1284d)" style="fill: none; stroke: #b0b0b0; stroke-opacity: 0.3; stroke-width: 0.8; stroke-linecap: square"/>
     </g>
     <g id="line2d_10">
      <g>
       <use xlink:href="#mbec1487248" x="424.913862" y="516.04" style="stroke: #000000; stroke-width: 0.8"/>
      </g>
     </g>
     <g id="text_5">
      <!-- 20 -->
      <g transform="translate(414.733862 535.1975) scale(0.16 -0.16)">
       <defs>
        <path id="DejaVuSans-32" d="M 1228 531 
L 3431 531 
L 3431 0 
L 469 0 
L 469 531 
Q 828 903 1448 1529 
Q 2069 2156 2228 2338 
Q 2531 2678 2651 2914 
Q 2772 3150 2772 3378 
Q 2772 3750 2511 3984 
Q 2250 4219 1831 4219 
Q 1534 4219 1204 4116 
Q 875 4013 500 3803 
L 500 4441 
Q 881 4594 1212 4672 
Q 1544 4750 1819 4750 
Q 2544 4750 2975 4387 
Q 3406 4025 3406 3419 
Q 3406 3131 3298 2873 
Q 3191 2616 2906 2266 
Q 2828 2175 2409 1742 
Q 1991 1309 1228 531 
z
" transform="scale(0.015625)"/>
       </defs>
       <use xlink:href="#DejaVuSans-32"/>
       <use xlink:href="#DejaVuSans-30" transform="translate(63.623047 0)"/>
      </g>
     </g>
    </g>
    <g id="xtick_6">
     <g id="line2d_11">
      <path d="M 508.730772 516.04 
L 508.730772 7.2 
" clip-path="url(#p349cd1284d)" style="fill: none; stroke: #b0b0b0; stroke-opacity: 0.3; stroke-width: 0.8; stroke-linecap: square"/>
     </g>
     <g id="line2d_12">
      <g>
       <use xlink:href="#mbec1487248" x="508.730772" y="516.04" style="stroke: #000000; stroke-width: 0.8"/>
      </g>
     </g>
     <g id="text_6">
      <!-- 25 -->
      <g transform="translate(498.550772 535.1975) scale(0.16 -0.16)">
       <use xlink:href="#DejaVuSans-32"/>
       <use xlink:href="#DejaVuSans-35" transform="translate(63.623047 0)"/>
      </g>
     </g>
    </g>
    <g id="xtick_7">
     <g id="line2d_13">
      <path d="M 592.547681 516.04 
L 592.547681 7.2 
" clip-path="url(#p349cd1284d)" style="fill: none; stroke: #b0b0b0; stroke-opacity: 0.3; stroke-width: 0.8; stroke-linecap: square"/>
     </g>
     <g id="line2d_14">
      <g>
       <use xlink:href="#mbec1487248" x="592.547681" y="516.04" style="stroke: #000000; stroke-width: 0.8"/>
      </g>
     </g>
     <g id="text_7">
      <!-- 30 -->
      <g transform="translate(582.367681 535.1975) scale(0.16 -0.16)">
       <defs>
        <path id="DejaVuSans-33" d="M 2597 2516 
Q 3050 2419 3304 2112 
Q 3559 1806 3559 1356 
Q 3559 666 3084 287 
Q 2609 -91 1734 -91 
Q 1441 -91 1130 -33 
Q 819 25 488 141 
L 488 750 
Q 750 597 1062 519 
Q 1375 441 1716 441 
Q 2309 441 2620 675 
Q 2931 909 2931 1356 
Q 2931 1769 2642 2001 
Q 2353 2234 1838 2234 
L 1294 2234 
L 1294 2753 
L 1863 2753 
Q 2328 2753 2575 2939 
Q 2822 3125 2822 3475 
Q 2822 3834 2567 4026 
Q 2313 4219 1838 4219 
Q 1578 4219 1281 4162 
Q 984 4106 628 3988 
L 628 4550 
Q 988 4650 1302 4700 
Q 1616 4750 1894 4750 
Q 2613 4750 3031 4423 
Q 3450 4097 3450 3541 
Q 3450 3153 3228 2886 
Q 3006 2619 2597 2516 
z
" transform="scale(0.015625)"/>
       </defs>
       <use xlink:href="#DejaVuSans-33"/>
       <use xlink:href="#DejaVuSans-30" transform="translate(63.623047 0)"/>
      </g>
     </g>
    </g>
    <g id="xtick_8">
     <g id="line2d_15">
      <path d="M 676.36459 516.04 
L 676.36459 7.2 
" clip-path="url(#p349cd1284d)" style="fill: none; stroke: #b0b0b0; stroke-opacity: 0.3; stroke-width: 0.8; stroke-linecap: square"/>
     </g>
     <g id="line2d_16">
      <g>
       <use xlink:href="#mbec1487248" x="676.36459" y="516.04" style="stroke: #000000; stroke-width: 0.8"/>
      </g>
     </g>
     <g id="text_8">
      <!-- 35 -->
      <g transform="translate(666.18459 535.1975) scale(0.16 -0.16)">
       <use xlink:href="#DejaVuSans-33"/>
       <use xlink:href="#DejaVuSans-35" transform="translate(63.623047 0)"/>
      </g>
     </g>
    </g>
    <g id="text_9">
     <!-- Δ/T -->
     <g transform="translate(359.834063 557.721875) scale(0.2 -0.2)">
      <defs>
       <path id="DejaVuSans-394" d="M 2188 4044 
L 906 525 
L 3472 525 
L 2188 4044 
z
M 50 0 
L 1831 4666 
L 2547 4666 
L 4325 0 
L 50 0 
z
" transform="scale(0.015625)"/>
       <path id="DejaVuSans-2f" d="M 1625 4666 
L 2156 4666 
L 531 -594 
L 0 -594 
L 1625 4666 
z
" transform="scale(0.015625)"/>
       <path id="DejaVuSans-54" d="M -19 4666 
L 3928 4666 
L 3928 4134 
L 2272 4134 
L 2272 0 
L 1638 0 
L 1638 4134 
L -19 4134 
L -19 4666 
z
" transform="scale(0.015625)"/>
      </defs>
      <use xlink:href="#DejaVuSans-394"/>
      <use xlink:href="#DejaVuSans-2f" transform="translate(68.408203 0)"/>
      <use xlink:href="#DejaVuSans-54" transform="translate(102.099609 0)"/>
     </g>
    </g>
   </g>
   <g id="matplotlib.axis_2">
    <g id="ytick_1">
     <g id="line2d_17">
      <path d="M 63.00125 492.910909 
L 689.30125 492.910909 
" clip-path="url(#p349cd1284d)" style="fill: none; stroke: #b0b0b0; stroke-opacity: 0.3; stroke-width: 0.8; stroke-linecap: square"/>
     </g>
     <g id="line2d_18">
      <defs>
       <path id="m8d9a735b12" d="M 0 0 
L -3.5 0 
" style="stroke: #000000; stroke-width: 0.8"/>
      </defs>
      <g>
       <use xlink:href="#m8d9a735b12" x="63.00125" y="492.910909" style="stroke: #000000; stroke-width: 0.8"/>
      </g>
     </g>
     <g id="text_10">
      <!-- 0.0 -->
      <g transform="translate(30.55625 498.989659) scale(0.16 -0.16)">
       <defs>
        <path id="DejaVuSans-2e" d="M 684 794 
L 1344 794 
L 1344 0 
L 684 0 
L 684 794 
z
" transform="scale(0.015625)"/>
       </defs>
       <use xlink:href="#DejaVuSans-30"/>
       <use xlink:href="#DejaVuSans-2e" transform="translate(63.623047 0)"/>
       <use xlink:href="#DejaVuSans-30" transform="translate(95.410156 0)"/>
      </g>
     </g>
    </g>
    <g id="ytick_2">
     <g id="line2d_19">
      <path d="M 63.00125 428.140599 
L 689.30125 428.140599 
" clip-path="url(#p349cd1284d)" style="fill: none; stroke: #b0b0b0; stroke-opacity: 0.3; stroke-width: 0.8; stroke-linecap: square"/>
     </g>
     <g id="line2d_20">
      <g>
       <use xlink:href="#m8d9a735b12" x="63.00125" y="428.140599" style="stroke: #000000; stroke-width: 0.8"/>
      </g>
     </g>
     <g id="text_11">
      <!-- 0.5 -->
      <g transform="translate(30.55625 434.219349) scale(0.16 -0.16)">
       <use xlink:href="#DejaVuSans-30"/>
       <use xlink:href="#DejaVuSans-2e" transform="translate(63.623047 0)"/>
       <use xlink:href="#DejaVuSans-35" transform="translate(95.410156 0)"/>
      </g>
     </g>
    </g>
    <g id="ytick_3">
     <g id="line2d_21">
      <path d="M 63.00125 363.370288 
L 689.30125 363.370288 
" clip-path="url(#p349cd1284d)" style="fill: none; stroke: #b0b0b0; stroke-opacity: 0.3; stroke-width: 0.8; stroke-linecap: square"/>
     </g>
     <g id="line2d_22">
      <g>
       <use xlink:href="#m8d9a735b12" x="63.00125" y="363.370288" style="stroke: #000000; stroke-width: 0.8"/>
      </g>
     </g>
     <g id="text_12">
      <!-- 1.0 -->
      <g transform="translate(30.55625 369.449038) scale(0.16 -0.16)">
       <use xlink:href="#DejaVuSans-31"/>
       <use xlink:href="#DejaVuSans-2e" transform="translate(63.623047 0)"/>
       <use xlink:href="#DejaVuSans-30" transform="translate(95.410156 0)"/>
      </g>
     </g>
    </g>
    <g id="ytick_4">
     <g id="line2d_23">
      <path d="M 63.00125 298.599977 
L 689.30125 298.599977 
" clip-path="url(#p349cd1284d)" style="fill: none; stroke: #b0b0b0; stroke-opacity: 0.3; stroke-width: 0.8; stroke-linecap: square"/>
     </g>
     <g id="line2d_24">
      <g>
       <use xlink:href="#m8d9a735b12" x="63.00125" y="298.599977" style="stroke: #000000; stroke-width: 0.8"/>
      </g>
     </g>
     <g id="text_13">
      <!-- 1.5 -->
      <g transform="translate(30.55625 304.678727) scale(0.16 -0.16)">
       <use xlink:href="#DejaVuSans-31"/>
       <use xlink:href="#DejaVuSans-2e" transform="translate(63.623047 0)"/>
       <use xlink:href="#DejaVuSans-35" transform="translate(95.410156 0)"/>
      </g>
     </g>
    </g>
    <g id="ytick_5">
     <g id="line2d_25">
      <path d="M 63.00125 233.829667 
L 689.30125 233.829667 
" clip-path="url(#p349cd1284d)" style="fill: none; stroke: #b0b0b0; stroke-opacity: 0.3; stroke-width: 0.8; stroke-linecap: square"/>
     </g>
     <g id="line2d_26">
      <g>
       <use xlink:href="#m8d9a735b12" x="63.00125" y="233.829667" style="stroke: #000000; stroke-width: 0.8"/>
      </g>
     </g>
     <g id="text_14">
      <!-- 2.0 -->
      <g transform="translate(30.55625 239.908417) scale(0.16 -0.16)">
       <use xlink:href="#DejaVuSans-32"/>
       <use xlink:href="#DejaVuSans-2e" transform="translate(63.623047 0)"/>
       <use xlink:href="#DejaVuSans-30" transform="translate(95.410156 0)"/>
      </g>
     </g>
    </g>
    <g id="ytick_6">
     <g id="line2d_27">
      <path d="M 63.00125 169.059356 
L 689.30125 169.059356 
" clip-path="url(#p349cd1284d)" style="fill: none; stroke: #b0b0b0; stroke-opacity: 0.3; stroke-width: 0.8; stroke-linecap: square"/>
     </g>
     <g id="line2d_28">
      <g>
       <use xlink:href="#m8d9a735b12" x="63.00125" y="169.059356" style="stroke: #000000; stroke-width: 0.8"/>
      </g>
     </g>
     <g id="text_15">
      <!-- 2.5 -->
      <g transform="translate(30.55625 175.138106) scale(0.16 -0.16)">
       <use xlink:href="#DejaVuSans-32"/>
       <use xlink:href="#DejaVuSans-2e" transform="translate(63.623047 0)"/>
       <use xlink:href="#DejaVuSans-35" transform="translate(95.410156 0)"/>
      </g>
     </g>
    </g>
    <g id="ytick_7">
     <g id="line2d_29">
      <path d="M 63.00125 104.289046 
L 689.30125 104.289046 
" clip-path="url(#p349cd1284d)" style="fill: none; stroke: #b0b0b0; stroke-opacity: 0.3; stroke-width: 0.8; stroke-linecap: square"/>
     </g>
     <g id="line2d_30">
      <g>
       <use xlink:href="#m8d9a735b12" x="63.00125" y="104.289046" style="stroke: #000000; stroke-width: 0.8"/>
      </g>
     </g>
     <g id="text_16">
      <!-- 3.0 -->
      <g transform="translate(30.55625 110.367796) scale(0.16 -0.16)">
       <use xlink:href="#DejaVuSans-33"/>
       <use xlink:href="#DejaVuSans-2e" transform="translate(63.623047 0)"/>
       <use xlink:href="#DejaVuSans-30" transform="translate(95.410156 0)"/>
      </g>
     </g>
    </g>
    <g id="ytick_8">
     <g id="line2d_31">
      <path d="M 63.00125 39.518735 
L 689.30125 39.518735 
" clip-path="url(#p349cd1284d)" style="fill: none; stroke: #b0b0b0; stroke-opacity: 0.3; stroke-width: 0.8; stroke-linecap: square"/>
     </g>
     <g id="line2d_32">
      <g>
       <use xlink:href="#m8d9a735b12" x="63.00125" y="39.518735" style="stroke: #000000; stroke-width: 0.8"/>
      </g>
     </g>
     <g id="text_17">
      <!-- 3.5 -->
      <g transform="translate(30.55625 45.597485) scale(0.16 -0.16)">
       <use xlink:href="#DejaVuSans-33"/>
       <use xlink:href="#DejaVuSans-2e" transform="translate(63.623047 0)"/>
       <use xlink:href="#DejaVuSans-35" transform="translate(95.410156 0)"/>
      </g>
     </g>
    </g>
    <g id="text_18">
     <!-- rᵢ (mining share) / αᵢ (hashrate ratio) -->
     <g transform="translate(22.396875 443.3575) rotate(-90) scale(0.2 -0.2)">
      <defs>
       <path id="DejaVuSans-72" d="M 2631 2963 
Q 2534 3019 2420 3045 
Q 2306 3072 2169 3072 
Q 1681 3072 1420 2755 
Q 1159 2438 1159 1844 
L 1159 0 
L 581 0 
L 581 3500 
L 1159 3500 
L 1159 2956 
Q 1341 3275 1631 3429 
Q 1922 3584 2338 3584 
Q 2397 3584 2469 3576 
Q 2541 3569 2628 3553 
L 2631 2963 
z
" transform="scale(0.015625)"/>
       <path id="DejaVuSans-1d62" d="M 381 1935 
L 744 1935 
L 744 -24 
L 381 -24 
L 381 1935 
z
M 381 2697 
L 744 2697 
L 744 2291 
L 381 2291 
L 381 2697 
z
" transform="scale(0.015625)"/>
       <path id="DejaVuSans-20" transform="scale(0.015625)"/>
       <path id="DejaVuSans-28" d="M 1984 4856 
Q 1566 4138 1362 3434 
Q 1159 2731 1159 2009 
Q 1159 1288 1364 580 
Q 1569 -128 1984 -844 
L 1484 -844 
Q 1016 -109 783 600 
Q 550 1309 550 2009 
Q 550 2706 781 3412 
Q 1013 4119 1484 4856 
L 1984 4856 
z
" transform="scale(0.015625)"/>
       <path id="DejaVuSans-6d" d="M 3328 2828 
Q 3544 3216 3844 3400 
Q 4144 3584 4550 3584 
Q 5097 3584 5394 3201 
Q 5691 2819 5691 2113 
L 5691 0 
L 5113 0 
L 5113 2094 
Q 5113 2597 4934 2840 
Q 4756 3084 4391 3084 
Q 3944 3084 3684 2787 
Q 3425 2491 3425 1978 
L 3425 0 
L 2847 0 
L 2847 2094 
Q 2847 2600 2669 2842 
Q 2491 3084 2119 3084 
Q 1678 3084 1418 2786 
Q 1159 2488 1159 1978 
L 1159 0 
L 581 0 
L 581 3500 
L 1159 3500 
L 1159 2956 
Q 1356 3278 1631 3431 
Q 1906 3584 2284 3584 
Q 2666 3584 2933 3390 
Q 3200 3197 3328 2828 
z
" transform="scale(0.015625)"/>
       <path id="DejaVuSans-69" d="M 603 3500 
L 1178 3500 
L 1178 0 
L 603 0 
L 603 3500 
z
M 603 4863 
L 1178 4863 
L 1178 4134 
L 603 4134 
L 603 4863 
z
" transform="scale(0.015625)"/>
       <path id="DejaVuSans-6e" d="M 3513 2113 
L 3513 0 
L 2938 0 
L 2938 2094 
Q 2938 2591 2744 2837 
Q 2550 3084 2163 3084 
Q 1697 3084 1428 2787 
Q 1159 2491 1159 1978 
L 1159 0 
L 581 0 
L 581 3500 
L 1159 3500 
L 1159 2956 
Q 1366 3272 1645 3428 
Q 1925 3584 2291 3584 
Q 2894 3584 3203 3211 
Q 3513 2838 3513 2113 
z
" transform="scale(0.015625)"/>
       <path id="DejaVuSans-67" d="M 2906 1791 
Q 2906 2416 2648 2759 
Q 2391 3103 1925 3103 
Q 1463 3103 1205 2759 
Q 947 2416 947 1791 
Q 947 1169 1205 825 
Q 1463 481 1925 481 
Q 2391 481 2648 825 
Q 2906 1169 2906 1791 
z
M 3481 434 
Q 3481 -459 3084 -895 
Q 2688 -1331 1869 -1331 
Q 1566 -1331 1297 -1286 
Q 1028 -1241 775 -1147 
L 775 -588 
Q 1028 -725 1275 -790 
Q 1522 -856 1778 -856 
Q 2344 -856 2625 -561 
Q 2906 -266 2906 331 
L 2906 616 
Q 2728 306 2450 153 
Q 2172 0 1784 0 
Q 1141 0 747 490 
Q 353 981 353 1791 
Q 353 2603 747 3093 
Q 1141 3584 1784 3584 
Q 2172 3584 2450 3431 
Q 2728 3278 2906 2969 
L 2906 3500 
L 3481 3500 
L 3481 434 
z
" transform="scale(0.015625)"/>
       <path id="DejaVuSans-73" d="M 2834 3397 
L 2834 2853 
Q 2591 2978 2328 3040 
Q 2066 3103 1784 3103 
Q 1356 3103 1142 2972 
Q 928 2841 928 2578 
Q 928 2378 1081 2264 
Q 1234 2150 1697 2047 
L 1894 2003 
Q 2506 1872 2764 1633 
Q 3022 1394 3022 966 
Q 3022 478 2636 193 
Q 2250 -91 1575 -91 
Q 1294 -91 989 -36 
Q 684 19 347 128 
L 347 722 
Q 666 556 975 473 
Q 1284 391 1588 391 
Q 1994 391 2212 530 
Q 2431 669 2431 922 
Q 2431 1156 2273 1281 
Q 2116 1406 1581 1522 
L 1381 1569 
Q 847 1681 609 1914 
Q 372 2147 372 2553 
Q 372 3047 722 3315 
Q 1072 3584 1716 3584 
Q 2034 3584 2315 3537 
Q 2597 3491 2834 3397 
z
" transform="scale(0.015625)"/>
       <path id="DejaVuSans-68" d="M 3513 2113 
L 3513 0 
L 2938 0 
L 2938 2094 
Q 2938 2591 2744 2837 
Q 2550 3084 2163 3084 
Q 1697 3084 1428 2787 
Q 1159 2491 1159 1978 
L 1159 0 
L 581 0 
L 581 4863 
L 1159 4863 
L 1159 2956 
Q 1366 3272 1645 3428 
Q 1925 3584 2291 3584 
Q 2894 3584 3203 3211 
Q 3513 2838 3513 2113 
z
" transform="scale(0.015625)"/>
       <path id="DejaVuSans-61" d="M 2194 1759 
Q 1497 1759 1228 1600 
Q 959 1441 959 1056 
Q 959 750 1161 570 
Q 1363 391 1709 391 
Q 2188 391 2477 730 
Q 2766 1069 2766 1631 
L 2766 1759 
L 2194 1759 
z
M 3341 1997 
L 3341 0 
L 2766 0 
L 2766 531 
Q 2569 213 2275 61 
Q 1981 -91 1556 -91 
Q 1019 -91 701 211 
Q 384 513 384 1019 
Q 384 1609 779 1909 
Q 1175 2209 1959 2209 
L 2766 2209 
L 2766 2266 
Q 2766 2663 2505 2880 
Q 2244 3097 1772 3097 
Q 1472 3097 1187 3025 
Q 903 2953 641 2809 
L 641 3341 
Q 956 3463 1253 3523 
Q 1550 3584 1831 3584 
Q 2591 3584 2966 3190 
Q 3341 2797 3341 1997 
z
" transform="scale(0.015625)"/>
       <path id="DejaVuSans-65" d="M 3597 1894 
L 3597 1613 
L 953 1613 
Q 991 1019 1311 708 
Q 1631 397 2203 397 
Q 2534 397 2845 478 
Q 3156 559 3463 722 
L 3463 178 
Q 3153 47 2828 -22 
Q 2503 -91 2169 -91 
Q 1331 -91 842 396 
Q 353 884 353 1716 
Q 353 2575 817 3079 
Q 1281 3584 2069 3584 
Q 2775 3584 3186 3129 
Q 3597 2675 3597 1894 
z
M 3022 2063 
Q 3016 2534 2758 2815 
Q 2500 3097 2075 3097 
Q 1594 3097 1305 2825 
Q 1016 2553 972 2059 
L 3022 2063 
z
" transform="scale(0.015625)"/>
       <path id="DejaVuSans-29" d="M 513 4856 
L 1013 4856 
Q 1481 4119 1714 3412 
Q 1947 2706 1947 2009 
Q 1947 1309 1714 600 
Q 1481 -109 1013 -844 
L 513 -844 
Q 928 -128 1133 580 
Q 1338 1288 1338 2009 
Q 1338 2731 1133 3434 
Q 928 4138 513 4856 
z
" transform="scale(0.015625)"/>
       <path id="DejaVuSans-3b1" d="M 2644 1628 
L 2506 2350 
Q 2366 3091 1809 3091 
Q 1391 3091 1200 2747 
Q 959 2316 959 1747 
Q 959 1059 1194 731 
Q 1431 397 1809 397 
Q 2228 397 2453 1063 
L 2644 1628 
z
M 2966 2584 
L 3275 3500 
L 3788 3500 
L 3147 1603 
L 3272 919 
Q 3300 766 3409 638 
Q 3538 488 3638 488 
L 3913 488 
L 3913 0 
L 3569 0 
Q 3275 0 3013 263 
Q 2884 394 2831 669 
Q 2688 322 2394 50 
Q 2256 -78 1809 -78 
Q 1075 -78 719 397 
Q 353 888 353 1747 
Q 353 2666 750 3097 
Q 1191 3578 1809 3578 
Q 2781 3578 2966 2584 
z
" transform="scale(0.015625)"/>
       <path id="DejaVuSans-74" d="M 1172 4494 
L 1172 3500 
L 2356 3500 
L 2356 3053 
L 1172 3053 
L 1172 1153 
Q 1172 725 1289 603 
Q 1406 481 1766 481 
L 2356 481 
L 2356 0 
L 1766 0 
Q 1100 0 847 248 
Q 594 497 594 1153 
L 594 3053 
L 172 3053 
L 172 3500 
L 594 3500 
L 594 4494 
L 1172 4494 
z
" transform="scale(0.015625)"/>
       <path id="DejaVuSans-6f" d="M 1959 3097 
Q 1497 3097 1228 2736 
Q 959 2375 959 1747 
Q 959 1119 1226 758 
Q 1494 397 1959 397 
Q 2419 397 2687 759 
Q 2956 1122 2956 1747 
Q 2956 2369 2687 2733 
Q 2419 3097 1959 3097 
z
M 1959 3584 
Q 2709 3584 3137 3096 
Q 3566 2609 3566 1747 
Q 3566 888 3137 398 
Q 2709 -91 1959 -91 
Q 1206 -91 779 398 
Q 353 888 353 1747 
Q 353 2609 779 3096 
Q 1206 3584 1959 3584 
z
" transform="scale(0.015625)"/>
      </defs>
      <use xlink:href="#DejaVuSans-72"/>
      <use xlink:href="#DejaVuSans-1d62" transform="translate(41.113281 0)"/>
      <use xlink:href="#DejaVuSans-20" transform="translate(58.984375 0)"/>
      <use xlink:href="#DejaVuSans-28" transform="translate(90.771484 0)"/>
      <use xlink:href="#DejaVuSans-6d" transform="translate(129.785156 0)"/>
      <use xlink:href="#DejaVuSans-69" transform="translate(227.197266 0)"/>
      <use xlink:href="#DejaVuSans-6e" transform="translate(254.980469 0)"/>
      <use xlink:href="#DejaVuSans-69" transform="translate(318.359375 0)"/>
      <use xlink:href="#DejaVuSans-6e" transform="translate(346.142578 0)"/>
      <use xlink:href="#DejaVuSans-67" transform="translate(409.521484 0)"/>
      <use xlink:href="#DejaVuSans-20" transform="translate(472.998047 0)"/>
      <use xlink:href="#DejaVuSans-73" transform="translate(504.785156 0)"/>
      <use xlink:href="#DejaVuSans-68" transform="translate(556.884766 0)"/>
      <use xlink:href="#DejaVuSans-61" transform="translate(620.263672 0)"/>
      <use xlink:href="#DejaVuSans-72" transform="translate(681.542969 0)"/>
      <use xlink:href="#DejaVuSans-65" transform="translate(720.40625 0)"/>
      <use xlink:href="#DejaVuSans-29" transform="translate(781.929688 0)"/>
      <use xlink:href="#DejaVuSans-20" transform="translate(820.943359 0)"/>
      <use xlink:href="#DejaVuSans-2f" transform="translate(852.730469 0)"/>
      <use xlink:href="#DejaVuSans-20" transform="translate(886.421875 0)"/>
      <use xlink:href="#DejaVuSans-3b1" transform="translate(918.208984 0)"/>
      <use xlink:href="#DejaVuSans-1d62" transform="translate(984.126953 0)"/>
      <use xlink:href="#DejaVuSans-20" transform="translate(1001.998047 0)"/>
      <use xlink:href="#DejaVuSans-28" transform="translate(1033.785156 0)"/>
      <use xlink:href="#DejaVuSans-68" transform="translate(1072.798828 0)"/>
      <use xlink:href="#DejaVuSans-61" transform="translate(1136.177734 0)"/>
      <use xlink:href="#DejaVuSans-73" transform="translate(1197.457031 0)"/>
      <use xlink:href="#DejaVuSans-68" transform="translate(1249.556641 0)"/>
      <use xlink:href="#DejaVuSans-72" transform="translate(1312.935547 0)"/>
      <use xlink:href="#DejaVuSans-61" transform="translate(1354.048828 0)"/>
      <use xlink:href="#DejaVuSans-74" transform="translate(1415.328125 0)"/>
      <use xlink:href="#DejaVuSans-65" transform="translate(1454.537109 0)"/>
      <use xlink:href="#DejaVuSans-20" transform="translate(1516.060547 0)"/>
      <use xlink:href="#DejaVuSans-72" transform="translate(1547.847656 0)"/>
      <use xlink:href="#DejaVuSans-61" transform="translate(1588.960938 0)"/>
      <use xlink:href="#DejaVuSans-74" transform="translate(1650.240234 0)"/>
      <use xlink:href="#DejaVuSans-69" transform="translate(1689.449219 0)"/>
      <use xlink:href="#DejaVuSans-6f" transform="translate(1717.232422 0)"/>
      <use xlink:href="#DejaVuSans-29" transform="translate(1778.414062 0)"/>
     </g>
    </g>
   </g>
   <g id="line2d_33">
    <path d="M 91.469432 358.790651 
L 91.694591 359.064214 
L 91.976652 358.220341 
L 92.356452 357.399651 
L 92.877029 356.727334 
L 93.644337 353.620766 
L 94.888102 351.302432 
L 97.210962 346.049087 
L 103.011915 331.53168 
L 129.240868 260.752943 
L 161.707189 192.631017 
L 194.239227 142.188706 
L 225.917633 110.01023 
L 256.904642 84.188626 
L 316.160557 57.003842 
L 345.451324 48.027253 
L 373.652604 41.758477 
L 404.394202 39.30568 
L 432.629071 36.463403 
L 460.258909 34.789566 
L 488.842255 33.825139 
L 520.185509 32.253308 
L 577.317979 31.492895 
L 603.314744 31.140508 
L 632.147413 30.825214 
L 660.833068 30.329091 
" clip-path="url(#p349cd1284d)" style="fill: none; stroke: #1f77b4; stroke-width: 2; stroke-linecap: square"/>
    <defs>
     <path id="mc5b7ccea59" d="M 0 3 
C 0.795609 3 1.55874 2.683901 2.12132 2.12132 
C 2.683901 1.55874 3 0.795609 3 0 
C 3 -0.795609 2.683901 -1.55874 2.12132 -2.12132 
C 1.55874 -2.683901 0.795609 -3 0 -3 
C -0.795609 -3 -1.55874 -2.683901 -2.12132 -2.12132 
C -2.683901 -1.55874 -3 -0.795609 -3 0 
C -3 0.795609 -2.683901 1.55874 -2.12132 2.12132 
C -1.55874 2.683901 -0.795609 3 0 3 
z
" style="stroke: #1f77b4"/>
    </defs>
    <g clip-path="url(#p349cd1284d)">
     <use xlink:href="#mc5b7ccea59" x="91.469432" y="358.790651" style="fill: #1f77b4; stroke: #1f77b4"/>
     <use xlink:href="#mc5b7ccea59" x="91.694591" y="359.064214" style="fill: #1f77b4; stroke: #1f77b4"/>
     <use xlink:href="#mc5b7ccea59" x="91.976652" y="358.220341" style="fill: #1f77b4; stroke: #1f77b4"/>
     <use xlink:href="#mc5b7ccea59" x="92.356452" y="357.399651" style="fill: #1f77b4; stroke: #1f77b4"/>
     <use xlink:href="#mc5b7ccea59" x="92.877029" y="356.727334" style="fill: #1f77b4; stroke: #1f77b4"/>
     <use xlink:href="#mc5b7ccea59" x="93.644337" y="353.620766" style="fill: #1f77b4; stroke: #1f77b4"/>
     <use xlink:href="#mc5b7ccea59" x="94.888102" y="351.302432" style="fill: #1f77b4; stroke: #1f77b4"/>
     <use xlink:href="#mc5b7ccea59" x="97.210962" y="346.049087" style="fill: #1f77b4; stroke: #1f77b4"/>
     <use xlink:href="#mc5b7ccea59" x="103.011915" y="331.53168" style="fill: #1f77b4; stroke: #1f77b4"/>
     <use xlink:href="#mc5b7ccea59" x="129.240868" y="260.752943" style="fill: #1f77b4; stroke: #1f77b4"/>
     <use xlink:href="#mc5b7ccea59" x="161.707189" y="192.631017" style="fill: #1f77b4; stroke: #1f77b4"/>
     <use xlink:href="#mc5b7ccea59" x="194.239227" y="142.188706" style="fill: #1f77b4; stroke: #1f77b4"/>
     <use xlink:href="#mc5b7ccea59" x="225.917633" y="110.01023" style="fill: #1f77b4; stroke: #1f77b4"/>
     <use xlink:href="#mc5b7ccea59" x="256.904642" y="84.188626" style="fill: #1f77b4; stroke: #1f77b4"/>
     <use xlink:href="#mc5b7ccea59" x="316.160557" y="57.003842" style="fill: #1f77b4; stroke: #1f77b4"/>
     <use xlink:href="#mc5b7ccea59" x="345.451324" y="48.027253" style="fill: #1f77b4; stroke: #1f77b4"/>
     <use xlink:href="#mc5b7ccea59" x="373.652604" y="41.758477" style="fill: #1f77b4; stroke: #1f77b4"/>
     <use xlink:href="#mc5b7ccea59" x="404.394202" y="39.30568" style="fill: #1f77b4; stroke: #1f77b4"/>
     <use xlink:href="#mc5b7ccea59" x="432.629071" y="36.463403" style="fill: #1f77b4; stroke: #1f77b4"/>
     <use xlink:href="#mc5b7ccea59" x="460.258909" y="34.789566" style="fill: #1f77b4; stroke: #1f77b4"/>
     <use xlink:href="#mc5b7ccea59" x="488.842255" y="33.825139" style="fill: #1f77b4; stroke: #1f77b4"/>
     <use xlink:href="#mc5b7ccea59" x="520.185509" y="32.253308" style="fill: #1f77b4; stroke: #1f77b4"/>
     <use xlink:href="#mc5b7ccea59" x="577.317979" y="31.492895" style="fill: #1f77b4; stroke: #1f77b4"/>
     <use xlink:href="#mc5b7ccea59" x="603.314744" y="31.140508" style="fill: #1f77b4; stroke: #1f77b4"/>
     <use xlink:href="#mc5b7ccea59" x="632.147413" y="30.825214" style="fill: #1f77b4; stroke: #1f77b4"/>
     <use xlink:href="#mc5b7ccea59" x="660.833068" y="30.329091" style="fill: #1f77b4; stroke: #1f77b4"/>
    </g>
   </g>
   <g id="line2d_34">
    <path d="M 91.469432 362.49839 
L 91.694591 363.360985 
L 91.976652 360.527953 
L 92.356452 361.999438 
L 92.877029 362.363081 
L 93.644337 363.115738 
L 94.888102 363.284874 
L 97.210962 362.2616 
L 103.011915 359.36937 
L 129.240868 365.1792 
L 161.707189 381.796839 
L 194.239227 402.609056 
L 225.917633 419.877869 
L 256.904642 440.115023 
L 316.160557 462.78774 
L 345.451324 472.513075 
L 373.652604 479.117847 
L 404.394202 481.663347 
L 432.629071 484.572491 
L 460.258909 486.509101 
L 488.842255 486.585213 
L 520.185509 489.32522 
L 577.317979 490.356951 
L 603.314744 490.999669 
L 632.147413 491.219546 
L 660.833068 491.726955 
" clip-path="url(#p349cd1284d)" style="fill: none; stroke: #ff7f0e; stroke-width: 2; stroke-linecap: square"/>
    <defs>
     <path id="m5027ddd9a9" d="M 0 3 
C 0.795609 3 1.55874 2.683901 2.12132 2.12132 
C 2.683901 1.55874 3 0.795609 3 0 
C 3 -0.795609 2.683901 -1.55874 2.12132 -2.12132 
C 1.55874 -2.683901 0.795609 -3 0 -3 
C -0.795609 -3 -1.55874 -2.683901 -2.12132 -2.12132 
C -2.683901 -1.55874 -3 -0.795609 -3 0 
C -3 0.795609 -2.683901 1.55874 -2.12132 2.12132 
C -1.55874 2.683901 -0.795609 3 0 3 
z
" style="stroke: #ff7f0e"/>
    </defs>
    <g clip-path="url(#p349cd1284d)">
     <use xlink:href="#m5027ddd9a9" x="91.469432" y="362.49839" style="fill: #ff7f0e; stroke: #ff7f0e"/>
     <use xlink:href="#m5027ddd9a9" x="91.694591" y="363.360985" style="fill: #ff7f0e; stroke: #ff7f0e"/>
     <use xlink:href="#m5027ddd9a9" x="91.976652" y="360.527953" style="fill: #ff7f0e; stroke: #ff7f0e"/>
     <use xlink:href="#m5027ddd9a9" x="92.356452" y="361.999438" style="fill: #ff7f0e; stroke: #ff7f0e"/>
     <use xlink:href="#m5027ddd9a9" x="92.877029" y="362.363081" style="fill: #ff7f0e; stroke: #ff7f0e"/>
     <use xlink:href="#m5027ddd9a9" x="93.644337" y="363.115738" style="fill: #ff7f0e; stroke: #ff7f0e"/>
     <use xlink:href="#m5027ddd9a9" x="94.888102" y="363.284874" style="fill: #ff7f0e; stroke: #ff7f0e"/>
     <use xlink:href="#m5027ddd9a9" x="97.210962" y="362.2616" style="fill: #ff7f0e; stroke: #ff7f0e"/>
     <use xlink:href="#m5027ddd9a9" x="103.011915" y="359.36937" style="fill: #ff7f0e; stroke: #ff7f0e"/>
     <use xlink:href="#m5027ddd9a9" x="129.240868" y="365.1792" style="fill: #ff7f0e; stroke: #ff7f0e"/>
     <use xlink:href="#m5027ddd9a9" x="161.707189" y="381.796839" style="fill: #ff7f0e; stroke: #ff7f0e"/>
     <use xlink:href="#m5027ddd9a9" x="194.239227" y="402.609056" style="fill: #ff7f0e; stroke: #ff7f0e"/>
     <use xlink:href="#m5027ddd9a9" x="225.917633" y="419.877869" style="fill: #ff7f0e; stroke: #ff7f0e"/>
     <use xlink:href="#m5027ddd9a9" x="256.904642" y="440.115023" style="fill: #ff7f0e; stroke: #ff7f0e"/>
     <use xlink:href="#m5027ddd9a9" x="316.160557" y="462.78774" style="fill: #ff7f0e; stroke: #ff7f0e"/>
     <use xlink:href="#m5027ddd9a9" x="345.451324" y="472.513075" style="fill: #ff7f0e; stroke: #ff7f0e"/>
     <use xlink:href="#m5027ddd9a9" x="373.652604" y="479.117847" style="fill: #ff7f0e; stroke: #ff7f0e"/>
     <use xlink:href="#m5027ddd9a9" x="404.394202" y="481.663347" style="fill: #ff7f0e; stroke: #ff7f0e"/>
     <use xlink:href="#m5027ddd9a9" x="432.629071" y="484.572491" style="fill: #ff7f0e; stroke: #ff7f0e"/>
     <use xlink:href="#m5027ddd9a9" x="460.258909" y="486.509101" style="fill: #ff7f0e; stroke: #ff7f0e"/>
     <use xlink:href="#m5027ddd9a9" x="488.842255" y="486.585213" style="fill: #ff7f0e; stroke: #ff7f0e"/>
     <use xlink:href="#m5027ddd9a9" x="520.185509" y="489.32522" style="fill: #ff7f0e; stroke: #ff7f0e"/>
     <use xlink:href="#m5027ddd9a9" x="577.317979" y="490.356951" style="fill: #ff7f0e; stroke: #ff7f0e"/>
     <use xlink:href="#m5027ddd9a9" x="603.314744" y="490.999669" style="fill: #ff7f0e; stroke: #ff7f0e"/>
     <use xlink:href="#m5027ddd9a9" x="632.147413" y="491.219546" style="fill: #ff7f0e; stroke: #ff7f0e"/>
     <use xlink:href="#m5027ddd9a9" x="660.833068" y="491.726955" style="fill: #ff7f0e; stroke: #ff7f0e"/>
    </g>
   </g>
   <g id="line2d_35">
    <path d="M 91.469432 364.399091 
L 91.694591 364.409515 
L 91.976652 365.201704 
L 92.356452 364.201044 
L 92.877029 364.722221 
L 93.644337 363.398431 
L 94.888102 363.242078 
L 97.210962 366.452529 
L 103.011915 366.108552 
L 129.240868 383.693063 
L 161.707189 404.915389 
L 194.239227 432.204215 
L 225.917633 449.44475 
L 256.904642 464.360835 
L 316.160557 480.725791 
L 345.451324 483.300406 
L 373.652604 486.886103 
L 404.394202 487.918034 
L 432.629071 489.314788 
L 460.258909 490.294601 
L 488.842255 491.670508 
L 520.185509 491.983214 
L 577.317979 492.108297 
L 603.314744 491.826861 
L 632.147413 492.11872 
L 660.833068 492.525238 
" clip-path="url(#p349cd1284d)" style="fill: none; stroke: #2ca02c; stroke-width: 2; stroke-linecap: square"/>
    <defs>
     <path id="m53b844101c" d="M 0 3 
C 0.795609 3 1.55874 2.683901 2.12132 2.12132 
C 2.683901 1.55874 3 0.795609 3 0 
C 3 -0.795609 2.683901 -1.55874 2.12132 -2.12132 
C 1.55874 -2.683901 0.795609 -3 0 -3 
C -0.795609 -3 -1.55874 -2.683901 -2.12132 -2.12132 
C -2.683901 -1.55874 -3 -0.795609 -3 0 
C -3 0.795609 -2.683901 1.55874 -2.12132 2.12132 
C -1.55874 2.683901 -0.795609 3 0 3 
z
" style="stroke: #2ca02c"/>
    </defs>
    <g clip-path="url(#p349cd1284d)">
     <use xlink:href="#m53b844101c" x="91.469432" y="364.399091" style="fill: #2ca02c; stroke: #2ca02c"/>
     <use xlink:href="#m53b844101c" x="91.694591" y="364.409515" style="fill: #2ca02c; stroke: #2ca02c"/>
     <use xlink:href="#m53b844101c" x="91.976652" y="365.201704" style="fill: #2ca02c; stroke: #2ca02c"/>
     <use xlink:href="#m53b844101c" x="92.356452" y="364.201044" style="fill: #2ca02c; stroke: #2ca02c"/>
     <use xlink:href="#m53b844101c" x="92.877029" y="364.722221" style="fill: #2ca02c; stroke: #2ca02c"/>
     <use xlink:href="#m53b844101c" x="93.644337" y="363.398431" style="fill: #2ca02c; stroke: #2ca02c"/>
     <use xlink:href="#m53b844101c" x="94.888102" y="363.242078" style="fill: #2ca02c; stroke: #2ca02c"/>
     <use xlink:href="#m53b844101c" x="97.210962" y="366.452529" style="fill: #2ca02c; stroke: #2ca02c"/>
     <use xlink:href="#m53b844101c" x="103.011915" y="366.108552" style="fill: #2ca02c; stroke: #2ca02c"/>
     <use xlink:href="#m53b844101c" x="129.240868" y="383.693063" style="fill: #2ca02c; stroke: #2ca02c"/>
     <use xlink:href="#m53b844101c" x="161.707189" y="404.915389" style="fill: #2ca02c; stroke: #2ca02c"/>
     <use xlink:href="#m53b844101c" x="194.239227" y="432.204215" style="fill: #2ca02c; stroke: #2ca02c"/>
     <use xlink:href="#m53b844101c" x="225.917633" y="449.44475" style="fill: #2ca02c; stroke: #2ca02c"/>
     <use xlink:href="#m53b844101c" x="256.904642" y="464.360835" style="fill: #2ca02c; stroke: #2ca02c"/>
     <use xlink:href="#m53b844101c" x="316.160557" y="480.725791" style="fill: #2ca02c; stroke: #2ca02c"/>
     <use xlink:href="#m53b844101c" x="345.451324" y="483.300406" style="fill: #2ca02c; stroke: #2ca02c"/>
     <use xlink:href="#m53b844101c" x="373.652604" y="486.886103" style="fill: #2ca02c; stroke: #2ca02c"/>
     <use xlink:href="#m53b844101c" x="404.394202" y="487.918034" style="fill: #2ca02c; stroke: #2ca02c"/>
     <use xlink:href="#m53b844101c" x="432.629071" y="489.314788" style="fill: #2ca02c; stroke: #2ca02c"/>
     <use xlink:href="#m53b844101c" x="460.258909" y="490.294601" style="fill: #2ca02c; stroke: #2ca02c"/>
     <use xlink:href="#m53b844101c" x="488.842255" y="491.670508" style="fill: #2ca02c; stroke: #2ca02c"/>
     <use xlink:href="#m53b844101c" x="520.185509" y="491.983214" style="fill: #2ca02c; stroke: #2ca02c"/>
     <use xlink:href="#m53b844101c" x="577.317979" y="492.108297" style="fill: #2ca02c; stroke: #2ca02c"/>
     <use xlink:href="#m53b844101c" x="603.314744" y="491.826861" style="fill: #2ca02c; stroke: #2ca02c"/>
     <use xlink:href="#m53b844101c" x="632.147413" y="492.11872" style="fill: #2ca02c; stroke: #2ca02c"/>
     <use xlink:href="#m53b844101c" x="660.833068" y="492.525238" style="fill: #2ca02c; stroke: #2ca02c"/>
    </g>
   </g>
   <g id="line2d_36">
    <path d="M 91.469432 364.263167 
L 91.694591 364.734966 
L 91.976652 364.098038 
L 92.356452 366.398057 
L 92.877029 364.829326 
L 93.644337 365.19497 
L 94.888102 367.294475 
L 97.210962 367.966788 
L 103.011915 373.19196 
L 129.240868 392.453146 
L 161.707189 423.414944 
L 194.239227 444.409991 
L 225.917633 461.984497 
L 256.904642 471.208164 
L 316.160557 483.581088 
L 345.451324 487.461633 
L 373.652604 489.207288 
L 404.394202 490.37499 
L 432.629071 491.613462 
L 460.258909 491.719617 
L 488.842255 492.002696 
L 520.185509 491.802182 
L 577.317979 492.097056 
L 603.314744 492.297571 
L 632.147413 492.43911 
L 660.833068 492.356545 
" clip-path="url(#p349cd1284d)" style="fill: none; stroke: #d62728; stroke-width: 2; stroke-linecap: square"/>
    <defs>
     <path id="mc9e926444a" d="M 0 3 
C 0.795609 3 1.55874 2.683901 2.12132 2.12132 
C 2.683901 1.55874 3 0.795609 3 0 
C 3 -0.795609 2.683901 -1.55874 2.12132 -2.12132 
C 1.55874 -2.683901 0.795609 -3 0 -3 
C -0.795609 -3 -1.55874 -2.683901 -2.12132 -2.12132 
C -2.683901 -1.55874 -3 -0.795609 -3 0 
C -3 0.795609 -2.683901 1.55874 -2.12132 2.12132 
C -1.55874 2.683901 -0.795609 3 0 3 
z
" style="stroke: #d62728"/>
    </defs>
    <g clip-path="url(#p349cd1284d)">
     <use xlink:href="#mc9e926444a" x="91.469432" y="364.263167" style="fill: #d62728; stroke: #d62728"/>
     <use xlink:href="#mc9e926444a" x="91.694591" y="364.734966" style="fill: #d62728; stroke: #d62728"/>
     <use xlink:href="#mc9e926444a" x="91.976652" y="364.098038" style="fill: #d62728; stroke: #d62728"/>
     <use xlink:href="#mc9e926444a" x="92.356452" y="366.398057" style="fill: #d62728; stroke: #d62728"/>
     <use xlink:href="#mc9e926444a" x="92.877029" y="364.829326" style="fill: #d62728; stroke: #d62728"/>
     <use xlink:href="#mc9e926444a" x="93.644337" y="365.19497" style="fill: #d62728; stroke: #d62728"/>
     <use xlink:href="#mc9e926444a" x="94.888102" y="367.294475" style="fill: #d62728; stroke: #d62728"/>
     <use xlink:href="#mc9e926444a" x="97.210962" y="367.966788" style="fill: #d62728; stroke: #d62728"/>
     <use xlink:href="#mc9e926444a" x="103.011915" y="373.19196" style="fill: #d62728; stroke: #d62728"/>
     <use xlink:href="#mc9e926444a" x="129.240868" y="392.453146" style="fill: #d62728; stroke: #d62728"/>
     <use xlink:href="#mc9e926444a" x="161.707189" y="423.414944" style="fill: #d62728; stroke: #d62728"/>
     <use xlink:href="#mc9e926444a" x="194.239227" y="444.409991" style="fill: #d62728; stroke: #d62728"/>
     <use xlink:href="#mc9e926444a" x="225.917633" y="461.984497" style="fill: #d62728; stroke: #d62728"/>
     <use xlink:href="#mc9e926444a" x="256.904642" y="471.208164" style="fill: #d62728; stroke: #d62728"/>
     <use xlink:href="#mc9e926444a" x="316.160557" y="483.581088" style="fill: #d62728; stroke: #d62728"/>
     <use xlink:href="#mc9e926444a" x="345.451324" y="487.461633" style="fill: #d62728; stroke: #d62728"/>
     <use xlink:href="#mc9e926444a" x="373.652604" y="489.207288" style="fill: #d62728; stroke: #d62728"/>
     <use xlink:href="#mc9e926444a" x="404.394202" y="490.37499" style="fill: #d62728; stroke: #d62728"/>
     <use xlink:href="#mc9e926444a" x="432.629071" y="491.613462" style="fill: #d62728; stroke: #d62728"/>
     <use xlink:href="#mc9e926444a" x="460.258909" y="491.719617" style="fill: #d62728; stroke: #d62728"/>
     <use xlink:href="#mc9e926444a" x="488.842255" y="492.002696" style="fill: #d62728; stroke: #d62728"/>
     <use xlink:href="#mc9e926444a" x="520.185509" y="491.802182" style="fill: #d62728; stroke: #d62728"/>
     <use xlink:href="#mc9e926444a" x="577.317979" y="492.097056" style="fill: #d62728; stroke: #d62728"/>
     <use xlink:href="#mc9e926444a" x="603.314744" y="492.297571" style="fill: #d62728; stroke: #d62728"/>
     <use xlink:href="#mc9e926444a" x="632.147413" y="492.43911" style="fill: #d62728; stroke: #d62728"/>
     <use xlink:href="#mc9e926444a" x="660.833068" y="492.356545" style="fill: #d62728; stroke: #d62728"/>
    </g>
   </g>
   <g id="line2d_37">
    <path d="M 91.469432 363.627602 
L 91.694591 365.323671 
L 91.976652 367.26422 
L 92.356452 364.085999 
L 92.877029 366.805823 
L 93.644337 369.449247 
L 94.888102 368.578292 
L 97.210962 368.746371 
L 103.011915 378.067115 
L 129.240868 406.411346 
L 161.707189 439.354829 
L 194.239227 463.787403 
L 225.917633 476.07245 
L 256.904642 483.254007 
L 316.160557 488.051898 
L 345.451324 490.175805 
L 373.652604 491.489878 
L 404.394202 491.428758 
L 432.629071 491.932995 
L 460.258909 492.055234 
L 488.842255 492.421952 
L 520.185509 492.406672 
L 577.317979 492.574751 
L 603.314744 492.68171 
L 632.147413 492.635871 
L 660.833068 492.78867 
" clip-path="url(#p349cd1284d)" style="fill: none; stroke: #9467bd; stroke-width: 2; stroke-linecap: square"/>
    <defs>
     <path id="m2755c23977" d="M 0 3 
C 0.795609 3 1.55874 2.683901 2.12132 2.12132 
C 2.683901 1.55874 3 0.795609 3 0 
C 3 -0.795609 2.683901 -1.55874 2.12132 -2.12132 
C 1.55874 -2.683901 0.795609 -3 0 -3 
C -0.795609 -3 -1.55874 -2.683901 -2.12132 -2.12132 
C -2.683901 -1.55874 -3 -0.795609 -3 0 
C -3 0.795609 -2.683901 1.55874 -2.12132 2.12132 
C -1.55874 2.683901 -0.795609 3 0 3 
z
" style="stroke: #9467bd"/>
    </defs>
    <g clip-path="url(#p349cd1284d)">
     <use xlink:href="#m2755c23977" x="91.469432" y="363.627602" style="fill: #9467bd; stroke: #9467bd"/>
     <use xlink:href="#m2755c23977" x="91.694591" y="365.323671" style="fill: #9467bd; stroke: #9467bd"/>
     <use xlink:href="#m2755c23977" x="91.976652" y="367.26422" style="fill: #9467bd; stroke: #9467bd"/>
     <use xlink:href="#m2755c23977" x="92.356452" y="364.085999" style="fill: #9467bd; stroke: #9467bd"/>
     <use xlink:href="#m2755c23977" x="92.877029" y="366.805823" style="fill: #9467bd; stroke: #9467bd"/>
     <use xlink:href="#m2755c23977" x="93.644337" y="369.449247" style="fill: #9467bd; stroke: #9467bd"/>
     <use xlink:href="#m2755c23977" x="94.888102" y="368.578292" style="fill: #9467bd; stroke: #9467bd"/>
     <use xlink:href="#m2755c23977" x="97.210962" y="368.746371" style="fill: #9467bd; stroke: #9467bd"/>
     <use xlink:href="#m2755c23977" x="103.011915" y="378.067115" style="fill: #9467bd; stroke: #9467bd"/>
     <use xlink:href="#m2755c23977" x="129.240868" y="406.411346" style="fill: #9467bd; stroke: #9467bd"/>
     <use xlink:href="#m2755c23977" x="161.707189" y="439.354829" style="fill: #9467bd; stroke: #9467bd"/>
     <use xlink:href="#m2755c23977" x="194.239227" y="463.787403" style="fill: #9467bd; stroke: #9467bd"/>
     <use xlink:href="#m2755c23977" x="225.917633" y="476.07245" style="fill: #9467bd; stroke: #9467bd"/>
     <use xlink:href="#m2755c23977" x="256.904642" y="483.254007" style="fill: #9467bd; stroke: #9467bd"/>
     <use xlink:href="#m2755c23977" x="316.160557" y="488.051898" style="fill: #9467bd; stroke: #9467bd"/>
     <use xlink:href="#m2755c23977" x="345.451324" y="490.175805" style="fill: #9467bd; stroke: #9467bd"/>
     <use xlink:href="#m2755c23977" x="373.652604" y="491.489878" style="fill: #9467bd; stroke: #9467bd"/>
     <use xlink:href="#m2755c23977" x="404.394202" y="491.428758" style="fill: #9467bd; stroke: #9467bd"/>
     <use xlink:href="#m2755c23977" x="432.629071" y="491.932995" style="fill: #9467bd; stroke: #9467bd"/>
     <use xlink:href="#m2755c23977" x="460.258909" y="492.055234" style="fill: #9467bd; stroke: #9467bd"/>
     <use xlink:href="#m2755c23977" x="488.842255" y="492.421952" style="fill: #9467bd; stroke: #9467bd"/>
     <use xlink:href="#m2755c23977" x="520.185509" y="492.406672" style="fill: #9467bd; stroke: #9467bd"/>
     <use xlink:href="#m2755c23977" x="577.317979" y="492.574751" style="fill: #9467bd; stroke: #9467bd"/>
     <use xlink:href="#m2755c23977" x="603.314744" y="492.68171" style="fill: #9467bd; stroke: #9467bd"/>
     <use xlink:href="#m2755c23977" x="632.147413" y="492.635871" style="fill: #9467bd; stroke: #9467bd"/>
     <use xlink:href="#m2755c23977" x="660.833068" y="492.78867" style="fill: #9467bd; stroke: #9467bd"/>
    </g>
   </g>
   <g id="line2d_38">
    <path d="M 91.469432 366.235472 
L 91.694591 361.22112 
L 91.976652 368.644603 
L 92.356452 367.496064 
L 92.877029 369.288905 
L 93.644337 368.168379 
L 94.888102 372.45439 
L 97.210962 375.339744 
L 103.011915 384.668121 
L 129.240868 427.584257 
L 161.707189 461.760293 
L 194.239227 476.243088 
L 225.917633 485.375373 
L 256.904642 489.437279 
L 316.160557 491.818396 
L 345.451324 492.21058 
L 373.652604 492.182567 
L 404.394202 492.266607 
L 432.629071 492.546738 
L 460.258909 492.82687 
L 488.842255 492.82687 
L 520.185509 492.770843 
L 577.317979 492.74283 
L 603.314744 492.882896 
L 632.147413 492.74283 
L 660.833068 492.882896 
" clip-path="url(#p349cd1284d)" style="fill: none; stroke: #8c564b; stroke-width: 2; stroke-linecap: square"/>
    <defs>
     <path id="m65555255db" d="M 0 3 
C 0.795609 3 1.55874 2.683901 2.12132 2.12132 
C 2.683901 1.55874 3 0.795609 3 0 
C 3 -0.795609 2.683901 -1.55874 2.12132 -2.12132 
C 1.55874 -2.683901 0.795609 -3 0 -3 
C -0.795609 -3 -1.55874 -2.683901 -2.12132 -2.12132 
C -2.683901 -1.55874 -3 -0.795609 -3 0 
C -3 0.795609 -2.683901 1.55874 -2.12132 2.12132 
C -1.55874 2.683901 -0.795609 3 0 3 
z
" style="stroke: #8c564b"/>
    </defs>
    <g clip-path="url(#p349cd1284d)">
     <use xlink:href="#m65555255db" x="91.469432" y="366.235472" style="fill: #8c564b; stroke: #8c564b"/>
     <use xlink:href="#m65555255db" x="91.694591" y="361.22112" style="fill: #8c564b; stroke: #8c564b"/>
     <use xlink:href="#m65555255db" x="91.976652" y="368.644603" style="fill: #8c564b; stroke: #8c564b"/>
     <use xlink:href="#m65555255db" x="92.356452" y="367.496064" style="fill: #8c564b; stroke: #8c564b"/>
     <use xlink:href="#m65555255db" x="92.877029" y="369.288905" style="fill: #8c564b; stroke: #8c564b"/>
     <use xlink:href="#m65555255db" x="93.644337" y="368.168379" style="fill: #8c564b; stroke: #8c564b"/>
     <use xlink:href="#m65555255db" x="94.888102" y="372.45439" style="fill: #8c564b; stroke: #8c564b"/>
     <use xlink:href="#m65555255db" x="97.210962" y="375.339744" style="fill: #8c564b; stroke: #8c564b"/>
     <use xlink:href="#m65555255db" x="103.011915" y="384.668121" style="fill: #8c564b; stroke: #8c564b"/>
     <use xlink:href="#m65555255db" x="129.240868" y="427.584257" style="fill: #8c564b; stroke: #8c564b"/>
     <use xlink:href="#m65555255db" x="161.707189" y="461.760293" style="fill: #8c564b; stroke: #8c564b"/>
     <use xlink:href="#m65555255db" x="194.239227" y="476.243088" style="fill: #8c564b; stroke: #8c564b"/>
     <use xlink:href="#m65555255db" x="225.917633" y="485.375373" style="fill: #8c564b; stroke: #8c564b"/>
     <use xlink:href="#m65555255db" x="256.904642" y="489.437279" style="fill: #8c564b; stroke: #8c564b"/>
     <use xlink:href="#m65555255db" x="316.160557" y="491.818396" style="fill: #8c564b; stroke: #8c564b"/>
     <use xlink:href="#m65555255db" x="345.451324" y="492.21058" style="fill: #8c564b; stroke: #8c564b"/>
     <use xlink:href="#m65555255db" x="373.652604" y="492.182567" style="fill: #8c564b; stroke: #8c564b"/>
     <use xlink:href="#m65555255db" x="404.394202" y="492.266607" style="fill: #8c564b; stroke: #8c564b"/>
     <use xlink:href="#m65555255db" x="432.629071" y="492.546738" style="fill: #8c564b; stroke: #8c564b"/>
     <use xlink:href="#m65555255db" x="460.258909" y="492.82687" style="fill: #8c564b; stroke: #8c564b"/>
     <use xlink:href="#m65555255db" x="488.842255" y="492.82687" style="fill: #8c564b; stroke: #8c564b"/>
     <use xlink:href="#m65555255db" x="520.185509" y="492.770843" style="fill: #8c564b; stroke: #8c564b"/>
     <use xlink:href="#m65555255db" x="577.317979" y="492.74283" style="fill: #8c564b; stroke: #8c564b"/>
     <use xlink:href="#m65555255db" x="603.314744" y="492.882896" style="fill: #8c564b; stroke: #8c564b"/>
     <use xlink:href="#m65555255db" x="632.147413" y="492.74283" style="fill: #8c564b; stroke: #8c564b"/>
     <use xlink:href="#m65555255db" x="660.833068" y="492.882896" style="fill: #8c564b; stroke: #8c564b"/>
    </g>
   </g>
   <g id="line2d_39">
    <path d="M 91.469432 366.643508 
L 91.694591 366.867613 
L 91.976652 368.948592 
L 92.356452 365.971191 
L 92.877029 363.217896 
L 93.644337 371.413752 
L 94.888102 373.494731 
L 97.210962 378.072885 
L 103.011915 389.214126 
L 129.240868 434.227302 
L 161.707189 463.521083 
L 194.239227 479.272493 
L 225.917633 486.379837 
L 256.904642 490.061569 
L 316.160557 491.662322 
L 345.451324 492.494713 
L 373.652604 492.334638 
L 404.394202 492.654789 
L 432.629071 492.238593 
L 460.258909 492.558743 
L 488.842255 492.814864 
L 520.185509 492.910909 
L 577.317979 492.910909 
L 603.314744 492.750834 
L 632.147413 492.878894 
L 660.833068 492.910909 
" clip-path="url(#p349cd1284d)" style="fill: none; stroke: #e377c2; stroke-width: 2; stroke-linecap: square"/>
    <defs>
     <path id="meb079f0cff" d="M 0 3 
C 0.795609 3 1.55874 2.683901 2.12132 2.12132 
C 2.683901 1.55874 3 0.795609 3 0 
C 3 -0.795609 2.683901 -1.55874 2.12132 -2.12132 
C 1.55874 -2.683901 0.795609 -3 0 -3 
C -0.795609 -3 -1.55874 -2.683901 -2.12132 -2.12132 
C -2.683901 -1.55874 -3 -0.795609 -3 0 
C -3 0.795609 -2.683901 1.55874 -2.12132 2.12132 
C -1.55874 2.683901 -0.795609 3 0 3 
z
" style="stroke: #e377c2"/>
    </defs>
    <g clip-path="url(#p349cd1284d)">
     <use xlink:href="#meb079f0cff" x="91.469432" y="366.643508" style="fill: #e377c2; stroke: #e377c2"/>
     <use xlink:href="#meb079f0cff" x="91.694591" y="366.867613" style="fill: #e377c2; stroke: #e377c2"/>
     <use xlink:href="#meb079f0cff" x="91.976652" y="368.948592" style="fill: #e377c2; stroke: #e377c2"/>
     <use xlink:href="#meb079f0cff" x="92.356452" y="365.971191" style="fill: #e377c2; stroke: #e377c2"/>
     <use xlink:href="#meb079f0cff" x="92.877029" y="363.217896" style="fill: #e377c2; stroke: #e377c2"/>
     <use xlink:href="#meb079f0cff" x="93.644337" y="371.413752" style="fill: #e377c2; stroke: #e377c2"/>
     <use xlink:href="#meb079f0cff" x="94.888102" y="373.494731" style="fill: #e377c2; stroke: #e377c2"/>
     <use xlink:href="#meb079f0cff" x="97.210962" y="378.072885" style="fill: #e377c2; stroke: #e377c2"/>
     <use xlink:href="#meb079f0cff" x="103.011915" y="389.214126" style="fill: #e377c2; stroke: #e377c2"/>
     <use xlink:href="#meb079f0cff" x="129.240868" y="434.227302" style="fill: #e377c2; stroke: #e377c2"/>
     <use xlink:href="#meb079f0cff" x="161.707189" y="463.521083" style="fill: #e377c2; stroke: #e377c2"/>
     <use xlink:href="#meb079f0cff" x="194.239227" y="479.272493" style="fill: #e377c2; stroke: #e377c2"/>
     <use xlink:href="#meb079f0cff" x="225.917633" y="486.379837" style="fill: #e377c2; stroke: #e377c2"/>
     <use xlink:href="#meb079f0cff" x="256.904642" y="490.061569" style="fill: #e377c2; stroke: #e377c2"/>
     <use xlink:href="#meb079f0cff" x="316.160557" y="491.662322" style="fill: #e377c2; stroke: #e377c2"/>
     <use xlink:href="#meb079f0cff" x="345.451324" y="492.494713" style="fill: #e377c2; stroke: #e377c2"/>
     <use xlink:href="#meb079f0cff" x="373.652604" y="492.334638" style="fill: #e377c2; stroke: #e377c2"/>
     <use xlink:href="#meb079f0cff" x="404.394202" y="492.654789" style="fill: #e377c2; stroke: #e377c2"/>
     <use xlink:href="#meb079f0cff" x="432.629071" y="492.238593" style="fill: #e377c2; stroke: #e377c2"/>
     <use xlink:href="#meb079f0cff" x="460.258909" y="492.558743" style="fill: #e377c2; stroke: #e377c2"/>
     <use xlink:href="#meb079f0cff" x="488.842255" y="492.814864" style="fill: #e377c2; stroke: #e377c2"/>
     <use xlink:href="#meb079f0cff" x="520.185509" y="492.910909" style="fill: #e377c2; stroke: #e377c2"/>
     <use xlink:href="#meb079f0cff" x="577.317979" y="492.910909" style="fill: #e377c2; stroke: #e377c2"/>
     <use xlink:href="#meb079f0cff" x="603.314744" y="492.750834" style="fill: #e377c2; stroke: #e377c2"/>
     <use xlink:href="#meb079f0cff" x="632.147413" y="492.878894" style="fill: #e377c2; stroke: #e377c2"/>
     <use xlink:href="#meb079f0cff" x="660.833068" y="492.910909" style="fill: #e377c2; stroke: #e377c2"/>
    </g>
   </g>
   <g id="line2d_40">
    <path d="M 91.469432 365.943916 
L 91.694591 365.943916 
L 91.976652 366.515385 
L 92.356452 367.154086 
L 92.877029 367.389397 
L 93.644337 369.305499 
L 94.888102 373.742789 
L 97.210962 377.171603 
L 103.011915 389.743924 
L 129.240868 432.772188 
L 161.707189 464.673611 
L 194.239227 481.044521 
L 225.917633 485.784353 
L 256.904642 490.188027 
L 316.160557 491.902434 
L 345.451324 492.541135 
L 373.652604 492.272208 
L 404.394202 492.675598 
L 432.629071 492.74283 
L 460.258909 492.608367 
L 488.842255 492.776446 
L 520.185509 492.843677 
L 577.317979 492.776446 
L 603.314744 492.810062 
L 632.147413 492.910909 
L 660.833068 492.910909 
" clip-path="url(#p349cd1284d)" style="fill: none; stroke: #17becf; stroke-width: 2; stroke-linecap: square"/>
    <defs>
     <path id="md25ba3b23a" d="M 0 3 
C 0.795609 3 1.55874 2.683901 2.12132 2.12132 
C 2.683901 1.55874 3 0.795609 3 0 
C 3 -0.795609 2.683901 -1.55874 2.12132 -2.12132 
C 1.55874 -2.683901 0.795609 -3 0 -3 
C -0.795609 -3 -1.55874 -2.683901 -2.12132 -2.12132 
C -2.683901 -1.55874 -3 -0.795609 -3 0 
C -3 0.795609 -2.683901 1.55874 -2.12132 2.12132 
C -1.55874 2.683901 -0.795609 3 0 3 
z
" style="stroke: #17becf"/>
    </defs>
    <g clip-path="url(#p349cd1284d)">
     <use xlink:href="#md25ba3b23a" x="91.469432" y="365.943916" style="fill: #17becf; stroke: #17becf"/>
     <use xlink:href="#md25ba3b23a" x="91.694591" y="365.943916" style="fill: #17becf; stroke: #17becf"/>
     <use xlink:href="#md25ba3b23a" x="91.976652" y="366.515385" style="fill: #17becf; stroke: #17becf"/>
     <use xlink:href="#md25ba3b23a" x="92.356452" y="367.154086" style="fill: #17becf; stroke: #17becf"/>
     <use xlink:href="#md25ba3b23a" x="92.877029" y="367.389397" style="fill: #17becf; stroke: #17becf"/>
     <use xlink:href="#md25ba3b23a" x="93.644337" y="369.305499" style="fill: #17becf; stroke: #17becf"/>
     <use xlink:href="#md25ba3b23a" x="94.888102" y="373.742789" style="fill: #17becf; stroke: #17becf"/>
     <use xlink:href="#md25ba3b23a" x="97.210962" y="377.171603" style="fill: #17becf; stroke: #17becf"/>
     <use xlink:href="#md25ba3b23a" x="103.011915" y="389.743924" style="fill: #17becf; stroke: #17becf"/>
     <use xlink:href="#md25ba3b23a" x="129.240868" y="432.772188" style="fill: #17becf; stroke: #17becf"/>
     <use xlink:href="#md25ba3b23a" x="161.707189" y="464.673611" style="fill: #17becf; stroke: #17becf"/>
     <use xlink:href="#md25ba3b23a" x="194.239227" y="481.044521" style="fill: #17becf; stroke: #17becf"/>
     <use xlink:href="#md25ba3b23a" x="225.917633" y="485.784353" style="fill: #17becf; stroke: #17becf"/>
     <use xlink:href="#md25ba3b23a" x="256.904642" y="490.188027" style="fill: #17becf; stroke: #17becf"/>
     <use xlink:href="#md25ba3b23a" x="316.160557" y="491.902434" style="fill: #17becf; stroke: #17becf"/>
     <use xlink:href="#md25ba3b23a" x="345.451324" y="492.541135" style="fill: #17becf; stroke: #17becf"/>
     <use xlink:href="#md25ba3b23a" x="373.652604" y="492.272208" style="fill: #17becf; stroke: #17becf"/>
     <use xlink:href="#md25ba3b23a" x="404.394202" y="492.675598" style="fill: #17becf; stroke: #17becf"/>
     <use xlink:href="#md25ba3b23a" x="432.629071" y="492.74283" style="fill: #17becf; stroke: #17becf"/>
     <use xlink:href="#md25ba3b23a" x="460.258909" y="492.608367" style="fill: #17becf; stroke: #17becf"/>
     <use xlink:href="#md25ba3b23a" x="488.842255" y="492.776446" style="fill: #17becf; stroke: #17becf"/>
     <use xlink:href="#md25ba3b23a" x="520.185509" y="492.843677" style="fill: #17becf; stroke: #17becf"/>
     <use xlink:href="#md25ba3b23a" x="577.317979" y="492.776446" style="fill: #17becf; stroke: #17becf"/>
     <use xlink:href="#md25ba3b23a" x="603.314744" y="492.810062" style="fill: #17becf; stroke: #17becf"/>
     <use xlink:href="#md25ba3b23a" x="632.147413" y="492.910909" style="fill: #17becf; stroke: #17becf"/>
     <use xlink:href="#md25ba3b23a" x="660.833068" y="492.910909" style="fill: #17becf; stroke: #17becf"/>
    </g>
   </g>
   <g id="line2d_41">
    <path d="M 91.469432 367.107285 
L 91.694591 370.334398 
L 91.976652 371.194961 
L 92.356452 368.29056 
L 92.877029 368.129204 
L 93.644337 376.573483 
L 94.888102 373.131229 
L 97.210962 377.649188 
L 103.011915 390.611425 
L 129.240868 443.589864 
L 161.707189 474.193653 
L 194.239227 485.918831 
L 225.917633 488.554306 
L 256.904642 491.297353 
L 316.160557 492.211701 
L 345.451324 492.373057 
L 373.652604 492.695768 
L 404.394202 492.695768 
L 432.629071 492.588198 
L 460.258909 492.695768 
L 488.842255 492.910909 
L 520.185509 492.910909 
L 577.317979 492.910909 
L 603.314744 492.910909 
L 632.147413 492.910909 
L 660.833068 492.910909 
" clip-path="url(#p349cd1284d)" style="fill: none; stroke: #bcbd22; stroke-width: 2; stroke-linecap: square"/>
    <defs>
     <path id="m40c0ee0016" d="M 0 3 
C 0.795609 3 1.55874 2.683901 2.12132 2.12132 
C 2.683901 1.55874 3 0.795609 3 0 
C 3 -0.795609 2.683901 -1.55874 2.12132 -2.12132 
C 1.55874 -2.683901 0.795609 -3 0 -3 
C -0.795609 -3 -1.55874 -2.683901 -2.12132 -2.12132 
C -2.683901 -1.55874 -3 -0.795609 -3 0 
C -3 0.795609 -2.683901 1.55874 -2.12132 2.12132 
C -1.55874 2.683901 -0.795609 3 0 3 
z
" style="stroke: #bcbd22"/>
    </defs>
    <g clip-path="url(#p349cd1284d)">
     <use xlink:href="#m40c0ee0016" x="91.469432" y="367.107285" style="fill: #bcbd22; stroke: #bcbd22"/>
     <use xlink:href="#m40c0ee0016" x="91.694591" y="370.334398" style="fill: #bcbd22; stroke: #bcbd22"/>
     <use xlink:href="#m40c0ee0016" x="91.976652" y="371.194961" style="fill: #bcbd22; stroke: #bcbd22"/>
     <use xlink:href="#m40c0ee0016" x="92.356452" y="368.29056" style="fill: #bcbd22; stroke: #bcbd22"/>
     <use xlink:href="#m40c0ee0016" x="92.877029" y="368.129204" style="fill: #bcbd22; stroke: #bcbd22"/>
     <use xlink:href="#m40c0ee0016" x="93.644337" y="376.573483" style="fill: #bcbd22; stroke: #bcbd22"/>
     <use xlink:href="#m40c0ee0016" x="94.888102" y="373.131229" style="fill: #bcbd22; stroke: #bcbd22"/>
     <use xlink:href="#m40c0ee0016" x="97.210962" y="377.649188" style="fill: #bcbd22; stroke: #bcbd22"/>
     <use xlink:href="#m40c0ee0016" x="103.011915" y="390.611425" style="fill: #bcbd22; stroke: #bcbd22"/>
     <use xlink:href="#m40c0ee0016" x="129.240868" y="443.589864" style="fill: #bcbd22; stroke: #bcbd22"/>
     <use xlink:href="#m40c0ee0016" x="161.707189" y="474.193653" style="fill: #bcbd22; stroke: #bcbd22"/>
     <use xlink:href="#m40c0ee0016" x="194.239227" y="485.918831" style="fill: #bcbd22; stroke: #bcbd22"/>
     <use xlink:href="#m40c0ee0016" x="225.917633" y="488.554306" style="fill: #bcbd22; stroke: #bcbd22"/>
     <use xlink:href="#m40c0ee0016" x="256.904642" y="491.297353" style="fill: #bcbd22; stroke: #bcbd22"/>
     <use xlink:href="#m40c0ee0016" x="316.160557" y="492.211701" style="fill: #bcbd22; stroke: #bcbd22"/>
     <use xlink:href="#m40c0ee0016" x="345.451324" y="492.373057" style="fill: #bcbd22; stroke: #bcbd22"/>
     <use xlink:href="#m40c0ee0016" x="373.652604" y="492.695768" style="fill: #bcbd22; stroke: #bcbd22"/>
     <use xlink:href="#m40c0ee0016" x="404.394202" y="492.695768" style="fill: #bcbd22; stroke: #bcbd22"/>
     <use xlink:href="#m40c0ee0016" x="432.629071" y="492.588198" style="fill: #bcbd22; stroke: #bcbd22"/>
     <use xlink:href="#m40c0ee0016" x="460.258909" y="492.695768" style="fill: #bcbd22; stroke: #bcbd22"/>
     <use xlink:href="#m40c0ee0016" x="488.842255" y="492.910909" style="fill: #bcbd22; stroke: #bcbd22"/>
     <use xlink:href="#m40c0ee0016" x="520.185509" y="492.910909" style="fill: #bcbd22; stroke: #bcbd22"/>
     <use xlink:href="#m40c0ee0016" x="577.317979" y="492.910909" style="fill: #bcbd22; stroke: #bcbd22"/>
     <use xlink:href="#m40c0ee0016" x="603.314744" y="492.910909" style="fill: #bcbd22; stroke: #bcbd22"/>
     <use xlink:href="#m40c0ee0016" x="632.147413" y="492.910909" style="fill: #bcbd22; stroke: #bcbd22"/>
     <use xlink:href="#m40c0ee0016" x="660.833068" y="492.910909" style="fill: #bcbd22; stroke: #bcbd22"/>
    </g>
   </g>
   <g id="line2d_42">
    <path d="M 91.469432 370.482053 
L 91.694591 369.271883 
L 91.976652 371.692223 
L 92.356452 371.288833 
L 92.877029 369.876968 
L 93.644337 370.280358 
L 94.888102 375.255501 
L 97.210962 381.171887 
L 103.011915 387.558895 
L 129.240868 442.957784 
L 161.707189 475.027287 
L 194.239227 485.717121 
L 225.917633 490.087179 
L 256.904642 491.028423 
L 316.160557 492.641982 
L 345.451324 492.305824 
L 373.652604 492.641982 
L 404.394202 492.776446 
L 432.629071 492.843677 
L 460.258909 492.910909 
L 488.842255 492.910909 
L 520.185509 492.843677 
L 577.317979 492.709214 
L 603.314744 492.843677 
L 632.147413 492.910909 
L 660.833068 492.910909 
" clip-path="url(#p349cd1284d)" style="fill: none; stroke: #aec7e8; stroke-width: 2; stroke-linecap: square"/>
    <defs>
     <path id="m7173dacbb8" d="M 0 3 
C 0.795609 3 1.55874 2.683901 2.12132 2.12132 
C 2.683901 1.55874 3 0.795609 3 0 
C 3 -0.795609 2.683901 -1.55874 2.12132 -2.12132 
C 1.55874 -2.683901 0.795609 -3 0 -3 
C -0.795609 -3 -1.55874 -2.683901 -2.12132 -2.12132 
C -2.683901 -1.55874 -3 -0.795609 -3 0 
C -3 0.795609 -2.683901 1.55874 -2.12132 2.12132 
C -1.55874 2.683901 -0.795609 3 0 3 
z
" style="stroke: #aec7e8"/>
    </defs>
    <g clip-path="url(#p349cd1284d)">
     <use xlink:href="#m7173dacbb8" x="91.469432" y="370.482053" style="fill: #aec7e8; stroke: #aec7e8"/>
     <use xlink:href="#m7173dacbb8" x="91.694591" y="369.271883" style="fill: #aec7e8; stroke: #aec7e8"/>
     <use xlink:href="#m7173dacbb8" x="91.976652" y="371.692223" style="fill: #aec7e8; stroke: #aec7e8"/>
     <use xlink:href="#m7173dacbb8" x="92.356452" y="371.288833" style="fill: #aec7e8; stroke: #aec7e8"/>
     <use xlink:href="#m7173dacbb8" x="92.877029" y="369.876968" style="fill: #aec7e8; stroke: #aec7e8"/>
     <use xlink:href="#m7173dacbb8" x="93.644337" y="370.280358" style="fill: #aec7e8; stroke: #aec7e8"/>
     <use xlink:href="#m7173dacbb8" x="94.888102" y="375.255501" style="fill: #aec7e8; stroke: #aec7e8"/>
     <use xlink:href="#m7173dacbb8" x="97.210962" y="381.171887" style="fill: #aec7e8; stroke: #aec7e8"/>
     <use xlink:href="#m7173dacbb8" x="103.011915" y="387.558895" style="fill: #aec7e8; stroke: #aec7e8"/>
     <use xlink:href="#m7173dacbb8" x="129.240868" y="442.957784" style="fill: #aec7e8; stroke: #aec7e8"/>
     <use xlink:href="#m7173dacbb8" x="161.707189" y="475.027287" style="fill: #aec7e8; stroke: #aec7e8"/>
     <use xlink:href="#m7173dacbb8" x="194.239227" y="485.717121" style="fill: #aec7e8; stroke: #aec7e8"/>
     <use xlink:href="#m7173dacbb8" x="225.917633" y="490.087179" style="fill: #aec7e8; stroke: #aec7e8"/>
     <use xlink:href="#m7173dacbb8" x="256.904642" y="491.028423" style="fill: #aec7e8; stroke: #aec7e8"/>
     <use xlink:href="#m7173dacbb8" x="316.160557" y="492.641982" style="fill: #aec7e8; stroke: #aec7e8"/>
     <use xlink:href="#m7173dacbb8" x="345.451324" y="492.305824" style="fill: #aec7e8; stroke: #aec7e8"/>
     <use xlink:href="#m7173dacbb8" x="373.652604" y="492.641982" style="fill: #aec7e8; stroke: #aec7e8"/>
     <use xlink:href="#m7173dacbb8" x="404.394202" y="492.776446" style="fill: #aec7e8; stroke: #aec7e8"/>
     <use xlink:href="#m7173dacbb8" x="432.629071" y="492.843677" style="fill: #aec7e8; stroke: #aec7e8"/>
     <use xlink:href="#m7173dacbb8" x="460.258909" y="492.910909" style="fill: #aec7e8; stroke: #aec7e8"/>
     <use xlink:href="#m7173dacbb8" x="488.842255" y="492.910909" style="fill: #aec7e8; stroke: #aec7e8"/>
     <use xlink:href="#m7173dacbb8" x="520.185509" y="492.843677" style="fill: #aec7e8; stroke: #aec7e8"/>
     <use xlink:href="#m7173dacbb8" x="577.317979" y="492.709214" style="fill: #aec7e8; stroke: #aec7e8"/>
     <use xlink:href="#m7173dacbb8" x="603.314744" y="492.843677" style="fill: #aec7e8; stroke: #aec7e8"/>
     <use xlink:href="#m7173dacbb8" x="632.147413" y="492.910909" style="fill: #aec7e8; stroke: #aec7e8"/>
     <use xlink:href="#m7173dacbb8" x="660.833068" y="492.910909" style="fill: #aec7e8; stroke: #aec7e8"/>
    </g>
   </g>
   <g id="line2d_43">
    <path d="M 63.00125 363.370288 
L 689.30125 363.370288 
" clip-path="url(#p349cd1284d)" style="fill: none; stroke-dasharray: 5.55,2.4; stroke-dashoffset: 0; stroke: #000000; stroke-opacity: 0.5; stroke-width: 1.5"/>
   </g>
   <g id="patch_3">
    <path d="M 63.00125 516.04 
L 63.00125 7.2 
" style="fill: none; stroke: #000000; stroke-width: 0.8; stroke-linejoin: miter; stroke-linecap: square"/>
   </g>
   <g id="patch_4">
    <path d="M 689.30125 516.04 
L 689.30125 7.2 
" style="fill: none; stroke: #000000; stroke-width: 0.8; stroke-linejoin: miter; stroke-linecap: square"/>
   </g>
   <g id="patch_5">
    <path d="M 63.00125 516.04 
L 689.30125 516.04 
" style="fill: none; stroke: #000000; stroke-width: 0.8; stroke-linejoin: miter; stroke-linecap: square"/>
   </g>
   <g id="patch_6">
    <path d="M 63.00125 7.2 
L 689.30125 7.2 
" style="fill: none; stroke: #000000; stroke-width: 0.8; stroke-linejoin: miter; stroke-linecap: square"/>
   </g>
   <g id="legend_1">
    <g id="patch_7">
     <path d="M 731.81625 254.85 
L 843.09375 254.85 
Q 846.29375 254.85 846.29375 251.65 
L 846.29375 18.4 
Q 846.29375 15.2 843.09375 15.2 
L 731.81625 15.2 
Q 728.61625 15.2 728.61625 18.4 
L 728.61625 251.65 
Q 728.61625 254.85 731.81625 254.85 
z
" style="fill: #ffffff; opacity: 0.8; stroke: #cccccc; stroke-linejoin: miter"/>
    </g>
    <g id="line2d_44">
     <path d="M 735.01625 28.1575 
L 751.01625 28.1575 
L 767.01625 28.1575 
" style="fill: none; stroke: #1f77b4; stroke-width: 2; stroke-linecap: square"/>
     <g>
      <use xlink:href="#mc5b7ccea59" x="751.01625" y="28.1575" style="fill: #1f77b4; stroke: #1f77b4"/>
     </g>
    </g>
    <g id="text_19">
     <!-- Miner 0 -->
     <g transform="translate(779.81625 33.7575) scale(0.16 -0.16)">
      <defs>
       <path id="DejaVuSans-4d" d="M 628 4666 
L 1569 4666 
L 2759 1491 
L 3956 4666 
L 4897 4666 
L 4897 0 
L 4281 0 
L 4281 4097 
L 3078 897 
L 2444 897 
L 1241 4097 
L 1241 0 
L 628 0 
L 628 4666 
z
" transform="scale(0.015625)"/>
      </defs>
      <use xlink:href="#DejaVuSans-4d"/>
      <use xlink:href="#DejaVuSans-69" transform="translate(86.279297 0)"/>
      <use xlink:href="#DejaVuSans-6e" transform="translate(114.0625 0)"/>
      <use xlink:href="#DejaVuSans-65" transform="translate(177.441406 0)"/>
      <use xlink:href="#DejaVuSans-72" transform="translate(238.964844 0)"/>
      <use xlink:href="#DejaVuSans-20" transform="translate(280.078125 0)"/>
      <use xlink:href="#DejaVuSans-30" transform="translate(311.865234 0)"/>
     </g>
    </g>
    <g id="line2d_45">
     <path d="M 735.01625 51.6425 
L 751.01625 51.6425 
L 767.01625 51.6425 
" style="fill: none; stroke: #ff7f0e; stroke-width: 2; stroke-linecap: square"/>
     <g>
      <use xlink:href="#m5027ddd9a9" x="751.01625" y="51.6425" style="fill: #ff7f0e; stroke: #ff7f0e"/>
     </g>
    </g>
    <g id="text_20">
     <!-- Miner 1 -->
     <g transform="translate(779.81625 57.2425) scale(0.16 -0.16)">
      <use xlink:href="#DejaVuSans-4d"/>
      <use xlink:href="#DejaVuSans-69" transform="translate(86.279297 0)"/>
      <use xlink:href="#DejaVuSans-6e" transform="translate(114.0625 0)"/>
      <use xlink:href="#DejaVuSans-65" transform="translate(177.441406 0)"/>
      <use xlink:href="#DejaVuSans-72" transform="translate(238.964844 0)"/>
      <use xlink:href="#DejaVuSans-20" transform="translate(280.078125 0)"/>
      <use xlink:href="#DejaVuSans-31" transform="translate(311.865234 0)"/>
     </g>
    </g>
    <g id="line2d_46">
     <path d="M 735.01625 75.1275 
L 751.01625 75.1275 
L 767.01625 75.1275 
" style="fill: none; stroke: #2ca02c; stroke-width: 2; stroke-linecap: square"/>
     <g>
      <use xlink:href="#m53b844101c" x="751.01625" y="75.1275" style="fill: #2ca02c; stroke: #2ca02c"/>
     </g>
    </g>
    <g id="text_21">
     <!-- Miner 2 -->
     <g transform="translate(779.81625 80.7275) scale(0.16 -0.16)">
      <use xlink:href="#DejaVuSans-4d"/>
      <use xlink:href="#DejaVuSans-69" transform="translate(86.279297 0)"/>
      <use xlink:href="#DejaVuSans-6e" transform="translate(114.0625 0)"/>
      <use xlink:href="#DejaVuSans-65" transform="translate(177.441406 0)"/>
      <use xlink:href="#DejaVuSans-72" transform="translate(238.964844 0)"/>
      <use xlink:href="#DejaVuSans-20" transform="translate(280.078125 0)"/>
      <use xlink:href="#DejaVuSans-32" transform="translate(311.865234 0)"/>
     </g>
    </g>
    <g id="line2d_47">
     <path d="M 735.01625 98.6125 
L 751.01625 98.6125 
L 767.01625 98.6125 
" style="fill: none; stroke: #d62728; stroke-width: 2; stroke-linecap: square"/>
     <g>
      <use xlink:href="#mc9e926444a" x="751.01625" y="98.6125" style="fill: #d62728; stroke: #d62728"/>
     </g>
    </g>
    <g id="text_22">
     <!-- Miner 3 -->
     <g transform="translate(779.81625 104.2125) scale(0.16 -0.16)">
      <use xlink:href="#DejaVuSans-4d"/>
      <use xlink:href="#DejaVuSans-69" transform="translate(86.279297 0)"/>
      <use xlink:href="#DejaVuSans-6e" transform="translate(114.0625 0)"/>
      <use xlink:href="#DejaVuSans-65" transform="translate(177.441406 0)"/>
      <use xlink:href="#DejaVuSans-72" transform="translate(238.964844 0)"/>
      <use xlink:href="#DejaVuSans-20" transform="translate(280.078125 0)"/>
      <use xlink:href="#DejaVuSans-33" transform="translate(311.865234 0)"/>
     </g>
    </g>
    <g id="line2d_48">
     <path d="M 735.01625 122.0975 
L 751.01625 122.0975 
L 767.01625 122.0975 
" style="fill: none; stroke: #9467bd; stroke-width: 2; stroke-linecap: square"/>
     <g>
      <use xlink:href="#m2755c23977" x="751.01625" y="122.0975" style="fill: #9467bd; stroke: #9467bd"/>
     </g>
    </g>
    <g id="text_23">
     <!-- Miner 4 -->
     <g transform="translate(779.81625 127.6975) scale(0.16 -0.16)">
      <defs>
       <path id="DejaVuSans-34" d="M 2419 4116 
L 825 1625 
L 2419 1625 
L 2419 4116 
z
M 2253 4666 
L 3047 4666 
L 3047 1625 
L 3713 1625 
L 3713 1100 
L 3047 1100 
L 3047 0 
L 2419 0 
L 2419 1100 
L 313 1100 
L 313 1709 
L 2253 4666 
z
" transform="scale(0.015625)"/>
      </defs>
      <use xlink:href="#DejaVuSans-4d"/>
      <use xlink:href="#DejaVuSans-69" transform="translate(86.279297 0)"/>
      <use xlink:href="#DejaVuSans-6e" transform="translate(114.0625 0)"/>
      <use xlink:href="#DejaVuSans-65" transform="translate(177.441406 0)"/>
      <use xlink:href="#DejaVuSans-72" transform="translate(238.964844 0)"/>
      <use xlink:href="#DejaVuSans-20" transform="translate(280.078125 0)"/>
      <use xlink:href="#DejaVuSans-34" transform="translate(311.865234 0)"/>
     </g>
    </g>
    <g id="line2d_49">
     <path d="M 735.01625 145.5825 
L 751.01625 145.5825 
L 767.01625 145.5825 
" style="fill: none; stroke: #8c564b; stroke-width: 2; stroke-linecap: square"/>
     <g>
      <use xlink:href="#m65555255db" x="751.01625" y="145.5825" style="fill: #8c564b; stroke: #8c564b"/>
     </g>
    </g>
    <g id="text_24">
     <!-- Miner 5 -->
     <g transform="translate(779.81625 151.1825) scale(0.16 -0.16)">
      <use xlink:href="#DejaVuSans-4d"/>
      <use xlink:href="#DejaVuSans-69" transform="translate(86.279297 0)"/>
      <use xlink:href="#DejaVuSans-6e" transform="translate(114.0625 0)"/>
      <use xlink:href="#DejaVuSans-65" transform="translate(177.441406 0)"/>
      <use xlink:href="#DejaVuSans-72" transform="translate(238.964844 0)"/>
      <use xlink:href="#DejaVuSans-20" transform="translate(280.078125 0)"/>
      <use xlink:href="#DejaVuSans-35" transform="translate(311.865234 0)"/>
     </g>
    </g>
    <g id="line2d_50">
     <path d="M 735.01625 169.0675 
L 751.01625 169.0675 
L 767.01625 169.0675 
" style="fill: none; stroke: #e377c2; stroke-width: 2; stroke-linecap: square"/>
     <g>
      <use xlink:href="#meb079f0cff" x="751.01625" y="169.0675" style="fill: #e377c2; stroke: #e377c2"/>
     </g>
    </g>
    <g id="text_25">
     <!-- Miner 6 -->
     <g transform="translate(779.81625 174.6675) scale(0.16 -0.16)">
      <defs>
       <path id="DejaVuSans-36" d="M 2113 2584 
Q 1688 2584 1439 2293 
Q 1191 2003 1191 1497 
Q 1191 994 1439 701 
Q 1688 409 2113 409 
Q 2538 409 2786 701 
Q 3034 994 3034 1497 
Q 3034 2003 2786 2293 
Q 2538 2584 2113 2584 
z
M 3366 4563 
L 3366 3988 
Q 3128 4100 2886 4159 
Q 2644 4219 2406 4219 
Q 1781 4219 1451 3797 
Q 1122 3375 1075 2522 
Q 1259 2794 1537 2939 
Q 1816 3084 2150 3084 
Q 2853 3084 3261 2657 
Q 3669 2231 3669 1497 
Q 3669 778 3244 343 
Q 2819 -91 2113 -91 
Q 1303 -91 875 529 
Q 447 1150 447 2328 
Q 447 3434 972 4092 
Q 1497 4750 2381 4750 
Q 2619 4750 2861 4703 
Q 3103 4656 3366 4563 
z
" transform="scale(0.015625)"/>
      </defs>
      <use xlink:href="#DejaVuSans-4d"/>
      <use xlink:href="#DejaVuSans-69" transform="translate(86.279297 0)"/>
      <use xlink:href="#DejaVuSans-6e" transform="translate(114.0625 0)"/>
      <use xlink:href="#DejaVuSans-65" transform="translate(177.441406 0)"/>
      <use xlink:href="#DejaVuSans-72" transform="translate(238.964844 0)"/>
      <use xlink:href="#DejaVuSans-20" transform="translate(280.078125 0)"/>
      <use xlink:href="#DejaVuSans-36" transform="translate(311.865234 0)"/>
     </g>
    </g>
    <g id="line2d_51">
     <path d="M 735.01625 192.5525 
L 751.01625 192.5525 
L 767.01625 192.5525 
" style="fill: none; stroke: #17becf; stroke-width: 2; stroke-linecap: square"/>
     <g>
      <use xlink:href="#md25ba3b23a" x="751.01625" y="192.5525" style="fill: #17becf; stroke: #17becf"/>
     </g>
    </g>
    <g id="text_26">
     <!-- Miner 7 -->
     <g transform="translate(779.81625 198.1525) scale(0.16 -0.16)">
      <defs>
       <path id="DejaVuSans-37" d="M 525 4666 
L 3525 4666 
L 3525 4397 
L 1831 0 
L 1172 0 
L 2766 4134 
L 525 4134 
L 525 4666 
z
" transform="scale(0.015625)"/>
      </defs>
      <use xlink:href="#DejaVuSans-4d"/>
      <use xlink:href="#DejaVuSans-69" transform="translate(86.279297 0)"/>
      <use xlink:href="#DejaVuSans-6e" transform="translate(114.0625 0)"/>
      <use xlink:href="#DejaVuSans-65" transform="translate(177.441406 0)"/>
      <use xlink:href="#DejaVuSans-72" transform="translate(238.964844 0)"/>
      <use xlink:href="#DejaVuSans-20" transform="translate(280.078125 0)"/>
      <use xlink:href="#DejaVuSans-37" transform="translate(311.865234 0)"/>
     </g>
    </g>
    <g id="line2d_52">
     <path d="M 735.01625 216.0375 
L 751.01625 216.0375 
L 767.01625 216.0375 
" style="fill: none; stroke: #bcbd22; stroke-width: 2; stroke-linecap: square"/>
     <g>
      <use xlink:href="#m40c0ee0016" x="751.01625" y="216.0375" style="fill: #bcbd22; stroke: #bcbd22"/>
     </g>
    </g>
    <g id="text_27">
     <!-- Miner 8 -->
     <g transform="translate(779.81625 221.6375) scale(0.16 -0.16)">
      <defs>
       <path id="DejaVuSans-38" d="M 2034 2216 
Q 1584 2216 1326 1975 
Q 1069 1734 1069 1313 
Q 1069 891 1326 650 
Q 1584 409 2034 409 
Q 2484 409 2743 651 
Q 3003 894 3003 1313 
Q 3003 1734 2745 1975 
Q 2488 2216 2034 2216 
z
M 1403 2484 
Q 997 2584 770 2862 
Q 544 3141 544 3541 
Q 544 4100 942 4425 
Q 1341 4750 2034 4750 
Q 2731 4750 3128 4425 
Q 3525 4100 3525 3541 
Q 3525 3141 3298 2862 
Q 3072 2584 2669 2484 
Q 3125 2378 3379 2068 
Q 3634 1759 3634 1313 
Q 3634 634 3220 271 
Q 2806 -91 2034 -91 
Q 1263 -91 848 271 
Q 434 634 434 1313 
Q 434 1759 690 2068 
Q 947 2378 1403 2484 
z
M 1172 3481 
Q 1172 3119 1398 2916 
Q 1625 2713 2034 2713 
Q 2441 2713 2670 2916 
Q 2900 3119 2900 3481 
Q 2900 3844 2670 4047 
Q 2441 4250 2034 4250 
Q 1625 4250 1398 4047 
Q 1172 3844 1172 3481 
z
" transform="scale(0.015625)"/>
      </defs>
      <use xlink:href="#DejaVuSans-4d"/>
      <use xlink:href="#DejaVuSans-69" transform="translate(86.279297 0)"/>
      <use xlink:href="#DejaVuSans-6e" transform="translate(114.0625 0)"/>
      <use xlink:href="#DejaVuSans-65" transform="translate(177.441406 0)"/>
      <use xlink:href="#DejaVuSans-72" transform="translate(238.964844 0)"/>
      <use xlink:href="#DejaVuSans-20" transform="translate(280.078125 0)"/>
      <use xlink:href="#DejaVuSans-38" transform="translate(311.865234 0)"/>
     </g>
    </g>
    <g id="line2d_53">
     <path d="M 735.01625 239.5225 
L 751.01625 239.5225 
L 767.01625 239.5225 
" style="fill: none; stroke: #aec7e8; stroke-width: 2; stroke-linecap: square"/>
     <g>
      <use xlink:href="#m7173dacbb8" x="751.01625" y="239.5225" style="fill: #aec7e8; stroke: #aec7e8"/>
     </g>
    </g>
    <g id="text_28">
     <!-- Miner 9 -->
     <g transform="translate(779.81625 245.1225) scale(0.16 -0.16)">
      <defs>
       <path id="DejaVuSans-39" d="M 703 97 
L 703 672 
Q 941 559 1184 500 
Q 1428 441 1663 441 
Q 2288 441 2617 861 
Q 2947 1281 2994 2138 
Q 2813 1869 2534 1725 
Q 2256 1581 1919 1581 
Q 1219 1581 811 2004 
Q 403 2428 403 3163 
Q 403 3881 828 4315 
Q 1253 4750 1959 4750 
Q 2769 4750 3195 4129 
Q 3622 3509 3622 2328 
Q 3622 1225 3098 567 
Q 2575 -91 1691 -91 
Q 1453 -91 1209 -44 
Q 966 3 703 97 
z
M 1959 2075 
Q 2384 2075 2632 2365 
Q 2881 2656 2881 3163 
Q 2881 3666 2632 3958 
Q 2384 4250 1959 4250 
Q 1534 4250 1286 3958 
Q 1038 3666 1038 3163 
Q 1038 2656 1286 2365 
Q 1534 2075 1959 2075 
z
" transform="scale(0.015625)"/>
      </defs>
      <use xlink:href="#DejaVuSans-4d"/>
      <use xlink:href="#DejaVuSans-69" transform="translate(86.279297 0)"/>
      <use xlink:href="#DejaVuSans-6e" transform="translate(114.0625 0)"/>
      <use xlink:href="#DejaVuSans-65" transform="translate(177.441406 0)"/>
      <use xlink:href="#DejaVuSans-72" transform="translate(238.964844 0)"/>
      <use xlink:href="#DejaVuSans-20" transform="translate(280.078125 0)"/>
      <use xlink:href="#DejaVuSans-39" transform="translate(311.865234 0)"/>
     </g>
    </g>
   </g>
  </g>
 </g>
 <defs>
  <clipPath id="p349cd1284d">
   <rect x="63.00125" y="7.2" width="626.3" height="508.84"/>
  </clipPath>
 </defs>
</svg>
