<?xml version="1.0" encoding="utf-8" standalone="no"?>
<!DOCTYPE svg PUBLIC "-//W3C//DTD SVG 1.1//EN"
  "http://www.w3.org/Graphics/SVG/1.1/DTD/svg11.dtd">
<svg xmlns:xlink="http://www.w3.org/1999/xlink" width="1080pt" height="576pt" viewBox="0 0 1080 576" xmlns="http://www.w3.org/2000/svg" version="1.1">
 <metadata>
  <rdf:RDF xmlns:dc="http://purl.org/dc/elements/1.1/" xmlns:cc="http://creativecommons.org/ns#" xmlns:rdf="http://www.w3.org/1999/02/22-rdf-syntax-ns#">
   <cc:Work>
    <dc:type rdf:resource="http://purl.org/dc/dcmitype/StillImage"/>
    <dc:date>2025-07-30T12:04:33.736624</dc:date>
    <dc:format>image/svg+xml</dc:format>
    <dc:creator>
     <cc:Agent>
      <dc:title>Matplotlib v3.10.3, https://matplotlib.org/</dc:title>
     </cc:Agent>
    </dc:creator>
   </cc:Work>
  </rdf:RDF>
 </metadata>
 <defs>
  <style type="text/css">*{stroke-linejoin: round; stroke-linecap: butt}</style>
 </defs>
 <g id="figure_1">
  <g id="patch_1">
   <path d="M 0 576 
L 1080 576 
L 1080 0 
L 0 0 
z
" style="fill: #ffffff"/>
  </g>
  <g id="axes_1">
   <g id="patch_2">
    <path d="M 77.16 525.3 
L 1011.84 525.3 
L 1011.84 50.96 
L 77.16 50.96 
z
" style="fill: #ffffff"/>
   </g>
   <g id="matplotlib.axis_1">
    <g id="xtick_1">
     <g id="line2d_1">
      <path d="M 119.636957 525.3 
L 119.636957 50.96 
" clip-path="url(#p9dad2f3c71)" style="fill: none; stroke-dasharray: 1.85,0.8; stroke-dashoffset: 0; stroke: #cccccc; stroke-width: 0.5"/>
     </g>
     <g id="line2d_2"/>
     <g id="text_1">
      <!-- 0 -->
      <g style="fill: #262626" transform="translate(115.183207 539.437813) scale(0.14 -0.14)">
       <defs>
        <path id="DejaVuSans-30" d="M 2034 4250 
Q 1547 4250 1301 3770 
Q 1056 3291 1056 2328 
Q 1056 1369 1301 889 
Q 1547 409 2034 409 
Q 2525 409 2770 889 
Q 3016 1369 3016 2328 
Q 3016 3291 2770 3770 
Q 2525 4250 2034 4250 
z
M 2034 4750 
Q 2819 4750 3233 4129 
Q 3647 3509 3647 2328 
Q 3647 1150 3233 529 
Q 2819 -91 2034 -91 
Q 1250 -91 836 529 
Q 422 1150 422 2328 
Q 422 3509 836 4129 
Q 1250 4750 2034 4750 
z
" transform="scale(0.015625)"/>
       </defs>
       <use xlink:href="#DejaVuSans-30"/>
      </g>
     </g>
    </g>
    <g id="xtick_2">
     <g id="line2d_3">
      <path d="M 289.580475 525.3 
L 289.580475 50.96 
" clip-path="url(#p9dad2f3c71)" style="fill: none; stroke-dasharray: 1.85,0.8; stroke-dashoffset: 0; stroke: #cccccc; stroke-width: 0.5"/>
     </g>
     <g id="line2d_4"/>
     <g id="text_2">
      <!-- 20000 -->
      <g style="fill: #262626" transform="translate(267.311725 539.437813) scale(0.14 -0.14)">
       <defs>
        <path id="DejaVuSans-32" d="M 1228 531 
L 3431 531 
L 3431 0 
L 469 0 
L 469 531 
Q 828 903 1448 1529 
Q 2069 2156 2228 2338 
Q 2531 2678 2651 2914 
Q 2772 3150 2772 3378 
Q 2772 3750 2511 3984 
Q 2250 4219 1831 4219 
Q 1534 4219 1204 4116 
Q 875 4013 500 3803 
L 500 4441 
Q 881 4594 1212 4672 
Q 1544 4750 1819 4750 
Q 2544 4750 2975 4387 
Q 3406 4025 3406 3419 
Q 3406 3131 3298 2873 
Q 3191 2616 2906 2266 
Q 2828 2175 2409 1742 
Q 1991 1309 1228 531 
z
" transform="scale(0.015625)"/>
       </defs>
       <use xlink:href="#DejaVuSans-32"/>
       <use xlink:href="#DejaVuSans-30" transform="translate(63.623047 0)"/>
       <use xlink:href="#DejaVuSans-30" transform="translate(127.246094 0)"/>
       <use xlink:href="#DejaVuSans-30" transform="translate(190.869141 0)"/>
       <use xlink:href="#DejaVuSans-30" transform="translate(254.492188 0)"/>
      </g>
     </g>
    </g>
    <g id="xtick_3">
     <g id="line2d_5">
      <path d="M 459.523993 525.3 
L 459.523993 50.96 
" clip-path="url(#p9dad2f3c71)" style="fill: none; stroke-dasharray: 1.85,0.8; stroke-dashoffset: 0; stroke: #cccccc; stroke-width: 0.5"/>
     </g>
     <g id="line2d_6"/>
     <g id="text_3">
      <!-- 40000 -->
      <g style="fill: #262626" transform="translate(437.255243 539.437813) scale(0.14 -0.14)">
       <defs>
        <path id="DejaVuSans-34" d="M 2419 4116 
L 825 1625 
L 2419 1625 
L 2419 4116 
z
M 2253 4666 
L 3047 4666 
L 3047 1625 
L 3713 1625 
L 3713 1100 
L 3047 1100 
L 3047 0 
L 2419 0 
L 2419 1100 
L 313 1100 
L 313 1709 
L 2253 4666 
z
" transform="scale(0.015625)"/>
       </defs>
       <use xlink:href="#DejaVuSans-34"/>
       <use xlink:href="#DejaVuSans-30" transform="translate(63.623047 0)"/>
       <use xlink:href="#DejaVuSans-30" transform="translate(127.246094 0)"/>
       <use xlink:href="#DejaVuSans-30" transform="translate(190.869141 0)"/>
       <use xlink:href="#DejaVuSans-30" transform="translate(254.492188 0)"/>
      </g>
     </g>
    </g>
    <g id="xtick_4">
     <g id="line2d_7">
      <path d="M 629.46751 525.3 
L 629.46751 50.96 
" clip-path="url(#p9dad2f3c71)" style="fill: none; stroke-dasharray: 1.85,0.8; stroke-dashoffset: 0; stroke: #cccccc; stroke-width: 0.5"/>
     </g>
     <g id="line2d_8"/>
     <g id="text_4">
      <!-- 60000 -->
      <g style="fill: #262626" transform="translate(607.19876 539.437813) scale(0.14 -0.14)">
       <defs>
        <path id="DejaVuSans-36" d="M 2113 2584 
Q 1688 2584 1439 2293 
Q 1191 2003 1191 1497 
Q 1191 994 1439 701 
Q 1688 409 2113 409 
Q 2538 409 2786 701 
Q 3034 994 3034 1497 
Q 3034 2003 2786 2293 
Q 2538 2584 2113 2584 
z
M 3366 4563 
L 3366 3988 
Q 3128 4100 2886 4159 
Q 2644 4219 2406 4219 
Q 1781 4219 1451 3797 
Q 1122 3375 1075 2522 
Q 1259 2794 1537 2939 
Q 1816 3084 2150 3084 
Q 2853 3084 3261 2657 
Q 3669 2231 3669 1497 
Q 3669 778 3244 343 
Q 2819 -91 2113 -91 
Q 1303 -91 875 529 
Q 447 1150 447 2328 
Q 447 3434 972 4092 
Q 1497 4750 2381 4750 
Q 2619 4750 2861 4703 
Q 3103 4656 3366 4563 
z
" transform="scale(0.015625)"/>
       </defs>
       <use xlink:href="#DejaVuSans-36"/>
       <use xlink:href="#DejaVuSans-30" transform="translate(63.623047 0)"/>
       <use xlink:href="#DejaVuSans-30" transform="translate(127.246094 0)"/>
       <use xlink:href="#DejaVuSans-30" transform="translate(190.869141 0)"/>
       <use xlink:href="#DejaVuSans-30" transform="translate(254.492188 0)"/>
      </g>
     </g>
    </g>
    <g id="xtick_5">
     <g id="line2d_9">
      <path d="M 799.411028 525.3 
L 799.411028 50.96 
" clip-path="url(#p9dad2f3c71)" style="fill: none; stroke-dasharray: 1.85,0.8; stroke-dashoffset: 0; stroke: #cccccc; stroke-width: 0.5"/>
     </g>
     <g id="line2d_10"/>
     <g id="text_5">
      <!-- 80000 -->
      <g style="fill: #262626" transform="translate(777.142278 539.437813) scale(0.14 -0.14)">
       <defs>
        <path id="DejaVuSans-38" d="M 2034 2216 
Q 1584 2216 1326 1975 
Q 1069 1734 1069 1313 
Q 1069 891 1326 650 
Q 1584 409 2034 409 
Q 2484 409 2743 651 
Q 3003 894 3003 1313 
Q 3003 1734 2745 1975 
Q 2488 2216 2034 2216 
z
M 1403 2484 
Q 997 2584 770 2862 
Q 544 3141 544 3541 
Q 544 4100 942 4425 
Q 1341 4750 2034 4750 
Q 2731 4750 3128 4425 
Q 3525 4100 3525 3541 
Q 3525 3141 3298 2862 
Q 3072 2584 2669 2484 
Q 3125 2378 3379 2068 
Q 3634 1759 3634 1313 
Q 3634 634 3220 271 
Q 2806 -91 2034 -91 
Q 1263 -91 848 271 
Q 434 634 434 1313 
Q 434 1759 690 2068 
Q 947 2378 1403 2484 
z
M 1172 3481 
Q 1172 3119 1398 2916 
Q 1625 2713 2034 2713 
Q 2441 2713 2670 2916 
Q 2900 3119 2900 3481 
Q 2900 3844 2670 4047 
Q 2441 4250 2034 4250 
Q 1625 4250 1398 4047 
Q 1172 3844 1172 3481 
z
" transform="scale(0.015625)"/>
       </defs>
       <use xlink:href="#DejaVuSans-38"/>
       <use xlink:href="#DejaVuSans-30" transform="translate(63.623047 0)"/>
       <use xlink:href="#DejaVuSans-30" transform="translate(127.246094 0)"/>
       <use xlink:href="#DejaVuSans-30" transform="translate(190.869141 0)"/>
       <use xlink:href="#DejaVuSans-30" transform="translate(254.492188 0)"/>
      </g>
     </g>
    </g>
    <g id="xtick_6">
     <g id="line2d_11">
      <path d="M 969.354545 525.3 
L 969.354545 50.96 
" clip-path="url(#p9dad2f3c71)" style="fill: none; stroke-dasharray: 1.85,0.8; stroke-dashoffset: 0; stroke: #cccccc; stroke-width: 0.5"/>
     </g>
     <g id="line2d_12"/>
     <g id="text_6">
      <!-- 100000 -->
      <g style="fill: #262626" transform="translate(942.632045 539.437813) scale(0.14 -0.14)">
       <defs>
        <path id="DejaVuSans-31" d="M 794 531 
L 1825 531 
L 1825 4091 
L 703 3866 
L 703 4441 
L 1819 4666 
L 2450 4666 
L 2450 531 
L 3481 531 
L 3481 0 
L 794 0 
L 794 531 
z
" transform="scale(0.015625)"/>
       </defs>
       <use xlink:href="#DejaVuSans-31"/>
       <use xlink:href="#DejaVuSans-30" transform="translate(63.623047 0)"/>
       <use xlink:href="#DejaVuSans-30" transform="translate(127.246094 0)"/>
       <use xlink:href="#DejaVuSans-30" transform="translate(190.869141 0)"/>
       <use xlink:href="#DejaVuSans-30" transform="translate(254.492188 0)"/>
       <use xlink:href="#DejaVuSans-30" transform="translate(318.115234 0)"/>
      </g>
     </g>
    </g>
    <g id="text_7">
     <!-- Block Number -->
     <g style="fill: #262626" transform="translate(488.1825 558.506875) scale(0.16 -0.16)">
      <defs>
       <path id="DejaVuSans-42" d="M 1259 2228 
L 1259 519 
L 2272 519 
Q 2781 519 3026 730 
Q 3272 941 3272 1375 
Q 3272 1813 3026 2020 
Q 2781 2228 2272 2228 
L 1259 2228 
z
M 1259 4147 
L 1259 2741 
L 2194 2741 
Q 2656 2741 2882 2914 
Q 3109 3088 3109 3444 
Q 3109 3797 2882 3972 
Q 2656 4147 2194 4147 
L 1259 4147 
z
M 628 4666 
L 2241 4666 
Q 2963 4666 3353 4366 
Q 3744 4066 3744 3513 
Q 3744 3084 3544 2831 
Q 3344 2578 2956 2516 
Q 3422 2416 3680 2098 
Q 3938 1781 3938 1306 
Q 3938 681 3513 340 
Q 3088 0 2303 0 
L 628 0 
L 628 4666 
z
" transform="scale(0.015625)"/>
       <path id="DejaVuSans-6c" d="M 603 4863 
L 1178 4863 
L 1178 0 
L 603 0 
L 603 4863 
z
" transform="scale(0.015625)"/>
       <path id="DejaVuSans-6f" d="M 1959 3097 
Q 1497 3097 1228 2736 
Q 959 2375 959 1747 
Q 959 1119 1226 758 
Q 1494 397 1959 397 
Q 2419 397 2687 759 
Q 2956 1122 2956 1747 
Q 2956 2369 2687 2733 
Q 2419 3097 1959 3097 
z
M 1959 3584 
Q 2709 3584 3137 3096 
Q 3566 2609 3566 1747 
Q 3566 888 3137 398 
Q 2709 -91 1959 -91 
Q 1206 -91 779 398 
Q 353 888 353 1747 
Q 353 2609 779 3096 
Q 1206 3584 1959 3584 
z
" transform="scale(0.015625)"/>
       <path id="DejaVuSans-63" d="M 3122 3366 
L 3122 2828 
Q 2878 2963 2633 3030 
Q 2388 3097 2138 3097 
Q 1578 3097 1268 2742 
Q 959 2388 959 1747 
Q 959 1106 1268 751 
Q 1578 397 2138 397 
Q 2388 397 2633 464 
Q 2878 531 3122 666 
L 3122 134 
Q 2881 22 2623 -34 
Q 2366 -91 2075 -91 
Q 1284 -91 818 406 
Q 353 903 353 1747 
Q 353 2603 823 3093 
Q 1294 3584 2113 3584 
Q 2378 3584 2631 3529 
Q 2884 3475 3122 3366 
z
" transform="scale(0.015625)"/>
       <path id="DejaVuSans-6b" d="M 581 4863 
L 1159 4863 
L 1159 1991 
L 2875 3500 
L 3609 3500 
L 1753 1863 
L 3688 0 
L 2938 0 
L 1159 1709 
L 1159 0 
L 581 0 
L 581 4863 
z
" transform="scale(0.015625)"/>
       <path id="DejaVuSans-20" transform="scale(0.015625)"/>
       <path id="DejaVuSans-4e" d="M 628 4666 
L 1478 4666 
L 3547 763 
L 3547 4666 
L 4159 4666 
L 4159 0 
L 3309 0 
L 1241 3903 
L 1241 0 
L 628 0 
L 628 4666 
z
" transform="scale(0.015625)"/>
       <path id="DejaVuSans-75" d="M 544 1381 
L 544 3500 
L 1119 3500 
L 1119 1403 
Q 1119 906 1312 657 
Q 1506 409 1894 409 
Q 2359 409 2629 706 
Q 2900 1003 2900 1516 
L 2900 3500 
L 3475 3500 
L 3475 0 
L 2900 0 
L 2900 538 
Q 2691 219 2414 64 
Q 2138 -91 1772 -91 
Q 1169 -91 856 284 
Q 544 659 544 1381 
z
M 1991 3584 
L 1991 3584 
z
" transform="scale(0.015625)"/>
       <path id="DejaVuSans-6d" d="M 3328 2828 
Q 3544 3216 3844 3400 
Q 4144 3584 4550 3584 
Q 5097 3584 5394 3201 
Q 5691 2819 5691 2113 
L 5691 0 
L 5113 0 
L 5113 2094 
Q 5113 2597 4934 2840 
Q 4756 3084 4391 3084 
Q 3944 3084 3684 2787 
Q 3425 2491 3425 1978 
L 3425 0 
L 2847 0 
L 2847 2094 
Q 2847 2600 2669 2842 
Q 2491 3084 2119 3084 
Q 1678 3084 1418 2786 
Q 1159 2488 1159 1978 
L 1159 0 
L 581 0 
L 581 3500 
L 1159 3500 
L 1159 2956 
Q 1356 3278 1631 3431 
Q 1906 3584 2284 3584 
Q 2666 3584 2933 3390 
Q 3200 3197 3328 2828 
z
" transform="scale(0.015625)"/>
       <path id="DejaVuSans-62" d="M 3116 1747 
Q 3116 2381 2855 2742 
Q 2594 3103 2138 3103 
Q 1681 3103 1420 2742 
Q 1159 2381 1159 1747 
Q 1159 1113 1420 752 
Q 1681 391 2138 391 
Q 2594 391 2855 752 
Q 3116 1113 3116 1747 
z
M 1159 2969 
Q 1341 3281 1617 3432 
Q 1894 3584 2278 3584 
Q 2916 3584 3314 3078 
Q 3713 2572 3713 1747 
Q 3713 922 3314 415 
Q 2916 -91 2278 -91 
Q 1894 -91 1617 61 
Q 1341 213 1159 525 
L 1159 0 
L 581 0 
L 581 4863 
L 1159 4863 
L 1159 2969 
z
" transform="scale(0.015625)"/>
       <path id="DejaVuSans-65" d="M 3597 1894 
L 3597 1613 
L 953 1613 
Q 991 1019 1311 708 
Q 1631 397 2203 397 
Q 2534 397 2845 478 
Q 3156 559 3463 722 
L 3463 178 
Q 3153 47 2828 -22 
Q 2503 -91 2169 -91 
Q 1331 -91 842 396 
Q 353 884 353 1716 
Q 353 2575 817 3079 
Q 1281 3584 2069 3584 
Q 2775 3584 3186 3129 
Q 3597 2675 3597 1894 
z
M 3022 2063 
Q 3016 2534 2758 2815 
Q 2500 3097 2075 3097 
Q 1594 3097 1305 2825 
Q 1016 2553 972 2059 
L 3022 2063 
z
" transform="scale(0.015625)"/>
       <path id="DejaVuSans-72" d="M 2631 2963 
Q 2534 3019 2420 3045 
Q 2306 3072 2169 3072 
Q 1681 3072 1420 2755 
Q 1159 2438 1159 1844 
L 1159 0 
L 581 0 
L 581 3500 
L 1159 3500 
L 1159 2956 
Q 1341 3275 1631 3429 
Q 1922 3584 2338 3584 
Q 2397 3584 2469 3576 
Q 2541 3569 2628 3553 
L 2631 2963 
z
" transform="scale(0.015625)"/>
      </defs>
      <use xlink:href="#DejaVuSans-42"/>
      <use xlink:href="#DejaVuSans-6c" transform="translate(68.603516 0)"/>
      <use xlink:href="#DejaVuSans-6f" transform="translate(96.386719 0)"/>
      <use xlink:href="#DejaVuSans-63" transform="translate(157.568359 0)"/>
      <use xlink:href="#DejaVuSans-6b" transform="translate(212.548828 0)"/>
      <use xlink:href="#DejaVuSans-20" transform="translate(270.458984 0)"/>
      <use xlink:href="#DejaVuSans-4e" transform="translate(302.246094 0)"/>
      <use xlink:href="#DejaVuSans-75" transform="translate(377.050781 0)"/>
      <use xlink:href="#DejaVuSans-6d" transform="translate(440.429688 0)"/>
      <use xlink:href="#DejaVuSans-62" transform="translate(537.841797 0)"/>
      <use xlink:href="#DejaVuSans-65" transform="translate(601.318359 0)"/>
      <use xlink:href="#DejaVuSans-72" transform="translate(662.841797 0)"/>
     </g>
    </g>
   </g>
   <g id="matplotlib.axis_2">
    <g id="ytick_1">
     <g id="line2d_13">
      <path d="M 77.16 472.537775 
L 1011.84 472.537775 
" clip-path="url(#p9dad2f3c71)" style="fill: none; stroke-dasharray: 1.85,0.8; stroke-dashoffset: 0; stroke: #cccccc; stroke-width: 0.5"/>
     </g>
     <g id="line2d_14"/>
     <g id="text_8">
      <!-- 0.995 -->
      <g style="fill: #000080" transform="translate(33.580625 477.856682) scale(0.14 -0.14)">
       <defs>
        <path id="DejaVuSans-2e" d="M 684 794 
L 1344 794 
L 1344 0 
L 684 0 
L 684 794 
z
" transform="scale(0.015625)"/>
        <path id="DejaVuSans-39" d="M 703 97 
L 703 672 
Q 941 559 1184 500 
Q 1428 441 1663 441 
Q 2288 441 2617 861 
Q 2947 1281 2994 2138 
Q 2813 1869 2534 1725 
Q 2256 1581 1919 1581 
Q 1219 1581 811 2004 
Q 403 2428 403 3163 
Q 403 3881 828 4315 
Q 1253 4750 1959 4750 
Q 2769 4750 3195 4129 
Q 3622 3509 3622 2328 
Q 3622 1225 3098 567 
Q 2575 -91 1691 -91 
Q 1453 -91 1209 -44 
Q 966 3 703 97 
z
M 1959 2075 
Q 2384 2075 2632 2365 
Q 2881 2656 2881 3163 
Q 2881 3666 2632 3958 
Q 2384 4250 1959 4250 
Q 1534 4250 1286 3958 
Q 1038 3666 1038 3163 
Q 1038 2656 1286 2365 
Q 1534 2075 1959 2075 
z
" transform="scale(0.015625)"/>
        <path id="DejaVuSans-35" d="M 691 4666 
L 3169 4666 
L 3169 4134 
L 1269 4134 
L 1269 2991 
Q 1406 3038 1543 3061 
Q 1681 3084 1819 3084 
Q 2600 3084 3056 2656 
Q 3513 2228 3513 1497 
Q 3513 744 3044 326 
Q 2575 -91 1722 -91 
Q 1428 -91 1123 -41 
Q 819 9 494 109 
L 494 744 
Q 775 591 1075 516 
Q 1375 441 1709 441 
Q 2250 441 2565 725 
Q 2881 1009 2881 1497 
Q 2881 1984 2565 2268 
Q 2250 2553 1709 2553 
Q 1456 2553 1204 2497 
Q 953 2441 691 2322 
L 691 4666 
z
" transform="scale(0.015625)"/>
       </defs>
       <use xlink:href="#DejaVuSans-30"/>
       <use xlink:href="#DejaVuSans-2e" transform="translate(63.623047 0)"/>
       <use xlink:href="#DejaVuSans-39" transform="translate(95.410156 0)"/>
       <use xlink:href="#DejaVuSans-39" transform="translate(159.033203 0)"/>
       <use xlink:href="#DejaVuSans-35" transform="translate(222.65625 0)"/>
      </g>
     </g>
    </g>
    <g id="ytick_2">
     <g id="line2d_15">
      <path d="M 77.16 392.534402 
L 1011.84 392.534402 
" clip-path="url(#p9dad2f3c71)" style="fill: none; stroke-dasharray: 1.85,0.8; stroke-dashoffset: 0; stroke: #cccccc; stroke-width: 0.5"/>
     </g>
     <g id="line2d_16"/>
     <g id="text_9">
      <!-- 0.996 -->
      <g style="fill: #000080" transform="translate(33.580625 397.853308) scale(0.14 -0.14)">
       <use xlink:href="#DejaVuSans-30"/>
       <use xlink:href="#DejaVuSans-2e" transform="translate(63.623047 0)"/>
       <use xlink:href="#DejaVuSans-39" transform="translate(95.410156 0)"/>
       <use xlink:href="#DejaVuSans-39" transform="translate(159.033203 0)"/>
       <use xlink:href="#DejaVuSans-36" transform="translate(222.65625 0)"/>
      </g>
     </g>
    </g>
    <g id="ytick_3">
     <g id="line2d_17">
      <path d="M 77.16 312.531029 
L 1011.84 312.531029 
" clip-path="url(#p9dad2f3c71)" style="fill: none; stroke-dasharray: 1.85,0.8; stroke-dashoffset: 0; stroke: #cccccc; stroke-width: 0.5"/>
     </g>
     <g id="line2d_18"/>
     <g id="text_10">
      <!-- 0.997 -->
      <g style="fill: #000080" transform="translate(33.580625 317.849935) scale(0.14 -0.14)">
       <defs>
        <path id="DejaVuSans-37" d="M 525 4666 
L 3525 4666 
L 3525 4397 
L 1831 0 
L 1172 0 
L 2766 4134 
L 525 4134 
L 525 4666 
z
" transform="scale(0.015625)"/>
       </defs>
       <use xlink:href="#DejaVuSans-30"/>
       <use xlink:href="#DejaVuSans-2e" transform="translate(63.623047 0)"/>
       <use xlink:href="#DejaVuSans-39" transform="translate(95.410156 0)"/>
       <use xlink:href="#DejaVuSans-39" transform="translate(159.033203 0)"/>
       <use xlink:href="#DejaVuSans-37" transform="translate(222.65625 0)"/>
      </g>
     </g>
    </g>
    <g id="ytick_4">
     <g id="line2d_19">
      <path d="M 77.16 232.527656 
L 1011.84 232.527656 
" clip-path="url(#p9dad2f3c71)" style="fill: none; stroke-dasharray: 1.85,0.8; stroke-dashoffset: 0; stroke: #cccccc; stroke-width: 0.5"/>
     </g>
     <g id="line2d_20"/>
     <g id="text_11">
      <!-- 0.998 -->
      <g style="fill: #000080" transform="translate(33.580625 237.846562) scale(0.14 -0.14)">
       <use xlink:href="#DejaVuSans-30"/>
       <use xlink:href="#DejaVuSans-2e" transform="translate(63.623047 0)"/>
       <use xlink:href="#DejaVuSans-39" transform="translate(95.410156 0)"/>
       <use xlink:href="#DejaVuSans-39" transform="translate(159.033203 0)"/>
       <use xlink:href="#DejaVuSans-38" transform="translate(222.65625 0)"/>
      </g>
     </g>
    </g>
    <g id="ytick_5">
     <g id="line2d_21">
      <path d="M 77.16 152.524282 
L 1011.84 152.524282 
" clip-path="url(#p9dad2f3c71)" style="fill: none; stroke-dasharray: 1.85,0.8; stroke-dashoffset: 0; stroke: #cccccc; stroke-width: 0.5"/>
     </g>
     <g id="line2d_22"/>
     <g id="text_12">
      <!-- 0.999 -->
      <g style="fill: #000080" transform="translate(33.580625 157.843189) scale(0.14 -0.14)">
       <use xlink:href="#DejaVuSans-30"/>
       <use xlink:href="#DejaVuSans-2e" transform="translate(63.623047 0)"/>
       <use xlink:href="#DejaVuSans-39" transform="translate(95.410156 0)"/>
       <use xlink:href="#DejaVuSans-39" transform="translate(159.033203 0)"/>
       <use xlink:href="#DejaVuSans-39" transform="translate(222.65625 0)"/>
      </g>
     </g>
    </g>
    <g id="ytick_6">
     <g id="line2d_23">
      <path d="M 77.16 72.520909 
L 1011.84 72.520909 
" clip-path="url(#p9dad2f3c71)" style="fill: none; stroke-dasharray: 1.85,0.8; stroke-dashoffset: 0; stroke: #cccccc; stroke-width: 0.5"/>
     </g>
     <g id="line2d_24"/>
     <g id="text_13">
      <!-- 1.000 -->
      <g style="fill: #000080" transform="translate(33.580625 77.839815) scale(0.14 -0.14)">
       <use xlink:href="#DejaVuSans-31"/>
       <use xlink:href="#DejaVuSans-2e" transform="translate(63.623047 0)"/>
       <use xlink:href="#DejaVuSans-30" transform="translate(95.410156 0)"/>
       <use xlink:href="#DejaVuSans-30" transform="translate(159.033203 0)"/>
       <use xlink:href="#DejaVuSans-30" transform="translate(222.65625 0)"/>
      </g>
     </g>
    </g>
    <g id="text_14">
     <!-- Highest-Hashrate Node's Mining Share -->
     <g style="fill: #000080" transform="translate(26.253125 442.56) rotate(-90) scale(0.16 -0.16)">
      <defs>
       <path id="DejaVuSans-48" d="M 628 4666 
L 1259 4666 
L 1259 2753 
L 3553 2753 
L 3553 4666 
L 4184 4666 
L 4184 0 
L 3553 0 
L 3553 2222 
L 1259 2222 
L 1259 0 
L 628 0 
L 628 4666 
z
" transform="scale(0.015625)"/>
       <path id="DejaVuSans-69" d="M 603 3500 
L 1178 3500 
L 1178 0 
L 603 0 
L 603 3500 
z
M 603 4863 
L 1178 4863 
L 1178 4134 
L 603 4134 
L 603 4863 
z
" transform="scale(0.015625)"/>
       <path id="DejaVuSans-67" d="M 2906 1791 
Q 2906 2416 2648 2759 
Q 2391 3103 1925 3103 
Q 1463 3103 1205 2759 
Q 947 2416 947 1791 
Q 947 1169 1205 825 
Q 1463 481 1925 481 
Q 2391 481 2648 825 
Q 2906 1169 2906 1791 
z
M 3481 434 
Q 3481 -459 3084 -895 
Q 2688 -1331 1869 -1331 
Q 1566 -1331 1297 -1286 
Q 1028 -1241 775 -1147 
L 775 -588 
Q 1028 -725 1275 -790 
Q 1522 -856 1778 -856 
Q 2344 -856 2625 -561 
Q 2906 -266 2906 331 
L 2906 616 
Q 2728 306 2450 153 
Q 2172 0 1784 0 
Q 1141 0 747 490 
Q 353 981 353 1791 
Q 353 2603 747 3093 
Q 1141 3584 1784 3584 
Q 2172 3584 2450 3431 
Q 2728 3278 2906 2969 
L 2906 3500 
L 3481 3500 
L 3481 434 
z
" transform="scale(0.015625)"/>
       <path id="DejaVuSans-68" d="M 3513 2113 
L 3513 0 
L 2938 0 
L 2938 2094 
Q 2938 2591 2744 2837 
Q 2550 3084 2163 3084 
Q 1697 3084 1428 2787 
Q 1159 2491 1159 1978 
L 1159 0 
L 581 0 
L 581 4863 
L 1159 4863 
L 1159 2956 
Q 1366 3272 1645 3428 
Q 1925 3584 2291 3584 
Q 2894 3584 3203 3211 
Q 3513 2838 3513 2113 
z
" transform="scale(0.015625)"/>
       <path id="DejaVuSans-73" d="M 2834 3397 
L 2834 2853 
Q 2591 2978 2328 3040 
Q 2066 3103 1784 3103 
Q 1356 3103 1142 2972 
Q 928 2841 928 2578 
Q 928 2378 1081 2264 
Q 1234 2150 1697 2047 
L 1894 2003 
Q 2506 1872 2764 1633 
Q 3022 1394 3022 966 
Q 3022 478 2636 193 
Q 2250 -91 1575 -91 
Q 1294 -91 989 -36 
Q 684 19 347 128 
L 347 722 
Q 666 556 975 473 
Q 1284 391 1588 391 
Q 1994 391 2212 530 
Q 2431 669 2431 922 
Q 2431 1156 2273 1281 
Q 2116 1406 1581 1522 
L 1381 1569 
Q 847 1681 609 1914 
Q 372 2147 372 2553 
Q 372 3047 722 3315 
Q 1072 3584 1716 3584 
Q 2034 3584 2315 3537 
Q 2597 3491 2834 3397 
z
" transform="scale(0.015625)"/>
       <path id="DejaVuSans-74" d="M 1172 4494 
L 1172 3500 
L 2356 3500 
L 2356 3053 
L 1172 3053 
L 1172 1153 
Q 1172 725 1289 603 
Q 1406 481 1766 481 
L 2356 481 
L 2356 0 
L 1766 0 
Q 1100 0 847 248 
Q 594 497 594 1153 
L 594 3053 
L 172 3053 
L 172 3500 
L 594 3500 
L 594 4494 
L 1172 4494 
z
" transform="scale(0.015625)"/>
       <path id="DejaVuSans-2d" d="M 313 2009 
L 1997 2009 
L 1997 1497 
L 313 1497 
L 313 2009 
z
" transform="scale(0.015625)"/>
       <path id="DejaVuSans-61" d="M 2194 1759 
Q 1497 1759 1228 1600 
Q 959 1441 959 1056 
Q 959 750 1161 570 
Q 1363 391 1709 391 
Q 2188 391 2477 730 
Q 2766 1069 2766 1631 
L 2766 1759 
L 2194 1759 
z
M 3341 1997 
L 3341 0 
L 2766 0 
L 2766 531 
Q 2569 213 2275 61 
Q 1981 -91 1556 -91 
Q 1019 -91 701 211 
Q 384 513 384 1019 
Q 384 1609 779 1909 
Q 1175 2209 1959 2209 
L 2766 2209 
L 2766 2266 
Q 2766 2663 2505 2880 
Q 2244 3097 1772 3097 
Q 1472 3097 1187 3025 
Q 903 2953 641 2809 
L 641 3341 
Q 956 3463 1253 3523 
Q 1550 3584 1831 3584 
Q 2591 3584 2966 3190 
Q 3341 2797 3341 1997 
z
" transform="scale(0.015625)"/>
       <path id="DejaVuSans-64" d="M 2906 2969 
L 2906 4863 
L 3481 4863 
L 3481 0 
L 2906 0 
L 2906 525 
Q 2725 213 2448 61 
Q 2172 -91 1784 -91 
Q 1150 -91 751 415 
Q 353 922 353 1747 
Q 353 2572 751 3078 
Q 1150 3584 1784 3584 
Q 2172 3584 2448 3432 
Q 2725 3281 2906 2969 
z
M 947 1747 
Q 947 1113 1208 752 
Q 1469 391 1925 391 
Q 2381 391 2643 752 
Q 2906 1113 2906 1747 
Q 2906 2381 2643 2742 
Q 2381 3103 1925 3103 
Q 1469 3103 1208 2742 
Q 947 2381 947 1747 
z
" transform="scale(0.015625)"/>
       <path id="DejaVuSans-27" d="M 1147 4666 
L 1147 2931 
L 616 2931 
L 616 4666 
L 1147 4666 
z
" transform="scale(0.015625)"/>
       <path id="DejaVuSans-4d" d="M 628 4666 
L 1569 4666 
L 2759 1491 
L 3956 4666 
L 4897 4666 
L 4897 0 
L 4281 0 
L 4281 4097 
L 3078 897 
L 2444 897 
L 1241 4097 
L 1241 0 
L 628 0 
L 628 4666 
z
" transform="scale(0.015625)"/>
       <path id="DejaVuSans-6e" d="M 3513 2113 
L 3513 0 
L 2938 0 
L 2938 2094 
Q 2938 2591 2744 2837 
Q 2550 3084 2163 3084 
Q 1697 3084 1428 2787 
Q 1159 2491 1159 1978 
L 1159 0 
L 581 0 
L 581 3500 
L 1159 3500 
L 1159 2956 
Q 1366 3272 1645 3428 
Q 1925 3584 2291 3584 
Q 2894 3584 3203 3211 
Q 3513 2838 3513 2113 
z
" transform="scale(0.015625)"/>
       <path id="DejaVuSans-53" d="M 3425 4513 
L 3425 3897 
Q 3066 4069 2747 4153 
Q 2428 4238 2131 4238 
Q 1616 4238 1336 4038 
Q 1056 3838 1056 3469 
Q 1056 3159 1242 3001 
Q 1428 2844 1947 2747 
L 2328 2669 
Q 3034 2534 3370 2195 
Q 3706 1856 3706 1288 
Q 3706 609 3251 259 
Q 2797 -91 1919 -91 
Q 1588 -91 1214 -16 
Q 841 59 441 206 
L 441 856 
Q 825 641 1194 531 
Q 1563 422 1919 422 
Q 2459 422 2753 634 
Q 3047 847 3047 1241 
Q 3047 1584 2836 1778 
Q 2625 1972 2144 2069 
L 1759 2144 
Q 1053 2284 737 2584 
Q 422 2884 422 3419 
Q 422 4038 858 4394 
Q 1294 4750 2059 4750 
Q 2388 4750 2728 4690 
Q 3069 4631 3425 4513 
z
" transform="scale(0.015625)"/>
      </defs>
      <use xlink:href="#DejaVuSans-48"/>
      <use xlink:href="#DejaVuSans-69" transform="translate(75.195312 0)"/>
      <use xlink:href="#DejaVuSans-67" transform="translate(102.978516 0)"/>
      <use xlink:href="#DejaVuSans-68" transform="translate(166.455078 0)"/>
      <use xlink:href="#DejaVuSans-65" transform="translate(229.833984 0)"/>
      <use xlink:href="#DejaVuSans-73" transform="translate(291.357422 0)"/>
      <use xlink:href="#DejaVuSans-74" transform="translate(343.457031 0)"/>
      <use xlink:href="#DejaVuSans-2d" transform="translate(382.666016 0)"/>
      <use xlink:href="#DejaVuSans-48" transform="translate(418.75 0)"/>
      <use xlink:href="#DejaVuSans-61" transform="translate(493.945312 0)"/>
      <use xlink:href="#DejaVuSans-73" transform="translate(555.224609 0)"/>
      <use xlink:href="#DejaVuSans-68" transform="translate(607.324219 0)"/>
      <use xlink:href="#DejaVuSans-72" transform="translate(670.703125 0)"/>
      <use xlink:href="#DejaVuSans-61" transform="translate(711.816406 0)"/>
      <use xlink:href="#DejaVuSans-74" transform="translate(773.095703 0)"/>
      <use xlink:href="#DejaVuSans-65" transform="translate(812.304688 0)"/>
      <use xlink:href="#DejaVuSans-20" transform="translate(873.828125 0)"/>
      <use xlink:href="#DejaVuSans-4e" transform="translate(905.615234 0)"/>
      <use xlink:href="#DejaVuSans-6f" transform="translate(980.419922 0)"/>
      <use xlink:href="#DejaVuSans-64" transform="translate(1041.601562 0)"/>
      <use xlink:href="#DejaVuSans-65" transform="translate(1105.078125 0)"/>
      <use xlink:href="#DejaVuSans-27" transform="translate(1166.601562 0)"/>
      <use xlink:href="#DejaVuSans-73" transform="translate(1194.091797 0)"/>
      <use xlink:href="#DejaVuSans-20" transform="translate(1246.191406 0)"/>
      <use xlink:href="#DejaVuSans-4d" transform="translate(1277.978516 0)"/>
      <use xlink:href="#DejaVuSans-69" transform="translate(1364.257812 0)"/>
      <use xlink:href="#DejaVuSans-6e" transform="translate(1392.041016 0)"/>
      <use xlink:href="#DejaVuSans-69" transform="translate(1455.419922 0)"/>
      <use xlink:href="#DejaVuSans-6e" transform="translate(1483.203125 0)"/>
      <use xlink:href="#DejaVuSans-67" transform="translate(1546.582031 0)"/>
      <use xlink:href="#DejaVuSans-20" transform="translate(1610.058594 0)"/>
      <use xlink:href="#DejaVuSans-53" transform="translate(1641.845703 0)"/>
      <use xlink:href="#DejaVuSans-68" transform="translate(1705.322266 0)"/>
      <use xlink:href="#DejaVuSans-61" transform="translate(1768.701172 0)"/>
      <use xlink:href="#DejaVuSans-72" transform="translate(1829.980469 0)"/>
      <use xlink:href="#DejaVuSans-65" transform="translate(1868.84375 0)"/>
     </g>
    </g>
   </g>
   <g id="line2d_25">
    <path d="M 119.645455 72.520909 
L 124.344393 72.520909 
L 124.361387 503.739091 
L 124.454856 72.520909 
L 125.822901 72.520909 
L 125.831399 291.730152 
L 125.933365 72.520909 
L 127.57332 72.520909 
L 127.581817 243.728128 
L 127.683783 72.520909 
L 134.337072 72.520909 
L 134.345569 164.524788 
L 134.447535 72.520909 
L 141.517185 72.520909 
L 141.53418 196.526138 
L 141.627649 72.520909 
L 142.366903 72.520909 
L 142.3754 132.523439 
L 142.477366 72.520909 
L 143.361072 72.520909 
L 143.36957 186.925733 
L 143.471536 72.520909 
L 145.570338 72.520909 
L 145.578835 124.523102 
L 145.680801 72.520909 
L 151.407898 72.520909 
L 151.424892 136.523608 
L 151.518361 72.520909 
L 153.319763 72.520909 
L 153.32826 133.323473 
L 153.430226 72.520909 
L 156.769616 72.520909 
L 156.778113 109.322461 
L 156.880079 72.520909 
L 160.312938 72.520909 
L 160.321435 106.122326 
L 160.423402 72.520909 
L 170.17816 72.520909 
L 170.186657 99.722056 
L 170.288623 72.520909 
L 171.996555 72.520909 
L 172.005052 98.121989 
L 172.107018 72.520909 
L 178.649844 72.520909 
L 178.768804 130.123338 
L 178.887765 72.520909 
L 179.941415 72.520909 
L 179.949912 106.122326 
L 180.051878 72.520909 
L 182.618025 72.520909 
L 182.626522 94.12182 
L 182.728488 72.520909 
L 184.181505 72.520909 
L 184.190003 93.321786 
L 184.291969 72.520909 
L 187.401935 72.520909 
L 187.53789 92.521752 
L 188.999404 92.521752 
L 189.118365 91.721719 
L 190.630862 91.721719 
L 190.749822 120.522933 
L 191.038726 120.522933 
L 191.157687 119.722899 
L 191.242659 119.722899 
L 191.251156 138.923709 
L 191.353122 119.722899 
L 192.26232 119.722899 
L 192.38128 118.922866 
L 193.519902 118.922866 
L 193.638862 118.122832 
L 193.842794 118.122832 
L 193.851292 154.924384 
L 193.953258 118.122832 
L 194.15719 118.122832 
L 194.165687 136.523608 
L 194.267653 118.122832 
L 194.828467 118.122832 
L 194.947427 117.322798 
L 195.899111 117.322798 
L 195.907608 170.925058 
L 196.009574 117.322798 
L 196.188015 117.322798 
L 196.306975 116.522764 
L 197.590049 116.522764 
L 197.709009 115.722731 
L 199.043066 115.722731 
L 199.162026 114.922697 
L 200.555563 114.922697 
L 200.674524 114.122663 
L 202.00858 114.122663 
L 202.017078 130.123338 
L 202.119044 114.122663 
L 202.127541 114.122663 
L 202.246501 113.322629 
L 203.266162 113.322629 
L 203.27466 145.323979 
L 203.376626 113.322629 
L 203.758999 113.322629 
L 203.877959 112.522596 
L 205.466931 112.522596 
L 205.585891 111.722562 
L 207.234344 111.722562 
L 207.353304 110.922528 
L 209.078231 110.922528 
L 209.197191 110.122495 
L 210.998592 110.122495 
L 211.117553 109.322461 
L 212.808491 109.322461 
L 212.927451 130.923372 
L 213.394796 130.923372 
L 213.513757 130.123338 
L 214.703361 130.123338 
L 214.822322 129.323304 
L 216.054412 129.323304 
L 216.173373 128.52327 
L 217.41396 128.52327 
L 217.422457 149.324147 
L 217.447949 127.723237 
L 217.524424 127.723237 
L 218.866977 127.723237 
L 218.985938 126.923203 
L 220.336989 126.923203 
L 220.455949 126.123169 
L 221.857983 126.123169 
L 221.976944 125.323135 
L 223.412966 125.323135 
L 223.531927 124.523102 
L 224.118232 124.523102 
L 224.126729 137.323641 
L 224.228695 124.523102 
L 225.02743 124.523102 
L 225.14639 123.723068 
L 226.684379 123.723068 
L 226.80334 122.923034 
L 226.973283 122.923034 
L 226.998775 148.524114 
L 227.083746 122.923034 
L 228.392311 122.923034 
L 228.511272 122.123001 
L 230.168221 122.123001 
L 230.287182 121.322967 
L 231.995114 121.322967 
L 232.114075 120.522933 
L 232.385984 120.522933 
L 232.419973 150.924215 
L 232.513442 126.923203 
L 232.929803 126.923203 
L 233.048764 126.123169 
L 234.629239 126.123169 
L 234.748199 125.323135 
L 236.388154 125.323135 
L 236.507114 124.523102 
L 238.198052 124.523102 
L 238.317013 123.723068 
L 240.016448 123.723068 
L 240.033442 151.724249 
L 240.126911 134.92354 
L 240.237375 134.92354 
L 240.356335 134.123506 
L 241.817849 134.123506 
L 241.93681 133.323473 
L 242.582595 133.323473 
L 242.591092 144.523945 
L 242.693058 133.323473 
L 243.389827 133.323473 
L 243.398324 154.924384 
L 243.44081 132.523439 
L 243.50029 132.523439 
L 245.097759 132.523439 
L 245.21672 131.723405 
L 246.797194 131.723405 
L 246.916155 130.923372 
L 247.391997 130.923372 
L 247.400494 141.32381 
L 247.50246 130.923372 
L 248.55611 130.923372 
L 248.67507 130.123338 
L 250.357511 130.123338 
L 250.476472 129.323304 
L 252.209895 129.323304 
L 252.328856 128.52327 
L 252.515794 128.52327 
L 252.643251 138.923709 
L 253.526958 138.923709 
L 253.645918 138.123675 
L 255.166913 138.123675 
L 255.285873 137.323641 
L 255.974144 137.323641 
L 255.982642 146.924046 
L 256.084608 137.323641 
L 256.857851 137.323641 
L 256.976811 136.523608 
L 257.52063 136.523608 
L 257.529128 146.124012 
L 257.631094 136.523608 
L 258.344856 136.523608 
L 258.472314 141.32381 
L 258.769715 141.32381 
L 258.888676 140.523776 
L 260.418167 140.523776 
L 260.537128 139.723743 
L 262.100608 139.723743 
L 262.219569 138.923709 
L 263.825535 138.923709 
L 263.944495 138.123675 
L 264.029467 138.123675 
L 264.037964 147.72408 
L 264.13993 138.123675 
L 265.592947 138.123675 
L 265.711908 137.323641 
L 265.728902 137.323641 
L 265.737399 146.924046 
L 265.839366 137.323641 
L 265.881851 137.323641 
L 266.000812 151.724249 
L 266.281219 151.724249 
L 266.400179 150.924215 
L 267.785219 150.924215 
L 267.904179 150.124181 
L 268.719908 150.124181 
L 268.728405 158.924552 
L 268.830371 150.124181 
L 269.323208 150.124181 
L 269.442168 149.324147 
L 270.385355 149.324147 
L 270.512812 158.124518 
L 271.226575 158.124518 
L 271.345536 157.324485 
L 272.662598 157.324485 
L 272.781558 156.524451 
L 274.124112 156.524451 
L 274.243073 155.724417 
L 274.463999 155.724417 
L 274.472496 169.324991 
L 274.574462 155.724417 
L 275.619615 155.724417 
L 275.738575 154.924384 
L 276.452338 154.924384 
L 276.460835 163.724755 
L 276.562802 154.924384 
L 277.140609 154.924384 
L 277.25957 154.12435 
L 278.695593 154.12435 
L 278.814553 153.324316 
L 280.174101 153.324316 
L 280.191096 178.125362 
L 280.284565 152.524282 
L 281.890531 152.524282 
L 282.009491 151.724249 
L 283.538983 151.724249 
L 283.657943 150.924215 
L 285.221424 150.924215 
L 285.340384 150.124181 
L 286.699932 150.124181 
L 286.733921 170.125024 
L 286.810396 150.124181 
L 286.937853 150.124181 
L 287.056814 149.324147 
L 287.583639 149.324147 
L 287.711096 153.324316 
L 288.72226 153.324316 
L 288.739255 165.324822 
L 288.747752 152.524282 
L 288.824226 152.524282 
L 290.430193 152.524282 
L 290.549153 151.724249 
L 291.628294 151.724249 
L 291.636792 163.724755 
L 291.738758 151.724249 
L 292.163616 151.724249 
L 292.282577 150.924215 
L 292.554487 150.924215 
L 292.562984 158.924552 
L 292.66495 150.924215 
L 293.931029 150.924215 
L 294.049989 150.124181 
L 295.740928 150.124181 
L 295.859888 149.324147 
L 296.590645 149.324147 
L 296.599142 160.52462 
L 296.701108 149.324147 
L 296.939029 149.324147 
L 296.947526 168.524957 
L 297.049493 149.324147 
L 297.584815 149.324147 
L 297.703775 148.524114 
L 299.471188 148.524114 
L 299.590148 147.72408 
L 300.703278 147.72408 
L 300.711775 166.124856 
L 300.813742 147.72408 
L 301.391549 147.72408 
L 301.51051 146.924046 
L 302.904047 146.924046 
L 302.912544 158.124518 
L 303.01451 146.924046 
L 303.354397 146.924046 
L 303.473358 146.124012 
L 304.323075 146.124012 
L 304.340069 160.52462 
L 304.433538 146.124012 
L 305.359731 146.124012 
L 305.478691 145.323979 
L 307.416047 145.323979 
L 307.535008 144.523945 
L 307.730443 144.523945 
L 307.73894 151.724249 
L 307.840906 144.523945 
L 308.85207 144.523945 
L 308.860567 151.724249 
L 308.962533 144.523945 
L 309.51485 144.523945 
L 309.63381 143.723911 
L 311.656138 143.723911 
L 311.775098 142.923878 
L 312.556839 142.923878 
L 312.565336 150.124181 
L 312.667302 142.923878 
L 313.066669 142.923878 
L 313.075166 153.324316 
L 313.177132 142.923878 
L 313.330082 142.923878 
L 313.449042 153.324316 
L 314.094827 153.324316 
L 314.213788 152.524282 
L 314.723618 152.524282 
L 314.732116 166.92489 
L 314.834082 152.524282 
L 316.049178 152.524282 
L 316.168138 151.724249 
L 318.046014 151.724249 
L 318.164975 150.924215 
L 319.108161 150.924215 
L 319.116658 164.524788 
L 319.218624 161.324653 
L 319.567009 161.324653 
L 319.685969 160.52462 
L 321.393901 160.52462 
L 321.512862 159.724586 
L 322.676975 159.724586 
L 322.693969 176.525294 
L 322.787438 159.724586 
L 323.254783 159.724586 
L 323.373743 158.924552 
L 325.149653 158.924552 
L 325.268614 158.124518 
L 326.160817 158.124518 
L 326.169314 167.724923 
L 326.27128 158.124518 
L 327.078512 158.124518 
L 327.197473 157.324485 
L 329.04136 157.324485 
L 329.16032 156.524451 
L 331.046693 156.524451 
L 331.165654 155.724417 
L 332.355258 155.724417 
L 332.363756 165.324822 
L 332.465722 155.724417 
L 333.086015 155.724417 
L 333.204976 154.924384 
L 335.167824 154.924384 
L 335.286784 154.12435 
L 337.292118 154.12435 
L 337.411078 153.324316 
L 339.458897 153.324316 
L 339.577858 152.524282 
L 339.875259 152.524282 
L 339.883756 162.124687 
L 339.985722 152.524282 
L 341.668163 152.524282 
L 341.787124 151.724249 
L 341.906084 151.724249 
L 342.042039 158.124518 
L 343.036208 158.124518 
L 343.155169 157.324485 
L 345.152005 157.324485 
L 345.270966 156.524451 
L 345.474898 156.524451 
L 345.483395 168.524957 
L 345.585361 156.524451 
L 345.712819 156.524451 
L 345.721316 166.124856 
L 345.823282 156.524451 
L 347.097859 156.524451 
L 347.106356 162.124687 
L 347.208322 156.524451 
L 347.310288 156.524451 
L 347.429248 155.724417 
L 347.837113 155.724417 
L 347.84561 167.724923 
L 347.947576 155.724417 
L 349.511056 155.724417 
L 349.630017 154.924384 
L 351.754311 154.924384 
L 351.873271 154.12435 
L 352.485068 154.12435 
L 352.493565 166.124856 
L 352.595531 162.924721 
L 353.776639 162.924721 
L 353.895599 162.124687 
L 355.875441 162.124687 
L 355.994402 161.324653 
L 357.489905 161.324653 
L 357.498402 166.92489 
L 357.600368 161.324653 
L 358.01673 161.324653 
L 358.13569 160.52462 
L 359.36778 160.52462 
L 359.376278 177.325328 
L 359.478244 160.52462 
L 360.192007 160.52462 
L 360.310967 159.724586 
L 362.409769 159.724586 
L 362.52873 158.924552 
L 362.783645 158.924552 
L 362.809137 170.125024 
L 362.902606 164.524788 
L 364.525566 164.524788 
L 364.644527 163.724755 
L 366.683849 163.724755 
L 366.802809 162.924721 
L 367.142696 162.924721 
L 367.159691 171.725092 
L 367.25316 166.124856 
L 367.618538 166.124856 
L 367.737499 165.324822 
L 368.655194 165.324822 
L 368.69768 181.325497 
L 368.765657 165.324822 
L 369.768324 165.324822 
L 369.887284 164.524788 
L 371.43377 164.524788 
L 371.442267 169.324991 
L 371.544234 164.524788 
L 371.952098 164.524788 
L 372.071058 163.724755 
L 374.008415 163.724755 
L 374.016912 168.524957 
L 374.118878 163.724755 
L 374.169861 163.724755 
L 374.288821 162.924721 
L 376.438607 162.924721 
L 376.557567 162.124687 
L 378.741342 162.124687 
L 378.860302 161.324653 
L 379.786494 161.324653 
L 379.794991 169.324991 
L 379.896957 161.324653 
L 381.086562 161.324653 
L 381.205523 160.52462 
L 382.675534 160.52462 
L 382.684031 170.925058 
L 382.785997 160.52462 
L 383.474268 160.52462 
L 383.550743 159.724586 
L 383.55924 165.324822 
L 383.661206 159.724586 
L 385.904461 159.724586 
L 386.023421 158.924552 
L 388.190201 158.924552 
L 388.198698 166.124856 
L 388.300664 158.924552 
L 388.377139 158.924552 
L 388.496099 158.124518 
L 390.9008 158.124518 
L 391.019761 157.324485 
L 391.56358 157.324485 
L 391.572077 162.124687 
L 391.674043 157.324485 
L 392.727693 157.324485 
L 392.73619 162.124687 
L 392.838156 157.324485 
L 393.475444 157.324485 
L 393.594405 156.524451 
L 393.806834 156.524451 
L 393.815332 162.124687 
L 393.917298 156.524451 
L 396.092575 156.524451 
L 396.211535 155.724417 
L 396.882812 155.724417 
L 396.891309 162.924721 
L 396.993275 155.724417 
L 398.769185 155.724417 
L 398.888146 154.924384 
L 399.270518 154.924384 
L 399.279016 159.724586 
L 399.380982 154.924384 
L 401.488281 154.924384 
L 401.607242 154.12435 
L 404.266858 154.12435 
L 404.385818 153.324316 
L 407.096417 153.324316 
L 407.215378 152.524282 
L 409.535107 152.524282 
L 409.552101 158.924552 
L 409.64557 152.524282 
L 409.985457 152.524282 
L 410.104418 151.724249 
L 412.933977 151.724249 
L 413.052938 150.924215 
L 413.936644 150.924215 
L 414.055604 162.924721 
L 414.200056 162.924721 
L 414.319017 162.124687 
L 416.842678 162.124687 
L 416.961639 161.324653 
L 418.278701 161.324653 
L 418.304192 170.125024 
L 418.389164 161.324653 
L 419.196396 161.324653 
L 419.21339 174.925227 
L 419.306859 161.324653 
L 419.536283 161.324653 
L 419.655243 160.52462 
L 420.377503 160.52462 
L 420.496464 165.324822 
L 421.26121 165.324822 
L 421.38017 164.524788 
L 423.895334 164.524788 
L 424.014295 163.724755 
L 424.141752 163.724755 
L 424.150249 170.925058 
L 424.252216 163.724755 
L 426.580442 163.724755 
L 426.699402 162.924721 
L 429.308035 162.924721 
L 429.426996 162.124687 
L 432.086612 162.124687 
L 432.205572 161.324653 
L 434.329866 161.324653 
L 434.465821 169.324991 
L 435.00964 169.324991 
L 435.018137 178.125362 
L 435.120103 169.324991 
L 436.233234 169.324991 
L 436.241731 175.725261 
L 436.343697 169.324991 
L 436.955493 169.324991 
L 437.048962 168.524957 
L 437.05746 174.925227 
L 437.159426 168.524957 
L 439.606612 168.524957 
L 439.725573 167.724923 
L 442.308714 167.724923 
L 442.427675 166.92489 
L 445.053302 166.92489 
L 445.172263 166.124856 
L 445.605619 166.124856 
L 445.733076 172.525126 
L 447.237076 172.525126 
L 447.356037 171.725092 
L 447.52598 171.725092 
L 447.653438 178.125362 
L 448.800557 178.125362 
L 448.809054 183.725598 
L 448.91102 178.125362 
L 449.18293 178.125362 
L 449.30189 177.325328 
L 451.706591 177.325328 
L 451.825551 176.525294 
L 454.272738 176.525294 
L 454.391698 175.725261 
L 455.096964 175.725261 
L 455.105461 179.725429 
L 455.207427 175.725261 
L 455.683269 175.725261 
L 455.691766 182.12553 
L 455.793732 175.725261 
L 456.64345 175.725261 
L 456.651947 181.325497 
L 456.753913 175.725261 
L 456.872874 175.725261 
L 456.991834 174.925227 
L 457.977507 174.925227 
L 457.986004 178.925396 
L 458.08797 174.925227 
L 459.523993 174.925227 
L 459.642953 174.125193 
L 462.2091 174.125193 
L 462.328061 173.325159 
L 463.815066 173.325159 
L 463.942524 174.925227 
L 464.622298 174.925227 
L 464.630795 184.525632 
L 464.732761 174.925227 
L 466.185778 174.925227 
L 466.304739 174.125193 
L 468.921869 174.125193 
L 469.04083 173.325159 
L 471.394547 173.325159 
L 471.403044 176.525294 
L 471.505011 173.325159 
L 471.708943 173.325159 
L 471.827903 172.525126 
L 474.538502 172.525126 
L 474.657463 171.725092 
L 477.410548 171.725092 
L 477.529508 170.925058 
L 478.549169 170.925058 
L 478.566164 178.925396 
L 478.659633 170.925058 
L 480.325079 170.925058 
L 480.44404 170.125024 
L 483.299091 170.125024 
L 483.418051 169.324991 
L 486.315588 169.324991 
L 486.434549 168.524957 
L 487.156809 168.524957 
L 487.165306 174.125193 
L 487.267272 168.524957 
L 489.383069 168.524957 
L 489.502029 167.724923 
L 490.980538 167.724923 
L 490.989035 171.725092 
L 491.091001 167.724923 
L 492.501532 167.724923 
L 492.620493 166.92489 
L 492.824425 166.92489 
L 492.832922 172.525126 
L 492.934888 166.92489 
L 493.614662 166.92489 
L 493.623159 170.925058 
L 493.725126 166.92489 
L 494.642821 166.92489 
L 494.651318 170.125024 
L 494.753284 166.92489 
L 495.569013 166.92489 
L 495.57751 171.725092 
L 495.679476 166.92489 
L 495.798436 166.124856 
L 498.908403 166.124856 
L 498.942392 165.324822 
L 498.950889 172.525126 
L 498.959386 174.925227 
L 498.967883 165.324822 
L 499.03586 165.324822 
L 499.316267 165.324822 
L 499.324764 170.925058 
L 499.426731 165.324822 
L 499.707137 165.324822 
L 499.715635 170.925058 
L 499.817601 165.324822 
L 502.188313 165.324822 
L 502.307273 164.524788 
L 503.284448 164.524788 
L 503.292946 168.524957 
L 503.394912 164.524788 
L 505.527703 164.524788 
L 505.646663 163.724755 
L 506.623839 163.724755 
L 506.759793 169.324991 
L 507.473556 169.324991 
L 507.592517 168.524957 
L 510.719477 168.524957 
L 510.838438 167.724923 
L 512.741805 167.724923 
L 512.767297 174.925227 
L 512.852268 167.724923 
L 514.016382 167.724923 
L 514.135342 166.92489 
L 514.160834 166.92489 
L 514.169331 170.925058 
L 514.271297 166.92489 
L 517.372766 166.92489 
L 517.491726 166.124856 
L 520.788631 166.124856 
L 520.848111 169.324991 
L 520.907591 165.324822 
L 524.263976 165.324822 
L 524.382936 164.524788 
L 527.034055 164.524788 
L 527.042552 167.724923 
L 527.144518 164.524788 
L 527.790304 164.524788 
L 527.89227 163.724755 
L 527.900767 170.925058 
L 528.002733 163.724755 
L 528.147185 163.724755 
L 528.172677 170.925058 
L 528.266145 167.724923 
L 528.359614 167.724923 
L 528.478575 166.92489 
L 530.730326 166.92489 
L 530.738824 170.125024 
L 530.84079 166.92489 
L 531.834959 166.92489 
L 531.95392 166.124856 
L 535.378282 166.124856 
L 535.497242 165.324822 
L 537.239163 165.324822 
L 537.24766 168.524957 
L 537.349626 165.324822 
L 538.972587 165.324822 
L 539.091548 164.524788 
L 542.63487 164.524788 
L 542.75383 163.724755 
L 543.238169 163.724755 
L 543.272158 171.725092 
L 543.348633 168.524957 
L 544.733672 168.524957 
L 544.852633 182.925564 
L 546.03374 182.925564 
L 546.152701 182.12553 
L 548.183526 182.12553 
L 548.192023 185.325665 
L 548.293989 182.12553 
L 549.160701 182.12553 
L 549.220181 181.325497 
L 549.228678 187.725767 
L 549.330644 181.325497 
L 552.330148 181.325497 
L 552.449108 180.525463 
L 555.550577 180.525463 
L 555.669538 179.725429 
L 557.216024 179.725429 
L 557.233018 184.525632 
L 557.326487 181.325497 
L 558.380137 181.325497 
L 558.388634 183.725598 
L 558.4906 181.325497 
L 558.601063 181.325497 
L 558.720024 180.525463 
L 560.606397 180.525463 
L 560.614894 185.325665 
L 560.71686 180.525463 
L 561.863979 180.525463 
L 561.982939 179.725429 
L 565.177878 179.725429 
L 565.296838 178.925396 
L 568.542759 178.925396 
L 568.66172 178.125362 
L 571.703709 178.125362 
L 571.720703 182.12553 
L 571.814172 178.125362 
L 571.873652 178.125362 
L 571.882149 183.725598 
L 571.958624 177.325328 
L 571.975618 177.325328 
L 573.2332 177.325328 
L 573.241697 182.12553 
L 573.343664 177.325328 
L 575.000613 177.325328 
L 575.00911 181.325497 
L 575.111076 177.325328 
L 575.416974 177.325328 
L 575.535935 176.525294 
L 576.57259 176.525294 
L 576.589585 185.325665 
L 576.683054 176.525294 
L 578.824342 176.525294 
L 578.943302 178.925396 
L 581.364998 178.925396 
L 581.483958 178.125362 
L 584.874331 178.125362 
L 584.993292 177.325328 
L 585.605088 177.325328 
L 585.613585 180.525463 
L 585.715552 177.325328 
L 588.443145 177.325328 
L 588.562106 176.525294 
L 592.062942 176.525294 
L 592.181902 175.725261 
L 592.470806 175.725261 
L 592.479304 178.925396 
L 592.58127 175.725261 
L 595.742219 175.725261 
L 595.86118 174.925227 
L 597.611598 174.925227 
L 597.620095 178.125362 
L 597.722061 174.925227 
L 599.472479 174.925227 
L 599.59144 174.125193 
L 601.690242 174.125193 
L 601.698739 176.525294 
L 601.800706 174.125193 
L 603.26222 174.125193 
L 603.38118 173.325159 
L 603.687079 173.325159 
L 603.695576 176.525294 
L 603.797542 173.325159 
L 607.119938 173.325159 
L 607.238898 172.525126 
L 609.014808 172.525126 
L 609.057294 182.12553 
L 609.125271 174.925227 
L 611.164593 174.925227 
L 611.173091 182.12553 
L 611.275057 174.925227 
L 612.804548 174.925227 
L 612.923509 174.125193 
L 616.704752 174.125193 
L 616.823713 173.325159 
L 618.234244 173.325159 
L 618.242741 177.325328 
L 618.344707 173.325159 
L 620.307555 173.325159 
L 620.316052 175.725261 
L 620.418018 173.325159 
L 620.664436 173.325159 
L 620.783396 172.525126 
L 623.086131 172.525126 
L 623.103125 178.925396 
L 623.196594 172.525126 
L 623.561973 172.525126 
L 623.587465 178.125362 
L 623.672436 172.525126 
L 624.6836 172.525126 
L 624.760075 174.925227 
L 624.802561 171.725092 
L 626.501996 171.725092 
L 626.510493 174.125193 
L 626.612459 171.725092 
L 627.419691 171.725092 
L 627.445182 177.325328 
L 627.530154 171.725092 
L 628.779239 171.725092 
L 628.898199 170.925058 
L 628.966177 170.925058 
L 628.974674 174.125193 
L 629.07664 170.925058 
L 630.733589 170.925058 
L 630.742087 173.325159 
L 630.844053 170.925058 
L 631.863714 170.925058 
L 631.872211 173.325159 
L 631.974177 170.925058 
L 632.789906 170.925058 
L 632.798403 174.125193 
L 632.900369 170.925058 
L 632.934358 170.925058 
L 633.053318 170.125024 
L 633.478177 170.125024 
L 633.495172 174.125193 
L 633.588641 170.125024 
L 634.183443 170.125024 
L 634.259917 175.725261 
L 634.293906 170.125024 
L 637.157454 170.125024 
L 637.276415 169.324991 
L 639.409206 169.324991 
L 639.417703 173.325159 
L 639.519669 169.324991 
L 641.448528 169.324991 
L 641.567489 168.524957 
L 643.734269 168.524957 
L 643.861726 170.925058 
L 646.801749 170.925058 
L 646.920709 170.125024 
L 649.418879 170.125024 
L 649.427376 172.525126 
L 649.529342 170.125024 
L 651.143806 170.125024 
L 651.262766 169.324991 
L 651.339241 169.324991 
L 651.364732 177.325328 
L 651.449704 169.324991 
L 654.466202 169.324991 
L 654.474699 171.725092 
L 654.576665 169.324991 
L 655.061004 169.324991 
L 655.179964 178.125362 
L 655.953207 178.125362 
L 656.072168 177.325328 
L 658.850744 177.325328 
L 658.859242 179.725429 
L 658.961208 177.325328 
L 660.065841 177.325328 
L 660.184801 176.525294 
L 660.558677 176.525294 
L 660.567174 179.725429 
L 660.66914 176.525294 
L 662.062677 176.525294 
L 662.181637 182.925564 
L 663.456214 182.925564 
L 663.575174 182.12553 
L 665.9034 182.12553 
L 665.911898 184.525632 
L 666.013864 182.12553 
L 667.432892 182.12553 
L 667.551853 181.325497 
L 669.803604 181.325497 
L 669.812101 183.725598 
L 669.914067 181.325497 
L 671.477548 181.325497 
L 671.596508 180.525463 
L 675.581684 180.525463 
L 675.700644 179.725429 
L 675.887582 179.725429 
L 676.006543 183.725598 
L 676.159492 183.725598 
L 676.167989 187.725767 
L 676.269955 183.725598 
L 677.926904 183.725598 
L 678.045865 182.925564 
L 681.988554 182.925564 
L 682.107515 182.12553 
L 686.109685 182.12553 
L 686.228645 181.325497 
L 688.675832 181.325497 
L 688.692826 186.125699 
L 688.786295 181.325497 
L 690.290295 181.325497 
L 690.409256 180.525463 
L 691.564872 180.525463 
L 691.590363 185.325665 
L 691.675335 180.525463 
L 694.530386 180.525463 
L 694.649346 179.725429 
L 698.719494 179.725429 
L 698.736488 182.925564 
L 698.829957 179.725429 
L 698.838454 179.725429 
L 698.957415 178.925396 
L 703.078545 178.925396 
L 703.087042 182.12553 
L 703.189008 178.925396 
L 703.2145 178.925396 
L 703.33346 178.125362 
L 703.409935 178.125362 
L 703.418432 180.525463 
L 703.520398 178.125362 
L 704.693008 178.125362 
L 704.701505 182.12553 
L 704.803472 178.125362 
L 707.650026 178.125362 
L 707.768986 177.325328 
L 710.309642 177.325328 
L 710.318139 179.725429 
L 710.420105 177.325328 
L 712.153529 177.325328 
L 712.272489 176.525294 
L 712.348964 176.525294 
L 712.484919 180.525463 
L 712.969258 180.525463 
L 712.977755 182.12553 
L 713.079721 180.525463 
L 713.487585 180.525463 
L 713.606546 179.725429 
L 714.396783 179.725429 
L 714.40528 182.12553 
L 714.507246 179.725429 
L 716.053732 179.725429 
L 716.172693 182.925564 
L 718.339473 182.925564 
L 718.34797 186.125699 
L 718.449936 182.925564 
L 719.07023 182.925564 
L 719.18919 182.12553 
L 723.46327 182.12553 
L 723.58223 181.325497 
L 727.91579 181.325497 
L 728.03475 180.525463 
L 728.655044 180.525463 
L 728.663541 182.925564 
L 728.765508 180.525463 
L 730.47344 180.525463 
L 730.481937 183.725598 
L 730.583903 180.525463 
L 732.436288 180.525463 
L 732.555248 179.725429 
L 733.532423 179.725429 
L 733.54092 182.925564 
L 733.642887 179.725429 
L 737.03326 179.725429 
L 737.15222 178.925396 
L 737.840491 178.925396 
L 737.848989 181.325497 
L 737.950955 178.925396 
L 738.20587 178.925396 
L 738.214367 182.12553 
L 738.316333 178.925396 
L 741.689712 178.925396 
L 741.808673 178.125362 
L 746.422639 178.125362 
L 746.5416 177.325328 
L 751.223543 177.325328 
L 751.342504 176.525294 
L 756.100922 176.525294 
L 756.219883 175.725261 
L 761.054776 175.725261 
L 761.173736 174.925227 
L 763.833352 174.925227 
L 763.850347 178.125362 
L 763.943816 174.925227 
L 765.830189 174.925227 
L 765.847183 178.925396 
L 765.940652 174.925227 
L 766.085104 174.925227 
L 766.204064 174.125193 
L 771.191907 174.125193 
L 771.310867 173.325159 
L 772.457986 173.325159 
L 772.585444 175.725261 
L 773.273715 175.725261 
L 773.307704 180.525463 
L 773.384178 175.725261 
L 773.579613 175.725261 
L 773.58811 181.325497 
L 773.690076 175.725261 
L 774.097941 175.725261 
L 774.106438 178.125362 
L 774.208404 175.725261 
L 774.276382 175.725261 
L 774.395342 174.925227 
L 774.769218 174.925227 
L 774.777715 177.325328 
L 774.879681 174.925227 
L 777.462823 174.925227 
L 777.47132 176.525294 
L 777.573286 174.925227 
L 777.751727 174.925227 
L 777.870687 178.125362 
L 778.728902 178.125362 
L 778.847862 177.325328 
L 781.838868 177.325328 
L 781.847365 180.525463 
L 781.949331 177.325328 
L 783.223908 177.325328 
L 783.351365 178.125362 
L 785.186755 178.125362 
L 785.305716 177.325328 
L 790.293558 177.325328 
L 790.412519 176.525294 
L 792.094959 176.525294 
L 792.103457 184.525632 
L 792.205423 183.725598 
L 794.49966 183.725598 
L 794.618621 182.925564 
L 796.046146 182.925564 
L 796.063141 186.925733 
L 796.156609 182.925564 
L 796.683434 182.925564 
L 796.708926 186.925733 
L 796.793898 182.925564 
L 797.082802 182.925564 
L 797.150779 188.5258 
L 797.218756 184.525632 
L 801.705265 184.525632 
L 801.832723 186.925733 
L 804.500836 186.925733 
L 804.628294 187.725767 
L 806.514667 187.725767 
L 806.633627 186.925733 
L 807.602305 186.925733 
L 807.610803 189.325834 
L 807.712769 186.925733 
L 811.332566 186.925733 
L 811.451526 186.125699 
L 815.360227 186.125699 
L 815.368724 187.725767 
L 815.47069 186.125699 
L 816.218442 186.125699 
L 816.337402 185.325665 
L 817.96886 185.325665 
L 817.977357 187.725767 
L 818.079323 185.325665 
L 819.821244 185.325665 
L 819.940205 186.925733 
L 820.237606 186.925733 
L 820.246103 190.925902 
L 820.348069 186.925733 
L 820.424544 186.925733 
L 820.433041 190.925902 
L 820.535007 186.925733 
L 822.591324 186.925733 
L 822.599821 189.325834 
L 822.701787 186.925733 
L 823.262601 186.925733 
L 823.381561 186.125699 
L 828.233448 186.125699 
L 828.352409 185.325665 
L 829.270104 185.325665 
L 829.397562 187.725767 
L 830.196296 187.725767 
L 830.315257 186.925733 
L 832.533019 186.925733 
L 832.660477 190.925902 
L 833.969042 190.925902 
L 834.088003 190.125868 
L 835.090669 190.125868 
L 835.099167 192.525969 
L 835.201133 190.125868 
L 838.846421 190.125868 
L 838.965382 189.325834 
L 839.33076 189.325834 
L 839.347754 193.326003 
L 839.441223 189.325834 
L 842.372749 189.325834 
L 842.389743 191.725935 
L 842.483212 189.325834 
L 843.60484 189.325834 
L 843.613337 190.925902 
L 843.715303 189.325834 
L 843.791777 189.325834 
L 843.910738 188.5258 
L 845.389247 188.5258 
L 845.508207 192.525969 
L 845.941563 192.525969 
L 845.967054 197.326171 
L 846.052026 192.525969 
L 846.22197 192.525969 
L 846.230467 194.126036 
L 846.332433 192.525969 
L 846.536365 192.525969 
L 846.663823 193.326003 
L 847.963891 193.326003 
L 848.082851 192.525969 
L 852.832773 192.525969 
L 852.951733 191.725935 
L 853.070694 191.725935 
L 853.079191 194.92607 
L 853.181157 191.725935 
L 855.118513 191.725935 
L 855.194987 195.726104 
L 855.228976 191.725935 
L 857.769632 191.725935 
L 857.888592 190.925902 
L 859.010219 190.925902 
L 859.018717 193.326003 
L 859.120683 190.925902 
L 861.35544 190.925902 
L 861.363937 192.525969 
L 861.465903 190.925902 
L 862.774468 190.925902 
L 862.893429 190.125868 
L 863.97257 190.125868 
L 863.981067 192.525969 
L 864.083033 190.125868 
L 865.892932 190.125868 
L 865.901429 192.525969 
L 866.003395 190.125868 
L 866.105361 190.125868 
L 866.113859 191.725935 
L 866.215825 190.125868 
L 867.847282 190.125868 
L 867.966243 189.325834 
L 868.510062 189.325834 
L 868.518559 193.326003 
L 868.620525 189.325834 
L 868.866943 189.325834 
L 868.875441 191.725935 
L 868.977407 189.325834 
L 869.861113 189.325834 
L 869.886605 192.525969 
L 869.988571 191.725935 
L 872.48674 191.725935 
L 872.495238 193.326003 
L 872.597204 191.725935 
L 873.472413 191.725935 
L 873.48091 193.326003 
L 873.582876 192.525969 
L 875.571215 192.525969 
L 875.690176 191.725935 
L 877.729498 191.725935 
L 877.856956 192.525969 
L 878.800142 192.525969 
L 878.919103 194.92607 
L 882.98925 194.92607 
L 883.10821 194.126036 
L 883.346131 194.126036 
L 883.354628 197.326171 
L 883.456594 194.126036 
L 888.028075 194.126036 
L 888.147036 193.326003 
L 888.5549 193.326003 
L 888.563397 196.526138 
L 888.665363 193.326003 
L 893.126381 193.326003 
L 893.245341 192.525969 
L 897.332483 192.525969 
L 897.34098 194.126036 
L 897.442946 192.525969 
L 898.301161 192.525969 
L 898.420121 191.725935 
L 899.448279 191.725935 
L 899.456777 196.526138 
L 899.558743 191.725935 
L 903.543918 191.725935 
L 903.662879 190.925902 
L 907.41863 190.925902 
L 907.427128 194.126036 
L 907.529094 190.925902 
L 908.86315 190.925902 
L 908.982111 190.125868 
L 913.443128 190.125868 
L 913.451625 192.525969 
L 913.553591 190.125868 
L 914.25036 190.125868 
L 914.36932 189.325834 
L 915.992281 189.325834 
L 916.000778 191.725935 
L 916.102744 189.325834 
L 919.595083 189.325834 
L 919.722541 190.125868 
L 920.045434 190.125868 
L 920.130406 192.525969 
L 920.164394 189.325834 
L 922.968462 189.325834 
L 922.976959 191.725935 
L 923.078926 189.325834 
L 924.582926 189.325834 
L 924.591423 190.925902 
L 924.693389 189.325834 
L 925.551604 189.325834 
L 925.670564 188.5258 
L 925.764033 188.5258 
L 925.781028 192.525969 
L 925.882994 190.925902 
L 926.146406 190.925902 
L 926.265367 190.125868 
L 926.282361 190.125868 
L 926.290858 193.326003 
L 926.392824 190.125868 
L 927.54844 190.125868 
L 927.556937 191.725935 
L 927.658903 190.125868 
L 931.202226 190.125868 
L 931.210723 192.525969 
L 931.312689 190.125868 
L 931.652576 190.125868 
L 931.771537 189.325834 
L 932.145412 189.325834 
L 932.162407 192.525969 
L 932.255876 189.325834 
L 935.799198 189.325834 
L 935.807695 193.326003 
L 935.909661 189.325834 
L 936.920825 189.325834 
L 937.048283 190.125868 
L 937.44765 190.125868 
L 937.56661 189.325834 
L 938.586272 189.325834 
L 938.611763 193.326003 
L 938.696735 189.325834 
L 940.226227 189.325834 
L 940.234724 191.725935 
L 940.33669 189.325834 
L 942.486475 189.325834 
L 942.511967 193.326003 
L 942.596939 189.325834 
L 942.62243 189.325834 
L 942.630927 193.326003 
L 942.732893 189.325834 
L 943.07278 189.325834 
L 943.191741 188.5258 
L 945.689911 188.5258 
L 945.808871 191.725935 
L 947.040962 191.725935 
L 947.057956 194.126036 
L 947.151425 191.725935 
L 947.882182 191.725935 
L 948.00964 193.326003 
L 948.986815 193.326003 
L 948.995312 195.726104 
L 949.097278 193.326003 
L 949.590114 193.326003 
L 949.709075 192.525969 
L 950.660759 192.525969 
L 950.677753 195.726104 
L 950.771222 192.525969 
L 951.595448 192.525969 
L 951.603945 194.126036 
L 951.705911 192.525969 
L 955.13877 192.525969 
L 955.257731 191.725935 
L 957.144104 191.725935 
L 957.152601 194.126036 
L 957.254567 191.725935 
L 957.407516 191.725935 
L 957.416013 193.326003 
L 957.517979 191.725935 
L 957.866364 191.725935 
L 957.874861 194.126036 
L 957.976827 191.725935 
L 960.763901 191.725935 
L 960.882861 190.925902 
L 961.358703 190.925902 
L 961.3672 192.525969 
L 961.469166 190.925902 
L 963.253573 190.925902 
L 963.381031 191.725935 
L 966.490997 191.725935 
L 966.609958 190.925902 
L 967.833551 190.925902 
L 967.842048 192.525969 
L 967.944014 190.925902 
L 969.354545 190.925902 
L 969.354545 190.925902 
" clip-path="url(#p9dad2f3c71)" style="fill: none; stroke: #000080; stroke-width: 1.5; stroke-linecap: round"/>
   </g>
   <g id="patch_3">
    <path d="M 77.16 525.3 
L 77.16 50.96 
" style="fill: none; stroke: #cccccc; stroke-linejoin: miter; stroke-linecap: square"/>
   </g>
   <g id="patch_4">
    <path d="M 1011.84 525.3 
L 1011.84 50.96 
" style="fill: none; stroke: #cccccc; stroke-linejoin: miter; stroke-linecap: square"/>
   </g>
   <g id="patch_5">
    <path d="M 77.16 525.3 
L 1011.84 525.3 
" style="fill: none; stroke: #cccccc; stroke-linejoin: miter; stroke-linecap: square"/>
   </g>
   <g id="patch_6">
    <path d="M 77.16 50.96 
L 1011.84 50.96 
" style="fill: none; stroke: #cccccc; stroke-linejoin: miter; stroke-linecap: square"/>
   </g>
  </g>
  <g id="axes_2">
   <g id="matplotlib.axis_3">
    <g id="ytick_7">
     <g id="line2d_26">
      <path d="M 77.16 460.617273 
L 1011.84 460.617273 
" clip-path="url(#p9dad2f3c71)" style="fill: none; stroke: #cccccc; stroke-width: 0.8; stroke-linecap: round"/>
     </g>
     <g id="line2d_27"/>
     <g id="text_15">
      <!-- 0.96 -->
      <g style="fill: #d2691e" transform="translate(1015.34 465.936179) scale(0.14 -0.14)">
       <use xlink:href="#DejaVuSans-30"/>
       <use xlink:href="#DejaVuSans-2e" transform="translate(63.623047 0)"/>
       <use xlink:href="#DejaVuSans-39" transform="translate(95.410156 0)"/>
       <use xlink:href="#DejaVuSans-36" transform="translate(159.033203 0)"/>
      </g>
     </g>
    </g>
    <g id="ytick_8">
     <g id="line2d_28">
      <path d="M 77.16 374.373636 
L 1011.84 374.373636 
" clip-path="url(#p9dad2f3c71)" style="fill: none; stroke: #cccccc; stroke-width: 0.8; stroke-linecap: round"/>
     </g>
     <g id="line2d_29"/>
     <g id="text_16">
      <!-- 0.98 -->
      <g style="fill: #d2691e" transform="translate(1015.34 379.692543) scale(0.14 -0.14)">
       <use xlink:href="#DejaVuSans-30"/>
       <use xlink:href="#DejaVuSans-2e" transform="translate(63.623047 0)"/>
       <use xlink:href="#DejaVuSans-39" transform="translate(95.410156 0)"/>
       <use xlink:href="#DejaVuSans-38" transform="translate(159.033203 0)"/>
      </g>
     </g>
    </g>
    <g id="ytick_9">
     <g id="line2d_30">
      <path d="M 77.16 288.13 
L 1011.84 288.13 
" clip-path="url(#p9dad2f3c71)" style="fill: none; stroke: #cccccc; stroke-width: 0.8; stroke-linecap: round"/>
     </g>
     <g id="line2d_31"/>
     <g id="text_17">
      <!-- 1.00 -->
      <g style="fill: #d2691e" transform="translate(1015.34 293.448906) scale(0.14 -0.14)">
       <use xlink:href="#DejaVuSans-31"/>
       <use xlink:href="#DejaVuSans-2e" transform="translate(63.623047 0)"/>
       <use xlink:href="#DejaVuSans-30" transform="translate(95.410156 0)"/>
       <use xlink:href="#DejaVuSans-30" transform="translate(159.033203 0)"/>
      </g>
     </g>
    </g>
    <g id="ytick_10">
     <g id="line2d_32">
      <path d="M 77.16 201.886364 
L 1011.84 201.886364 
" clip-path="url(#p9dad2f3c71)" style="fill: none; stroke: #cccccc; stroke-width: 0.8; stroke-linecap: round"/>
     </g>
     <g id="line2d_33"/>
     <g id="text_18">
      <!-- 1.02 -->
      <g style="fill: #d2691e" transform="translate(1015.34 207.20527) scale(0.14 -0.14)">
       <use xlink:href="#DejaVuSans-31"/>
       <use xlink:href="#DejaVuSans-2e" transform="translate(63.623047 0)"/>
       <use xlink:href="#DejaVuSans-30" transform="translate(95.410156 0)"/>
       <use xlink:href="#DejaVuSans-32" transform="translate(159.033203 0)"/>
      </g>
     </g>
    </g>
    <g id="ytick_11">
     <g id="line2d_34">
      <path d="M 77.16 115.642727 
L 1011.84 115.642727 
" clip-path="url(#p9dad2f3c71)" style="fill: none; stroke: #cccccc; stroke-width: 0.8; stroke-linecap: round"/>
     </g>
     <g id="line2d_35"/>
     <g id="text_19">
      <!-- 1.04 -->
      <g style="fill: #d2691e" transform="translate(1015.34 120.961634) scale(0.14 -0.14)">
       <use xlink:href="#DejaVuSans-31"/>
       <use xlink:href="#DejaVuSans-2e" transform="translate(63.623047 0)"/>
       <use xlink:href="#DejaVuSans-30" transform="translate(95.410156 0)"/>
       <use xlink:href="#DejaVuSans-34" transform="translate(159.033203 0)"/>
      </g>
     </g>
    </g>
    <g id="text_20">
     <!-- Chain Difficulty -->
     <g style="fill: #d2691e" transform="translate(1062.669375 349.32375) rotate(-90) scale(0.16 -0.16)">
      <defs>
       <path id="DejaVuSans-43" d="M 4122 4306 
L 4122 3641 
Q 3803 3938 3442 4084 
Q 3081 4231 2675 4231 
Q 1875 4231 1450 3742 
Q 1025 3253 1025 2328 
Q 1025 1406 1450 917 
Q 1875 428 2675 428 
Q 3081 428 3442 575 
Q 3803 722 4122 1019 
L 4122 359 
Q 3791 134 3420 21 
Q 3050 -91 2638 -91 
Q 1578 -91 968 557 
Q 359 1206 359 2328 
Q 359 3453 968 4101 
Q 1578 4750 2638 4750 
Q 3056 4750 3426 4639 
Q 3797 4528 4122 4306 
z
" transform="scale(0.015625)"/>
       <path id="DejaVuSans-44" d="M 1259 4147 
L 1259 519 
L 2022 519 
Q 2988 519 3436 956 
Q 3884 1394 3884 2338 
Q 3884 3275 3436 3711 
Q 2988 4147 2022 4147 
L 1259 4147 
z
M 628 4666 
L 1925 4666 
Q 3281 4666 3915 4102 
Q 4550 3538 4550 2338 
Q 4550 1131 3912 565 
Q 3275 0 1925 0 
L 628 0 
L 628 4666 
z
" transform="scale(0.015625)"/>
       <path id="DejaVuSans-66" d="M 2375 4863 
L 2375 4384 
L 1825 4384 
Q 1516 4384 1395 4259 
Q 1275 4134 1275 3809 
L 1275 3500 
L 2222 3500 
L 2222 3053 
L 1275 3053 
L 1275 0 
L 697 0 
L 697 3053 
L 147 3053 
L 147 3500 
L 697 3500 
L 697 3744 
Q 697 4328 969 4595 
Q 1241 4863 1831 4863 
L 2375 4863 
z
" transform="scale(0.015625)"/>
       <path id="DejaVuSans-79" d="M 2059 -325 
Q 1816 -950 1584 -1140 
Q 1353 -1331 966 -1331 
L 506 -1331 
L 506 -850 
L 844 -850 
Q 1081 -850 1212 -737 
Q 1344 -625 1503 -206 
L 1606 56 
L 191 3500 
L 800 3500 
L 1894 763 
L 2988 3500 
L 3597 3500 
L 2059 -325 
z
" transform="scale(0.015625)"/>
      </defs>
      <use xlink:href="#DejaVuSans-43"/>
      <use xlink:href="#DejaVuSans-68" transform="translate(69.824219 0)"/>
      <use xlink:href="#DejaVuSans-61" transform="translate(133.203125 0)"/>
      <use xlink:href="#DejaVuSans-69" transform="translate(194.482422 0)"/>
      <use xlink:href="#DejaVuSans-6e" transform="translate(222.265625 0)"/>
      <use xlink:href="#DejaVuSans-20" transform="translate(285.644531 0)"/>
      <use xlink:href="#DejaVuSans-44" transform="translate(317.431641 0)"/>
      <use xlink:href="#DejaVuSans-69" transform="translate(394.433594 0)"/>
      <use xlink:href="#DejaVuSans-66" transform="translate(422.216797 0)"/>
      <use xlink:href="#DejaVuSans-66" transform="translate(457.421875 0)"/>
      <use xlink:href="#DejaVuSans-69" transform="translate(492.626953 0)"/>
      <use xlink:href="#DejaVuSans-63" transform="translate(520.410156 0)"/>
      <use xlink:href="#DejaVuSans-75" transform="translate(575.390625 0)"/>
      <use xlink:href="#DejaVuSans-6c" transform="translate(638.769531 0)"/>
      <use xlink:href="#DejaVuSans-74" transform="translate(666.552734 0)"/>
      <use xlink:href="#DejaVuSans-79" transform="translate(705.761719 0)"/>
     </g>
    </g>
   </g>
   <g id="line2d_36">
    <path d="M 119.645455 288.13 
L 969.354545 288.13 
L 969.354545 288.13 
" clip-path="url(#p9dad2f3c71)" style="fill: none; stroke-dasharray: 5.55,2.4; stroke-dashoffset: 0; stroke: #d2691e; stroke-width: 1.5"/>
   </g>
   <g id="patch_7">
    <path d="M 77.16 525.3 
L 77.16 50.96 
" style="fill: none; stroke: #cccccc; stroke-linejoin: miter; stroke-linecap: square"/>
   </g>
   <g id="patch_8">
    <path d="M 1011.84 525.3 
L 1011.84 50.96 
" style="fill: none; stroke: #cccccc; stroke-linejoin: miter; stroke-linecap: square"/>
   </g>
   <g id="patch_9">
    <path d="M 77.16 525.3 
L 1011.84 525.3 
" style="fill: none; stroke: #cccccc; stroke-linejoin: miter; stroke-linecap: square"/>
   </g>
   <g id="patch_10">
    <path d="M 77.16 50.96 
L 1011.84 50.96 
" style="fill: none; stroke: #cccccc; stroke-linejoin: miter; stroke-linecap: square"/>
   </g>
   <g id="text_21">
    <!-- Mining Share and Chain Difficulty vs. Block Number -->
    <g style="fill: #262626" transform="translate(286.539062 30.96) scale(0.2 -0.2)">
     <defs>
      <path id="DejaVuSans-76" d="M 191 3500 
L 800 3500 
L 1894 563 
L 2988 3500 
L 3597 3500 
L 2284 0 
L 1503 0 
L 191 3500 
z
" transform="scale(0.015625)"/>
     </defs>
     <use xlink:href="#DejaVuSans-4d"/>
     <use xlink:href="#DejaVuSans-69" transform="translate(86.279297 0)"/>
     <use xlink:href="#DejaVuSans-6e" transform="translate(114.0625 0)"/>
     <use xlink:href="#DejaVuSans-69" transform="translate(177.441406 0)"/>
     <use xlink:href="#DejaVuSans-6e" transform="translate(205.224609 0)"/>
     <use xlink:href="#DejaVuSans-67" transform="translate(268.603516 0)"/>
     <use xlink:href="#DejaVuSans-20" transform="translate(332.080078 0)"/>
     <use xlink:href="#DejaVuSans-53" transform="translate(363.867188 0)"/>
     <use xlink:href="#DejaVuSans-68" transform="translate(427.34375 0)"/>
     <use xlink:href="#DejaVuSans-61" transform="translate(490.722656 0)"/>
     <use xlink:href="#DejaVuSans-72" transform="translate(552.001953 0)"/>
     <use xlink:href="#DejaVuSans-65" transform="translate(590.865234 0)"/>
     <use xlink:href="#DejaVuSans-20" transform="translate(652.388672 0)"/>
     <use xlink:href="#DejaVuSans-61" transform="translate(684.175781 0)"/>
     <use xlink:href="#DejaVuSans-6e" transform="translate(745.455078 0)"/>
     <use xlink:href="#DejaVuSans-64" transform="translate(808.833984 0)"/>
     <use xlink:href="#DejaVuSans-20" transform="translate(872.310547 0)"/>
     <use xlink:href="#DejaVuSans-43" transform="translate(904.097656 0)"/>
     <use xlink:href="#DejaVuSans-68" transform="translate(973.921875 0)"/>
     <use xlink:href="#DejaVuSans-61" transform="translate(1037.300781 0)"/>
     <use xlink:href="#DejaVuSans-69" transform="translate(1098.580078 0)"/>
     <use xlink:href="#DejaVuSans-6e" transform="translate(1126.363281 0)"/>
     <use xlink:href="#DejaVuSans-20" transform="translate(1189.742188 0)"/>
     <use xlink:href="#DejaVuSans-44" transform="translate(1221.529297 0)"/>
     <use xlink:href="#DejaVuSans-69" transform="translate(1298.53125 0)"/>
     <use xlink:href="#DejaVuSans-66" transform="translate(1326.314453 0)"/>
     <use xlink:href="#DejaVuSans-66" transform="translate(1361.519531 0)"/>
     <use xlink:href="#DejaVuSans-69" transform="translate(1396.724609 0)"/>
     <use xlink:href="#DejaVuSans-63" transform="translate(1424.507812 0)"/>
     <use xlink:href="#DejaVuSans-75" transform="translate(1479.488281 0)"/>
     <use xlink:href="#DejaVuSans-6c" transform="translate(1542.867188 0)"/>
     <use xlink:href="#DejaVuSans-74" transform="translate(1570.650391 0)"/>
     <use xlink:href="#DejaVuSans-79" transform="translate(1609.859375 0)"/>
     <use xlink:href="#DejaVuSans-20" transform="translate(1669.039062 0)"/>
     <use xlink:href="#DejaVuSans-76" transform="translate(1700.826172 0)"/>
     <use xlink:href="#DejaVuSans-73" transform="translate(1760.005859 0)"/>
     <use xlink:href="#DejaVuSans-2e" transform="translate(1812.105469 0)"/>
     <use xlink:href="#DejaVuSans-20" transform="translate(1843.892578 0)"/>
     <use xlink:href="#DejaVuSans-42" transform="translate(1875.679688 0)"/>
     <use xlink:href="#DejaVuSans-6c" transform="translate(1944.283203 0)"/>
     <use xlink:href="#DejaVuSans-6f" transform="translate(1972.066406 0)"/>
     <use xlink:href="#DejaVuSans-63" transform="translate(2033.248047 0)"/>
     <use xlink:href="#DejaVuSans-6b" transform="translate(2088.228516 0)"/>
     <use xlink:href="#DejaVuSans-20" transform="translate(2146.138672 0)"/>
     <use xlink:href="#DejaVuSans-4e" transform="translate(2177.925781 0)"/>
     <use xlink:href="#DejaVuSans-75" transform="translate(2252.730469 0)"/>
     <use xlink:href="#DejaVuSans-6d" transform="translate(2316.109375 0)"/>
     <use xlink:href="#DejaVuSans-62" transform="translate(2413.521484 0)"/>
     <use xlink:href="#DejaVuSans-65" transform="translate(2476.998047 0)"/>
     <use xlink:href="#DejaVuSans-72" transform="translate(2538.521484 0)"/>
    </g>
   </g>
  </g>
 </g>
 <defs>
  <clipPath id="p9dad2f3c71">
   <rect x="77.16" y="50.96" width="934.68" height="474.34"/>
  </clipPath>
 </defs>
</svg>
