<?xml version="1.0" encoding="utf-8" standalone="no"?>
<!DOCTYPE svg PUBLIC "-//W3C//DTD SVG 1.1//EN"
  "http://www.w3.org/Graphics/SVG/1.1/DTD/svg11.dtd">
<svg xmlns:xlink="http://www.w3.org/1999/xlink" width="1080pt" height="576pt" viewBox="0 0 1080 576" xmlns="http://www.w3.org/2000/svg" version="1.1">
 <metadata>
  <rdf:RDF xmlns:dc="http://purl.org/dc/elements/1.1/" xmlns:cc="http://creativecommons.org/ns#" xmlns:rdf="http://www.w3.org/1999/02/22-rdf-syntax-ns#">
   <cc:Work>
    <dc:type rdf:resource="http://purl.org/dc/dcmitype/StillImage"/>
    <dc:date>2025-07-30T17:07:04.843984</dc:date>
    <dc:format>image/svg+xml</dc:format>
    <dc:creator>
     <cc:Agent>
      <dc:title>Matplotlib v3.10.3, https://matplotlib.org/</dc:title>
     </cc:Agent>
    </dc:creator>
   </cc:Work>
  </rdf:RDF>
 </metadata>
 <defs>
  <style type="text/css">*{stroke-linejoin: round; stroke-linecap: butt}</style>
 </defs>
 <g id="figure_1">
  <g id="patch_1">
   <path d="M 0 576 
L 1080 576 
L 1080 0 
L 0 0 
z
" style="fill: #ffffff"/>
  </g>
  <g id="axes_1">
   <g id="patch_2">
    <path d="M 68.25 525.3 
L 1020.66 525.3 
L 1020.66 50.96 
L 68.25 50.96 
z
" style="fill: #ffffff"/>
   </g>
   <g id="matplotlib.axis_1">
    <g id="xtick_1">
     <g id="line2d_1">
      <path d="M 111.532705 525.3 
L 111.532705 50.96 
" clip-path="url(#p2c16037b52)" style="fill: none; stroke-dasharray: 1.85,0.8; stroke-dashoffset: 0; stroke: #cccccc; stroke-width: 0.5"/>
     </g>
     <g id="line2d_2"/>
     <g id="text_1">
      <!-- 0 -->
      <g style="fill: #262626" transform="translate(107.078955 539.437813) scale(0.14 -0.14)">
       <defs>
        <path id="DejaVuSans-30" d="M 2034 4250 
Q 1547 4250 1301 3770 
Q 1056 3291 1056 2328 
Q 1056 1369 1301 889 
Q 1547 409 2034 409 
Q 2525 409 2770 889 
Q 3016 1369 3016 2328 
Q 3016 3291 2770 3770 
Q 2525 4250 2034 4250 
z
M 2034 4750 
Q 2819 4750 3233 4129 
Q 3647 3509 3647 2328 
Q 3647 1150 3233 529 
Q 2819 -91 2034 -91 
Q 1250 -91 836 529 
Q 422 1150 422 2328 
Q 422 3509 836 4129 
Q 1250 4750 2034 4750 
z
" transform="scale(0.015625)"/>
       </defs>
       <use xlink:href="#DejaVuSans-30"/>
      </g>
     </g>
    </g>
    <g id="xtick_2">
     <g id="line2d_3">
      <path d="M 284.699891 525.3 
L 284.699891 50.96 
" clip-path="url(#p2c16037b52)" style="fill: none; stroke-dasharray: 1.85,0.8; stroke-dashoffset: 0; stroke: #cccccc; stroke-width: 0.5"/>
     </g>
     <g id="line2d_4"/>
     <g id="text_2">
      <!-- 20000 -->
      <g style="fill: #262626" transform="translate(262.431141 539.437813) scale(0.14 -0.14)">
       <defs>
        <path id="DejaVuSans-32" d="M 1228 531 
L 3431 531 
L 3431 0 
L 469 0 
L 469 531 
Q 828 903 1448 1529 
Q 2069 2156 2228 2338 
Q 2531 2678 2651 2914 
Q 2772 3150 2772 3378 
Q 2772 3750 2511 3984 
Q 2250 4219 1831 4219 
Q 1534 4219 1204 4116 
Q 875 4013 500 3803 
L 500 4441 
Q 881 4594 1212 4672 
Q 1544 4750 1819 4750 
Q 2544 4750 2975 4387 
Q 3406 4025 3406 3419 
Q 3406 3131 3298 2873 
Q 3191 2616 2906 2266 
Q 2828 2175 2409 1742 
Q 1991 1309 1228 531 
z
" transform="scale(0.015625)"/>
       </defs>
       <use xlink:href="#DejaVuSans-32"/>
       <use xlink:href="#DejaVuSans-30" transform="translate(63.623047 0)"/>
       <use xlink:href="#DejaVuSans-30" transform="translate(127.246094 0)"/>
       <use xlink:href="#DejaVuSans-30" transform="translate(190.869141 0)"/>
       <use xlink:href="#DejaVuSans-30" transform="translate(254.492188 0)"/>
      </g>
     </g>
    </g>
    <g id="xtick_3">
     <g id="line2d_5">
      <path d="M 457.867078 525.3 
L 457.867078 50.96 
" clip-path="url(#p2c16037b52)" style="fill: none; stroke-dasharray: 1.85,0.8; stroke-dashoffset: 0; stroke: #cccccc; stroke-width: 0.5"/>
     </g>
     <g id="line2d_6"/>
     <g id="text_3">
      <!-- 40000 -->
      <g style="fill: #262626" transform="translate(435.598328 539.437813) scale(0.14 -0.14)">
       <defs>
        <path id="DejaVuSans-34" d="M 2419 4116 
L 825 1625 
L 2419 1625 
L 2419 4116 
z
M 2253 4666 
L 3047 4666 
L 3047 1625 
L 3713 1625 
L 3713 1100 
L 3047 1100 
L 3047 0 
L 2419 0 
L 2419 1100 
L 313 1100 
L 313 1709 
L 2253 4666 
z
" transform="scale(0.015625)"/>
       </defs>
       <use xlink:href="#DejaVuSans-34"/>
       <use xlink:href="#DejaVuSans-30" transform="translate(63.623047 0)"/>
       <use xlink:href="#DejaVuSans-30" transform="translate(127.246094 0)"/>
       <use xlink:href="#DejaVuSans-30" transform="translate(190.869141 0)"/>
       <use xlink:href="#DejaVuSans-30" transform="translate(254.492188 0)"/>
      </g>
     </g>
    </g>
    <g id="xtick_4">
     <g id="line2d_7">
      <path d="M 631.034264 525.3 
L 631.034264 50.96 
" clip-path="url(#p2c16037b52)" style="fill: none; stroke-dasharray: 1.85,0.8; stroke-dashoffset: 0; stroke: #cccccc; stroke-width: 0.5"/>
     </g>
     <g id="line2d_8"/>
     <g id="text_4">
      <!-- 60000 -->
      <g style="fill: #262626" transform="translate(608.765514 539.437813) scale(0.14 -0.14)">
       <defs>
        <path id="DejaVuSans-36" d="M 2113 2584 
Q 1688 2584 1439 2293 
Q 1191 2003 1191 1497 
Q 1191 994 1439 701 
Q 1688 409 2113 409 
Q 2538 409 2786 701 
Q 3034 994 3034 1497 
Q 3034 2003 2786 2293 
Q 2538 2584 2113 2584 
z
M 3366 4563 
L 3366 3988 
Q 3128 4100 2886 4159 
Q 2644 4219 2406 4219 
Q 1781 4219 1451 3797 
Q 1122 3375 1075 2522 
Q 1259 2794 1537 2939 
Q 1816 3084 2150 3084 
Q 2853 3084 3261 2657 
Q 3669 2231 3669 1497 
Q 3669 778 3244 343 
Q 2819 -91 2113 -91 
Q 1303 -91 875 529 
Q 447 1150 447 2328 
Q 447 3434 972 4092 
Q 1497 4750 2381 4750 
Q 2619 4750 2861 4703 
Q 3103 4656 3366 4563 
z
" transform="scale(0.015625)"/>
       </defs>
       <use xlink:href="#DejaVuSans-36"/>
       <use xlink:href="#DejaVuSans-30" transform="translate(63.623047 0)"/>
       <use xlink:href="#DejaVuSans-30" transform="translate(127.246094 0)"/>
       <use xlink:href="#DejaVuSans-30" transform="translate(190.869141 0)"/>
       <use xlink:href="#DejaVuSans-30" transform="translate(254.492188 0)"/>
      </g>
     </g>
    </g>
    <g id="xtick_5">
     <g id="line2d_9">
      <path d="M 804.20145 525.3 
L 804.20145 50.96 
" clip-path="url(#p2c16037b52)" style="fill: none; stroke-dasharray: 1.85,0.8; stroke-dashoffset: 0; stroke: #cccccc; stroke-width: 0.5"/>
     </g>
     <g id="line2d_10"/>
     <g id="text_5">
      <!-- 80000 -->
      <g style="fill: #262626" transform="translate(781.9327 539.437813) scale(0.14 -0.14)">
       <defs>
        <path id="DejaVuSans-38" d="M 2034 2216 
Q 1584 2216 1326 1975 
Q 1069 1734 1069 1313 
Q 1069 891 1326 650 
Q 1584 409 2034 409 
Q 2484 409 2743 651 
Q 3003 894 3003 1313 
Q 3003 1734 2745 1975 
Q 2488 2216 2034 2216 
z
M 1403 2484 
Q 997 2584 770 2862 
Q 544 3141 544 3541 
Q 544 4100 942 4425 
Q 1341 4750 2034 4750 
Q 2731 4750 3128 4425 
Q 3525 4100 3525 3541 
Q 3525 3141 3298 2862 
Q 3072 2584 2669 2484 
Q 3125 2378 3379 2068 
Q 3634 1759 3634 1313 
Q 3634 634 3220 271 
Q 2806 -91 2034 -91 
Q 1263 -91 848 271 
Q 434 634 434 1313 
Q 434 1759 690 2068 
Q 947 2378 1403 2484 
z
M 1172 3481 
Q 1172 3119 1398 2916 
Q 1625 2713 2034 2713 
Q 2441 2713 2670 2916 
Q 2900 3119 2900 3481 
Q 2900 3844 2670 4047 
Q 2441 4250 2034 4250 
Q 1625 4250 1398 4047 
Q 1172 3844 1172 3481 
z
" transform="scale(0.015625)"/>
       </defs>
       <use xlink:href="#DejaVuSans-38"/>
       <use xlink:href="#DejaVuSans-30" transform="translate(63.623047 0)"/>
       <use xlink:href="#DejaVuSans-30" transform="translate(127.246094 0)"/>
       <use xlink:href="#DejaVuSans-30" transform="translate(190.869141 0)"/>
       <use xlink:href="#DejaVuSans-30" transform="translate(254.492188 0)"/>
      </g>
     </g>
    </g>
    <g id="xtick_6">
     <g id="line2d_11">
      <path d="M 977.368636 525.3 
L 977.368636 50.96 
" clip-path="url(#p2c16037b52)" style="fill: none; stroke-dasharray: 1.85,0.8; stroke-dashoffset: 0; stroke: #cccccc; stroke-width: 0.5"/>
     </g>
     <g id="line2d_12"/>
     <g id="text_6">
      <!-- 100000 -->
      <g style="fill: #262626" transform="translate(950.646136 539.437813) scale(0.14 -0.14)">
       <defs>
        <path id="DejaVuSans-31" d="M 794 531 
L 1825 531 
L 1825 4091 
L 703 3866 
L 703 4441 
L 1819 4666 
L 2450 4666 
L 2450 531 
L 3481 531 
L 3481 0 
L 794 0 
L 794 531 
z
" transform="scale(0.015625)"/>
       </defs>
       <use xlink:href="#DejaVuSans-31"/>
       <use xlink:href="#DejaVuSans-30" transform="translate(63.623047 0)"/>
       <use xlink:href="#DejaVuSans-30" transform="translate(127.246094 0)"/>
       <use xlink:href="#DejaVuSans-30" transform="translate(190.869141 0)"/>
       <use xlink:href="#DejaVuSans-30" transform="translate(254.492188 0)"/>
       <use xlink:href="#DejaVuSans-30" transform="translate(318.115234 0)"/>
      </g>
     </g>
    </g>
    <g id="text_7">
     <!-- Block Number -->
     <g style="fill: #262626" transform="translate(488.1375 558.506875) scale(0.16 -0.16)">
      <defs>
       <path id="DejaVuSans-42" d="M 1259 2228 
L 1259 519 
L 2272 519 
Q 2781 519 3026 730 
Q 3272 941 3272 1375 
Q 3272 1813 3026 2020 
Q 2781 2228 2272 2228 
L 1259 2228 
z
M 1259 4147 
L 1259 2741 
L 2194 2741 
Q 2656 2741 2882 2914 
Q 3109 3088 3109 3444 
Q 3109 3797 2882 3972 
Q 2656 4147 2194 4147 
L 1259 4147 
z
M 628 4666 
L 2241 4666 
Q 2963 4666 3353 4366 
Q 3744 4066 3744 3513 
Q 3744 3084 3544 2831 
Q 3344 2578 2956 2516 
Q 3422 2416 3680 2098 
Q 3938 1781 3938 1306 
Q 3938 681 3513 340 
Q 3088 0 2303 0 
L 628 0 
L 628 4666 
z
" transform="scale(0.015625)"/>
       <path id="DejaVuSans-6c" d="M 603 4863 
L 1178 4863 
L 1178 0 
L 603 0 
L 603 4863 
z
" transform="scale(0.015625)"/>
       <path id="DejaVuSans-6f" d="M 1959 3097 
Q 1497 3097 1228 2736 
Q 959 2375 959 1747 
Q 959 1119 1226 758 
Q 1494 397 1959 397 
Q 2419 397 2687 759 
Q 2956 1122 2956 1747 
Q 2956 2369 2687 2733 
Q 2419 3097 1959 3097 
z
M 1959 3584 
Q 2709 3584 3137 3096 
Q 3566 2609 3566 1747 
Q 3566 888 3137 398 
Q 2709 -91 1959 -91 
Q 1206 -91 779 398 
Q 353 888 353 1747 
Q 353 2609 779 3096 
Q 1206 3584 1959 3584 
z
" transform="scale(0.015625)"/>
       <path id="DejaVuSans-63" d="M 3122 3366 
L 3122 2828 
Q 2878 2963 2633 3030 
Q 2388 3097 2138 3097 
Q 1578 3097 1268 2742 
Q 959 2388 959 1747 
Q 959 1106 1268 751 
Q 1578 397 2138 397 
Q 2388 397 2633 464 
Q 2878 531 3122 666 
L 3122 134 
Q 2881 22 2623 -34 
Q 2366 -91 2075 -91 
Q 1284 -91 818 406 
Q 353 903 353 1747 
Q 353 2603 823 3093 
Q 1294 3584 2113 3584 
Q 2378 3584 2631 3529 
Q 2884 3475 3122 3366 
z
" transform="scale(0.015625)"/>
       <path id="DejaVuSans-6b" d="M 581 4863 
L 1159 4863 
L 1159 1991 
L 2875 3500 
L 3609 3500 
L 1753 1863 
L 3688 0 
L 2938 0 
L 1159 1709 
L 1159 0 
L 581 0 
L 581 4863 
z
" transform="scale(0.015625)"/>
       <path id="DejaVuSans-20" transform="scale(0.015625)"/>
       <path id="DejaVuSans-4e" d="M 628 4666 
L 1478 4666 
L 3547 763 
L 3547 4666 
L 4159 4666 
L 4159 0 
L 3309 0 
L 1241 3903 
L 1241 0 
L 628 0 
L 628 4666 
z
" transform="scale(0.015625)"/>
       <path id="DejaVuSans-75" d="M 544 1381 
L 544 3500 
L 1119 3500 
L 1119 1403 
Q 1119 906 1312 657 
Q 1506 409 1894 409 
Q 2359 409 2629 706 
Q 2900 1003 2900 1516 
L 2900 3500 
L 3475 3500 
L 3475 0 
L 2900 0 
L 2900 538 
Q 2691 219 2414 64 
Q 2138 -91 1772 -91 
Q 1169 -91 856 284 
Q 544 659 544 1381 
z
M 1991 3584 
L 1991 3584 
z
" transform="scale(0.015625)"/>
       <path id="DejaVuSans-6d" d="M 3328 2828 
Q 3544 3216 3844 3400 
Q 4144 3584 4550 3584 
Q 5097 3584 5394 3201 
Q 5691 2819 5691 2113 
L 5691 0 
L 5113 0 
L 5113 2094 
Q 5113 2597 4934 2840 
Q 4756 3084 4391 3084 
Q 3944 3084 3684 2787 
Q 3425 2491 3425 1978 
L 3425 0 
L 2847 0 
L 2847 2094 
Q 2847 2600 2669 2842 
Q 2491 3084 2119 3084 
Q 1678 3084 1418 2786 
Q 1159 2488 1159 1978 
L 1159 0 
L 581 0 
L 581 3500 
L 1159 3500 
L 1159 2956 
Q 1356 3278 1631 3431 
Q 1906 3584 2284 3584 
Q 2666 3584 2933 3390 
Q 3200 3197 3328 2828 
z
" transform="scale(0.015625)"/>
       <path id="DejaVuSans-62" d="M 3116 1747 
Q 3116 2381 2855 2742 
Q 2594 3103 2138 3103 
Q 1681 3103 1420 2742 
Q 1159 2381 1159 1747 
Q 1159 1113 1420 752 
Q 1681 391 2138 391 
Q 2594 391 2855 752 
Q 3116 1113 3116 1747 
z
M 1159 2969 
Q 1341 3281 1617 3432 
Q 1894 3584 2278 3584 
Q 2916 3584 3314 3078 
Q 3713 2572 3713 1747 
Q 3713 922 3314 415 
Q 2916 -91 2278 -91 
Q 1894 -91 1617 61 
Q 1341 213 1159 525 
L 1159 0 
L 581 0 
L 581 4863 
L 1159 4863 
L 1159 2969 
z
" transform="scale(0.015625)"/>
       <path id="DejaVuSans-65" d="M 3597 1894 
L 3597 1613 
L 953 1613 
Q 991 1019 1311 708 
Q 1631 397 2203 397 
Q 2534 397 2845 478 
Q 3156 559 3463 722 
L 3463 178 
Q 3153 47 2828 -22 
Q 2503 -91 2169 -91 
Q 1331 -91 842 396 
Q 353 884 353 1716 
Q 353 2575 817 3079 
Q 1281 3584 2069 3584 
Q 2775 3584 3186 3129 
Q 3597 2675 3597 1894 
z
M 3022 2063 
Q 3016 2534 2758 2815 
Q 2500 3097 2075 3097 
Q 1594 3097 1305 2825 
Q 1016 2553 972 2059 
L 3022 2063 
z
" transform="scale(0.015625)"/>
       <path id="DejaVuSans-72" d="M 2631 2963 
Q 2534 3019 2420 3045 
Q 2306 3072 2169 3072 
Q 1681 3072 1420 2755 
Q 1159 2438 1159 1844 
L 1159 0 
L 581 0 
L 581 3500 
L 1159 3500 
L 1159 2956 
Q 1341 3275 1631 3429 
Q 1922 3584 2338 3584 
Q 2397 3584 2469 3576 
Q 2541 3569 2628 3553 
L 2631 2963 
z
" transform="scale(0.015625)"/>
      </defs>
      <use xlink:href="#DejaVuSans-42"/>
      <use xlink:href="#DejaVuSans-6c" transform="translate(68.603516 0)"/>
      <use xlink:href="#DejaVuSans-6f" transform="translate(96.386719 0)"/>
      <use xlink:href="#DejaVuSans-63" transform="translate(157.568359 0)"/>
      <use xlink:href="#DejaVuSans-6b" transform="translate(212.548828 0)"/>
      <use xlink:href="#DejaVuSans-20" transform="translate(270.458984 0)"/>
      <use xlink:href="#DejaVuSans-4e" transform="translate(302.246094 0)"/>
      <use xlink:href="#DejaVuSans-75" transform="translate(377.050781 0)"/>
      <use xlink:href="#DejaVuSans-6d" transform="translate(440.429688 0)"/>
      <use xlink:href="#DejaVuSans-62" transform="translate(537.841797 0)"/>
      <use xlink:href="#DejaVuSans-65" transform="translate(601.318359 0)"/>
      <use xlink:href="#DejaVuSans-72" transform="translate(662.841797 0)"/>
     </g>
    </g>
   </g>
   <g id="matplotlib.axis_2">
    <g id="ytick_1">
     <g id="line2d_13">
      <path d="M 68.25 486.490364 
L 1020.66 486.490364 
" clip-path="url(#p2c16037b52)" style="fill: none; stroke-dasharray: 1.85,0.8; stroke-dashoffset: 0; stroke: #cccccc; stroke-width: 0.5"/>
     </g>
     <g id="line2d_14"/>
     <g id="text_8">
      <!-- 0.94 -->
      <g style="fill: #000080" transform="translate(33.578125 491.80927) scale(0.14 -0.14)">
       <defs>
        <path id="DejaVuSans-2e" d="M 684 794 
L 1344 794 
L 1344 0 
L 684 0 
L 684 794 
z
" transform="scale(0.015625)"/>
        <path id="DejaVuSans-39" d="M 703 97 
L 703 672 
Q 941 559 1184 500 
Q 1428 441 1663 441 
Q 2288 441 2617 861 
Q 2947 1281 2994 2138 
Q 2813 1869 2534 1725 
Q 2256 1581 1919 1581 
Q 1219 1581 811 2004 
Q 403 2428 403 3163 
Q 403 3881 828 4315 
Q 1253 4750 1959 4750 
Q 2769 4750 3195 4129 
Q 3622 3509 3622 2328 
Q 3622 1225 3098 567 
Q 2575 -91 1691 -91 
Q 1453 -91 1209 -44 
Q 966 3 703 97 
z
M 1959 2075 
Q 2384 2075 2632 2365 
Q 2881 2656 2881 3163 
Q 2881 3666 2632 3958 
Q 2384 4250 1959 4250 
Q 1534 4250 1286 3958 
Q 1038 3666 1038 3163 
Q 1038 2656 1286 2365 
Q 1534 2075 1959 2075 
z
" transform="scale(0.015625)"/>
       </defs>
       <use xlink:href="#DejaVuSans-30"/>
       <use xlink:href="#DejaVuSans-2e" transform="translate(63.623047 0)"/>
       <use xlink:href="#DejaVuSans-39" transform="translate(95.410156 0)"/>
       <use xlink:href="#DejaVuSans-34" transform="translate(159.033203 0)"/>
      </g>
     </g>
    </g>
    <g id="ytick_2">
     <g id="line2d_15">
      <path d="M 68.25 417.495455 
L 1020.66 417.495455 
" clip-path="url(#p2c16037b52)" style="fill: none; stroke-dasharray: 1.85,0.8; stroke-dashoffset: 0; stroke: #cccccc; stroke-width: 0.5"/>
     </g>
     <g id="line2d_16"/>
     <g id="text_9">
      <!-- 0.95 -->
      <g style="fill: #000080" transform="translate(33.578125 422.814361) scale(0.14 -0.14)">
       <defs>
        <path id="DejaVuSans-35" d="M 691 4666 
L 3169 4666 
L 3169 4134 
L 1269 4134 
L 1269 2991 
Q 1406 3038 1543 3061 
Q 1681 3084 1819 3084 
Q 2600 3084 3056 2656 
Q 3513 2228 3513 1497 
Q 3513 744 3044 326 
Q 2575 -91 1722 -91 
Q 1428 -91 1123 -41 
Q 819 9 494 109 
L 494 744 
Q 775 591 1075 516 
Q 1375 441 1709 441 
Q 2250 441 2565 725 
Q 2881 1009 2881 1497 
Q 2881 1984 2565 2268 
Q 2250 2553 1709 2553 
Q 1456 2553 1204 2497 
Q 953 2441 691 2322 
L 691 4666 
z
" transform="scale(0.015625)"/>
       </defs>
       <use xlink:href="#DejaVuSans-30"/>
       <use xlink:href="#DejaVuSans-2e" transform="translate(63.623047 0)"/>
       <use xlink:href="#DejaVuSans-39" transform="translate(95.410156 0)"/>
       <use xlink:href="#DejaVuSans-35" transform="translate(159.033203 0)"/>
      </g>
     </g>
    </g>
    <g id="ytick_3">
     <g id="line2d_17">
      <path d="M 68.25 348.500545 
L 1020.66 348.500545 
" clip-path="url(#p2c16037b52)" style="fill: none; stroke-dasharray: 1.85,0.8; stroke-dashoffset: 0; stroke: #cccccc; stroke-width: 0.5"/>
     </g>
     <g id="line2d_18"/>
     <g id="text_10">
      <!-- 0.96 -->
      <g style="fill: #000080" transform="translate(33.578125 353.819452) scale(0.14 -0.14)">
       <use xlink:href="#DejaVuSans-30"/>
       <use xlink:href="#DejaVuSans-2e" transform="translate(63.623047 0)"/>
       <use xlink:href="#DejaVuSans-39" transform="translate(95.410156 0)"/>
       <use xlink:href="#DejaVuSans-36" transform="translate(159.033203 0)"/>
      </g>
     </g>
    </g>
    <g id="ytick_4">
     <g id="line2d_19">
      <path d="M 68.25 279.505636 
L 1020.66 279.505636 
" clip-path="url(#p2c16037b52)" style="fill: none; stroke-dasharray: 1.85,0.8; stroke-dashoffset: 0; stroke: #cccccc; stroke-width: 0.5"/>
     </g>
     <g id="line2d_20"/>
     <g id="text_11">
      <!-- 0.97 -->
      <g style="fill: #000080" transform="translate(33.578125 284.824543) scale(0.14 -0.14)">
       <defs>
        <path id="DejaVuSans-37" d="M 525 4666 
L 3525 4666 
L 3525 4397 
L 1831 0 
L 1172 0 
L 2766 4134 
L 525 4134 
L 525 4666 
z
" transform="scale(0.015625)"/>
       </defs>
       <use xlink:href="#DejaVuSans-30"/>
       <use xlink:href="#DejaVuSans-2e" transform="translate(63.623047 0)"/>
       <use xlink:href="#DejaVuSans-39" transform="translate(95.410156 0)"/>
       <use xlink:href="#DejaVuSans-37" transform="translate(159.033203 0)"/>
      </g>
     </g>
    </g>
    <g id="ytick_5">
     <g id="line2d_21">
      <path d="M 68.25 210.510727 
L 1020.66 210.510727 
" clip-path="url(#p2c16037b52)" style="fill: none; stroke-dasharray: 1.85,0.8; stroke-dashoffset: 0; stroke: #cccccc; stroke-width: 0.5"/>
     </g>
     <g id="line2d_22"/>
     <g id="text_12">
      <!-- 0.98 -->
      <g style="fill: #000080" transform="translate(33.578125 215.829634) scale(0.14 -0.14)">
       <use xlink:href="#DejaVuSans-30"/>
       <use xlink:href="#DejaVuSans-2e" transform="translate(63.623047 0)"/>
       <use xlink:href="#DejaVuSans-39" transform="translate(95.410156 0)"/>
       <use xlink:href="#DejaVuSans-38" transform="translate(159.033203 0)"/>
      </g>
     </g>
    </g>
    <g id="ytick_6">
     <g id="line2d_23">
      <path d="M 68.25 141.515818 
L 1020.66 141.515818 
" clip-path="url(#p2c16037b52)" style="fill: none; stroke-dasharray: 1.85,0.8; stroke-dashoffset: 0; stroke: #cccccc; stroke-width: 0.5"/>
     </g>
     <g id="line2d_24"/>
     <g id="text_13">
      <!-- 0.99 -->
      <g style="fill: #000080" transform="translate(33.578125 146.834724) scale(0.14 -0.14)">
       <use xlink:href="#DejaVuSans-30"/>
       <use xlink:href="#DejaVuSans-2e" transform="translate(63.623047 0)"/>
       <use xlink:href="#DejaVuSans-39" transform="translate(95.410156 0)"/>
       <use xlink:href="#DejaVuSans-39" transform="translate(159.033203 0)"/>
      </g>
     </g>
    </g>
    <g id="ytick_7">
     <g id="line2d_25">
      <path d="M 68.25 72.520909 
L 1020.66 72.520909 
" clip-path="url(#p2c16037b52)" style="fill: none; stroke-dasharray: 1.85,0.8; stroke-dashoffset: 0; stroke: #cccccc; stroke-width: 0.5"/>
     </g>
     <g id="line2d_26"/>
     <g id="text_14">
      <!-- 1.00 -->
      <g style="fill: #000080" transform="translate(33.578125 77.839815) scale(0.14 -0.14)">
       <use xlink:href="#DejaVuSans-31"/>
       <use xlink:href="#DejaVuSans-2e" transform="translate(63.623047 0)"/>
       <use xlink:href="#DejaVuSans-30" transform="translate(95.410156 0)"/>
       <use xlink:href="#DejaVuSans-30" transform="translate(159.033203 0)"/>
      </g>
     </g>
    </g>
    <g id="text_15">
     <!-- Highest-Hashrate Node's Mining Share -->
     <g style="fill: #000080" transform="translate(26.250625 442.56) rotate(-90) scale(0.16 -0.16)">
      <defs>
       <path id="DejaVuSans-48" d="M 628 4666 
L 1259 4666 
L 1259 2753 
L 3553 2753 
L 3553 4666 
L 4184 4666 
L 4184 0 
L 3553 0 
L 3553 2222 
L 1259 2222 
L 1259 0 
L 628 0 
L 628 4666 
z
" transform="scale(0.015625)"/>
       <path id="DejaVuSans-69" d="M 603 3500 
L 1178 3500 
L 1178 0 
L 603 0 
L 603 3500 
z
M 603 4863 
L 1178 4863 
L 1178 4134 
L 603 4134 
L 603 4863 
z
" transform="scale(0.015625)"/>
       <path id="DejaVuSans-67" d="M 2906 1791 
Q 2906 2416 2648 2759 
Q 2391 3103 1925 3103 
Q 1463 3103 1205 2759 
Q 947 2416 947 1791 
Q 947 1169 1205 825 
Q 1463 481 1925 481 
Q 2391 481 2648 825 
Q 2906 1169 2906 1791 
z
M 3481 434 
Q 3481 -459 3084 -895 
Q 2688 -1331 1869 -1331 
Q 1566 -1331 1297 -1286 
Q 1028 -1241 775 -1147 
L 775 -588 
Q 1028 -725 1275 -790 
Q 1522 -856 1778 -856 
Q 2344 -856 2625 -561 
Q 2906 -266 2906 331 
L 2906 616 
Q 2728 306 2450 153 
Q 2172 0 1784 0 
Q 1141 0 747 490 
Q 353 981 353 1791 
Q 353 2603 747 3093 
Q 1141 3584 1784 3584 
Q 2172 3584 2450 3431 
Q 2728 3278 2906 2969 
L 2906 3500 
L 3481 3500 
L 3481 434 
z
" transform="scale(0.015625)"/>
       <path id="DejaVuSans-68" d="M 3513 2113 
L 3513 0 
L 2938 0 
L 2938 2094 
Q 2938 2591 2744 2837 
Q 2550 3084 2163 3084 
Q 1697 3084 1428 2787 
Q 1159 2491 1159 1978 
L 1159 0 
L 581 0 
L 581 4863 
L 1159 4863 
L 1159 2956 
Q 1366 3272 1645 3428 
Q 1925 3584 2291 3584 
Q 2894 3584 3203 3211 
Q 3513 2838 3513 2113 
z
" transform="scale(0.015625)"/>
       <path id="DejaVuSans-73" d="M 2834 3397 
L 2834 2853 
Q 2591 2978 2328 3040 
Q 2066 3103 1784 3103 
Q 1356 3103 1142 2972 
Q 928 2841 928 2578 
Q 928 2378 1081 2264 
Q 1234 2150 1697 2047 
L 1894 2003 
Q 2506 1872 2764 1633 
Q 3022 1394 3022 966 
Q 3022 478 2636 193 
Q 2250 -91 1575 -91 
Q 1294 -91 989 -36 
Q 684 19 347 128 
L 347 722 
Q 666 556 975 473 
Q 1284 391 1588 391 
Q 1994 391 2212 530 
Q 2431 669 2431 922 
Q 2431 1156 2273 1281 
Q 2116 1406 1581 1522 
L 1381 1569 
Q 847 1681 609 1914 
Q 372 2147 372 2553 
Q 372 3047 722 3315 
Q 1072 3584 1716 3584 
Q 2034 3584 2315 3537 
Q 2597 3491 2834 3397 
z
" transform="scale(0.015625)"/>
       <path id="DejaVuSans-74" d="M 1172 4494 
L 1172 3500 
L 2356 3500 
L 2356 3053 
L 1172 3053 
L 1172 1153 
Q 1172 725 1289 603 
Q 1406 481 1766 481 
L 2356 481 
L 2356 0 
L 1766 0 
Q 1100 0 847 248 
Q 594 497 594 1153 
L 594 3053 
L 172 3053 
L 172 3500 
L 594 3500 
L 594 4494 
L 1172 4494 
z
" transform="scale(0.015625)"/>
       <path id="DejaVuSans-2d" d="M 313 2009 
L 1997 2009 
L 1997 1497 
L 313 1497 
L 313 2009 
z
" transform="scale(0.015625)"/>
       <path id="DejaVuSans-61" d="M 2194 1759 
Q 1497 1759 1228 1600 
Q 959 1441 959 1056 
Q 959 750 1161 570 
Q 1363 391 1709 391 
Q 2188 391 2477 730 
Q 2766 1069 2766 1631 
L 2766 1759 
L 2194 1759 
z
M 3341 1997 
L 3341 0 
L 2766 0 
L 2766 531 
Q 2569 213 2275 61 
Q 1981 -91 1556 -91 
Q 1019 -91 701 211 
Q 384 513 384 1019 
Q 384 1609 779 1909 
Q 1175 2209 1959 2209 
L 2766 2209 
L 2766 2266 
Q 2766 2663 2505 2880 
Q 2244 3097 1772 3097 
Q 1472 3097 1187 3025 
Q 903 2953 641 2809 
L 641 3341 
Q 956 3463 1253 3523 
Q 1550 3584 1831 3584 
Q 2591 3584 2966 3190 
Q 3341 2797 3341 1997 
z
" transform="scale(0.015625)"/>
       <path id="DejaVuSans-64" d="M 2906 2969 
L 2906 4863 
L 3481 4863 
L 3481 0 
L 2906 0 
L 2906 525 
Q 2725 213 2448 61 
Q 2172 -91 1784 -91 
Q 1150 -91 751 415 
Q 353 922 353 1747 
Q 353 2572 751 3078 
Q 1150 3584 1784 3584 
Q 2172 3584 2448 3432 
Q 2725 3281 2906 2969 
z
M 947 1747 
Q 947 1113 1208 752 
Q 1469 391 1925 391 
Q 2381 391 2643 752 
Q 2906 1113 2906 1747 
Q 2906 2381 2643 2742 
Q 2381 3103 1925 3103 
Q 1469 3103 1208 2742 
Q 947 2381 947 1747 
z
" transform="scale(0.015625)"/>
       <path id="DejaVuSans-27" d="M 1147 4666 
L 1147 2931 
L 616 2931 
L 616 4666 
L 1147 4666 
z
" transform="scale(0.015625)"/>
       <path id="DejaVuSans-4d" d="M 628 4666 
L 1569 4666 
L 2759 1491 
L 3956 4666 
L 4897 4666 
L 4897 0 
L 4281 0 
L 4281 4097 
L 3078 897 
L 2444 897 
L 1241 4097 
L 1241 0 
L 628 0 
L 628 4666 
z
" transform="scale(0.015625)"/>
       <path id="DejaVuSans-6e" d="M 3513 2113 
L 3513 0 
L 2938 0 
L 2938 2094 
Q 2938 2591 2744 2837 
Q 2550 3084 2163 3084 
Q 1697 3084 1428 2787 
Q 1159 2491 1159 1978 
L 1159 0 
L 581 0 
L 581 3500 
L 1159 3500 
L 1159 2956 
Q 1366 3272 1645 3428 
Q 1925 3584 2291 3584 
Q 2894 3584 3203 3211 
Q 3513 2838 3513 2113 
z
" transform="scale(0.015625)"/>
       <path id="DejaVuSans-53" d="M 3425 4513 
L 3425 3897 
Q 3066 4069 2747 4153 
Q 2428 4238 2131 4238 
Q 1616 4238 1336 4038 
Q 1056 3838 1056 3469 
Q 1056 3159 1242 3001 
Q 1428 2844 1947 2747 
L 2328 2669 
Q 3034 2534 3370 2195 
Q 3706 1856 3706 1288 
Q 3706 609 3251 259 
Q 2797 -91 1919 -91 
Q 1588 -91 1214 -16 
Q 841 59 441 206 
L 441 856 
Q 825 641 1194 531 
Q 1563 422 1919 422 
Q 2459 422 2753 634 
Q 3047 847 3047 1241 
Q 3047 1584 2836 1778 
Q 2625 1972 2144 2069 
L 1759 2144 
Q 1053 2284 737 2584 
Q 422 2884 422 3419 
Q 422 4038 858 4394 
Q 1294 4750 2059 4750 
Q 2388 4750 2728 4690 
Q 3069 4631 3425 4513 
z
" transform="scale(0.015625)"/>
      </defs>
      <use xlink:href="#DejaVuSans-48"/>
      <use xlink:href="#DejaVuSans-69" transform="translate(75.195312 0)"/>
      <use xlink:href="#DejaVuSans-67" transform="translate(102.978516 0)"/>
      <use xlink:href="#DejaVuSans-68" transform="translate(166.455078 0)"/>
      <use xlink:href="#DejaVuSans-65" transform="translate(229.833984 0)"/>
      <use xlink:href="#DejaVuSans-73" transform="translate(291.357422 0)"/>
      <use xlink:href="#DejaVuSans-74" transform="translate(343.457031 0)"/>
      <use xlink:href="#DejaVuSans-2d" transform="translate(382.666016 0)"/>
      <use xlink:href="#DejaVuSans-48" transform="translate(418.75 0)"/>
      <use xlink:href="#DejaVuSans-61" transform="translate(493.945312 0)"/>
      <use xlink:href="#DejaVuSans-73" transform="translate(555.224609 0)"/>
      <use xlink:href="#DejaVuSans-68" transform="translate(607.324219 0)"/>
      <use xlink:href="#DejaVuSans-72" transform="translate(670.703125 0)"/>
      <use xlink:href="#DejaVuSans-61" transform="translate(711.816406 0)"/>
      <use xlink:href="#DejaVuSans-74" transform="translate(773.095703 0)"/>
      <use xlink:href="#DejaVuSans-65" transform="translate(812.304688 0)"/>
      <use xlink:href="#DejaVuSans-20" transform="translate(873.828125 0)"/>
      <use xlink:href="#DejaVuSans-4e" transform="translate(905.615234 0)"/>
      <use xlink:href="#DejaVuSans-6f" transform="translate(980.419922 0)"/>
      <use xlink:href="#DejaVuSans-64" transform="translate(1041.601562 0)"/>
      <use xlink:href="#DejaVuSans-65" transform="translate(1105.078125 0)"/>
      <use xlink:href="#DejaVuSans-27" transform="translate(1166.601562 0)"/>
      <use xlink:href="#DejaVuSans-73" transform="translate(1194.091797 0)"/>
      <use xlink:href="#DejaVuSans-20" transform="translate(1246.191406 0)"/>
      <use xlink:href="#DejaVuSans-4d" transform="translate(1277.978516 0)"/>
      <use xlink:href="#DejaVuSans-69" transform="translate(1364.257812 0)"/>
      <use xlink:href="#DejaVuSans-6e" transform="translate(1392.041016 0)"/>
      <use xlink:href="#DejaVuSans-69" transform="translate(1455.419922 0)"/>
      <use xlink:href="#DejaVuSans-6e" transform="translate(1483.203125 0)"/>
      <use xlink:href="#DejaVuSans-67" transform="translate(1546.582031 0)"/>
      <use xlink:href="#DejaVuSans-20" transform="translate(1610.058594 0)"/>
      <use xlink:href="#DejaVuSans-53" transform="translate(1641.845703 0)"/>
      <use xlink:href="#DejaVuSans-68" transform="translate(1705.322266 0)"/>
      <use xlink:href="#DejaVuSans-61" transform="translate(1768.701172 0)"/>
      <use xlink:href="#DejaVuSans-72" transform="translate(1829.980469 0)"/>
      <use xlink:href="#DejaVuSans-65" transform="translate(1868.84375 0)"/>
     </g>
    </g>
   </g>
   <g id="line2d_27">
    <path d="M 111.541364 72.520909 
L 111.922331 72.520909 
L 111.939648 503.739091 
L 112.026232 72.520909 
L 116.926863 72.520909 
L 116.935521 94.59928 
L 117.030763 72.520909 
L 117.169297 72.520909 
L 117.195272 104.189572 
L 117.290514 103.637613 
L 117.584898 102.119725 
L 117.602215 102.05073 
L 117.861966 100.808822 
L 117.887941 100.739827 
L 117.905258 100.670832 
L 117.913916 119.299457 
L 118.009158 100.187868 
L 118.026475 100.118873 
L 118.242934 99.221939 
L 118.268909 99.152944 
L 118.476709 98.325005 
L 118.502685 98.25601 
L 118.701827 97.497066 
L 118.73646 97.428071 
L 118.926944 96.738122 
L 118.961578 96.669127 
L 119.143403 96.048173 
L 119.178037 95.979178 
L 119.351204 95.427219 
L 119.385837 95.358224 
L 119.550346 94.87526 
L 119.584979 94.806265 
L 119.749488 94.3233 
L 119.784122 94.254305 
L 119.939972 93.840336 
L 119.974606 93.771341 
L 120.130456 93.357372 
L 120.173748 93.288377 
L 120.329598 92.874407 
L 120.381548 92.805412 
L 120.537399 92.391443 
L 120.598007 92.322448 
L 120.7452 91.977473 
L 120.788491 91.908479 
L 120.935683 91.563504 
L 120.987634 91.494509 
L 121.126167 91.218529 
L 121.169459 91.149535 
L 121.316651 90.80456 
L 121.385918 90.735565 
L 121.524452 90.459585 
L 121.576402 90.390591 
L 121.714936 90.114611 
L 121.775544 90.045616 
L 121.827494 89.907626 
L 121.836153 101.498771 
L 121.90542 89.769636 
L 121.931395 89.769636 
L 121.983345 89.700641 
L 122.121879 89.424662 
L 122.199804 89.355667 
L 122.338338 89.079687 
L 122.416263 89.010692 
L 122.546138 88.803708 
L 122.606747 88.734713 
L 122.736622 88.527728 
L 122.797231 88.458733 
L 122.927106 88.251748 
L 122.996373 88.182753 
L 123.126248 87.975769 
L 123.204174 87.906774 
L 123.334049 87.699789 
L 123.411974 87.630794 
L 123.54185 87.423809 
L 123.637092 87.354815 
L 123.732334 87.216825 
L 123.74965 101.843745 
L 123.818917 87.078835 
L 123.836234 87.078835 
L 123.922817 87.00984 
L 124.052693 86.802855 
L 124.165252 86.73386 
L 124.182568 86.664865 
L 124.191227 96.117168 
L 124.234518 86.595871 
L 124.286469 86.595871 
L 124.355735 86.526876 
L 124.476952 86.388886 
L 124.546219 86.319891 
L 124.667436 86.181901 
L 124.745362 86.112906 
L 124.866579 85.974916 
L 124.953162 85.905921 
L 125.074379 85.767932 
L 125.160963 85.698937 
L 125.28218 85.560947 
L 125.377422 85.491952 
L 125.498639 85.353962 
L 125.611198 85.284967 
L 125.732415 85.146977 
L 125.836315 85.077983 
L 125.957532 84.939993 
L 126.078749 84.870998 
L 126.199966 84.733008 
L 126.329841 84.664013 
L 126.451058 84.526023 
L 126.589592 84.457028 
L 126.710809 84.319039 
L 126.849343 84.250044 
L 126.97056 84.112054 
L 127.12641 84.043059 
L 127.247627 83.905069 
L 127.412136 83.836074 
L 127.533353 83.698084 
L 127.715179 83.629089 
L 127.836396 83.4911 
L 128.018221 83.422105 
L 128.139438 83.284115 
L 128.338581 83.21512 
L 128.459798 83.07713 
L 128.676257 83.008135 
L 128.797474 82.870145 
L 129.022591 82.801151 
L 129.143808 82.663161 
L 129.377584 82.594166 
L 129.490142 82.525171 
L 129.628676 82.456176 
L 129.741235 82.387181 
L 129.888427 82.318186 
L 130.000986 82.249191 
L 130.148178 82.180196 
L 130.260736 82.111201 
L 130.416587 82.042207 
L 130.529146 81.973212 
L 130.702313 81.904217 
L 130.814871 81.835222 
L 130.988039 81.766227 
L 131.100597 81.697232 
L 131.282423 81.628237 
L 131.394982 81.559242 
L 131.585465 81.490247 
L 131.698024 81.421252 
L 131.897166 81.352257 
L 132.009725 81.283263 
L 132.226184 81.214268 
L 132.338743 81.145273 
L 132.56386 81.076278 
L 132.676419 81.007283 
L 132.910194 80.938288 
L 133.022753 80.869293 
L 133.265187 80.800298 
L 133.377746 80.731303 
L 133.637497 80.662308 
L 133.750055 80.593313 
L 134.018464 80.524319 
L 134.131023 80.455324 
L 134.416749 80.386329 
L 134.529308 80.317334 
L 134.823692 80.248339 
L 134.93625 80.179344 
L 135.247951 80.110349 
L 135.36051 80.041354 
L 135.689528 79.972359 
L 135.802086 79.903364 
L 136.148421 79.834369 
L 136.260979 79.765375 
L 136.624631 79.69638 
L 136.737189 79.627385 
L 137.118157 79.55839 
L 137.230716 79.489395 
L 137.637659 79.4204 
L 137.750217 79.351405 
L 138.165819 79.28241 
L 138.278377 79.213415 
L 138.728612 79.14442 
L 138.841171 79.075425 
L 139.308722 79.006431 
L 139.421281 78.937436 
L 139.914807 78.868441 
L 140.027366 78.799446 
L 140.546867 78.730451 
L 140.659426 78.661456 
L 141.213561 78.592461 
L 141.32612 78.523466 
L 141.90623 78.454471 
L 142.018788 78.385476 
L 142.633532 78.316481 
L 142.746091 78.247487 
L 143.395468 78.178492 
L 143.508026 78.109497 
L 144.200695 78.040502 
L 144.313254 77.971507 
L 145.040556 77.902512 
L 145.153114 77.833517 
L 145.932367 77.764522 
L 146.044925 77.695527 
L 146.86747 77.626532 
L 146.980028 77.557537 
L 147.854523 77.488543 
L 147.967081 77.419548 
L 148.902184 77.350553 
L 149.014743 77.281558 
L 150.010454 77.212563 
L 150.123013 77.143568 
L 151.187991 77.074573 
L 151.30055 77.005578 
L 152.434795 76.936583 
L 152.547353 76.867588 
L 153.768182 76.798593 
L 153.880741 76.729599 
L 155.188153 76.660604 
L 155.300712 76.591609 
L 156.703366 76.522614 
L 156.815924 76.453619 
L 158.331137 76.384624 
L 158.443696 76.315629 
L 160.080126 76.246634 
L 160.192685 76.177639 
L 161.967648 76.108644 
L 162.080207 76.039649 
L 164.002363 75.970655 
L 164.114921 75.90166 
L 166.210244 75.832665 
L 166.322803 75.76367 
L 168.617268 75.694675 
L 168.729827 75.62568 
L 171.240751 75.556685 
L 171.35331 75.48769 
L 174.115326 75.418695 
L 174.227885 75.3497 
L 176.487717 75.280705 
L 176.496375 81.697232 
L 176.591617 75.280705 
L 178.998641 75.211711 
L 179.1112 75.142716 
L 182.69576 75.073721 
L 182.808319 75.004726 
L 186.817139 74.935731 
L 186.929698 74.866736 
L 191.449362 74.797741 
L 191.56192 74.728746 
L 196.696327 74.659751 
L 196.808886 74.590756 
L 202.670595 74.521761 
L 202.783154 74.452767 
L 209.545333 74.383772 
L 209.657891 74.314777 
L 217.545657 74.245782 
L 217.658215 74.176787 
L 226.97461 74.107792 
L 227.087169 74.038797 
L 227.572037 74.038797 
L 227.580695 75.073721 
L 227.675937 74.038797 
L 238.239135 73.969802 
L 238.351694 73.900807 
L 251.93666 73.831812 
L 252.049219 73.762817 
L 268.950336 73.693823 
L 269.062895 73.624828 
L 290.665501 73.555833 
L 290.77806 73.486838 
L 297.808647 73.486838 
L 297.817306 74.107792 
L 297.912548 73.486838 
L 319.333329 73.417843 
L 319.445887 73.348848 
L 358.737522 73.279853 
L 358.74618 74.728746 
L 358.841422 73.279853 
L 371.456652 73.210858 
L 371.46531 74.797741 
L 371.560552 73.210858 
L 405.527296 73.141863 
L 405.535954 73.762817 
L 405.631196 73.141863 
L 457.867078 73.072868 
L 457.979636 73.003873 
L 583.802914 72.934879 
L 583.915473 72.865884 
L 605.396862 72.865884 
L 605.414179 73.624828 
L 605.500762 72.865884 
L 606.236723 72.865884 
L 606.245381 73.279853 
L 606.340623 72.865884 
L 720.336582 72.796889 
L 720.34524 73.210858 
L 720.440482 72.796889 
L 791.612196 72.796889 
L 791.629512 73.210858 
L 791.716096 72.796889 
L 977.368636 72.727894 
L 977.368636 72.727894 
" clip-path="url(#p2c16037b52)" style="fill: none; stroke: #000080; stroke-width: 1.5; stroke-linecap: round"/>
   </g>
   <g id="patch_3">
    <path d="M 68.25 525.3 
L 68.25 50.96 
" style="fill: none; stroke: #cccccc; stroke-linejoin: miter; stroke-linecap: square"/>
   </g>
   <g id="patch_4">
    <path d="M 1020.66 525.3 
L 1020.66 50.96 
" style="fill: none; stroke: #cccccc; stroke-linejoin: miter; stroke-linecap: square"/>
   </g>
   <g id="patch_5">
    <path d="M 68.25 525.3 
L 1020.66 525.3 
" style="fill: none; stroke: #cccccc; stroke-linejoin: miter; stroke-linecap: square"/>
   </g>
   <g id="patch_6">
    <path d="M 68.25 50.96 
L 1020.66 50.96 
" style="fill: none; stroke: #cccccc; stroke-linejoin: miter; stroke-linecap: square"/>
   </g>
  </g>
  <g id="axes_2">
   <g id="matplotlib.axis_3">
    <g id="ytick_8">
     <g id="line2d_28">
      <path d="M 68.25 474.991212 
L 1020.66 474.991212 
" clip-path="url(#p2c16037b52)" style="fill: none; stroke: #cccccc; stroke-width: 0.8; stroke-linecap: round"/>
     </g>
     <g id="line2d_29"/>
     <g id="text_16">
      <!-- 0.3 -->
      <g style="fill: #d2691e" transform="translate(1024.16 480.310118) scale(0.14 -0.14)">
       <defs>
        <path id="DejaVuSans-33" d="M 2597 2516 
Q 3050 2419 3304 2112 
Q 3559 1806 3559 1356 
Q 3559 666 3084 287 
Q 2609 -91 1734 -91 
Q 1441 -91 1130 -33 
Q 819 25 488 141 
L 488 750 
Q 750 597 1062 519 
Q 1375 441 1716 441 
Q 2309 441 2620 675 
Q 2931 909 2931 1356 
Q 2931 1769 2642 2001 
Q 2353 2234 1838 2234 
L 1294 2234 
L 1294 2753 
L 1863 2753 
Q 2328 2753 2575 2939 
Q 2822 3125 2822 3475 
Q 2822 3834 2567 4026 
Q 2313 4219 1838 4219 
Q 1578 4219 1281 4162 
Q 984 4106 628 3988 
L 628 4550 
Q 988 4650 1302 4700 
Q 1616 4750 1894 4750 
Q 2613 4750 3031 4423 
Q 3450 4097 3450 3541 
Q 3450 3153 3228 2886 
Q 3006 2619 2597 2516 
z
" transform="scale(0.015625)"/>
       </defs>
       <use xlink:href="#DejaVuSans-30"/>
       <use xlink:href="#DejaVuSans-2e" transform="translate(63.623047 0)"/>
       <use xlink:href="#DejaVuSans-33" transform="translate(95.410156 0)"/>
      </g>
     </g>
    </g>
    <g id="ytick_9">
     <g id="line2d_30">
      <path d="M 68.25 417.495455 
L 1020.66 417.495455 
" clip-path="url(#p2c16037b52)" style="fill: none; stroke: #cccccc; stroke-width: 0.8; stroke-linecap: round"/>
     </g>
     <g id="line2d_31"/>
     <g id="text_17">
      <!-- 0.4 -->
      <g style="fill: #d2691e" transform="translate(1024.16 422.814361) scale(0.14 -0.14)">
       <use xlink:href="#DejaVuSans-30"/>
       <use xlink:href="#DejaVuSans-2e" transform="translate(63.623047 0)"/>
       <use xlink:href="#DejaVuSans-34" transform="translate(95.410156 0)"/>
      </g>
     </g>
    </g>
    <g id="ytick_10">
     <g id="line2d_32">
      <path d="M 68.25 359.999697 
L 1020.66 359.999697 
" clip-path="url(#p2c16037b52)" style="fill: none; stroke: #cccccc; stroke-width: 0.8; stroke-linecap: round"/>
     </g>
     <g id="line2d_33"/>
     <g id="text_18">
      <!-- 0.5 -->
      <g style="fill: #d2691e" transform="translate(1024.16 365.318603) scale(0.14 -0.14)">
       <use xlink:href="#DejaVuSans-30"/>
       <use xlink:href="#DejaVuSans-2e" transform="translate(63.623047 0)"/>
       <use xlink:href="#DejaVuSans-35" transform="translate(95.410156 0)"/>
      </g>
     </g>
    </g>
    <g id="ytick_11">
     <g id="line2d_34">
      <path d="M 68.25 302.503939 
L 1020.66 302.503939 
" clip-path="url(#p2c16037b52)" style="fill: none; stroke: #cccccc; stroke-width: 0.8; stroke-linecap: round"/>
     </g>
     <g id="line2d_35"/>
     <g id="text_19">
      <!-- 0.6 -->
      <g style="fill: #d2691e" transform="translate(1024.16 307.822846) scale(0.14 -0.14)">
       <use xlink:href="#DejaVuSans-30"/>
       <use xlink:href="#DejaVuSans-2e" transform="translate(63.623047 0)"/>
       <use xlink:href="#DejaVuSans-36" transform="translate(95.410156 0)"/>
      </g>
     </g>
    </g>
    <g id="ytick_12">
     <g id="line2d_36">
      <path d="M 68.25 245.008182 
L 1020.66 245.008182 
" clip-path="url(#p2c16037b52)" style="fill: none; stroke: #cccccc; stroke-width: 0.8; stroke-linecap: round"/>
     </g>
     <g id="line2d_37"/>
     <g id="text_20">
      <!-- 0.7 -->
      <g style="fill: #d2691e" transform="translate(1024.16 250.327088) scale(0.14 -0.14)">
       <use xlink:href="#DejaVuSans-30"/>
       <use xlink:href="#DejaVuSans-2e" transform="translate(63.623047 0)"/>
       <use xlink:href="#DejaVuSans-37" transform="translate(95.410156 0)"/>
      </g>
     </g>
    </g>
    <g id="ytick_13">
     <g id="line2d_38">
      <path d="M 68.25 187.512424 
L 1020.66 187.512424 
" clip-path="url(#p2c16037b52)" style="fill: none; stroke: #cccccc; stroke-width: 0.8; stroke-linecap: round"/>
     </g>
     <g id="line2d_39"/>
     <g id="text_21">
      <!-- 0.8 -->
      <g style="fill: #d2691e" transform="translate(1024.16 192.83133) scale(0.14 -0.14)">
       <use xlink:href="#DejaVuSans-30"/>
       <use xlink:href="#DejaVuSans-2e" transform="translate(63.623047 0)"/>
       <use xlink:href="#DejaVuSans-38" transform="translate(95.410156 0)"/>
      </g>
     </g>
    </g>
    <g id="ytick_14">
     <g id="line2d_40">
      <path d="M 68.25 130.016667 
L 1020.66 130.016667 
" clip-path="url(#p2c16037b52)" style="fill: none; stroke: #cccccc; stroke-width: 0.8; stroke-linecap: round"/>
     </g>
     <g id="line2d_41"/>
     <g id="text_22">
      <!-- 0.9 -->
      <g style="fill: #d2691e" transform="translate(1024.16 135.335573) scale(0.14 -0.14)">
       <use xlink:href="#DejaVuSans-30"/>
       <use xlink:href="#DejaVuSans-2e" transform="translate(63.623047 0)"/>
       <use xlink:href="#DejaVuSans-39" transform="translate(95.410156 0)"/>
      </g>
     </g>
    </g>
    <g id="ytick_15">
     <g id="line2d_42">
      <path d="M 68.25 72.520909 
L 1020.66 72.520909 
" clip-path="url(#p2c16037b52)" style="fill: none; stroke: #cccccc; stroke-width: 0.8; stroke-linecap: round"/>
     </g>
     <g id="line2d_43"/>
     <g id="text_23">
      <!-- 1.0 -->
      <g style="fill: #d2691e" transform="translate(1024.16 77.839815) scale(0.14 -0.14)">
       <use xlink:href="#DejaVuSans-31"/>
       <use xlink:href="#DejaVuSans-2e" transform="translate(63.623047 0)"/>
       <use xlink:href="#DejaVuSans-30" transform="translate(95.410156 0)"/>
      </g>
     </g>
    </g>
    <g id="text_24">
     <!-- Chain Difficulty -->
     <g style="fill: #d2691e" transform="translate(1062.581875 349.32375) rotate(-90) scale(0.16 -0.16)">
      <defs>
       <path id="DejaVuSans-43" d="M 4122 4306 
L 4122 3641 
Q 3803 3938 3442 4084 
Q 3081 4231 2675 4231 
Q 1875 4231 1450 3742 
Q 1025 3253 1025 2328 
Q 1025 1406 1450 917 
Q 1875 428 2675 428 
Q 3081 428 3442 575 
Q 3803 722 4122 1019 
L 4122 359 
Q 3791 134 3420 21 
Q 3050 -91 2638 -91 
Q 1578 -91 968 557 
Q 359 1206 359 2328 
Q 359 3453 968 4101 
Q 1578 4750 2638 4750 
Q 3056 4750 3426 4639 
Q 3797 4528 4122 4306 
z
" transform="scale(0.015625)"/>
       <path id="DejaVuSans-44" d="M 1259 4147 
L 1259 519 
L 2022 519 
Q 2988 519 3436 956 
Q 3884 1394 3884 2338 
Q 3884 3275 3436 3711 
Q 2988 4147 2022 4147 
L 1259 4147 
z
M 628 4666 
L 1925 4666 
Q 3281 4666 3915 4102 
Q 4550 3538 4550 2338 
Q 4550 1131 3912 565 
Q 3275 0 1925 0 
L 628 0 
L 628 4666 
z
" transform="scale(0.015625)"/>
       <path id="DejaVuSans-66" d="M 2375 4863 
L 2375 4384 
L 1825 4384 
Q 1516 4384 1395 4259 
Q 1275 4134 1275 3809 
L 1275 3500 
L 2222 3500 
L 2222 3053 
L 1275 3053 
L 1275 0 
L 697 0 
L 697 3053 
L 147 3053 
L 147 3500 
L 697 3500 
L 697 3744 
Q 697 4328 969 4595 
Q 1241 4863 1831 4863 
L 2375 4863 
z
" transform="scale(0.015625)"/>
       <path id="DejaVuSans-79" d="M 2059 -325 
Q 1816 -950 1584 -1140 
Q 1353 -1331 966 -1331 
L 506 -1331 
L 506 -850 
L 844 -850 
Q 1081 -850 1212 -737 
Q 1344 -625 1503 -206 
L 1606 56 
L 191 3500 
L 800 3500 
L 1894 763 
L 2988 3500 
L 3597 3500 
L 2059 -325 
z
" transform="scale(0.015625)"/>
      </defs>
      <use xlink:href="#DejaVuSans-43"/>
      <use xlink:href="#DejaVuSans-68" transform="translate(69.824219 0)"/>
      <use xlink:href="#DejaVuSans-61" transform="translate(133.203125 0)"/>
      <use xlink:href="#DejaVuSans-69" transform="translate(194.482422 0)"/>
      <use xlink:href="#DejaVuSans-6e" transform="translate(222.265625 0)"/>
      <use xlink:href="#DejaVuSans-20" transform="translate(285.644531 0)"/>
      <use xlink:href="#DejaVuSans-44" transform="translate(317.431641 0)"/>
      <use xlink:href="#DejaVuSans-69" transform="translate(394.433594 0)"/>
      <use xlink:href="#DejaVuSans-66" transform="translate(422.216797 0)"/>
      <use xlink:href="#DejaVuSans-66" transform="translate(457.421875 0)"/>
      <use xlink:href="#DejaVuSans-69" transform="translate(492.626953 0)"/>
      <use xlink:href="#DejaVuSans-63" transform="translate(520.410156 0)"/>
      <use xlink:href="#DejaVuSans-75" transform="translate(575.390625 0)"/>
      <use xlink:href="#DejaVuSans-6c" transform="translate(638.769531 0)"/>
      <use xlink:href="#DejaVuSans-74" transform="translate(666.552734 0)"/>
      <use xlink:href="#DejaVuSans-79" transform="translate(705.761719 0)"/>
     </g>
    </g>
   </g>
   <g id="line2d_44">
    <path d="M 111.541364 72.520909 
L 128.987958 72.520909 
L 129.100516 503.739091 
L 146.44321 503.739091 
L 146.555769 352.990964 
L 163.898462 352.990964 
L 164.011021 353.962642 
L 181.353715 353.962642 
L 181.466273 359.614475 
L 198.808967 359.614475 
L 198.921526 367.014179 
L 216.26422 367.014179 
L 216.376778 354.560598 
L 233.719472 354.560598 
L 233.832031 353.203698 
L 251.174724 353.203698 
L 251.287283 361.954553 
L 268.629977 361.954553 
L 268.742535 363.374698 
L 286.085229 363.374698 
L 286.197788 370.601915 
L 303.540481 370.601915 
L 303.65304 355.239048 
L 320.995734 355.239048 
L 321.108292 364.70285 
L 338.450986 364.70285 
L 338.563545 365.295056 
L 355.906238 365.295056 
L 356.018797 362.690498 
L 373.361491 362.690498 
L 373.47405 358.516306 
L 390.816743 358.516306 
L 390.929302 351.898545 
L 408.271996 351.898545 
L 408.384554 358.711792 
L 425.727248 358.711792 
L 425.839807 365.605533 
L 443.1825 365.605533 
L 443.295059 354.779082 
L 460.637753 354.779082 
L 460.750311 356.618946 
L 478.093005 356.618946 
L 478.205564 367.663881 
L 495.548257 367.663881 
L 495.660816 352.565496 
L 513.00351 352.565496 
L 513.116068 362.39152 
L 530.458762 362.39152 
L 530.571321 357.740114 
L 547.914015 357.740114 
L 548.026573 358.539305 
L 565.369267 358.539305 
L 565.481826 368.106599 
L 582.824519 368.106599 
L 582.937078 356.613197 
L 600.279772 356.613197 
L 600.39233 355.020564 
L 617.735024 355.020564 
L 617.847583 357.533129 
L 635.190276 357.533129 
L 635.302835 364.145141 
L 652.645529 364.145141 
L 652.758087 373.948168 
L 670.100781 373.948168 
L 670.21334 359.861707 
L 687.556034 359.861707 
L 687.668592 372.493525 
L 705.011286 372.493525 
L 705.123845 351.306338 
L 722.466538 351.306338 
L 722.579097 360.609152 
L 739.921791 360.609152 
L 740.034349 345.953483 
L 757.377043 345.953483 
L 757.489602 368.90579 
L 774.832295 368.90579 
L 774.944854 350.823374 
L 792.287548 350.823374 
L 792.400106 353.105956 
L 809.7428 353.105956 
L 809.855359 364.518864 
L 827.198052 364.518864 
L 827.310611 355.124057 
L 844.653305 355.124057 
L 844.765864 344.941558 
L 862.108557 344.941558 
L 862.221116 360.131937 
L 879.56381 360.131937 
L 879.676368 365.203063 
L 897.019062 365.203063 
L 897.131621 362.167287 
L 914.474314 362.167287 
L 914.586873 361.488837 
L 931.929567 361.488837 
L 932.042125 357.65962 
L 949.384819 357.65962 
L 949.497378 354.842328 
L 966.840071 354.842328 
L 966.95263 348.448799 
L 977.368636 348.448799 
L 977.368636 348.448799 
" clip-path="url(#p2c16037b52)" style="fill: none; stroke-dasharray: 5.55,2.4; stroke-dashoffset: 0; stroke: #d2691e; stroke-width: 1.5"/>
   </g>
   <g id="patch_7">
    <path d="M 68.25 525.3 
L 68.25 50.96 
" style="fill: none; stroke: #cccccc; stroke-linejoin: miter; stroke-linecap: square"/>
   </g>
   <g id="patch_8">
    <path d="M 1020.66 525.3 
L 1020.66 50.96 
" style="fill: none; stroke: #cccccc; stroke-linejoin: miter; stroke-linecap: square"/>
   </g>
   <g id="patch_9">
    <path d="M 68.25 525.3 
L 1020.66 525.3 
" style="fill: none; stroke: #cccccc; stroke-linejoin: miter; stroke-linecap: square"/>
   </g>
   <g id="patch_10">
    <path d="M 68.25 50.96 
L 1020.66 50.96 
" style="fill: none; stroke: #cccccc; stroke-linejoin: miter; stroke-linecap: square"/>
   </g>
   <g id="text_25">
    <!-- Mining Share and Chain Difficulty vs. Block Number -->
    <g style="fill: #262626" transform="translate(286.494062 30.96) scale(0.2 -0.2)">
     <defs>
      <path id="DejaVuSans-76" d="M 191 3500 
L 800 3500 
L 1894 563 
L 2988 3500 
L 3597 3500 
L 2284 0 
L 1503 0 
L 191 3500 
z
" transform="scale(0.015625)"/>
     </defs>
     <use xlink:href="#DejaVuSans-4d"/>
     <use xlink:href="#DejaVuSans-69" transform="translate(86.279297 0)"/>
     <use xlink:href="#DejaVuSans-6e" transform="translate(114.0625 0)"/>
     <use xlink:href="#DejaVuSans-69" transform="translate(177.441406 0)"/>
     <use xlink:href="#DejaVuSans-6e" transform="translate(205.224609 0)"/>
     <use xlink:href="#DejaVuSans-67" transform="translate(268.603516 0)"/>
     <use xlink:href="#DejaVuSans-20" transform="translate(332.080078 0)"/>
     <use xlink:href="#DejaVuSans-53" transform="translate(363.867188 0)"/>
     <use xlink:href="#DejaVuSans-68" transform="translate(427.34375 0)"/>
     <use xlink:href="#DejaVuSans-61" transform="translate(490.722656 0)"/>
     <use xlink:href="#DejaVuSans-72" transform="translate(552.001953 0)"/>
     <use xlink:href="#DejaVuSans-65" transform="translate(590.865234 0)"/>
     <use xlink:href="#DejaVuSans-20" transform="translate(652.388672 0)"/>
     <use xlink:href="#DejaVuSans-61" transform="translate(684.175781 0)"/>
     <use xlink:href="#DejaVuSans-6e" transform="translate(745.455078 0)"/>
     <use xlink:href="#DejaVuSans-64" transform="translate(808.833984 0)"/>
     <use xlink:href="#DejaVuSans-20" transform="translate(872.310547 0)"/>
     <use xlink:href="#DejaVuSans-43" transform="translate(904.097656 0)"/>
     <use xlink:href="#DejaVuSans-68" transform="translate(973.921875 0)"/>
     <use xlink:href="#DejaVuSans-61" transform="translate(1037.300781 0)"/>
     <use xlink:href="#DejaVuSans-69" transform="translate(1098.580078 0)"/>
     <use xlink:href="#DejaVuSans-6e" transform="translate(1126.363281 0)"/>
     <use xlink:href="#DejaVuSans-20" transform="translate(1189.742188 0)"/>
     <use xlink:href="#DejaVuSans-44" transform="translate(1221.529297 0)"/>
     <use xlink:href="#DejaVuSans-69" transform="translate(1298.53125 0)"/>
     <use xlink:href="#DejaVuSans-66" transform="translate(1326.314453 0)"/>
     <use xlink:href="#DejaVuSans-66" transform="translate(1361.519531 0)"/>
     <use xlink:href="#DejaVuSans-69" transform="translate(1396.724609 0)"/>
     <use xlink:href="#DejaVuSans-63" transform="translate(1424.507812 0)"/>
     <use xlink:href="#DejaVuSans-75" transform="translate(1479.488281 0)"/>
     <use xlink:href="#DejaVuSans-6c" transform="translate(1542.867188 0)"/>
     <use xlink:href="#DejaVuSans-74" transform="translate(1570.650391 0)"/>
     <use xlink:href="#DejaVuSans-79" transform="translate(1609.859375 0)"/>
     <use xlink:href="#DejaVuSans-20" transform="translate(1669.039062 0)"/>
     <use xlink:href="#DejaVuSans-76" transform="translate(1700.826172 0)"/>
     <use xlink:href="#DejaVuSans-73" transform="translate(1760.005859 0)"/>
     <use xlink:href="#DejaVuSans-2e" transform="translate(1812.105469 0)"/>
     <use xlink:href="#DejaVuSans-20" transform="translate(1843.892578 0)"/>
     <use xlink:href="#DejaVuSans-42" transform="translate(1875.679688 0)"/>
     <use xlink:href="#DejaVuSans-6c" transform="translate(1944.283203 0)"/>
     <use xlink:href="#DejaVuSans-6f" transform="translate(1972.066406 0)"/>
     <use xlink:href="#DejaVuSans-63" transform="translate(2033.248047 0)"/>
     <use xlink:href="#DejaVuSans-6b" transform="translate(2088.228516 0)"/>
     <use xlink:href="#DejaVuSans-20" transform="translate(2146.138672 0)"/>
     <use xlink:href="#DejaVuSans-4e" transform="translate(2177.925781 0)"/>
     <use xlink:href="#DejaVuSans-75" transform="translate(2252.730469 0)"/>
     <use xlink:href="#DejaVuSans-6d" transform="translate(2316.109375 0)"/>
     <use xlink:href="#DejaVuSans-62" transform="translate(2413.521484 0)"/>
     <use xlink:href="#DejaVuSans-65" transform="translate(2476.998047 0)"/>
     <use xlink:href="#DejaVuSans-72" transform="translate(2538.521484 0)"/>
    </g>
   </g>
  </g>
 </g>
 <defs>
  <clipPath id="p2c16037b52">
   <rect x="68.25" y="50.96" width="952.41" height="474.34"/>
  </clipPath>
 </defs>
</svg>
