<?xml version="1.0" encoding="utf-8" standalone="no"?>
<!DOCTYPE svg PUBLIC "-//W3C//DTD SVG 1.1//EN"
  "http://www.w3.org/Graphics/SVG/1.1/DTD/svg11.dtd">
<svg xmlns:xlink="http://www.w3.org/1999/xlink" width="857.764437pt" height="568.905pt" viewBox="0 0 857.764437 568.905" xmlns="http://www.w3.org/2000/svg" version="1.1">
 <metadata>
  <rdf:RDF xmlns:dc="http://purl.org/dc/elements/1.1/" xmlns:cc="http://creativecommons.org/ns#" xmlns:rdf="http://www.w3.org/1999/02/22-rdf-syntax-ns#">
   <cc:Work>
    <dc:type rdf:resource="http://purl.org/dc/dcmitype/StillImage"/>
    <dc:date>2025-09-14T16:41:49.238095</dc:date>
    <dc:format>image/svg+xml</dc:format>
    <dc:creator>
     <cc:Agent>
      <dc:title>Matplotlib v3.10.3, https://matplotlib.org/</dc:title>
     </cc:Agent>
    </dc:creator>
   </cc:Work>
  </rdf:RDF>
 </metadata>
 <defs>
  <style type="text/css">*{stroke-linejoin: round; stroke-linecap: butt}</style>
 </defs>
 <g id="figure_1">
  <g id="patch_1">
   <path d="M 0 568.905 
L 857.764437 568.905 
L 857.764437 0 
L 0 0 
z
" style="fill: #ffffff"/>
  </g>
  <g id="axes_1">
   <g id="patch_2">
    <path d="M 47.6525 527.4775 
L 737.5225 527.4775 
L 737.5225 25.3575 
L 47.6525 25.3575 
z
" style="fill: #ffffff"/>
   </g>
   <g id="matplotlib.axis_1">
    <g id="xtick_1">
     <g id="line2d_1">
      <path d="M 77.001964 527.4775 
L 77.001964 25.3575 
" clip-path="url(#pb141c1aad1)" style="fill: none; stroke: #b0b0b0; stroke-opacity: 0.3; stroke-width: 0.8; stroke-linecap: square"/>
     </g>
     <g id="line2d_2">
      <defs>
       <path id="m4be4bd08fa" d="M 0 0 
L 0 3.5 
" style="stroke: #000000; stroke-width: 0.8"/>
      </defs>
      <g>
       <use xlink:href="#m4be4bd08fa" x="77.001964" y="527.4775" style="stroke: #000000; stroke-width: 0.8"/>
      </g>
     </g>
     <g id="text_1">
      <!-- 0 -->
      <g transform="translate(73.820714 542.075938) scale(0.1 -0.1)">
       <defs>
        <path id="DejaVuSans-30" d="M 2034 4250 
Q 1547 4250 1301 3770 
Q 1056 3291 1056 2328 
Q 1056 1369 1301 889 
Q 1547 409 2034 409 
Q 2525 409 2770 889 
Q 3016 1369 3016 2328 
Q 3016 3291 2770 3770 
Q 2525 4250 2034 4250 
z
M 2034 4750 
Q 2819 4750 3233 4129 
Q 3647 3509 3647 2328 
Q 3647 1150 3233 529 
Q 2819 -91 2034 -91 
Q 1250 -91 836 529 
Q 422 1150 422 2328 
Q 422 3509 836 4129 
Q 1250 4750 2034 4750 
z
" transform="scale(0.015625)"/>
       </defs>
       <use xlink:href="#DejaVuSans-30"/>
      </g>
     </g>
    </g>
    <g id="xtick_2">
     <g id="line2d_3">
      <path d="M 169.326363 527.4775 
L 169.326363 25.3575 
" clip-path="url(#pb141c1aad1)" style="fill: none; stroke: #b0b0b0; stroke-opacity: 0.3; stroke-width: 0.8; stroke-linecap: square"/>
     </g>
     <g id="line2d_4">
      <g>
       <use xlink:href="#m4be4bd08fa" x="169.326363" y="527.4775" style="stroke: #000000; stroke-width: 0.8"/>
      </g>
     </g>
     <g id="text_2">
      <!-- 5 -->
      <g transform="translate(166.145113 542.075938) scale(0.1 -0.1)">
       <defs>
        <path id="DejaVuSans-35" d="M 691 4666 
L 3169 4666 
L 3169 4134 
L 1269 4134 
L 1269 2991 
Q 1406 3038 1543 3061 
Q 1681 3084 1819 3084 
Q 2600 3084 3056 2656 
Q 3513 2228 3513 1497 
Q 3513 744 3044 326 
Q 2575 -91 1722 -91 
Q 1428 -91 1123 -41 
Q 819 9 494 109 
L 494 744 
Q 775 591 1075 516 
Q 1375 441 1709 441 
Q 2250 441 2565 725 
Q 2881 1009 2881 1497 
Q 2881 1984 2565 2268 
Q 2250 2553 1709 2553 
Q 1456 2553 1204 2497 
Q 953 2441 691 2322 
L 691 4666 
z
" transform="scale(0.015625)"/>
       </defs>
       <use xlink:href="#DejaVuSans-35"/>
      </g>
     </g>
    </g>
    <g id="xtick_3">
     <g id="line2d_5">
      <path d="M 261.650762 527.4775 
L 261.650762 25.3575 
" clip-path="url(#pb141c1aad1)" style="fill: none; stroke: #b0b0b0; stroke-opacity: 0.3; stroke-width: 0.8; stroke-linecap: square"/>
     </g>
     <g id="line2d_6">
      <g>
       <use xlink:href="#m4be4bd08fa" x="261.650762" y="527.4775" style="stroke: #000000; stroke-width: 0.8"/>
      </g>
     </g>
     <g id="text_3">
      <!-- 10 -->
      <g transform="translate(255.288262 542.075938) scale(0.1 -0.1)">
       <defs>
        <path id="DejaVuSans-31" d="M 794 531 
L 1825 531 
L 1825 4091 
L 703 3866 
L 703 4441 
L 1819 4666 
L 2450 4666 
L 2450 531 
L 3481 531 
L 3481 0 
L 794 0 
L 794 531 
z
" transform="scale(0.015625)"/>
       </defs>
       <use xlink:href="#DejaVuSans-31"/>
       <use xlink:href="#DejaVuSans-30" transform="translate(63.623047 0)"/>
      </g>
     </g>
    </g>
    <g id="xtick_4">
     <g id="line2d_7">
      <path d="M 353.975161 527.4775 
L 353.975161 25.3575 
" clip-path="url(#pb141c1aad1)" style="fill: none; stroke: #b0b0b0; stroke-opacity: 0.3; stroke-width: 0.8; stroke-linecap: square"/>
     </g>
     <g id="line2d_8">
      <g>
       <use xlink:href="#m4be4bd08fa" x="353.975161" y="527.4775" style="stroke: #000000; stroke-width: 0.8"/>
      </g>
     </g>
     <g id="text_4">
      <!-- 15 -->
      <g transform="translate(347.612661 542.075938) scale(0.1 -0.1)">
       <use xlink:href="#DejaVuSans-31"/>
       <use xlink:href="#DejaVuSans-35" transform="translate(63.623047 0)"/>
      </g>
     </g>
    </g>
    <g id="xtick_5">
     <g id="line2d_9">
      <path d="M 446.29956 527.4775 
L 446.29956 25.3575 
" clip-path="url(#pb141c1aad1)" style="fill: none; stroke: #b0b0b0; stroke-opacity: 0.3; stroke-width: 0.8; stroke-linecap: square"/>
     </g>
     <g id="line2d_10">
      <g>
       <use xlink:href="#m4be4bd08fa" x="446.29956" y="527.4775" style="stroke: #000000; stroke-width: 0.8"/>
      </g>
     </g>
     <g id="text_5">
      <!-- 20 -->
      <g transform="translate(439.93706 542.075938) scale(0.1 -0.1)">
       <defs>
        <path id="DejaVuSans-32" d="M 1228 531 
L 3431 531 
L 3431 0 
L 469 0 
L 469 531 
Q 828 903 1448 1529 
Q 2069 2156 2228 2338 
Q 2531 2678 2651 2914 
Q 2772 3150 2772 3378 
Q 2772 3750 2511 3984 
Q 2250 4219 1831 4219 
Q 1534 4219 1204 4116 
Q 875 4013 500 3803 
L 500 4441 
Q 881 4594 1212 4672 
Q 1544 4750 1819 4750 
Q 2544 4750 2975 4387 
Q 3406 4025 3406 3419 
Q 3406 3131 3298 2873 
Q 3191 2616 2906 2266 
Q 2828 2175 2409 1742 
Q 1991 1309 1228 531 
z
" transform="scale(0.015625)"/>
       </defs>
       <use xlink:href="#DejaVuSans-32"/>
       <use xlink:href="#DejaVuSans-30" transform="translate(63.623047 0)"/>
      </g>
     </g>
    </g>
    <g id="xtick_6">
     <g id="line2d_11">
      <path d="M 538.62396 527.4775 
L 538.62396 25.3575 
" clip-path="url(#pb141c1aad1)" style="fill: none; stroke: #b0b0b0; stroke-opacity: 0.3; stroke-width: 0.8; stroke-linecap: square"/>
     </g>
     <g id="line2d_12">
      <g>
       <use xlink:href="#m4be4bd08fa" x="538.62396" y="527.4775" style="stroke: #000000; stroke-width: 0.8"/>
      </g>
     </g>
     <g id="text_6">
      <!-- 25 -->
      <g transform="translate(532.26146 542.075938) scale(0.1 -0.1)">
       <use xlink:href="#DejaVuSans-32"/>
       <use xlink:href="#DejaVuSans-35" transform="translate(63.623047 0)"/>
      </g>
     </g>
    </g>
    <g id="xtick_7">
     <g id="line2d_13">
      <path d="M 630.948359 527.4775 
L 630.948359 25.3575 
" clip-path="url(#pb141c1aad1)" style="fill: none; stroke: #b0b0b0; stroke-opacity: 0.3; stroke-width: 0.8; stroke-linecap: square"/>
     </g>
     <g id="line2d_14">
      <g>
       <use xlink:href="#m4be4bd08fa" x="630.948359" y="527.4775" style="stroke: #000000; stroke-width: 0.8"/>
      </g>
     </g>
     <g id="text_7">
      <!-- 30 -->
      <g transform="translate(624.585859 542.075938) scale(0.1 -0.1)">
       <defs>
        <path id="DejaVuSans-33" d="M 2597 2516 
Q 3050 2419 3304 2112 
Q 3559 1806 3559 1356 
Q 3559 666 3084 287 
Q 2609 -91 1734 -91 
Q 1441 -91 1130 -33 
Q 819 25 488 141 
L 488 750 
Q 750 597 1062 519 
Q 1375 441 1716 441 
Q 2309 441 2620 675 
Q 2931 909 2931 1356 
Q 2931 1769 2642 2001 
Q 2353 2234 1838 2234 
L 1294 2234 
L 1294 2753 
L 1863 2753 
Q 2328 2753 2575 2939 
Q 2822 3125 2822 3475 
Q 2822 3834 2567 4026 
Q 2313 4219 1838 4219 
Q 1578 4219 1281 4162 
Q 984 4106 628 3988 
L 628 4550 
Q 988 4650 1302 4700 
Q 1616 4750 1894 4750 
Q 2613 4750 3031 4423 
Q 3450 4097 3450 3541 
Q 3450 3153 3228 2886 
Q 3006 2619 2597 2516 
z
" transform="scale(0.015625)"/>
       </defs>
       <use xlink:href="#DejaVuSans-33"/>
       <use xlink:href="#DejaVuSans-30" transform="translate(63.623047 0)"/>
      </g>
     </g>
    </g>
    <g id="xtick_8">
     <g id="line2d_15">
      <path d="M 723.272758 527.4775 
L 723.272758 25.3575 
" clip-path="url(#pb141c1aad1)" style="fill: none; stroke: #b0b0b0; stroke-opacity: 0.3; stroke-width: 0.8; stroke-linecap: square"/>
     </g>
     <g id="line2d_16">
      <g>
       <use xlink:href="#m4be4bd08fa" x="723.272758" y="527.4775" style="stroke: #000000; stroke-width: 0.8"/>
      </g>
     </g>
     <g id="text_8">
      <!-- 35 -->
      <g transform="translate(716.910258 542.075938) scale(0.1 -0.1)">
       <use xlink:href="#DejaVuSans-33"/>
       <use xlink:href="#DejaVuSans-35" transform="translate(63.623047 0)"/>
      </g>
     </g>
    </g>
    <g id="text_9">
     <!-- Δ/T (dynamic T) -->
     <g transform="translate(337.053437 558.793437) scale(0.14 -0.14)">
      <defs>
       <path id="DejaVuSans-394" d="M 2188 4044 
L 906 525 
L 3472 525 
L 2188 4044 
z
M 50 0 
L 1831 4666 
L 2547 4666 
L 4325 0 
L 50 0 
z
" transform="scale(0.015625)"/>
       <path id="DejaVuSans-2f" d="M 1625 4666 
L 2156 4666 
L 531 -594 
L 0 -594 
L 1625 4666 
z
" transform="scale(0.015625)"/>
       <path id="DejaVuSans-54" d="M -19 4666 
L 3928 4666 
L 3928 4134 
L 2272 4134 
L 2272 0 
L 1638 0 
L 1638 4134 
L -19 4134 
L -19 4666 
z
" transform="scale(0.015625)"/>
       <path id="DejaVuSans-20" transform="scale(0.015625)"/>
       <path id="DejaVuSans-28" d="M 1984 4856 
Q 1566 4138 1362 3434 
Q 1159 2731 1159 2009 
Q 1159 1288 1364 580 
Q 1569 -128 1984 -844 
L 1484 -844 
Q 1016 -109 783 600 
Q 550 1309 550 2009 
Q 550 2706 781 3412 
Q 1013 4119 1484 4856 
L 1984 4856 
z
" transform="scale(0.015625)"/>
       <path id="DejaVuSans-64" d="M 2906 2969 
L 2906 4863 
L 3481 4863 
L 3481 0 
L 2906 0 
L 2906 525 
Q 2725 213 2448 61 
Q 2172 -91 1784 -91 
Q 1150 -91 751 415 
Q 353 922 353 1747 
Q 353 2572 751 3078 
Q 1150 3584 1784 3584 
Q 2172 3584 2448 3432 
Q 2725 3281 2906 2969 
z
M 947 1747 
Q 947 1113 1208 752 
Q 1469 391 1925 391 
Q 2381 391 2643 752 
Q 2906 1113 2906 1747 
Q 2906 2381 2643 2742 
Q 2381 3103 1925 3103 
Q 1469 3103 1208 2742 
Q 947 2381 947 1747 
z
" transform="scale(0.015625)"/>
       <path id="DejaVuSans-79" d="M 2059 -325 
Q 1816 -950 1584 -1140 
Q 1353 -1331 966 -1331 
L 506 -1331 
L 506 -850 
L 844 -850 
Q 1081 -850 1212 -737 
Q 1344 -625 1503 -206 
L 1606 56 
L 191 3500 
L 800 3500 
L 1894 763 
L 2988 3500 
L 3597 3500 
L 2059 -325 
z
" transform="scale(0.015625)"/>
       <path id="DejaVuSans-6e" d="M 3513 2113 
L 3513 0 
L 2938 0 
L 2938 2094 
Q 2938 2591 2744 2837 
Q 2550 3084 2163 3084 
Q 1697 3084 1428 2787 
Q 1159 2491 1159 1978 
L 1159 0 
L 581 0 
L 581 3500 
L 1159 3500 
L 1159 2956 
Q 1366 3272 1645 3428 
Q 1925 3584 2291 3584 
Q 2894 3584 3203 3211 
Q 3513 2838 3513 2113 
z
" transform="scale(0.015625)"/>
       <path id="DejaVuSans-61" d="M 2194 1759 
Q 1497 1759 1228 1600 
Q 959 1441 959 1056 
Q 959 750 1161 570 
Q 1363 391 1709 391 
Q 2188 391 2477 730 
Q 2766 1069 2766 1631 
L 2766 1759 
L 2194 1759 
z
M 3341 1997 
L 3341 0 
L 2766 0 
L 2766 531 
Q 2569 213 2275 61 
Q 1981 -91 1556 -91 
Q 1019 -91 701 211 
Q 384 513 384 1019 
Q 384 1609 779 1909 
Q 1175 2209 1959 2209 
L 2766 2209 
L 2766 2266 
Q 2766 2663 2505 2880 
Q 2244 3097 1772 3097 
Q 1472 3097 1187 3025 
Q 903 2953 641 2809 
L 641 3341 
Q 956 3463 1253 3523 
Q 1550 3584 1831 3584 
Q 2591 3584 2966 3190 
Q 3341 2797 3341 1997 
z
" transform="scale(0.015625)"/>
       <path id="DejaVuSans-6d" d="M 3328 2828 
Q 3544 3216 3844 3400 
Q 4144 3584 4550 3584 
Q 5097 3584 5394 3201 
Q 5691 2819 5691 2113 
L 5691 0 
L 5113 0 
L 5113 2094 
Q 5113 2597 4934 2840 
Q 4756 3084 4391 3084 
Q 3944 3084 3684 2787 
Q 3425 2491 3425 1978 
L 3425 0 
L 2847 0 
L 2847 2094 
Q 2847 2600 2669 2842 
Q 2491 3084 2119 3084 
Q 1678 3084 1418 2786 
Q 1159 2488 1159 1978 
L 1159 0 
L 581 0 
L 581 3500 
L 1159 3500 
L 1159 2956 
Q 1356 3278 1631 3431 
Q 1906 3584 2284 3584 
Q 2666 3584 2933 3390 
Q 3200 3197 3328 2828 
z
" transform="scale(0.015625)"/>
       <path id="DejaVuSans-69" d="M 603 3500 
L 1178 3500 
L 1178 0 
L 603 0 
L 603 3500 
z
M 603 4863 
L 1178 4863 
L 1178 4134 
L 603 4134 
L 603 4863 
z
" transform="scale(0.015625)"/>
       <path id="DejaVuSans-63" d="M 3122 3366 
L 3122 2828 
Q 2878 2963 2633 3030 
Q 2388 3097 2138 3097 
Q 1578 3097 1268 2742 
Q 959 2388 959 1747 
Q 959 1106 1268 751 
Q 1578 397 2138 397 
Q 2388 397 2633 464 
Q 2878 531 3122 666 
L 3122 134 
Q 2881 22 2623 -34 
Q 2366 -91 2075 -91 
Q 1284 -91 818 406 
Q 353 903 353 1747 
Q 353 2603 823 3093 
Q 1294 3584 2113 3584 
Q 2378 3584 2631 3529 
Q 2884 3475 3122 3366 
z
" transform="scale(0.015625)"/>
       <path id="DejaVuSans-29" d="M 513 4856 
L 1013 4856 
Q 1481 4119 1714 3412 
Q 1947 2706 1947 2009 
Q 1947 1309 1714 600 
Q 1481 -109 1013 -844 
L 513 -844 
Q 928 -128 1133 580 
Q 1338 1288 1338 2009 
Q 1338 2731 1133 3434 
Q 928 4138 513 4856 
z
" transform="scale(0.015625)"/>
      </defs>
      <use xlink:href="#DejaVuSans-394"/>
      <use xlink:href="#DejaVuSans-2f" transform="translate(68.408203 0)"/>
      <use xlink:href="#DejaVuSans-54" transform="translate(102.099609 0)"/>
      <use xlink:href="#DejaVuSans-20" transform="translate(163.183594 0)"/>
      <use xlink:href="#DejaVuSans-28" transform="translate(194.970703 0)"/>
      <use xlink:href="#DejaVuSans-64" transform="translate(233.984375 0)"/>
      <use xlink:href="#DejaVuSans-79" transform="translate(297.460938 0)"/>
      <use xlink:href="#DejaVuSans-6e" transform="translate(356.640625 0)"/>
      <use xlink:href="#DejaVuSans-61" transform="translate(420.019531 0)"/>
      <use xlink:href="#DejaVuSans-6d" transform="translate(481.298828 0)"/>
      <use xlink:href="#DejaVuSans-69" transform="translate(578.710938 0)"/>
      <use xlink:href="#DejaVuSans-63" transform="translate(606.494141 0)"/>
      <use xlink:href="#DejaVuSans-20" transform="translate(661.474609 0)"/>
      <use xlink:href="#DejaVuSans-54" transform="translate(693.261719 0)"/>
      <use xlink:href="#DejaVuSans-29" transform="translate(754.345703 0)"/>
     </g>
    </g>
   </g>
   <g id="matplotlib.axis_2">
    <g id="ytick_1">
     <g id="line2d_17">
      <path d="M 47.6525 504.653864 
L 737.5225 504.653864 
" clip-path="url(#pb141c1aad1)" style="fill: none; stroke: #b0b0b0; stroke-opacity: 0.3; stroke-width: 0.8; stroke-linecap: square"/>
     </g>
     <g id="line2d_18">
      <defs>
       <path id="m1c8b598c02" d="M 0 0 
L -3.5 0 
" style="stroke: #000000; stroke-width: 0.8"/>
      </defs>
      <g>
       <use xlink:href="#m1c8b598c02" x="47.6525" y="504.653864" style="stroke: #000000; stroke-width: 0.8"/>
      </g>
     </g>
     <g id="text_10">
      <!-- 0.0 -->
      <g transform="translate(24.749375 508.453082) scale(0.1 -0.1)">
       <defs>
        <path id="DejaVuSans-2e" d="M 684 794 
L 1344 794 
L 1344 0 
L 684 0 
L 684 794 
z
" transform="scale(0.015625)"/>
       </defs>
       <use xlink:href="#DejaVuSans-30"/>
       <use xlink:href="#DejaVuSans-2e" transform="translate(63.623047 0)"/>
       <use xlink:href="#DejaVuSans-30" transform="translate(95.410156 0)"/>
      </g>
     </g>
    </g>
    <g id="ytick_2">
     <g id="line2d_19">
      <path d="M 47.6525 413.145188 
L 737.5225 413.145188 
" clip-path="url(#pb141c1aad1)" style="fill: none; stroke: #b0b0b0; stroke-opacity: 0.3; stroke-width: 0.8; stroke-linecap: square"/>
     </g>
     <g id="line2d_20">
      <g>
       <use xlink:href="#m1c8b598c02" x="47.6525" y="413.145188" style="stroke: #000000; stroke-width: 0.8"/>
      </g>
     </g>
     <g id="text_11">
      <!-- 0.2 -->
      <g transform="translate(24.749375 416.944407) scale(0.1 -0.1)">
       <use xlink:href="#DejaVuSans-30"/>
       <use xlink:href="#DejaVuSans-2e" transform="translate(63.623047 0)"/>
       <use xlink:href="#DejaVuSans-32" transform="translate(95.410156 0)"/>
      </g>
     </g>
    </g>
    <g id="ytick_3">
     <g id="line2d_21">
      <path d="M 47.6525 321.636512 
L 737.5225 321.636512 
" clip-path="url(#pb141c1aad1)" style="fill: none; stroke: #b0b0b0; stroke-opacity: 0.3; stroke-width: 0.8; stroke-linecap: square"/>
     </g>
     <g id="line2d_22">
      <g>
       <use xlink:href="#m1c8b598c02" x="47.6525" y="321.636512" style="stroke: #000000; stroke-width: 0.8"/>
      </g>
     </g>
     <g id="text_12">
      <!-- 0.4 -->
      <g transform="translate(24.749375 325.435731) scale(0.1 -0.1)">
       <defs>
        <path id="DejaVuSans-34" d="M 2419 4116 
L 825 1625 
L 2419 1625 
L 2419 4116 
z
M 2253 4666 
L 3047 4666 
L 3047 1625 
L 3713 1625 
L 3713 1100 
L 3047 1100 
L 3047 0 
L 2419 0 
L 2419 1100 
L 313 1100 
L 313 1709 
L 2253 4666 
z
" transform="scale(0.015625)"/>
       </defs>
       <use xlink:href="#DejaVuSans-30"/>
       <use xlink:href="#DejaVuSans-2e" transform="translate(63.623047 0)"/>
       <use xlink:href="#DejaVuSans-34" transform="translate(95.410156 0)"/>
      </g>
     </g>
    </g>
    <g id="ytick_4">
     <g id="line2d_23">
      <path d="M 47.6525 230.127836 
L 737.5225 230.127836 
" clip-path="url(#pb141c1aad1)" style="fill: none; stroke: #b0b0b0; stroke-opacity: 0.3; stroke-width: 0.8; stroke-linecap: square"/>
     </g>
     <g id="line2d_24">
      <g>
       <use xlink:href="#m1c8b598c02" x="47.6525" y="230.127836" style="stroke: #000000; stroke-width: 0.8"/>
      </g>
     </g>
     <g id="text_13">
      <!-- 0.6 -->
      <g transform="translate(24.749375 233.927055) scale(0.1 -0.1)">
       <defs>
        <path id="DejaVuSans-36" d="M 2113 2584 
Q 1688 2584 1439 2293 
Q 1191 2003 1191 1497 
Q 1191 994 1439 701 
Q 1688 409 2113 409 
Q 2538 409 2786 701 
Q 3034 994 3034 1497 
Q 3034 2003 2786 2293 
Q 2538 2584 2113 2584 
z
M 3366 4563 
L 3366 3988 
Q 3128 4100 2886 4159 
Q 2644 4219 2406 4219 
Q 1781 4219 1451 3797 
Q 1122 3375 1075 2522 
Q 1259 2794 1537 2939 
Q 1816 3084 2150 3084 
Q 2853 3084 3261 2657 
Q 3669 2231 3669 1497 
Q 3669 778 3244 343 
Q 2819 -91 2113 -91 
Q 1303 -91 875 529 
Q 447 1150 447 2328 
Q 447 3434 972 4092 
Q 1497 4750 2381 4750 
Q 2619 4750 2861 4703 
Q 3103 4656 3366 4563 
z
" transform="scale(0.015625)"/>
       </defs>
       <use xlink:href="#DejaVuSans-30"/>
       <use xlink:href="#DejaVuSans-2e" transform="translate(63.623047 0)"/>
       <use xlink:href="#DejaVuSans-36" transform="translate(95.410156 0)"/>
      </g>
     </g>
    </g>
    <g id="ytick_5">
     <g id="line2d_25">
      <path d="M 47.6525 138.619161 
L 737.5225 138.619161 
" clip-path="url(#pb141c1aad1)" style="fill: none; stroke: #b0b0b0; stroke-opacity: 0.3; stroke-width: 0.8; stroke-linecap: square"/>
     </g>
     <g id="line2d_26">
      <g>
       <use xlink:href="#m1c8b598c02" x="47.6525" y="138.619161" style="stroke: #000000; stroke-width: 0.8"/>
      </g>
     </g>
     <g id="text_14">
      <!-- 0.8 -->
      <g transform="translate(24.749375 142.418379) scale(0.1 -0.1)">
       <defs>
        <path id="DejaVuSans-38" d="M 2034 2216 
Q 1584 2216 1326 1975 
Q 1069 1734 1069 1313 
Q 1069 891 1326 650 
Q 1584 409 2034 409 
Q 2484 409 2743 651 
Q 3003 894 3003 1313 
Q 3003 1734 2745 1975 
Q 2488 2216 2034 2216 
z
M 1403 2484 
Q 997 2584 770 2862 
Q 544 3141 544 3541 
Q 544 4100 942 4425 
Q 1341 4750 2034 4750 
Q 2731 4750 3128 4425 
Q 3525 4100 3525 3541 
Q 3525 3141 3298 2862 
Q 3072 2584 2669 2484 
Q 3125 2378 3379 2068 
Q 3634 1759 3634 1313 
Q 3634 634 3220 271 
Q 2806 -91 2034 -91 
Q 1263 -91 848 271 
Q 434 634 434 1313 
Q 434 1759 690 2068 
Q 947 2378 1403 2484 
z
M 1172 3481 
Q 1172 3119 1398 2916 
Q 1625 2713 2034 2713 
Q 2441 2713 2670 2916 
Q 2900 3119 2900 3481 
Q 2900 3844 2670 4047 
Q 2441 4250 2034 4250 
Q 1625 4250 1398 4047 
Q 1172 3844 1172 3481 
z
" transform="scale(0.015625)"/>
       </defs>
       <use xlink:href="#DejaVuSans-30"/>
       <use xlink:href="#DejaVuSans-2e" transform="translate(63.623047 0)"/>
       <use xlink:href="#DejaVuSans-38" transform="translate(95.410156 0)"/>
      </g>
     </g>
    </g>
    <g id="ytick_6">
     <g id="line2d_27">
      <path d="M 47.6525 47.110485 
L 737.5225 47.110485 
" clip-path="url(#pb141c1aad1)" style="fill: none; stroke: #b0b0b0; stroke-opacity: 0.3; stroke-width: 0.8; stroke-linecap: square"/>
     </g>
     <g id="line2d_28">
      <g>
       <use xlink:href="#m1c8b598c02" x="47.6525" y="47.110485" style="stroke: #000000; stroke-width: 0.8"/>
      </g>
     </g>
     <g id="text_15">
      <!-- 1.0 -->
      <g transform="translate(24.749375 50.909704) scale(0.1 -0.1)">
       <use xlink:href="#DejaVuSans-31"/>
       <use xlink:href="#DejaVuSans-2e" transform="translate(63.623047 0)"/>
       <use xlink:href="#DejaVuSans-30" transform="translate(95.410156 0)"/>
      </g>
     </g>
    </g>
    <g id="text_16">
     <!-- rᵢ -->
     <g transform="translate(17.837812 280.546406) rotate(-90) scale(0.14 -0.14)">
      <defs>
       <path id="DejaVuSans-72" d="M 2631 2963 
Q 2534 3019 2420 3045 
Q 2306 3072 2169 3072 
Q 1681 3072 1420 2755 
Q 1159 2438 1159 1844 
L 1159 0 
L 581 0 
L 581 3500 
L 1159 3500 
L 1159 2956 
Q 1341 3275 1631 3429 
Q 1922 3584 2338 3584 
Q 2397 3584 2469 3576 
Q 2541 3569 2628 3553 
L 2631 2963 
z
" transform="scale(0.015625)"/>
       <path id="DejaVuSans-1d62" d="M 381 1935 
L 744 1935 
L 744 -24 
L 381 -24 
L 381 1935 
z
M 381 2697 
L 744 2697 
L 744 2291 
L 381 2291 
L 381 2697 
z
" transform="scale(0.015625)"/>
      </defs>
      <use xlink:href="#DejaVuSans-72"/>
      <use xlink:href="#DejaVuSans-1d62" transform="translate(41.113281 0)"/>
     </g>
    </g>
   </g>
   <g id="line2d_29">
    <path d="M 79.010227 372.304866 
L 79.258241 372.574816 
L 79.568931 371.742088 
L 79.987281 370.932236 
L 80.560697 370.268798 
L 81.405887 367.203257 
L 82.775895 364.91554 
L 85.334528 359.731574 
L 91.724283 345.405891 
L 120.615497 275.561894 
L 156.377178 208.339621 
L 192.211247 158.563476 
L 227.105039 126.809966 
L 261.237256 101.329375 
L 326.507699 74.503607 
L 358.771505 65.645567 
L 389.83524 59.459581 
L 423.697136 57.039176 
L 454.797869 54.234435 
L 485.23216 52.582704 
L 516.716741 51.631013 
L 551.241362 50.079941 
L 614.172829 49.32957 
L 642.808288 48.981837 
L 674.567498 48.670708 
L 706.164773 48.181136 
" clip-path="url(#pb141c1aad1)" style="fill: none; stroke: #1f77b4; stroke-width: 2; stroke-linecap: square"/>
    <defs>
     <path id="m030c870012" d="M 0 3 
C 0.795609 3 1.55874 2.683901 2.12132 2.12132 
C 2.683901 1.55874 3 0.795609 3 0 
C 3 -0.795609 2.683901 -1.55874 2.12132 -2.12132 
C 1.55874 -2.683901 0.795609 -3 0 -3 
C -0.795609 -3 -1.55874 -2.683901 -2.12132 -2.12132 
C -2.683901 -1.55874 -3 -0.795609 -3 0 
C -3 0.795609 -2.683901 1.55874 -2.12132 2.12132 
C -1.55874 2.683901 -0.795609 3 0 3 
z
" style="stroke: #1f77b4"/>
    </defs>
    <g clip-path="url(#pb141c1aad1)">
     <use xlink:href="#m030c870012" x="79.010227" y="372.304866" style="fill: #1f77b4; stroke: #1f77b4"/>
     <use xlink:href="#m030c870012" x="79.258241" y="372.574816" style="fill: #1f77b4; stroke: #1f77b4"/>
     <use xlink:href="#m030c870012" x="79.568931" y="371.742088" style="fill: #1f77b4; stroke: #1f77b4"/>
     <use xlink:href="#m030c870012" x="79.987281" y="370.932236" style="fill: #1f77b4; stroke: #1f77b4"/>
     <use xlink:href="#m030c870012" x="80.560697" y="370.268798" style="fill: #1f77b4; stroke: #1f77b4"/>
     <use xlink:href="#m030c870012" x="81.405887" y="367.203257" style="fill: #1f77b4; stroke: #1f77b4"/>
     <use xlink:href="#m030c870012" x="82.775895" y="364.91554" style="fill: #1f77b4; stroke: #1f77b4"/>
     <use xlink:href="#m030c870012" x="85.334528" y="359.731574" style="fill: #1f77b4; stroke: #1f77b4"/>
     <use xlink:href="#m030c870012" x="91.724283" y="345.405891" style="fill: #1f77b4; stroke: #1f77b4"/>
     <use xlink:href="#m030c870012" x="120.615497" y="275.561894" style="fill: #1f77b4; stroke: #1f77b4"/>
     <use xlink:href="#m030c870012" x="156.377178" y="208.339621" style="fill: #1f77b4; stroke: #1f77b4"/>
     <use xlink:href="#m030c870012" x="192.211247" y="158.563476" style="fill: #1f77b4; stroke: #1f77b4"/>
     <use xlink:href="#m030c870012" x="227.105039" y="126.809966" style="fill: #1f77b4; stroke: #1f77b4"/>
     <use xlink:href="#m030c870012" x="261.237256" y="101.329375" style="fill: #1f77b4; stroke: #1f77b4"/>
     <use xlink:href="#m030c870012" x="326.507699" y="74.503607" style="fill: #1f77b4; stroke: #1f77b4"/>
     <use xlink:href="#m030c870012" x="358.771505" y="65.645567" style="fill: #1f77b4; stroke: #1f77b4"/>
     <use xlink:href="#m030c870012" x="389.83524" y="59.459581" style="fill: #1f77b4; stroke: #1f77b4"/>
     <use xlink:href="#m030c870012" x="423.697136" y="57.039176" style="fill: #1f77b4; stroke: #1f77b4"/>
     <use xlink:href="#m030c870012" x="454.797869" y="54.234435" style="fill: #1f77b4; stroke: #1f77b4"/>
     <use xlink:href="#m030c870012" x="485.23216" y="52.582704" style="fill: #1f77b4; stroke: #1f77b4"/>
     <use xlink:href="#m030c870012" x="516.716741" y="51.631013" style="fill: #1f77b4; stroke: #1f77b4"/>
     <use xlink:href="#m030c870012" x="551.241362" y="50.079941" style="fill: #1f77b4; stroke: #1f77b4"/>
     <use xlink:href="#m030c870012" x="614.172829" y="49.32957" style="fill: #1f77b4; stroke: #1f77b4"/>
     <use xlink:href="#m030c870012" x="642.808288" y="48.981837" style="fill: #1f77b4; stroke: #1f77b4"/>
     <use xlink:href="#m030c870012" x="674.567498" y="48.670708" style="fill: #1f77b4; stroke: #1f77b4"/>
     <use xlink:href="#m030c870012" x="706.164773" y="48.181136" style="fill: #1f77b4; stroke: #1f77b4"/>
    </g>
   </g>
   <g id="line2d_30">
    <path d="M 79.010227 434.096099 
L 79.258241 434.562793 
L 79.568931 433.030023 
L 79.987281 433.826149 
L 80.560697 434.022892 
L 81.405887 434.430106 
L 82.775895 434.521615 
L 85.334528 433.967987 
L 91.724283 432.403189 
L 120.615497 435.546512 
L 156.377178 444.537239 
L 192.211247 455.797382 
L 227.105039 465.140417 
L 261.237256 476.08943 
L 326.507699 488.356168 
L 358.771505 493.617917 
L 389.83524 497.191331 
L 423.697136 498.568537 
L 454.797869 500.142486 
L 485.23216 501.19026 
L 516.716741 501.231439 
L 551.241362 502.71388 
L 614.172829 503.272083 
L 642.808288 503.619816 
L 674.567498 503.738777 
L 706.164773 504.013303 
" clip-path="url(#pb141c1aad1)" style="fill: none; stroke: #ff7f0e; stroke-width: 2; stroke-linecap: square"/>
    <defs>
     <path id="m060c3429c6" d="M 0 3 
C 0.795609 3 1.55874 2.683901 2.12132 2.12132 
C 2.683901 1.55874 3 0.795609 3 0 
C 3 -0.795609 2.683901 -1.55874 2.12132 -2.12132 
C 1.55874 -2.683901 0.795609 -3 0 -3 
C -0.795609 -3 -1.55874 -2.683901 -2.12132 -2.12132 
C -2.683901 -1.55874 -3 -0.795609 -3 0 
C -3 0.795609 -2.683901 1.55874 -2.12132 2.12132 
C -1.55874 2.683901 -0.795609 3 0 3 
z
" style="stroke: #ff7f0e"/>
    </defs>
    <g clip-path="url(#pb141c1aad1)">
     <use xlink:href="#m060c3429c6" x="79.010227" y="434.096099" style="fill: #ff7f0e; stroke: #ff7f0e"/>
     <use xlink:href="#m060c3429c6" x="79.258241" y="434.562793" style="fill: #ff7f0e; stroke: #ff7f0e"/>
     <use xlink:href="#m060c3429c6" x="79.568931" y="433.030023" style="fill: #ff7f0e; stroke: #ff7f0e"/>
     <use xlink:href="#m060c3429c6" x="79.987281" y="433.826149" style="fill: #ff7f0e; stroke: #ff7f0e"/>
     <use xlink:href="#m060c3429c6" x="80.560697" y="434.022892" style="fill: #ff7f0e; stroke: #ff7f0e"/>
     <use xlink:href="#m060c3429c6" x="81.405887" y="434.430106" style="fill: #ff7f0e; stroke: #ff7f0e"/>
     <use xlink:href="#m060c3429c6" x="82.775895" y="434.521615" style="fill: #ff7f0e; stroke: #ff7f0e"/>
     <use xlink:href="#m060c3429c6" x="85.334528" y="433.967987" style="fill: #ff7f0e; stroke: #ff7f0e"/>
     <use xlink:href="#m060c3429c6" x="91.724283" y="432.403189" style="fill: #ff7f0e; stroke: #ff7f0e"/>
     <use xlink:href="#m060c3429c6" x="120.615497" y="435.546512" style="fill: #ff7f0e; stroke: #ff7f0e"/>
     <use xlink:href="#m060c3429c6" x="156.377178" y="444.537239" style="fill: #ff7f0e; stroke: #ff7f0e"/>
     <use xlink:href="#m060c3429c6" x="192.211247" y="455.797382" style="fill: #ff7f0e; stroke: #ff7f0e"/>
     <use xlink:href="#m060c3429c6" x="227.105039" y="465.140417" style="fill: #ff7f0e; stroke: #ff7f0e"/>
     <use xlink:href="#m060c3429c6" x="261.237256" y="476.08943" style="fill: #ff7f0e; stroke: #ff7f0e"/>
     <use xlink:href="#m060c3429c6" x="326.507699" y="488.356168" style="fill: #ff7f0e; stroke: #ff7f0e"/>
     <use xlink:href="#m060c3429c6" x="358.771505" y="493.617917" style="fill: #ff7f0e; stroke: #ff7f0e"/>
     <use xlink:href="#m060c3429c6" x="389.83524" y="497.191331" style="fill: #ff7f0e; stroke: #ff7f0e"/>
     <use xlink:href="#m060c3429c6" x="423.697136" y="498.568537" style="fill: #ff7f0e; stroke: #ff7f0e"/>
     <use xlink:href="#m060c3429c6" x="454.797869" y="500.142486" style="fill: #ff7f0e; stroke: #ff7f0e"/>
     <use xlink:href="#m060c3429c6" x="485.23216" y="501.19026" style="fill: #ff7f0e; stroke: #ff7f0e"/>
     <use xlink:href="#m060c3429c6" x="516.716741" y="501.231439" style="fill: #ff7f0e; stroke: #ff7f0e"/>
     <use xlink:href="#m060c3429c6" x="551.241362" y="502.71388" style="fill: #ff7f0e; stroke: #ff7f0e"/>
     <use xlink:href="#m060c3429c6" x="614.172829" y="503.272083" style="fill: #ff7f0e; stroke: #ff7f0e"/>
     <use xlink:href="#m060c3429c6" x="642.808288" y="503.619816" style="fill: #ff7f0e; stroke: #ff7f0e"/>
     <use xlink:href="#m060c3429c6" x="674.567498" y="503.738777" style="fill: #ff7f0e; stroke: #ff7f0e"/>
     <use xlink:href="#m060c3429c6" x="706.164773" y="504.013303" style="fill: #ff7f0e; stroke: #ff7f0e"/>
    </g>
   </g>
   <g id="line2d_31">
    <path d="M 79.010227 448.24334 
L 79.258241 448.247916 
L 79.568931 448.595649 
L 79.987281 448.156407 
L 80.560697 448.385179 
L 81.405887 447.804099 
L 82.775895 447.735467 
L 85.334528 449.144701 
L 91.724283 448.993712 
L 120.615497 456.712468 
L 156.377178 466.028052 
L 192.211247 478.006537 
L 227.105039 485.574305 
L 261.237256 492.12175 
L 326.507699 499.305182 
L 358.771505 500.435314 
L 389.83524 502.009263 
L 423.697136 502.462231 
L 454.797869 503.075339 
L 485.23216 503.50543 
L 516.716741 504.109387 
L 551.241362 504.24665 
L 614.172829 504.301555 
L 642.808288 504.178019 
L 674.567498 504.306131 
L 706.164773 504.484573 
" clip-path="url(#pb141c1aad1)" style="fill: none; stroke: #2ca02c; stroke-width: 2; stroke-linecap: square"/>
    <defs>
     <path id="m1007aa78cb" d="M 0 3 
C 0.795609 3 1.55874 2.683901 2.12132 2.12132 
C 2.683901 1.55874 3 0.795609 3 0 
C 3 -0.795609 2.683901 -1.55874 2.12132 -2.12132 
C 1.55874 -2.683901 0.795609 -3 0 -3 
C -0.795609 -3 -1.55874 -2.683901 -2.12132 -2.12132 
C -2.683901 -1.55874 -3 -0.795609 -3 0 
C -3 0.795609 -2.683901 1.55874 -2.12132 2.12132 
C -1.55874 2.683901 -0.795609 3 0 3 
z
" style="stroke: #2ca02c"/>
    </defs>
    <g clip-path="url(#pb141c1aad1)">
     <use xlink:href="#m1007aa78cb" x="79.010227" y="448.24334" style="fill: #2ca02c; stroke: #2ca02c"/>
     <use xlink:href="#m1007aa78cb" x="79.258241" y="448.247916" style="fill: #2ca02c; stroke: #2ca02c"/>
     <use xlink:href="#m1007aa78cb" x="79.568931" y="448.595649" style="fill: #2ca02c; stroke: #2ca02c"/>
     <use xlink:href="#m1007aa78cb" x="79.987281" y="448.156407" style="fill: #2ca02c; stroke: #2ca02c"/>
     <use xlink:href="#m1007aa78cb" x="80.560697" y="448.385179" style="fill: #2ca02c; stroke: #2ca02c"/>
     <use xlink:href="#m1007aa78cb" x="81.405887" y="447.804099" style="fill: #2ca02c; stroke: #2ca02c"/>
     <use xlink:href="#m1007aa78cb" x="82.775895" y="447.735467" style="fill: #2ca02c; stroke: #2ca02c"/>
     <use xlink:href="#m1007aa78cb" x="85.334528" y="449.144701" style="fill: #2ca02c; stroke: #2ca02c"/>
     <use xlink:href="#m1007aa78cb" x="91.724283" y="448.993712" style="fill: #2ca02c; stroke: #2ca02c"/>
     <use xlink:href="#m1007aa78cb" x="120.615497" y="456.712468" style="fill: #2ca02c; stroke: #2ca02c"/>
     <use xlink:href="#m1007aa78cb" x="156.377178" y="466.028052" style="fill: #2ca02c; stroke: #2ca02c"/>
     <use xlink:href="#m1007aa78cb" x="192.211247" y="478.006537" style="fill: #2ca02c; stroke: #2ca02c"/>
     <use xlink:href="#m1007aa78cb" x="227.105039" y="485.574305" style="fill: #2ca02c; stroke: #2ca02c"/>
     <use xlink:href="#m1007aa78cb" x="261.237256" y="492.12175" style="fill: #2ca02c; stroke: #2ca02c"/>
     <use xlink:href="#m1007aa78cb" x="326.507699" y="499.305182" style="fill: #2ca02c; stroke: #2ca02c"/>
     <use xlink:href="#m1007aa78cb" x="358.771505" y="500.435314" style="fill: #2ca02c; stroke: #2ca02c"/>
     <use xlink:href="#m1007aa78cb" x="389.83524" y="502.009263" style="fill: #2ca02c; stroke: #2ca02c"/>
     <use xlink:href="#m1007aa78cb" x="423.697136" y="502.462231" style="fill: #2ca02c; stroke: #2ca02c"/>
     <use xlink:href="#m1007aa78cb" x="454.797869" y="503.075339" style="fill: #2ca02c; stroke: #2ca02c"/>
     <use xlink:href="#m1007aa78cb" x="485.23216" y="503.50543" style="fill: #2ca02c; stroke: #2ca02c"/>
     <use xlink:href="#m1007aa78cb" x="516.716741" y="504.109387" style="fill: #2ca02c; stroke: #2ca02c"/>
     <use xlink:href="#m1007aa78cb" x="551.241362" y="504.24665" style="fill: #2ca02c; stroke: #2ca02c"/>
     <use xlink:href="#m1007aa78cb" x="614.172829" y="504.301555" style="fill: #2ca02c; stroke: #2ca02c"/>
     <use xlink:href="#m1007aa78cb" x="642.808288" y="504.178019" style="fill: #2ca02c; stroke: #2ca02c"/>
     <use xlink:href="#m1007aa78cb" x="674.567498" y="504.306131" style="fill: #2ca02c; stroke: #2ca02c"/>
     <use xlink:href="#m1007aa78cb" x="706.164773" y="504.484573" style="fill: #2ca02c; stroke: #2ca02c"/>
    </g>
   </g>
   <g id="line2d_32">
    <path d="M 79.010227 454.749607 
L 79.258241 454.932625 
L 79.568931 454.685551 
L 79.987281 455.577761 
L 80.560697 454.969228 
L 81.405887 455.111067 
L 82.775895 455.925494 
L 85.334528 456.186294 
L 91.724283 458.213211 
L 120.615497 465.684894 
L 156.377178 477.695408 
L 192.211247 485.83968 
L 227.105039 492.657076 
L 261.237256 496.235065 
L 326.507699 501.034696 
L 358.771505 502.540013 
L 389.83524 503.217177 
L 423.697136 503.670145 
L 454.797869 504.150566 
L 485.23216 504.191745 
L 516.716741 504.301555 
L 551.241362 504.223773 
L 614.172829 504.338159 
L 642.808288 504.415941 
L 674.567498 504.470846 
L 706.164773 504.438818 
" clip-path="url(#pb141c1aad1)" style="fill: none; stroke: #d62728; stroke-width: 2; stroke-linecap: square"/>
    <defs>
     <path id="m37af0606fe" d="M 0 3 
C 0.795609 3 1.55874 2.683901 2.12132 2.12132 
C 2.683901 1.55874 3 0.795609 3 0 
C 3 -0.795609 2.683901 -1.55874 2.12132 -2.12132 
C 1.55874 -2.683901 0.795609 -3 0 -3 
C -0.795609 -3 -1.55874 -2.683901 -2.12132 -2.12132 
C -2.683901 -1.55874 -3 -0.795609 -3 0 
C -3 0.795609 -2.683901 1.55874 -2.12132 2.12132 
C -1.55874 2.683901 -0.795609 3 0 3 
z
" style="stroke: #d62728"/>
    </defs>
    <g clip-path="url(#pb141c1aad1)">
     <use xlink:href="#m37af0606fe" x="79.010227" y="454.749607" style="fill: #d62728; stroke: #d62728"/>
     <use xlink:href="#m37af0606fe" x="79.258241" y="454.932625" style="fill: #d62728; stroke: #d62728"/>
     <use xlink:href="#m37af0606fe" x="79.568931" y="454.685551" style="fill: #d62728; stroke: #d62728"/>
     <use xlink:href="#m37af0606fe" x="79.987281" y="455.577761" style="fill: #d62728; stroke: #d62728"/>
     <use xlink:href="#m37af0606fe" x="80.560697" y="454.969228" style="fill: #d62728; stroke: #d62728"/>
     <use xlink:href="#m37af0606fe" x="81.405887" y="455.111067" style="fill: #d62728; stroke: #d62728"/>
     <use xlink:href="#m37af0606fe" x="82.775895" y="455.925494" style="fill: #d62728; stroke: #d62728"/>
     <use xlink:href="#m37af0606fe" x="85.334528" y="456.186294" style="fill: #d62728; stroke: #d62728"/>
     <use xlink:href="#m37af0606fe" x="91.724283" y="458.213211" style="fill: #d62728; stroke: #d62728"/>
     <use xlink:href="#m37af0606fe" x="120.615497" y="465.684894" style="fill: #d62728; stroke: #d62728"/>
     <use xlink:href="#m37af0606fe" x="156.377178" y="477.695408" style="fill: #d62728; stroke: #d62728"/>
     <use xlink:href="#m37af0606fe" x="192.211247" y="485.83968" style="fill: #d62728; stroke: #d62728"/>
     <use xlink:href="#m37af0606fe" x="227.105039" y="492.657076" style="fill: #d62728; stroke: #d62728"/>
     <use xlink:href="#m37af0606fe" x="261.237256" y="496.235065" style="fill: #d62728; stroke: #d62728"/>
     <use xlink:href="#m37af0606fe" x="326.507699" y="501.034696" style="fill: #d62728; stroke: #d62728"/>
     <use xlink:href="#m37af0606fe" x="358.771505" y="502.540013" style="fill: #d62728; stroke: #d62728"/>
     <use xlink:href="#m37af0606fe" x="389.83524" y="503.217177" style="fill: #d62728; stroke: #d62728"/>
     <use xlink:href="#m37af0606fe" x="423.697136" y="503.670145" style="fill: #d62728; stroke: #d62728"/>
     <use xlink:href="#m37af0606fe" x="454.797869" y="504.150566" style="fill: #d62728; stroke: #d62728"/>
     <use xlink:href="#m37af0606fe" x="485.23216" y="504.191745" style="fill: #d62728; stroke: #d62728"/>
     <use xlink:href="#m37af0606fe" x="516.716741" y="504.301555" style="fill: #d62728; stroke: #d62728"/>
     <use xlink:href="#m37af0606fe" x="551.241362" y="504.223773" style="fill: #d62728; stroke: #d62728"/>
     <use xlink:href="#m37af0606fe" x="614.172829" y="504.338159" style="fill: #d62728; stroke: #d62728"/>
     <use xlink:href="#m37af0606fe" x="642.808288" y="504.415941" style="fill: #d62728; stroke: #d62728"/>
     <use xlink:href="#m37af0606fe" x="674.567498" y="504.470846" style="fill: #d62728; stroke: #d62728"/>
     <use xlink:href="#m37af0606fe" x="706.164773" y="504.438818" style="fill: #d62728; stroke: #d62728"/>
    </g>
   </g>
   <g id="line2d_33">
    <path d="M 79.010227 465.941118 
L 79.258241 466.448992 
L 79.568931 467.030072 
L 79.987281 466.078381 
L 80.560697 466.892809 
L 81.405887 467.684359 
L 82.775895 467.423559 
L 85.334528 467.473889 
L 91.724283 470.264903 
L 120.615497 478.752333 
L 156.377178 488.616968 
L 192.211247 495.933087 
L 227.105039 499.611736 
L 261.237256 501.762189 
L 326.507699 503.198876 
L 358.771505 503.834861 
L 389.83524 504.228348 
L 423.697136 504.210047 
L 454.797869 504.361036 
L 485.23216 504.397639 
L 516.716741 504.50745 
L 551.241362 504.502874 
L 614.172829 504.553204 
L 642.808288 504.585232 
L 674.567498 504.571506 
L 706.164773 504.61726 
" clip-path="url(#pb141c1aad1)" style="fill: none; stroke: #9467bd; stroke-width: 2; stroke-linecap: square"/>
    <defs>
     <path id="mbf6e8eaab6" d="M 0 3 
C 0.795609 3 1.55874 2.683901 2.12132 2.12132 
C 2.683901 1.55874 3 0.795609 3 0 
C 3 -0.795609 2.683901 -1.55874 2.12132 -2.12132 
C 1.55874 -2.683901 0.795609 -3 0 -3 
C -0.795609 -3 -1.55874 -2.683901 -2.12132 -2.12132 
C -2.683901 -1.55874 -3 -0.795609 -3 0 
C -3 0.795609 -2.683901 1.55874 -2.12132 2.12132 
C -1.55874 2.683901 -0.795609 3 0 3 
z
" style="stroke: #9467bd"/>
    </defs>
    <g clip-path="url(#pb141c1aad1)">
     <use xlink:href="#mbf6e8eaab6" x="79.010227" y="465.941118" style="fill: #9467bd; stroke: #9467bd"/>
     <use xlink:href="#mbf6e8eaab6" x="79.258241" y="466.448992" style="fill: #9467bd; stroke: #9467bd"/>
     <use xlink:href="#mbf6e8eaab6" x="79.568931" y="467.030072" style="fill: #9467bd; stroke: #9467bd"/>
     <use xlink:href="#mbf6e8eaab6" x="79.987281" y="466.078381" style="fill: #9467bd; stroke: #9467bd"/>
     <use xlink:href="#mbf6e8eaab6" x="80.560697" y="466.892809" style="fill: #9467bd; stroke: #9467bd"/>
     <use xlink:href="#mbf6e8eaab6" x="81.405887" y="467.684359" style="fill: #9467bd; stroke: #9467bd"/>
     <use xlink:href="#mbf6e8eaab6" x="82.775895" y="467.423559" style="fill: #9467bd; stroke: #9467bd"/>
     <use xlink:href="#mbf6e8eaab6" x="85.334528" y="467.473889" style="fill: #9467bd; stroke: #9467bd"/>
     <use xlink:href="#mbf6e8eaab6" x="91.724283" y="470.264903" style="fill: #9467bd; stroke: #9467bd"/>
     <use xlink:href="#mbf6e8eaab6" x="120.615497" y="478.752333" style="fill: #9467bd; stroke: #9467bd"/>
     <use xlink:href="#mbf6e8eaab6" x="156.377178" y="488.616968" style="fill: #9467bd; stroke: #9467bd"/>
     <use xlink:href="#mbf6e8eaab6" x="192.211247" y="495.933087" style="fill: #9467bd; stroke: #9467bd"/>
     <use xlink:href="#mbf6e8eaab6" x="227.105039" y="499.611736" style="fill: #9467bd; stroke: #9467bd"/>
     <use xlink:href="#mbf6e8eaab6" x="261.237256" y="501.762189" style="fill: #9467bd; stroke: #9467bd"/>
     <use xlink:href="#mbf6e8eaab6" x="326.507699" y="503.198876" style="fill: #9467bd; stroke: #9467bd"/>
     <use xlink:href="#mbf6e8eaab6" x="358.771505" y="503.834861" style="fill: #9467bd; stroke: #9467bd"/>
     <use xlink:href="#mbf6e8eaab6" x="389.83524" y="504.228348" style="fill: #9467bd; stroke: #9467bd"/>
     <use xlink:href="#mbf6e8eaab6" x="423.697136" y="504.210047" style="fill: #9467bd; stroke: #9467bd"/>
     <use xlink:href="#mbf6e8eaab6" x="454.797869" y="504.361036" style="fill: #9467bd; stroke: #9467bd"/>
     <use xlink:href="#mbf6e8eaab6" x="485.23216" y="504.397639" style="fill: #9467bd; stroke: #9467bd"/>
     <use xlink:href="#mbf6e8eaab6" x="516.716741" y="504.50745" style="fill: #9467bd; stroke: #9467bd"/>
     <use xlink:href="#mbf6e8eaab6" x="551.241362" y="504.502874" style="fill: #9467bd; stroke: #9467bd"/>
     <use xlink:href="#mbf6e8eaab6" x="614.172829" y="504.553204" style="fill: #9467bd; stroke: #9467bd"/>
     <use xlink:href="#mbf6e8eaab6" x="642.808288" y="504.585232" style="fill: #9467bd; stroke: #9467bd"/>
     <use xlink:href="#mbf6e8eaab6" x="674.567498" y="504.571506" style="fill: #9467bd; stroke: #9467bd"/>
     <use xlink:href="#mbf6e8eaab6" x="706.164773" y="504.61726" style="fill: #9467bd; stroke: #9467bd"/>
    </g>
   </g>
   <g id="line2d_34">
    <path d="M 79.010227 483.963752 
L 79.258241 483.144749 
L 79.568931 484.357239 
L 79.987281 484.169647 
L 80.560697 484.462474 
L 81.405887 484.279457 
L 82.775895 484.979498 
L 85.334528 485.450768 
L 91.724283 486.974387 
L 120.615497 493.983952 
L 156.377178 499.565981 
L 192.211247 501.931481 
L 227.105039 503.423072 
L 261.237256 504.08651 
L 326.507699 504.475422 
L 358.771505 504.539478 
L 389.83524 504.534902 
L 423.697136 504.548629 
L 454.797869 504.594383 
L 485.23216 504.640137 
L 516.716741 504.640137 
L 551.241362 504.630986 
L 614.172829 504.626411 
L 642.808288 504.649288 
L 674.567498 504.626411 
L 706.164773 504.649288 
" clip-path="url(#pb141c1aad1)" style="fill: none; stroke: #8c564b; stroke-width: 2; stroke-linecap: square"/>
    <defs>
     <path id="me3294f717c" d="M 0 3 
C 0.795609 3 1.55874 2.683901 2.12132 2.12132 
C 2.683901 1.55874 3 0.795609 3 0 
C 3 -0.795609 2.683901 -1.55874 2.12132 -2.12132 
C 1.55874 -2.683901 0.795609 -3 0 -3 
C -0.795609 -3 -1.55874 -2.683901 -2.12132 -2.12132 
C -2.683901 -1.55874 -3 -0.795609 -3 0 
C -3 0.795609 -2.683901 1.55874 -2.12132 2.12132 
C -1.55874 2.683901 -0.795609 3 0 3 
z
" style="stroke: #8c564b"/>
    </defs>
    <g clip-path="url(#pb141c1aad1)">
     <use xlink:href="#me3294f717c" x="79.010227" y="483.963752" style="fill: #8c564b; stroke: #8c564b"/>
     <use xlink:href="#me3294f717c" x="79.258241" y="483.144749" style="fill: #8c564b; stroke: #8c564b"/>
     <use xlink:href="#me3294f717c" x="79.568931" y="484.357239" style="fill: #8c564b; stroke: #8c564b"/>
     <use xlink:href="#me3294f717c" x="79.987281" y="484.169647" style="fill: #8c564b; stroke: #8c564b"/>
     <use xlink:href="#me3294f717c" x="80.560697" y="484.462474" style="fill: #8c564b; stroke: #8c564b"/>
     <use xlink:href="#me3294f717c" x="81.405887" y="484.279457" style="fill: #8c564b; stroke: #8c564b"/>
     <use xlink:href="#me3294f717c" x="82.775895" y="484.979498" style="fill: #8c564b; stroke: #8c564b"/>
     <use xlink:href="#me3294f717c" x="85.334528" y="485.450768" style="fill: #8c564b; stroke: #8c564b"/>
     <use xlink:href="#me3294f717c" x="91.724283" y="486.974387" style="fill: #8c564b; stroke: #8c564b"/>
     <use xlink:href="#me3294f717c" x="120.615497" y="493.983952" style="fill: #8c564b; stroke: #8c564b"/>
     <use xlink:href="#me3294f717c" x="156.377178" y="499.565981" style="fill: #8c564b; stroke: #8c564b"/>
     <use xlink:href="#me3294f717c" x="192.211247" y="501.931481" style="fill: #8c564b; stroke: #8c564b"/>
     <use xlink:href="#me3294f717c" x="227.105039" y="503.423072" style="fill: #8c564b; stroke: #8c564b"/>
     <use xlink:href="#me3294f717c" x="261.237256" y="504.08651" style="fill: #8c564b; stroke: #8c564b"/>
     <use xlink:href="#me3294f717c" x="326.507699" y="504.475422" style="fill: #8c564b; stroke: #8c564b"/>
     <use xlink:href="#me3294f717c" x="358.771505" y="504.539478" style="fill: #8c564b; stroke: #8c564b"/>
     <use xlink:href="#me3294f717c" x="389.83524" y="504.534902" style="fill: #8c564b; stroke: #8c564b"/>
     <use xlink:href="#me3294f717c" x="423.697136" y="504.548629" style="fill: #8c564b; stroke: #8c564b"/>
     <use xlink:href="#me3294f717c" x="454.797869" y="504.594383" style="fill: #8c564b; stroke: #8c564b"/>
     <use xlink:href="#me3294f717c" x="485.23216" y="504.640137" style="fill: #8c564b; stroke: #8c564b"/>
     <use xlink:href="#me3294f717c" x="516.716741" y="504.640137" style="fill: #8c564b; stroke: #8c564b"/>
     <use xlink:href="#me3294f717c" x="551.241362" y="504.630986" style="fill: #8c564b; stroke: #8c564b"/>
     <use xlink:href="#me3294f717c" x="614.172829" y="504.626411" style="fill: #8c564b; stroke: #8c564b"/>
     <use xlink:href="#me3294f717c" x="642.808288" y="504.649288" style="fill: #8c564b; stroke: #8c564b"/>
     <use xlink:href="#me3294f717c" x="674.567498" y="504.626411" style="fill: #8c564b; stroke: #8c564b"/>
     <use xlink:href="#me3294f717c" x="706.164773" y="504.649288" style="fill: #8c564b; stroke: #8c564b"/>
    </g>
   </g>
   <g id="line2d_35">
    <path d="M 79.010227 486.608353 
L 79.258241 486.640381 
L 79.568931 486.937784 
L 79.987281 486.512269 
L 80.560697 486.118781 
L 81.405887 487.290092 
L 82.775895 487.587496 
L 85.334528 488.241783 
L 91.724283 489.834034 
L 120.615497 496.267094 
L 156.377178 500.453615 
L 192.211247 502.704729 
L 227.105039 503.720475 
L 261.237256 504.24665 
L 326.507699 504.475422 
L 358.771505 504.594383 
L 389.83524 504.571506 
L 423.697136 504.61726 
L 454.797869 504.55778 
L 485.23216 504.603534 
L 516.716741 504.640137 
L 551.241362 504.653864 
L 614.172829 504.653864 
L 642.808288 504.630986 
L 674.567498 504.649288 
L 706.164773 504.653864 
" clip-path="url(#pb141c1aad1)" style="fill: none; stroke: #e377c2; stroke-width: 2; stroke-linecap: square"/>
    <defs>
     <path id="mb6709c60da" d="M 0 3 
C 0.795609 3 1.55874 2.683901 2.12132 2.12132 
C 2.683901 1.55874 3 0.795609 3 0 
C 3 -0.795609 2.683901 -1.55874 2.12132 -2.12132 
C 1.55874 -2.683901 0.795609 -3 0 -3 
C -0.795609 -3 -1.55874 -2.683901 -2.12132 -2.12132 
C -2.683901 -1.55874 -3 -0.795609 -3 0 
C -3 0.795609 -2.683901 1.55874 -2.12132 2.12132 
C -1.55874 2.683901 -0.795609 3 0 3 
z
" style="stroke: #e377c2"/>
    </defs>
    <g clip-path="url(#pb141c1aad1)">
     <use xlink:href="#mb6709c60da" x="79.010227" y="486.608353" style="fill: #e377c2; stroke: #e377c2"/>
     <use xlink:href="#mb6709c60da" x="79.258241" y="486.640381" style="fill: #e377c2; stroke: #e377c2"/>
     <use xlink:href="#mb6709c60da" x="79.568931" y="486.937784" style="fill: #e377c2; stroke: #e377c2"/>
     <use xlink:href="#mb6709c60da" x="79.987281" y="486.512269" style="fill: #e377c2; stroke: #e377c2"/>
     <use xlink:href="#mb6709c60da" x="80.560697" y="486.118781" style="fill: #e377c2; stroke: #e377c2"/>
     <use xlink:href="#mb6709c60da" x="81.405887" y="487.290092" style="fill: #e377c2; stroke: #e377c2"/>
     <use xlink:href="#mb6709c60da" x="82.775895" y="487.587496" style="fill: #e377c2; stroke: #e377c2"/>
     <use xlink:href="#mb6709c60da" x="85.334528" y="488.241783" style="fill: #e377c2; stroke: #e377c2"/>
     <use xlink:href="#mb6709c60da" x="91.724283" y="489.834034" style="fill: #e377c2; stroke: #e377c2"/>
     <use xlink:href="#mb6709c60da" x="120.615497" y="496.267094" style="fill: #e377c2; stroke: #e377c2"/>
     <use xlink:href="#mb6709c60da" x="156.377178" y="500.453615" style="fill: #e377c2; stroke: #e377c2"/>
     <use xlink:href="#mb6709c60da" x="192.211247" y="502.704729" style="fill: #e377c2; stroke: #e377c2"/>
     <use xlink:href="#mb6709c60da" x="227.105039" y="503.720475" style="fill: #e377c2; stroke: #e377c2"/>
     <use xlink:href="#mb6709c60da" x="261.237256" y="504.24665" style="fill: #e377c2; stroke: #e377c2"/>
     <use xlink:href="#mb6709c60da" x="326.507699" y="504.475422" style="fill: #e377c2; stroke: #e377c2"/>
     <use xlink:href="#mb6709c60da" x="358.771505" y="504.594383" style="fill: #e377c2; stroke: #e377c2"/>
     <use xlink:href="#mb6709c60da" x="389.83524" y="504.571506" style="fill: #e377c2; stroke: #e377c2"/>
     <use xlink:href="#mb6709c60da" x="423.697136" y="504.61726" style="fill: #e377c2; stroke: #e377c2"/>
     <use xlink:href="#mb6709c60da" x="454.797869" y="504.55778" style="fill: #e377c2; stroke: #e377c2"/>
     <use xlink:href="#mb6709c60da" x="485.23216" y="504.603534" style="fill: #e377c2; stroke: #e377c2"/>
     <use xlink:href="#mb6709c60da" x="516.716741" y="504.640137" style="fill: #e377c2; stroke: #e377c2"/>
     <use xlink:href="#mb6709c60da" x="551.241362" y="504.653864" style="fill: #e377c2; stroke: #e377c2"/>
     <use xlink:href="#mb6709c60da" x="614.172829" y="504.653864" style="fill: #e377c2; stroke: #e377c2"/>
     <use xlink:href="#mb6709c60da" x="642.808288" y="504.630986" style="fill: #e377c2; stroke: #e377c2"/>
     <use xlink:href="#mb6709c60da" x="674.567498" y="504.649288" style="fill: #e377c2; stroke: #e377c2"/>
     <use xlink:href="#mb6709c60da" x="706.164773" y="504.653864" style="fill: #e377c2; stroke: #e377c2"/>
    </g>
   </g>
   <g id="line2d_36">
    <path d="M 79.010227 487.37245 
L 79.258241 487.37245 
L 79.568931 487.450233 
L 79.987281 487.537166 
L 80.560697 487.569194 
L 81.405887 487.829994 
L 82.775895 488.433951 
L 85.334528 488.900645 
L 91.724283 490.611857 
L 120.615497 496.468413 
L 156.377178 500.810499 
L 192.211247 503.038736 
L 227.105039 503.683872 
L 261.237256 504.283253 
L 326.507699 504.516601 
L 358.771505 504.603534 
L 389.83524 504.56693 
L 423.697136 504.621836 
L 454.797869 504.630986 
L 485.23216 504.612685 
L 516.716741 504.635562 
L 551.241362 504.644713 
L 614.172829 504.635562 
L 642.808288 504.640137 
L 674.567498 504.653864 
L 706.164773 504.653864 
" clip-path="url(#pb141c1aad1)" style="fill: none; stroke: #17becf; stroke-width: 2; stroke-linecap: square"/>
    <defs>
     <path id="m0e08bd0e92" d="M 0 3 
C 0.795609 3 1.55874 2.683901 2.12132 2.12132 
C 2.683901 1.55874 3 0.795609 3 0 
C 3 -0.795609 2.683901 -1.55874 2.12132 -2.12132 
C 1.55874 -2.683901 0.795609 -3 0 -3 
C -0.795609 -3 -1.55874 -2.683901 -2.12132 -2.12132 
C -2.683901 -1.55874 -3 -0.795609 -3 0 
C -3 0.795609 -2.683901 1.55874 -2.12132 2.12132 
C -1.55874 2.683901 -0.795609 3 0 3 
z
" style="stroke: #17becf"/>
    </defs>
    <g clip-path="url(#pb141c1aad1)">
     <use xlink:href="#m0e08bd0e92" x="79.010227" y="487.37245" style="fill: #17becf; stroke: #17becf"/>
     <use xlink:href="#m0e08bd0e92" x="79.258241" y="487.37245" style="fill: #17becf; stroke: #17becf"/>
     <use xlink:href="#m0e08bd0e92" x="79.568931" y="487.450233" style="fill: #17becf; stroke: #17becf"/>
     <use xlink:href="#m0e08bd0e92" x="79.987281" y="487.537166" style="fill: #17becf; stroke: #17becf"/>
     <use xlink:href="#m0e08bd0e92" x="80.560697" y="487.569194" style="fill: #17becf; stroke: #17becf"/>
     <use xlink:href="#m0e08bd0e92" x="81.405887" y="487.829994" style="fill: #17becf; stroke: #17becf"/>
     <use xlink:href="#m0e08bd0e92" x="82.775895" y="488.433951" style="fill: #17becf; stroke: #17becf"/>
     <use xlink:href="#m0e08bd0e92" x="85.334528" y="488.900645" style="fill: #17becf; stroke: #17becf"/>
     <use xlink:href="#m0e08bd0e92" x="91.724283" y="490.611857" style="fill: #17becf; stroke: #17becf"/>
     <use xlink:href="#m0e08bd0e92" x="120.615497" y="496.468413" style="fill: #17becf; stroke: #17becf"/>
     <use xlink:href="#m0e08bd0e92" x="156.377178" y="500.810499" style="fill: #17becf; stroke: #17becf"/>
     <use xlink:href="#m0e08bd0e92" x="192.211247" y="503.038736" style="fill: #17becf; stroke: #17becf"/>
     <use xlink:href="#m0e08bd0e92" x="227.105039" y="503.683872" style="fill: #17becf; stroke: #17becf"/>
     <use xlink:href="#m0e08bd0e92" x="261.237256" y="504.283253" style="fill: #17becf; stroke: #17becf"/>
     <use xlink:href="#m0e08bd0e92" x="326.507699" y="504.516601" style="fill: #17becf; stroke: #17becf"/>
     <use xlink:href="#m0e08bd0e92" x="358.771505" y="504.603534" style="fill: #17becf; stroke: #17becf"/>
     <use xlink:href="#m0e08bd0e92" x="389.83524" y="504.56693" style="fill: #17becf; stroke: #17becf"/>
     <use xlink:href="#m0e08bd0e92" x="423.697136" y="504.621836" style="fill: #17becf; stroke: #17becf"/>
     <use xlink:href="#m0e08bd0e92" x="454.797869" y="504.630986" style="fill: #17becf; stroke: #17becf"/>
     <use xlink:href="#m0e08bd0e92" x="485.23216" y="504.612685" style="fill: #17becf; stroke: #17becf"/>
     <use xlink:href="#m0e08bd0e92" x="516.716741" y="504.635562" style="fill: #17becf; stroke: #17becf"/>
     <use xlink:href="#m0e08bd0e92" x="551.241362" y="504.644713" style="fill: #17becf; stroke: #17becf"/>
     <use xlink:href="#m0e08bd0e92" x="614.172829" y="504.635562" style="fill: #17becf; stroke: #17becf"/>
     <use xlink:href="#m0e08bd0e92" x="642.808288" y="504.640137" style="fill: #17becf; stroke: #17becf"/>
     <use xlink:href="#m0e08bd0e92" x="674.567498" y="504.653864" style="fill: #17becf; stroke: #17becf"/>
     <use xlink:href="#m0e08bd0e92" x="706.164773" y="504.653864" style="fill: #17becf; stroke: #17becf"/>
    </g>
   </g>
   <g id="line2d_37">
    <path d="M 79.010227 493.951924 
L 79.258241 494.22645 
L 79.568931 494.299657 
L 79.987281 494.052584 
L 80.560697 494.038857 
L 81.405887 494.7572 
L 82.775895 494.464373 
L 85.334528 494.848709 
L 91.724283 495.951389 
L 120.615497 500.458191 
L 156.377178 503.061613 
L 192.211247 504.059057 
L 227.105039 504.283253 
L 261.237256 504.516601 
L 326.507699 504.594383 
L 358.771505 504.608109 
L 389.83524 504.635562 
L 423.697136 504.635562 
L 454.797869 504.626411 
L 485.23216 504.635562 
L 516.716741 504.653864 
L 551.241362 504.653864 
L 614.172829 504.653864 
L 642.808288 504.653864 
L 674.567498 504.653864 
L 706.164773 504.653864 
" clip-path="url(#pb141c1aad1)" style="fill: none; stroke: #bcbd22; stroke-width: 2; stroke-linecap: square"/>
    <defs>
     <path id="mf4bda0536b" d="M 0 3 
C 0.795609 3 1.55874 2.683901 2.12132 2.12132 
C 2.683901 1.55874 3 0.795609 3 0 
C 3 -0.795609 2.683901 -1.55874 2.12132 -2.12132 
C 1.55874 -2.683901 0.795609 -3 0 -3 
C -0.795609 -3 -1.55874 -2.683901 -2.12132 -2.12132 
C -2.683901 -1.55874 -3 -0.795609 -3 0 
C -3 0.795609 -2.683901 1.55874 -2.12132 2.12132 
C -1.55874 2.683901 -0.795609 3 0 3 
z
" style="stroke: #bcbd22"/>
    </defs>
    <g clip-path="url(#pb141c1aad1)">
     <use xlink:href="#mf4bda0536b" x="79.010227" y="493.951924" style="fill: #bcbd22; stroke: #bcbd22"/>
     <use xlink:href="#mf4bda0536b" x="79.258241" y="494.22645" style="fill: #bcbd22; stroke: #bcbd22"/>
     <use xlink:href="#mf4bda0536b" x="79.568931" y="494.299657" style="fill: #bcbd22; stroke: #bcbd22"/>
     <use xlink:href="#mf4bda0536b" x="79.987281" y="494.052584" style="fill: #bcbd22; stroke: #bcbd22"/>
     <use xlink:href="#mf4bda0536b" x="80.560697" y="494.038857" style="fill: #bcbd22; stroke: #bcbd22"/>
     <use xlink:href="#mf4bda0536b" x="81.405887" y="494.7572" style="fill: #bcbd22; stroke: #bcbd22"/>
     <use xlink:href="#mf4bda0536b" x="82.775895" y="494.464373" style="fill: #bcbd22; stroke: #bcbd22"/>
     <use xlink:href="#mf4bda0536b" x="85.334528" y="494.848709" style="fill: #bcbd22; stroke: #bcbd22"/>
     <use xlink:href="#mf4bda0536b" x="91.724283" y="495.951389" style="fill: #bcbd22; stroke: #bcbd22"/>
     <use xlink:href="#mf4bda0536b" x="120.615497" y="500.458191" style="fill: #bcbd22; stroke: #bcbd22"/>
     <use xlink:href="#mf4bda0536b" x="156.377178" y="503.061613" style="fill: #bcbd22; stroke: #bcbd22"/>
     <use xlink:href="#mf4bda0536b" x="192.211247" y="504.059057" style="fill: #bcbd22; stroke: #bcbd22"/>
     <use xlink:href="#mf4bda0536b" x="227.105039" y="504.283253" style="fill: #bcbd22; stroke: #bcbd22"/>
     <use xlink:href="#mf4bda0536b" x="261.237256" y="504.516601" style="fill: #bcbd22; stroke: #bcbd22"/>
     <use xlink:href="#mf4bda0536b" x="326.507699" y="504.594383" style="fill: #bcbd22; stroke: #bcbd22"/>
     <use xlink:href="#mf4bda0536b" x="358.771505" y="504.608109" style="fill: #bcbd22; stroke: #bcbd22"/>
     <use xlink:href="#mf4bda0536b" x="389.83524" y="504.635562" style="fill: #bcbd22; stroke: #bcbd22"/>
     <use xlink:href="#mf4bda0536b" x="423.697136" y="504.635562" style="fill: #bcbd22; stroke: #bcbd22"/>
     <use xlink:href="#mf4bda0536b" x="454.797869" y="504.626411" style="fill: #bcbd22; stroke: #bcbd22"/>
     <use xlink:href="#mf4bda0536b" x="485.23216" y="504.635562" style="fill: #bcbd22; stroke: #bcbd22"/>
     <use xlink:href="#mf4bda0536b" x="516.716741" y="504.653864" style="fill: #bcbd22; stroke: #bcbd22"/>
     <use xlink:href="#mf4bda0536b" x="551.241362" y="504.653864" style="fill: #bcbd22; stroke: #bcbd22"/>
     <use xlink:href="#mf4bda0536b" x="614.172829" y="504.653864" style="fill: #bcbd22; stroke: #bcbd22"/>
     <use xlink:href="#mf4bda0536b" x="642.808288" y="504.653864" style="fill: #bcbd22; stroke: #bcbd22"/>
     <use xlink:href="#mf4bda0536b" x="674.567498" y="504.653864" style="fill: #bcbd22; stroke: #bcbd22"/>
     <use xlink:href="#mf4bda0536b" x="706.164773" y="504.653864" style="fill: #bcbd22; stroke: #bcbd22"/>
    </g>
   </g>
   <g id="patch_3">
    <path d="M 47.6525 527.4775 
L 47.6525 25.3575 
" style="fill: none; stroke: #000000; stroke-width: 0.8; stroke-linejoin: miter; stroke-linecap: square"/>
   </g>
   <g id="patch_4">
    <path d="M 737.5225 527.4775 
L 737.5225 25.3575 
" style="fill: none; stroke: #000000; stroke-width: 0.8; stroke-linejoin: miter; stroke-linecap: square"/>
   </g>
   <g id="patch_5">
    <path d="M 47.6525 527.4775 
L 737.5225 527.4775 
" style="fill: none; stroke: #000000; stroke-width: 0.8; stroke-linejoin: miter; stroke-linecap: square"/>
   </g>
   <g id="patch_6">
    <path d="M 47.6525 25.3575 
L 737.5225 25.3575 
" style="fill: none; stroke: #000000; stroke-width: 0.8; stroke-linejoin: miter; stroke-linecap: square"/>
   </g>
   <g id="text_17">
    <!-- Mining Shares vs Dynamic Δ/T Ratio -->
    <g transform="translate(248.28625 19.3575) scale(0.16 -0.16)">
     <defs>
      <path id="DejaVuSans-4d" d="M 628 4666 
L 1569 4666 
L 2759 1491 
L 3956 4666 
L 4897 4666 
L 4897 0 
L 4281 0 
L 4281 4097 
L 3078 897 
L 2444 897 
L 1241 4097 
L 1241 0 
L 628 0 
L 628 4666 
z
" transform="scale(0.015625)"/>
      <path id="DejaVuSans-67" d="M 2906 1791 
Q 2906 2416 2648 2759 
Q 2391 3103 1925 3103 
Q 1463 3103 1205 2759 
Q 947 2416 947 1791 
Q 947 1169 1205 825 
Q 1463 481 1925 481 
Q 2391 481 2648 825 
Q 2906 1169 2906 1791 
z
M 3481 434 
Q 3481 -459 3084 -895 
Q 2688 -1331 1869 -1331 
Q 1566 -1331 1297 -1286 
Q 1028 -1241 775 -1147 
L 775 -588 
Q 1028 -725 1275 -790 
Q 1522 -856 1778 -856 
Q 2344 -856 2625 -561 
Q 2906 -266 2906 331 
L 2906 616 
Q 2728 306 2450 153 
Q 2172 0 1784 0 
Q 1141 0 747 490 
Q 353 981 353 1791 
Q 353 2603 747 3093 
Q 1141 3584 1784 3584 
Q 2172 3584 2450 3431 
Q 2728 3278 2906 2969 
L 2906 3500 
L 3481 3500 
L 3481 434 
z
" transform="scale(0.015625)"/>
      <path id="DejaVuSans-53" d="M 3425 4513 
L 3425 3897 
Q 3066 4069 2747 4153 
Q 2428 4238 2131 4238 
Q 1616 4238 1336 4038 
Q 1056 3838 1056 3469 
Q 1056 3159 1242 3001 
Q 1428 2844 1947 2747 
L 2328 2669 
Q 3034 2534 3370 2195 
Q 3706 1856 3706 1288 
Q 3706 609 3251 259 
Q 2797 -91 1919 -91 
Q 1588 -91 1214 -16 
Q 841 59 441 206 
L 441 856 
Q 825 641 1194 531 
Q 1563 422 1919 422 
Q 2459 422 2753 634 
Q 3047 847 3047 1241 
Q 3047 1584 2836 1778 
Q 2625 1972 2144 2069 
L 1759 2144 
Q 1053 2284 737 2584 
Q 422 2884 422 3419 
Q 422 4038 858 4394 
Q 1294 4750 2059 4750 
Q 2388 4750 2728 4690 
Q 3069 4631 3425 4513 
z
" transform="scale(0.015625)"/>
      <path id="DejaVuSans-68" d="M 3513 2113 
L 3513 0 
L 2938 0 
L 2938 2094 
Q 2938 2591 2744 2837 
Q 2550 3084 2163 3084 
Q 1697 3084 1428 2787 
Q 1159 2491 1159 1978 
L 1159 0 
L 581 0 
L 581 4863 
L 1159 4863 
L 1159 2956 
Q 1366 3272 1645 3428 
Q 1925 3584 2291 3584 
Q 2894 3584 3203 3211 
Q 3513 2838 3513 2113 
z
" transform="scale(0.015625)"/>
      <path id="DejaVuSans-65" d="M 3597 1894 
L 3597 1613 
L 953 1613 
Q 991 1019 1311 708 
Q 1631 397 2203 397 
Q 2534 397 2845 478 
Q 3156 559 3463 722 
L 3463 178 
Q 3153 47 2828 -22 
Q 2503 -91 2169 -91 
Q 1331 -91 842 396 
Q 353 884 353 1716 
Q 353 2575 817 3079 
Q 1281 3584 2069 3584 
Q 2775 3584 3186 3129 
Q 3597 2675 3597 1894 
z
M 3022 2063 
Q 3016 2534 2758 2815 
Q 2500 3097 2075 3097 
Q 1594 3097 1305 2825 
Q 1016 2553 972 2059 
L 3022 2063 
z
" transform="scale(0.015625)"/>
      <path id="DejaVuSans-73" d="M 2834 3397 
L 2834 2853 
Q 2591 2978 2328 3040 
Q 2066 3103 1784 3103 
Q 1356 3103 1142 2972 
Q 928 2841 928 2578 
Q 928 2378 1081 2264 
Q 1234 2150 1697 2047 
L 1894 2003 
Q 2506 1872 2764 1633 
Q 3022 1394 3022 966 
Q 3022 478 2636 193 
Q 2250 -91 1575 -91 
Q 1294 -91 989 -36 
Q 684 19 347 128 
L 347 722 
Q 666 556 975 473 
Q 1284 391 1588 391 
Q 1994 391 2212 530 
Q 2431 669 2431 922 
Q 2431 1156 2273 1281 
Q 2116 1406 1581 1522 
L 1381 1569 
Q 847 1681 609 1914 
Q 372 2147 372 2553 
Q 372 3047 722 3315 
Q 1072 3584 1716 3584 
Q 2034 3584 2315 3537 
Q 2597 3491 2834 3397 
z
" transform="scale(0.015625)"/>
      <path id="DejaVuSans-76" d="M 191 3500 
L 800 3500 
L 1894 563 
L 2988 3500 
L 3597 3500 
L 2284 0 
L 1503 0 
L 191 3500 
z
" transform="scale(0.015625)"/>
      <path id="DejaVuSans-44" d="M 1259 4147 
L 1259 519 
L 2022 519 
Q 2988 519 3436 956 
Q 3884 1394 3884 2338 
Q 3884 3275 3436 3711 
Q 2988 4147 2022 4147 
L 1259 4147 
z
M 628 4666 
L 1925 4666 
Q 3281 4666 3915 4102 
Q 4550 3538 4550 2338 
Q 4550 1131 3912 565 
Q 3275 0 1925 0 
L 628 0 
L 628 4666 
z
" transform="scale(0.015625)"/>
      <path id="DejaVuSans-52" d="M 2841 2188 
Q 3044 2119 3236 1894 
Q 3428 1669 3622 1275 
L 4263 0 
L 3584 0 
L 2988 1197 
Q 2756 1666 2539 1819 
Q 2322 1972 1947 1972 
L 1259 1972 
L 1259 0 
L 628 0 
L 628 4666 
L 2053 4666 
Q 2853 4666 3247 4331 
Q 3641 3997 3641 3322 
Q 3641 2881 3436 2590 
Q 3231 2300 2841 2188 
z
M 1259 4147 
L 1259 2491 
L 2053 2491 
Q 2509 2491 2742 2702 
Q 2975 2913 2975 3322 
Q 2975 3731 2742 3939 
Q 2509 4147 2053 4147 
L 1259 4147 
z
" transform="scale(0.015625)"/>
      <path id="DejaVuSans-74" d="M 1172 4494 
L 1172 3500 
L 2356 3500 
L 2356 3053 
L 1172 3053 
L 1172 1153 
Q 1172 725 1289 603 
Q 1406 481 1766 481 
L 2356 481 
L 2356 0 
L 1766 0 
Q 1100 0 847 248 
Q 594 497 594 1153 
L 594 3053 
L 172 3053 
L 172 3500 
L 594 3500 
L 594 4494 
L 1172 4494 
z
" transform="scale(0.015625)"/>
      <path id="DejaVuSans-6f" d="M 1959 3097 
Q 1497 3097 1228 2736 
Q 959 2375 959 1747 
Q 959 1119 1226 758 
Q 1494 397 1959 397 
Q 2419 397 2687 759 
Q 2956 1122 2956 1747 
Q 2956 2369 2687 2733 
Q 2419 3097 1959 3097 
z
M 1959 3584 
Q 2709 3584 3137 3096 
Q 3566 2609 3566 1747 
Q 3566 888 3137 398 
Q 2709 -91 1959 -91 
Q 1206 -91 779 398 
Q 353 888 353 1747 
Q 353 2609 779 3096 
Q 1206 3584 1959 3584 
z
" transform="scale(0.015625)"/>
     </defs>
     <use xlink:href="#DejaVuSans-4d"/>
     <use xlink:href="#DejaVuSans-69" transform="translate(86.279297 0)"/>
     <use xlink:href="#DejaVuSans-6e" transform="translate(114.0625 0)"/>
     <use xlink:href="#DejaVuSans-69" transform="translate(177.441406 0)"/>
     <use xlink:href="#DejaVuSans-6e" transform="translate(205.224609 0)"/>
     <use xlink:href="#DejaVuSans-67" transform="translate(268.603516 0)"/>
     <use xlink:href="#DejaVuSans-20" transform="translate(332.080078 0)"/>
     <use xlink:href="#DejaVuSans-53" transform="translate(363.867188 0)"/>
     <use xlink:href="#DejaVuSans-68" transform="translate(427.34375 0)"/>
     <use xlink:href="#DejaVuSans-61" transform="translate(490.722656 0)"/>
     <use xlink:href="#DejaVuSans-72" transform="translate(552.001953 0)"/>
     <use xlink:href="#DejaVuSans-65" transform="translate(590.865234 0)"/>
     <use xlink:href="#DejaVuSans-73" transform="translate(652.388672 0)"/>
     <use xlink:href="#DejaVuSans-20" transform="translate(704.488281 0)"/>
     <use xlink:href="#DejaVuSans-76" transform="translate(736.275391 0)"/>
     <use xlink:href="#DejaVuSans-73" transform="translate(795.455078 0)"/>
     <use xlink:href="#DejaVuSans-20" transform="translate(847.554688 0)"/>
     <use xlink:href="#DejaVuSans-44" transform="translate(879.341797 0)"/>
     <use xlink:href="#DejaVuSans-79" transform="translate(956.34375 0)"/>
     <use xlink:href="#DejaVuSans-6e" transform="translate(1015.523438 0)"/>
     <use xlink:href="#DejaVuSans-61" transform="translate(1078.902344 0)"/>
     <use xlink:href="#DejaVuSans-6d" transform="translate(1140.181641 0)"/>
     <use xlink:href="#DejaVuSans-69" transform="translate(1237.59375 0)"/>
     <use xlink:href="#DejaVuSans-63" transform="translate(1265.376953 0)"/>
     <use xlink:href="#DejaVuSans-20" transform="translate(1320.357422 0)"/>
     <use xlink:href="#DejaVuSans-394" transform="translate(1352.144531 0)"/>
     <use xlink:href="#DejaVuSans-2f" transform="translate(1420.552734 0)"/>
     <use xlink:href="#DejaVuSans-54" transform="translate(1454.244141 0)"/>
     <use xlink:href="#DejaVuSans-20" transform="translate(1515.328125 0)"/>
     <use xlink:href="#DejaVuSans-52" transform="translate(1547.115234 0)"/>
     <use xlink:href="#DejaVuSans-61" transform="translate(1614.347656 0)"/>
     <use xlink:href="#DejaVuSans-74" transform="translate(1675.626953 0)"/>
     <use xlink:href="#DejaVuSans-69" transform="translate(1714.835938 0)"/>
     <use xlink:href="#DejaVuSans-6f" transform="translate(1742.619141 0)"/>
    </g>
   </g>
   <g id="legend_1">
    <g id="patch_7">
     <path d="M 779.016 165.460625 
L 848.564437 165.460625 
Q 850.564437 165.460625 850.564437 163.460625 
L 850.564437 32.3575 
Q 850.564437 30.3575 848.564437 30.3575 
L 779.016 30.3575 
Q 777.016 30.3575 777.016 32.3575 
L 777.016 163.460625 
Q 777.016 165.460625 779.016 165.460625 
z
" style="fill: #ffffff; opacity: 0.8; stroke: #cccccc; stroke-linejoin: miter"/>
    </g>
    <g id="line2d_38">
     <path d="M 781.016 38.455938 
L 791.016 38.455938 
L 801.016 38.455938 
" style="fill: none; stroke: #1f77b4; stroke-width: 2; stroke-linecap: square"/>
     <g>
      <use xlink:href="#m030c870012" x="791.016" y="38.455938" style="fill: #1f77b4; stroke: #1f77b4"/>
     </g>
    </g>
    <g id="text_18">
     <!-- Miner 0 -->
     <g transform="translate(809.016 41.955938) scale(0.1 -0.1)">
      <use xlink:href="#DejaVuSans-4d"/>
      <use xlink:href="#DejaVuSans-69" transform="translate(86.279297 0)"/>
      <use xlink:href="#DejaVuSans-6e" transform="translate(114.0625 0)"/>
      <use xlink:href="#DejaVuSans-65" transform="translate(177.441406 0)"/>
      <use xlink:href="#DejaVuSans-72" transform="translate(238.964844 0)"/>
      <use xlink:href="#DejaVuSans-20" transform="translate(280.078125 0)"/>
      <use xlink:href="#DejaVuSans-30" transform="translate(311.865234 0)"/>
     </g>
    </g>
    <g id="line2d_39">
     <path d="M 781.016 53.134063 
L 791.016 53.134063 
L 801.016 53.134063 
" style="fill: none; stroke: #ff7f0e; stroke-width: 2; stroke-linecap: square"/>
     <g>
      <use xlink:href="#m060c3429c6" x="791.016" y="53.134063" style="fill: #ff7f0e; stroke: #ff7f0e"/>
     </g>
    </g>
    <g id="text_19">
     <!-- Miner 1 -->
     <g transform="translate(809.016 56.634063) scale(0.1 -0.1)">
      <use xlink:href="#DejaVuSans-4d"/>
      <use xlink:href="#DejaVuSans-69" transform="translate(86.279297 0)"/>
      <use xlink:href="#DejaVuSans-6e" transform="translate(114.0625 0)"/>
      <use xlink:href="#DejaVuSans-65" transform="translate(177.441406 0)"/>
      <use xlink:href="#DejaVuSans-72" transform="translate(238.964844 0)"/>
      <use xlink:href="#DejaVuSans-20" transform="translate(280.078125 0)"/>
      <use xlink:href="#DejaVuSans-31" transform="translate(311.865234 0)"/>
     </g>
    </g>
    <g id="line2d_40">
     <path d="M 781.016 67.812187 
L 791.016 67.812187 
L 801.016 67.812187 
" style="fill: none; stroke: #2ca02c; stroke-width: 2; stroke-linecap: square"/>
     <g>
      <use xlink:href="#m1007aa78cb" x="791.016" y="67.812187" style="fill: #2ca02c; stroke: #2ca02c"/>
     </g>
    </g>
    <g id="text_20">
     <!-- Miner 2 -->
     <g transform="translate(809.016 71.312187) scale(0.1 -0.1)">
      <use xlink:href="#DejaVuSans-4d"/>
      <use xlink:href="#DejaVuSans-69" transform="translate(86.279297 0)"/>
      <use xlink:href="#DejaVuSans-6e" transform="translate(114.0625 0)"/>
      <use xlink:href="#DejaVuSans-65" transform="translate(177.441406 0)"/>
      <use xlink:href="#DejaVuSans-72" transform="translate(238.964844 0)"/>
      <use xlink:href="#DejaVuSans-20" transform="translate(280.078125 0)"/>
      <use xlink:href="#DejaVuSans-32" transform="translate(311.865234 0)"/>
     </g>
    </g>
    <g id="line2d_41">
     <path d="M 781.016 82.490313 
L 791.016 82.490313 
L 801.016 82.490313 
" style="fill: none; stroke: #d62728; stroke-width: 2; stroke-linecap: square"/>
     <g>
      <use xlink:href="#m37af0606fe" x="791.016" y="82.490313" style="fill: #d62728; stroke: #d62728"/>
     </g>
    </g>
    <g id="text_21">
     <!-- Miner 3 -->
     <g transform="translate(809.016 85.990313) scale(0.1 -0.1)">
      <use xlink:href="#DejaVuSans-4d"/>
      <use xlink:href="#DejaVuSans-69" transform="translate(86.279297 0)"/>
      <use xlink:href="#DejaVuSans-6e" transform="translate(114.0625 0)"/>
      <use xlink:href="#DejaVuSans-65" transform="translate(177.441406 0)"/>
      <use xlink:href="#DejaVuSans-72" transform="translate(238.964844 0)"/>
      <use xlink:href="#DejaVuSans-20" transform="translate(280.078125 0)"/>
      <use xlink:href="#DejaVuSans-33" transform="translate(311.865234 0)"/>
     </g>
    </g>
    <g id="line2d_42">
     <path d="M 781.016 97.168437 
L 791.016 97.168437 
L 801.016 97.168437 
" style="fill: none; stroke: #9467bd; stroke-width: 2; stroke-linecap: square"/>
     <g>
      <use xlink:href="#mbf6e8eaab6" x="791.016" y="97.168437" style="fill: #9467bd; stroke: #9467bd"/>
     </g>
    </g>
    <g id="text_22">
     <!-- Miner 4 -->
     <g transform="translate(809.016 100.668437) scale(0.1 -0.1)">
      <use xlink:href="#DejaVuSans-4d"/>
      <use xlink:href="#DejaVuSans-69" transform="translate(86.279297 0)"/>
      <use xlink:href="#DejaVuSans-6e" transform="translate(114.0625 0)"/>
      <use xlink:href="#DejaVuSans-65" transform="translate(177.441406 0)"/>
      <use xlink:href="#DejaVuSans-72" transform="translate(238.964844 0)"/>
      <use xlink:href="#DejaVuSans-20" transform="translate(280.078125 0)"/>
      <use xlink:href="#DejaVuSans-34" transform="translate(311.865234 0)"/>
     </g>
    </g>
    <g id="line2d_43">
     <path d="M 781.016 111.846563 
L 791.016 111.846563 
L 801.016 111.846563 
" style="fill: none; stroke: #8c564b; stroke-width: 2; stroke-linecap: square"/>
     <g>
      <use xlink:href="#me3294f717c" x="791.016" y="111.846563" style="fill: #8c564b; stroke: #8c564b"/>
     </g>
    </g>
    <g id="text_23">
     <!-- Miner 5 -->
     <g transform="translate(809.016 115.346563) scale(0.1 -0.1)">
      <use xlink:href="#DejaVuSans-4d"/>
      <use xlink:href="#DejaVuSans-69" transform="translate(86.279297 0)"/>
      <use xlink:href="#DejaVuSans-6e" transform="translate(114.0625 0)"/>
      <use xlink:href="#DejaVuSans-65" transform="translate(177.441406 0)"/>
      <use xlink:href="#DejaVuSans-72" transform="translate(238.964844 0)"/>
      <use xlink:href="#DejaVuSans-20" transform="translate(280.078125 0)"/>
      <use xlink:href="#DejaVuSans-35" transform="translate(311.865234 0)"/>
     </g>
    </g>
    <g id="line2d_44">
     <path d="M 781.016 126.524688 
L 791.016 126.524688 
L 801.016 126.524688 
" style="fill: none; stroke: #e377c2; stroke-width: 2; stroke-linecap: square"/>
     <g>
      <use xlink:href="#mb6709c60da" x="791.016" y="126.524688" style="fill: #e377c2; stroke: #e377c2"/>
     </g>
    </g>
    <g id="text_24">
     <!-- Miner 6 -->
     <g transform="translate(809.016 130.024688) scale(0.1 -0.1)">
      <use xlink:href="#DejaVuSans-4d"/>
      <use xlink:href="#DejaVuSans-69" transform="translate(86.279297 0)"/>
      <use xlink:href="#DejaVuSans-6e" transform="translate(114.0625 0)"/>
      <use xlink:href="#DejaVuSans-65" transform="translate(177.441406 0)"/>
      <use xlink:href="#DejaVuSans-72" transform="translate(238.964844 0)"/>
      <use xlink:href="#DejaVuSans-20" transform="translate(280.078125 0)"/>
      <use xlink:href="#DejaVuSans-36" transform="translate(311.865234 0)"/>
     </g>
    </g>
    <g id="line2d_45">
     <path d="M 781.016 141.202812 
L 791.016 141.202812 
L 801.016 141.202812 
" style="fill: none; stroke: #17becf; stroke-width: 2; stroke-linecap: square"/>
     <g>
      <use xlink:href="#m0e08bd0e92" x="791.016" y="141.202812" style="fill: #17becf; stroke: #17becf"/>
     </g>
    </g>
    <g id="text_25">
     <!-- Miner 7 -->
     <g transform="translate(809.016 144.702812) scale(0.1 -0.1)">
      <defs>
       <path id="DejaVuSans-37" d="M 525 4666 
L 3525 4666 
L 3525 4397 
L 1831 0 
L 1172 0 
L 2766 4134 
L 525 4134 
L 525 4666 
z
" transform="scale(0.015625)"/>
      </defs>
      <use xlink:href="#DejaVuSans-4d"/>
      <use xlink:href="#DejaVuSans-69" transform="translate(86.279297 0)"/>
      <use xlink:href="#DejaVuSans-6e" transform="translate(114.0625 0)"/>
      <use xlink:href="#DejaVuSans-65" transform="translate(177.441406 0)"/>
      <use xlink:href="#DejaVuSans-72" transform="translate(238.964844 0)"/>
      <use xlink:href="#DejaVuSans-20" transform="translate(280.078125 0)"/>
      <use xlink:href="#DejaVuSans-37" transform="translate(311.865234 0)"/>
     </g>
    </g>
    <g id="line2d_46">
     <path d="M 781.016 155.880937 
L 791.016 155.880937 
L 801.016 155.880937 
" style="fill: none; stroke: #bcbd22; stroke-width: 2; stroke-linecap: square"/>
     <g>
      <use xlink:href="#mf4bda0536b" x="791.016" y="155.880937" style="fill: #bcbd22; stroke: #bcbd22"/>
     </g>
    </g>
    <g id="text_26">
     <!-- Miner 8 -->
     <g transform="translate(809.016 159.380937) scale(0.1 -0.1)">
      <use xlink:href="#DejaVuSans-4d"/>
      <use xlink:href="#DejaVuSans-69" transform="translate(86.279297 0)"/>
      <use xlink:href="#DejaVuSans-6e" transform="translate(114.0625 0)"/>
      <use xlink:href="#DejaVuSans-65" transform="translate(177.441406 0)"/>
      <use xlink:href="#DejaVuSans-72" transform="translate(238.964844 0)"/>
      <use xlink:href="#DejaVuSans-20" transform="translate(280.078125 0)"/>
      <use xlink:href="#DejaVuSans-38" transform="translate(311.865234 0)"/>
     </g>
    </g>
   </g>
  </g>
 </g>
 <defs>
  <clipPath id="pb141c1aad1">
   <rect x="47.6525" y="25.3575" width="689.87" height="502.12"/>
  </clipPath>
 </defs>
</svg>
