<?xml version="1.0" encoding="utf-8" standalone="no"?>
<!DOCTYPE svg PUBLIC "-//W3C//DTD SVG 1.1//EN"
  "http://www.w3.org/Graphics/SVG/1.1/DTD/svg11.dtd">
<svg xmlns:xlink="http://www.w3.org/1999/xlink" width="857.764437pt" height="568.905pt" viewBox="0 0 857.764437 568.905" xmlns="http://www.w3.org/2000/svg" version="1.1">
 <metadata>
  <rdf:RDF xmlns:dc="http://purl.org/dc/elements/1.1/" xmlns:cc="http://creativecommons.org/ns#" xmlns:rdf="http://www.w3.org/1999/02/22-rdf-syntax-ns#">
   <cc:Work>
    <dc:type rdf:resource="http://purl.org/dc/dcmitype/StillImage"/>
    <dc:date>2025-09-14T14:50:55.054914</dc:date>
    <dc:format>image/svg+xml</dc:format>
    <dc:creator>
     <cc:Agent>
      <dc:title>Matplotlib v3.10.3, https://matplotlib.org/</dc:title>
     </cc:Agent>
    </dc:creator>
   </cc:Work>
  </rdf:RDF>
 </metadata>
 <defs>
  <style type="text/css">*{stroke-linejoin: round; stroke-linecap: butt}</style>
 </defs>
 <g id="figure_1">
  <g id="patch_1">
   <path d="M -0 568.905 
L 857.764437 568.905 
L 857.764437 0 
L -0 0 
z
" style="fill: #ffffff"/>
  </g>
  <g id="axes_1">
   <g id="patch_2">
    <path d="M 47.6525 527.4775 
L 737.5225 527.4775 
L 737.5225 25.3575 
L 47.6525 25.3575 
z
" style="fill: #ffffff"/>
   </g>
   <g id="matplotlib.axis_1">
    <g id="xtick_1">
     <g id="line2d_1">
      <path d="M 77.001964 527.4775 
L 77.001964 25.3575 
" clip-path="url(#p5986cdd843)" style="fill: none; stroke: #b0b0b0; stroke-opacity: 0.3; stroke-width: 0.8; stroke-linecap: square"/>
     </g>
     <g id="line2d_2">
      <defs>
       <path id="m01d0b883ab" d="M 0 0 
L 0 3.5 
" style="stroke: #000000; stroke-width: 0.8"/>
      </defs>
      <g>
       <use xlink:href="#m01d0b883ab" x="77.001964" y="527.4775" style="stroke: #000000; stroke-width: 0.8"/>
      </g>
     </g>
     <g id="text_1">
      <!-- 0 -->
      <g transform="translate(73.820714 542.075938) scale(0.1 -0.1)">
       <defs>
        <path id="DejaVuSans-30" d="M 2034 4250 
Q 1547 4250 1301 3770 
Q 1056 3291 1056 2328 
Q 1056 1369 1301 889 
Q 1547 409 2034 409 
Q 2525 409 2770 889 
Q 3016 1369 3016 2328 
Q 3016 3291 2770 3770 
Q 2525 4250 2034 4250 
z
M 2034 4750 
Q 2819 4750 3233 4129 
Q 3647 3509 3647 2328 
Q 3647 1150 3233 529 
Q 2819 -91 2034 -91 
Q 1250 -91 836 529 
Q 422 1150 422 2328 
Q 422 3509 836 4129 
Q 1250 4750 2034 4750 
z
" transform="scale(0.015625)"/>
       </defs>
       <use xlink:href="#DejaVuSans-30"/>
      </g>
     </g>
    </g>
    <g id="xtick_2">
     <g id="line2d_3">
      <path d="M 169.326363 527.4775 
L 169.326363 25.3575 
" clip-path="url(#p5986cdd843)" style="fill: none; stroke: #b0b0b0; stroke-opacity: 0.3; stroke-width: 0.8; stroke-linecap: square"/>
     </g>
     <g id="line2d_4">
      <g>
       <use xlink:href="#m01d0b883ab" x="169.326363" y="527.4775" style="stroke: #000000; stroke-width: 0.8"/>
      </g>
     </g>
     <g id="text_2">
      <!-- 5 -->
      <g transform="translate(166.145113 542.075938) scale(0.1 -0.1)">
       <defs>
        <path id="DejaVuSans-35" d="M 691 4666 
L 3169 4666 
L 3169 4134 
L 1269 4134 
L 1269 2991 
Q 1406 3038 1543 3061 
Q 1681 3084 1819 3084 
Q 2600 3084 3056 2656 
Q 3513 2228 3513 1497 
Q 3513 744 3044 326 
Q 2575 -91 1722 -91 
Q 1428 -91 1123 -41 
Q 819 9 494 109 
L 494 744 
Q 775 591 1075 516 
Q 1375 441 1709 441 
Q 2250 441 2565 725 
Q 2881 1009 2881 1497 
Q 2881 1984 2565 2268 
Q 2250 2553 1709 2553 
Q 1456 2553 1204 2497 
Q 953 2441 691 2322 
L 691 4666 
z
" transform="scale(0.015625)"/>
       </defs>
       <use xlink:href="#DejaVuSans-35"/>
      </g>
     </g>
    </g>
    <g id="xtick_3">
     <g id="line2d_5">
      <path d="M 261.650762 527.4775 
L 261.650762 25.3575 
" clip-path="url(#p5986cdd843)" style="fill: none; stroke: #b0b0b0; stroke-opacity: 0.3; stroke-width: 0.8; stroke-linecap: square"/>
     </g>
     <g id="line2d_6">
      <g>
       <use xlink:href="#m01d0b883ab" x="261.650762" y="527.4775" style="stroke: #000000; stroke-width: 0.8"/>
      </g>
     </g>
     <g id="text_3">
      <!-- 10 -->
      <g transform="translate(255.288262 542.075938) scale(0.1 -0.1)">
       <defs>
        <path id="DejaVuSans-31" d="M 794 531 
L 1825 531 
L 1825 4091 
L 703 3866 
L 703 4441 
L 1819 4666 
L 2450 4666 
L 2450 531 
L 3481 531 
L 3481 0 
L 794 0 
L 794 531 
z
" transform="scale(0.015625)"/>
       </defs>
       <use xlink:href="#DejaVuSans-31"/>
       <use xlink:href="#DejaVuSans-30" transform="translate(63.623047 0)"/>
      </g>
     </g>
    </g>
    <g id="xtick_4">
     <g id="line2d_7">
      <path d="M 353.975161 527.4775 
L 353.975161 25.3575 
" clip-path="url(#p5986cdd843)" style="fill: none; stroke: #b0b0b0; stroke-opacity: 0.3; stroke-width: 0.8; stroke-linecap: square"/>
     </g>
     <g id="line2d_8">
      <g>
       <use xlink:href="#m01d0b883ab" x="353.975161" y="527.4775" style="stroke: #000000; stroke-width: 0.8"/>
      </g>
     </g>
     <g id="text_4">
      <!-- 15 -->
      <g transform="translate(347.612661 542.075938) scale(0.1 -0.1)">
       <use xlink:href="#DejaVuSans-31"/>
       <use xlink:href="#DejaVuSans-35" transform="translate(63.623047 0)"/>
      </g>
     </g>
    </g>
    <g id="xtick_5">
     <g id="line2d_9">
      <path d="M 446.29956 527.4775 
L 446.29956 25.3575 
" clip-path="url(#p5986cdd843)" style="fill: none; stroke: #b0b0b0; stroke-opacity: 0.3; stroke-width: 0.8; stroke-linecap: square"/>
     </g>
     <g id="line2d_10">
      <g>
       <use xlink:href="#m01d0b883ab" x="446.29956" y="527.4775" style="stroke: #000000; stroke-width: 0.8"/>
      </g>
     </g>
     <g id="text_5">
      <!-- 20 -->
      <g transform="translate(439.93706 542.075938) scale(0.1 -0.1)">
       <defs>
        <path id="DejaVuSans-32" d="M 1228 531 
L 3431 531 
L 3431 0 
L 469 0 
L 469 531 
Q 828 903 1448 1529 
Q 2069 2156 2228 2338 
Q 2531 2678 2651 2914 
Q 2772 3150 2772 3378 
Q 2772 3750 2511 3984 
Q 2250 4219 1831 4219 
Q 1534 4219 1204 4116 
Q 875 4013 500 3803 
L 500 4441 
Q 881 4594 1212 4672 
Q 1544 4750 1819 4750 
Q 2544 4750 2975 4387 
Q 3406 4025 3406 3419 
Q 3406 3131 3298 2873 
Q 3191 2616 2906 2266 
Q 2828 2175 2409 1742 
Q 1991 1309 1228 531 
z
" transform="scale(0.015625)"/>
       </defs>
       <use xlink:href="#DejaVuSans-32"/>
       <use xlink:href="#DejaVuSans-30" transform="translate(63.623047 0)"/>
      </g>
     </g>
    </g>
    <g id="xtick_6">
     <g id="line2d_11">
      <path d="M 538.62396 527.4775 
L 538.62396 25.3575 
" clip-path="url(#p5986cdd843)" style="fill: none; stroke: #b0b0b0; stroke-opacity: 0.3; stroke-width: 0.8; stroke-linecap: square"/>
     </g>
     <g id="line2d_12">
      <g>
       <use xlink:href="#m01d0b883ab" x="538.62396" y="527.4775" style="stroke: #000000; stroke-width: 0.8"/>
      </g>
     </g>
     <g id="text_6">
      <!-- 25 -->
      <g transform="translate(532.26146 542.075938) scale(0.1 -0.1)">
       <use xlink:href="#DejaVuSans-32"/>
       <use xlink:href="#DejaVuSans-35" transform="translate(63.623047 0)"/>
      </g>
     </g>
    </g>
    <g id="xtick_7">
     <g id="line2d_13">
      <path d="M 630.948359 527.4775 
L 630.948359 25.3575 
" clip-path="url(#p5986cdd843)" style="fill: none; stroke: #b0b0b0; stroke-opacity: 0.3; stroke-width: 0.8; stroke-linecap: square"/>
     </g>
     <g id="line2d_14">
      <g>
       <use xlink:href="#m01d0b883ab" x="630.948359" y="527.4775" style="stroke: #000000; stroke-width: 0.8"/>
      </g>
     </g>
     <g id="text_7">
      <!-- 30 -->
      <g transform="translate(624.585859 542.075938) scale(0.1 -0.1)">
       <defs>
        <path id="DejaVuSans-33" d="M 2597 2516 
Q 3050 2419 3304 2112 
Q 3559 1806 3559 1356 
Q 3559 666 3084 287 
Q 2609 -91 1734 -91 
Q 1441 -91 1130 -33 
Q 819 25 488 141 
L 488 750 
Q 750 597 1062 519 
Q 1375 441 1716 441 
Q 2309 441 2620 675 
Q 2931 909 2931 1356 
Q 2931 1769 2642 2001 
Q 2353 2234 1838 2234 
L 1294 2234 
L 1294 2753 
L 1863 2753 
Q 2328 2753 2575 2939 
Q 2822 3125 2822 3475 
Q 2822 3834 2567 4026 
Q 2313 4219 1838 4219 
Q 1578 4219 1281 4162 
Q 984 4106 628 3988 
L 628 4550 
Q 988 4650 1302 4700 
Q 1616 4750 1894 4750 
Q 2613 4750 3031 4423 
Q 3450 4097 3450 3541 
Q 3450 3153 3228 2886 
Q 3006 2619 2597 2516 
z
" transform="scale(0.015625)"/>
       </defs>
       <use xlink:href="#DejaVuSans-33"/>
       <use xlink:href="#DejaVuSans-30" transform="translate(63.623047 0)"/>
      </g>
     </g>
    </g>
    <g id="xtick_8">
     <g id="line2d_15">
      <path d="M 723.272758 527.4775 
L 723.272758 25.3575 
" clip-path="url(#p5986cdd843)" style="fill: none; stroke: #b0b0b0; stroke-opacity: 0.3; stroke-width: 0.8; stroke-linecap: square"/>
     </g>
     <g id="line2d_16">
      <g>
       <use xlink:href="#m01d0b883ab" x="723.272758" y="527.4775" style="stroke: #000000; stroke-width: 0.8"/>
      </g>
     </g>
     <g id="text_8">
      <!-- 35 -->
      <g transform="translate(716.910258 542.075938) scale(0.1 -0.1)">
       <use xlink:href="#DejaVuSans-33"/>
       <use xlink:href="#DejaVuSans-35" transform="translate(63.623047 0)"/>
      </g>
     </g>
    </g>
    <g id="text_9">
     <!-- Δ/T (dynamic T) -->
     <g transform="translate(337.053437 558.793437) scale(0.14 -0.14)">
      <defs>
       <path id="DejaVuSans-394" d="M 2188 4044 
L 906 525 
L 3472 525 
L 2188 4044 
z
M 50 0 
L 1831 4666 
L 2547 4666 
L 4325 0 
L 50 0 
z
" transform="scale(0.015625)"/>
       <path id="DejaVuSans-2f" d="M 1625 4666 
L 2156 4666 
L 531 -594 
L 0 -594 
L 1625 4666 
z
" transform="scale(0.015625)"/>
       <path id="DejaVuSans-54" d="M -19 4666 
L 3928 4666 
L 3928 4134 
L 2272 4134 
L 2272 0 
L 1638 0 
L 1638 4134 
L -19 4134 
L -19 4666 
z
" transform="scale(0.015625)"/>
       <path id="DejaVuSans-20" transform="scale(0.015625)"/>
       <path id="DejaVuSans-28" d="M 1984 4856 
Q 1566 4138 1362 3434 
Q 1159 2731 1159 2009 
Q 1159 1288 1364 580 
Q 1569 -128 1984 -844 
L 1484 -844 
Q 1016 -109 783 600 
Q 550 1309 550 2009 
Q 550 2706 781 3412 
Q 1013 4119 1484 4856 
L 1984 4856 
z
" transform="scale(0.015625)"/>
       <path id="DejaVuSans-64" d="M 2906 2969 
L 2906 4863 
L 3481 4863 
L 3481 0 
L 2906 0 
L 2906 525 
Q 2725 213 2448 61 
Q 2172 -91 1784 -91 
Q 1150 -91 751 415 
Q 353 922 353 1747 
Q 353 2572 751 3078 
Q 1150 3584 1784 3584 
Q 2172 3584 2448 3432 
Q 2725 3281 2906 2969 
z
M 947 1747 
Q 947 1113 1208 752 
Q 1469 391 1925 391 
Q 2381 391 2643 752 
Q 2906 1113 2906 1747 
Q 2906 2381 2643 2742 
Q 2381 3103 1925 3103 
Q 1469 3103 1208 2742 
Q 947 2381 947 1747 
z
" transform="scale(0.015625)"/>
       <path id="DejaVuSans-79" d="M 2059 -325 
Q 1816 -950 1584 -1140 
Q 1353 -1331 966 -1331 
L 506 -1331 
L 506 -850 
L 844 -850 
Q 1081 -850 1212 -737 
Q 1344 -625 1503 -206 
L 1606 56 
L 191 3500 
L 800 3500 
L 1894 763 
L 2988 3500 
L 3597 3500 
L 2059 -325 
z
" transform="scale(0.015625)"/>
       <path id="DejaVuSans-6e" d="M 3513 2113 
L 3513 0 
L 2938 0 
L 2938 2094 
Q 2938 2591 2744 2837 
Q 2550 3084 2163 3084 
Q 1697 3084 1428 2787 
Q 1159 2491 1159 1978 
L 1159 0 
L 581 0 
L 581 3500 
L 1159 3500 
L 1159 2956 
Q 1366 3272 1645 3428 
Q 1925 3584 2291 3584 
Q 2894 3584 3203 3211 
Q 3513 2838 3513 2113 
z
" transform="scale(0.015625)"/>
       <path id="DejaVuSans-61" d="M 2194 1759 
Q 1497 1759 1228 1600 
Q 959 1441 959 1056 
Q 959 750 1161 570 
Q 1363 391 1709 391 
Q 2188 391 2477 730 
Q 2766 1069 2766 1631 
L 2766 1759 
L 2194 1759 
z
M 3341 1997 
L 3341 0 
L 2766 0 
L 2766 531 
Q 2569 213 2275 61 
Q 1981 -91 1556 -91 
Q 1019 -91 701 211 
Q 384 513 384 1019 
Q 384 1609 779 1909 
Q 1175 2209 1959 2209 
L 2766 2209 
L 2766 2266 
Q 2766 2663 2505 2880 
Q 2244 3097 1772 3097 
Q 1472 3097 1187 3025 
Q 903 2953 641 2809 
L 641 3341 
Q 956 3463 1253 3523 
Q 1550 3584 1831 3584 
Q 2591 3584 2966 3190 
Q 3341 2797 3341 1997 
z
" transform="scale(0.015625)"/>
       <path id="DejaVuSans-6d" d="M 3328 2828 
Q 3544 3216 3844 3400 
Q 4144 3584 4550 3584 
Q 5097 3584 5394 3201 
Q 5691 2819 5691 2113 
L 5691 0 
L 5113 0 
L 5113 2094 
Q 5113 2597 4934 2840 
Q 4756 3084 4391 3084 
Q 3944 3084 3684 2787 
Q 3425 2491 3425 1978 
L 3425 0 
L 2847 0 
L 2847 2094 
Q 2847 2600 2669 2842 
Q 2491 3084 2119 3084 
Q 1678 3084 1418 2786 
Q 1159 2488 1159 1978 
L 1159 0 
L 581 0 
L 581 3500 
L 1159 3500 
L 1159 2956 
Q 1356 3278 1631 3431 
Q 1906 3584 2284 3584 
Q 2666 3584 2933 3390 
Q 3200 3197 3328 2828 
z
" transform="scale(0.015625)"/>
       <path id="DejaVuSans-69" d="M 603 3500 
L 1178 3500 
L 1178 0 
L 603 0 
L 603 3500 
z
M 603 4863 
L 1178 4863 
L 1178 4134 
L 603 4134 
L 603 4863 
z
" transform="scale(0.015625)"/>
       <path id="DejaVuSans-63" d="M 3122 3366 
L 3122 2828 
Q 2878 2963 2633 3030 
Q 2388 3097 2138 3097 
Q 1578 3097 1268 2742 
Q 959 2388 959 1747 
Q 959 1106 1268 751 
Q 1578 397 2138 397 
Q 2388 397 2633 464 
Q 2878 531 3122 666 
L 3122 134 
Q 2881 22 2623 -34 
Q 2366 -91 2075 -91 
Q 1284 -91 818 406 
Q 353 903 353 1747 
Q 353 2603 823 3093 
Q 1294 3584 2113 3584 
Q 2378 3584 2631 3529 
Q 2884 3475 3122 3366 
z
" transform="scale(0.015625)"/>
       <path id="DejaVuSans-29" d="M 513 4856 
L 1013 4856 
Q 1481 4119 1714 3412 
Q 1947 2706 1947 2009 
Q 1947 1309 1714 600 
Q 1481 -109 1013 -844 
L 513 -844 
Q 928 -128 1133 580 
Q 1338 1288 1338 2009 
Q 1338 2731 1133 3434 
Q 928 4138 513 4856 
z
" transform="scale(0.015625)"/>
      </defs>
      <use xlink:href="#DejaVuSans-394"/>
      <use xlink:href="#DejaVuSans-2f" transform="translate(68.408203 0)"/>
      <use xlink:href="#DejaVuSans-54" transform="translate(102.099609 0)"/>
      <use xlink:href="#DejaVuSans-20" transform="translate(163.183594 0)"/>
      <use xlink:href="#DejaVuSans-28" transform="translate(194.970703 0)"/>
      <use xlink:href="#DejaVuSans-64" transform="translate(233.984375 0)"/>
      <use xlink:href="#DejaVuSans-79" transform="translate(297.460938 0)"/>
      <use xlink:href="#DejaVuSans-6e" transform="translate(356.640625 0)"/>
      <use xlink:href="#DejaVuSans-61" transform="translate(420.019531 0)"/>
      <use xlink:href="#DejaVuSans-6d" transform="translate(481.298828 0)"/>
      <use xlink:href="#DejaVuSans-69" transform="translate(578.710938 0)"/>
      <use xlink:href="#DejaVuSans-63" transform="translate(606.494141 0)"/>
      <use xlink:href="#DejaVuSans-20" transform="translate(661.474609 0)"/>
      <use xlink:href="#DejaVuSans-54" transform="translate(693.261719 0)"/>
      <use xlink:href="#DejaVuSans-29" transform="translate(754.345703 0)"/>
     </g>
    </g>
   </g>
   <g id="matplotlib.axis_2">
    <g id="ytick_1">
     <g id="line2d_17">
      <path d="M 47.6525 504.653864 
L 737.5225 504.653864 
" clip-path="url(#p5986cdd843)" style="fill: none; stroke: #b0b0b0; stroke-opacity: 0.3; stroke-width: 0.8; stroke-linecap: square"/>
     </g>
     <g id="line2d_18">
      <defs>
       <path id="m52b3c37b62" d="M 0 0 
L -3.5 0 
" style="stroke: #000000; stroke-width: 0.8"/>
      </defs>
      <g>
       <use xlink:href="#m52b3c37b62" x="47.6525" y="504.653864" style="stroke: #000000; stroke-width: 0.8"/>
      </g>
     </g>
     <g id="text_10">
      <!-- 0.0 -->
      <g transform="translate(24.749375 508.453082) scale(0.1 -0.1)">
       <defs>
        <path id="DejaVuSans-2e" d="M 684 794 
L 1344 794 
L 1344 0 
L 684 0 
L 684 794 
z
" transform="scale(0.015625)"/>
       </defs>
       <use xlink:href="#DejaVuSans-30"/>
       <use xlink:href="#DejaVuSans-2e" transform="translate(63.623047 0)"/>
       <use xlink:href="#DejaVuSans-30" transform="translate(95.410156 0)"/>
      </g>
     </g>
    </g>
    <g id="ytick_2">
     <g id="line2d_19">
      <path d="M 47.6525 440.738943 
L 737.5225 440.738943 
" clip-path="url(#p5986cdd843)" style="fill: none; stroke: #b0b0b0; stroke-opacity: 0.3; stroke-width: 0.8; stroke-linecap: square"/>
     </g>
     <g id="line2d_20">
      <g>
       <use xlink:href="#m52b3c37b62" x="47.6525" y="440.738943" style="stroke: #000000; stroke-width: 0.8"/>
      </g>
     </g>
     <g id="text_11">
      <!-- 0.5 -->
      <g transform="translate(24.749375 444.538161) scale(0.1 -0.1)">
       <use xlink:href="#DejaVuSans-30"/>
       <use xlink:href="#DejaVuSans-2e" transform="translate(63.623047 0)"/>
       <use xlink:href="#DejaVuSans-35" transform="translate(95.410156 0)"/>
      </g>
     </g>
    </g>
    <g id="ytick_3">
     <g id="line2d_21">
      <path d="M 47.6525 376.824022 
L 737.5225 376.824022 
" clip-path="url(#p5986cdd843)" style="fill: none; stroke: #b0b0b0; stroke-opacity: 0.3; stroke-width: 0.8; stroke-linecap: square"/>
     </g>
     <g id="line2d_22">
      <g>
       <use xlink:href="#m52b3c37b62" x="47.6525" y="376.824022" style="stroke: #000000; stroke-width: 0.8"/>
      </g>
     </g>
     <g id="text_12">
      <!-- 1.0 -->
      <g transform="translate(24.749375 380.623241) scale(0.1 -0.1)">
       <use xlink:href="#DejaVuSans-31"/>
       <use xlink:href="#DejaVuSans-2e" transform="translate(63.623047 0)"/>
       <use xlink:href="#DejaVuSans-30" transform="translate(95.410156 0)"/>
      </g>
     </g>
    </g>
    <g id="ytick_4">
     <g id="line2d_23">
      <path d="M 47.6525 312.909101 
L 737.5225 312.909101 
" clip-path="url(#p5986cdd843)" style="fill: none; stroke: #b0b0b0; stroke-opacity: 0.3; stroke-width: 0.8; stroke-linecap: square"/>
     </g>
     <g id="line2d_24">
      <g>
       <use xlink:href="#m52b3c37b62" x="47.6525" y="312.909101" style="stroke: #000000; stroke-width: 0.8"/>
      </g>
     </g>
     <g id="text_13">
      <!-- 1.5 -->
      <g transform="translate(24.749375 316.70832) scale(0.1 -0.1)">
       <use xlink:href="#DejaVuSans-31"/>
       <use xlink:href="#DejaVuSans-2e" transform="translate(63.623047 0)"/>
       <use xlink:href="#DejaVuSans-35" transform="translate(95.410156 0)"/>
      </g>
     </g>
    </g>
    <g id="ytick_5">
     <g id="line2d_25">
      <path d="M 47.6525 248.99418 
L 737.5225 248.99418 
" clip-path="url(#p5986cdd843)" style="fill: none; stroke: #b0b0b0; stroke-opacity: 0.3; stroke-width: 0.8; stroke-linecap: square"/>
     </g>
     <g id="line2d_26">
      <g>
       <use xlink:href="#m52b3c37b62" x="47.6525" y="248.99418" style="stroke: #000000; stroke-width: 0.8"/>
      </g>
     </g>
     <g id="text_14">
      <!-- 2.0 -->
      <g transform="translate(24.749375 252.793399) scale(0.1 -0.1)">
       <use xlink:href="#DejaVuSans-32"/>
       <use xlink:href="#DejaVuSans-2e" transform="translate(63.623047 0)"/>
       <use xlink:href="#DejaVuSans-30" transform="translate(95.410156 0)"/>
      </g>
     </g>
    </g>
    <g id="ytick_6">
     <g id="line2d_27">
      <path d="M 47.6525 185.079259 
L 737.5225 185.079259 
" clip-path="url(#p5986cdd843)" style="fill: none; stroke: #b0b0b0; stroke-opacity: 0.3; stroke-width: 0.8; stroke-linecap: square"/>
     </g>
     <g id="line2d_28">
      <g>
       <use xlink:href="#m52b3c37b62" x="47.6525" y="185.079259" style="stroke: #000000; stroke-width: 0.8"/>
      </g>
     </g>
     <g id="text_15">
      <!-- 2.5 -->
      <g transform="translate(24.749375 188.878478) scale(0.1 -0.1)">
       <use xlink:href="#DejaVuSans-32"/>
       <use xlink:href="#DejaVuSans-2e" transform="translate(63.623047 0)"/>
       <use xlink:href="#DejaVuSans-35" transform="translate(95.410156 0)"/>
      </g>
     </g>
    </g>
    <g id="ytick_7">
     <g id="line2d_29">
      <path d="M 47.6525 121.164338 
L 737.5225 121.164338 
" clip-path="url(#p5986cdd843)" style="fill: none; stroke: #b0b0b0; stroke-opacity: 0.3; stroke-width: 0.8; stroke-linecap: square"/>
     </g>
     <g id="line2d_30">
      <g>
       <use xlink:href="#m52b3c37b62" x="47.6525" y="121.164338" style="stroke: #000000; stroke-width: 0.8"/>
      </g>
     </g>
     <g id="text_16">
      <!-- 3.0 -->
      <g transform="translate(24.749375 124.963557) scale(0.1 -0.1)">
       <use xlink:href="#DejaVuSans-33"/>
       <use xlink:href="#DejaVuSans-2e" transform="translate(63.623047 0)"/>
       <use xlink:href="#DejaVuSans-30" transform="translate(95.410156 0)"/>
      </g>
     </g>
    </g>
    <g id="ytick_8">
     <g id="line2d_31">
      <path d="M 47.6525 57.249417 
L 737.5225 57.249417 
" clip-path="url(#p5986cdd843)" style="fill: none; stroke: #b0b0b0; stroke-opacity: 0.3; stroke-width: 0.8; stroke-linecap: square"/>
     </g>
     <g id="line2d_32">
      <g>
       <use xlink:href="#m52b3c37b62" x="47.6525" y="57.249417" style="stroke: #000000; stroke-width: 0.8"/>
      </g>
     </g>
     <g id="text_17">
      <!-- 3.5 -->
      <g transform="translate(24.749375 61.048636) scale(0.1 -0.1)">
       <use xlink:href="#DejaVuSans-33"/>
       <use xlink:href="#DejaVuSans-2e" transform="translate(63.623047 0)"/>
       <use xlink:href="#DejaVuSans-35" transform="translate(95.410156 0)"/>
      </g>
     </g>
    </g>
    <g id="text_18">
     <!-- rᵢ (mining share) / αᵢ (hashrate ratio) -->
     <g transform="translate(17.837812 403.63375) rotate(-90) scale(0.14 -0.14)">
      <defs>
       <path id="DejaVuSans-72" d="M 2631 2963 
Q 2534 3019 2420 3045 
Q 2306 3072 2169 3072 
Q 1681 3072 1420 2755 
Q 1159 2438 1159 1844 
L 1159 0 
L 581 0 
L 581 3500 
L 1159 3500 
L 1159 2956 
Q 1341 3275 1631 3429 
Q 1922 3584 2338 3584 
Q 2397 3584 2469 3576 
Q 2541 3569 2628 3553 
L 2631 2963 
z
" transform="scale(0.015625)"/>
       <path id="DejaVuSans-1d62" d="M 381 1935 
L 744 1935 
L 744 -24 
L 381 -24 
L 381 1935 
z
M 381 2697 
L 744 2697 
L 744 2291 
L 381 2291 
L 381 2697 
z
" transform="scale(0.015625)"/>
       <path id="DejaVuSans-67" d="M 2906 1791 
Q 2906 2416 2648 2759 
Q 2391 3103 1925 3103 
Q 1463 3103 1205 2759 
Q 947 2416 947 1791 
Q 947 1169 1205 825 
Q 1463 481 1925 481 
Q 2391 481 2648 825 
Q 2906 1169 2906 1791 
z
M 3481 434 
Q 3481 -459 3084 -895 
Q 2688 -1331 1869 -1331 
Q 1566 -1331 1297 -1286 
Q 1028 -1241 775 -1147 
L 775 -588 
Q 1028 -725 1275 -790 
Q 1522 -856 1778 -856 
Q 2344 -856 2625 -561 
Q 2906 -266 2906 331 
L 2906 616 
Q 2728 306 2450 153 
Q 2172 0 1784 0 
Q 1141 0 747 490 
Q 353 981 353 1791 
Q 353 2603 747 3093 
Q 1141 3584 1784 3584 
Q 2172 3584 2450 3431 
Q 2728 3278 2906 2969 
L 2906 3500 
L 3481 3500 
L 3481 434 
z
" transform="scale(0.015625)"/>
       <path id="DejaVuSans-73" d="M 2834 3397 
L 2834 2853 
Q 2591 2978 2328 3040 
Q 2066 3103 1784 3103 
Q 1356 3103 1142 2972 
Q 928 2841 928 2578 
Q 928 2378 1081 2264 
Q 1234 2150 1697 2047 
L 1894 2003 
Q 2506 1872 2764 1633 
Q 3022 1394 3022 966 
Q 3022 478 2636 193 
Q 2250 -91 1575 -91 
Q 1294 -91 989 -36 
Q 684 19 347 128 
L 347 722 
Q 666 556 975 473 
Q 1284 391 1588 391 
Q 1994 391 2212 530 
Q 2431 669 2431 922 
Q 2431 1156 2273 1281 
Q 2116 1406 1581 1522 
L 1381 1569 
Q 847 1681 609 1914 
Q 372 2147 372 2553 
Q 372 3047 722 3315 
Q 1072 3584 1716 3584 
Q 2034 3584 2315 3537 
Q 2597 3491 2834 3397 
z
" transform="scale(0.015625)"/>
       <path id="DejaVuSans-68" d="M 3513 2113 
L 3513 0 
L 2938 0 
L 2938 2094 
Q 2938 2591 2744 2837 
Q 2550 3084 2163 3084 
Q 1697 3084 1428 2787 
Q 1159 2491 1159 1978 
L 1159 0 
L 581 0 
L 581 4863 
L 1159 4863 
L 1159 2956 
Q 1366 3272 1645 3428 
Q 1925 3584 2291 3584 
Q 2894 3584 3203 3211 
Q 3513 2838 3513 2113 
z
" transform="scale(0.015625)"/>
       <path id="DejaVuSans-65" d="M 3597 1894 
L 3597 1613 
L 953 1613 
Q 991 1019 1311 708 
Q 1631 397 2203 397 
Q 2534 397 2845 478 
Q 3156 559 3463 722 
L 3463 178 
Q 3153 47 2828 -22 
Q 2503 -91 2169 -91 
Q 1331 -91 842 396 
Q 353 884 353 1716 
Q 353 2575 817 3079 
Q 1281 3584 2069 3584 
Q 2775 3584 3186 3129 
Q 3597 2675 3597 1894 
z
M 3022 2063 
Q 3016 2534 2758 2815 
Q 2500 3097 2075 3097 
Q 1594 3097 1305 2825 
Q 1016 2553 972 2059 
L 3022 2063 
z
" transform="scale(0.015625)"/>
       <path id="DejaVuSans-3b1" d="M 2644 1628 
L 2506 2350 
Q 2366 3091 1809 3091 
Q 1391 3091 1200 2747 
Q 959 2316 959 1747 
Q 959 1059 1194 731 
Q 1431 397 1809 397 
Q 2228 397 2453 1063 
L 2644 1628 
z
M 2966 2584 
L 3275 3500 
L 3788 3500 
L 3147 1603 
L 3272 919 
Q 3300 766 3409 638 
Q 3538 488 3638 488 
L 3913 488 
L 3913 0 
L 3569 0 
Q 3275 0 3013 263 
Q 2884 394 2831 669 
Q 2688 322 2394 50 
Q 2256 -78 1809 -78 
Q 1075 -78 719 397 
Q 353 888 353 1747 
Q 353 2666 750 3097 
Q 1191 3578 1809 3578 
Q 2781 3578 2966 2584 
z
" transform="scale(0.015625)"/>
       <path id="DejaVuSans-74" d="M 1172 4494 
L 1172 3500 
L 2356 3500 
L 2356 3053 
L 1172 3053 
L 1172 1153 
Q 1172 725 1289 603 
Q 1406 481 1766 481 
L 2356 481 
L 2356 0 
L 1766 0 
Q 1100 0 847 248 
Q 594 497 594 1153 
L 594 3053 
L 172 3053 
L 172 3500 
L 594 3500 
L 594 4494 
L 1172 4494 
z
" transform="scale(0.015625)"/>
       <path id="DejaVuSans-6f" d="M 1959 3097 
Q 1497 3097 1228 2736 
Q 959 2375 959 1747 
Q 959 1119 1226 758 
Q 1494 397 1959 397 
Q 2419 397 2687 759 
Q 2956 1122 2956 1747 
Q 2956 2369 2687 2733 
Q 2419 3097 1959 3097 
z
M 1959 3584 
Q 2709 3584 3137 3096 
Q 3566 2609 3566 1747 
Q 3566 888 3137 398 
Q 2709 -91 1959 -91 
Q 1206 -91 779 398 
Q 353 888 353 1747 
Q 353 2609 779 3096 
Q 1206 3584 1959 3584 
z
" transform="scale(0.015625)"/>
      </defs>
      <use xlink:href="#DejaVuSans-72"/>
      <use xlink:href="#DejaVuSans-1d62" transform="translate(41.113281 0)"/>
      <use xlink:href="#DejaVuSans-20" transform="translate(58.984375 0)"/>
      <use xlink:href="#DejaVuSans-28" transform="translate(90.771484 0)"/>
      <use xlink:href="#DejaVuSans-6d" transform="translate(129.785156 0)"/>
      <use xlink:href="#DejaVuSans-69" transform="translate(227.197266 0)"/>
      <use xlink:href="#DejaVuSans-6e" transform="translate(254.980469 0)"/>
      <use xlink:href="#DejaVuSans-69" transform="translate(318.359375 0)"/>
      <use xlink:href="#DejaVuSans-6e" transform="translate(346.142578 0)"/>
      <use xlink:href="#DejaVuSans-67" transform="translate(409.521484 0)"/>
      <use xlink:href="#DejaVuSans-20" transform="translate(472.998047 0)"/>
      <use xlink:href="#DejaVuSans-73" transform="translate(504.785156 0)"/>
      <use xlink:href="#DejaVuSans-68" transform="translate(556.884766 0)"/>
      <use xlink:href="#DejaVuSans-61" transform="translate(620.263672 0)"/>
      <use xlink:href="#DejaVuSans-72" transform="translate(681.542969 0)"/>
      <use xlink:href="#DejaVuSans-65" transform="translate(720.40625 0)"/>
      <use xlink:href="#DejaVuSans-29" transform="translate(781.929688 0)"/>
      <use xlink:href="#DejaVuSans-20" transform="translate(820.943359 0)"/>
      <use xlink:href="#DejaVuSans-2f" transform="translate(852.730469 0)"/>
      <use xlink:href="#DejaVuSans-20" transform="translate(886.421875 0)"/>
      <use xlink:href="#DejaVuSans-3b1" transform="translate(918.208984 0)"/>
      <use xlink:href="#DejaVuSans-1d62" transform="translate(984.126953 0)"/>
      <use xlink:href="#DejaVuSans-20" transform="translate(1001.998047 0)"/>
      <use xlink:href="#DejaVuSans-28" transform="translate(1033.785156 0)"/>
      <use xlink:href="#DejaVuSans-68" transform="translate(1072.798828 0)"/>
      <use xlink:href="#DejaVuSans-61" transform="translate(1136.177734 0)"/>
      <use xlink:href="#DejaVuSans-73" transform="translate(1197.457031 0)"/>
      <use xlink:href="#DejaVuSans-68" transform="translate(1249.556641 0)"/>
      <use xlink:href="#DejaVuSans-72" transform="translate(1312.935547 0)"/>
      <use xlink:href="#DejaVuSans-61" transform="translate(1354.048828 0)"/>
      <use xlink:href="#DejaVuSans-74" transform="translate(1415.328125 0)"/>
      <use xlink:href="#DejaVuSans-65" transform="translate(1454.537109 0)"/>
      <use xlink:href="#DejaVuSans-20" transform="translate(1516.060547 0)"/>
      <use xlink:href="#DejaVuSans-72" transform="translate(1547.847656 0)"/>
      <use xlink:href="#DejaVuSans-61" transform="translate(1588.960938 0)"/>
      <use xlink:href="#DejaVuSans-74" transform="translate(1650.240234 0)"/>
      <use xlink:href="#DejaVuSans-69" transform="translate(1689.449219 0)"/>
      <use xlink:href="#DejaVuSans-6f" transform="translate(1717.232422 0)"/>
      <use xlink:href="#DejaVuSans-29" transform="translate(1778.414062 0)"/>
     </g>
    </g>
   </g>
   <g id="line2d_33">
    <path d="M 79.010227 372.304866 
L 79.258241 372.574816 
L 79.568931 371.742088 
L 79.987281 370.932236 
L 80.560697 370.268798 
L 81.405887 367.203257 
L 82.775895 364.91554 
L 85.334528 359.731574 
L 91.724283 345.405891 
L 120.615497 275.561894 
L 156.377178 208.339621 
L 192.211247 158.563476 
L 227.105039 126.809966 
L 261.237256 101.329375 
L 326.507699 74.503607 
L 358.771505 65.645567 
L 389.83524 59.459581 
L 423.697136 57.039176 
L 454.797869 54.234435 
L 485.23216 52.582704 
L 516.716741 51.631013 
L 551.241362 50.079941 
L 614.172829 49.32957 
L 642.808288 48.981837 
L 674.567498 48.670708 
L 706.164773 48.181136 
" clip-path="url(#p5986cdd843)" style="fill: none; stroke: #1f77b4; stroke-width: 2; stroke-linecap: square"/>
    <defs>
     <path id="m043112127b" d="M 0 3 
C 0.795609 3 1.55874 2.683901 2.12132 2.12132 
C 2.683901 1.55874 3 0.795609 3 0 
C 3 -0.795609 2.683901 -1.55874 2.12132 -2.12132 
C 1.55874 -2.683901 0.795609 -3 0 -3 
C -0.795609 -3 -1.55874 -2.683901 -2.12132 -2.12132 
C -2.683901 -1.55874 -3 -0.795609 -3 0 
C -3 0.795609 -2.683901 1.55874 -2.12132 2.12132 
C -1.55874 2.683901 -0.795609 3 0 3 
z
" style="stroke: #1f77b4"/>
    </defs>
    <g clip-path="url(#p5986cdd843)">
     <use xlink:href="#m043112127b" x="79.010227" y="372.304866" style="fill: #1f77b4; stroke: #1f77b4"/>
     <use xlink:href="#m043112127b" x="79.258241" y="372.574816" style="fill: #1f77b4; stroke: #1f77b4"/>
     <use xlink:href="#m043112127b" x="79.568931" y="371.742088" style="fill: #1f77b4; stroke: #1f77b4"/>
     <use xlink:href="#m043112127b" x="79.987281" y="370.932236" style="fill: #1f77b4; stroke: #1f77b4"/>
     <use xlink:href="#m043112127b" x="80.560697" y="370.268798" style="fill: #1f77b4; stroke: #1f77b4"/>
     <use xlink:href="#m043112127b" x="81.405887" y="367.203257" style="fill: #1f77b4; stroke: #1f77b4"/>
     <use xlink:href="#m043112127b" x="82.775895" y="364.91554" style="fill: #1f77b4; stroke: #1f77b4"/>
     <use xlink:href="#m043112127b" x="85.334528" y="359.731574" style="fill: #1f77b4; stroke: #1f77b4"/>
     <use xlink:href="#m043112127b" x="91.724283" y="345.405891" style="fill: #1f77b4; stroke: #1f77b4"/>
     <use xlink:href="#m043112127b" x="120.615497" y="275.561894" style="fill: #1f77b4; stroke: #1f77b4"/>
     <use xlink:href="#m043112127b" x="156.377178" y="208.339621" style="fill: #1f77b4; stroke: #1f77b4"/>
     <use xlink:href="#m043112127b" x="192.211247" y="158.563476" style="fill: #1f77b4; stroke: #1f77b4"/>
     <use xlink:href="#m043112127b" x="227.105039" y="126.809966" style="fill: #1f77b4; stroke: #1f77b4"/>
     <use xlink:href="#m043112127b" x="261.237256" y="101.329375" style="fill: #1f77b4; stroke: #1f77b4"/>
     <use xlink:href="#m043112127b" x="326.507699" y="74.503607" style="fill: #1f77b4; stroke: #1f77b4"/>
     <use xlink:href="#m043112127b" x="358.771505" y="65.645567" style="fill: #1f77b4; stroke: #1f77b4"/>
     <use xlink:href="#m043112127b" x="389.83524" y="59.459581" style="fill: #1f77b4; stroke: #1f77b4"/>
     <use xlink:href="#m043112127b" x="423.697136" y="57.039176" style="fill: #1f77b4; stroke: #1f77b4"/>
     <use xlink:href="#m043112127b" x="454.797869" y="54.234435" style="fill: #1f77b4; stroke: #1f77b4"/>
     <use xlink:href="#m043112127b" x="485.23216" y="52.582704" style="fill: #1f77b4; stroke: #1f77b4"/>
     <use xlink:href="#m043112127b" x="516.716741" y="51.631013" style="fill: #1f77b4; stroke: #1f77b4"/>
     <use xlink:href="#m043112127b" x="551.241362" y="50.079941" style="fill: #1f77b4; stroke: #1f77b4"/>
     <use xlink:href="#m043112127b" x="614.172829" y="49.32957" style="fill: #1f77b4; stroke: #1f77b4"/>
     <use xlink:href="#m043112127b" x="642.808288" y="48.981837" style="fill: #1f77b4; stroke: #1f77b4"/>
     <use xlink:href="#m043112127b" x="674.567498" y="48.670708" style="fill: #1f77b4; stroke: #1f77b4"/>
     <use xlink:href="#m043112127b" x="706.164773" y="48.181136" style="fill: #1f77b4; stroke: #1f77b4"/>
    </g>
   </g>
   <g id="line2d_34">
    <path d="M 79.010227 375.963639 
L 79.258241 376.814842 
L 79.568931 374.019224 
L 79.987281 375.471277 
L 80.560697 375.830117 
L 81.405887 376.572833 
L 82.775895 376.739736 
L 85.334528 375.729976 
L 91.724283 372.875942 
L 120.615497 378.609045 
L 156.377178 395.007222 
L 192.211247 415.544583 
L 227.105039 432.585335 
L 261.237256 452.555227 
L 326.507699 474.928516 
L 358.771505 484.525414 
L 389.83524 491.042959 
L 423.697136 493.554843 
L 454.797869 496.425567 
L 485.23216 498.336601 
L 516.716741 498.411708 
L 551.241362 501.115529 
L 614.172829 502.133635 
L 642.808288 502.767865 
L 674.567498 502.984838 
L 706.164773 503.485546 
" clip-path="url(#p5986cdd843)" style="fill: none; stroke: #ff7f0e; stroke-width: 2; stroke-linecap: square"/>
    <defs>
     <path id="m8fcbc9a54e" d="M 0 3 
C 0.795609 3 1.55874 2.683901 2.12132 2.12132 
C 2.683901 1.55874 3 0.795609 3 0 
C 3 -0.795609 2.683901 -1.55874 2.12132 -2.12132 
C 1.55874 -2.683901 0.795609 -3 0 -3 
C -0.795609 -3 -1.55874 -2.683901 -2.12132 -2.12132 
C -2.683901 -1.55874 -3 -0.795609 -3 0 
C -3 0.795609 -2.683901 1.55874 -2.12132 2.12132 
C -1.55874 2.683901 -0.795609 3 0 3 
z
" style="stroke: #ff7f0e"/>
    </defs>
    <g clip-path="url(#p5986cdd843)">
     <use xlink:href="#m8fcbc9a54e" x="79.010227" y="375.963639" style="fill: #ff7f0e; stroke: #ff7f0e"/>
     <use xlink:href="#m8fcbc9a54e" x="79.258241" y="376.814842" style="fill: #ff7f0e; stroke: #ff7f0e"/>
     <use xlink:href="#m8fcbc9a54e" x="79.568931" y="374.019224" style="fill: #ff7f0e; stroke: #ff7f0e"/>
     <use xlink:href="#m8fcbc9a54e" x="79.987281" y="375.471277" style="fill: #ff7f0e; stroke: #ff7f0e"/>
     <use xlink:href="#m8fcbc9a54e" x="80.560697" y="375.830117" style="fill: #ff7f0e; stroke: #ff7f0e"/>
     <use xlink:href="#m8fcbc9a54e" x="81.405887" y="376.572833" style="fill: #ff7f0e; stroke: #ff7f0e"/>
     <use xlink:href="#m8fcbc9a54e" x="82.775895" y="376.739736" style="fill: #ff7f0e; stroke: #ff7f0e"/>
     <use xlink:href="#m8fcbc9a54e" x="85.334528" y="375.729976" style="fill: #ff7f0e; stroke: #ff7f0e"/>
     <use xlink:href="#m8fcbc9a54e" x="91.724283" y="372.875942" style="fill: #ff7f0e; stroke: #ff7f0e"/>
     <use xlink:href="#m8fcbc9a54e" x="120.615497" y="378.609045" style="fill: #ff7f0e; stroke: #ff7f0e"/>
     <use xlink:href="#m8fcbc9a54e" x="156.377178" y="395.007222" style="fill: #ff7f0e; stroke: #ff7f0e"/>
     <use xlink:href="#m8fcbc9a54e" x="192.211247" y="415.544583" style="fill: #ff7f0e; stroke: #ff7f0e"/>
     <use xlink:href="#m8fcbc9a54e" x="227.105039" y="432.585335" style="fill: #ff7f0e; stroke: #ff7f0e"/>
     <use xlink:href="#m8fcbc9a54e" x="261.237256" y="452.555227" style="fill: #ff7f0e; stroke: #ff7f0e"/>
     <use xlink:href="#m8fcbc9a54e" x="326.507699" y="474.928516" style="fill: #ff7f0e; stroke: #ff7f0e"/>
     <use xlink:href="#m8fcbc9a54e" x="358.771505" y="484.525414" style="fill: #ff7f0e; stroke: #ff7f0e"/>
     <use xlink:href="#m8fcbc9a54e" x="389.83524" y="491.042959" style="fill: #ff7f0e; stroke: #ff7f0e"/>
     <use xlink:href="#m8fcbc9a54e" x="423.697136" y="493.554843" style="fill: #ff7f0e; stroke: #ff7f0e"/>
     <use xlink:href="#m8fcbc9a54e" x="454.797869" y="496.425567" style="fill: #ff7f0e; stroke: #ff7f0e"/>
     <use xlink:href="#m8fcbc9a54e" x="485.23216" y="498.336601" style="fill: #ff7f0e; stroke: #ff7f0e"/>
     <use xlink:href="#m8fcbc9a54e" x="516.716741" y="498.411708" style="fill: #ff7f0e; stroke: #ff7f0e"/>
     <use xlink:href="#m8fcbc9a54e" x="551.241362" y="501.115529" style="fill: #ff7f0e; stroke: #ff7f0e"/>
     <use xlink:href="#m8fcbc9a54e" x="614.172829" y="502.133635" style="fill: #ff7f0e; stroke: #ff7f0e"/>
     <use xlink:href="#m8fcbc9a54e" x="642.808288" y="502.767865" style="fill: #ff7f0e; stroke: #ff7f0e"/>
     <use xlink:href="#m8fcbc9a54e" x="674.567498" y="502.984838" style="fill: #ff7f0e; stroke: #ff7f0e"/>
     <use xlink:href="#m8fcbc9a54e" x="706.164773" y="503.485546" style="fill: #ff7f0e; stroke: #ff7f0e"/>
    </g>
   </g>
   <g id="line2d_35">
    <path d="M 79.010227 377.839238 
L 79.258241 377.849524 
L 79.568931 378.631251 
L 79.987281 377.643807 
L 80.560697 378.158101 
L 81.405887 376.851794 
L 82.775895 376.697506 
L 85.334528 379.865557 
L 91.724283 379.526123 
L 120.615497 396.878404 
L 156.377178 417.820457 
L 192.211247 444.748893 
L 227.105039 461.76174 
L 261.237256 476.480836 
L 326.507699 492.629669 
L 358.771505 495.170281 
L 389.83524 498.708624 
L 423.697136 499.726927 
L 454.797869 501.105235 
L 485.23216 502.072108 
L 516.716741 503.429844 
L 551.241362 503.73842 
L 614.172829 503.861851 
L 642.808288 503.584132 
L 674.567498 503.872137 
L 706.164773 504.273286 
" clip-path="url(#p5986cdd843)" style="fill: none; stroke: #2ca02c; stroke-width: 2; stroke-linecap: square"/>
    <defs>
     <path id="mc40ac730da" d="M 0 3 
C 0.795609 3 1.55874 2.683901 2.12132 2.12132 
C 2.683901 1.55874 3 0.795609 3 0 
C 3 -0.795609 2.683901 -1.55874 2.12132 -2.12132 
C 1.55874 -2.683901 0.795609 -3 0 -3 
C -0.795609 -3 -1.55874 -2.683901 -2.12132 -2.12132 
C -2.683901 -1.55874 -3 -0.795609 -3 0 
C -3 0.795609 -2.683901 1.55874 -2.12132 2.12132 
C -1.55874 2.683901 -0.795609 3 0 3 
z
" style="stroke: #2ca02c"/>
    </defs>
    <g clip-path="url(#p5986cdd843)">
     <use xlink:href="#mc40ac730da" x="79.010227" y="377.839238" style="fill: #2ca02c; stroke: #2ca02c"/>
     <use xlink:href="#mc40ac730da" x="79.258241" y="377.849524" style="fill: #2ca02c; stroke: #2ca02c"/>
     <use xlink:href="#mc40ac730da" x="79.568931" y="378.631251" style="fill: #2ca02c; stroke: #2ca02c"/>
     <use xlink:href="#mc40ac730da" x="79.987281" y="377.643807" style="fill: #2ca02c; stroke: #2ca02c"/>
     <use xlink:href="#mc40ac730da" x="80.560697" y="378.158101" style="fill: #2ca02c; stroke: #2ca02c"/>
     <use xlink:href="#mc40ac730da" x="81.405887" y="376.851794" style="fill: #2ca02c; stroke: #2ca02c"/>
     <use xlink:href="#mc40ac730da" x="82.775895" y="376.697506" style="fill: #2ca02c; stroke: #2ca02c"/>
     <use xlink:href="#mc40ac730da" x="85.334528" y="379.865557" style="fill: #2ca02c; stroke: #2ca02c"/>
     <use xlink:href="#mc40ac730da" x="91.724283" y="379.526123" style="fill: #2ca02c; stroke: #2ca02c"/>
     <use xlink:href="#mc40ac730da" x="120.615497" y="396.878404" style="fill: #2ca02c; stroke: #2ca02c"/>
     <use xlink:href="#mc40ac730da" x="156.377178" y="417.820457" style="fill: #2ca02c; stroke: #2ca02c"/>
     <use xlink:href="#mc40ac730da" x="192.211247" y="444.748893" style="fill: #2ca02c; stroke: #2ca02c"/>
     <use xlink:href="#mc40ac730da" x="227.105039" y="461.76174" style="fill: #2ca02c; stroke: #2ca02c"/>
     <use xlink:href="#mc40ac730da" x="261.237256" y="476.480836" style="fill: #2ca02c; stroke: #2ca02c"/>
     <use xlink:href="#mc40ac730da" x="326.507699" y="492.629669" style="fill: #2ca02c; stroke: #2ca02c"/>
     <use xlink:href="#mc40ac730da" x="358.771505" y="495.170281" style="fill: #2ca02c; stroke: #2ca02c"/>
     <use xlink:href="#mc40ac730da" x="389.83524" y="498.708624" style="fill: #2ca02c; stroke: #2ca02c"/>
     <use xlink:href="#mc40ac730da" x="423.697136" y="499.726927" style="fill: #2ca02c; stroke: #2ca02c"/>
     <use xlink:href="#mc40ac730da" x="454.797869" y="501.105235" style="fill: #2ca02c; stroke: #2ca02c"/>
     <use xlink:href="#mc40ac730da" x="485.23216" y="502.072108" style="fill: #2ca02c; stroke: #2ca02c"/>
     <use xlink:href="#mc40ac730da" x="516.716741" y="503.429844" style="fill: #2ca02c; stroke: #2ca02c"/>
     <use xlink:href="#mc40ac730da" x="551.241362" y="503.73842" style="fill: #2ca02c; stroke: #2ca02c"/>
     <use xlink:href="#mc40ac730da" x="614.172829" y="503.861851" style="fill: #2ca02c; stroke: #2ca02c"/>
     <use xlink:href="#mc40ac730da" x="642.808288" y="503.584132" style="fill: #2ca02c; stroke: #2ca02c"/>
     <use xlink:href="#mc40ac730da" x="674.567498" y="503.872137" style="fill: #2ca02c; stroke: #2ca02c"/>
     <use xlink:href="#mc40ac730da" x="706.164773" y="504.273286" style="fill: #2ca02c; stroke: #2ca02c"/>
    </g>
   </g>
   <g id="line2d_36">
    <path d="M 79.010227 377.705109 
L 79.258241 378.170677 
L 79.568931 377.54216 
L 79.987281 379.811804 
L 80.560697 378.263791 
L 81.405887 378.624606 
L 82.775895 380.696384 
L 85.334528 381.359818 
L 91.724283 386.515984 
L 120.615497 405.522797 
L 156.377178 436.075697 
L 192.211247 456.793473 
L 227.105039 474.135881 
L 261.237256 483.237736 
L 326.507699 495.447256 
L 358.771505 499.276553 
L 389.83524 500.999155 
L 423.697136 502.151436 
L 454.797869 503.373552 
L 485.23216 503.478304 
L 516.716741 503.757645 
L 551.241362 503.559779 
L 614.172829 503.850759 
L 642.808288 504.048625 
L 674.567498 504.188296 
L 706.164773 504.106821 
" clip-path="url(#p5986cdd843)" style="fill: none; stroke: #d62728; stroke-width: 2; stroke-linecap: square"/>
    <defs>
     <path id="m9493d3ad8b" d="M 0 3 
C 0.795609 3 1.55874 2.683901 2.12132 2.12132 
C 2.683901 1.55874 3 0.795609 3 0 
C 3 -0.795609 2.683901 -1.55874 2.12132 -2.12132 
C 1.55874 -2.683901 0.795609 -3 0 -3 
C -0.795609 -3 -1.55874 -2.683901 -2.12132 -2.12132 
C -2.683901 -1.55874 -3 -0.795609 -3 0 
C -3 0.795609 -2.683901 1.55874 -2.12132 2.12132 
C -1.55874 2.683901 -0.795609 3 0 3 
z
" style="stroke: #d62728"/>
    </defs>
    <g clip-path="url(#p5986cdd843)">
     <use xlink:href="#m9493d3ad8b" x="79.010227" y="377.705109" style="fill: #d62728; stroke: #d62728"/>
     <use xlink:href="#m9493d3ad8b" x="79.258241" y="378.170677" style="fill: #d62728; stroke: #d62728"/>
     <use xlink:href="#m9493d3ad8b" x="79.568931" y="377.54216" style="fill: #d62728; stroke: #d62728"/>
     <use xlink:href="#m9493d3ad8b" x="79.987281" y="379.811804" style="fill: #d62728; stroke: #d62728"/>
     <use xlink:href="#m9493d3ad8b" x="80.560697" y="378.263791" style="fill: #d62728; stroke: #d62728"/>
     <use xlink:href="#m9493d3ad8b" x="81.405887" y="378.624606" style="fill: #d62728; stroke: #d62728"/>
     <use xlink:href="#m9493d3ad8b" x="82.775895" y="380.696384" style="fill: #d62728; stroke: #d62728"/>
     <use xlink:href="#m9493d3ad8b" x="85.334528" y="381.359818" style="fill: #d62728; stroke: #d62728"/>
     <use xlink:href="#m9493d3ad8b" x="91.724283" y="386.515984" style="fill: #d62728; stroke: #d62728"/>
     <use xlink:href="#m9493d3ad8b" x="120.615497" y="405.522797" style="fill: #d62728; stroke: #d62728"/>
     <use xlink:href="#m9493d3ad8b" x="156.377178" y="436.075697" style="fill: #d62728; stroke: #d62728"/>
     <use xlink:href="#m9493d3ad8b" x="192.211247" y="456.793473" style="fill: #d62728; stroke: #d62728"/>
     <use xlink:href="#m9493d3ad8b" x="227.105039" y="474.135881" style="fill: #d62728; stroke: #d62728"/>
     <use xlink:href="#m9493d3ad8b" x="261.237256" y="483.237736" style="fill: #d62728; stroke: #d62728"/>
     <use xlink:href="#m9493d3ad8b" x="326.507699" y="495.447256" style="fill: #d62728; stroke: #d62728"/>
     <use xlink:href="#m9493d3ad8b" x="358.771505" y="499.276553" style="fill: #d62728; stroke: #d62728"/>
     <use xlink:href="#m9493d3ad8b" x="389.83524" y="500.999155" style="fill: #d62728; stroke: #d62728"/>
     <use xlink:href="#m9493d3ad8b" x="423.697136" y="502.151436" style="fill: #d62728; stroke: #d62728"/>
     <use xlink:href="#m9493d3ad8b" x="454.797869" y="503.373552" style="fill: #d62728; stroke: #d62728"/>
     <use xlink:href="#m9493d3ad8b" x="485.23216" y="503.478304" style="fill: #d62728; stroke: #d62728"/>
     <use xlink:href="#m9493d3ad8b" x="516.716741" y="503.757645" style="fill: #d62728; stroke: #d62728"/>
     <use xlink:href="#m9493d3ad8b" x="551.241362" y="503.559779" style="fill: #d62728; stroke: #d62728"/>
     <use xlink:href="#m9493d3ad8b" x="614.172829" y="503.850759" style="fill: #d62728; stroke: #d62728"/>
     <use xlink:href="#m9493d3ad8b" x="642.808288" y="504.048625" style="fill: #d62728; stroke: #d62728"/>
     <use xlink:href="#m9493d3ad8b" x="674.567498" y="504.188296" style="fill: #d62728; stroke: #d62728"/>
     <use xlink:href="#m9493d3ad8b" x="706.164773" y="504.106821" style="fill: #d62728; stroke: #d62728"/>
    </g>
   </g>
   <g id="line2d_37">
    <path d="M 79.010227 377.077937 
L 79.258241 378.751608 
L 79.568931 380.666529 
L 79.987281 377.530281 
L 80.560697 380.214185 
L 81.405887 382.822699 
L 82.775895 381.963246 
L 85.334528 382.129106 
L 91.724283 391.326755 
L 120.615497 419.296658 
L 156.377178 451.805072 
L 192.211247 475.914977 
L 227.105039 488.037782 
L 261.237256 495.124495 
L 326.507699 499.859023 
L 358.771505 501.954881 
L 389.83524 503.251599 
L 423.697136 503.191287 
L 454.797869 503.688864 
L 485.23216 503.809489 
L 516.716741 504.171364 
L 551.241362 504.156286 
L 614.172829 504.322145 
L 642.808288 504.427692 
L 674.567498 504.382458 
L 706.164773 504.533239 
" clip-path="url(#p5986cdd843)" style="fill: none; stroke: #9467bd; stroke-width: 2; stroke-linecap: square"/>
    <defs>
     <path id="m38788b4417" d="M 0 3 
C 0.795609 3 1.55874 2.683901 2.12132 2.12132 
C 2.683901 1.55874 3 0.795609 3 0 
C 3 -0.795609 2.683901 -1.55874 2.12132 -2.12132 
C 1.55874 -2.683901 0.795609 -3 0 -3 
C -0.795609 -3 -1.55874 -2.683901 -2.12132 -2.12132 
C -2.683901 -1.55874 -3 -0.795609 -3 0 
C -3 0.795609 -2.683901 1.55874 -2.12132 2.12132 
C -1.55874 2.683901 -0.795609 3 0 3 
z
" style="stroke: #9467bd"/>
    </defs>
    <g clip-path="url(#p5986cdd843)">
     <use xlink:href="#m38788b4417" x="79.010227" y="377.077937" style="fill: #9467bd; stroke: #9467bd"/>
     <use xlink:href="#m38788b4417" x="79.258241" y="378.751608" style="fill: #9467bd; stroke: #9467bd"/>
     <use xlink:href="#m38788b4417" x="79.568931" y="380.666529" style="fill: #9467bd; stroke: #9467bd"/>
     <use xlink:href="#m38788b4417" x="79.987281" y="377.530281" style="fill: #9467bd; stroke: #9467bd"/>
     <use xlink:href="#m38788b4417" x="80.560697" y="380.214185" style="fill: #9467bd; stroke: #9467bd"/>
     <use xlink:href="#m38788b4417" x="81.405887" y="382.822699" style="fill: #9467bd; stroke: #9467bd"/>
     <use xlink:href="#m38788b4417" x="82.775895" y="381.963246" style="fill: #9467bd; stroke: #9467bd"/>
     <use xlink:href="#m38788b4417" x="85.334528" y="382.129106" style="fill: #9467bd; stroke: #9467bd"/>
     <use xlink:href="#m38788b4417" x="91.724283" y="391.326755" style="fill: #9467bd; stroke: #9467bd"/>
     <use xlink:href="#m38788b4417" x="120.615497" y="419.296658" style="fill: #9467bd; stroke: #9467bd"/>
     <use xlink:href="#m38788b4417" x="156.377178" y="451.805072" style="fill: #9467bd; stroke: #9467bd"/>
     <use xlink:href="#m38788b4417" x="192.211247" y="475.914977" style="fill: #9467bd; stroke: #9467bd"/>
     <use xlink:href="#m38788b4417" x="227.105039" y="488.037782" style="fill: #9467bd; stroke: #9467bd"/>
     <use xlink:href="#m38788b4417" x="261.237256" y="495.124495" style="fill: #9467bd; stroke: #9467bd"/>
     <use xlink:href="#m38788b4417" x="326.507699" y="499.859023" style="fill: #9467bd; stroke: #9467bd"/>
     <use xlink:href="#m38788b4417" x="358.771505" y="501.954881" style="fill: #9467bd; stroke: #9467bd"/>
     <use xlink:href="#m38788b4417" x="389.83524" y="503.251599" style="fill: #9467bd; stroke: #9467bd"/>
     <use xlink:href="#m38788b4417" x="423.697136" y="503.191287" style="fill: #9467bd; stroke: #9467bd"/>
     <use xlink:href="#m38788b4417" x="454.797869" y="503.688864" style="fill: #9467bd; stroke: #9467bd"/>
     <use xlink:href="#m38788b4417" x="485.23216" y="503.809489" style="fill: #9467bd; stroke: #9467bd"/>
     <use xlink:href="#m38788b4417" x="516.716741" y="504.171364" style="fill: #9467bd; stroke: #9467bd"/>
     <use xlink:href="#m38788b4417" x="551.241362" y="504.156286" style="fill: #9467bd; stroke: #9467bd"/>
     <use xlink:href="#m38788b4417" x="614.172829" y="504.322145" style="fill: #9467bd; stroke: #9467bd"/>
     <use xlink:href="#m38788b4417" x="642.808288" y="504.427692" style="fill: #9467bd; stroke: #9467bd"/>
     <use xlink:href="#m38788b4417" x="674.567498" y="504.382458" style="fill: #9467bd; stroke: #9467bd"/>
     <use xlink:href="#m38788b4417" x="706.164773" y="504.533239" style="fill: #9467bd; stroke: #9467bd"/>
    </g>
   </g>
   <g id="line2d_38">
    <path d="M 79.010227 379.651367 
L 79.258241 374.703236 
L 79.568931 382.028681 
L 79.987281 380.895311 
L 80.560697 382.664475 
L 81.405887 381.558747 
L 82.775895 385.788155 
L 85.334528 388.635403 
L 91.724283 397.840585 
L 120.615497 440.189949 
L 156.377178 473.914638 
L 192.211247 488.206167 
L 227.105039 497.217846 
L 261.237256 501.226108 
L 326.507699 503.575779 
L 358.771505 503.962784 
L 389.83524 503.935141 
L 423.697136 504.01807 
L 454.797869 504.294502 
L 485.23216 504.570934 
L 516.716741 504.570934 
L 551.241362 504.515648 
L 614.172829 504.488005 
L 642.808288 504.62622 
L 674.567498 504.488005 
L 706.164773 504.62622 
" clip-path="url(#p5986cdd843)" style="fill: none; stroke: #8c564b; stroke-width: 2; stroke-linecap: square"/>
    <defs>
     <path id="m90de24794b" d="M 0 3 
C 0.795609 3 1.55874 2.683901 2.12132 2.12132 
C 2.683901 1.55874 3 0.795609 3 0 
C 3 -0.795609 2.683901 -1.55874 2.12132 -2.12132 
C 1.55874 -2.683901 0.795609 -3 0 -3 
C -0.795609 -3 -1.55874 -2.683901 -2.12132 -2.12132 
C -2.683901 -1.55874 -3 -0.795609 -3 0 
C -3 0.795609 -2.683901 1.55874 -2.12132 2.12132 
C -1.55874 2.683901 -0.795609 3 0 3 
z
" style="stroke: #8c564b"/>
    </defs>
    <g clip-path="url(#p5986cdd843)">
     <use xlink:href="#m90de24794b" x="79.010227" y="379.651367" style="fill: #8c564b; stroke: #8c564b"/>
     <use xlink:href="#m90de24794b" x="79.258241" y="374.703236" style="fill: #8c564b; stroke: #8c564b"/>
     <use xlink:href="#m90de24794b" x="79.568931" y="382.028681" style="fill: #8c564b; stroke: #8c564b"/>
     <use xlink:href="#m90de24794b" x="79.987281" y="380.895311" style="fill: #8c564b; stroke: #8c564b"/>
     <use xlink:href="#m90de24794b" x="80.560697" y="382.664475" style="fill: #8c564b; stroke: #8c564b"/>
     <use xlink:href="#m90de24794b" x="81.405887" y="381.558747" style="fill: #8c564b; stroke: #8c564b"/>
     <use xlink:href="#m90de24794b" x="82.775895" y="385.788155" style="fill: #8c564b; stroke: #8c564b"/>
     <use xlink:href="#m90de24794b" x="85.334528" y="388.635403" style="fill: #8c564b; stroke: #8c564b"/>
     <use xlink:href="#m90de24794b" x="91.724283" y="397.840585" style="fill: #8c564b; stroke: #8c564b"/>
     <use xlink:href="#m90de24794b" x="120.615497" y="440.189949" style="fill: #8c564b; stroke: #8c564b"/>
     <use xlink:href="#m90de24794b" x="156.377178" y="473.914638" style="fill: #8c564b; stroke: #8c564b"/>
     <use xlink:href="#m90de24794b" x="192.211247" y="488.206167" style="fill: #8c564b; stroke: #8c564b"/>
     <use xlink:href="#m90de24794b" x="227.105039" y="497.217846" style="fill: #8c564b; stroke: #8c564b"/>
     <use xlink:href="#m90de24794b" x="261.237256" y="501.226108" style="fill: #8c564b; stroke: #8c564b"/>
     <use xlink:href="#m90de24794b" x="326.507699" y="503.575779" style="fill: #8c564b; stroke: #8c564b"/>
     <use xlink:href="#m90de24794b" x="358.771505" y="503.962784" style="fill: #8c564b; stroke: #8c564b"/>
     <use xlink:href="#m90de24794b" x="389.83524" y="503.935141" style="fill: #8c564b; stroke: #8c564b"/>
     <use xlink:href="#m90de24794b" x="423.697136" y="504.01807" style="fill: #8c564b; stroke: #8c564b"/>
     <use xlink:href="#m90de24794b" x="454.797869" y="504.294502" style="fill: #8c564b; stroke: #8c564b"/>
     <use xlink:href="#m90de24794b" x="485.23216" y="504.570934" style="fill: #8c564b; stroke: #8c564b"/>
     <use xlink:href="#m90de24794b" x="516.716741" y="504.570934" style="fill: #8c564b; stroke: #8c564b"/>
     <use xlink:href="#m90de24794b" x="551.241362" y="504.515648" style="fill: #8c564b; stroke: #8c564b"/>
     <use xlink:href="#m90de24794b" x="614.172829" y="504.488005" style="fill: #8c564b; stroke: #8c564b"/>
     <use xlink:href="#m90de24794b" x="642.808288" y="504.62622" style="fill: #8c564b; stroke: #8c564b"/>
     <use xlink:href="#m90de24794b" x="674.567498" y="504.488005" style="fill: #8c564b; stroke: #8c564b"/>
     <use xlink:href="#m90de24794b" x="706.164773" y="504.62622" style="fill: #8c564b; stroke: #8c564b"/>
    </g>
   </g>
   <g id="line2d_39">
    <path d="M 79.010227 380.054014 
L 79.258241 380.27516 
L 79.568931 382.328656 
L 79.987281 379.390577 
L 80.560697 376.673643 
L 81.405887 384.76126 
L 82.775895 386.814756 
L 85.334528 391.332449 
L 91.724283 402.326553 
L 120.615497 446.745262 
L 156.377178 475.652174 
L 192.211247 491.195563 
L 227.105039 498.209044 
L 261.237256 501.842153 
L 326.507699 503.421766 
L 358.771505 504.243164 
L 389.83524 504.085203 
L 423.697136 504.401126 
L 454.797869 503.990426 
L 485.23216 504.306349 
L 516.716741 504.559087 
L 551.241362 504.653864 
L 614.172829 504.653864 
L 642.808288 504.495902 
L 674.567498 504.622271 
L 706.164773 504.653864 
" clip-path="url(#p5986cdd843)" style="fill: none; stroke: #e377c2; stroke-width: 2; stroke-linecap: square"/>
    <defs>
     <path id="mf4e9110c0b" d="M 0 3 
C 0.795609 3 1.55874 2.683901 2.12132 2.12132 
C 2.683901 1.55874 3 0.795609 3 0 
C 3 -0.795609 2.683901 -1.55874 2.12132 -2.12132 
C 1.55874 -2.683901 0.795609 -3 0 -3 
C -0.795609 -3 -1.55874 -2.683901 -2.12132 -2.12132 
C -2.683901 -1.55874 -3 -0.795609 -3 0 
C -3 0.795609 -2.683901 1.55874 -2.12132 2.12132 
C -1.55874 2.683901 -0.795609 3 0 3 
z
" style="stroke: #e377c2"/>
    </defs>
    <g clip-path="url(#p5986cdd843)">
     <use xlink:href="#mf4e9110c0b" x="79.010227" y="380.054014" style="fill: #e377c2; stroke: #e377c2"/>
     <use xlink:href="#mf4e9110c0b" x="79.258241" y="380.27516" style="fill: #e377c2; stroke: #e377c2"/>
     <use xlink:href="#mf4e9110c0b" x="79.568931" y="382.328656" style="fill: #e377c2; stroke: #e377c2"/>
     <use xlink:href="#mf4e9110c0b" x="79.987281" y="379.390577" style="fill: #e377c2; stroke: #e377c2"/>
     <use xlink:href="#mf4e9110c0b" x="80.560697" y="376.673643" style="fill: #e377c2; stroke: #e377c2"/>
     <use xlink:href="#mf4e9110c0b" x="81.405887" y="384.76126" style="fill: #e377c2; stroke: #e377c2"/>
     <use xlink:href="#mf4e9110c0b" x="82.775895" y="386.814756" style="fill: #e377c2; stroke: #e377c2"/>
     <use xlink:href="#mf4e9110c0b" x="85.334528" y="391.332449" style="fill: #e377c2; stroke: #e377c2"/>
     <use xlink:href="#mf4e9110c0b" x="91.724283" y="402.326553" style="fill: #e377c2; stroke: #e377c2"/>
     <use xlink:href="#mf4e9110c0b" x="120.615497" y="446.745262" style="fill: #e377c2; stroke: #e377c2"/>
     <use xlink:href="#mf4e9110c0b" x="156.377178" y="475.652174" style="fill: #e377c2; stroke: #e377c2"/>
     <use xlink:href="#mf4e9110c0b" x="192.211247" y="491.195563" style="fill: #e377c2; stroke: #e377c2"/>
     <use xlink:href="#mf4e9110c0b" x="227.105039" y="498.209044" style="fill: #e377c2; stroke: #e377c2"/>
     <use xlink:href="#mf4e9110c0b" x="261.237256" y="501.842153" style="fill: #e377c2; stroke: #e377c2"/>
     <use xlink:href="#mf4e9110c0b" x="326.507699" y="503.421766" style="fill: #e377c2; stroke: #e377c2"/>
     <use xlink:href="#mf4e9110c0b" x="358.771505" y="504.243164" style="fill: #e377c2; stroke: #e377c2"/>
     <use xlink:href="#mf4e9110c0b" x="389.83524" y="504.085203" style="fill: #e377c2; stroke: #e377c2"/>
     <use xlink:href="#mf4e9110c0b" x="423.697136" y="504.401126" style="fill: #e377c2; stroke: #e377c2"/>
     <use xlink:href="#mf4e9110c0b" x="454.797869" y="503.990426" style="fill: #e377c2; stroke: #e377c2"/>
     <use xlink:href="#mf4e9110c0b" x="485.23216" y="504.306349" style="fill: #e377c2; stroke: #e377c2"/>
     <use xlink:href="#mf4e9110c0b" x="516.716741" y="504.559087" style="fill: #e377c2; stroke: #e377c2"/>
     <use xlink:href="#mf4e9110c0b" x="551.241362" y="504.653864" style="fill: #e377c2; stroke: #e377c2"/>
     <use xlink:href="#mf4e9110c0b" x="614.172829" y="504.653864" style="fill: #e377c2; stroke: #e377c2"/>
     <use xlink:href="#mf4e9110c0b" x="642.808288" y="504.495902" style="fill: #e377c2; stroke: #e377c2"/>
     <use xlink:href="#mf4e9110c0b" x="674.567498" y="504.622271" style="fill: #e377c2; stroke: #e377c2"/>
     <use xlink:href="#mf4e9110c0b" x="706.164773" y="504.653864" style="fill: #e377c2; stroke: #e377c2"/>
    </g>
   </g>
   <g id="line2d_40">
    <path d="M 79.010227 379.363661 
L 79.258241 379.363661 
L 79.568931 379.927583 
L 79.987281 380.557849 
L 80.560697 380.790052 
L 81.405887 382.68085 
L 82.775895 387.059538 
L 85.334528 390.44307 
L 91.724283 402.849354 
L 120.615497 445.309365 
L 156.377178 476.789482 
L 192.211247 492.944189 
L 227.105039 497.621424 
L 261.237256 501.966941 
L 326.507699 503.658707 
L 358.771505 504.288973 
L 389.83524 504.023598 
L 423.697136 504.42166 
L 454.797869 504.488004 
L 485.23216 504.355317 
L 516.716741 504.521176 
L 551.241362 504.58752 
L 614.172829 504.521176 
L 642.808288 504.554348 
L 674.567498 504.653864 
L 706.164773 504.653864 
" clip-path="url(#p5986cdd843)" style="fill: none; stroke: #17becf; stroke-width: 2; stroke-linecap: square"/>
    <defs>
     <path id="m1d775fbc9b" d="M 0 3 
C 0.795609 3 1.55874 2.683901 2.12132 2.12132 
C 2.683901 1.55874 3 0.795609 3 0 
C 3 -0.795609 2.683901 -1.55874 2.12132 -2.12132 
C 1.55874 -2.683901 0.795609 -3 0 -3 
C -0.795609 -3 -1.55874 -2.683901 -2.12132 -2.12132 
C -2.683901 -1.55874 -3 -0.795609 -3 0 
C -3 0.795609 -2.683901 1.55874 -2.12132 2.12132 
C -1.55874 2.683901 -0.795609 3 0 3 
z
" style="stroke: #17becf"/>
    </defs>
    <g clip-path="url(#p5986cdd843)">
     <use xlink:href="#m1d775fbc9b" x="79.010227" y="379.363661" style="fill: #17becf; stroke: #17becf"/>
     <use xlink:href="#m1d775fbc9b" x="79.258241" y="379.363661" style="fill: #17becf; stroke: #17becf"/>
     <use xlink:href="#m1d775fbc9b" x="79.568931" y="379.927583" style="fill: #17becf; stroke: #17becf"/>
     <use xlink:href="#m1d775fbc9b" x="79.987281" y="380.557849" style="fill: #17becf; stroke: #17becf"/>
     <use xlink:href="#m1d775fbc9b" x="80.560697" y="380.790052" style="fill: #17becf; stroke: #17becf"/>
     <use xlink:href="#m1d775fbc9b" x="81.405887" y="382.68085" style="fill: #17becf; stroke: #17becf"/>
     <use xlink:href="#m1d775fbc9b" x="82.775895" y="387.059538" style="fill: #17becf; stroke: #17becf"/>
     <use xlink:href="#m1d775fbc9b" x="85.334528" y="390.44307" style="fill: #17becf; stroke: #17becf"/>
     <use xlink:href="#m1d775fbc9b" x="91.724283" y="402.849354" style="fill: #17becf; stroke: #17becf"/>
     <use xlink:href="#m1d775fbc9b" x="120.615497" y="445.309365" style="fill: #17becf; stroke: #17becf"/>
     <use xlink:href="#m1d775fbc9b" x="156.377178" y="476.789482" style="fill: #17becf; stroke: #17becf"/>
     <use xlink:href="#m1d775fbc9b" x="192.211247" y="492.944189" style="fill: #17becf; stroke: #17becf"/>
     <use xlink:href="#m1d775fbc9b" x="227.105039" y="497.621424" style="fill: #17becf; stroke: #17becf"/>
     <use xlink:href="#m1d775fbc9b" x="261.237256" y="501.966941" style="fill: #17becf; stroke: #17becf"/>
     <use xlink:href="#m1d775fbc9b" x="326.507699" y="503.658707" style="fill: #17becf; stroke: #17becf"/>
     <use xlink:href="#m1d775fbc9b" x="358.771505" y="504.288973" style="fill: #17becf; stroke: #17becf"/>
     <use xlink:href="#m1d775fbc9b" x="389.83524" y="504.023598" style="fill: #17becf; stroke: #17becf"/>
     <use xlink:href="#m1d775fbc9b" x="423.697136" y="504.42166" style="fill: #17becf; stroke: #17becf"/>
     <use xlink:href="#m1d775fbc9b" x="454.797869" y="504.488004" style="fill: #17becf; stroke: #17becf"/>
     <use xlink:href="#m1d775fbc9b" x="485.23216" y="504.355317" style="fill: #17becf; stroke: #17becf"/>
     <use xlink:href="#m1d775fbc9b" x="516.716741" y="504.521176" style="fill: #17becf; stroke: #17becf"/>
     <use xlink:href="#m1d775fbc9b" x="551.241362" y="504.58752" style="fill: #17becf; stroke: #17becf"/>
     <use xlink:href="#m1d775fbc9b" x="614.172829" y="504.521176" style="fill: #17becf; stroke: #17becf"/>
     <use xlink:href="#m1d775fbc9b" x="642.808288" y="504.554348" style="fill: #17becf; stroke: #17becf"/>
     <use xlink:href="#m1d775fbc9b" x="674.567498" y="504.653864" style="fill: #17becf; stroke: #17becf"/>
     <use xlink:href="#m1d775fbc9b" x="706.164773" y="504.653864" style="fill: #17becf; stroke: #17becf"/>
    </g>
   </g>
   <g id="line2d_41">
    <path d="M 79.010227 380.511666 
L 79.258241 383.69616 
L 79.568931 384.545359 
L 79.987281 381.679314 
L 80.560697 381.520089 
L 81.405887 389.852849 
L 82.775895 386.456055 
L 85.334528 390.914347 
L 91.724283 403.705399 
L 120.615497 455.984178 
L 156.377178 486.183797 
L 192.211247 497.754126 
L 227.105039 500.354797 
L 261.237256 503.061617 
L 326.507699 503.96389 
L 358.771505 504.123115 
L 389.83524 504.441564 
L 423.697136 504.441564 
L 454.797869 504.335414 
L 485.23216 504.441564 
L 516.716741 504.653864 
L 551.241362 504.653864 
L 614.172829 504.653864 
L 642.808288 504.653864 
L 674.567498 504.653864 
L 706.164773 504.653864 
" clip-path="url(#p5986cdd843)" style="fill: none; stroke: #bcbd22; stroke-width: 2; stroke-linecap: square"/>
    <defs>
     <path id="mb06a86f9b6" d="M 0 3 
C 0.795609 3 1.55874 2.683901 2.12132 2.12132 
C 2.683901 1.55874 3 0.795609 3 0 
C 3 -0.795609 2.683901 -1.55874 2.12132 -2.12132 
C 1.55874 -2.683901 0.795609 -3 0 -3 
C -0.795609 -3 -1.55874 -2.683901 -2.12132 -2.12132 
C -2.683901 -1.55874 -3 -0.795609 -3 0 
C -3 0.795609 -2.683901 1.55874 -2.12132 2.12132 
C -1.55874 2.683901 -0.795609 3 0 3 
z
" style="stroke: #bcbd22"/>
    </defs>
    <g clip-path="url(#p5986cdd843)">
     <use xlink:href="#mb06a86f9b6" x="79.010227" y="380.511666" style="fill: #bcbd22; stroke: #bcbd22"/>
     <use xlink:href="#mb06a86f9b6" x="79.258241" y="383.69616" style="fill: #bcbd22; stroke: #bcbd22"/>
     <use xlink:href="#mb06a86f9b6" x="79.568931" y="384.545359" style="fill: #bcbd22; stroke: #bcbd22"/>
     <use xlink:href="#mb06a86f9b6" x="79.987281" y="381.679314" style="fill: #bcbd22; stroke: #bcbd22"/>
     <use xlink:href="#mb06a86f9b6" x="80.560697" y="381.520089" style="fill: #bcbd22; stroke: #bcbd22"/>
     <use xlink:href="#mb06a86f9b6" x="81.405887" y="389.852849" style="fill: #bcbd22; stroke: #bcbd22"/>
     <use xlink:href="#mb06a86f9b6" x="82.775895" y="386.456055" style="fill: #bcbd22; stroke: #bcbd22"/>
     <use xlink:href="#mb06a86f9b6" x="85.334528" y="390.914347" style="fill: #bcbd22; stroke: #bcbd22"/>
     <use xlink:href="#mb06a86f9b6" x="91.724283" y="403.705399" style="fill: #bcbd22; stroke: #bcbd22"/>
     <use xlink:href="#mb06a86f9b6" x="120.615497" y="455.984178" style="fill: #bcbd22; stroke: #bcbd22"/>
     <use xlink:href="#mb06a86f9b6" x="156.377178" y="486.183797" style="fill: #bcbd22; stroke: #bcbd22"/>
     <use xlink:href="#mb06a86f9b6" x="192.211247" y="497.754126" style="fill: #bcbd22; stroke: #bcbd22"/>
     <use xlink:href="#mb06a86f9b6" x="227.105039" y="500.354797" style="fill: #bcbd22; stroke: #bcbd22"/>
     <use xlink:href="#mb06a86f9b6" x="261.237256" y="503.061617" style="fill: #bcbd22; stroke: #bcbd22"/>
     <use xlink:href="#mb06a86f9b6" x="326.507699" y="503.96389" style="fill: #bcbd22; stroke: #bcbd22"/>
     <use xlink:href="#mb06a86f9b6" x="358.771505" y="504.123115" style="fill: #bcbd22; stroke: #bcbd22"/>
     <use xlink:href="#mb06a86f9b6" x="389.83524" y="504.441564" style="fill: #bcbd22; stroke: #bcbd22"/>
     <use xlink:href="#mb06a86f9b6" x="423.697136" y="504.441564" style="fill: #bcbd22; stroke: #bcbd22"/>
     <use xlink:href="#mb06a86f9b6" x="454.797869" y="504.335414" style="fill: #bcbd22; stroke: #bcbd22"/>
     <use xlink:href="#mb06a86f9b6" x="485.23216" y="504.441564" style="fill: #bcbd22; stroke: #bcbd22"/>
     <use xlink:href="#mb06a86f9b6" x="516.716741" y="504.653864" style="fill: #bcbd22; stroke: #bcbd22"/>
     <use xlink:href="#mb06a86f9b6" x="551.241362" y="504.653864" style="fill: #bcbd22; stroke: #bcbd22"/>
     <use xlink:href="#mb06a86f9b6" x="614.172829" y="504.653864" style="fill: #bcbd22; stroke: #bcbd22"/>
     <use xlink:href="#mb06a86f9b6" x="642.808288" y="504.653864" style="fill: #bcbd22; stroke: #bcbd22"/>
     <use xlink:href="#mb06a86f9b6" x="674.567498" y="504.653864" style="fill: #bcbd22; stroke: #bcbd22"/>
     <use xlink:href="#mb06a86f9b6" x="706.164773" y="504.653864" style="fill: #bcbd22; stroke: #bcbd22"/>
    </g>
   </g>
   <g id="line2d_42">
    <path d="M 47.6525 376.824022 
L 737.5225 376.824022 
" clip-path="url(#p5986cdd843)" style="fill: none; stroke-dasharray: 5.55,2.4; stroke-dashoffset: 0; stroke: #000000; stroke-opacity: 0.5; stroke-width: 1.5"/>
   </g>
   <g id="patch_3">
    <path d="M 47.6525 527.4775 
L 47.6525 25.3575 
" style="fill: none; stroke: #000000; stroke-width: 0.8; stroke-linejoin: miter; stroke-linecap: square"/>
   </g>
   <g id="patch_4">
    <path d="M 737.5225 527.4775 
L 737.5225 25.3575 
" style="fill: none; stroke: #000000; stroke-width: 0.8; stroke-linejoin: miter; stroke-linecap: square"/>
   </g>
   <g id="patch_5">
    <path d="M 47.6525 527.4775 
L 737.5225 527.4775 
" style="fill: none; stroke: #000000; stroke-width: 0.8; stroke-linejoin: miter; stroke-linecap: square"/>
   </g>
   <g id="patch_6">
    <path d="M 47.6525 25.3575 
L 737.5225 25.3575 
" style="fill: none; stroke: #000000; stroke-width: 0.8; stroke-linejoin: miter; stroke-linecap: square"/>
   </g>
   <g id="text_19">
    <!-- Mining Share Efficiency vs Dynamic Δ/T Ratio -->
    <g transform="translate(211.25375 19.3575) scale(0.16 -0.16)">
     <defs>
      <path id="DejaVuSans-4d" d="M 628 4666 
L 1569 4666 
L 2759 1491 
L 3956 4666 
L 4897 4666 
L 4897 0 
L 4281 0 
L 4281 4097 
L 3078 897 
L 2444 897 
L 1241 4097 
L 1241 0 
L 628 0 
L 628 4666 
z
" transform="scale(0.015625)"/>
      <path id="DejaVuSans-53" d="M 3425 4513 
L 3425 3897 
Q 3066 4069 2747 4153 
Q 2428 4238 2131 4238 
Q 1616 4238 1336 4038 
Q 1056 3838 1056 3469 
Q 1056 3159 1242 3001 
Q 1428 2844 1947 2747 
L 2328 2669 
Q 3034 2534 3370 2195 
Q 3706 1856 3706 1288 
Q 3706 609 3251 259 
Q 2797 -91 1919 -91 
Q 1588 -91 1214 -16 
Q 841 59 441 206 
L 441 856 
Q 825 641 1194 531 
Q 1563 422 1919 422 
Q 2459 422 2753 634 
Q 3047 847 3047 1241 
Q 3047 1584 2836 1778 
Q 2625 1972 2144 2069 
L 1759 2144 
Q 1053 2284 737 2584 
Q 422 2884 422 3419 
Q 422 4038 858 4394 
Q 1294 4750 2059 4750 
Q 2388 4750 2728 4690 
Q 3069 4631 3425 4513 
z
" transform="scale(0.015625)"/>
      <path id="DejaVuSans-45" d="M 628 4666 
L 3578 4666 
L 3578 4134 
L 1259 4134 
L 1259 2753 
L 3481 2753 
L 3481 2222 
L 1259 2222 
L 1259 531 
L 3634 531 
L 3634 0 
L 628 0 
L 628 4666 
z
" transform="scale(0.015625)"/>
      <path id="DejaVuSans-66" d="M 2375 4863 
L 2375 4384 
L 1825 4384 
Q 1516 4384 1395 4259 
Q 1275 4134 1275 3809 
L 1275 3500 
L 2222 3500 
L 2222 3053 
L 1275 3053 
L 1275 0 
L 697 0 
L 697 3053 
L 147 3053 
L 147 3500 
L 697 3500 
L 697 3744 
Q 697 4328 969 4595 
Q 1241 4863 1831 4863 
L 2375 4863 
z
" transform="scale(0.015625)"/>
      <path id="DejaVuSans-76" d="M 191 3500 
L 800 3500 
L 1894 563 
L 2988 3500 
L 3597 3500 
L 2284 0 
L 1503 0 
L 191 3500 
z
" transform="scale(0.015625)"/>
      <path id="DejaVuSans-44" d="M 1259 4147 
L 1259 519 
L 2022 519 
Q 2988 519 3436 956 
Q 3884 1394 3884 2338 
Q 3884 3275 3436 3711 
Q 2988 4147 2022 4147 
L 1259 4147 
z
M 628 4666 
L 1925 4666 
Q 3281 4666 3915 4102 
Q 4550 3538 4550 2338 
Q 4550 1131 3912 565 
Q 3275 0 1925 0 
L 628 0 
L 628 4666 
z
" transform="scale(0.015625)"/>
      <path id="DejaVuSans-52" d="M 2841 2188 
Q 3044 2119 3236 1894 
Q 3428 1669 3622 1275 
L 4263 0 
L 3584 0 
L 2988 1197 
Q 2756 1666 2539 1819 
Q 2322 1972 1947 1972 
L 1259 1972 
L 1259 0 
L 628 0 
L 628 4666 
L 2053 4666 
Q 2853 4666 3247 4331 
Q 3641 3997 3641 3322 
Q 3641 2881 3436 2590 
Q 3231 2300 2841 2188 
z
M 1259 4147 
L 1259 2491 
L 2053 2491 
Q 2509 2491 2742 2702 
Q 2975 2913 2975 3322 
Q 2975 3731 2742 3939 
Q 2509 4147 2053 4147 
L 1259 4147 
z
" transform="scale(0.015625)"/>
     </defs>
     <use xlink:href="#DejaVuSans-4d"/>
     <use xlink:href="#DejaVuSans-69" transform="translate(86.279297 0)"/>
     <use xlink:href="#DejaVuSans-6e" transform="translate(114.0625 0)"/>
     <use xlink:href="#DejaVuSans-69" transform="translate(177.441406 0)"/>
     <use xlink:href="#DejaVuSans-6e" transform="translate(205.224609 0)"/>
     <use xlink:href="#DejaVuSans-67" transform="translate(268.603516 0)"/>
     <use xlink:href="#DejaVuSans-20" transform="translate(332.080078 0)"/>
     <use xlink:href="#DejaVuSans-53" transform="translate(363.867188 0)"/>
     <use xlink:href="#DejaVuSans-68" transform="translate(427.34375 0)"/>
     <use xlink:href="#DejaVuSans-61" transform="translate(490.722656 0)"/>
     <use xlink:href="#DejaVuSans-72" transform="translate(552.001953 0)"/>
     <use xlink:href="#DejaVuSans-65" transform="translate(590.865234 0)"/>
     <use xlink:href="#DejaVuSans-20" transform="translate(652.388672 0)"/>
     <use xlink:href="#DejaVuSans-45" transform="translate(684.175781 0)"/>
     <use xlink:href="#DejaVuSans-66" transform="translate(747.359375 0)"/>
     <use xlink:href="#DejaVuSans-66" transform="translate(782.564453 0)"/>
     <use xlink:href="#DejaVuSans-69" transform="translate(817.769531 0)"/>
     <use xlink:href="#DejaVuSans-63" transform="translate(845.552734 0)"/>
     <use xlink:href="#DejaVuSans-69" transform="translate(900.533203 0)"/>
     <use xlink:href="#DejaVuSans-65" transform="translate(928.316406 0)"/>
     <use xlink:href="#DejaVuSans-6e" transform="translate(989.839844 0)"/>
     <use xlink:href="#DejaVuSans-63" transform="translate(1053.21875 0)"/>
     <use xlink:href="#DejaVuSans-79" transform="translate(1108.199219 0)"/>
     <use xlink:href="#DejaVuSans-20" transform="translate(1167.378906 0)"/>
     <use xlink:href="#DejaVuSans-76" transform="translate(1199.166016 0)"/>
     <use xlink:href="#DejaVuSans-73" transform="translate(1258.345703 0)"/>
     <use xlink:href="#DejaVuSans-20" transform="translate(1310.445312 0)"/>
     <use xlink:href="#DejaVuSans-44" transform="translate(1342.232422 0)"/>
     <use xlink:href="#DejaVuSans-79" transform="translate(1419.234375 0)"/>
     <use xlink:href="#DejaVuSans-6e" transform="translate(1478.414062 0)"/>
     <use xlink:href="#DejaVuSans-61" transform="translate(1541.792969 0)"/>
     <use xlink:href="#DejaVuSans-6d" transform="translate(1603.072266 0)"/>
     <use xlink:href="#DejaVuSans-69" transform="translate(1700.484375 0)"/>
     <use xlink:href="#DejaVuSans-63" transform="translate(1728.267578 0)"/>
     <use xlink:href="#DejaVuSans-20" transform="translate(1783.248047 0)"/>
     <use xlink:href="#DejaVuSans-394" transform="translate(1815.035156 0)"/>
     <use xlink:href="#DejaVuSans-2f" transform="translate(1883.443359 0)"/>
     <use xlink:href="#DejaVuSans-54" transform="translate(1917.134766 0)"/>
     <use xlink:href="#DejaVuSans-20" transform="translate(1978.21875 0)"/>
     <use xlink:href="#DejaVuSans-52" transform="translate(2010.005859 0)"/>
     <use xlink:href="#DejaVuSans-61" transform="translate(2077.238281 0)"/>
     <use xlink:href="#DejaVuSans-74" transform="translate(2138.517578 0)"/>
     <use xlink:href="#DejaVuSans-69" transform="translate(2177.726562 0)"/>
     <use xlink:href="#DejaVuSans-6f" transform="translate(2205.509766 0)"/>
    </g>
   </g>
   <g id="legend_1">
    <g id="patch_7">
     <path d="M 779.016 165.460625 
L 848.564437 165.460625 
Q 850.564437 165.460625 850.564437 163.460625 
L 850.564437 32.3575 
Q 850.564437 30.3575 848.564437 30.3575 
L 779.016 30.3575 
Q 777.016 30.3575 777.016 32.3575 
L 777.016 163.460625 
Q 777.016 165.460625 779.016 165.460625 
z
" style="fill: #ffffff; opacity: 0.8; stroke: #cccccc; stroke-linejoin: miter"/>
    </g>
    <g id="line2d_43">
     <path d="M 781.016 38.455938 
L 791.016 38.455938 
L 801.016 38.455938 
" style="fill: none; stroke: #1f77b4; stroke-width: 2; stroke-linecap: square"/>
     <g>
      <use xlink:href="#m043112127b" x="791.016" y="38.455938" style="fill: #1f77b4; stroke: #1f77b4"/>
     </g>
    </g>
    <g id="text_20">
     <!-- Miner 0 -->
     <g transform="translate(809.016 41.955938) scale(0.1 -0.1)">
      <use xlink:href="#DejaVuSans-4d"/>
      <use xlink:href="#DejaVuSans-69" transform="translate(86.279297 0)"/>
      <use xlink:href="#DejaVuSans-6e" transform="translate(114.0625 0)"/>
      <use xlink:href="#DejaVuSans-65" transform="translate(177.441406 0)"/>
      <use xlink:href="#DejaVuSans-72" transform="translate(238.964844 0)"/>
      <use xlink:href="#DejaVuSans-20" transform="translate(280.078125 0)"/>
      <use xlink:href="#DejaVuSans-30" transform="translate(311.865234 0)"/>
     </g>
    </g>
    <g id="line2d_44">
     <path d="M 781.016 53.134063 
L 791.016 53.134063 
L 801.016 53.134063 
" style="fill: none; stroke: #ff7f0e; stroke-width: 2; stroke-linecap: square"/>
     <g>
      <use xlink:href="#m8fcbc9a54e" x="791.016" y="53.134063" style="fill: #ff7f0e; stroke: #ff7f0e"/>
     </g>
    </g>
    <g id="text_21">
     <!-- Miner 1 -->
     <g transform="translate(809.016 56.634063) scale(0.1 -0.1)">
      <use xlink:href="#DejaVuSans-4d"/>
      <use xlink:href="#DejaVuSans-69" transform="translate(86.279297 0)"/>
      <use xlink:href="#DejaVuSans-6e" transform="translate(114.0625 0)"/>
      <use xlink:href="#DejaVuSans-65" transform="translate(177.441406 0)"/>
      <use xlink:href="#DejaVuSans-72" transform="translate(238.964844 0)"/>
      <use xlink:href="#DejaVuSans-20" transform="translate(280.078125 0)"/>
      <use xlink:href="#DejaVuSans-31" transform="translate(311.865234 0)"/>
     </g>
    </g>
    <g id="line2d_45">
     <path d="M 781.016 67.812187 
L 791.016 67.812187 
L 801.016 67.812187 
" style="fill: none; stroke: #2ca02c; stroke-width: 2; stroke-linecap: square"/>
     <g>
      <use xlink:href="#mc40ac730da" x="791.016" y="67.812187" style="fill: #2ca02c; stroke: #2ca02c"/>
     </g>
    </g>
    <g id="text_22">
     <!-- Miner 2 -->
     <g transform="translate(809.016 71.312187) scale(0.1 -0.1)">
      <use xlink:href="#DejaVuSans-4d"/>
      <use xlink:href="#DejaVuSans-69" transform="translate(86.279297 0)"/>
      <use xlink:href="#DejaVuSans-6e" transform="translate(114.0625 0)"/>
      <use xlink:href="#DejaVuSans-65" transform="translate(177.441406 0)"/>
      <use xlink:href="#DejaVuSans-72" transform="translate(238.964844 0)"/>
      <use xlink:href="#DejaVuSans-20" transform="translate(280.078125 0)"/>
      <use xlink:href="#DejaVuSans-32" transform="translate(311.865234 0)"/>
     </g>
    </g>
    <g id="line2d_46">
     <path d="M 781.016 82.490313 
L 791.016 82.490313 
L 801.016 82.490313 
" style="fill: none; stroke: #d62728; stroke-width: 2; stroke-linecap: square"/>
     <g>
      <use xlink:href="#m9493d3ad8b" x="791.016" y="82.490313" style="fill: #d62728; stroke: #d62728"/>
     </g>
    </g>
    <g id="text_23">
     <!-- Miner 3 -->
     <g transform="translate(809.016 85.990313) scale(0.1 -0.1)">
      <use xlink:href="#DejaVuSans-4d"/>
      <use xlink:href="#DejaVuSans-69" transform="translate(86.279297 0)"/>
      <use xlink:href="#DejaVuSans-6e" transform="translate(114.0625 0)"/>
      <use xlink:href="#DejaVuSans-65" transform="translate(177.441406 0)"/>
      <use xlink:href="#DejaVuSans-72" transform="translate(238.964844 0)"/>
      <use xlink:href="#DejaVuSans-20" transform="translate(280.078125 0)"/>
      <use xlink:href="#DejaVuSans-33" transform="translate(311.865234 0)"/>
     </g>
    </g>
    <g id="line2d_47">
     <path d="M 781.016 97.168437 
L 791.016 97.168437 
L 801.016 97.168437 
" style="fill: none; stroke: #9467bd; stroke-width: 2; stroke-linecap: square"/>
     <g>
      <use xlink:href="#m38788b4417" x="791.016" y="97.168437" style="fill: #9467bd; stroke: #9467bd"/>
     </g>
    </g>
    <g id="text_24">
     <!-- Miner 4 -->
     <g transform="translate(809.016 100.668437) scale(0.1 -0.1)">
      <defs>
       <path id="DejaVuSans-34" d="M 2419 4116 
L 825 1625 
L 2419 1625 
L 2419 4116 
z
M 2253 4666 
L 3047 4666 
L 3047 1625 
L 3713 1625 
L 3713 1100 
L 3047 1100 
L 3047 0 
L 2419 0 
L 2419 1100 
L 313 1100 
L 313 1709 
L 2253 4666 
z
" transform="scale(0.015625)"/>
      </defs>
      <use xlink:href="#DejaVuSans-4d"/>
      <use xlink:href="#DejaVuSans-69" transform="translate(86.279297 0)"/>
      <use xlink:href="#DejaVuSans-6e" transform="translate(114.0625 0)"/>
      <use xlink:href="#DejaVuSans-65" transform="translate(177.441406 0)"/>
      <use xlink:href="#DejaVuSans-72" transform="translate(238.964844 0)"/>
      <use xlink:href="#DejaVuSans-20" transform="translate(280.078125 0)"/>
      <use xlink:href="#DejaVuSans-34" transform="translate(311.865234 0)"/>
     </g>
    </g>
    <g id="line2d_48">
     <path d="M 781.016 111.846563 
L 791.016 111.846563 
L 801.016 111.846563 
" style="fill: none; stroke: #8c564b; stroke-width: 2; stroke-linecap: square"/>
     <g>
      <use xlink:href="#m90de24794b" x="791.016" y="111.846563" style="fill: #8c564b; stroke: #8c564b"/>
     </g>
    </g>
    <g id="text_25">
     <!-- Miner 5 -->
     <g transform="translate(809.016 115.346563) scale(0.1 -0.1)">
      <use xlink:href="#DejaVuSans-4d"/>
      <use xlink:href="#DejaVuSans-69" transform="translate(86.279297 0)"/>
      <use xlink:href="#DejaVuSans-6e" transform="translate(114.0625 0)"/>
      <use xlink:href="#DejaVuSans-65" transform="translate(177.441406 0)"/>
      <use xlink:href="#DejaVuSans-72" transform="translate(238.964844 0)"/>
      <use xlink:href="#DejaVuSans-20" transform="translate(280.078125 0)"/>
      <use xlink:href="#DejaVuSans-35" transform="translate(311.865234 0)"/>
     </g>
    </g>
    <g id="line2d_49">
     <path d="M 781.016 126.524688 
L 791.016 126.524688 
L 801.016 126.524688 
" style="fill: none; stroke: #e377c2; stroke-width: 2; stroke-linecap: square"/>
     <g>
      <use xlink:href="#mf4e9110c0b" x="791.016" y="126.524688" style="fill: #e377c2; stroke: #e377c2"/>
     </g>
    </g>
    <g id="text_26">
     <!-- Miner 6 -->
     <g transform="translate(809.016 130.024688) scale(0.1 -0.1)">
      <defs>
       <path id="DejaVuSans-36" d="M 2113 2584 
Q 1688 2584 1439 2293 
Q 1191 2003 1191 1497 
Q 1191 994 1439 701 
Q 1688 409 2113 409 
Q 2538 409 2786 701 
Q 3034 994 3034 1497 
Q 3034 2003 2786 2293 
Q 2538 2584 2113 2584 
z
M 3366 4563 
L 3366 3988 
Q 3128 4100 2886 4159 
Q 2644 4219 2406 4219 
Q 1781 4219 1451 3797 
Q 1122 3375 1075 2522 
Q 1259 2794 1537 2939 
Q 1816 3084 2150 3084 
Q 2853 3084 3261 2657 
Q 3669 2231 3669 1497 
Q 3669 778 3244 343 
Q 2819 -91 2113 -91 
Q 1303 -91 875 529 
Q 447 1150 447 2328 
Q 447 3434 972 4092 
Q 1497 4750 2381 4750 
Q 2619 4750 2861 4703 
Q 3103 4656 3366 4563 
z
" transform="scale(0.015625)"/>
      </defs>
      <use xlink:href="#DejaVuSans-4d"/>
      <use xlink:href="#DejaVuSans-69" transform="translate(86.279297 0)"/>
      <use xlink:href="#DejaVuSans-6e" transform="translate(114.0625 0)"/>
      <use xlink:href="#DejaVuSans-65" transform="translate(177.441406 0)"/>
      <use xlink:href="#DejaVuSans-72" transform="translate(238.964844 0)"/>
      <use xlink:href="#DejaVuSans-20" transform="translate(280.078125 0)"/>
      <use xlink:href="#DejaVuSans-36" transform="translate(311.865234 0)"/>
     </g>
    </g>
    <g id="line2d_50">
     <path d="M 781.016 141.202812 
L 791.016 141.202812 
L 801.016 141.202812 
" style="fill: none; stroke: #17becf; stroke-width: 2; stroke-linecap: square"/>
     <g>
      <use xlink:href="#m1d775fbc9b" x="791.016" y="141.202812" style="fill: #17becf; stroke: #17becf"/>
     </g>
    </g>
    <g id="text_27">
     <!-- Miner 7 -->
     <g transform="translate(809.016 144.702812) scale(0.1 -0.1)">
      <defs>
       <path id="DejaVuSans-37" d="M 525 4666 
L 3525 4666 
L 3525 4397 
L 1831 0 
L 1172 0 
L 2766 4134 
L 525 4134 
L 525 4666 
z
" transform="scale(0.015625)"/>
      </defs>
      <use xlink:href="#DejaVuSans-4d"/>
      <use xlink:href="#DejaVuSans-69" transform="translate(86.279297 0)"/>
      <use xlink:href="#DejaVuSans-6e" transform="translate(114.0625 0)"/>
      <use xlink:href="#DejaVuSans-65" transform="translate(177.441406 0)"/>
      <use xlink:href="#DejaVuSans-72" transform="translate(238.964844 0)"/>
      <use xlink:href="#DejaVuSans-20" transform="translate(280.078125 0)"/>
      <use xlink:href="#DejaVuSans-37" transform="translate(311.865234 0)"/>
     </g>
    </g>
    <g id="line2d_51">
     <path d="M 781.016 155.880937 
L 791.016 155.880937 
L 801.016 155.880937 
" style="fill: none; stroke: #bcbd22; stroke-width: 2; stroke-linecap: square"/>
     <g>
      <use xlink:href="#mb06a86f9b6" x="791.016" y="155.880937" style="fill: #bcbd22; stroke: #bcbd22"/>
     </g>
    </g>
    <g id="text_28">
     <!-- Miner 8 -->
     <g transform="translate(809.016 159.380937) scale(0.1 -0.1)">
      <defs>
       <path id="DejaVuSans-38" d="M 2034 2216 
Q 1584 2216 1326 1975 
Q 1069 1734 1069 1313 
Q 1069 891 1326 650 
Q 1584 409 2034 409 
Q 2484 409 2743 651 
Q 3003 894 3003 1313 
Q 3003 1734 2745 1975 
Q 2488 2216 2034 2216 
z
M 1403 2484 
Q 997 2584 770 2862 
Q 544 3141 544 3541 
Q 544 4100 942 4425 
Q 1341 4750 2034 4750 
Q 2731 4750 3128 4425 
Q 3525 4100 3525 3541 
Q 3525 3141 3298 2862 
Q 3072 2584 2669 2484 
Q 3125 2378 3379 2068 
Q 3634 1759 3634 1313 
Q 3634 634 3220 271 
Q 2806 -91 2034 -91 
Q 1263 -91 848 271 
Q 434 634 434 1313 
Q 434 1759 690 2068 
Q 947 2378 1403 2484 
z
M 1172 3481 
Q 1172 3119 1398 2916 
Q 1625 2713 2034 2713 
Q 2441 2713 2670 2916 
Q 2900 3119 2900 3481 
Q 2900 3844 2670 4047 
Q 2441 4250 2034 4250 
Q 1625 4250 1398 4047 
Q 1172 3844 1172 3481 
z
" transform="scale(0.015625)"/>
      </defs>
      <use xlink:href="#DejaVuSans-4d"/>
      <use xlink:href="#DejaVuSans-69" transform="translate(86.279297 0)"/>
      <use xlink:href="#DejaVuSans-6e" transform="translate(114.0625 0)"/>
      <use xlink:href="#DejaVuSans-65" transform="translate(177.441406 0)"/>
      <use xlink:href="#DejaVuSans-72" transform="translate(238.964844 0)"/>
      <use xlink:href="#DejaVuSans-20" transform="translate(280.078125 0)"/>
      <use xlink:href="#DejaVuSans-38" transform="translate(311.865234 0)"/>
     </g>
    </g>
   </g>
  </g>
 </g>
 <defs>
  <clipPath id="p5986cdd843">
   <rect x="47.6525" y="25.3575" width="689.87" height="502.12"/>
  </clipPath>
 </defs>
</svg>
