<?xml version="1.0" encoding="utf-8" standalone="no"?>
<!DOCTYPE svg PUBLIC "-//W3C//DTD SVG 1.1//EN"
  "http://www.w3.org/Graphics/SVG/1.1/DTD/svg11.dtd">
<svg xmlns:xlink="http://www.w3.org/1999/xlink" width="857.842687pt" height="568.2675pt" viewBox="0 0 857.842687 568.2675" xmlns="http://www.w3.org/2000/svg" version="1.1">
 <metadata>
  <rdf:RDF xmlns:dc="http://purl.org/dc/elements/1.1/" xmlns:cc="http://creativecommons.org/ns#" xmlns:rdf="http://www.w3.org/1999/02/22-rdf-syntax-ns#">
   <cc:Work>
    <dc:type rdf:resource="http://purl.org/dc/dcmitype/StillImage"/>
    <dc:date>2025-09-10T15:31:31.438879</dc:date>
    <dc:format>image/svg+xml</dc:format>
    <dc:creator>
     <cc:Agent>
      <dc:title>Matplotlib v3.10.3, https://matplotlib.org/</dc:title>
     </cc:Agent>
    </dc:creator>
   </cc:Work>
  </rdf:RDF>
 </metadata>
 <defs>
  <style type="text/css">*{stroke-linejoin: round; stroke-linecap: butt}</style>
 </defs>
 <g id="figure_1">
  <g id="patch_1">
   <path d="M 0 568.2675 
L 857.842687 568.2675 
L 857.842687 0 
L 0 0 
z
" style="fill: #ffffff"/>
  </g>
  <g id="axes_1">
   <g id="patch_2">
    <path d="M 47.6525 526.84 
L 739.4125 526.84 
L 739.4125 7.2 
L 47.6525 7.2 
z
" style="fill: #ffffff"/>
   </g>
   <g id="matplotlib.axis_1">
    <g id="xtick_1">
     <g id="line2d_1">
      <path d="M 72.743887 526.84 
L 72.743887 7.2 
" clip-path="url(#p4840fbe063)" style="fill: none; stroke: #b0b0b0; stroke-opacity: 0.3; stroke-width: 0.8; stroke-linecap: square"/>
     </g>
     <g id="line2d_2">
      <defs>
       <path id="mfb4061f1db" d="M 0 0 
L 0 3.5 
" style="stroke: #000000; stroke-width: 0.8"/>
      </defs>
      <g>
       <use xlink:href="#mfb4061f1db" x="72.743887" y="526.84" style="stroke: #000000; stroke-width: 0.8"/>
      </g>
     </g>
     <g id="text_1">
      <!-- 0 -->
      <g transform="translate(69.562637 541.438437) scale(0.1 -0.1)">
       <defs>
        <path id="DejaVuSans-30" d="M 2034 4250 
Q 1547 4250 1301 3770 
Q 1056 3291 1056 2328 
Q 1056 1369 1301 889 
Q 1547 409 2034 409 
Q 2525 409 2770 889 
Q 3016 1369 3016 2328 
Q 3016 3291 2770 3770 
Q 2525 4250 2034 4250 
z
M 2034 4750 
Q 2819 4750 3233 4129 
Q 3647 3509 3647 2328 
Q 3647 1150 3233 529 
Q 2819 -91 2034 -91 
Q 1250 -91 836 529 
Q 422 1150 422 2328 
Q 422 3509 836 4129 
Q 1250 4750 2034 4750 
z
" transform="scale(0.015625)"/>
       </defs>
       <use xlink:href="#DejaVuSans-30"/>
      </g>
     </g>
    </g>
    <g id="xtick_2">
     <g id="line2d_3">
      <path d="M 199.788882 526.84 
L 199.788882 7.2 
" clip-path="url(#p4840fbe063)" style="fill: none; stroke: #b0b0b0; stroke-opacity: 0.3; stroke-width: 0.8; stroke-linecap: square"/>
     </g>
     <g id="line2d_4">
      <g>
       <use xlink:href="#mfb4061f1db" x="199.788882" y="526.84" style="stroke: #000000; stroke-width: 0.8"/>
      </g>
     </g>
     <g id="text_2">
      <!-- 2 -->
      <g transform="translate(196.607632 541.438437) scale(0.1 -0.1)">
       <defs>
        <path id="DejaVuSans-32" d="M 1228 531 
L 3431 531 
L 3431 0 
L 469 0 
L 469 531 
Q 828 903 1448 1529 
Q 2069 2156 2228 2338 
Q 2531 2678 2651 2914 
Q 2772 3150 2772 3378 
Q 2772 3750 2511 3984 
Q 2250 4219 1831 4219 
Q 1534 4219 1204 4116 
Q 875 4013 500 3803 
L 500 4441 
Q 881 4594 1212 4672 
Q 1544 4750 1819 4750 
Q 2544 4750 2975 4387 
Q 3406 4025 3406 3419 
Q 3406 3131 3298 2873 
Q 3191 2616 2906 2266 
Q 2828 2175 2409 1742 
Q 1991 1309 1228 531 
z
" transform="scale(0.015625)"/>
       </defs>
       <use xlink:href="#DejaVuSans-32"/>
      </g>
     </g>
    </g>
    <g id="xtick_3">
     <g id="line2d_5">
      <path d="M 326.833877 526.84 
L 326.833877 7.2 
" clip-path="url(#p4840fbe063)" style="fill: none; stroke: #b0b0b0; stroke-opacity: 0.3; stroke-width: 0.8; stroke-linecap: square"/>
     </g>
     <g id="line2d_6">
      <g>
       <use xlink:href="#mfb4061f1db" x="326.833877" y="526.84" style="stroke: #000000; stroke-width: 0.8"/>
      </g>
     </g>
     <g id="text_3">
      <!-- 4 -->
      <g transform="translate(323.652627 541.438437) scale(0.1 -0.1)">
       <defs>
        <path id="DejaVuSans-34" d="M 2419 4116 
L 825 1625 
L 2419 1625 
L 2419 4116 
z
M 2253 4666 
L 3047 4666 
L 3047 1625 
L 3713 1625 
L 3713 1100 
L 3047 1100 
L 3047 0 
L 2419 0 
L 2419 1100 
L 313 1100 
L 313 1709 
L 2253 4666 
z
" transform="scale(0.015625)"/>
       </defs>
       <use xlink:href="#DejaVuSans-34"/>
      </g>
     </g>
    </g>
    <g id="xtick_4">
     <g id="line2d_7">
      <path d="M 453.878873 526.84 
L 453.878873 7.2 
" clip-path="url(#p4840fbe063)" style="fill: none; stroke: #b0b0b0; stroke-opacity: 0.3; stroke-width: 0.8; stroke-linecap: square"/>
     </g>
     <g id="line2d_8">
      <g>
       <use xlink:href="#mfb4061f1db" x="453.878873" y="526.84" style="stroke: #000000; stroke-width: 0.8"/>
      </g>
     </g>
     <g id="text_4">
      <!-- 6 -->
      <g transform="translate(450.697623 541.438437) scale(0.1 -0.1)">
       <defs>
        <path id="DejaVuSans-36" d="M 2113 2584 
Q 1688 2584 1439 2293 
Q 1191 2003 1191 1497 
Q 1191 994 1439 701 
Q 1688 409 2113 409 
Q 2538 409 2786 701 
Q 3034 994 3034 1497 
Q 3034 2003 2786 2293 
Q 2538 2584 2113 2584 
z
M 3366 4563 
L 3366 3988 
Q 3128 4100 2886 4159 
Q 2644 4219 2406 4219 
Q 1781 4219 1451 3797 
Q 1122 3375 1075 2522 
Q 1259 2794 1537 2939 
Q 1816 3084 2150 3084 
Q 2853 3084 3261 2657 
Q 3669 2231 3669 1497 
Q 3669 778 3244 343 
Q 2819 -91 2113 -91 
Q 1303 -91 875 529 
Q 447 1150 447 2328 
Q 447 3434 972 4092 
Q 1497 4750 2381 4750 
Q 2619 4750 2861 4703 
Q 3103 4656 3366 4563 
z
" transform="scale(0.015625)"/>
       </defs>
       <use xlink:href="#DejaVuSans-36"/>
      </g>
     </g>
    </g>
    <g id="xtick_5">
     <g id="line2d_9">
      <path d="M 580.923868 526.84 
L 580.923868 7.2 
" clip-path="url(#p4840fbe063)" style="fill: none; stroke: #b0b0b0; stroke-opacity: 0.3; stroke-width: 0.8; stroke-linecap: square"/>
     </g>
     <g id="line2d_10">
      <g>
       <use xlink:href="#mfb4061f1db" x="580.923868" y="526.84" style="stroke: #000000; stroke-width: 0.8"/>
      </g>
     </g>
     <g id="text_5">
      <!-- 8 -->
      <g transform="translate(577.742618 541.438437) scale(0.1 -0.1)">
       <defs>
        <path id="DejaVuSans-38" d="M 2034 2216 
Q 1584 2216 1326 1975 
Q 1069 1734 1069 1313 
Q 1069 891 1326 650 
Q 1584 409 2034 409 
Q 2484 409 2743 651 
Q 3003 894 3003 1313 
Q 3003 1734 2745 1975 
Q 2488 2216 2034 2216 
z
M 1403 2484 
Q 997 2584 770 2862 
Q 544 3141 544 3541 
Q 544 4100 942 4425 
Q 1341 4750 2034 4750 
Q 2731 4750 3128 4425 
Q 3525 4100 3525 3541 
Q 3525 3141 3298 2862 
Q 3072 2584 2669 2484 
Q 3125 2378 3379 2068 
Q 3634 1759 3634 1313 
Q 3634 634 3220 271 
Q 2806 -91 2034 -91 
Q 1263 -91 848 271 
Q 434 634 434 1313 
Q 434 1759 690 2068 
Q 947 2378 1403 2484 
z
M 1172 3481 
Q 1172 3119 1398 2916 
Q 1625 2713 2034 2713 
Q 2441 2713 2670 2916 
Q 2900 3119 2900 3481 
Q 2900 3844 2670 4047 
Q 2441 4250 2034 4250 
Q 1625 4250 1398 4047 
Q 1172 3844 1172 3481 
z
" transform="scale(0.015625)"/>
       </defs>
       <use xlink:href="#DejaVuSans-38"/>
      </g>
     </g>
    </g>
    <g id="xtick_6">
     <g id="line2d_11">
      <path d="M 707.968864 526.84 
L 707.968864 7.2 
" clip-path="url(#p4840fbe063)" style="fill: none; stroke: #b0b0b0; stroke-opacity: 0.3; stroke-width: 0.8; stroke-linecap: square"/>
     </g>
     <g id="line2d_12">
      <g>
       <use xlink:href="#mfb4061f1db" x="707.968864" y="526.84" style="stroke: #000000; stroke-width: 0.8"/>
      </g>
     </g>
     <g id="text_6">
      <!-- 10 -->
      <g transform="translate(701.606364 541.438437) scale(0.1 -0.1)">
       <defs>
        <path id="DejaVuSans-31" d="M 794 531 
L 1825 531 
L 1825 4091 
L 703 3866 
L 703 4441 
L 1819 4666 
L 2450 4666 
L 2450 531 
L 3481 531 
L 3481 0 
L 794 0 
L 794 531 
z
" transform="scale(0.015625)"/>
       </defs>
       <use xlink:href="#DejaVuSans-31"/>
       <use xlink:href="#DejaVuSans-30" transform="translate(63.623047 0)"/>
      </g>
     </g>
    </g>
    <g id="text_7">
     <!-- Δ/T -->
     <g transform="translate(382.110469 558.155937) scale(0.14 -0.14)">
      <defs>
       <path id="DejaVuSans-394" d="M 2188 4044 
L 906 525 
L 3472 525 
L 2188 4044 
z
M 50 0 
L 1831 4666 
L 2547 4666 
L 4325 0 
L 50 0 
z
" transform="scale(0.015625)"/>
       <path id="DejaVuSans-2f" d="M 1625 4666 
L 2156 4666 
L 531 -594 
L 0 -594 
L 1625 4666 
z
" transform="scale(0.015625)"/>
       <path id="DejaVuSans-54" d="M -19 4666 
L 3928 4666 
L 3928 4134 
L 2272 4134 
L 2272 0 
L 1638 0 
L 1638 4134 
L -19 4134 
L -19 4666 
z
" transform="scale(0.015625)"/>
      </defs>
      <use xlink:href="#DejaVuSans-394"/>
      <use xlink:href="#DejaVuSans-2f" transform="translate(68.408203 0)"/>
      <use xlink:href="#DejaVuSans-54" transform="translate(102.099609 0)"/>
     </g>
    </g>
   </g>
   <g id="matplotlib.axis_2">
    <g id="ytick_1">
     <g id="line2d_13">
      <path d="M 47.6525 503.22 
L 739.4125 503.22 
" clip-path="url(#p4840fbe063)" style="fill: none; stroke: #b0b0b0; stroke-opacity: 0.3; stroke-width: 0.8; stroke-linecap: square"/>
     </g>
     <g id="line2d_14">
      <defs>
       <path id="mf980ddb8e5" d="M 0 0 
L -3.5 0 
" style="stroke: #000000; stroke-width: 0.8"/>
      </defs>
      <g>
       <use xlink:href="#mf980ddb8e5" x="47.6525" y="503.22" style="stroke: #000000; stroke-width: 0.8"/>
      </g>
     </g>
     <g id="text_8">
      <!-- 0.0 -->
      <g transform="translate(24.749375 507.019219) scale(0.1 -0.1)">
       <defs>
        <path id="DejaVuSans-2e" d="M 684 794 
L 1344 794 
L 1344 0 
L 684 0 
L 684 794 
z
" transform="scale(0.015625)"/>
       </defs>
       <use xlink:href="#DejaVuSans-30"/>
       <use xlink:href="#DejaVuSans-2e" transform="translate(63.623047 0)"/>
       <use xlink:href="#DejaVuSans-30" transform="translate(95.410156 0)"/>
      </g>
     </g>
    </g>
    <g id="ytick_2">
     <g id="line2d_15">
      <path d="M 47.6525 406.305508 
L 739.4125 406.305508 
" clip-path="url(#p4840fbe063)" style="fill: none; stroke: #b0b0b0; stroke-opacity: 0.3; stroke-width: 0.8; stroke-linecap: square"/>
     </g>
     <g id="line2d_16">
      <g>
       <use xlink:href="#mf980ddb8e5" x="47.6525" y="406.305508" style="stroke: #000000; stroke-width: 0.8"/>
      </g>
     </g>
     <g id="text_9">
      <!-- 0.2 -->
      <g transform="translate(24.749375 410.104727) scale(0.1 -0.1)">
       <use xlink:href="#DejaVuSans-30"/>
       <use xlink:href="#DejaVuSans-2e" transform="translate(63.623047 0)"/>
       <use xlink:href="#DejaVuSans-32" transform="translate(95.410156 0)"/>
      </g>
     </g>
    </g>
    <g id="ytick_3">
     <g id="line2d_17">
      <path d="M 47.6525 309.391016 
L 739.4125 309.391016 
" clip-path="url(#p4840fbe063)" style="fill: none; stroke: #b0b0b0; stroke-opacity: 0.3; stroke-width: 0.8; stroke-linecap: square"/>
     </g>
     <g id="line2d_18">
      <g>
       <use xlink:href="#mf980ddb8e5" x="47.6525" y="309.391016" style="stroke: #000000; stroke-width: 0.8"/>
      </g>
     </g>
     <g id="text_10">
      <!-- 0.4 -->
      <g transform="translate(24.749375 313.190235) scale(0.1 -0.1)">
       <use xlink:href="#DejaVuSans-30"/>
       <use xlink:href="#DejaVuSans-2e" transform="translate(63.623047 0)"/>
       <use xlink:href="#DejaVuSans-34" transform="translate(95.410156 0)"/>
      </g>
     </g>
    </g>
    <g id="ytick_4">
     <g id="line2d_19">
      <path d="M 47.6525 212.476524 
L 739.4125 212.476524 
" clip-path="url(#p4840fbe063)" style="fill: none; stroke: #b0b0b0; stroke-opacity: 0.3; stroke-width: 0.8; stroke-linecap: square"/>
     </g>
     <g id="line2d_20">
      <g>
       <use xlink:href="#mf980ddb8e5" x="47.6525" y="212.476524" style="stroke: #000000; stroke-width: 0.8"/>
      </g>
     </g>
     <g id="text_11">
      <!-- 0.6 -->
      <g transform="translate(24.749375 216.275743) scale(0.1 -0.1)">
       <use xlink:href="#DejaVuSans-30"/>
       <use xlink:href="#DejaVuSans-2e" transform="translate(63.623047 0)"/>
       <use xlink:href="#DejaVuSans-36" transform="translate(95.410156 0)"/>
      </g>
     </g>
    </g>
    <g id="ytick_5">
     <g id="line2d_21">
      <path d="M 47.6525 115.562032 
L 739.4125 115.562032 
" clip-path="url(#p4840fbe063)" style="fill: none; stroke: #b0b0b0; stroke-opacity: 0.3; stroke-width: 0.8; stroke-linecap: square"/>
     </g>
     <g id="line2d_22">
      <g>
       <use xlink:href="#mf980ddb8e5" x="47.6525" y="115.562032" style="stroke: #000000; stroke-width: 0.8"/>
      </g>
     </g>
     <g id="text_12">
      <!-- 0.8 -->
      <g transform="translate(24.749375 119.361251) scale(0.1 -0.1)">
       <use xlink:href="#DejaVuSans-30"/>
       <use xlink:href="#DejaVuSans-2e" transform="translate(63.623047 0)"/>
       <use xlink:href="#DejaVuSans-38" transform="translate(95.410156 0)"/>
      </g>
     </g>
    </g>
    <g id="ytick_6">
     <g id="line2d_23">
      <path d="M 47.6525 18.64754 
L 739.4125 18.64754 
" clip-path="url(#p4840fbe063)" style="fill: none; stroke: #b0b0b0; stroke-opacity: 0.3; stroke-width: 0.8; stroke-linecap: square"/>
     </g>
     <g id="line2d_24">
      <g>
       <use xlink:href="#mf980ddb8e5" x="47.6525" y="18.64754" style="stroke: #000000; stroke-width: 0.8"/>
      </g>
     </g>
     <g id="text_13">
      <!-- 1.0 -->
      <g transform="translate(24.749375 22.446759) scale(0.1 -0.1)">
       <use xlink:href="#DejaVuSans-31"/>
       <use xlink:href="#DejaVuSans-2e" transform="translate(63.623047 0)"/>
       <use xlink:href="#DejaVuSans-30" transform="translate(95.410156 0)"/>
      </g>
     </g>
    </g>
    <g id="text_14">
     <!-- rᵢ (mining share) -->
     <g transform="translate(17.837813 324.484531) rotate(-90) scale(0.14 -0.14)">
      <defs>
       <path id="DejaVuSans-72" d="M 2631 2963 
Q 2534 3019 2420 3045 
Q 2306 3072 2169 3072 
Q 1681 3072 1420 2755 
Q 1159 2438 1159 1844 
L 1159 0 
L 581 0 
L 581 3500 
L 1159 3500 
L 1159 2956 
Q 1341 3275 1631 3429 
Q 1922 3584 2338 3584 
Q 2397 3584 2469 3576 
Q 2541 3569 2628 3553 
L 2631 2963 
z
" transform="scale(0.015625)"/>
       <path id="DejaVuSans-1d62" d="M 381 1935 
L 744 1935 
L 744 -24 
L 381 -24 
L 381 1935 
z
M 381 2697 
L 744 2697 
L 744 2291 
L 381 2291 
L 381 2697 
z
" transform="scale(0.015625)"/>
       <path id="DejaVuSans-20" transform="scale(0.015625)"/>
       <path id="DejaVuSans-28" d="M 1984 4856 
Q 1566 4138 1362 3434 
Q 1159 2731 1159 2009 
Q 1159 1288 1364 580 
Q 1569 -128 1984 -844 
L 1484 -844 
Q 1016 -109 783 600 
Q 550 1309 550 2009 
Q 550 2706 781 3412 
Q 1013 4119 1484 4856 
L 1984 4856 
z
" transform="scale(0.015625)"/>
       <path id="DejaVuSans-6d" d="M 3328 2828 
Q 3544 3216 3844 3400 
Q 4144 3584 4550 3584 
Q 5097 3584 5394 3201 
Q 5691 2819 5691 2113 
L 5691 0 
L 5113 0 
L 5113 2094 
Q 5113 2597 4934 2840 
Q 4756 3084 4391 3084 
Q 3944 3084 3684 2787 
Q 3425 2491 3425 1978 
L 3425 0 
L 2847 0 
L 2847 2094 
Q 2847 2600 2669 2842 
Q 2491 3084 2119 3084 
Q 1678 3084 1418 2786 
Q 1159 2488 1159 1978 
L 1159 0 
L 581 0 
L 581 3500 
L 1159 3500 
L 1159 2956 
Q 1356 3278 1631 3431 
Q 1906 3584 2284 3584 
Q 2666 3584 2933 3390 
Q 3200 3197 3328 2828 
z
" transform="scale(0.015625)"/>
       <path id="DejaVuSans-69" d="M 603 3500 
L 1178 3500 
L 1178 0 
L 603 0 
L 603 3500 
z
M 603 4863 
L 1178 4863 
L 1178 4134 
L 603 4134 
L 603 4863 
z
" transform="scale(0.015625)"/>
       <path id="DejaVuSans-6e" d="M 3513 2113 
L 3513 0 
L 2938 0 
L 2938 2094 
Q 2938 2591 2744 2837 
Q 2550 3084 2163 3084 
Q 1697 3084 1428 2787 
Q 1159 2491 1159 1978 
L 1159 0 
L 581 0 
L 581 3500 
L 1159 3500 
L 1159 2956 
Q 1366 3272 1645 3428 
Q 1925 3584 2291 3584 
Q 2894 3584 3203 3211 
Q 3513 2838 3513 2113 
z
" transform="scale(0.015625)"/>
       <path id="DejaVuSans-67" d="M 2906 1791 
Q 2906 2416 2648 2759 
Q 2391 3103 1925 3103 
Q 1463 3103 1205 2759 
Q 947 2416 947 1791 
Q 947 1169 1205 825 
Q 1463 481 1925 481 
Q 2391 481 2648 825 
Q 2906 1169 2906 1791 
z
M 3481 434 
Q 3481 -459 3084 -895 
Q 2688 -1331 1869 -1331 
Q 1566 -1331 1297 -1286 
Q 1028 -1241 775 -1147 
L 775 -588 
Q 1028 -725 1275 -790 
Q 1522 -856 1778 -856 
Q 2344 -856 2625 -561 
Q 2906 -266 2906 331 
L 2906 616 
Q 2728 306 2450 153 
Q 2172 0 1784 0 
Q 1141 0 747 490 
Q 353 981 353 1791 
Q 353 2603 747 3093 
Q 1141 3584 1784 3584 
Q 2172 3584 2450 3431 
Q 2728 3278 2906 2969 
L 2906 3500 
L 3481 3500 
L 3481 434 
z
" transform="scale(0.015625)"/>
       <path id="DejaVuSans-73" d="M 2834 3397 
L 2834 2853 
Q 2591 2978 2328 3040 
Q 2066 3103 1784 3103 
Q 1356 3103 1142 2972 
Q 928 2841 928 2578 
Q 928 2378 1081 2264 
Q 1234 2150 1697 2047 
L 1894 2003 
Q 2506 1872 2764 1633 
Q 3022 1394 3022 966 
Q 3022 478 2636 193 
Q 2250 -91 1575 -91 
Q 1294 -91 989 -36 
Q 684 19 347 128 
L 347 722 
Q 666 556 975 473 
Q 1284 391 1588 391 
Q 1994 391 2212 530 
Q 2431 669 2431 922 
Q 2431 1156 2273 1281 
Q 2116 1406 1581 1522 
L 1381 1569 
Q 847 1681 609 1914 
Q 372 2147 372 2553 
Q 372 3047 722 3315 
Q 1072 3584 1716 3584 
Q 2034 3584 2315 3537 
Q 2597 3491 2834 3397 
z
" transform="scale(0.015625)"/>
       <path id="DejaVuSans-68" d="M 3513 2113 
L 3513 0 
L 2938 0 
L 2938 2094 
Q 2938 2591 2744 2837 
Q 2550 3084 2163 3084 
Q 1697 3084 1428 2787 
Q 1159 2491 1159 1978 
L 1159 0 
L 581 0 
L 581 4863 
L 1159 4863 
L 1159 2956 
Q 1366 3272 1645 3428 
Q 1925 3584 2291 3584 
Q 2894 3584 3203 3211 
Q 3513 2838 3513 2113 
z
" transform="scale(0.015625)"/>
       <path id="DejaVuSans-61" d="M 2194 1759 
Q 1497 1759 1228 1600 
Q 959 1441 959 1056 
Q 959 750 1161 570 
Q 1363 391 1709 391 
Q 2188 391 2477 730 
Q 2766 1069 2766 1631 
L 2766 1759 
L 2194 1759 
z
M 3341 1997 
L 3341 0 
L 2766 0 
L 2766 531 
Q 2569 213 2275 61 
Q 1981 -91 1556 -91 
Q 1019 -91 701 211 
Q 384 513 384 1019 
Q 384 1609 779 1909 
Q 1175 2209 1959 2209 
L 2766 2209 
L 2766 2266 
Q 2766 2663 2505 2880 
Q 2244 3097 1772 3097 
Q 1472 3097 1187 3025 
Q 903 2953 641 2809 
L 641 3341 
Q 956 3463 1253 3523 
Q 1550 3584 1831 3584 
Q 2591 3584 2966 3190 
Q 3341 2797 3341 1997 
z
" transform="scale(0.015625)"/>
       <path id="DejaVuSans-65" d="M 3597 1894 
L 3597 1613 
L 953 1613 
Q 991 1019 1311 708 
Q 1631 397 2203 397 
Q 2534 397 2845 478 
Q 3156 559 3463 722 
L 3463 178 
Q 3153 47 2828 -22 
Q 2503 -91 2169 -91 
Q 1331 -91 842 396 
Q 353 884 353 1716 
Q 353 2575 817 3079 
Q 1281 3584 2069 3584 
Q 2775 3584 3186 3129 
Q 3597 2675 3597 1894 
z
M 3022 2063 
Q 3016 2534 2758 2815 
Q 2500 3097 2075 3097 
Q 1594 3097 1305 2825 
Q 1016 2553 972 2059 
L 3022 2063 
z
" transform="scale(0.015625)"/>
       <path id="DejaVuSans-29" d="M 513 4856 
L 1013 4856 
Q 1481 4119 1714 3412 
Q 1947 2706 1947 2009 
Q 1947 1309 1714 600 
Q 1481 -109 1013 -844 
L 513 -844 
Q 928 -128 1133 580 
Q 1338 1288 1338 2009 
Q 1338 2731 1133 3434 
Q 928 4138 513 4856 
z
" transform="scale(0.015625)"/>
      </defs>
      <use xlink:href="#DejaVuSans-72"/>
      <use xlink:href="#DejaVuSans-1d62" transform="translate(41.113281 0)"/>
      <use xlink:href="#DejaVuSans-20" transform="translate(58.984375 0)"/>
      <use xlink:href="#DejaVuSans-28" transform="translate(90.771484 0)"/>
      <use xlink:href="#DejaVuSans-6d" transform="translate(129.785156 0)"/>
      <use xlink:href="#DejaVuSans-69" transform="translate(227.197266 0)"/>
      <use xlink:href="#DejaVuSans-6e" transform="translate(254.980469 0)"/>
      <use xlink:href="#DejaVuSans-69" transform="translate(318.359375 0)"/>
      <use xlink:href="#DejaVuSans-6e" transform="translate(346.142578 0)"/>
      <use xlink:href="#DejaVuSans-67" transform="translate(409.521484 0)"/>
      <use xlink:href="#DejaVuSans-20" transform="translate(472.998047 0)"/>
      <use xlink:href="#DejaVuSans-73" transform="translate(504.785156 0)"/>
      <use xlink:href="#DejaVuSans-68" transform="translate(556.884766 0)"/>
      <use xlink:href="#DejaVuSans-61" transform="translate(620.263672 0)"/>
      <use xlink:href="#DejaVuSans-72" transform="translate(681.542969 0)"/>
      <use xlink:href="#DejaVuSans-65" transform="translate(720.40625 0)"/>
      <use xlink:href="#DejaVuSans-29" transform="translate(781.929688 0)"/>
     </g>
    </g>
   </g>
   <g id="line2d_25">
    <path d="M 79.096136 421.855438 
L 79.801871 421.96689 
L 80.684199 420.716693 
L 81.818499 420.014063 
L 83.33097 419.96076 
L 85.448386 418.570037 
L 88.624511 416.462147 
L 93.918052 413.763078 
L 104.505135 401.527624 
L 136.266384 324.286773 
L 168.027633 257.381854 
L 199.788882 220.908085 
L 231.550131 189.565938 
L 263.31138 167.605114 
L 295.072629 147.020476 
L 326.833877 131.770981 
L 358.595126 118.343478 
L 390.356375 102.842005 
L 422.117624 91.03782 
L 453.878873 75.138997 
L 485.640122 64.987204 
L 517.401371 59.225638 
L 549.162619 50.639014 
L 580.923868 46.704285 
L 612.685117 48.007785 
L 644.446366 41.490286 
L 676.207615 36.600949 
L 707.968864 30.82 
" clip-path="url(#p4840fbe063)" style="fill: none; stroke: #1f77b4; stroke-width: 2; stroke-linecap: square"/>
    <defs>
     <path id="mac3945a745" d="M 0 3 
C 0.795609 3 1.55874 2.683901 2.12132 2.12132 
C 2.683901 1.55874 3 0.795609 3 0 
C 3 -0.795609 2.683901 -1.55874 2.12132 -2.12132 
C 1.55874 -2.683901 0.795609 -3 0 -3 
C -0.795609 -3 -1.55874 -2.683901 -2.12132 -2.12132 
C -2.683901 -1.55874 -3 -0.795609 -3 0 
C -3 0.795609 -2.683901 1.55874 -2.12132 2.12132 
C -1.55874 2.683901 -0.795609 3 0 3 
z
" style="stroke: #1f77b4"/>
    </defs>
    <g clip-path="url(#p4840fbe063)">
     <use xlink:href="#mac3945a745" x="79.096136" y="421.855438" style="fill: #1f77b4; stroke: #1f77b4"/>
     <use xlink:href="#mac3945a745" x="79.801871" y="421.96689" style="fill: #1f77b4; stroke: #1f77b4"/>
     <use xlink:href="#mac3945a745" x="80.684199" y="420.716693" style="fill: #1f77b4; stroke: #1f77b4"/>
     <use xlink:href="#mac3945a745" x="81.818499" y="420.014063" style="fill: #1f77b4; stroke: #1f77b4"/>
     <use xlink:href="#mac3945a745" x="83.33097" y="419.96076" style="fill: #1f77b4; stroke: #1f77b4"/>
     <use xlink:href="#mac3945a745" x="85.448386" y="418.570037" style="fill: #1f77b4; stroke: #1f77b4"/>
     <use xlink:href="#mac3945a745" x="88.624511" y="416.462147" style="fill: #1f77b4; stroke: #1f77b4"/>
     <use xlink:href="#mac3945a745" x="93.918052" y="413.763078" style="fill: #1f77b4; stroke: #1f77b4"/>
     <use xlink:href="#mac3945a745" x="104.505135" y="401.527624" style="fill: #1f77b4; stroke: #1f77b4"/>
     <use xlink:href="#mac3945a745" x="136.266384" y="324.286773" style="fill: #1f77b4; stroke: #1f77b4"/>
     <use xlink:href="#mac3945a745" x="168.027633" y="257.381854" style="fill: #1f77b4; stroke: #1f77b4"/>
     <use xlink:href="#mac3945a745" x="199.788882" y="220.908085" style="fill: #1f77b4; stroke: #1f77b4"/>
     <use xlink:href="#mac3945a745" x="231.550131" y="189.565938" style="fill: #1f77b4; stroke: #1f77b4"/>
     <use xlink:href="#mac3945a745" x="263.31138" y="167.605114" style="fill: #1f77b4; stroke: #1f77b4"/>
     <use xlink:href="#mac3945a745" x="295.072629" y="147.020476" style="fill: #1f77b4; stroke: #1f77b4"/>
     <use xlink:href="#mac3945a745" x="326.833877" y="131.770981" style="fill: #1f77b4; stroke: #1f77b4"/>
     <use xlink:href="#mac3945a745" x="358.595126" y="118.343478" style="fill: #1f77b4; stroke: #1f77b4"/>
     <use xlink:href="#mac3945a745" x="390.356375" y="102.842005" style="fill: #1f77b4; stroke: #1f77b4"/>
     <use xlink:href="#mac3945a745" x="422.117624" y="91.03782" style="fill: #1f77b4; stroke: #1f77b4"/>
     <use xlink:href="#mac3945a745" x="453.878873" y="75.138997" style="fill: #1f77b4; stroke: #1f77b4"/>
     <use xlink:href="#mac3945a745" x="485.640122" y="64.987204" style="fill: #1f77b4; stroke: #1f77b4"/>
     <use xlink:href="#mac3945a745" x="517.401371" y="59.225638" style="fill: #1f77b4; stroke: #1f77b4"/>
     <use xlink:href="#mac3945a745" x="549.162619" y="50.639014" style="fill: #1f77b4; stroke: #1f77b4"/>
     <use xlink:href="#mac3945a745" x="580.923868" y="46.704285" style="fill: #1f77b4; stroke: #1f77b4"/>
     <use xlink:href="#mac3945a745" x="612.685117" y="48.007785" style="fill: #1f77b4; stroke: #1f77b4"/>
     <use xlink:href="#mac3945a745" x="644.446366" y="41.490286" style="fill: #1f77b4; stroke: #1f77b4"/>
     <use xlink:href="#mac3945a745" x="676.207615" y="36.600949" style="fill: #1f77b4; stroke: #1f77b4"/>
     <use xlink:href="#mac3945a745" x="707.968864" y="30.82" style="fill: #1f77b4; stroke: #1f77b4"/>
    </g>
   </g>
   <g id="line2d_26">
    <path d="M 79.096136 441.320714 
L 79.801871 440.991205 
L 80.684199 440.933056 
L 81.818499 439.750699 
L 83.33097 439.934837 
L 85.448386 439.324275 
L 88.624511 439.174058 
L 93.918052 438.292136 
L 104.505135 433.015142 
L 136.266384 402.264174 
L 168.027633 386.195751 
L 199.788882 390.106251 
L 231.550131 403.751811 
L 263.31138 410.589129 
L 295.072629 424.738644 
L 326.833877 428.014354 
L 358.595126 438.490811 
L 390.356375 443.801725 
L 422.117624 454.525313 
L 453.878873 465.224673 
L 485.640122 468.088497 
L 517.401371 472.502952 
L 549.162619 479.844225 
L 580.923868 481.627451 
L 612.685117 479.199743 
L 644.446366 485.668785 
L 676.207615 490.422441 
L 707.968864 493.741763 
" clip-path="url(#p4840fbe063)" style="fill: none; stroke: #ff7f0e; stroke-width: 2; stroke-linecap: square"/>
    <defs>
     <path id="me6310a2423" d="M 0 3 
C 0.795609 3 1.55874 2.683901 2.12132 2.12132 
C 2.683901 1.55874 3 0.795609 3 0 
C 3 -0.795609 2.683901 -1.55874 2.12132 -2.12132 
C 1.55874 -2.683901 0.795609 -3 0 -3 
C -0.795609 -3 -1.55874 -2.683901 -2.12132 -2.12132 
C -2.683901 -1.55874 -3 -0.795609 -3 0 
C -3 0.795609 -2.683901 1.55874 -2.12132 2.12132 
C -1.55874 2.683901 -0.795609 3 0 3 
z
" style="stroke: #ff7f0e"/>
    </defs>
    <g clip-path="url(#p4840fbe063)">
     <use xlink:href="#me6310a2423" x="79.096136" y="441.320714" style="fill: #ff7f0e; stroke: #ff7f0e"/>
     <use xlink:href="#me6310a2423" x="79.801871" y="440.991205" style="fill: #ff7f0e; stroke: #ff7f0e"/>
     <use xlink:href="#me6310a2423" x="80.684199" y="440.933056" style="fill: #ff7f0e; stroke: #ff7f0e"/>
     <use xlink:href="#me6310a2423" x="81.818499" y="439.750699" style="fill: #ff7f0e; stroke: #ff7f0e"/>
     <use xlink:href="#me6310a2423" x="83.33097" y="439.934837" style="fill: #ff7f0e; stroke: #ff7f0e"/>
     <use xlink:href="#me6310a2423" x="85.448386" y="439.324275" style="fill: #ff7f0e; stroke: #ff7f0e"/>
     <use xlink:href="#me6310a2423" x="88.624511" y="439.174058" style="fill: #ff7f0e; stroke: #ff7f0e"/>
     <use xlink:href="#me6310a2423" x="93.918052" y="438.292136" style="fill: #ff7f0e; stroke: #ff7f0e"/>
     <use xlink:href="#me6310a2423" x="104.505135" y="433.015142" style="fill: #ff7f0e; stroke: #ff7f0e"/>
     <use xlink:href="#me6310a2423" x="136.266384" y="402.264174" style="fill: #ff7f0e; stroke: #ff7f0e"/>
     <use xlink:href="#me6310a2423" x="168.027633" y="386.195751" style="fill: #ff7f0e; stroke: #ff7f0e"/>
     <use xlink:href="#me6310a2423" x="199.788882" y="390.106251" style="fill: #ff7f0e; stroke: #ff7f0e"/>
     <use xlink:href="#me6310a2423" x="231.550131" y="403.751811" style="fill: #ff7f0e; stroke: #ff7f0e"/>
     <use xlink:href="#me6310a2423" x="263.31138" y="410.589129" style="fill: #ff7f0e; stroke: #ff7f0e"/>
     <use xlink:href="#me6310a2423" x="295.072629" y="424.738644" style="fill: #ff7f0e; stroke: #ff7f0e"/>
     <use xlink:href="#me6310a2423" x="326.833877" y="428.014354" style="fill: #ff7f0e; stroke: #ff7f0e"/>
     <use xlink:href="#me6310a2423" x="358.595126" y="438.490811" style="fill: #ff7f0e; stroke: #ff7f0e"/>
     <use xlink:href="#me6310a2423" x="390.356375" y="443.801725" style="fill: #ff7f0e; stroke: #ff7f0e"/>
     <use xlink:href="#me6310a2423" x="422.117624" y="454.525313" style="fill: #ff7f0e; stroke: #ff7f0e"/>
     <use xlink:href="#me6310a2423" x="453.878873" y="465.224673" style="fill: #ff7f0e; stroke: #ff7f0e"/>
     <use xlink:href="#me6310a2423" x="485.640122" y="468.088497" style="fill: #ff7f0e; stroke: #ff7f0e"/>
     <use xlink:href="#me6310a2423" x="517.401371" y="472.502952" style="fill: #ff7f0e; stroke: #ff7f0e"/>
     <use xlink:href="#me6310a2423" x="549.162619" y="479.844225" style="fill: #ff7f0e; stroke: #ff7f0e"/>
     <use xlink:href="#me6310a2423" x="580.923868" y="481.627451" style="fill: #ff7f0e; stroke: #ff7f0e"/>
     <use xlink:href="#me6310a2423" x="612.685117" y="479.199743" style="fill: #ff7f0e; stroke: #ff7f0e"/>
     <use xlink:href="#me6310a2423" x="644.446366" y="485.668785" style="fill: #ff7f0e; stroke: #ff7f0e"/>
     <use xlink:href="#me6310a2423" x="676.207615" y="490.422441" style="fill: #ff7f0e; stroke: #ff7f0e"/>
     <use xlink:href="#me6310a2423" x="707.968864" y="493.741763" style="fill: #ff7f0e; stroke: #ff7f0e"/>
    </g>
   </g>
   <g id="line2d_27">
    <path d="M 79.096136 447.75099 
L 79.801871 447.784911 
L 80.684199 447.51355 
L 81.818499 447.319721 
L 83.33097 447.285801 
L 85.448386 447.019286 
L 88.624511 446.665548 
L 93.918052 444.862939 
L 104.505135 440.0899 
L 136.266384 419.970451 
L 168.027633 414.034439 
L 199.788882 423.725888 
L 231.550131 434.934049 
L 263.31138 448.0805 
L 295.072629 453.846912 
L 326.833877 465.452422 
L 358.595126 468.41316 
L 390.356375 478.564953 
L 422.117624 479.631013 
L 453.878873 484.752944 
L 485.640122 492.045759 
L 517.401371 493.329876 
L 549.162619 494.604302 
L 580.923868 496.780032 
L 612.685117 497.797634 
L 644.446366 497.928469 
L 676.207615 498.07384 
L 707.968864 500.235034 
" clip-path="url(#p4840fbe063)" style="fill: none; stroke: #2ca02c; stroke-width: 2; stroke-linecap: square"/>
    <defs>
     <path id="m8e8f294847" d="M 0 3 
C 0.795609 3 1.55874 2.683901 2.12132 2.12132 
C 2.683901 1.55874 3 0.795609 3 0 
C 3 -0.795609 2.683901 -1.55874 2.12132 -2.12132 
C 1.55874 -2.683901 0.795609 -3 0 -3 
C -0.795609 -3 -1.55874 -2.683901 -2.12132 -2.12132 
C -2.683901 -1.55874 -3 -0.795609 -3 0 
C -3 0.795609 -2.683901 1.55874 -2.12132 2.12132 
C -1.55874 2.683901 -0.795609 3 0 3 
z
" style="stroke: #2ca02c"/>
    </defs>
    <g clip-path="url(#p4840fbe063)">
     <use xlink:href="#m8e8f294847" x="79.096136" y="447.75099" style="fill: #2ca02c; stroke: #2ca02c"/>
     <use xlink:href="#m8e8f294847" x="79.801871" y="447.784911" style="fill: #2ca02c; stroke: #2ca02c"/>
     <use xlink:href="#m8e8f294847" x="80.684199" y="447.51355" style="fill: #2ca02c; stroke: #2ca02c"/>
     <use xlink:href="#m8e8f294847" x="81.818499" y="447.319721" style="fill: #2ca02c; stroke: #2ca02c"/>
     <use xlink:href="#m8e8f294847" x="83.33097" y="447.285801" style="fill: #2ca02c; stroke: #2ca02c"/>
     <use xlink:href="#m8e8f294847" x="85.448386" y="447.019286" style="fill: #2ca02c; stroke: #2ca02c"/>
     <use xlink:href="#m8e8f294847" x="88.624511" y="446.665548" style="fill: #2ca02c; stroke: #2ca02c"/>
     <use xlink:href="#m8e8f294847" x="93.918052" y="444.862939" style="fill: #2ca02c; stroke: #2ca02c"/>
     <use xlink:href="#m8e8f294847" x="104.505135" y="440.0899" style="fill: #2ca02c; stroke: #2ca02c"/>
     <use xlink:href="#m8e8f294847" x="136.266384" y="419.970451" style="fill: #2ca02c; stroke: #2ca02c"/>
     <use xlink:href="#m8e8f294847" x="168.027633" y="414.034439" style="fill: #2ca02c; stroke: #2ca02c"/>
     <use xlink:href="#m8e8f294847" x="199.788882" y="423.725888" style="fill: #2ca02c; stroke: #2ca02c"/>
     <use xlink:href="#m8e8f294847" x="231.550131" y="434.934049" style="fill: #2ca02c; stroke: #2ca02c"/>
     <use xlink:href="#m8e8f294847" x="263.31138" y="448.0805" style="fill: #2ca02c; stroke: #2ca02c"/>
     <use xlink:href="#m8e8f294847" x="295.072629" y="453.846912" style="fill: #2ca02c; stroke: #2ca02c"/>
     <use xlink:href="#m8e8f294847" x="326.833877" y="465.452422" style="fill: #2ca02c; stroke: #2ca02c"/>
     <use xlink:href="#m8e8f294847" x="358.595126" y="468.41316" style="fill: #2ca02c; stroke: #2ca02c"/>
     <use xlink:href="#m8e8f294847" x="390.356375" y="478.564953" style="fill: #2ca02c; stroke: #2ca02c"/>
     <use xlink:href="#m8e8f294847" x="422.117624" y="479.631013" style="fill: #2ca02c; stroke: #2ca02c"/>
     <use xlink:href="#m8e8f294847" x="453.878873" y="484.752944" style="fill: #2ca02c; stroke: #2ca02c"/>
     <use xlink:href="#m8e8f294847" x="485.640122" y="492.045759" style="fill: #2ca02c; stroke: #2ca02c"/>
     <use xlink:href="#m8e8f294847" x="517.401371" y="493.329876" style="fill: #2ca02c; stroke: #2ca02c"/>
     <use xlink:href="#m8e8f294847" x="549.162619" y="494.604302" style="fill: #2ca02c; stroke: #2ca02c"/>
     <use xlink:href="#m8e8f294847" x="580.923868" y="496.780032" style="fill: #2ca02c; stroke: #2ca02c"/>
     <use xlink:href="#m8e8f294847" x="612.685117" y="497.797634" style="fill: #2ca02c; stroke: #2ca02c"/>
     <use xlink:href="#m8e8f294847" x="644.446366" y="497.928469" style="fill: #2ca02c; stroke: #2ca02c"/>
     <use xlink:href="#m8e8f294847" x="676.207615" y="498.07384" style="fill: #2ca02c; stroke: #2ca02c"/>
     <use xlink:href="#m8e8f294847" x="707.968864" y="500.235034" style="fill: #2ca02c; stroke: #2ca02c"/>
    </g>
   </g>
   <g id="line2d_28">
    <path d="M 79.096136 492.903452 
L 79.801871 492.603017 
L 80.684199 492.171748 
L 81.818499 492.767772 
L 83.33097 492.729006 
L 85.448386 492.641783 
L 88.624511 492.399497 
L 93.918052 492.772618 
L 104.505135 493.417099 
L 136.266384 496.876946 
L 168.027633 500.40948 
L 199.788882 501.805048 
L 231.550131 502.633667 
L 263.31138 502.968022 
L 295.072629 503.137623 
L 326.833877 503.171543 
L 358.595126 503.176388 
L 390.356375 503.190926 
L 422.117624 503.166697 
L 453.878873 503.215154 
L 485.640122 503.200617 
L 517.401371 503.22 
L 549.162619 503.22 
L 580.923868 503.210309 
L 612.685117 503.22 
L 644.446366 503.22 
L 676.207615 503.22 
L 707.968864 503.22 
" clip-path="url(#p4840fbe063)" style="fill: none; stroke: #d62728; stroke-width: 2; stroke-linecap: square"/>
    <defs>
     <path id="meb652891a0" d="M 0 3 
C 0.795609 3 1.55874 2.683901 2.12132 2.12132 
C 2.683901 1.55874 3 0.795609 3 0 
C 3 -0.795609 2.683901 -1.55874 2.12132 -2.12132 
C 1.55874 -2.683901 0.795609 -3 0 -3 
C -0.795609 -3 -1.55874 -2.683901 -2.12132 -2.12132 
C -2.683901 -1.55874 -3 -0.795609 -3 0 
C -3 0.795609 -2.683901 1.55874 -2.12132 2.12132 
C -1.55874 2.683901 -0.795609 3 0 3 
z
" style="stroke: #d62728"/>
    </defs>
    <g clip-path="url(#p4840fbe063)">
     <use xlink:href="#meb652891a0" x="79.096136" y="492.903452" style="fill: #d62728; stroke: #d62728"/>
     <use xlink:href="#meb652891a0" x="79.801871" y="492.603017" style="fill: #d62728; stroke: #d62728"/>
     <use xlink:href="#meb652891a0" x="80.684199" y="492.171748" style="fill: #d62728; stroke: #d62728"/>
     <use xlink:href="#meb652891a0" x="81.818499" y="492.767772" style="fill: #d62728; stroke: #d62728"/>
     <use xlink:href="#meb652891a0" x="83.33097" y="492.729006" style="fill: #d62728; stroke: #d62728"/>
     <use xlink:href="#meb652891a0" x="85.448386" y="492.641783" style="fill: #d62728; stroke: #d62728"/>
     <use xlink:href="#meb652891a0" x="88.624511" y="492.399497" style="fill: #d62728; stroke: #d62728"/>
     <use xlink:href="#meb652891a0" x="93.918052" y="492.772618" style="fill: #d62728; stroke: #d62728"/>
     <use xlink:href="#meb652891a0" x="104.505135" y="493.417099" style="fill: #d62728; stroke: #d62728"/>
     <use xlink:href="#meb652891a0" x="136.266384" y="496.876946" style="fill: #d62728; stroke: #d62728"/>
     <use xlink:href="#meb652891a0" x="168.027633" y="500.40948" style="fill: #d62728; stroke: #d62728"/>
     <use xlink:href="#meb652891a0" x="199.788882" y="501.805048" style="fill: #d62728; stroke: #d62728"/>
     <use xlink:href="#meb652891a0" x="231.550131" y="502.633667" style="fill: #d62728; stroke: #d62728"/>
     <use xlink:href="#meb652891a0" x="263.31138" y="502.968022" style="fill: #d62728; stroke: #d62728"/>
     <use xlink:href="#meb652891a0" x="295.072629" y="503.137623" style="fill: #d62728; stroke: #d62728"/>
     <use xlink:href="#meb652891a0" x="326.833877" y="503.171543" style="fill: #d62728; stroke: #d62728"/>
     <use xlink:href="#meb652891a0" x="358.595126" y="503.176388" style="fill: #d62728; stroke: #d62728"/>
     <use xlink:href="#meb652891a0" x="390.356375" y="503.190926" style="fill: #d62728; stroke: #d62728"/>
     <use xlink:href="#meb652891a0" x="422.117624" y="503.166697" style="fill: #d62728; stroke: #d62728"/>
     <use xlink:href="#meb652891a0" x="453.878873" y="503.215154" style="fill: #d62728; stroke: #d62728"/>
     <use xlink:href="#meb652891a0" x="485.640122" y="503.200617" style="fill: #d62728; stroke: #d62728"/>
     <use xlink:href="#meb652891a0" x="517.401371" y="503.22" style="fill: #d62728; stroke: #d62728"/>
     <use xlink:href="#meb652891a0" x="549.162619" y="503.22" style="fill: #d62728; stroke: #d62728"/>
     <use xlink:href="#meb652891a0" x="580.923868" y="503.210309" style="fill: #d62728; stroke: #d62728"/>
     <use xlink:href="#meb652891a0" x="612.685117" y="503.22" style="fill: #d62728; stroke: #d62728"/>
     <use xlink:href="#meb652891a0" x="644.446366" y="503.22" style="fill: #d62728; stroke: #d62728"/>
     <use xlink:href="#meb652891a0" x="676.207615" y="503.22" style="fill: #d62728; stroke: #d62728"/>
     <use xlink:href="#meb652891a0" x="707.968864" y="503.22" style="fill: #d62728; stroke: #d62728"/>
    </g>
   </g>
   <g id="line2d_29">
    <path d="M 79.096136 497.172536 
L 79.801871 497.017473 
L 80.684199 497.027164 
L 81.818499 496.935095 
L 83.33097 497.148307 
L 85.448386 497.259759 
L 88.624511 497.419668 
L 93.918052 497.13377 
L 104.505135 497.598959 
L 136.266384 500.021822 
L 168.027633 502.003723 
L 199.788882 502.779039 
L 231.550131 503.079474 
L 263.31138 503.157006 
L 295.072629 503.171543 
L 326.833877 503.22 
L 358.595126 503.22 
L 390.356375 503.215154 
L 422.117624 503.22 
L 453.878873 503.22 
L 485.640122 503.210309 
L 517.401371 503.22 
L 549.162619 503.22 
L 580.923868 503.22 
L 612.685117 503.22 
L 644.446366 503.22 
L 676.207615 503.22 
L 707.968864 503.22 
" clip-path="url(#p4840fbe063)" style="fill: none; stroke: #9467bd; stroke-width: 2; stroke-linecap: square"/>
    <defs>
     <path id="m18e14e5c1e" d="M 0 3 
C 0.795609 3 1.55874 2.683901 2.12132 2.12132 
C 2.683901 1.55874 3 0.795609 3 0 
C 3 -0.795609 2.683901 -1.55874 2.12132 -2.12132 
C 1.55874 -2.683901 0.795609 -3 0 -3 
C -0.795609 -3 -1.55874 -2.683901 -2.12132 -2.12132 
C -2.683901 -1.55874 -3 -0.795609 -3 0 
C -3 0.795609 -2.683901 1.55874 -2.12132 2.12132 
C -1.55874 2.683901 -0.795609 3 0 3 
z
" style="stroke: #9467bd"/>
    </defs>
    <g clip-path="url(#p4840fbe063)">
     <use xlink:href="#m18e14e5c1e" x="79.096136" y="497.172536" style="fill: #9467bd; stroke: #9467bd"/>
     <use xlink:href="#m18e14e5c1e" x="79.801871" y="497.017473" style="fill: #9467bd; stroke: #9467bd"/>
     <use xlink:href="#m18e14e5c1e" x="80.684199" y="497.027164" style="fill: #9467bd; stroke: #9467bd"/>
     <use xlink:href="#m18e14e5c1e" x="81.818499" y="496.935095" style="fill: #9467bd; stroke: #9467bd"/>
     <use xlink:href="#m18e14e5c1e" x="83.33097" y="497.148307" style="fill: #9467bd; stroke: #9467bd"/>
     <use xlink:href="#m18e14e5c1e" x="85.448386" y="497.259759" style="fill: #9467bd; stroke: #9467bd"/>
     <use xlink:href="#m18e14e5c1e" x="88.624511" y="497.419668" style="fill: #9467bd; stroke: #9467bd"/>
     <use xlink:href="#m18e14e5c1e" x="93.918052" y="497.13377" style="fill: #9467bd; stroke: #9467bd"/>
     <use xlink:href="#m18e14e5c1e" x="104.505135" y="497.598959" style="fill: #9467bd; stroke: #9467bd"/>
     <use xlink:href="#m18e14e5c1e" x="136.266384" y="500.021822" style="fill: #9467bd; stroke: #9467bd"/>
     <use xlink:href="#m18e14e5c1e" x="168.027633" y="502.003723" style="fill: #9467bd; stroke: #9467bd"/>
     <use xlink:href="#m18e14e5c1e" x="199.788882" y="502.779039" style="fill: #9467bd; stroke: #9467bd"/>
     <use xlink:href="#m18e14e5c1e" x="231.550131" y="503.079474" style="fill: #9467bd; stroke: #9467bd"/>
     <use xlink:href="#m18e14e5c1e" x="263.31138" y="503.157006" style="fill: #9467bd; stroke: #9467bd"/>
     <use xlink:href="#m18e14e5c1e" x="295.072629" y="503.171543" style="fill: #9467bd; stroke: #9467bd"/>
     <use xlink:href="#m18e14e5c1e" x="326.833877" y="503.22" style="fill: #9467bd; stroke: #9467bd"/>
     <use xlink:href="#m18e14e5c1e" x="358.595126" y="503.22" style="fill: #9467bd; stroke: #9467bd"/>
     <use xlink:href="#m18e14e5c1e" x="390.356375" y="503.215154" style="fill: #9467bd; stroke: #9467bd"/>
     <use xlink:href="#m18e14e5c1e" x="422.117624" y="503.22" style="fill: #9467bd; stroke: #9467bd"/>
     <use xlink:href="#m18e14e5c1e" x="453.878873" y="503.22" style="fill: #9467bd; stroke: #9467bd"/>
     <use xlink:href="#m18e14e5c1e" x="485.640122" y="503.210309" style="fill: #9467bd; stroke: #9467bd"/>
     <use xlink:href="#m18e14e5c1e" x="517.401371" y="503.22" style="fill: #9467bd; stroke: #9467bd"/>
     <use xlink:href="#m18e14e5c1e" x="549.162619" y="503.22" style="fill: #9467bd; stroke: #9467bd"/>
     <use xlink:href="#m18e14e5c1e" x="580.923868" y="503.22" style="fill: #9467bd; stroke: #9467bd"/>
     <use xlink:href="#m18e14e5c1e" x="612.685117" y="503.22" style="fill: #9467bd; stroke: #9467bd"/>
     <use xlink:href="#m18e14e5c1e" x="644.446366" y="503.22" style="fill: #9467bd; stroke: #9467bd"/>
     <use xlink:href="#m18e14e5c1e" x="676.207615" y="503.22" style="fill: #9467bd; stroke: #9467bd"/>
     <use xlink:href="#m18e14e5c1e" x="707.968864" y="503.22" style="fill: #9467bd; stroke: #9467bd"/>
    </g>
   </g>
   <g id="line2d_30">
    <path d="M 79.096136 500.176885 
L 79.801871 500.041205 
L 80.684199 500.225342 
L 81.818499 500.220496 
L 83.33097 500.196268 
L 85.448386 500.336794 
L 88.624511 500.244725 
L 93.918052 500.331948 
L 104.505135 500.390097 
L 136.266384 501.742054 
L 168.027633 502.759656 
L 199.788882 503.064937 
L 231.550131 503.147314 
L 263.31138 503.205463 
L 295.072629 503.22 
L 326.833877 503.22 
L 358.595126 503.215154 
L 390.356375 503.22 
L 422.117624 503.22 
L 453.878873 503.22 
L 485.640122 503.22 
L 517.401371 503.22 
L 549.162619 503.22 
L 580.923868 503.22 
L 612.685117 503.22 
L 644.446366 503.22 
L 676.207615 503.22 
L 707.968864 503.22 
" clip-path="url(#p4840fbe063)" style="fill: none; stroke: #8c564b; stroke-width: 2; stroke-linecap: square"/>
    <defs>
     <path id="me1f5319615" d="M 0 3 
C 0.795609 3 1.55874 2.683901 2.12132 2.12132 
C 2.683901 1.55874 3 0.795609 3 0 
C 3 -0.795609 2.683901 -1.55874 2.12132 -2.12132 
C 1.55874 -2.683901 0.795609 -3 0 -3 
C -0.795609 -3 -1.55874 -2.683901 -2.12132 -2.12132 
C -2.683901 -1.55874 -3 -0.795609 -3 0 
C -3 0.795609 -2.683901 1.55874 -2.12132 2.12132 
C -1.55874 2.683901 -0.795609 3 0 3 
z
" style="stroke: #8c564b"/>
    </defs>
    <g clip-path="url(#p4840fbe063)">
     <use xlink:href="#me1f5319615" x="79.096136" y="500.176885" style="fill: #8c564b; stroke: #8c564b"/>
     <use xlink:href="#me1f5319615" x="79.801871" y="500.041205" style="fill: #8c564b; stroke: #8c564b"/>
     <use xlink:href="#me1f5319615" x="80.684199" y="500.225342" style="fill: #8c564b; stroke: #8c564b"/>
     <use xlink:href="#me1f5319615" x="81.818499" y="500.220496" style="fill: #8c564b; stroke: #8c564b"/>
     <use xlink:href="#me1f5319615" x="83.33097" y="500.196268" style="fill: #8c564b; stroke: #8c564b"/>
     <use xlink:href="#me1f5319615" x="85.448386" y="500.336794" style="fill: #8c564b; stroke: #8c564b"/>
     <use xlink:href="#me1f5319615" x="88.624511" y="500.244725" style="fill: #8c564b; stroke: #8c564b"/>
     <use xlink:href="#me1f5319615" x="93.918052" y="500.331948" style="fill: #8c564b; stroke: #8c564b"/>
     <use xlink:href="#me1f5319615" x="104.505135" y="500.390097" style="fill: #8c564b; stroke: #8c564b"/>
     <use xlink:href="#me1f5319615" x="136.266384" y="501.742054" style="fill: #8c564b; stroke: #8c564b"/>
     <use xlink:href="#me1f5319615" x="168.027633" y="502.759656" style="fill: #8c564b; stroke: #8c564b"/>
     <use xlink:href="#me1f5319615" x="199.788882" y="503.064937" style="fill: #8c564b; stroke: #8c564b"/>
     <use xlink:href="#me1f5319615" x="231.550131" y="503.147314" style="fill: #8c564b; stroke: #8c564b"/>
     <use xlink:href="#me1f5319615" x="263.31138" y="503.205463" style="fill: #8c564b; stroke: #8c564b"/>
     <use xlink:href="#me1f5319615" x="295.072629" y="503.22" style="fill: #8c564b; stroke: #8c564b"/>
     <use xlink:href="#me1f5319615" x="326.833877" y="503.22" style="fill: #8c564b; stroke: #8c564b"/>
     <use xlink:href="#me1f5319615" x="358.595126" y="503.215154" style="fill: #8c564b; stroke: #8c564b"/>
     <use xlink:href="#me1f5319615" x="390.356375" y="503.22" style="fill: #8c564b; stroke: #8c564b"/>
     <use xlink:href="#me1f5319615" x="422.117624" y="503.22" style="fill: #8c564b; stroke: #8c564b"/>
     <use xlink:href="#me1f5319615" x="453.878873" y="503.22" style="fill: #8c564b; stroke: #8c564b"/>
     <use xlink:href="#me1f5319615" x="485.640122" y="503.22" style="fill: #8c564b; stroke: #8c564b"/>
     <use xlink:href="#me1f5319615" x="517.401371" y="503.22" style="fill: #8c564b; stroke: #8c564b"/>
     <use xlink:href="#me1f5319615" x="549.162619" y="503.22" style="fill: #8c564b; stroke: #8c564b"/>
     <use xlink:href="#me1f5319615" x="580.923868" y="503.22" style="fill: #8c564b; stroke: #8c564b"/>
     <use xlink:href="#me1f5319615" x="612.685117" y="503.22" style="fill: #8c564b; stroke: #8c564b"/>
     <use xlink:href="#me1f5319615" x="644.446366" y="503.22" style="fill: #8c564b; stroke: #8c564b"/>
     <use xlink:href="#me1f5319615" x="676.207615" y="503.22" style="fill: #8c564b; stroke: #8c564b"/>
     <use xlink:href="#me1f5319615" x="707.968864" y="503.22" style="fill: #8c564b; stroke: #8c564b"/>
    </g>
   </g>
   <g id="line2d_31">
    <path d="M 79.096136 501.586991 
L 79.801871 501.717825 
L 80.684199 501.693597 
L 81.818499 501.78082 
L 83.33097 501.834123 
L 85.448386 501.727517 
L 88.624511 501.906809 
L 93.918052 501.945574 
L 104.505135 501.88258 
L 136.266384 502.614284 
L 168.027633 503.021325 
L 199.788882 503.15216 
L 231.550131 503.200617 
L 263.31138 503.215154 
L 295.072629 503.22 
L 326.833877 503.22 
L 358.595126 503.205463 
L 390.356375 503.22 
L 422.117624 503.22 
L 453.878873 503.22 
L 485.640122 503.22 
L 517.401371 503.22 
L 549.162619 503.22 
L 580.923868 503.22 
L 612.685117 503.22 
L 644.446366 503.22 
L 676.207615 503.22 
L 707.968864 503.22 
" clip-path="url(#p4840fbe063)" style="fill: none; stroke: #e377c2; stroke-width: 2; stroke-linecap: square"/>
    <defs>
     <path id="m5321ce759c" d="M 0 3 
C 0.795609 3 1.55874 2.683901 2.12132 2.12132 
C 2.683901 1.55874 3 0.795609 3 0 
C 3 -0.795609 2.683901 -1.55874 2.12132 -2.12132 
C 1.55874 -2.683901 0.795609 -3 0 -3 
C -0.795609 -3 -1.55874 -2.683901 -2.12132 -2.12132 
C -2.683901 -1.55874 -3 -0.795609 -3 0 
C -3 0.795609 -2.683901 1.55874 -2.12132 2.12132 
C -1.55874 2.683901 -0.795609 3 0 3 
z
" style="stroke: #e377c2"/>
    </defs>
    <g clip-path="url(#p4840fbe063)">
     <use xlink:href="#m5321ce759c" x="79.096136" y="501.586991" style="fill: #e377c2; stroke: #e377c2"/>
     <use xlink:href="#m5321ce759c" x="79.801871" y="501.717825" style="fill: #e377c2; stroke: #e377c2"/>
     <use xlink:href="#m5321ce759c" x="80.684199" y="501.693597" style="fill: #e377c2; stroke: #e377c2"/>
     <use xlink:href="#m5321ce759c" x="81.818499" y="501.78082" style="fill: #e377c2; stroke: #e377c2"/>
     <use xlink:href="#m5321ce759c" x="83.33097" y="501.834123" style="fill: #e377c2; stroke: #e377c2"/>
     <use xlink:href="#m5321ce759c" x="85.448386" y="501.727517" style="fill: #e377c2; stroke: #e377c2"/>
     <use xlink:href="#m5321ce759c" x="88.624511" y="501.906809" style="fill: #e377c2; stroke: #e377c2"/>
     <use xlink:href="#m5321ce759c" x="93.918052" y="501.945574" style="fill: #e377c2; stroke: #e377c2"/>
     <use xlink:href="#m5321ce759c" x="104.505135" y="501.88258" style="fill: #e377c2; stroke: #e377c2"/>
     <use xlink:href="#m5321ce759c" x="136.266384" y="502.614284" style="fill: #e377c2; stroke: #e377c2"/>
     <use xlink:href="#m5321ce759c" x="168.027633" y="503.021325" style="fill: #e377c2; stroke: #e377c2"/>
     <use xlink:href="#m5321ce759c" x="199.788882" y="503.15216" style="fill: #e377c2; stroke: #e377c2"/>
     <use xlink:href="#m5321ce759c" x="231.550131" y="503.200617" style="fill: #e377c2; stroke: #e377c2"/>
     <use xlink:href="#m5321ce759c" x="263.31138" y="503.215154" style="fill: #e377c2; stroke: #e377c2"/>
     <use xlink:href="#m5321ce759c" x="295.072629" y="503.22" style="fill: #e377c2; stroke: #e377c2"/>
     <use xlink:href="#m5321ce759c" x="326.833877" y="503.22" style="fill: #e377c2; stroke: #e377c2"/>
     <use xlink:href="#m5321ce759c" x="358.595126" y="503.205463" style="fill: #e377c2; stroke: #e377c2"/>
     <use xlink:href="#m5321ce759c" x="390.356375" y="503.22" style="fill: #e377c2; stroke: #e377c2"/>
     <use xlink:href="#m5321ce759c" x="422.117624" y="503.22" style="fill: #e377c2; stroke: #e377c2"/>
     <use xlink:href="#m5321ce759c" x="453.878873" y="503.22" style="fill: #e377c2; stroke: #e377c2"/>
     <use xlink:href="#m5321ce759c" x="485.640122" y="503.22" style="fill: #e377c2; stroke: #e377c2"/>
     <use xlink:href="#m5321ce759c" x="517.401371" y="503.22" style="fill: #e377c2; stroke: #e377c2"/>
     <use xlink:href="#m5321ce759c" x="549.162619" y="503.22" style="fill: #e377c2; stroke: #e377c2"/>
     <use xlink:href="#m5321ce759c" x="580.923868" y="503.22" style="fill: #e377c2; stroke: #e377c2"/>
     <use xlink:href="#m5321ce759c" x="612.685117" y="503.22" style="fill: #e377c2; stroke: #e377c2"/>
     <use xlink:href="#m5321ce759c" x="644.446366" y="503.22" style="fill: #e377c2; stroke: #e377c2"/>
     <use xlink:href="#m5321ce759c" x="676.207615" y="503.22" style="fill: #e377c2; stroke: #e377c2"/>
     <use xlink:href="#m5321ce759c" x="707.968864" y="503.22" style="fill: #e377c2; stroke: #e377c2"/>
    </g>
   </g>
   <g id="line2d_32">
    <path d="M 79.096136 501.78082 
L 79.801871 501.693597 
L 80.684199 501.664522 
L 81.818499 501.795357 
L 83.33097 501.751745 
L 85.448386 501.732363 
L 88.624511 501.877734 
L 93.918052 501.761437 
L 104.505135 501.921346 
L 136.266384 502.580364 
L 168.027633 503.064937 
L 199.788882 503.098857 
L 231.550131 503.195771 
L 263.31138 503.22 
L 295.072629 503.22 
L 326.833877 503.22 
L 358.595126 503.22 
L 390.356375 503.22 
L 422.117624 503.22 
L 453.878873 503.22 
L 485.640122 503.22 
L 517.401371 503.22 
L 549.162619 503.22 
L 580.923868 503.22 
L 612.685117 503.22 
L 644.446366 503.22 
L 676.207615 503.22 
L 707.968864 503.22 
" clip-path="url(#p4840fbe063)" style="fill: none; stroke: #17becf; stroke-width: 2; stroke-linecap: square"/>
    <defs>
     <path id="mf0b13cab43" d="M 0 3 
C 0.795609 3 1.55874 2.683901 2.12132 2.12132 
C 2.683901 1.55874 3 0.795609 3 0 
C 3 -0.795609 2.683901 -1.55874 2.12132 -2.12132 
C 1.55874 -2.683901 0.795609 -3 0 -3 
C -0.795609 -3 -1.55874 -2.683901 -2.12132 -2.12132 
C -2.683901 -1.55874 -3 -0.795609 -3 0 
C -3 0.795609 -2.683901 1.55874 -2.12132 2.12132 
C -1.55874 2.683901 -0.795609 3 0 3 
z
" style="stroke: #17becf"/>
    </defs>
    <g clip-path="url(#p4840fbe063)">
     <use xlink:href="#mf0b13cab43" x="79.096136" y="501.78082" style="fill: #17becf; stroke: #17becf"/>
     <use xlink:href="#mf0b13cab43" x="79.801871" y="501.693597" style="fill: #17becf; stroke: #17becf"/>
     <use xlink:href="#mf0b13cab43" x="80.684199" y="501.664522" style="fill: #17becf; stroke: #17becf"/>
     <use xlink:href="#mf0b13cab43" x="81.818499" y="501.795357" style="fill: #17becf; stroke: #17becf"/>
     <use xlink:href="#mf0b13cab43" x="83.33097" y="501.751745" style="fill: #17becf; stroke: #17becf"/>
     <use xlink:href="#mf0b13cab43" x="85.448386" y="501.732363" style="fill: #17becf; stroke: #17becf"/>
     <use xlink:href="#mf0b13cab43" x="88.624511" y="501.877734" style="fill: #17becf; stroke: #17becf"/>
     <use xlink:href="#mf0b13cab43" x="93.918052" y="501.761437" style="fill: #17becf; stroke: #17becf"/>
     <use xlink:href="#mf0b13cab43" x="104.505135" y="501.921346" style="fill: #17becf; stroke: #17becf"/>
     <use xlink:href="#mf0b13cab43" x="136.266384" y="502.580364" style="fill: #17becf; stroke: #17becf"/>
     <use xlink:href="#mf0b13cab43" x="168.027633" y="503.064937" style="fill: #17becf; stroke: #17becf"/>
     <use xlink:href="#mf0b13cab43" x="199.788882" y="503.098857" style="fill: #17becf; stroke: #17becf"/>
     <use xlink:href="#mf0b13cab43" x="231.550131" y="503.195771" style="fill: #17becf; stroke: #17becf"/>
     <use xlink:href="#mf0b13cab43" x="263.31138" y="503.22" style="fill: #17becf; stroke: #17becf"/>
     <use xlink:href="#mf0b13cab43" x="295.072629" y="503.22" style="fill: #17becf; stroke: #17becf"/>
     <use xlink:href="#mf0b13cab43" x="326.833877" y="503.22" style="fill: #17becf; stroke: #17becf"/>
     <use xlink:href="#mf0b13cab43" x="358.595126" y="503.22" style="fill: #17becf; stroke: #17becf"/>
     <use xlink:href="#mf0b13cab43" x="390.356375" y="503.22" style="fill: #17becf; stroke: #17becf"/>
     <use xlink:href="#mf0b13cab43" x="422.117624" y="503.22" style="fill: #17becf; stroke: #17becf"/>
     <use xlink:href="#mf0b13cab43" x="453.878873" y="503.22" style="fill: #17becf; stroke: #17becf"/>
     <use xlink:href="#mf0b13cab43" x="485.640122" y="503.22" style="fill: #17becf; stroke: #17becf"/>
     <use xlink:href="#mf0b13cab43" x="517.401371" y="503.22" style="fill: #17becf; stroke: #17becf"/>
     <use xlink:href="#mf0b13cab43" x="549.162619" y="503.22" style="fill: #17becf; stroke: #17becf"/>
     <use xlink:href="#mf0b13cab43" x="580.923868" y="503.22" style="fill: #17becf; stroke: #17becf"/>
     <use xlink:href="#mf0b13cab43" x="612.685117" y="503.22" style="fill: #17becf; stroke: #17becf"/>
     <use xlink:href="#mf0b13cab43" x="644.446366" y="503.22" style="fill: #17becf; stroke: #17becf"/>
     <use xlink:href="#mf0b13cab43" x="676.207615" y="503.22" style="fill: #17becf; stroke: #17becf"/>
     <use xlink:href="#mf0b13cab43" x="707.968864" y="503.22" style="fill: #17becf; stroke: #17becf"/>
    </g>
   </g>
   <g id="line2d_33">
    <path d="M 79.096136 502.41561 
L 79.801871 502.425301 
L 80.684199 502.444684 
L 81.818499 502.260547 
L 83.33097 502.507678 
L 85.448386 502.313849 
L 88.624511 502.473758 
L 93.918052 502.434993 
L 104.505135 502.594902 
L 136.266384 502.885645 
L 168.027633 503.108548 
L 199.788882 503.166697 
L 231.550131 503.22 
L 263.31138 503.22 
L 295.072629 503.22 
L 326.833877 503.22 
L 358.595126 503.22 
L 390.356375 503.22 
L 422.117624 503.22 
L 453.878873 503.22 
L 485.640122 503.22 
L 517.401371 503.22 
L 549.162619 503.22 
L 580.923868 503.22 
L 612.685117 503.22 
L 644.446366 503.22 
L 676.207615 503.22 
L 707.968864 503.22 
" clip-path="url(#p4840fbe063)" style="fill: none; stroke: #bcbd22; stroke-width: 2; stroke-linecap: square"/>
    <defs>
     <path id="m97e4a51bbc" d="M 0 3 
C 0.795609 3 1.55874 2.683901 2.12132 2.12132 
C 2.683901 1.55874 3 0.795609 3 0 
C 3 -0.795609 2.683901 -1.55874 2.12132 -2.12132 
C 1.55874 -2.683901 0.795609 -3 0 -3 
C -0.795609 -3 -1.55874 -2.683901 -2.12132 -2.12132 
C -2.683901 -1.55874 -3 -0.795609 -3 0 
C -3 0.795609 -2.683901 1.55874 -2.12132 2.12132 
C -1.55874 2.683901 -0.795609 3 0 3 
z
" style="stroke: #bcbd22"/>
    </defs>
    <g clip-path="url(#p4840fbe063)">
     <use xlink:href="#m97e4a51bbc" x="79.096136" y="502.41561" style="fill: #bcbd22; stroke: #bcbd22"/>
     <use xlink:href="#m97e4a51bbc" x="79.801871" y="502.425301" style="fill: #bcbd22; stroke: #bcbd22"/>
     <use xlink:href="#m97e4a51bbc" x="80.684199" y="502.444684" style="fill: #bcbd22; stroke: #bcbd22"/>
     <use xlink:href="#m97e4a51bbc" x="81.818499" y="502.260547" style="fill: #bcbd22; stroke: #bcbd22"/>
     <use xlink:href="#m97e4a51bbc" x="83.33097" y="502.507678" style="fill: #bcbd22; stroke: #bcbd22"/>
     <use xlink:href="#m97e4a51bbc" x="85.448386" y="502.313849" style="fill: #bcbd22; stroke: #bcbd22"/>
     <use xlink:href="#m97e4a51bbc" x="88.624511" y="502.473758" style="fill: #bcbd22; stroke: #bcbd22"/>
     <use xlink:href="#m97e4a51bbc" x="93.918052" y="502.434993" style="fill: #bcbd22; stroke: #bcbd22"/>
     <use xlink:href="#m97e4a51bbc" x="104.505135" y="502.594902" style="fill: #bcbd22; stroke: #bcbd22"/>
     <use xlink:href="#m97e4a51bbc" x="136.266384" y="502.885645" style="fill: #bcbd22; stroke: #bcbd22"/>
     <use xlink:href="#m97e4a51bbc" x="168.027633" y="503.108548" style="fill: #bcbd22; stroke: #bcbd22"/>
     <use xlink:href="#m97e4a51bbc" x="199.788882" y="503.166697" style="fill: #bcbd22; stroke: #bcbd22"/>
     <use xlink:href="#m97e4a51bbc" x="231.550131" y="503.22" style="fill: #bcbd22; stroke: #bcbd22"/>
     <use xlink:href="#m97e4a51bbc" x="263.31138" y="503.22" style="fill: #bcbd22; stroke: #bcbd22"/>
     <use xlink:href="#m97e4a51bbc" x="295.072629" y="503.22" style="fill: #bcbd22; stroke: #bcbd22"/>
     <use xlink:href="#m97e4a51bbc" x="326.833877" y="503.22" style="fill: #bcbd22; stroke: #bcbd22"/>
     <use xlink:href="#m97e4a51bbc" x="358.595126" y="503.22" style="fill: #bcbd22; stroke: #bcbd22"/>
     <use xlink:href="#m97e4a51bbc" x="390.356375" y="503.22" style="fill: #bcbd22; stroke: #bcbd22"/>
     <use xlink:href="#m97e4a51bbc" x="422.117624" y="503.22" style="fill: #bcbd22; stroke: #bcbd22"/>
     <use xlink:href="#m97e4a51bbc" x="453.878873" y="503.22" style="fill: #bcbd22; stroke: #bcbd22"/>
     <use xlink:href="#m97e4a51bbc" x="485.640122" y="503.22" style="fill: #bcbd22; stroke: #bcbd22"/>
     <use xlink:href="#m97e4a51bbc" x="517.401371" y="503.22" style="fill: #bcbd22; stroke: #bcbd22"/>
     <use xlink:href="#m97e4a51bbc" x="549.162619" y="503.22" style="fill: #bcbd22; stroke: #bcbd22"/>
     <use xlink:href="#m97e4a51bbc" x="580.923868" y="503.22" style="fill: #bcbd22; stroke: #bcbd22"/>
     <use xlink:href="#m97e4a51bbc" x="612.685117" y="503.22" style="fill: #bcbd22; stroke: #bcbd22"/>
     <use xlink:href="#m97e4a51bbc" x="644.446366" y="503.22" style="fill: #bcbd22; stroke: #bcbd22"/>
     <use xlink:href="#m97e4a51bbc" x="676.207615" y="503.22" style="fill: #bcbd22; stroke: #bcbd22"/>
     <use xlink:href="#m97e4a51bbc" x="707.968864" y="503.22" style="fill: #bcbd22; stroke: #bcbd22"/>
    </g>
   </g>
   <g id="patch_3">
    <path d="M 47.6525 526.84 
L 47.6525 7.2 
" style="fill: none; stroke: #000000; stroke-width: 0.8; stroke-linejoin: miter; stroke-linecap: square"/>
   </g>
   <g id="patch_4">
    <path d="M 739.4125 526.84 
L 739.4125 7.2 
" style="fill: none; stroke: #000000; stroke-width: 0.8; stroke-linejoin: miter; stroke-linecap: square"/>
   </g>
   <g id="patch_5">
    <path d="M 47.6525 526.84 
L 739.4125 526.84 
" style="fill: none; stroke: #000000; stroke-width: 0.8; stroke-linejoin: miter; stroke-linecap: square"/>
   </g>
   <g id="patch_6">
    <path d="M 47.6525 7.2 
L 739.4125 7.2 
" style="fill: none; stroke: #000000; stroke-width: 0.8; stroke-linejoin: miter; stroke-linecap: square"/>
   </g>
   <g id="legend_1">
    <g id="patch_7">
     <path d="M 781.0005 147.303125 
L 848.642687 147.303125 
Q 850.642687 147.303125 850.642687 145.303125 
L 850.642687 14.2 
Q 850.642687 12.2 848.642687 12.2 
L 781.0005 12.2 
Q 779.0005 12.2 779.0005 14.2 
L 779.0005 145.303125 
Q 779.0005 147.303125 781.0005 147.303125 
z
" style="fill: #ffffff; opacity: 0.8; stroke: #cccccc; stroke-linejoin: miter"/>
    </g>
    <g id="line2d_34">
     <path d="M 783.0005 20.298438 
L 793.0005 20.298438 
L 803.0005 20.298438 
" style="fill: none; stroke: #1f77b4; stroke-width: 2; stroke-linecap: square"/>
     <g>
      <use xlink:href="#mac3945a745" x="793.0005" y="20.298438" style="fill: #1f77b4; stroke: #1f77b4"/>
     </g>
    </g>
    <g id="text_15">
     <!-- Node 0 -->
     <g transform="translate(811.0005 23.798438) scale(0.1 -0.1)">
      <defs>
       <path id="DejaVuSans-4e" d="M 628 4666 
L 1478 4666 
L 3547 763 
L 3547 4666 
L 4159 4666 
L 4159 0 
L 3309 0 
L 1241 3903 
L 1241 0 
L 628 0 
L 628 4666 
z
" transform="scale(0.015625)"/>
       <path id="DejaVuSans-6f" d="M 1959 3097 
Q 1497 3097 1228 2736 
Q 959 2375 959 1747 
Q 959 1119 1226 758 
Q 1494 397 1959 397 
Q 2419 397 2687 759 
Q 2956 1122 2956 1747 
Q 2956 2369 2687 2733 
Q 2419 3097 1959 3097 
z
M 1959 3584 
Q 2709 3584 3137 3096 
Q 3566 2609 3566 1747 
Q 3566 888 3137 398 
Q 2709 -91 1959 -91 
Q 1206 -91 779 398 
Q 353 888 353 1747 
Q 353 2609 779 3096 
Q 1206 3584 1959 3584 
z
" transform="scale(0.015625)"/>
       <path id="DejaVuSans-64" d="M 2906 2969 
L 2906 4863 
L 3481 4863 
L 3481 0 
L 2906 0 
L 2906 525 
Q 2725 213 2448 61 
Q 2172 -91 1784 -91 
Q 1150 -91 751 415 
Q 353 922 353 1747 
Q 353 2572 751 3078 
Q 1150 3584 1784 3584 
Q 2172 3584 2448 3432 
Q 2725 3281 2906 2969 
z
M 947 1747 
Q 947 1113 1208 752 
Q 1469 391 1925 391 
Q 2381 391 2643 752 
Q 2906 1113 2906 1747 
Q 2906 2381 2643 2742 
Q 2381 3103 1925 3103 
Q 1469 3103 1208 2742 
Q 947 2381 947 1747 
z
" transform="scale(0.015625)"/>
      </defs>
      <use xlink:href="#DejaVuSans-4e"/>
      <use xlink:href="#DejaVuSans-6f" transform="translate(74.804688 0)"/>
      <use xlink:href="#DejaVuSans-64" transform="translate(135.986328 0)"/>
      <use xlink:href="#DejaVuSans-65" transform="translate(199.462891 0)"/>
      <use xlink:href="#DejaVuSans-20" transform="translate(260.986328 0)"/>
      <use xlink:href="#DejaVuSans-30" transform="translate(292.773438 0)"/>
     </g>
    </g>
    <g id="line2d_35">
     <path d="M 783.0005 34.976563 
L 793.0005 34.976563 
L 803.0005 34.976563 
" style="fill: none; stroke: #ff7f0e; stroke-width: 2; stroke-linecap: square"/>
     <g>
      <use xlink:href="#me6310a2423" x="793.0005" y="34.976563" style="fill: #ff7f0e; stroke: #ff7f0e"/>
     </g>
    </g>
    <g id="text_16">
     <!-- Node 1 -->
     <g transform="translate(811.0005 38.476563) scale(0.1 -0.1)">
      <use xlink:href="#DejaVuSans-4e"/>
      <use xlink:href="#DejaVuSans-6f" transform="translate(74.804688 0)"/>
      <use xlink:href="#DejaVuSans-64" transform="translate(135.986328 0)"/>
      <use xlink:href="#DejaVuSans-65" transform="translate(199.462891 0)"/>
      <use xlink:href="#DejaVuSans-20" transform="translate(260.986328 0)"/>
      <use xlink:href="#DejaVuSans-31" transform="translate(292.773438 0)"/>
     </g>
    </g>
    <g id="line2d_36">
     <path d="M 783.0005 49.654688 
L 793.0005 49.654688 
L 803.0005 49.654688 
" style="fill: none; stroke: #2ca02c; stroke-width: 2; stroke-linecap: square"/>
     <g>
      <use xlink:href="#m8e8f294847" x="793.0005" y="49.654688" style="fill: #2ca02c; stroke: #2ca02c"/>
     </g>
    </g>
    <g id="text_17">
     <!-- Node 2 -->
     <g transform="translate(811.0005 53.154688) scale(0.1 -0.1)">
      <use xlink:href="#DejaVuSans-4e"/>
      <use xlink:href="#DejaVuSans-6f" transform="translate(74.804688 0)"/>
      <use xlink:href="#DejaVuSans-64" transform="translate(135.986328 0)"/>
      <use xlink:href="#DejaVuSans-65" transform="translate(199.462891 0)"/>
      <use xlink:href="#DejaVuSans-20" transform="translate(260.986328 0)"/>
      <use xlink:href="#DejaVuSans-32" transform="translate(292.773438 0)"/>
     </g>
    </g>
    <g id="line2d_37">
     <path d="M 783.0005 64.332813 
L 793.0005 64.332813 
L 803.0005 64.332813 
" style="fill: none; stroke: #d62728; stroke-width: 2; stroke-linecap: square"/>
     <g>
      <use xlink:href="#meb652891a0" x="793.0005" y="64.332813" style="fill: #d62728; stroke: #d62728"/>
     </g>
    </g>
    <g id="text_18">
     <!-- Node 3 -->
     <g transform="translate(811.0005 67.832813) scale(0.1 -0.1)">
      <defs>
       <path id="DejaVuSans-33" d="M 2597 2516 
Q 3050 2419 3304 2112 
Q 3559 1806 3559 1356 
Q 3559 666 3084 287 
Q 2609 -91 1734 -91 
Q 1441 -91 1130 -33 
Q 819 25 488 141 
L 488 750 
Q 750 597 1062 519 
Q 1375 441 1716 441 
Q 2309 441 2620 675 
Q 2931 909 2931 1356 
Q 2931 1769 2642 2001 
Q 2353 2234 1838 2234 
L 1294 2234 
L 1294 2753 
L 1863 2753 
Q 2328 2753 2575 2939 
Q 2822 3125 2822 3475 
Q 2822 3834 2567 4026 
Q 2313 4219 1838 4219 
Q 1578 4219 1281 4162 
Q 984 4106 628 3988 
L 628 4550 
Q 988 4650 1302 4700 
Q 1616 4750 1894 4750 
Q 2613 4750 3031 4423 
Q 3450 4097 3450 3541 
Q 3450 3153 3228 2886 
Q 3006 2619 2597 2516 
z
" transform="scale(0.015625)"/>
      </defs>
      <use xlink:href="#DejaVuSans-4e"/>
      <use xlink:href="#DejaVuSans-6f" transform="translate(74.804688 0)"/>
      <use xlink:href="#DejaVuSans-64" transform="translate(135.986328 0)"/>
      <use xlink:href="#DejaVuSans-65" transform="translate(199.462891 0)"/>
      <use xlink:href="#DejaVuSans-20" transform="translate(260.986328 0)"/>
      <use xlink:href="#DejaVuSans-33" transform="translate(292.773438 0)"/>
     </g>
    </g>
    <g id="line2d_38">
     <path d="M 783.0005 79.010938 
L 793.0005 79.010938 
L 803.0005 79.010938 
" style="fill: none; stroke: #9467bd; stroke-width: 2; stroke-linecap: square"/>
     <g>
      <use xlink:href="#m18e14e5c1e" x="793.0005" y="79.010938" style="fill: #9467bd; stroke: #9467bd"/>
     </g>
    </g>
    <g id="text_19">
     <!-- Node 4 -->
     <g transform="translate(811.0005 82.510938) scale(0.1 -0.1)">
      <use xlink:href="#DejaVuSans-4e"/>
      <use xlink:href="#DejaVuSans-6f" transform="translate(74.804688 0)"/>
      <use xlink:href="#DejaVuSans-64" transform="translate(135.986328 0)"/>
      <use xlink:href="#DejaVuSans-65" transform="translate(199.462891 0)"/>
      <use xlink:href="#DejaVuSans-20" transform="translate(260.986328 0)"/>
      <use xlink:href="#DejaVuSans-34" transform="translate(292.773438 0)"/>
     </g>
    </g>
    <g id="line2d_39">
     <path d="M 783.0005 93.689063 
L 793.0005 93.689063 
L 803.0005 93.689063 
" style="fill: none; stroke: #8c564b; stroke-width: 2; stroke-linecap: square"/>
     <g>
      <use xlink:href="#me1f5319615" x="793.0005" y="93.689063" style="fill: #8c564b; stroke: #8c564b"/>
     </g>
    </g>
    <g id="text_20">
     <!-- Node 5 -->
     <g transform="translate(811.0005 97.189063) scale(0.1 -0.1)">
      <defs>
       <path id="DejaVuSans-35" d="M 691 4666 
L 3169 4666 
L 3169 4134 
L 1269 4134 
L 1269 2991 
Q 1406 3038 1543 3061 
Q 1681 3084 1819 3084 
Q 2600 3084 3056 2656 
Q 3513 2228 3513 1497 
Q 3513 744 3044 326 
Q 2575 -91 1722 -91 
Q 1428 -91 1123 -41 
Q 819 9 494 109 
L 494 744 
Q 775 591 1075 516 
Q 1375 441 1709 441 
Q 2250 441 2565 725 
Q 2881 1009 2881 1497 
Q 2881 1984 2565 2268 
Q 2250 2553 1709 2553 
Q 1456 2553 1204 2497 
Q 953 2441 691 2322 
L 691 4666 
z
" transform="scale(0.015625)"/>
      </defs>
      <use xlink:href="#DejaVuSans-4e"/>
      <use xlink:href="#DejaVuSans-6f" transform="translate(74.804688 0)"/>
      <use xlink:href="#DejaVuSans-64" transform="translate(135.986328 0)"/>
      <use xlink:href="#DejaVuSans-65" transform="translate(199.462891 0)"/>
      <use xlink:href="#DejaVuSans-20" transform="translate(260.986328 0)"/>
      <use xlink:href="#DejaVuSans-35" transform="translate(292.773438 0)"/>
     </g>
    </g>
    <g id="line2d_40">
     <path d="M 783.0005 108.367188 
L 793.0005 108.367188 
L 803.0005 108.367188 
" style="fill: none; stroke: #e377c2; stroke-width: 2; stroke-linecap: square"/>
     <g>
      <use xlink:href="#m5321ce759c" x="793.0005" y="108.367188" style="fill: #e377c2; stroke: #e377c2"/>
     </g>
    </g>
    <g id="text_21">
     <!-- Node 6 -->
     <g transform="translate(811.0005 111.867188) scale(0.1 -0.1)">
      <use xlink:href="#DejaVuSans-4e"/>
      <use xlink:href="#DejaVuSans-6f" transform="translate(74.804688 0)"/>
      <use xlink:href="#DejaVuSans-64" transform="translate(135.986328 0)"/>
      <use xlink:href="#DejaVuSans-65" transform="translate(199.462891 0)"/>
      <use xlink:href="#DejaVuSans-20" transform="translate(260.986328 0)"/>
      <use xlink:href="#DejaVuSans-36" transform="translate(292.773438 0)"/>
     </g>
    </g>
    <g id="line2d_41">
     <path d="M 783.0005 123.045313 
L 793.0005 123.045313 
L 803.0005 123.045313 
" style="fill: none; stroke: #17becf; stroke-width: 2; stroke-linecap: square"/>
     <g>
      <use xlink:href="#mf0b13cab43" x="793.0005" y="123.045313" style="fill: #17becf; stroke: #17becf"/>
     </g>
    </g>
    <g id="text_22">
     <!-- Node 7 -->
     <g transform="translate(811.0005 126.545313) scale(0.1 -0.1)">
      <defs>
       <path id="DejaVuSans-37" d="M 525 4666 
L 3525 4666 
L 3525 4397 
L 1831 0 
L 1172 0 
L 2766 4134 
L 525 4134 
L 525 4666 
z
" transform="scale(0.015625)"/>
      </defs>
      <use xlink:href="#DejaVuSans-4e"/>
      <use xlink:href="#DejaVuSans-6f" transform="translate(74.804688 0)"/>
      <use xlink:href="#DejaVuSans-64" transform="translate(135.986328 0)"/>
      <use xlink:href="#DejaVuSans-65" transform="translate(199.462891 0)"/>
      <use xlink:href="#DejaVuSans-20" transform="translate(260.986328 0)"/>
      <use xlink:href="#DejaVuSans-37" transform="translate(292.773438 0)"/>
     </g>
    </g>
    <g id="line2d_42">
     <path d="M 783.0005 137.723438 
L 793.0005 137.723438 
L 803.0005 137.723438 
" style="fill: none; stroke: #bcbd22; stroke-width: 2; stroke-linecap: square"/>
     <g>
      <use xlink:href="#m97e4a51bbc" x="793.0005" y="137.723438" style="fill: #bcbd22; stroke: #bcbd22"/>
     </g>
    </g>
    <g id="text_23">
     <!-- Node 8 -->
     <g transform="translate(811.0005 141.223438) scale(0.1 -0.1)">
      <use xlink:href="#DejaVuSans-4e"/>
      <use xlink:href="#DejaVuSans-6f" transform="translate(74.804688 0)"/>
      <use xlink:href="#DejaVuSans-64" transform="translate(135.986328 0)"/>
      <use xlink:href="#DejaVuSans-65" transform="translate(199.462891 0)"/>
      <use xlink:href="#DejaVuSans-20" transform="translate(260.986328 0)"/>
      <use xlink:href="#DejaVuSans-38" transform="translate(292.773438 0)"/>
     </g>
    </g>
   </g>
  </g>
 </g>
 <defs>
  <clipPath id="p4840fbe063">
   <rect x="47.6525" y="7.2" width="691.76" height="519.64"/>
  </clipPath>
 </defs>
</svg>
