<?xml version="1.0" encoding="utf-8" standalone="no"?>
<!DOCTYPE svg PUBLIC "-//W3C//DTD SVG 1.1//EN"
  "http://www.w3.org/Graphics/SVG/1.1/DTD/svg11.dtd">
<svg xmlns:xlink="http://www.w3.org/1999/xlink" width="857.764437pt" height="568.2675pt" viewBox="0 0 857.764437 568.2675" xmlns="http://www.w3.org/2000/svg" version="1.1">
 <metadata>
  <rdf:RDF xmlns:dc="http://purl.org/dc/elements/1.1/" xmlns:cc="http://creativecommons.org/ns#" xmlns:rdf="http://www.w3.org/1999/02/22-rdf-syntax-ns#">
   <cc:Work>
    <dc:type rdf:resource="http://purl.org/dc/dcmitype/StillImage"/>
    <dc:date>2025-09-14T14:32:58.336958</dc:date>
    <dc:format>image/svg+xml</dc:format>
    <dc:creator>
     <cc:Agent>
      <dc:title>Matplotlib v3.10.3, https://matplotlib.org/</dc:title>
     </cc:Agent>
    </dc:creator>
   </cc:Work>
  </rdf:RDF>
 </metadata>
 <defs>
  <style type="text/css">*{stroke-linejoin: round; stroke-linecap: butt}</style>
 </defs>
 <g id="figure_1">
  <g id="patch_1">
   <path d="M 0 568.2675 
L 857.764437 568.2675 
L 857.764437 0 
L 0 0 
z
" style="fill: #ffffff"/>
  </g>
  <g id="axes_1">
   <g id="patch_2">
    <path d="M 47.6525 526.84 
L 737.5225 526.84 
L 737.5225 7.2 
L 47.6525 7.2 
z
" style="fill: #ffffff"/>
   </g>
   <g id="matplotlib.axis_1">
    <g id="xtick_1">
     <g id="line2d_1">
      <path d="M 72.675333 526.84 
L 72.675333 7.2 
" clip-path="url(#pe26d39aeca)" style="fill: none; stroke: #b0b0b0; stroke-opacity: 0.3; stroke-width: 0.8; stroke-linecap: square"/>
     </g>
     <g id="line2d_2">
      <defs>
       <path id="m9afa504767" d="M 0 0 
L 0 3.5 
" style="stroke: #000000; stroke-width: 0.8"/>
      </defs>
      <g>
       <use xlink:href="#m9afa504767" x="72.675333" y="526.84" style="stroke: #000000; stroke-width: 0.8"/>
      </g>
     </g>
     <g id="text_1">
      <!-- 0 -->
      <g transform="translate(69.494083 541.438437) scale(0.1 -0.1)">
       <defs>
        <path id="DejaVuSans-30" d="M 2034 4250 
Q 1547 4250 1301 3770 
Q 1056 3291 1056 2328 
Q 1056 1369 1301 889 
Q 1547 409 2034 409 
Q 2525 409 2770 889 
Q 3016 1369 3016 2328 
Q 3016 3291 2770 3770 
Q 2525 4250 2034 4250 
z
M 2034 4750 
Q 2819 4750 3233 4129 
Q 3647 3509 3647 2328 
Q 3647 1150 3233 529 
Q 2819 -91 2034 -91 
Q 1250 -91 836 529 
Q 422 1150 422 2328 
Q 422 3509 836 4129 
Q 1250 4750 2034 4750 
z
" transform="scale(0.015625)"/>
       </defs>
       <use xlink:href="#DejaVuSans-30"/>
      </g>
     </g>
    </g>
    <g id="xtick_2">
     <g id="line2d_3">
      <path d="M 199.373221 526.84 
L 199.373221 7.2 
" clip-path="url(#pe26d39aeca)" style="fill: none; stroke: #b0b0b0; stroke-opacity: 0.3; stroke-width: 0.8; stroke-linecap: square"/>
     </g>
     <g id="line2d_4">
      <g>
       <use xlink:href="#m9afa504767" x="199.373221" y="526.84" style="stroke: #000000; stroke-width: 0.8"/>
      </g>
     </g>
     <g id="text_2">
      <!-- 2 -->
      <g transform="translate(196.191971 541.438437) scale(0.1 -0.1)">
       <defs>
        <path id="DejaVuSans-32" d="M 1228 531 
L 3431 531 
L 3431 0 
L 469 0 
L 469 531 
Q 828 903 1448 1529 
Q 2069 2156 2228 2338 
Q 2531 2678 2651 2914 
Q 2772 3150 2772 3378 
Q 2772 3750 2511 3984 
Q 2250 4219 1831 4219 
Q 1534 4219 1204 4116 
Q 875 4013 500 3803 
L 500 4441 
Q 881 4594 1212 4672 
Q 1544 4750 1819 4750 
Q 2544 4750 2975 4387 
Q 3406 4025 3406 3419 
Q 3406 3131 3298 2873 
Q 3191 2616 2906 2266 
Q 2828 2175 2409 1742 
Q 1991 1309 1228 531 
z
" transform="scale(0.015625)"/>
       </defs>
       <use xlink:href="#DejaVuSans-32"/>
      </g>
     </g>
    </g>
    <g id="xtick_3">
     <g id="line2d_5">
      <path d="M 326.071109 526.84 
L 326.071109 7.2 
" clip-path="url(#pe26d39aeca)" style="fill: none; stroke: #b0b0b0; stroke-opacity: 0.3; stroke-width: 0.8; stroke-linecap: square"/>
     </g>
     <g id="line2d_6">
      <g>
       <use xlink:href="#m9afa504767" x="326.071109" y="526.84" style="stroke: #000000; stroke-width: 0.8"/>
      </g>
     </g>
     <g id="text_3">
      <!-- 4 -->
      <g transform="translate(322.889859 541.438437) scale(0.1 -0.1)">
       <defs>
        <path id="DejaVuSans-34" d="M 2419 4116 
L 825 1625 
L 2419 1625 
L 2419 4116 
z
M 2253 4666 
L 3047 4666 
L 3047 1625 
L 3713 1625 
L 3713 1100 
L 3047 1100 
L 3047 0 
L 2419 0 
L 2419 1100 
L 313 1100 
L 313 1709 
L 2253 4666 
z
" transform="scale(0.015625)"/>
       </defs>
       <use xlink:href="#DejaVuSans-34"/>
      </g>
     </g>
    </g>
    <g id="xtick_4">
     <g id="line2d_7">
      <path d="M 452.768997 526.84 
L 452.768997 7.2 
" clip-path="url(#pe26d39aeca)" style="fill: none; stroke: #b0b0b0; stroke-opacity: 0.3; stroke-width: 0.8; stroke-linecap: square"/>
     </g>
     <g id="line2d_8">
      <g>
       <use xlink:href="#m9afa504767" x="452.768997" y="526.84" style="stroke: #000000; stroke-width: 0.8"/>
      </g>
     </g>
     <g id="text_4">
      <!-- 6 -->
      <g transform="translate(449.587747 541.438437) scale(0.1 -0.1)">
       <defs>
        <path id="DejaVuSans-36" d="M 2113 2584 
Q 1688 2584 1439 2293 
Q 1191 2003 1191 1497 
Q 1191 994 1439 701 
Q 1688 409 2113 409 
Q 2538 409 2786 701 
Q 3034 994 3034 1497 
Q 3034 2003 2786 2293 
Q 2538 2584 2113 2584 
z
M 3366 4563 
L 3366 3988 
Q 3128 4100 2886 4159 
Q 2644 4219 2406 4219 
Q 1781 4219 1451 3797 
Q 1122 3375 1075 2522 
Q 1259 2794 1537 2939 
Q 1816 3084 2150 3084 
Q 2853 3084 3261 2657 
Q 3669 2231 3669 1497 
Q 3669 778 3244 343 
Q 2819 -91 2113 -91 
Q 1303 -91 875 529 
Q 447 1150 447 2328 
Q 447 3434 972 4092 
Q 1497 4750 2381 4750 
Q 2619 4750 2861 4703 
Q 3103 4656 3366 4563 
z
" transform="scale(0.015625)"/>
       </defs>
       <use xlink:href="#DejaVuSans-36"/>
      </g>
     </g>
    </g>
    <g id="xtick_5">
     <g id="line2d_9">
      <path d="M 579.466885 526.84 
L 579.466885 7.2 
" clip-path="url(#pe26d39aeca)" style="fill: none; stroke: #b0b0b0; stroke-opacity: 0.3; stroke-width: 0.8; stroke-linecap: square"/>
     </g>
     <g id="line2d_10">
      <g>
       <use xlink:href="#m9afa504767" x="579.466885" y="526.84" style="stroke: #000000; stroke-width: 0.8"/>
      </g>
     </g>
     <g id="text_5">
      <!-- 8 -->
      <g transform="translate(576.285635 541.438437) scale(0.1 -0.1)">
       <defs>
        <path id="DejaVuSans-38" d="M 2034 2216 
Q 1584 2216 1326 1975 
Q 1069 1734 1069 1313 
Q 1069 891 1326 650 
Q 1584 409 2034 409 
Q 2484 409 2743 651 
Q 3003 894 3003 1313 
Q 3003 1734 2745 1975 
Q 2488 2216 2034 2216 
z
M 1403 2484 
Q 997 2584 770 2862 
Q 544 3141 544 3541 
Q 544 4100 942 4425 
Q 1341 4750 2034 4750 
Q 2731 4750 3128 4425 
Q 3525 4100 3525 3541 
Q 3525 3141 3298 2862 
Q 3072 2584 2669 2484 
Q 3125 2378 3379 2068 
Q 3634 1759 3634 1313 
Q 3634 634 3220 271 
Q 2806 -91 2034 -91 
Q 1263 -91 848 271 
Q 434 634 434 1313 
Q 434 1759 690 2068 
Q 947 2378 1403 2484 
z
M 1172 3481 
Q 1172 3119 1398 2916 
Q 1625 2713 2034 2713 
Q 2441 2713 2670 2916 
Q 2900 3119 2900 3481 
Q 2900 3844 2670 4047 
Q 2441 4250 2034 4250 
Q 1625 4250 1398 4047 
Q 1172 3844 1172 3481 
z
" transform="scale(0.015625)"/>
       </defs>
       <use xlink:href="#DejaVuSans-38"/>
      </g>
     </g>
    </g>
    <g id="xtick_6">
     <g id="line2d_11">
      <path d="M 706.164773 526.84 
L 706.164773 7.2 
" clip-path="url(#pe26d39aeca)" style="fill: none; stroke: #b0b0b0; stroke-opacity: 0.3; stroke-width: 0.8; stroke-linecap: square"/>
     </g>
     <g id="line2d_12">
      <g>
       <use xlink:href="#m9afa504767" x="706.164773" y="526.84" style="stroke: #000000; stroke-width: 0.8"/>
      </g>
     </g>
     <g id="text_6">
      <!-- 10 -->
      <g transform="translate(699.802273 541.438437) scale(0.1 -0.1)">
       <defs>
        <path id="DejaVuSans-31" d="M 794 531 
L 1825 531 
L 1825 4091 
L 703 3866 
L 703 4441 
L 1819 4666 
L 2450 4666 
L 2450 531 
L 3481 531 
L 3481 0 
L 794 0 
L 794 531 
z
" transform="scale(0.015625)"/>
       </defs>
       <use xlink:href="#DejaVuSans-31"/>
       <use xlink:href="#DejaVuSans-30" transform="translate(63.623047 0)"/>
      </g>
     </g>
    </g>
    <g id="text_7">
     <!-- Δ/T -->
     <g transform="translate(381.165469 558.155937) scale(0.14 -0.14)">
      <defs>
       <path id="DejaVuSans-394" d="M 2188 4044 
L 906 525 
L 3472 525 
L 2188 4044 
z
M 50 0 
L 1831 4666 
L 2547 4666 
L 4325 0 
L 50 0 
z
" transform="scale(0.015625)"/>
       <path id="DejaVuSans-2f" d="M 1625 4666 
L 2156 4666 
L 531 -594 
L 0 -594 
L 1625 4666 
z
" transform="scale(0.015625)"/>
       <path id="DejaVuSans-54" d="M -19 4666 
L 3928 4666 
L 3928 4134 
L 2272 4134 
L 2272 0 
L 1638 0 
L 1638 4134 
L -19 4134 
L -19 4666 
z
" transform="scale(0.015625)"/>
      </defs>
      <use xlink:href="#DejaVuSans-394"/>
      <use xlink:href="#DejaVuSans-2f" transform="translate(68.408203 0)"/>
      <use xlink:href="#DejaVuSans-54" transform="translate(102.099609 0)"/>
     </g>
    </g>
   </g>
   <g id="matplotlib.axis_2">
    <g id="ytick_1">
     <g id="line2d_13">
      <path d="M 47.6525 503.22 
L 737.5225 503.22 
" clip-path="url(#pe26d39aeca)" style="fill: none; stroke: #b0b0b0; stroke-opacity: 0.3; stroke-width: 0.8; stroke-linecap: square"/>
     </g>
     <g id="line2d_14">
      <defs>
       <path id="m63bdc50d23" d="M 0 0 
L -3.5 0 
" style="stroke: #000000; stroke-width: 0.8"/>
      </defs>
      <g>
       <use xlink:href="#m63bdc50d23" x="47.6525" y="503.22" style="stroke: #000000; stroke-width: 0.8"/>
      </g>
     </g>
     <g id="text_8">
      <!-- 0.0 -->
      <g transform="translate(24.749375 507.019219) scale(0.1 -0.1)">
       <defs>
        <path id="DejaVuSans-2e" d="M 684 794 
L 1344 794 
L 1344 0 
L 684 0 
L 684 794 
z
" transform="scale(0.015625)"/>
       </defs>
       <use xlink:href="#DejaVuSans-30"/>
       <use xlink:href="#DejaVuSans-2e" transform="translate(63.623047 0)"/>
       <use xlink:href="#DejaVuSans-30" transform="translate(95.410156 0)"/>
      </g>
     </g>
    </g>
    <g id="ytick_2">
     <g id="line2d_15">
      <path d="M 47.6525 406.305508 
L 737.5225 406.305508 
" clip-path="url(#pe26d39aeca)" style="fill: none; stroke: #b0b0b0; stroke-opacity: 0.3; stroke-width: 0.8; stroke-linecap: square"/>
     </g>
     <g id="line2d_16">
      <g>
       <use xlink:href="#m63bdc50d23" x="47.6525" y="406.305508" style="stroke: #000000; stroke-width: 0.8"/>
      </g>
     </g>
     <g id="text_9">
      <!-- 0.2 -->
      <g transform="translate(24.749375 410.104727) scale(0.1 -0.1)">
       <use xlink:href="#DejaVuSans-30"/>
       <use xlink:href="#DejaVuSans-2e" transform="translate(63.623047 0)"/>
       <use xlink:href="#DejaVuSans-32" transform="translate(95.410156 0)"/>
      </g>
     </g>
    </g>
    <g id="ytick_3">
     <g id="line2d_17">
      <path d="M 47.6525 309.391016 
L 737.5225 309.391016 
" clip-path="url(#pe26d39aeca)" style="fill: none; stroke: #b0b0b0; stroke-opacity: 0.3; stroke-width: 0.8; stroke-linecap: square"/>
     </g>
     <g id="line2d_18">
      <g>
       <use xlink:href="#m63bdc50d23" x="47.6525" y="309.391016" style="stroke: #000000; stroke-width: 0.8"/>
      </g>
     </g>
     <g id="text_10">
      <!-- 0.4 -->
      <g transform="translate(24.749375 313.190235) scale(0.1 -0.1)">
       <use xlink:href="#DejaVuSans-30"/>
       <use xlink:href="#DejaVuSans-2e" transform="translate(63.623047 0)"/>
       <use xlink:href="#DejaVuSans-34" transform="translate(95.410156 0)"/>
      </g>
     </g>
    </g>
    <g id="ytick_4">
     <g id="line2d_19">
      <path d="M 47.6525 212.476524 
L 737.5225 212.476524 
" clip-path="url(#pe26d39aeca)" style="fill: none; stroke: #b0b0b0; stroke-opacity: 0.3; stroke-width: 0.8; stroke-linecap: square"/>
     </g>
     <g id="line2d_20">
      <g>
       <use xlink:href="#m63bdc50d23" x="47.6525" y="212.476524" style="stroke: #000000; stroke-width: 0.8"/>
      </g>
     </g>
     <g id="text_11">
      <!-- 0.6 -->
      <g transform="translate(24.749375 216.275743) scale(0.1 -0.1)">
       <use xlink:href="#DejaVuSans-30"/>
       <use xlink:href="#DejaVuSans-2e" transform="translate(63.623047 0)"/>
       <use xlink:href="#DejaVuSans-36" transform="translate(95.410156 0)"/>
      </g>
     </g>
    </g>
    <g id="ytick_5">
     <g id="line2d_21">
      <path d="M 47.6525 115.562032 
L 737.5225 115.562032 
" clip-path="url(#pe26d39aeca)" style="fill: none; stroke: #b0b0b0; stroke-opacity: 0.3; stroke-width: 0.8; stroke-linecap: square"/>
     </g>
     <g id="line2d_22">
      <g>
       <use xlink:href="#m63bdc50d23" x="47.6525" y="115.562032" style="stroke: #000000; stroke-width: 0.8"/>
      </g>
     </g>
     <g id="text_12">
      <!-- 0.8 -->
      <g transform="translate(24.749375 119.361251) scale(0.1 -0.1)">
       <use xlink:href="#DejaVuSans-30"/>
       <use xlink:href="#DejaVuSans-2e" transform="translate(63.623047 0)"/>
       <use xlink:href="#DejaVuSans-38" transform="translate(95.410156 0)"/>
      </g>
     </g>
    </g>
    <g id="ytick_6">
     <g id="line2d_23">
      <path d="M 47.6525 18.64754 
L 737.5225 18.64754 
" clip-path="url(#pe26d39aeca)" style="fill: none; stroke: #b0b0b0; stroke-opacity: 0.3; stroke-width: 0.8; stroke-linecap: square"/>
     </g>
     <g id="line2d_24">
      <g>
       <use xlink:href="#m63bdc50d23" x="47.6525" y="18.64754" style="stroke: #000000; stroke-width: 0.8"/>
      </g>
     </g>
     <g id="text_13">
      <!-- 1.0 -->
      <g transform="translate(24.749375 22.446759) scale(0.1 -0.1)">
       <use xlink:href="#DejaVuSans-31"/>
       <use xlink:href="#DejaVuSans-2e" transform="translate(63.623047 0)"/>
       <use xlink:href="#DejaVuSans-30" transform="translate(95.410156 0)"/>
      </g>
     </g>
    </g>
    <g id="text_14">
     <!-- rᵢ (mining share) -->
     <g transform="translate(17.837813 324.484531) rotate(-90) scale(0.14 -0.14)">
      <defs>
       <path id="DejaVuSans-72" d="M 2631 2963 
Q 2534 3019 2420 3045 
Q 2306 3072 2169 3072 
Q 1681 3072 1420 2755 
Q 1159 2438 1159 1844 
L 1159 0 
L 581 0 
L 581 3500 
L 1159 3500 
L 1159 2956 
Q 1341 3275 1631 3429 
Q 1922 3584 2338 3584 
Q 2397 3584 2469 3576 
Q 2541 3569 2628 3553 
L 2631 2963 
z
" transform="scale(0.015625)"/>
       <path id="DejaVuSans-1d62" d="M 381 1935 
L 744 1935 
L 744 -24 
L 381 -24 
L 381 1935 
z
M 381 2697 
L 744 2697 
L 744 2291 
L 381 2291 
L 381 2697 
z
" transform="scale(0.015625)"/>
       <path id="DejaVuSans-20" transform="scale(0.015625)"/>
       <path id="DejaVuSans-28" d="M 1984 4856 
Q 1566 4138 1362 3434 
Q 1159 2731 1159 2009 
Q 1159 1288 1364 580 
Q 1569 -128 1984 -844 
L 1484 -844 
Q 1016 -109 783 600 
Q 550 1309 550 2009 
Q 550 2706 781 3412 
Q 1013 4119 1484 4856 
L 1984 4856 
z
" transform="scale(0.015625)"/>
       <path id="DejaVuSans-6d" d="M 3328 2828 
Q 3544 3216 3844 3400 
Q 4144 3584 4550 3584 
Q 5097 3584 5394 3201 
Q 5691 2819 5691 2113 
L 5691 0 
L 5113 0 
L 5113 2094 
Q 5113 2597 4934 2840 
Q 4756 3084 4391 3084 
Q 3944 3084 3684 2787 
Q 3425 2491 3425 1978 
L 3425 0 
L 2847 0 
L 2847 2094 
Q 2847 2600 2669 2842 
Q 2491 3084 2119 3084 
Q 1678 3084 1418 2786 
Q 1159 2488 1159 1978 
L 1159 0 
L 581 0 
L 581 3500 
L 1159 3500 
L 1159 2956 
Q 1356 3278 1631 3431 
Q 1906 3584 2284 3584 
Q 2666 3584 2933 3390 
Q 3200 3197 3328 2828 
z
" transform="scale(0.015625)"/>
       <path id="DejaVuSans-69" d="M 603 3500 
L 1178 3500 
L 1178 0 
L 603 0 
L 603 3500 
z
M 603 4863 
L 1178 4863 
L 1178 4134 
L 603 4134 
L 603 4863 
z
" transform="scale(0.015625)"/>
       <path id="DejaVuSans-6e" d="M 3513 2113 
L 3513 0 
L 2938 0 
L 2938 2094 
Q 2938 2591 2744 2837 
Q 2550 3084 2163 3084 
Q 1697 3084 1428 2787 
Q 1159 2491 1159 1978 
L 1159 0 
L 581 0 
L 581 3500 
L 1159 3500 
L 1159 2956 
Q 1366 3272 1645 3428 
Q 1925 3584 2291 3584 
Q 2894 3584 3203 3211 
Q 3513 2838 3513 2113 
z
" transform="scale(0.015625)"/>
       <path id="DejaVuSans-67" d="M 2906 1791 
Q 2906 2416 2648 2759 
Q 2391 3103 1925 3103 
Q 1463 3103 1205 2759 
Q 947 2416 947 1791 
Q 947 1169 1205 825 
Q 1463 481 1925 481 
Q 2391 481 2648 825 
Q 2906 1169 2906 1791 
z
M 3481 434 
Q 3481 -459 3084 -895 
Q 2688 -1331 1869 -1331 
Q 1566 -1331 1297 -1286 
Q 1028 -1241 775 -1147 
L 775 -588 
Q 1028 -725 1275 -790 
Q 1522 -856 1778 -856 
Q 2344 -856 2625 -561 
Q 2906 -266 2906 331 
L 2906 616 
Q 2728 306 2450 153 
Q 2172 0 1784 0 
Q 1141 0 747 490 
Q 353 981 353 1791 
Q 353 2603 747 3093 
Q 1141 3584 1784 3584 
Q 2172 3584 2450 3431 
Q 2728 3278 2906 2969 
L 2906 3500 
L 3481 3500 
L 3481 434 
z
" transform="scale(0.015625)"/>
       <path id="DejaVuSans-73" d="M 2834 3397 
L 2834 2853 
Q 2591 2978 2328 3040 
Q 2066 3103 1784 3103 
Q 1356 3103 1142 2972 
Q 928 2841 928 2578 
Q 928 2378 1081 2264 
Q 1234 2150 1697 2047 
L 1894 2003 
Q 2506 1872 2764 1633 
Q 3022 1394 3022 966 
Q 3022 478 2636 193 
Q 2250 -91 1575 -91 
Q 1294 -91 989 -36 
Q 684 19 347 128 
L 347 722 
Q 666 556 975 473 
Q 1284 391 1588 391 
Q 1994 391 2212 530 
Q 2431 669 2431 922 
Q 2431 1156 2273 1281 
Q 2116 1406 1581 1522 
L 1381 1569 
Q 847 1681 609 1914 
Q 372 2147 372 2553 
Q 372 3047 722 3315 
Q 1072 3584 1716 3584 
Q 2034 3584 2315 3537 
Q 2597 3491 2834 3397 
z
" transform="scale(0.015625)"/>
       <path id="DejaVuSans-68" d="M 3513 2113 
L 3513 0 
L 2938 0 
L 2938 2094 
Q 2938 2591 2744 2837 
Q 2550 3084 2163 3084 
Q 1697 3084 1428 2787 
Q 1159 2491 1159 1978 
L 1159 0 
L 581 0 
L 581 4863 
L 1159 4863 
L 1159 2956 
Q 1366 3272 1645 3428 
Q 1925 3584 2291 3584 
Q 2894 3584 3203 3211 
Q 3513 2838 3513 2113 
z
" transform="scale(0.015625)"/>
       <path id="DejaVuSans-61" d="M 2194 1759 
Q 1497 1759 1228 1600 
Q 959 1441 959 1056 
Q 959 750 1161 570 
Q 1363 391 1709 391 
Q 2188 391 2477 730 
Q 2766 1069 2766 1631 
L 2766 1759 
L 2194 1759 
z
M 3341 1997 
L 3341 0 
L 2766 0 
L 2766 531 
Q 2569 213 2275 61 
Q 1981 -91 1556 -91 
Q 1019 -91 701 211 
Q 384 513 384 1019 
Q 384 1609 779 1909 
Q 1175 2209 1959 2209 
L 2766 2209 
L 2766 2266 
Q 2766 2663 2505 2880 
Q 2244 3097 1772 3097 
Q 1472 3097 1187 3025 
Q 903 2953 641 2809 
L 641 3341 
Q 956 3463 1253 3523 
Q 1550 3584 1831 3584 
Q 2591 3584 2966 3190 
Q 3341 2797 3341 1997 
z
" transform="scale(0.015625)"/>
       <path id="DejaVuSans-65" d="M 3597 1894 
L 3597 1613 
L 953 1613 
Q 991 1019 1311 708 
Q 1631 397 2203 397 
Q 2534 397 2845 478 
Q 3156 559 3463 722 
L 3463 178 
Q 3153 47 2828 -22 
Q 2503 -91 2169 -91 
Q 1331 -91 842 396 
Q 353 884 353 1716 
Q 353 2575 817 3079 
Q 1281 3584 2069 3584 
Q 2775 3584 3186 3129 
Q 3597 2675 3597 1894 
z
M 3022 2063 
Q 3016 2534 2758 2815 
Q 2500 3097 2075 3097 
Q 1594 3097 1305 2825 
Q 1016 2553 972 2059 
L 3022 2063 
z
" transform="scale(0.015625)"/>
       <path id="DejaVuSans-29" d="M 513 4856 
L 1013 4856 
Q 1481 4119 1714 3412 
Q 1947 2706 1947 2009 
Q 1947 1309 1714 600 
Q 1481 -109 1013 -844 
L 513 -844 
Q 928 -128 1133 580 
Q 1338 1288 1338 2009 
Q 1338 2731 1133 3434 
Q 928 4138 513 4856 
z
" transform="scale(0.015625)"/>
      </defs>
      <use xlink:href="#DejaVuSans-72"/>
      <use xlink:href="#DejaVuSans-1d62" transform="translate(41.113281 0)"/>
      <use xlink:href="#DejaVuSans-20" transform="translate(58.984375 0)"/>
      <use xlink:href="#DejaVuSans-28" transform="translate(90.771484 0)"/>
      <use xlink:href="#DejaVuSans-6d" transform="translate(129.785156 0)"/>
      <use xlink:href="#DejaVuSans-69" transform="translate(227.197266 0)"/>
      <use xlink:href="#DejaVuSans-6e" transform="translate(254.980469 0)"/>
      <use xlink:href="#DejaVuSans-69" transform="translate(318.359375 0)"/>
      <use xlink:href="#DejaVuSans-6e" transform="translate(346.142578 0)"/>
      <use xlink:href="#DejaVuSans-67" transform="translate(409.521484 0)"/>
      <use xlink:href="#DejaVuSans-20" transform="translate(472.998047 0)"/>
      <use xlink:href="#DejaVuSans-73" transform="translate(504.785156 0)"/>
      <use xlink:href="#DejaVuSans-68" transform="translate(556.884766 0)"/>
      <use xlink:href="#DejaVuSans-61" transform="translate(620.263672 0)"/>
      <use xlink:href="#DejaVuSans-72" transform="translate(681.542969 0)"/>
      <use xlink:href="#DejaVuSans-65" transform="translate(720.40625 0)"/>
      <use xlink:href="#DejaVuSans-29" transform="translate(781.929688 0)"/>
     </g>
    </g>
   </g>
   <g id="line2d_25">
    <path d="M 79.010227 421.855438 
L 79.714034 421.96689 
L 80.593951 420.716693 
L 81.725152 420.014063 
L 83.23349 419.96076 
L 85.345122 418.570037 
L 88.512569 416.462147 
L 93.791648 413.763078 
L 104.349805 401.527624 
L 136.024277 324.286773 
L 167.698749 257.381854 
L 199.373221 220.908085 
L 231.047693 189.565938 
L 262.722165 167.605114 
L 294.396637 147.020476 
L 326.071109 131.770981 
L 357.745581 118.343478 
L 389.420053 102.842005 
L 421.094525 91.03782 
L 452.768997 75.138997 
L 484.443469 64.987204 
L 516.117941 59.225638 
L 547.792413 50.639014 
L 579.466885 46.704285 
L 611.141357 48.007785 
L 642.815829 41.490286 
L 674.490301 36.600949 
L 706.164773 30.82 
" clip-path="url(#pe26d39aeca)" style="fill: none; stroke: #1f77b4; stroke-width: 2; stroke-linecap: square"/>
    <defs>
     <path id="m1889ac22f7" d="M 0 3 
C 0.795609 3 1.55874 2.683901 2.12132 2.12132 
C 2.683901 1.55874 3 0.795609 3 0 
C 3 -0.795609 2.683901 -1.55874 2.12132 -2.12132 
C 1.55874 -2.683901 0.795609 -3 0 -3 
C -0.795609 -3 -1.55874 -2.683901 -2.12132 -2.12132 
C -2.683901 -1.55874 -3 -0.795609 -3 0 
C -3 0.795609 -2.683901 1.55874 -2.12132 2.12132 
C -1.55874 2.683901 -0.795609 3 0 3 
z
" style="stroke: #1f77b4"/>
    </defs>
    <g clip-path="url(#pe26d39aeca)">
     <use xlink:href="#m1889ac22f7" x="79.010227" y="421.855438" style="fill: #1f77b4; stroke: #1f77b4"/>
     <use xlink:href="#m1889ac22f7" x="79.714034" y="421.96689" style="fill: #1f77b4; stroke: #1f77b4"/>
     <use xlink:href="#m1889ac22f7" x="80.593951" y="420.716693" style="fill: #1f77b4; stroke: #1f77b4"/>
     <use xlink:href="#m1889ac22f7" x="81.725152" y="420.014063" style="fill: #1f77b4; stroke: #1f77b4"/>
     <use xlink:href="#m1889ac22f7" x="83.23349" y="419.96076" style="fill: #1f77b4; stroke: #1f77b4"/>
     <use xlink:href="#m1889ac22f7" x="85.345122" y="418.570037" style="fill: #1f77b4; stroke: #1f77b4"/>
     <use xlink:href="#m1889ac22f7" x="88.512569" y="416.462147" style="fill: #1f77b4; stroke: #1f77b4"/>
     <use xlink:href="#m1889ac22f7" x="93.791648" y="413.763078" style="fill: #1f77b4; stroke: #1f77b4"/>
     <use xlink:href="#m1889ac22f7" x="104.349805" y="401.527624" style="fill: #1f77b4; stroke: #1f77b4"/>
     <use xlink:href="#m1889ac22f7" x="136.024277" y="324.286773" style="fill: #1f77b4; stroke: #1f77b4"/>
     <use xlink:href="#m1889ac22f7" x="167.698749" y="257.381854" style="fill: #1f77b4; stroke: #1f77b4"/>
     <use xlink:href="#m1889ac22f7" x="199.373221" y="220.908085" style="fill: #1f77b4; stroke: #1f77b4"/>
     <use xlink:href="#m1889ac22f7" x="231.047693" y="189.565938" style="fill: #1f77b4; stroke: #1f77b4"/>
     <use xlink:href="#m1889ac22f7" x="262.722165" y="167.605114" style="fill: #1f77b4; stroke: #1f77b4"/>
     <use xlink:href="#m1889ac22f7" x="294.396637" y="147.020476" style="fill: #1f77b4; stroke: #1f77b4"/>
     <use xlink:href="#m1889ac22f7" x="326.071109" y="131.770981" style="fill: #1f77b4; stroke: #1f77b4"/>
     <use xlink:href="#m1889ac22f7" x="357.745581" y="118.343478" style="fill: #1f77b4; stroke: #1f77b4"/>
     <use xlink:href="#m1889ac22f7" x="389.420053" y="102.842005" style="fill: #1f77b4; stroke: #1f77b4"/>
     <use xlink:href="#m1889ac22f7" x="421.094525" y="91.03782" style="fill: #1f77b4; stroke: #1f77b4"/>
     <use xlink:href="#m1889ac22f7" x="452.768997" y="75.138997" style="fill: #1f77b4; stroke: #1f77b4"/>
     <use xlink:href="#m1889ac22f7" x="484.443469" y="64.987204" style="fill: #1f77b4; stroke: #1f77b4"/>
     <use xlink:href="#m1889ac22f7" x="516.117941" y="59.225638" style="fill: #1f77b4; stroke: #1f77b4"/>
     <use xlink:href="#m1889ac22f7" x="547.792413" y="50.639014" style="fill: #1f77b4; stroke: #1f77b4"/>
     <use xlink:href="#m1889ac22f7" x="579.466885" y="46.704285" style="fill: #1f77b4; stroke: #1f77b4"/>
     <use xlink:href="#m1889ac22f7" x="611.141357" y="48.007785" style="fill: #1f77b4; stroke: #1f77b4"/>
     <use xlink:href="#m1889ac22f7" x="642.815829" y="41.490286" style="fill: #1f77b4; stroke: #1f77b4"/>
     <use xlink:href="#m1889ac22f7" x="674.490301" y="36.600949" style="fill: #1f77b4; stroke: #1f77b4"/>
     <use xlink:href="#m1889ac22f7" x="706.164773" y="30.82" style="fill: #1f77b4; stroke: #1f77b4"/>
    </g>
   </g>
   <g id="line2d_26">
    <path d="M 79.010227 441.320714 
L 79.714034 440.991205 
L 80.593951 440.933056 
L 81.725152 439.750699 
L 83.23349 439.934837 
L 85.345122 439.324275 
L 88.512569 439.174058 
L 93.791648 438.292136 
L 104.349805 433.015142 
L 136.024277 402.264174 
L 167.698749 386.195751 
L 199.373221 390.106251 
L 231.047693 403.751811 
L 262.722165 410.589129 
L 294.396637 424.738644 
L 326.071109 428.014354 
L 357.745581 438.490811 
L 389.420053 443.801725 
L 421.094525 454.525313 
L 452.768997 465.224673 
L 484.443469 468.088497 
L 516.117941 472.502952 
L 547.792413 479.844225 
L 579.466885 481.627451 
L 611.141357 479.199743 
L 642.815829 485.668785 
L 674.490301 490.422441 
L 706.164773 493.741763 
" clip-path="url(#pe26d39aeca)" style="fill: none; stroke: #ff7f0e; stroke-width: 2; stroke-linecap: square"/>
    <defs>
     <path id="mfb3f71eef2" d="M 0 3 
C 0.795609 3 1.55874 2.683901 2.12132 2.12132 
C 2.683901 1.55874 3 0.795609 3 0 
C 3 -0.795609 2.683901 -1.55874 2.12132 -2.12132 
C 1.55874 -2.683901 0.795609 -3 0 -3 
C -0.795609 -3 -1.55874 -2.683901 -2.12132 -2.12132 
C -2.683901 -1.55874 -3 -0.795609 -3 0 
C -3 0.795609 -2.683901 1.55874 -2.12132 2.12132 
C -1.55874 2.683901 -0.795609 3 0 3 
z
" style="stroke: #ff7f0e"/>
    </defs>
    <g clip-path="url(#pe26d39aeca)">
     <use xlink:href="#mfb3f71eef2" x="79.010227" y="441.320714" style="fill: #ff7f0e; stroke: #ff7f0e"/>
     <use xlink:href="#mfb3f71eef2" x="79.714034" y="440.991205" style="fill: #ff7f0e; stroke: #ff7f0e"/>
     <use xlink:href="#mfb3f71eef2" x="80.593951" y="440.933056" style="fill: #ff7f0e; stroke: #ff7f0e"/>
     <use xlink:href="#mfb3f71eef2" x="81.725152" y="439.750699" style="fill: #ff7f0e; stroke: #ff7f0e"/>
     <use xlink:href="#mfb3f71eef2" x="83.23349" y="439.934837" style="fill: #ff7f0e; stroke: #ff7f0e"/>
     <use xlink:href="#mfb3f71eef2" x="85.345122" y="439.324275" style="fill: #ff7f0e; stroke: #ff7f0e"/>
     <use xlink:href="#mfb3f71eef2" x="88.512569" y="439.174058" style="fill: #ff7f0e; stroke: #ff7f0e"/>
     <use xlink:href="#mfb3f71eef2" x="93.791648" y="438.292136" style="fill: #ff7f0e; stroke: #ff7f0e"/>
     <use xlink:href="#mfb3f71eef2" x="104.349805" y="433.015142" style="fill: #ff7f0e; stroke: #ff7f0e"/>
     <use xlink:href="#mfb3f71eef2" x="136.024277" y="402.264174" style="fill: #ff7f0e; stroke: #ff7f0e"/>
     <use xlink:href="#mfb3f71eef2" x="167.698749" y="386.195751" style="fill: #ff7f0e; stroke: #ff7f0e"/>
     <use xlink:href="#mfb3f71eef2" x="199.373221" y="390.106251" style="fill: #ff7f0e; stroke: #ff7f0e"/>
     <use xlink:href="#mfb3f71eef2" x="231.047693" y="403.751811" style="fill: #ff7f0e; stroke: #ff7f0e"/>
     <use xlink:href="#mfb3f71eef2" x="262.722165" y="410.589129" style="fill: #ff7f0e; stroke: #ff7f0e"/>
     <use xlink:href="#mfb3f71eef2" x="294.396637" y="424.738644" style="fill: #ff7f0e; stroke: #ff7f0e"/>
     <use xlink:href="#mfb3f71eef2" x="326.071109" y="428.014354" style="fill: #ff7f0e; stroke: #ff7f0e"/>
     <use xlink:href="#mfb3f71eef2" x="357.745581" y="438.490811" style="fill: #ff7f0e; stroke: #ff7f0e"/>
     <use xlink:href="#mfb3f71eef2" x="389.420053" y="443.801725" style="fill: #ff7f0e; stroke: #ff7f0e"/>
     <use xlink:href="#mfb3f71eef2" x="421.094525" y="454.525313" style="fill: #ff7f0e; stroke: #ff7f0e"/>
     <use xlink:href="#mfb3f71eef2" x="452.768997" y="465.224673" style="fill: #ff7f0e; stroke: #ff7f0e"/>
     <use xlink:href="#mfb3f71eef2" x="484.443469" y="468.088497" style="fill: #ff7f0e; stroke: #ff7f0e"/>
     <use xlink:href="#mfb3f71eef2" x="516.117941" y="472.502952" style="fill: #ff7f0e; stroke: #ff7f0e"/>
     <use xlink:href="#mfb3f71eef2" x="547.792413" y="479.844225" style="fill: #ff7f0e; stroke: #ff7f0e"/>
     <use xlink:href="#mfb3f71eef2" x="579.466885" y="481.627451" style="fill: #ff7f0e; stroke: #ff7f0e"/>
     <use xlink:href="#mfb3f71eef2" x="611.141357" y="479.199743" style="fill: #ff7f0e; stroke: #ff7f0e"/>
     <use xlink:href="#mfb3f71eef2" x="642.815829" y="485.668785" style="fill: #ff7f0e; stroke: #ff7f0e"/>
     <use xlink:href="#mfb3f71eef2" x="674.490301" y="490.422441" style="fill: #ff7f0e; stroke: #ff7f0e"/>
     <use xlink:href="#mfb3f71eef2" x="706.164773" y="493.741763" style="fill: #ff7f0e; stroke: #ff7f0e"/>
    </g>
   </g>
   <g id="line2d_27">
    <path d="M 79.010227 447.75099 
L 79.714034 447.784911 
L 80.593951 447.51355 
L 81.725152 447.319721 
L 83.23349 447.285801 
L 85.345122 447.019286 
L 88.512569 446.665548 
L 93.791648 444.862939 
L 104.349805 440.0899 
L 136.024277 419.970451 
L 167.698749 414.034439 
L 199.373221 423.725888 
L 231.047693 434.934049 
L 262.722165 448.0805 
L 294.396637 453.846912 
L 326.071109 465.452422 
L 357.745581 468.41316 
L 389.420053 478.564953 
L 421.094525 479.631013 
L 452.768997 484.752944 
L 484.443469 492.045759 
L 516.117941 493.329876 
L 547.792413 494.604302 
L 579.466885 496.780032 
L 611.141357 497.797634 
L 642.815829 497.928469 
L 674.490301 498.07384 
L 706.164773 500.235034 
" clip-path="url(#pe26d39aeca)" style="fill: none; stroke: #2ca02c; stroke-width: 2; stroke-linecap: square"/>
    <defs>
     <path id="mfc3fec7b73" d="M 0 3 
C 0.795609 3 1.55874 2.683901 2.12132 2.12132 
C 2.683901 1.55874 3 0.795609 3 0 
C 3 -0.795609 2.683901 -1.55874 2.12132 -2.12132 
C 1.55874 -2.683901 0.795609 -3 0 -3 
C -0.795609 -3 -1.55874 -2.683901 -2.12132 -2.12132 
C -2.683901 -1.55874 -3 -0.795609 -3 0 
C -3 0.795609 -2.683901 1.55874 -2.12132 2.12132 
C -1.55874 2.683901 -0.795609 3 0 3 
z
" style="stroke: #2ca02c"/>
    </defs>
    <g clip-path="url(#pe26d39aeca)">
     <use xlink:href="#mfc3fec7b73" x="79.010227" y="447.75099" style="fill: #2ca02c; stroke: #2ca02c"/>
     <use xlink:href="#mfc3fec7b73" x="79.714034" y="447.784911" style="fill: #2ca02c; stroke: #2ca02c"/>
     <use xlink:href="#mfc3fec7b73" x="80.593951" y="447.51355" style="fill: #2ca02c; stroke: #2ca02c"/>
     <use xlink:href="#mfc3fec7b73" x="81.725152" y="447.319721" style="fill: #2ca02c; stroke: #2ca02c"/>
     <use xlink:href="#mfc3fec7b73" x="83.23349" y="447.285801" style="fill: #2ca02c; stroke: #2ca02c"/>
     <use xlink:href="#mfc3fec7b73" x="85.345122" y="447.019286" style="fill: #2ca02c; stroke: #2ca02c"/>
     <use xlink:href="#mfc3fec7b73" x="88.512569" y="446.665548" style="fill: #2ca02c; stroke: #2ca02c"/>
     <use xlink:href="#mfc3fec7b73" x="93.791648" y="444.862939" style="fill: #2ca02c; stroke: #2ca02c"/>
     <use xlink:href="#mfc3fec7b73" x="104.349805" y="440.0899" style="fill: #2ca02c; stroke: #2ca02c"/>
     <use xlink:href="#mfc3fec7b73" x="136.024277" y="419.970451" style="fill: #2ca02c; stroke: #2ca02c"/>
     <use xlink:href="#mfc3fec7b73" x="167.698749" y="414.034439" style="fill: #2ca02c; stroke: #2ca02c"/>
     <use xlink:href="#mfc3fec7b73" x="199.373221" y="423.725888" style="fill: #2ca02c; stroke: #2ca02c"/>
     <use xlink:href="#mfc3fec7b73" x="231.047693" y="434.934049" style="fill: #2ca02c; stroke: #2ca02c"/>
     <use xlink:href="#mfc3fec7b73" x="262.722165" y="448.0805" style="fill: #2ca02c; stroke: #2ca02c"/>
     <use xlink:href="#mfc3fec7b73" x="294.396637" y="453.846912" style="fill: #2ca02c; stroke: #2ca02c"/>
     <use xlink:href="#mfc3fec7b73" x="326.071109" y="465.452422" style="fill: #2ca02c; stroke: #2ca02c"/>
     <use xlink:href="#mfc3fec7b73" x="357.745581" y="468.41316" style="fill: #2ca02c; stroke: #2ca02c"/>
     <use xlink:href="#mfc3fec7b73" x="389.420053" y="478.564953" style="fill: #2ca02c; stroke: #2ca02c"/>
     <use xlink:href="#mfc3fec7b73" x="421.094525" y="479.631013" style="fill: #2ca02c; stroke: #2ca02c"/>
     <use xlink:href="#mfc3fec7b73" x="452.768997" y="484.752944" style="fill: #2ca02c; stroke: #2ca02c"/>
     <use xlink:href="#mfc3fec7b73" x="484.443469" y="492.045759" style="fill: #2ca02c; stroke: #2ca02c"/>
     <use xlink:href="#mfc3fec7b73" x="516.117941" y="493.329876" style="fill: #2ca02c; stroke: #2ca02c"/>
     <use xlink:href="#mfc3fec7b73" x="547.792413" y="494.604302" style="fill: #2ca02c; stroke: #2ca02c"/>
     <use xlink:href="#mfc3fec7b73" x="579.466885" y="496.780032" style="fill: #2ca02c; stroke: #2ca02c"/>
     <use xlink:href="#mfc3fec7b73" x="611.141357" y="497.797634" style="fill: #2ca02c; stroke: #2ca02c"/>
     <use xlink:href="#mfc3fec7b73" x="642.815829" y="497.928469" style="fill: #2ca02c; stroke: #2ca02c"/>
     <use xlink:href="#mfc3fec7b73" x="674.490301" y="498.07384" style="fill: #2ca02c; stroke: #2ca02c"/>
     <use xlink:href="#mfc3fec7b73" x="706.164773" y="500.235034" style="fill: #2ca02c; stroke: #2ca02c"/>
    </g>
   </g>
   <g id="line2d_28">
    <path d="M 79.010227 492.903452 
L 79.714034 492.603017 
L 80.593951 492.171748 
L 81.725152 492.767772 
L 83.23349 492.729006 
L 85.345122 492.641783 
L 88.512569 492.399497 
L 93.791648 492.772618 
L 104.349805 493.417099 
L 136.024277 496.876946 
L 167.698749 500.40948 
L 199.373221 501.805048 
L 231.047693 502.633667 
L 262.722165 502.968022 
L 294.396637 503.137623 
L 326.071109 503.171543 
L 357.745581 503.176388 
L 389.420053 503.190926 
L 421.094525 503.166697 
L 452.768997 503.215154 
L 484.443469 503.200617 
L 516.117941 503.22 
L 547.792413 503.22 
L 579.466885 503.210309 
L 611.141357 503.22 
L 642.815829 503.22 
L 674.490301 503.22 
L 706.164773 503.22 
" clip-path="url(#pe26d39aeca)" style="fill: none; stroke: #d62728; stroke-width: 2; stroke-linecap: square"/>
    <defs>
     <path id="m74993b87ed" d="M 0 3 
C 0.795609 3 1.55874 2.683901 2.12132 2.12132 
C 2.683901 1.55874 3 0.795609 3 0 
C 3 -0.795609 2.683901 -1.55874 2.12132 -2.12132 
C 1.55874 -2.683901 0.795609 -3 0 -3 
C -0.795609 -3 -1.55874 -2.683901 -2.12132 -2.12132 
C -2.683901 -1.55874 -3 -0.795609 -3 0 
C -3 0.795609 -2.683901 1.55874 -2.12132 2.12132 
C -1.55874 2.683901 -0.795609 3 0 3 
z
" style="stroke: #d62728"/>
    </defs>
    <g clip-path="url(#pe26d39aeca)">
     <use xlink:href="#m74993b87ed" x="79.010227" y="492.903452" style="fill: #d62728; stroke: #d62728"/>
     <use xlink:href="#m74993b87ed" x="79.714034" y="492.603017" style="fill: #d62728; stroke: #d62728"/>
     <use xlink:href="#m74993b87ed" x="80.593951" y="492.171748" style="fill: #d62728; stroke: #d62728"/>
     <use xlink:href="#m74993b87ed" x="81.725152" y="492.767772" style="fill: #d62728; stroke: #d62728"/>
     <use xlink:href="#m74993b87ed" x="83.23349" y="492.729006" style="fill: #d62728; stroke: #d62728"/>
     <use xlink:href="#m74993b87ed" x="85.345122" y="492.641783" style="fill: #d62728; stroke: #d62728"/>
     <use xlink:href="#m74993b87ed" x="88.512569" y="492.399497" style="fill: #d62728; stroke: #d62728"/>
     <use xlink:href="#m74993b87ed" x="93.791648" y="492.772618" style="fill: #d62728; stroke: #d62728"/>
     <use xlink:href="#m74993b87ed" x="104.349805" y="493.417099" style="fill: #d62728; stroke: #d62728"/>
     <use xlink:href="#m74993b87ed" x="136.024277" y="496.876946" style="fill: #d62728; stroke: #d62728"/>
     <use xlink:href="#m74993b87ed" x="167.698749" y="500.40948" style="fill: #d62728; stroke: #d62728"/>
     <use xlink:href="#m74993b87ed" x="199.373221" y="501.805048" style="fill: #d62728; stroke: #d62728"/>
     <use xlink:href="#m74993b87ed" x="231.047693" y="502.633667" style="fill: #d62728; stroke: #d62728"/>
     <use xlink:href="#m74993b87ed" x="262.722165" y="502.968022" style="fill: #d62728; stroke: #d62728"/>
     <use xlink:href="#m74993b87ed" x="294.396637" y="503.137623" style="fill: #d62728; stroke: #d62728"/>
     <use xlink:href="#m74993b87ed" x="326.071109" y="503.171543" style="fill: #d62728; stroke: #d62728"/>
     <use xlink:href="#m74993b87ed" x="357.745581" y="503.176388" style="fill: #d62728; stroke: #d62728"/>
     <use xlink:href="#m74993b87ed" x="389.420053" y="503.190926" style="fill: #d62728; stroke: #d62728"/>
     <use xlink:href="#m74993b87ed" x="421.094525" y="503.166697" style="fill: #d62728; stroke: #d62728"/>
     <use xlink:href="#m74993b87ed" x="452.768997" y="503.215154" style="fill: #d62728; stroke: #d62728"/>
     <use xlink:href="#m74993b87ed" x="484.443469" y="503.200617" style="fill: #d62728; stroke: #d62728"/>
     <use xlink:href="#m74993b87ed" x="516.117941" y="503.22" style="fill: #d62728; stroke: #d62728"/>
     <use xlink:href="#m74993b87ed" x="547.792413" y="503.22" style="fill: #d62728; stroke: #d62728"/>
     <use xlink:href="#m74993b87ed" x="579.466885" y="503.210309" style="fill: #d62728; stroke: #d62728"/>
     <use xlink:href="#m74993b87ed" x="611.141357" y="503.22" style="fill: #d62728; stroke: #d62728"/>
     <use xlink:href="#m74993b87ed" x="642.815829" y="503.22" style="fill: #d62728; stroke: #d62728"/>
     <use xlink:href="#m74993b87ed" x="674.490301" y="503.22" style="fill: #d62728; stroke: #d62728"/>
     <use xlink:href="#m74993b87ed" x="706.164773" y="503.22" style="fill: #d62728; stroke: #d62728"/>
    </g>
   </g>
   <g id="line2d_29">
    <path d="M 79.010227 497.172536 
L 79.714034 497.017473 
L 80.593951 497.027164 
L 81.725152 496.935095 
L 83.23349 497.148307 
L 85.345122 497.259759 
L 88.512569 497.419668 
L 93.791648 497.13377 
L 104.349805 497.598959 
L 136.024277 500.021822 
L 167.698749 502.003723 
L 199.373221 502.779039 
L 231.047693 503.079474 
L 262.722165 503.157006 
L 294.396637 503.171543 
L 326.071109 503.22 
L 357.745581 503.22 
L 389.420053 503.215154 
L 421.094525 503.22 
L 452.768997 503.22 
L 484.443469 503.210309 
L 516.117941 503.22 
L 547.792413 503.22 
L 579.466885 503.22 
L 611.141357 503.22 
L 642.815829 503.22 
L 674.490301 503.22 
L 706.164773 503.22 
" clip-path="url(#pe26d39aeca)" style="fill: none; stroke: #9467bd; stroke-width: 2; stroke-linecap: square"/>
    <defs>
     <path id="me383103150" d="M 0 3 
C 0.795609 3 1.55874 2.683901 2.12132 2.12132 
C 2.683901 1.55874 3 0.795609 3 0 
C 3 -0.795609 2.683901 -1.55874 2.12132 -2.12132 
C 1.55874 -2.683901 0.795609 -3 0 -3 
C -0.795609 -3 -1.55874 -2.683901 -2.12132 -2.12132 
C -2.683901 -1.55874 -3 -0.795609 -3 0 
C -3 0.795609 -2.683901 1.55874 -2.12132 2.12132 
C -1.55874 2.683901 -0.795609 3 0 3 
z
" style="stroke: #9467bd"/>
    </defs>
    <g clip-path="url(#pe26d39aeca)">
     <use xlink:href="#me383103150" x="79.010227" y="497.172536" style="fill: #9467bd; stroke: #9467bd"/>
     <use xlink:href="#me383103150" x="79.714034" y="497.017473" style="fill: #9467bd; stroke: #9467bd"/>
     <use xlink:href="#me383103150" x="80.593951" y="497.027164" style="fill: #9467bd; stroke: #9467bd"/>
     <use xlink:href="#me383103150" x="81.725152" y="496.935095" style="fill: #9467bd; stroke: #9467bd"/>
     <use xlink:href="#me383103150" x="83.23349" y="497.148307" style="fill: #9467bd; stroke: #9467bd"/>
     <use xlink:href="#me383103150" x="85.345122" y="497.259759" style="fill: #9467bd; stroke: #9467bd"/>
     <use xlink:href="#me383103150" x="88.512569" y="497.419668" style="fill: #9467bd; stroke: #9467bd"/>
     <use xlink:href="#me383103150" x="93.791648" y="497.13377" style="fill: #9467bd; stroke: #9467bd"/>
     <use xlink:href="#me383103150" x="104.349805" y="497.598959" style="fill: #9467bd; stroke: #9467bd"/>
     <use xlink:href="#me383103150" x="136.024277" y="500.021822" style="fill: #9467bd; stroke: #9467bd"/>
     <use xlink:href="#me383103150" x="167.698749" y="502.003723" style="fill: #9467bd; stroke: #9467bd"/>
     <use xlink:href="#me383103150" x="199.373221" y="502.779039" style="fill: #9467bd; stroke: #9467bd"/>
     <use xlink:href="#me383103150" x="231.047693" y="503.079474" style="fill: #9467bd; stroke: #9467bd"/>
     <use xlink:href="#me383103150" x="262.722165" y="503.157006" style="fill: #9467bd; stroke: #9467bd"/>
     <use xlink:href="#me383103150" x="294.396637" y="503.171543" style="fill: #9467bd; stroke: #9467bd"/>
     <use xlink:href="#me383103150" x="326.071109" y="503.22" style="fill: #9467bd; stroke: #9467bd"/>
     <use xlink:href="#me383103150" x="357.745581" y="503.22" style="fill: #9467bd; stroke: #9467bd"/>
     <use xlink:href="#me383103150" x="389.420053" y="503.215154" style="fill: #9467bd; stroke: #9467bd"/>
     <use xlink:href="#me383103150" x="421.094525" y="503.22" style="fill: #9467bd; stroke: #9467bd"/>
     <use xlink:href="#me383103150" x="452.768997" y="503.22" style="fill: #9467bd; stroke: #9467bd"/>
     <use xlink:href="#me383103150" x="484.443469" y="503.210309" style="fill: #9467bd; stroke: #9467bd"/>
     <use xlink:href="#me383103150" x="516.117941" y="503.22" style="fill: #9467bd; stroke: #9467bd"/>
     <use xlink:href="#me383103150" x="547.792413" y="503.22" style="fill: #9467bd; stroke: #9467bd"/>
     <use xlink:href="#me383103150" x="579.466885" y="503.22" style="fill: #9467bd; stroke: #9467bd"/>
     <use xlink:href="#me383103150" x="611.141357" y="503.22" style="fill: #9467bd; stroke: #9467bd"/>
     <use xlink:href="#me383103150" x="642.815829" y="503.22" style="fill: #9467bd; stroke: #9467bd"/>
     <use xlink:href="#me383103150" x="674.490301" y="503.22" style="fill: #9467bd; stroke: #9467bd"/>
     <use xlink:href="#me383103150" x="706.164773" y="503.22" style="fill: #9467bd; stroke: #9467bd"/>
    </g>
   </g>
   <g id="line2d_30">
    <path d="M 79.010227 500.176885 
L 79.714034 500.041205 
L 80.593951 500.225342 
L 81.725152 500.220496 
L 83.23349 500.196268 
L 85.345122 500.336794 
L 88.512569 500.244725 
L 93.791648 500.331948 
L 104.349805 500.390097 
L 136.024277 501.742054 
L 167.698749 502.759656 
L 199.373221 503.064937 
L 231.047693 503.147314 
L 262.722165 503.205463 
L 294.396637 503.22 
L 326.071109 503.22 
L 357.745581 503.215154 
L 389.420053 503.22 
L 421.094525 503.22 
L 452.768997 503.22 
L 484.443469 503.22 
L 516.117941 503.22 
L 547.792413 503.22 
L 579.466885 503.22 
L 611.141357 503.22 
L 642.815829 503.22 
L 674.490301 503.22 
L 706.164773 503.22 
" clip-path="url(#pe26d39aeca)" style="fill: none; stroke: #8c564b; stroke-width: 2; stroke-linecap: square"/>
    <defs>
     <path id="m48cf2ba1cc" d="M 0 3 
C 0.795609 3 1.55874 2.683901 2.12132 2.12132 
C 2.683901 1.55874 3 0.795609 3 0 
C 3 -0.795609 2.683901 -1.55874 2.12132 -2.12132 
C 1.55874 -2.683901 0.795609 -3 0 -3 
C -0.795609 -3 -1.55874 -2.683901 -2.12132 -2.12132 
C -2.683901 -1.55874 -3 -0.795609 -3 0 
C -3 0.795609 -2.683901 1.55874 -2.12132 2.12132 
C -1.55874 2.683901 -0.795609 3 0 3 
z
" style="stroke: #8c564b"/>
    </defs>
    <g clip-path="url(#pe26d39aeca)">
     <use xlink:href="#m48cf2ba1cc" x="79.010227" y="500.176885" style="fill: #8c564b; stroke: #8c564b"/>
     <use xlink:href="#m48cf2ba1cc" x="79.714034" y="500.041205" style="fill: #8c564b; stroke: #8c564b"/>
     <use xlink:href="#m48cf2ba1cc" x="80.593951" y="500.225342" style="fill: #8c564b; stroke: #8c564b"/>
     <use xlink:href="#m48cf2ba1cc" x="81.725152" y="500.220496" style="fill: #8c564b; stroke: #8c564b"/>
     <use xlink:href="#m48cf2ba1cc" x="83.23349" y="500.196268" style="fill: #8c564b; stroke: #8c564b"/>
     <use xlink:href="#m48cf2ba1cc" x="85.345122" y="500.336794" style="fill: #8c564b; stroke: #8c564b"/>
     <use xlink:href="#m48cf2ba1cc" x="88.512569" y="500.244725" style="fill: #8c564b; stroke: #8c564b"/>
     <use xlink:href="#m48cf2ba1cc" x="93.791648" y="500.331948" style="fill: #8c564b; stroke: #8c564b"/>
     <use xlink:href="#m48cf2ba1cc" x="104.349805" y="500.390097" style="fill: #8c564b; stroke: #8c564b"/>
     <use xlink:href="#m48cf2ba1cc" x="136.024277" y="501.742054" style="fill: #8c564b; stroke: #8c564b"/>
     <use xlink:href="#m48cf2ba1cc" x="167.698749" y="502.759656" style="fill: #8c564b; stroke: #8c564b"/>
     <use xlink:href="#m48cf2ba1cc" x="199.373221" y="503.064937" style="fill: #8c564b; stroke: #8c564b"/>
     <use xlink:href="#m48cf2ba1cc" x="231.047693" y="503.147314" style="fill: #8c564b; stroke: #8c564b"/>
     <use xlink:href="#m48cf2ba1cc" x="262.722165" y="503.205463" style="fill: #8c564b; stroke: #8c564b"/>
     <use xlink:href="#m48cf2ba1cc" x="294.396637" y="503.22" style="fill: #8c564b; stroke: #8c564b"/>
     <use xlink:href="#m48cf2ba1cc" x="326.071109" y="503.22" style="fill: #8c564b; stroke: #8c564b"/>
     <use xlink:href="#m48cf2ba1cc" x="357.745581" y="503.215154" style="fill: #8c564b; stroke: #8c564b"/>
     <use xlink:href="#m48cf2ba1cc" x="389.420053" y="503.22" style="fill: #8c564b; stroke: #8c564b"/>
     <use xlink:href="#m48cf2ba1cc" x="421.094525" y="503.22" style="fill: #8c564b; stroke: #8c564b"/>
     <use xlink:href="#m48cf2ba1cc" x="452.768997" y="503.22" style="fill: #8c564b; stroke: #8c564b"/>
     <use xlink:href="#m48cf2ba1cc" x="484.443469" y="503.22" style="fill: #8c564b; stroke: #8c564b"/>
     <use xlink:href="#m48cf2ba1cc" x="516.117941" y="503.22" style="fill: #8c564b; stroke: #8c564b"/>
     <use xlink:href="#m48cf2ba1cc" x="547.792413" y="503.22" style="fill: #8c564b; stroke: #8c564b"/>
     <use xlink:href="#m48cf2ba1cc" x="579.466885" y="503.22" style="fill: #8c564b; stroke: #8c564b"/>
     <use xlink:href="#m48cf2ba1cc" x="611.141357" y="503.22" style="fill: #8c564b; stroke: #8c564b"/>
     <use xlink:href="#m48cf2ba1cc" x="642.815829" y="503.22" style="fill: #8c564b; stroke: #8c564b"/>
     <use xlink:href="#m48cf2ba1cc" x="674.490301" y="503.22" style="fill: #8c564b; stroke: #8c564b"/>
     <use xlink:href="#m48cf2ba1cc" x="706.164773" y="503.22" style="fill: #8c564b; stroke: #8c564b"/>
    </g>
   </g>
   <g id="line2d_31">
    <path d="M 79.010227 501.586991 
L 79.714034 501.717825 
L 80.593951 501.693597 
L 81.725152 501.78082 
L 83.23349 501.834123 
L 85.345122 501.727517 
L 88.512569 501.906809 
L 93.791648 501.945574 
L 104.349805 501.88258 
L 136.024277 502.614284 
L 167.698749 503.021325 
L 199.373221 503.15216 
L 231.047693 503.200617 
L 262.722165 503.215154 
L 294.396637 503.22 
L 326.071109 503.22 
L 357.745581 503.205463 
L 389.420053 503.22 
L 421.094525 503.22 
L 452.768997 503.22 
L 484.443469 503.22 
L 516.117941 503.22 
L 547.792413 503.22 
L 579.466885 503.22 
L 611.141357 503.22 
L 642.815829 503.22 
L 674.490301 503.22 
L 706.164773 503.22 
" clip-path="url(#pe26d39aeca)" style="fill: none; stroke: #e377c2; stroke-width: 2; stroke-linecap: square"/>
    <defs>
     <path id="m6ba71feb41" d="M 0 3 
C 0.795609 3 1.55874 2.683901 2.12132 2.12132 
C 2.683901 1.55874 3 0.795609 3 0 
C 3 -0.795609 2.683901 -1.55874 2.12132 -2.12132 
C 1.55874 -2.683901 0.795609 -3 0 -3 
C -0.795609 -3 -1.55874 -2.683901 -2.12132 -2.12132 
C -2.683901 -1.55874 -3 -0.795609 -3 0 
C -3 0.795609 -2.683901 1.55874 -2.12132 2.12132 
C -1.55874 2.683901 -0.795609 3 0 3 
z
" style="stroke: #e377c2"/>
    </defs>
    <g clip-path="url(#pe26d39aeca)">
     <use xlink:href="#m6ba71feb41" x="79.010227" y="501.586991" style="fill: #e377c2; stroke: #e377c2"/>
     <use xlink:href="#m6ba71feb41" x="79.714034" y="501.717825" style="fill: #e377c2; stroke: #e377c2"/>
     <use xlink:href="#m6ba71feb41" x="80.593951" y="501.693597" style="fill: #e377c2; stroke: #e377c2"/>
     <use xlink:href="#m6ba71feb41" x="81.725152" y="501.78082" style="fill: #e377c2; stroke: #e377c2"/>
     <use xlink:href="#m6ba71feb41" x="83.23349" y="501.834123" style="fill: #e377c2; stroke: #e377c2"/>
     <use xlink:href="#m6ba71feb41" x="85.345122" y="501.727517" style="fill: #e377c2; stroke: #e377c2"/>
     <use xlink:href="#m6ba71feb41" x="88.512569" y="501.906809" style="fill: #e377c2; stroke: #e377c2"/>
     <use xlink:href="#m6ba71feb41" x="93.791648" y="501.945574" style="fill: #e377c2; stroke: #e377c2"/>
     <use xlink:href="#m6ba71feb41" x="104.349805" y="501.88258" style="fill: #e377c2; stroke: #e377c2"/>
     <use xlink:href="#m6ba71feb41" x="136.024277" y="502.614284" style="fill: #e377c2; stroke: #e377c2"/>
     <use xlink:href="#m6ba71feb41" x="167.698749" y="503.021325" style="fill: #e377c2; stroke: #e377c2"/>
     <use xlink:href="#m6ba71feb41" x="199.373221" y="503.15216" style="fill: #e377c2; stroke: #e377c2"/>
     <use xlink:href="#m6ba71feb41" x="231.047693" y="503.200617" style="fill: #e377c2; stroke: #e377c2"/>
     <use xlink:href="#m6ba71feb41" x="262.722165" y="503.215154" style="fill: #e377c2; stroke: #e377c2"/>
     <use xlink:href="#m6ba71feb41" x="294.396637" y="503.22" style="fill: #e377c2; stroke: #e377c2"/>
     <use xlink:href="#m6ba71feb41" x="326.071109" y="503.22" style="fill: #e377c2; stroke: #e377c2"/>
     <use xlink:href="#m6ba71feb41" x="357.745581" y="503.205463" style="fill: #e377c2; stroke: #e377c2"/>
     <use xlink:href="#m6ba71feb41" x="389.420053" y="503.22" style="fill: #e377c2; stroke: #e377c2"/>
     <use xlink:href="#m6ba71feb41" x="421.094525" y="503.22" style="fill: #e377c2; stroke: #e377c2"/>
     <use xlink:href="#m6ba71feb41" x="452.768997" y="503.22" style="fill: #e377c2; stroke: #e377c2"/>
     <use xlink:href="#m6ba71feb41" x="484.443469" y="503.22" style="fill: #e377c2; stroke: #e377c2"/>
     <use xlink:href="#m6ba71feb41" x="516.117941" y="503.22" style="fill: #e377c2; stroke: #e377c2"/>
     <use xlink:href="#m6ba71feb41" x="547.792413" y="503.22" style="fill: #e377c2; stroke: #e377c2"/>
     <use xlink:href="#m6ba71feb41" x="579.466885" y="503.22" style="fill: #e377c2; stroke: #e377c2"/>
     <use xlink:href="#m6ba71feb41" x="611.141357" y="503.22" style="fill: #e377c2; stroke: #e377c2"/>
     <use xlink:href="#m6ba71feb41" x="642.815829" y="503.22" style="fill: #e377c2; stroke: #e377c2"/>
     <use xlink:href="#m6ba71feb41" x="674.490301" y="503.22" style="fill: #e377c2; stroke: #e377c2"/>
     <use xlink:href="#m6ba71feb41" x="706.164773" y="503.22" style="fill: #e377c2; stroke: #e377c2"/>
    </g>
   </g>
   <g id="line2d_32">
    <path d="M 79.010227 501.78082 
L 79.714034 501.693597 
L 80.593951 501.664522 
L 81.725152 501.795357 
L 83.23349 501.751745 
L 85.345122 501.732363 
L 88.512569 501.877734 
L 93.791648 501.761437 
L 104.349805 501.921346 
L 136.024277 502.580364 
L 167.698749 503.064937 
L 199.373221 503.098857 
L 231.047693 503.195771 
L 262.722165 503.22 
L 294.396637 503.22 
L 326.071109 503.22 
L 357.745581 503.22 
L 389.420053 503.22 
L 421.094525 503.22 
L 452.768997 503.22 
L 484.443469 503.22 
L 516.117941 503.22 
L 547.792413 503.22 
L 579.466885 503.22 
L 611.141357 503.22 
L 642.815829 503.22 
L 674.490301 503.22 
L 706.164773 503.22 
" clip-path="url(#pe26d39aeca)" style="fill: none; stroke: #17becf; stroke-width: 2; stroke-linecap: square"/>
    <defs>
     <path id="m509217f4c2" d="M 0 3 
C 0.795609 3 1.55874 2.683901 2.12132 2.12132 
C 2.683901 1.55874 3 0.795609 3 0 
C 3 -0.795609 2.683901 -1.55874 2.12132 -2.12132 
C 1.55874 -2.683901 0.795609 -3 0 -3 
C -0.795609 -3 -1.55874 -2.683901 -2.12132 -2.12132 
C -2.683901 -1.55874 -3 -0.795609 -3 0 
C -3 0.795609 -2.683901 1.55874 -2.12132 2.12132 
C -1.55874 2.683901 -0.795609 3 0 3 
z
" style="stroke: #17becf"/>
    </defs>
    <g clip-path="url(#pe26d39aeca)">
     <use xlink:href="#m509217f4c2" x="79.010227" y="501.78082" style="fill: #17becf; stroke: #17becf"/>
     <use xlink:href="#m509217f4c2" x="79.714034" y="501.693597" style="fill: #17becf; stroke: #17becf"/>
     <use xlink:href="#m509217f4c2" x="80.593951" y="501.664522" style="fill: #17becf; stroke: #17becf"/>
     <use xlink:href="#m509217f4c2" x="81.725152" y="501.795357" style="fill: #17becf; stroke: #17becf"/>
     <use xlink:href="#m509217f4c2" x="83.23349" y="501.751745" style="fill: #17becf; stroke: #17becf"/>
     <use xlink:href="#m509217f4c2" x="85.345122" y="501.732363" style="fill: #17becf; stroke: #17becf"/>
     <use xlink:href="#m509217f4c2" x="88.512569" y="501.877734" style="fill: #17becf; stroke: #17becf"/>
     <use xlink:href="#m509217f4c2" x="93.791648" y="501.761437" style="fill: #17becf; stroke: #17becf"/>
     <use xlink:href="#m509217f4c2" x="104.349805" y="501.921346" style="fill: #17becf; stroke: #17becf"/>
     <use xlink:href="#m509217f4c2" x="136.024277" y="502.580364" style="fill: #17becf; stroke: #17becf"/>
     <use xlink:href="#m509217f4c2" x="167.698749" y="503.064937" style="fill: #17becf; stroke: #17becf"/>
     <use xlink:href="#m509217f4c2" x="199.373221" y="503.098857" style="fill: #17becf; stroke: #17becf"/>
     <use xlink:href="#m509217f4c2" x="231.047693" y="503.195771" style="fill: #17becf; stroke: #17becf"/>
     <use xlink:href="#m509217f4c2" x="262.722165" y="503.22" style="fill: #17becf; stroke: #17becf"/>
     <use xlink:href="#m509217f4c2" x="294.396637" y="503.22" style="fill: #17becf; stroke: #17becf"/>
     <use xlink:href="#m509217f4c2" x="326.071109" y="503.22" style="fill: #17becf; stroke: #17becf"/>
     <use xlink:href="#m509217f4c2" x="357.745581" y="503.22" style="fill: #17becf; stroke: #17becf"/>
     <use xlink:href="#m509217f4c2" x="389.420053" y="503.22" style="fill: #17becf; stroke: #17becf"/>
     <use xlink:href="#m509217f4c2" x="421.094525" y="503.22" style="fill: #17becf; stroke: #17becf"/>
     <use xlink:href="#m509217f4c2" x="452.768997" y="503.22" style="fill: #17becf; stroke: #17becf"/>
     <use xlink:href="#m509217f4c2" x="484.443469" y="503.22" style="fill: #17becf; stroke: #17becf"/>
     <use xlink:href="#m509217f4c2" x="516.117941" y="503.22" style="fill: #17becf; stroke: #17becf"/>
     <use xlink:href="#m509217f4c2" x="547.792413" y="503.22" style="fill: #17becf; stroke: #17becf"/>
     <use xlink:href="#m509217f4c2" x="579.466885" y="503.22" style="fill: #17becf; stroke: #17becf"/>
     <use xlink:href="#m509217f4c2" x="611.141357" y="503.22" style="fill: #17becf; stroke: #17becf"/>
     <use xlink:href="#m509217f4c2" x="642.815829" y="503.22" style="fill: #17becf; stroke: #17becf"/>
     <use xlink:href="#m509217f4c2" x="674.490301" y="503.22" style="fill: #17becf; stroke: #17becf"/>
     <use xlink:href="#m509217f4c2" x="706.164773" y="503.22" style="fill: #17becf; stroke: #17becf"/>
    </g>
   </g>
   <g id="line2d_33">
    <path d="M 79.010227 502.41561 
L 79.714034 502.425301 
L 80.593951 502.444684 
L 81.725152 502.260547 
L 83.23349 502.507678 
L 85.345122 502.313849 
L 88.512569 502.473758 
L 93.791648 502.434993 
L 104.349805 502.594902 
L 136.024277 502.885645 
L 167.698749 503.108548 
L 199.373221 503.166697 
L 231.047693 503.22 
L 262.722165 503.22 
L 294.396637 503.22 
L 326.071109 503.22 
L 357.745581 503.22 
L 389.420053 503.22 
L 421.094525 503.22 
L 452.768997 503.22 
L 484.443469 503.22 
L 516.117941 503.22 
L 547.792413 503.22 
L 579.466885 503.22 
L 611.141357 503.22 
L 642.815829 503.22 
L 674.490301 503.22 
L 706.164773 503.22 
" clip-path="url(#pe26d39aeca)" style="fill: none; stroke: #bcbd22; stroke-width: 2; stroke-linecap: square"/>
    <defs>
     <path id="m0bc5052e81" d="M 0 3 
C 0.795609 3 1.55874 2.683901 2.12132 2.12132 
C 2.683901 1.55874 3 0.795609 3 0 
C 3 -0.795609 2.683901 -1.55874 2.12132 -2.12132 
C 1.55874 -2.683901 0.795609 -3 0 -3 
C -0.795609 -3 -1.55874 -2.683901 -2.12132 -2.12132 
C -2.683901 -1.55874 -3 -0.795609 -3 0 
C -3 0.795609 -2.683901 1.55874 -2.12132 2.12132 
C -1.55874 2.683901 -0.795609 3 0 3 
z
" style="stroke: #bcbd22"/>
    </defs>
    <g clip-path="url(#pe26d39aeca)">
     <use xlink:href="#m0bc5052e81" x="79.010227" y="502.41561" style="fill: #bcbd22; stroke: #bcbd22"/>
     <use xlink:href="#m0bc5052e81" x="79.714034" y="502.425301" style="fill: #bcbd22; stroke: #bcbd22"/>
     <use xlink:href="#m0bc5052e81" x="80.593951" y="502.444684" style="fill: #bcbd22; stroke: #bcbd22"/>
     <use xlink:href="#m0bc5052e81" x="81.725152" y="502.260547" style="fill: #bcbd22; stroke: #bcbd22"/>
     <use xlink:href="#m0bc5052e81" x="83.23349" y="502.507678" style="fill: #bcbd22; stroke: #bcbd22"/>
     <use xlink:href="#m0bc5052e81" x="85.345122" y="502.313849" style="fill: #bcbd22; stroke: #bcbd22"/>
     <use xlink:href="#m0bc5052e81" x="88.512569" y="502.473758" style="fill: #bcbd22; stroke: #bcbd22"/>
     <use xlink:href="#m0bc5052e81" x="93.791648" y="502.434993" style="fill: #bcbd22; stroke: #bcbd22"/>
     <use xlink:href="#m0bc5052e81" x="104.349805" y="502.594902" style="fill: #bcbd22; stroke: #bcbd22"/>
     <use xlink:href="#m0bc5052e81" x="136.024277" y="502.885645" style="fill: #bcbd22; stroke: #bcbd22"/>
     <use xlink:href="#m0bc5052e81" x="167.698749" y="503.108548" style="fill: #bcbd22; stroke: #bcbd22"/>
     <use xlink:href="#m0bc5052e81" x="199.373221" y="503.166697" style="fill: #bcbd22; stroke: #bcbd22"/>
     <use xlink:href="#m0bc5052e81" x="231.047693" y="503.22" style="fill: #bcbd22; stroke: #bcbd22"/>
     <use xlink:href="#m0bc5052e81" x="262.722165" y="503.22" style="fill: #bcbd22; stroke: #bcbd22"/>
     <use xlink:href="#m0bc5052e81" x="294.396637" y="503.22" style="fill: #bcbd22; stroke: #bcbd22"/>
     <use xlink:href="#m0bc5052e81" x="326.071109" y="503.22" style="fill: #bcbd22; stroke: #bcbd22"/>
     <use xlink:href="#m0bc5052e81" x="357.745581" y="503.22" style="fill: #bcbd22; stroke: #bcbd22"/>
     <use xlink:href="#m0bc5052e81" x="389.420053" y="503.22" style="fill: #bcbd22; stroke: #bcbd22"/>
     <use xlink:href="#m0bc5052e81" x="421.094525" y="503.22" style="fill: #bcbd22; stroke: #bcbd22"/>
     <use xlink:href="#m0bc5052e81" x="452.768997" y="503.22" style="fill: #bcbd22; stroke: #bcbd22"/>
     <use xlink:href="#m0bc5052e81" x="484.443469" y="503.22" style="fill: #bcbd22; stroke: #bcbd22"/>
     <use xlink:href="#m0bc5052e81" x="516.117941" y="503.22" style="fill: #bcbd22; stroke: #bcbd22"/>
     <use xlink:href="#m0bc5052e81" x="547.792413" y="503.22" style="fill: #bcbd22; stroke: #bcbd22"/>
     <use xlink:href="#m0bc5052e81" x="579.466885" y="503.22" style="fill: #bcbd22; stroke: #bcbd22"/>
     <use xlink:href="#m0bc5052e81" x="611.141357" y="503.22" style="fill: #bcbd22; stroke: #bcbd22"/>
     <use xlink:href="#m0bc5052e81" x="642.815829" y="503.22" style="fill: #bcbd22; stroke: #bcbd22"/>
     <use xlink:href="#m0bc5052e81" x="674.490301" y="503.22" style="fill: #bcbd22; stroke: #bcbd22"/>
     <use xlink:href="#m0bc5052e81" x="706.164773" y="503.22" style="fill: #bcbd22; stroke: #bcbd22"/>
    </g>
   </g>
   <g id="patch_3">
    <path d="M 47.6525 526.84 
L 47.6525 7.2 
" style="fill: none; stroke: #000000; stroke-width: 0.8; stroke-linejoin: miter; stroke-linecap: square"/>
   </g>
   <g id="patch_4">
    <path d="M 737.5225 526.84 
L 737.5225 7.2 
" style="fill: none; stroke: #000000; stroke-width: 0.8; stroke-linejoin: miter; stroke-linecap: square"/>
   </g>
   <g id="patch_5">
    <path d="M 47.6525 526.84 
L 737.5225 526.84 
" style="fill: none; stroke: #000000; stroke-width: 0.8; stroke-linejoin: miter; stroke-linecap: square"/>
   </g>
   <g id="patch_6">
    <path d="M 47.6525 7.2 
L 737.5225 7.2 
" style="fill: none; stroke: #000000; stroke-width: 0.8; stroke-linejoin: miter; stroke-linecap: square"/>
   </g>
   <g id="legend_1">
    <g id="patch_7">
     <path d="M 779.016 147.303125 
L 848.564437 147.303125 
Q 850.564437 147.303125 850.564437 145.303125 
L 850.564437 14.2 
Q 850.564437 12.2 848.564437 12.2 
L 779.016 12.2 
Q 777.016 12.2 777.016 14.2 
L 777.016 145.303125 
Q 777.016 147.303125 779.016 147.303125 
z
" style="fill: #ffffff; opacity: 0.8; stroke: #cccccc; stroke-linejoin: miter"/>
    </g>
    <g id="line2d_34">
     <path d="M 781.016 20.298438 
L 791.016 20.298438 
L 801.016 20.298438 
" style="fill: none; stroke: #1f77b4; stroke-width: 2; stroke-linecap: square"/>
     <g>
      <use xlink:href="#m1889ac22f7" x="791.016" y="20.298438" style="fill: #1f77b4; stroke: #1f77b4"/>
     </g>
    </g>
    <g id="text_15">
     <!-- Miner 0 -->
     <g transform="translate(809.016 23.798438) scale(0.1 -0.1)">
      <defs>
       <path id="DejaVuSans-4d" d="M 628 4666 
L 1569 4666 
L 2759 1491 
L 3956 4666 
L 4897 4666 
L 4897 0 
L 4281 0 
L 4281 4097 
L 3078 897 
L 2444 897 
L 1241 4097 
L 1241 0 
L 628 0 
L 628 4666 
z
" transform="scale(0.015625)"/>
      </defs>
      <use xlink:href="#DejaVuSans-4d"/>
      <use xlink:href="#DejaVuSans-69" transform="translate(86.279297 0)"/>
      <use xlink:href="#DejaVuSans-6e" transform="translate(114.0625 0)"/>
      <use xlink:href="#DejaVuSans-65" transform="translate(177.441406 0)"/>
      <use xlink:href="#DejaVuSans-72" transform="translate(238.964844 0)"/>
      <use xlink:href="#DejaVuSans-20" transform="translate(280.078125 0)"/>
      <use xlink:href="#DejaVuSans-30" transform="translate(311.865234 0)"/>
     </g>
    </g>
    <g id="line2d_35">
     <path d="M 781.016 34.976563 
L 791.016 34.976563 
L 801.016 34.976563 
" style="fill: none; stroke: #ff7f0e; stroke-width: 2; stroke-linecap: square"/>
     <g>
      <use xlink:href="#mfb3f71eef2" x="791.016" y="34.976563" style="fill: #ff7f0e; stroke: #ff7f0e"/>
     </g>
    </g>
    <g id="text_16">
     <!-- Miner 1 -->
     <g transform="translate(809.016 38.476563) scale(0.1 -0.1)">
      <use xlink:href="#DejaVuSans-4d"/>
      <use xlink:href="#DejaVuSans-69" transform="translate(86.279297 0)"/>
      <use xlink:href="#DejaVuSans-6e" transform="translate(114.0625 0)"/>
      <use xlink:href="#DejaVuSans-65" transform="translate(177.441406 0)"/>
      <use xlink:href="#DejaVuSans-72" transform="translate(238.964844 0)"/>
      <use xlink:href="#DejaVuSans-20" transform="translate(280.078125 0)"/>
      <use xlink:href="#DejaVuSans-31" transform="translate(311.865234 0)"/>
     </g>
    </g>
    <g id="line2d_36">
     <path d="M 781.016 49.654688 
L 791.016 49.654688 
L 801.016 49.654688 
" style="fill: none; stroke: #2ca02c; stroke-width: 2; stroke-linecap: square"/>
     <g>
      <use xlink:href="#mfc3fec7b73" x="791.016" y="49.654688" style="fill: #2ca02c; stroke: #2ca02c"/>
     </g>
    </g>
    <g id="text_17">
     <!-- Miner 2 -->
     <g transform="translate(809.016 53.154688) scale(0.1 -0.1)">
      <use xlink:href="#DejaVuSans-4d"/>
      <use xlink:href="#DejaVuSans-69" transform="translate(86.279297 0)"/>
      <use xlink:href="#DejaVuSans-6e" transform="translate(114.0625 0)"/>
      <use xlink:href="#DejaVuSans-65" transform="translate(177.441406 0)"/>
      <use xlink:href="#DejaVuSans-72" transform="translate(238.964844 0)"/>
      <use xlink:href="#DejaVuSans-20" transform="translate(280.078125 0)"/>
      <use xlink:href="#DejaVuSans-32" transform="translate(311.865234 0)"/>
     </g>
    </g>
    <g id="line2d_37">
     <path d="M 781.016 64.332813 
L 791.016 64.332813 
L 801.016 64.332813 
" style="fill: none; stroke: #d62728; stroke-width: 2; stroke-linecap: square"/>
     <g>
      <use xlink:href="#m74993b87ed" x="791.016" y="64.332813" style="fill: #d62728; stroke: #d62728"/>
     </g>
    </g>
    <g id="text_18">
     <!-- Miner 3 -->
     <g transform="translate(809.016 67.832813) scale(0.1 -0.1)">
      <defs>
       <path id="DejaVuSans-33" d="M 2597 2516 
Q 3050 2419 3304 2112 
Q 3559 1806 3559 1356 
Q 3559 666 3084 287 
Q 2609 -91 1734 -91 
Q 1441 -91 1130 -33 
Q 819 25 488 141 
L 488 750 
Q 750 597 1062 519 
Q 1375 441 1716 441 
Q 2309 441 2620 675 
Q 2931 909 2931 1356 
Q 2931 1769 2642 2001 
Q 2353 2234 1838 2234 
L 1294 2234 
L 1294 2753 
L 1863 2753 
Q 2328 2753 2575 2939 
Q 2822 3125 2822 3475 
Q 2822 3834 2567 4026 
Q 2313 4219 1838 4219 
Q 1578 4219 1281 4162 
Q 984 4106 628 3988 
L 628 4550 
Q 988 4650 1302 4700 
Q 1616 4750 1894 4750 
Q 2613 4750 3031 4423 
Q 3450 4097 3450 3541 
Q 3450 3153 3228 2886 
Q 3006 2619 2597 2516 
z
" transform="scale(0.015625)"/>
      </defs>
      <use xlink:href="#DejaVuSans-4d"/>
      <use xlink:href="#DejaVuSans-69" transform="translate(86.279297 0)"/>
      <use xlink:href="#DejaVuSans-6e" transform="translate(114.0625 0)"/>
      <use xlink:href="#DejaVuSans-65" transform="translate(177.441406 0)"/>
      <use xlink:href="#DejaVuSans-72" transform="translate(238.964844 0)"/>
      <use xlink:href="#DejaVuSans-20" transform="translate(280.078125 0)"/>
      <use xlink:href="#DejaVuSans-33" transform="translate(311.865234 0)"/>
     </g>
    </g>
    <g id="line2d_38">
     <path d="M 781.016 79.010938 
L 791.016 79.010938 
L 801.016 79.010938 
" style="fill: none; stroke: #9467bd; stroke-width: 2; stroke-linecap: square"/>
     <g>
      <use xlink:href="#me383103150" x="791.016" y="79.010938" style="fill: #9467bd; stroke: #9467bd"/>
     </g>
    </g>
    <g id="text_19">
     <!-- Miner 4 -->
     <g transform="translate(809.016 82.510938) scale(0.1 -0.1)">
      <use xlink:href="#DejaVuSans-4d"/>
      <use xlink:href="#DejaVuSans-69" transform="translate(86.279297 0)"/>
      <use xlink:href="#DejaVuSans-6e" transform="translate(114.0625 0)"/>
      <use xlink:href="#DejaVuSans-65" transform="translate(177.441406 0)"/>
      <use xlink:href="#DejaVuSans-72" transform="translate(238.964844 0)"/>
      <use xlink:href="#DejaVuSans-20" transform="translate(280.078125 0)"/>
      <use xlink:href="#DejaVuSans-34" transform="translate(311.865234 0)"/>
     </g>
    </g>
    <g id="line2d_39">
     <path d="M 781.016 93.689063 
L 791.016 93.689063 
L 801.016 93.689063 
" style="fill: none; stroke: #8c564b; stroke-width: 2; stroke-linecap: square"/>
     <g>
      <use xlink:href="#m48cf2ba1cc" x="791.016" y="93.689063" style="fill: #8c564b; stroke: #8c564b"/>
     </g>
    </g>
    <g id="text_20">
     <!-- Miner 5 -->
     <g transform="translate(809.016 97.189063) scale(0.1 -0.1)">
      <defs>
       <path id="DejaVuSans-35" d="M 691 4666 
L 3169 4666 
L 3169 4134 
L 1269 4134 
L 1269 2991 
Q 1406 3038 1543 3061 
Q 1681 3084 1819 3084 
Q 2600 3084 3056 2656 
Q 3513 2228 3513 1497 
Q 3513 744 3044 326 
Q 2575 -91 1722 -91 
Q 1428 -91 1123 -41 
Q 819 9 494 109 
L 494 744 
Q 775 591 1075 516 
Q 1375 441 1709 441 
Q 2250 441 2565 725 
Q 2881 1009 2881 1497 
Q 2881 1984 2565 2268 
Q 2250 2553 1709 2553 
Q 1456 2553 1204 2497 
Q 953 2441 691 2322 
L 691 4666 
z
" transform="scale(0.015625)"/>
      </defs>
      <use xlink:href="#DejaVuSans-4d"/>
      <use xlink:href="#DejaVuSans-69" transform="translate(86.279297 0)"/>
      <use xlink:href="#DejaVuSans-6e" transform="translate(114.0625 0)"/>
      <use xlink:href="#DejaVuSans-65" transform="translate(177.441406 0)"/>
      <use xlink:href="#DejaVuSans-72" transform="translate(238.964844 0)"/>
      <use xlink:href="#DejaVuSans-20" transform="translate(280.078125 0)"/>
      <use xlink:href="#DejaVuSans-35" transform="translate(311.865234 0)"/>
     </g>
    </g>
    <g id="line2d_40">
     <path d="M 781.016 108.367188 
L 791.016 108.367188 
L 801.016 108.367188 
" style="fill: none; stroke: #e377c2; stroke-width: 2; stroke-linecap: square"/>
     <g>
      <use xlink:href="#m6ba71feb41" x="791.016" y="108.367188" style="fill: #e377c2; stroke: #e377c2"/>
     </g>
    </g>
    <g id="text_21">
     <!-- Miner 6 -->
     <g transform="translate(809.016 111.867188) scale(0.1 -0.1)">
      <use xlink:href="#DejaVuSans-4d"/>
      <use xlink:href="#DejaVuSans-69" transform="translate(86.279297 0)"/>
      <use xlink:href="#DejaVuSans-6e" transform="translate(114.0625 0)"/>
      <use xlink:href="#DejaVuSans-65" transform="translate(177.441406 0)"/>
      <use xlink:href="#DejaVuSans-72" transform="translate(238.964844 0)"/>
      <use xlink:href="#DejaVuSans-20" transform="translate(280.078125 0)"/>
      <use xlink:href="#DejaVuSans-36" transform="translate(311.865234 0)"/>
     </g>
    </g>
    <g id="line2d_41">
     <path d="M 781.016 123.045313 
L 791.016 123.045313 
L 801.016 123.045313 
" style="fill: none; stroke: #17becf; stroke-width: 2; stroke-linecap: square"/>
     <g>
      <use xlink:href="#m509217f4c2" x="791.016" y="123.045313" style="fill: #17becf; stroke: #17becf"/>
     </g>
    </g>
    <g id="text_22">
     <!-- Miner 7 -->
     <g transform="translate(809.016 126.545313) scale(0.1 -0.1)">
      <defs>
       <path id="DejaVuSans-37" d="M 525 4666 
L 3525 4666 
L 3525 4397 
L 1831 0 
L 1172 0 
L 2766 4134 
L 525 4134 
L 525 4666 
z
" transform="scale(0.015625)"/>
      </defs>
      <use xlink:href="#DejaVuSans-4d"/>
      <use xlink:href="#DejaVuSans-69" transform="translate(86.279297 0)"/>
      <use xlink:href="#DejaVuSans-6e" transform="translate(114.0625 0)"/>
      <use xlink:href="#DejaVuSans-65" transform="translate(177.441406 0)"/>
      <use xlink:href="#DejaVuSans-72" transform="translate(238.964844 0)"/>
      <use xlink:href="#DejaVuSans-20" transform="translate(280.078125 0)"/>
      <use xlink:href="#DejaVuSans-37" transform="translate(311.865234 0)"/>
     </g>
    </g>
    <g id="line2d_42">
     <path d="M 781.016 137.723438 
L 791.016 137.723438 
L 801.016 137.723438 
" style="fill: none; stroke: #bcbd22; stroke-width: 2; stroke-linecap: square"/>
     <g>
      <use xlink:href="#m0bc5052e81" x="791.016" y="137.723438" style="fill: #bcbd22; stroke: #bcbd22"/>
     </g>
    </g>
    <g id="text_23">
     <!-- Miner 8 -->
     <g transform="translate(809.016 141.223438) scale(0.1 -0.1)">
      <use xlink:href="#DejaVuSans-4d"/>
      <use xlink:href="#DejaVuSans-69" transform="translate(86.279297 0)"/>
      <use xlink:href="#DejaVuSans-6e" transform="translate(114.0625 0)"/>
      <use xlink:href="#DejaVuSans-65" transform="translate(177.441406 0)"/>
      <use xlink:href="#DejaVuSans-72" transform="translate(238.964844 0)"/>
      <use xlink:href="#DejaVuSans-20" transform="translate(280.078125 0)"/>
      <use xlink:href="#DejaVuSans-38" transform="translate(311.865234 0)"/>
     </g>
    </g>
   </g>
  </g>
 </g>
 <defs>
  <clipPath id="pe26d39aeca">
   <rect x="47.6525" y="7.2" width="689.87" height="519.64"/>
  </clipPath>
 </defs>
</svg>
