<?xml version="1.0" encoding="utf-8" standalone="no"?>
<!DOCTYPE svg PUBLIC "-//W3C//DTD SVG 1.1//EN"
  "http://www.w3.org/Graphics/SVG/1.1/DTD/svg11.dtd">
<svg xmlns:xlink="http://www.w3.org/1999/xlink" width="914.996009pt" height="670.68pt" viewBox="0 0 914.996009 670.68" xmlns="http://www.w3.org/2000/svg" version="1.1">
 <metadata>
  <rdf:RDF xmlns:dc="http://purl.org/dc/elements/1.1/" xmlns:cc="http://creativecommons.org/ns#" xmlns:rdf="http://www.w3.org/1999/02/22-rdf-syntax-ns#">
   <cc:Work>
    <dc:type rdf:resource="http://purl.org/dc/dcmitype/StillImage"/>
    <dc:date>2025-09-14T17:37:10.673752</dc:date>
    <dc:format>image/svg+xml</dc:format>
    <dc:creator>
     <cc:Agent>
      <dc:title>Matplotlib v3.10.3, https://matplotlib.org/</dc:title>
     </cc:Agent>
    </dc:creator>
   </cc:Work>
  </rdf:RDF>
 </metadata>
 <defs>
  <style type="text/css">*{stroke-linejoin: round; stroke-linecap: butt}</style>
 </defs>
 <g id="figure_1">
  <g id="patch_1">
   <path d="M 0 670.68 
L 914.996009 670.68 
L 914.996009 0 
L 0 0 
z
" style="fill: #ffffff"/>
  </g>
  <g id="axes_1">
   <g id="patch_2">
    <path d="M 604.527139 375.14366 
C 611.604733 337.243968 610.246735 298.246323 600.550002 260.930747 
C 590.853252 223.615171 573.053769 188.889984 548.420424 159.230625 
C 523.78708 129.571266 492.91948 105.699692 458.018085 89.317649 
C 423.11669 72.935606 385.031062 64.44184 346.476178 64.44184 
L 346.47619 326.95384 
z
" style="fill: #1f77b4"/>
   </g>
   <g id="patch_3">
    <path d="M 454.635131 582.744356 
C 493.204574 565.347672 527.002359 538.881305 553.139061 505.607895 
C 579.275763 472.334486 596.984666 433.230089 604.751836 391.637815 
L 346.700886 343.447995 
z
" style="fill: #ff7f0e"/>
   </g>
   <g id="patch_4">
    <path d="M 245.045271 594.406886 
C 277.154947 606.387963 311.302313 611.965782 345.55542 610.824808 
C 379.808527 609.683833 413.508993 601.845986 444.750194 587.754686 
L 336.81595 348.458324 
z
" style="fill: #2ca02c"/>
   </g>
   <g id="patch_5">
    <path d="M 100.560059 476.617696 
C 115.693336 502.82905 135.246324 526.22685 158.353091 545.774956 
C 181.459858 565.323062 207.774223 580.728565 236.130873 591.309272 
L 327.901553 345.36071 
z
" style="fill: #d62728"/>
   </g>
   <g id="patch_6">
    <path d="M 68.800336 334.293454 
C 68.588524 357.632635 71.490295 380.896173 77.428854 403.468182 
C 83.367413 426.040192 92.289874 447.719731 103.960031 467.932833 
L 331.301524 336.675847 
z
" style="fill: #9467bd"/>
   </g>
   <g id="patch_7">
    <path d="M 80.374973 257.04868 
C 76.621133 269.19987 73.755272 281.607775 71.800046 294.174392 
C 69.844821 306.741008 68.80538 319.433149 68.689968 332.150439 
L 331.191156 334.532831 
z
" style="fill: #8c564b"/>
   </g>
   <g id="patch_8">
    <path d="M 108.332979 195.092368 
C 102.480509 204.555829 97.235641 214.381783 92.630107 224.510834 
C 88.024572 234.639885 84.067682 245.051543 80.783406 255.682727 
L 331.599588 333.166879 
z
" style="fill: #e377c2"/>
   </g>
   <g id="patch_9">
    <path d="M 148.631585 144.480482 
C 141.059642 151.893749 133.943526 159.758681 127.322291 168.032138 
C 120.701056 176.305596 114.586828 184.972402 109.013218 193.984942 
L 332.279827 332.059454 
z
" style="fill: #17becf"/>
   </g>
   <g id="patch_10">
    <path d="M 179.728658 118.200854 
C 174.352778 122.067055 169.125137 126.135273 164.056907 130.396794 
C 158.988677 134.658315 154.083473 139.110087 149.351871 143.742534 
L 333.000114 331.321506 
z
" style="fill: #bcbd22"/>
   </g>
   <g id="patch_11">
    <path d="M 207.165479 100.828929 
C 202.522932 103.379754 197.958667 106.070511 193.478934 108.897521 
C 188.999201 111.724531 184.606073 114.68648 180.30556 117.7793 
L 333.577016 330.899951 
z
" style="fill: #ff9896"/>
   </g>
   <g id="patch_12">
    <path d="M 336.378856 72.828 
C 314.368245 72.828016 292.444694 75.596287 271.12494 81.067582 
C 249.805186 86.538877 229.257999 94.669869 209.967441 105.268977 
L 336.378978 335.34 
z
" style="fill: #d0d0d0"/>
   </g>
   <g id="matplotlib.axis_1"/>
   <g id="matplotlib.axis_2"/>
   <g id="text_1">
    <!-- miner 0 -->
    <g transform="translate(568.614854 145.217687) scale(0.1 -0.1)">
     <defs>
      <path id="DejaVuSans-6d" d="M 3328 2828 
Q 3544 3216 3844 3400 
Q 4144 3584 4550 3584 
Q 5097 3584 5394 3201 
Q 5691 2819 5691 2113 
L 5691 0 
L 5113 0 
L 5113 2094 
Q 5113 2597 4934 2840 
Q 4756 3084 4391 3084 
Q 3944 3084 3684 2787 
Q 3425 2491 3425 1978 
L 3425 0 
L 2847 0 
L 2847 2094 
Q 2847 2600 2669 2842 
Q 2491 3084 2119 3084 
Q 1678 3084 1418 2786 
Q 1159 2488 1159 1978 
L 1159 0 
L 581 0 
L 581 3500 
L 1159 3500 
L 1159 2956 
Q 1356 3278 1631 3431 
Q 1906 3584 2284 3584 
Q 2666 3584 2933 3390 
Q 3200 3197 3328 2828 
z
" transform="scale(0.015625)"/>
      <path id="DejaVuSans-69" d="M 603 3500 
L 1178 3500 
L 1178 0 
L 603 0 
L 603 3500 
z
M 603 4863 
L 1178 4863 
L 1178 4134 
L 603 4134 
L 603 4863 
z
" transform="scale(0.015625)"/>
      <path id="DejaVuSans-6e" d="M 3513 2113 
L 3513 0 
L 2938 0 
L 2938 2094 
Q 2938 2591 2744 2837 
Q 2550 3084 2163 3084 
Q 1697 3084 1428 2787 
Q 1159 2491 1159 1978 
L 1159 0 
L 581 0 
L 581 3500 
L 1159 3500 
L 1159 2956 
Q 1366 3272 1645 3428 
Q 1925 3584 2291 3584 
Q 2894 3584 3203 3211 
Q 3513 2838 3513 2113 
z
" transform="scale(0.015625)"/>
      <path id="DejaVuSans-65" d="M 3597 1894 
L 3597 1613 
L 953 1613 
Q 991 1019 1311 708 
Q 1631 397 2203 397 
Q 2534 397 2845 478 
Q 3156 559 3463 722 
L 3463 178 
Q 3153 47 2828 -22 
Q 2503 -91 2169 -91 
Q 1331 -91 842 396 
Q 353 884 353 1716 
Q 353 2575 817 3079 
Q 1281 3584 2069 3584 
Q 2775 3584 3186 3129 
Q 3597 2675 3597 1894 
z
M 3022 2063 
Q 3016 2534 2758 2815 
Q 2500 3097 2075 3097 
Q 1594 3097 1305 2825 
Q 1016 2553 972 2059 
L 3022 2063 
z
" transform="scale(0.015625)"/>
      <path id="DejaVuSans-72" d="M 2631 2963 
Q 2534 3019 2420 3045 
Q 2306 3072 2169 3072 
Q 1681 3072 1420 2755 
Q 1159 2438 1159 1844 
L 1159 0 
L 581 0 
L 581 3500 
L 1159 3500 
L 1159 2956 
Q 1341 3275 1631 3429 
Q 1922 3584 2338 3584 
Q 2397 3584 2469 3576 
Q 2541 3569 2628 3553 
L 2631 2963 
z
" transform="scale(0.015625)"/>
      <path id="DejaVuSans-20" transform="scale(0.015625)"/>
      <path id="DejaVuSans-30" d="M 2034 4250 
Q 1547 4250 1301 3770 
Q 1056 3291 1056 2328 
Q 1056 1369 1301 889 
Q 1547 409 2034 409 
Q 2525 409 2770 889 
Q 3016 1369 3016 2328 
Q 3016 3291 2770 3770 
Q 2525 4250 2034 4250 
z
M 2034 4750 
Q 2819 4750 3233 4129 
Q 3647 3509 3647 2328 
Q 3647 1150 3233 529 
Q 2819 -91 2034 -91 
Q 1250 -91 836 529 
Q 422 1150 422 2328 
Q 422 3509 836 4129 
Q 1250 4750 2034 4750 
z
" transform="scale(0.015625)"/>
     </defs>
     <use xlink:href="#DejaVuSans-6d"/>
     <use xlink:href="#DejaVuSans-69" transform="translate(97.412109 0)"/>
     <use xlink:href="#DejaVuSans-6e" transform="translate(125.195312 0)"/>
     <use xlink:href="#DejaVuSans-65" transform="translate(188.574219 0)"/>
     <use xlink:href="#DejaVuSans-72" transform="translate(250.097656 0)"/>
     <use xlink:href="#DejaVuSans-20" transform="translate(291.210938 0)"/>
     <use xlink:href="#DejaVuSans-30" transform="translate(322.998047 0)"/>
    </g>
   </g>
   <g id="text_2">
    <!-- 27.94% -->
    <g transform="translate(448.57789 229.07929) scale(0.1 -0.1)">
     <defs>
      <path id="DejaVuSans-32" d="M 1228 531 
L 3431 531 
L 3431 0 
L 469 0 
L 469 531 
Q 828 903 1448 1529 
Q 2069 2156 2228 2338 
Q 2531 2678 2651 2914 
Q 2772 3150 2772 3378 
Q 2772 3750 2511 3984 
Q 2250 4219 1831 4219 
Q 1534 4219 1204 4116 
Q 875 4013 500 3803 
L 500 4441 
Q 881 4594 1212 4672 
Q 1544 4750 1819 4750 
Q 2544 4750 2975 4387 
Q 3406 4025 3406 3419 
Q 3406 3131 3298 2873 
Q 3191 2616 2906 2266 
Q 2828 2175 2409 1742 
Q 1991 1309 1228 531 
z
" transform="scale(0.015625)"/>
      <path id="DejaVuSans-37" d="M 525 4666 
L 3525 4666 
L 3525 4397 
L 1831 0 
L 1172 0 
L 2766 4134 
L 525 4134 
L 525 4666 
z
" transform="scale(0.015625)"/>
      <path id="DejaVuSans-2e" d="M 684 794 
L 1344 794 
L 1344 0 
L 684 0 
L 684 794 
z
" transform="scale(0.015625)"/>
      <path id="DejaVuSans-39" d="M 703 97 
L 703 672 
Q 941 559 1184 500 
Q 1428 441 1663 441 
Q 2288 441 2617 861 
Q 2947 1281 2994 2138 
Q 2813 1869 2534 1725 
Q 2256 1581 1919 1581 
Q 1219 1581 811 2004 
Q 403 2428 403 3163 
Q 403 3881 828 4315 
Q 1253 4750 1959 4750 
Q 2769 4750 3195 4129 
Q 3622 3509 3622 2328 
Q 3622 1225 3098 567 
Q 2575 -91 1691 -91 
Q 1453 -91 1209 -44 
Q 966 3 703 97 
z
M 1959 2075 
Q 2384 2075 2632 2365 
Q 2881 2656 2881 3163 
Q 2881 3666 2632 3958 
Q 2384 4250 1959 4250 
Q 1534 4250 1286 3958 
Q 1038 3666 1038 3163 
Q 1038 2656 1286 2365 
Q 1534 2075 1959 2075 
z
" transform="scale(0.015625)"/>
      <path id="DejaVuSans-34" d="M 2419 4116 
L 825 1625 
L 2419 1625 
L 2419 4116 
z
M 2253 4666 
L 3047 4666 
L 3047 1625 
L 3713 1625 
L 3713 1100 
L 3047 1100 
L 3047 0 
L 2419 0 
L 2419 1100 
L 313 1100 
L 313 1709 
L 2253 4666 
z
" transform="scale(0.015625)"/>
      <path id="DejaVuSans-25" d="M 4653 2053 
Q 4381 2053 4226 1822 
Q 4072 1591 4072 1178 
Q 4072 772 4226 539 
Q 4381 306 4653 306 
Q 4919 306 5073 539 
Q 5228 772 5228 1178 
Q 5228 1588 5073 1820 
Q 4919 2053 4653 2053 
z
M 4653 2450 
Q 5147 2450 5437 2106 
Q 5728 1763 5728 1178 
Q 5728 594 5436 251 
Q 5144 -91 4653 -91 
Q 4153 -91 3862 251 
Q 3572 594 3572 1178 
Q 3572 1766 3864 2108 
Q 4156 2450 4653 2450 
z
M 1428 4353 
Q 1159 4353 1004 4120 
Q 850 3888 850 3481 
Q 850 3069 1003 2837 
Q 1156 2606 1428 2606 
Q 1700 2606 1854 2837 
Q 2009 3069 2009 3481 
Q 2009 3884 1853 4118 
Q 1697 4353 1428 4353 
z
M 4250 4750 
L 4750 4750 
L 1831 -91 
L 1331 -91 
L 4250 4750 
z
M 1428 4750 
Q 1922 4750 2215 4408 
Q 2509 4066 2509 3481 
Q 2509 2891 2217 2550 
Q 1925 2209 1428 2209 
Q 931 2209 642 2551 
Q 353 2894 353 3481 
Q 353 4063 643 4406 
Q 934 4750 1428 4750 
z
" transform="scale(0.015625)"/>
     </defs>
     <use xlink:href="#DejaVuSans-32"/>
     <use xlink:href="#DejaVuSans-37" transform="translate(63.623047 0)"/>
     <use xlink:href="#DejaVuSans-2e" transform="translate(127.246094 0)"/>
     <use xlink:href="#DejaVuSans-39" transform="translate(159.033203 0)"/>
     <use xlink:href="#DejaVuSans-34" transform="translate(222.65625 0)"/>
     <use xlink:href="#DejaVuSans-25" transform="translate(286.279297 0)"/>
    </g>
   </g>
   <g id="text_3">
    <!-- miner 1 -->
    <g transform="translate(573.782874 524.583255) scale(0.1 -0.1)">
     <defs>
      <path id="DejaVuSans-31" d="M 794 531 
L 1825 531 
L 1825 4091 
L 703 3866 
L 703 4441 
L 1819 4666 
L 2450 4666 
L 2450 531 
L 3481 531 
L 3481 0 
L 794 0 
L 794 531 
z
" transform="scale(0.015625)"/>
     </defs>
     <use xlink:href="#DejaVuSans-6d"/>
     <use xlink:href="#DejaVuSans-69" transform="translate(97.412109 0)"/>
     <use xlink:href="#DejaVuSans-6e" transform="translate(125.195312 0)"/>
     <use xlink:href="#DejaVuSans-65" transform="translate(188.574219 0)"/>
     <use xlink:href="#DejaVuSans-72" transform="translate(250.097656 0)"/>
     <use xlink:href="#DejaVuSans-20" transform="translate(291.210938 0)"/>
     <use xlink:href="#DejaVuSans-31" transform="translate(322.998047 0)"/>
    </g>
   </g>
   <g id="text_4">
    <!-- 15.32% -->
    <g transform="translate(451.498945 443.503307) scale(0.1 -0.1)">
     <defs>
      <path id="DejaVuSans-35" d="M 691 4666 
L 3169 4666 
L 3169 4134 
L 1269 4134 
L 1269 2991 
Q 1406 3038 1543 3061 
Q 1681 3084 1819 3084 
Q 2600 3084 3056 2656 
Q 3513 2228 3513 1497 
Q 3513 744 3044 326 
Q 2575 -91 1722 -91 
Q 1428 -91 1123 -41 
Q 819 9 494 109 
L 494 744 
Q 775 591 1075 516 
Q 1375 441 1709 441 
Q 2250 441 2565 725 
Q 2881 1009 2881 1497 
Q 2881 1984 2565 2268 
Q 2250 2553 1709 2553 
Q 1456 2553 1204 2497 
Q 953 2441 691 2322 
L 691 4666 
z
" transform="scale(0.015625)"/>
      <path id="DejaVuSans-33" d="M 2597 2516 
Q 3050 2419 3304 2112 
Q 3559 1806 3559 1356 
Q 3559 666 3084 287 
Q 2609 -91 1734 -91 
Q 1441 -91 1130 -33 
Q 819 25 488 141 
L 488 750 
Q 750 597 1062 519 
Q 1375 441 1716 441 
Q 2309 441 2620 675 
Q 2931 909 2931 1356 
Q 2931 1769 2642 2001 
Q 2353 2234 1838 2234 
L 1294 2234 
L 1294 2753 
L 1863 2753 
Q 2328 2753 2575 2939 
Q 2822 3125 2822 3475 
Q 2822 3834 2567 4026 
Q 2313 4219 1838 4219 
Q 1578 4219 1281 4162 
Q 984 4106 628 3988 
L 628 4550 
Q 988 4650 1302 4700 
Q 1616 4750 1894 4750 
Q 2613 4750 3031 4423 
Q 3450 4097 3450 3541 
Q 3450 3153 3228 2886 
Q 3006 2619 2597 2516 
z
" transform="scale(0.015625)"/>
     </defs>
     <use xlink:href="#DejaVuSans-31"/>
     <use xlink:href="#DejaVuSans-35" transform="translate(63.623047 0)"/>
     <use xlink:href="#DejaVuSans-2e" transform="translate(127.246094 0)"/>
     <use xlink:href="#DejaVuSans-33" transform="translate(159.033203 0)"/>
     <use xlink:href="#DejaVuSans-32" transform="translate(222.65625 0)"/>
     <use xlink:href="#DejaVuSans-25" transform="translate(286.279297 0)"/>
    </g>
   </g>
   <g id="text_5">
    <!-- miner 2 -->
    <g transform="translate(346.429333 639.820833) scale(0.1 -0.1)">
     <use xlink:href="#DejaVuSans-6d"/>
     <use xlink:href="#DejaVuSans-69" transform="translate(97.412109 0)"/>
     <use xlink:href="#DejaVuSans-6e" transform="translate(125.195312 0)"/>
     <use xlink:href="#DejaVuSans-65" transform="translate(188.574219 0)"/>
     <use xlink:href="#DejaVuSans-72" transform="translate(250.097656 0)"/>
     <use xlink:href="#DejaVuSans-20" transform="translate(291.210938 0)"/>
     <use xlink:href="#DejaVuSans-32" transform="translate(322.998047 0)"/>
    </g>
   </g>
   <g id="text_6">
    <!-- 12.43% -->
    <g transform="translate(322.99477 508.63759) scale(0.1 -0.1)">
     <use xlink:href="#DejaVuSans-31"/>
     <use xlink:href="#DejaVuSans-32" transform="translate(63.623047 0)"/>
     <use xlink:href="#DejaVuSans-2e" transform="translate(127.246094 0)"/>
     <use xlink:href="#DejaVuSans-34" transform="translate(159.033203 0)"/>
     <use xlink:href="#DejaVuSans-33" transform="translate(222.65625 0)"/>
     <use xlink:href="#DejaVuSans-25" transform="translate(286.279297 0)"/>
    </g>
   </g>
   <g id="text_7">
    <!-- miner 3 -->
    <g transform="translate(102.737257 568.575711) scale(0.1 -0.1)">
     <use xlink:href="#DejaVuSans-6d"/>
     <use xlink:href="#DejaVuSans-69" transform="translate(97.412109 0)"/>
     <use xlink:href="#DejaVuSans-6e" transform="translate(125.195312 0)"/>
     <use xlink:href="#DejaVuSans-65" transform="translate(188.574219 0)"/>
     <use xlink:href="#DejaVuSans-72" transform="translate(250.097656 0)"/>
     <use xlink:href="#DejaVuSans-20" transform="translate(291.210938 0)"/>
     <use xlink:href="#DejaVuSans-33" transform="translate(322.998047 0)"/>
    </g>
   </g>
   <g id="text_8">
    <!-- 10.98% -->
    <g transform="translate(207.107604 468.368609) scale(0.1 -0.1)">
     <defs>
      <path id="DejaVuSans-38" d="M 2034 2216 
Q 1584 2216 1326 1975 
Q 1069 1734 1069 1313 
Q 1069 891 1326 650 
Q 1584 409 2034 409 
Q 2484 409 2743 651 
Q 3003 894 3003 1313 
Q 3003 1734 2745 1975 
Q 2488 2216 2034 2216 
z
M 1403 2484 
Q 997 2584 770 2862 
Q 544 3141 544 3541 
Q 544 4100 942 4425 
Q 1341 4750 2034 4750 
Q 2731 4750 3128 4425 
Q 3525 4100 3525 3541 
Q 3525 3141 3298 2862 
Q 3072 2584 2669 2484 
Q 3125 2378 3379 2068 
Q 3634 1759 3634 1313 
Q 3634 634 3220 271 
Q 2806 -91 2034 -91 
Q 1263 -91 848 271 
Q 434 634 434 1313 
Q 434 1759 690 2068 
Q 947 2378 1403 2484 
z
M 1172 3481 
Q 1172 3119 1398 2916 
Q 1625 2713 2034 2713 
Q 2441 2713 2670 2916 
Q 2900 3119 2900 3481 
Q 2900 3844 2670 4047 
Q 2441 4250 2034 4250 
Q 1625 4250 1398 4047 
Q 1172 3844 1172 3481 
z
" transform="scale(0.015625)"/>
     </defs>
     <use xlink:href="#DejaVuSans-31"/>
     <use xlink:href="#DejaVuSans-30" transform="translate(63.623047 0)"/>
     <use xlink:href="#DejaVuSans-2e" transform="translate(127.246094 0)"/>
     <use xlink:href="#DejaVuSans-39" transform="translate(159.033203 0)"/>
     <use xlink:href="#DejaVuSans-38" transform="translate(222.65625 0)"/>
     <use xlink:href="#DejaVuSans-25" transform="translate(286.279297 0)"/>
    </g>
   </g>
   <g id="text_9">
    <!-- miner 4 -->
    <g transform="translate(13.380647 412.906793) scale(0.1 -0.1)">
     <use xlink:href="#DejaVuSans-6d"/>
     <use xlink:href="#DejaVuSans-69" transform="translate(97.412109 0)"/>
     <use xlink:href="#DejaVuSans-6e" transform="translate(125.195312 0)"/>
     <use xlink:href="#DejaVuSans-65" transform="translate(188.574219 0)"/>
     <use xlink:href="#DejaVuSans-72" transform="translate(250.097656 0)"/>
     <use xlink:href="#DejaVuSans-20" transform="translate(291.210938 0)"/>
     <use xlink:href="#DejaVuSans-34" transform="translate(322.998047 0)"/>
    </g>
   </g>
   <g id="text_10">
    <!-- 8.48% -->
    <g transform="translate(163.094327 379.510624) scale(0.1 -0.1)">
     <use xlink:href="#DejaVuSans-38"/>
     <use xlink:href="#DejaVuSans-2e" transform="translate(63.623047 0)"/>
     <use xlink:href="#DejaVuSans-34" transform="translate(95.410156 0)"/>
     <use xlink:href="#DejaVuSans-38" transform="translate(159.033203 0)"/>
     <use xlink:href="#DejaVuSans-25" transform="translate(222.65625 0)"/>
    </g>
   </g>
   <g id="text_11">
    <!-- miner 5 -->
    <g transform="translate(7.2 292.897925) scale(0.1 -0.1)">
     <use xlink:href="#DejaVuSans-6d"/>
     <use xlink:href="#DejaVuSans-69" transform="translate(97.412109 0)"/>
     <use xlink:href="#DejaVuSans-6e" transform="translate(125.195312 0)"/>
     <use xlink:href="#DejaVuSans-65" transform="translate(188.574219 0)"/>
     <use xlink:href="#DejaVuSans-72" transform="translate(250.097656 0)"/>
     <use xlink:href="#DejaVuSans-20" transform="translate(291.210938 0)"/>
     <use xlink:href="#DejaVuSans-35" transform="translate(322.998047 0)"/>
    </g>
   </g>
   <g id="text_12">
    <!-- 4.62% -->
    <g transform="translate(159.672898 313.077144) scale(0.1 -0.1)">
     <defs>
      <path id="DejaVuSans-36" d="M 2113 2584 
Q 1688 2584 1439 2293 
Q 1191 2003 1191 1497 
Q 1191 994 1439 701 
Q 1688 409 2113 409 
Q 2538 409 2786 701 
Q 3034 994 3034 1497 
Q 3034 2003 2786 2293 
Q 2538 2584 2113 2584 
z
M 3366 4563 
L 3366 3988 
Q 3128 4100 2886 4159 
Q 2644 4219 2406 4219 
Q 1781 4219 1451 3797 
Q 1122 3375 1075 2522 
Q 1259 2794 1537 2939 
Q 1816 3084 2150 3084 
Q 2853 3084 3261 2657 
Q 3669 2231 3669 1497 
Q 3669 778 3244 343 
Q 2819 -91 2113 -91 
Q 1303 -91 875 529 
Q 447 1150 447 2328 
Q 447 3434 972 4092 
Q 1497 4750 2381 4750 
Q 2619 4750 2861 4703 
Q 3103 4656 3366 4563 
z
" transform="scale(0.015625)"/>
     </defs>
     <use xlink:href="#DejaVuSans-34"/>
     <use xlink:href="#DejaVuSans-2e" transform="translate(63.623047 0)"/>
     <use xlink:href="#DejaVuSans-36" transform="translate(95.410156 0)"/>
     <use xlink:href="#DejaVuSans-32" transform="translate(159.033203 0)"/>
     <use xlink:href="#DejaVuSans-25" transform="translate(222.65625 0)"/>
    </g>
   </g>
   <g id="text_13">
    <!-- miner 6 -->
    <g transform="translate(30.072217 216.404609) scale(0.1 -0.1)">
     <use xlink:href="#DejaVuSans-6d"/>
     <use xlink:href="#DejaVuSans-69" transform="translate(97.412109 0)"/>
     <use xlink:href="#DejaVuSans-6e" transform="translate(125.195312 0)"/>
     <use xlink:href="#DejaVuSans-65" transform="translate(188.574219 0)"/>
     <use xlink:href="#DejaVuSans-72" transform="translate(250.097656 0)"/>
     <use xlink:href="#DejaVuSans-20" transform="translate(291.210938 0)"/>
     <use xlink:href="#DejaVuSans-36" transform="translate(322.998047 0)"/>
    </g>
   </g>
   <g id="text_14">
    <!-- 4.05% -->
    <g transform="translate(172.334303 270.73263) scale(0.1 -0.1)">
     <use xlink:href="#DejaVuSans-34"/>
     <use xlink:href="#DejaVuSans-2e" transform="translate(63.623047 0)"/>
     <use xlink:href="#DejaVuSans-30" transform="translate(95.410156 0)"/>
     <use xlink:href="#DejaVuSans-35" transform="translate(159.033203 0)"/>
     <use xlink:href="#DejaVuSans-25" transform="translate(222.65625 0)"/>
    </g>
   </g>
   <g id="text_15">
    <!-- miner 7 -->
    <g transform="translate(68.165607 154.388779) scale(0.1 -0.1)">
     <use xlink:href="#DejaVuSans-6d"/>
     <use xlink:href="#DejaVuSans-69" transform="translate(97.412109 0)"/>
     <use xlink:href="#DejaVuSans-6e" transform="translate(125.195312 0)"/>
     <use xlink:href="#DejaVuSans-65" transform="translate(188.574219 0)"/>
     <use xlink:href="#DejaVuSans-72" transform="translate(250.097656 0)"/>
     <use xlink:href="#DejaVuSans-20" transform="translate(291.210938 0)"/>
     <use xlink:href="#DejaVuSans-37" transform="translate(322.998047 0)"/>
    </g>
   </g>
   <g id="text_16">
    <!-- 3.85% -->
    <g transform="translate(193.421716 236.402438) scale(0.1 -0.1)">
     <use xlink:href="#DejaVuSans-33"/>
     <use xlink:href="#DejaVuSans-2e" transform="translate(63.623047 0)"/>
     <use xlink:href="#DejaVuSans-38" transform="translate(95.410156 0)"/>
     <use xlink:href="#DejaVuSans-35" transform="translate(159.033203 0)"/>
     <use xlink:href="#DejaVuSans-25" transform="translate(222.65625 0)"/>
    </g>
   </g>
   <g id="text_17">
    <!-- miner 8 -->
    <g transform="translate(108.50165 113.063688) scale(0.1 -0.1)">
     <use xlink:href="#DejaVuSans-6d"/>
     <use xlink:href="#DejaVuSans-69" transform="translate(97.412109 0)"/>
     <use xlink:href="#DejaVuSans-6e" transform="translate(125.195312 0)"/>
     <use xlink:href="#DejaVuSans-65" transform="translate(188.574219 0)"/>
     <use xlink:href="#DejaVuSans-72" transform="translate(250.097656 0)"/>
     <use xlink:href="#DejaVuSans-20" transform="translate(291.210938 0)"/>
     <use xlink:href="#DejaVuSans-38" transform="translate(322.998047 0)"/>
    </g>
   </g>
   <g id="text_18">
    <!-- 2.41% -->
    <g transform="translate(215.750596 213.526048) scale(0.1 -0.1)">
     <use xlink:href="#DejaVuSans-32"/>
     <use xlink:href="#DejaVuSans-2e" transform="translate(63.623047 0)"/>
     <use xlink:href="#DejaVuSans-34" transform="translate(95.410156 0)"/>
     <use xlink:href="#DejaVuSans-31" transform="translate(159.033203 0)"/>
     <use xlink:href="#DejaVuSans-25" transform="translate(222.65625 0)"/>
    </g>
   </g>
   <g id="text_19">
    <!-- miner 9 -->
    <g transform="translate(140.808188 89.456657) scale(0.1 -0.1)">
     <use xlink:href="#DejaVuSans-6d"/>
     <use xlink:href="#DejaVuSans-69" transform="translate(97.412109 0)"/>
     <use xlink:href="#DejaVuSans-6e" transform="translate(125.195312 0)"/>
     <use xlink:href="#DejaVuSans-65" transform="translate(188.574219 0)"/>
     <use xlink:href="#DejaVuSans-72" transform="translate(250.097656 0)"/>
     <use xlink:href="#DejaVuSans-20" transform="translate(291.210938 0)"/>
     <use xlink:href="#DejaVuSans-39" transform="translate(322.998047 0)"/>
    </g>
   </g>
   <g id="text_20">
    <!-- 1.93% -->
    <g transform="translate(233.634573 200.45787) scale(0.1 -0.1)">
     <use xlink:href="#DejaVuSans-31"/>
     <use xlink:href="#DejaVuSans-2e" transform="translate(63.623047 0)"/>
     <use xlink:href="#DejaVuSans-39" transform="translate(95.410156 0)"/>
     <use xlink:href="#DejaVuSans-33" transform="translate(159.033203 0)"/>
     <use xlink:href="#DejaVuSans-25" transform="translate(222.65625 0)"/>
    </g>
   </g>
   <g id="text_21">
    <!-- Other miners -->
    <g transform="translate(198.698111 52.800778) scale(0.1 -0.1)">
     <defs>
      <path id="DejaVuSans-4f" d="M 2522 4238 
Q 1834 4238 1429 3725 
Q 1025 3213 1025 2328 
Q 1025 1447 1429 934 
Q 1834 422 2522 422 
Q 3209 422 3611 934 
Q 4013 1447 4013 2328 
Q 4013 3213 3611 3725 
Q 3209 4238 2522 4238 
z
M 2522 4750 
Q 3503 4750 4090 4092 
Q 4678 3434 4678 2328 
Q 4678 1225 4090 567 
Q 3503 -91 2522 -91 
Q 1538 -91 948 565 
Q 359 1222 359 2328 
Q 359 3434 948 4092 
Q 1538 4750 2522 4750 
z
" transform="scale(0.015625)"/>
      <path id="DejaVuSans-74" d="M 1172 4494 
L 1172 3500 
L 2356 3500 
L 2356 3053 
L 1172 3053 
L 1172 1153 
Q 1172 725 1289 603 
Q 1406 481 1766 481 
L 2356 481 
L 2356 0 
L 1766 0 
Q 1100 0 847 248 
Q 594 497 594 1153 
L 594 3053 
L 172 3053 
L 172 3500 
L 594 3500 
L 594 4494 
L 1172 4494 
z
" transform="scale(0.015625)"/>
      <path id="DejaVuSans-68" d="M 3513 2113 
L 3513 0 
L 2938 0 
L 2938 2094 
Q 2938 2591 2744 2837 
Q 2550 3084 2163 3084 
Q 1697 3084 1428 2787 
Q 1159 2491 1159 1978 
L 1159 0 
L 581 0 
L 581 4863 
L 1159 4863 
L 1159 2956 
Q 1366 3272 1645 3428 
Q 1925 3584 2291 3584 
Q 2894 3584 3203 3211 
Q 3513 2838 3513 2113 
z
" transform="scale(0.015625)"/>
      <path id="DejaVuSans-73" d="M 2834 3397 
L 2834 2853 
Q 2591 2978 2328 3040 
Q 2066 3103 1784 3103 
Q 1356 3103 1142 2972 
Q 928 2841 928 2578 
Q 928 2378 1081 2264 
Q 1234 2150 1697 2047 
L 1894 2003 
Q 2506 1872 2764 1633 
Q 3022 1394 3022 966 
Q 3022 478 2636 193 
Q 2250 -91 1575 -91 
Q 1294 -91 989 -36 
Q 684 19 347 128 
L 347 722 
Q 666 556 975 473 
Q 1284 391 1588 391 
Q 1994 391 2212 530 
Q 2431 669 2431 922 
Q 2431 1156 2273 1281 
Q 2116 1406 1581 1522 
L 1381 1569 
Q 847 1681 609 1914 
Q 372 2147 372 2553 
Q 372 3047 722 3315 
Q 1072 3584 1716 3584 
Q 2034 3584 2315 3537 
Q 2597 3491 2834 3397 
z
" transform="scale(0.015625)"/>
     </defs>
     <use xlink:href="#DejaVuSans-4f"/>
     <use xlink:href="#DejaVuSans-74" transform="translate(78.710938 0)"/>
     <use xlink:href="#DejaVuSans-68" transform="translate(117.919922 0)"/>
     <use xlink:href="#DejaVuSans-65" transform="translate(181.298828 0)"/>
     <use xlink:href="#DejaVuSans-72" transform="translate(242.822266 0)"/>
     <use xlink:href="#DejaVuSans-20" transform="translate(283.935547 0)"/>
     <use xlink:href="#DejaVuSans-6d" transform="translate(315.722656 0)"/>
     <use xlink:href="#DejaVuSans-69" transform="translate(413.134766 0)"/>
     <use xlink:href="#DejaVuSans-6e" transform="translate(440.917969 0)"/>
     <use xlink:href="#DejaVuSans-65" transform="translate(504.296875 0)"/>
     <use xlink:href="#DejaVuSans-72" transform="translate(565.820312 0)"/>
     <use xlink:href="#DejaVuSans-73" transform="translate(606.933594 0)"/>
    </g>
    <!-- (miner 10-999) -->
    <g transform="translate(189.077799 63.99859) scale(0.1 -0.1)">
     <defs>
      <path id="DejaVuSans-28" d="M 1984 4856 
Q 1566 4138 1362 3434 
Q 1159 2731 1159 2009 
Q 1159 1288 1364 580 
Q 1569 -128 1984 -844 
L 1484 -844 
Q 1016 -109 783 600 
Q 550 1309 550 2009 
Q 550 2706 781 3412 
Q 1013 4119 1484 4856 
L 1984 4856 
z
" transform="scale(0.015625)"/>
      <path id="DejaVuSans-2d" d="M 313 2009 
L 1997 2009 
L 1997 1497 
L 313 1497 
L 313 2009 
z
" transform="scale(0.015625)"/>
      <path id="DejaVuSans-29" d="M 513 4856 
L 1013 4856 
Q 1481 4119 1714 3412 
Q 1947 2706 1947 2009 
Q 1947 1309 1714 600 
Q 1481 -109 1013 -844 
L 513 -844 
Q 928 -128 1133 580 
Q 1338 1288 1338 2009 
Q 1338 2731 1133 3434 
Q 928 4138 513 4856 
z
" transform="scale(0.015625)"/>
     </defs>
     <use xlink:href="#DejaVuSans-28"/>
     <use xlink:href="#DejaVuSans-6d" transform="translate(39.013672 0)"/>
     <use xlink:href="#DejaVuSans-69" transform="translate(136.425781 0)"/>
     <use xlink:href="#DejaVuSans-6e" transform="translate(164.208984 0)"/>
     <use xlink:href="#DejaVuSans-65" transform="translate(227.587891 0)"/>
     <use xlink:href="#DejaVuSans-72" transform="translate(289.111328 0)"/>
     <use xlink:href="#DejaVuSans-20" transform="translate(330.224609 0)"/>
     <use xlink:href="#DejaVuSans-31" transform="translate(362.011719 0)"/>
     <use xlink:href="#DejaVuSans-30" transform="translate(425.634766 0)"/>
     <use xlink:href="#DejaVuSans-2d" transform="translate(489.257812 0)"/>
     <use xlink:href="#DejaVuSans-39" transform="translate(525.341797 0)"/>
     <use xlink:href="#DejaVuSans-39" transform="translate(588.964844 0)"/>
     <use xlink:href="#DejaVuSans-39" transform="translate(652.587891 0)"/>
     <use xlink:href="#DejaVuSans-29" transform="translate(716.210938 0)"/>
    </g>
   </g>
   <g id="text_22">
    <!-- 8.00% -->
    <g transform="translate(281.343037 185.535907) scale(0.1 -0.1)">
     <use xlink:href="#DejaVuSans-38"/>
     <use xlink:href="#DejaVuSans-2e" transform="translate(63.623047 0)"/>
     <use xlink:href="#DejaVuSans-30" transform="translate(95.410156 0)"/>
     <use xlink:href="#DejaVuSans-30" transform="translate(159.033203 0)"/>
     <use xlink:href="#DejaVuSans-25" transform="translate(222.65625 0)"/>
    </g>
   </g>
   <g id="legend_1">
    <g id="patch_13">
     <path d="M 670.818978 252.365781 
L 905.996009 252.365781 
Q 907.796009 252.365781 907.796009 250.565781 
L 907.796009 91.974219 
Q 907.796009 90.174219 905.996009 90.174219 
L 670.818978 90.174219 
Q 669.018978 90.174219 669.018978 91.974219 
L 669.018978 250.565781 
Q 669.018978 252.365781 670.818978 252.365781 
z
" style="fill: #ffffff; opacity: 0.8; stroke: #cccccc; stroke-linejoin: miter"/>
    </g>
    <g id="text_23">
     <!-- Hashrate Distribution -->
     <g transform="translate(734.895775 101.372656) scale(0.1 -0.1)">
      <defs>
       <path id="DejaVuSans-48" d="M 628 4666 
L 1259 4666 
L 1259 2753 
L 3553 2753 
L 3553 4666 
L 4184 4666 
L 4184 0 
L 3553 0 
L 3553 2222 
L 1259 2222 
L 1259 0 
L 628 0 
L 628 4666 
z
" transform="scale(0.015625)"/>
       <path id="DejaVuSans-61" d="M 2194 1759 
Q 1497 1759 1228 1600 
Q 959 1441 959 1056 
Q 959 750 1161 570 
Q 1363 391 1709 391 
Q 2188 391 2477 730 
Q 2766 1069 2766 1631 
L 2766 1759 
L 2194 1759 
z
M 3341 1997 
L 3341 0 
L 2766 0 
L 2766 531 
Q 2569 213 2275 61 
Q 1981 -91 1556 -91 
Q 1019 -91 701 211 
Q 384 513 384 1019 
Q 384 1609 779 1909 
Q 1175 2209 1959 2209 
L 2766 2209 
L 2766 2266 
Q 2766 2663 2505 2880 
Q 2244 3097 1772 3097 
Q 1472 3097 1187 3025 
Q 903 2953 641 2809 
L 641 3341 
Q 956 3463 1253 3523 
Q 1550 3584 1831 3584 
Q 2591 3584 2966 3190 
Q 3341 2797 3341 1997 
z
" transform="scale(0.015625)"/>
       <path id="DejaVuSans-44" d="M 1259 4147 
L 1259 519 
L 2022 519 
Q 2988 519 3436 956 
Q 3884 1394 3884 2338 
Q 3884 3275 3436 3711 
Q 2988 4147 2022 4147 
L 1259 4147 
z
M 628 4666 
L 1925 4666 
Q 3281 4666 3915 4102 
Q 4550 3538 4550 2338 
Q 4550 1131 3912 565 
Q 3275 0 1925 0 
L 628 0 
L 628 4666 
z
" transform="scale(0.015625)"/>
       <path id="DejaVuSans-62" d="M 3116 1747 
Q 3116 2381 2855 2742 
Q 2594 3103 2138 3103 
Q 1681 3103 1420 2742 
Q 1159 2381 1159 1747 
Q 1159 1113 1420 752 
Q 1681 391 2138 391 
Q 2594 391 2855 752 
Q 3116 1113 3116 1747 
z
M 1159 2969 
Q 1341 3281 1617 3432 
Q 1894 3584 2278 3584 
Q 2916 3584 3314 3078 
Q 3713 2572 3713 1747 
Q 3713 922 3314 415 
Q 2916 -91 2278 -91 
Q 1894 -91 1617 61 
Q 1341 213 1159 525 
L 1159 0 
L 581 0 
L 581 4863 
L 1159 4863 
L 1159 2969 
z
" transform="scale(0.015625)"/>
       <path id="DejaVuSans-75" d="M 544 1381 
L 544 3500 
L 1119 3500 
L 1119 1403 
Q 1119 906 1312 657 
Q 1506 409 1894 409 
Q 2359 409 2629 706 
Q 2900 1003 2900 1516 
L 2900 3500 
L 3475 3500 
L 3475 0 
L 2900 0 
L 2900 538 
Q 2691 219 2414 64 
Q 2138 -91 1772 -91 
Q 1169 -91 856 284 
Q 544 659 544 1381 
z
M 1991 3584 
L 1991 3584 
z
" transform="scale(0.015625)"/>
       <path id="DejaVuSans-6f" d="M 1959 3097 
Q 1497 3097 1228 2736 
Q 959 2375 959 1747 
Q 959 1119 1226 758 
Q 1494 397 1959 397 
Q 2419 397 2687 759 
Q 2956 1122 2956 1747 
Q 2956 2369 2687 2733 
Q 2419 3097 1959 3097 
z
M 1959 3584 
Q 2709 3584 3137 3096 
Q 3566 2609 3566 1747 
Q 3566 888 3137 398 
Q 2709 -91 1959 -91 
Q 1206 -91 779 398 
Q 353 888 353 1747 
Q 353 2609 779 3096 
Q 1206 3584 1959 3584 
z
" transform="scale(0.015625)"/>
      </defs>
      <use xlink:href="#DejaVuSans-48"/>
      <use xlink:href="#DejaVuSans-61" transform="translate(75.195312 0)"/>
      <use xlink:href="#DejaVuSans-73" transform="translate(136.474609 0)"/>
      <use xlink:href="#DejaVuSans-68" transform="translate(188.574219 0)"/>
      <use xlink:href="#DejaVuSans-72" transform="translate(251.953125 0)"/>
      <use xlink:href="#DejaVuSans-61" transform="translate(293.066406 0)"/>
      <use xlink:href="#DejaVuSans-74" transform="translate(354.345703 0)"/>
      <use xlink:href="#DejaVuSans-65" transform="translate(393.554688 0)"/>
      <use xlink:href="#DejaVuSans-20" transform="translate(455.078125 0)"/>
      <use xlink:href="#DejaVuSans-44" transform="translate(486.865234 0)"/>
      <use xlink:href="#DejaVuSans-69" transform="translate(563.867188 0)"/>
      <use xlink:href="#DejaVuSans-73" transform="translate(591.650391 0)"/>
      <use xlink:href="#DejaVuSans-74" transform="translate(643.75 0)"/>
      <use xlink:href="#DejaVuSans-72" transform="translate(682.958984 0)"/>
      <use xlink:href="#DejaVuSans-69" transform="translate(724.072266 0)"/>
      <use xlink:href="#DejaVuSans-62" transform="translate(751.855469 0)"/>
      <use xlink:href="#DejaVuSans-75" transform="translate(815.332031 0)"/>
      <use xlink:href="#DejaVuSans-74" transform="translate(878.710938 0)"/>
      <use xlink:href="#DejaVuSans-69" transform="translate(917.919922 0)"/>
      <use xlink:href="#DejaVuSans-6f" transform="translate(945.703125 0)"/>
      <use xlink:href="#DejaVuSans-6e" transform="translate(1006.884766 0)"/>
     </g>
    </g>
    <g id="patch_14">
     <path d="M 672.618978 114.790938 
L 690.618978 114.790938 
L 690.618978 108.490938 
L 672.618978 108.490938 
z
" style="fill: #1f77b4"/>
    </g>
    <g id="text_24">
     <!-- miner 0: 27.938% -->
     <g transform="translate(697.818978 114.790938) scale(0.09 -0.09)">
      <defs>
       <path id="DejaVuSans-3a" d="M 750 794 
L 1409 794 
L 1409 0 
L 750 0 
L 750 794 
z
M 750 3309 
L 1409 3309 
L 1409 2516 
L 750 2516 
L 750 3309 
z
" transform="scale(0.015625)"/>
      </defs>
      <use xlink:href="#DejaVuSans-6d"/>
      <use xlink:href="#DejaVuSans-69" transform="translate(97.412109 0)"/>
      <use xlink:href="#DejaVuSans-6e" transform="translate(125.195312 0)"/>
      <use xlink:href="#DejaVuSans-65" transform="translate(188.574219 0)"/>
      <use xlink:href="#DejaVuSans-72" transform="translate(250.097656 0)"/>
      <use xlink:href="#DejaVuSans-20" transform="translate(291.210938 0)"/>
      <use xlink:href="#DejaVuSans-30" transform="translate(322.998047 0)"/>
      <use xlink:href="#DejaVuSans-3a" transform="translate(386.621094 0)"/>
      <use xlink:href="#DejaVuSans-20" transform="translate(420.3125 0)"/>
      <use xlink:href="#DejaVuSans-32" transform="translate(452.099609 0)"/>
      <use xlink:href="#DejaVuSans-37" transform="translate(515.722656 0)"/>
      <use xlink:href="#DejaVuSans-2e" transform="translate(579.345703 0)"/>
      <use xlink:href="#DejaVuSans-39" transform="translate(611.132812 0)"/>
      <use xlink:href="#DejaVuSans-33" transform="translate(674.755859 0)"/>
      <use xlink:href="#DejaVuSans-38" transform="translate(738.378906 0)"/>
      <use xlink:href="#DejaVuSans-25" transform="translate(802.001953 0)"/>
     </g>
    </g>
    <g id="patch_15">
     <path d="M 672.618978 128.00125 
L 690.618978 128.00125 
L 690.618978 121.70125 
L 672.618978 121.70125 
z
" style="fill: #ff7f0e"/>
    </g>
    <g id="text_25">
     <!-- miner 1: 15.318% -->
     <g transform="translate(697.818978 128.00125) scale(0.09 -0.09)">
      <use xlink:href="#DejaVuSans-6d"/>
      <use xlink:href="#DejaVuSans-69" transform="translate(97.412109 0)"/>
      <use xlink:href="#DejaVuSans-6e" transform="translate(125.195312 0)"/>
      <use xlink:href="#DejaVuSans-65" transform="translate(188.574219 0)"/>
      <use xlink:href="#DejaVuSans-72" transform="translate(250.097656 0)"/>
      <use xlink:href="#DejaVuSans-20" transform="translate(291.210938 0)"/>
      <use xlink:href="#DejaVuSans-31" transform="translate(322.998047 0)"/>
      <use xlink:href="#DejaVuSans-3a" transform="translate(386.621094 0)"/>
      <use xlink:href="#DejaVuSans-20" transform="translate(420.3125 0)"/>
      <use xlink:href="#DejaVuSans-31" transform="translate(452.099609 0)"/>
      <use xlink:href="#DejaVuSans-35" transform="translate(515.722656 0)"/>
      <use xlink:href="#DejaVuSans-2e" transform="translate(579.345703 0)"/>
      <use xlink:href="#DejaVuSans-33" transform="translate(611.132812 0)"/>
      <use xlink:href="#DejaVuSans-31" transform="translate(674.755859 0)"/>
      <use xlink:href="#DejaVuSans-38" transform="translate(738.378906 0)"/>
      <use xlink:href="#DejaVuSans-25" transform="translate(802.001953 0)"/>
     </g>
    </g>
    <g id="patch_16">
     <path d="M 672.618978 141.211563 
L 690.618978 141.211563 
L 690.618978 134.911563 
L 672.618978 134.911563 
z
" style="fill: #2ca02c"/>
    </g>
    <g id="text_26">
     <!-- miner 2: 12.428% -->
     <g transform="translate(697.818978 141.211563) scale(0.09 -0.09)">
      <use xlink:href="#DejaVuSans-6d"/>
      <use xlink:href="#DejaVuSans-69" transform="translate(97.412109 0)"/>
      <use xlink:href="#DejaVuSans-6e" transform="translate(125.195312 0)"/>
      <use xlink:href="#DejaVuSans-65" transform="translate(188.574219 0)"/>
      <use xlink:href="#DejaVuSans-72" transform="translate(250.097656 0)"/>
      <use xlink:href="#DejaVuSans-20" transform="translate(291.210938 0)"/>
      <use xlink:href="#DejaVuSans-32" transform="translate(322.998047 0)"/>
      <use xlink:href="#DejaVuSans-3a" transform="translate(386.621094 0)"/>
      <use xlink:href="#DejaVuSans-20" transform="translate(420.3125 0)"/>
      <use xlink:href="#DejaVuSans-31" transform="translate(452.099609 0)"/>
      <use xlink:href="#DejaVuSans-32" transform="translate(515.722656 0)"/>
      <use xlink:href="#DejaVuSans-2e" transform="translate(579.345703 0)"/>
      <use xlink:href="#DejaVuSans-34" transform="translate(611.132812 0)"/>
      <use xlink:href="#DejaVuSans-32" transform="translate(674.755859 0)"/>
      <use xlink:href="#DejaVuSans-38" transform="translate(738.378906 0)"/>
      <use xlink:href="#DejaVuSans-25" transform="translate(802.001953 0)"/>
     </g>
    </g>
    <g id="patch_17">
     <path d="M 672.618978 154.421875 
L 690.618978 154.421875 
L 690.618978 148.121875 
L 672.618978 148.121875 
z
" style="fill: #d62728"/>
    </g>
    <g id="text_27">
     <!-- miner 3: 10.983% -->
     <g transform="translate(697.818978 154.421875) scale(0.09 -0.09)">
      <use xlink:href="#DejaVuSans-6d"/>
      <use xlink:href="#DejaVuSans-69" transform="translate(97.412109 0)"/>
      <use xlink:href="#DejaVuSans-6e" transform="translate(125.195312 0)"/>
      <use xlink:href="#DejaVuSans-65" transform="translate(188.574219 0)"/>
      <use xlink:href="#DejaVuSans-72" transform="translate(250.097656 0)"/>
      <use xlink:href="#DejaVuSans-20" transform="translate(291.210938 0)"/>
      <use xlink:href="#DejaVuSans-33" transform="translate(322.998047 0)"/>
      <use xlink:href="#DejaVuSans-3a" transform="translate(386.621094 0)"/>
      <use xlink:href="#DejaVuSans-20" transform="translate(420.3125 0)"/>
      <use xlink:href="#DejaVuSans-31" transform="translate(452.099609 0)"/>
      <use xlink:href="#DejaVuSans-30" transform="translate(515.722656 0)"/>
      <use xlink:href="#DejaVuSans-2e" transform="translate(579.345703 0)"/>
      <use xlink:href="#DejaVuSans-39" transform="translate(611.132812 0)"/>
      <use xlink:href="#DejaVuSans-38" transform="translate(674.755859 0)"/>
      <use xlink:href="#DejaVuSans-33" transform="translate(738.378906 0)"/>
      <use xlink:href="#DejaVuSans-25" transform="translate(802.001953 0)"/>
     </g>
    </g>
    <g id="patch_18">
     <path d="M 672.618978 167.632188 
L 690.618978 167.632188 
L 690.618978 161.332188 
L 672.618978 161.332188 
z
" style="fill: #9467bd"/>
    </g>
    <g id="text_28">
     <!-- miner 4: 8.478% -->
     <g transform="translate(697.818978 167.632188) scale(0.09 -0.09)">
      <use xlink:href="#DejaVuSans-6d"/>
      <use xlink:href="#DejaVuSans-69" transform="translate(97.412109 0)"/>
      <use xlink:href="#DejaVuSans-6e" transform="translate(125.195312 0)"/>
      <use xlink:href="#DejaVuSans-65" transform="translate(188.574219 0)"/>
      <use xlink:href="#DejaVuSans-72" transform="translate(250.097656 0)"/>
      <use xlink:href="#DejaVuSans-20" transform="translate(291.210938 0)"/>
      <use xlink:href="#DejaVuSans-34" transform="translate(322.998047 0)"/>
      <use xlink:href="#DejaVuSans-3a" transform="translate(386.621094 0)"/>
      <use xlink:href="#DejaVuSans-20" transform="translate(420.3125 0)"/>
      <use xlink:href="#DejaVuSans-38" transform="translate(452.099609 0)"/>
      <use xlink:href="#DejaVuSans-2e" transform="translate(515.722656 0)"/>
      <use xlink:href="#DejaVuSans-34" transform="translate(547.509766 0)"/>
      <use xlink:href="#DejaVuSans-37" transform="translate(611.132812 0)"/>
      <use xlink:href="#DejaVuSans-38" transform="translate(674.755859 0)"/>
      <use xlink:href="#DejaVuSans-25" transform="translate(738.378906 0)"/>
     </g>
    </g>
    <g id="patch_19">
     <path d="M 672.618978 180.8425 
L 690.618978 180.8425 
L 690.618978 174.5425 
L 672.618978 174.5425 
z
" style="fill: #8c564b"/>
    </g>
    <g id="text_29">
     <!-- miner 5: 4.624% -->
     <g transform="translate(697.818978 180.8425) scale(0.09 -0.09)">
      <use xlink:href="#DejaVuSans-6d"/>
      <use xlink:href="#DejaVuSans-69" transform="translate(97.412109 0)"/>
      <use xlink:href="#DejaVuSans-6e" transform="translate(125.195312 0)"/>
      <use xlink:href="#DejaVuSans-65" transform="translate(188.574219 0)"/>
      <use xlink:href="#DejaVuSans-72" transform="translate(250.097656 0)"/>
      <use xlink:href="#DejaVuSans-20" transform="translate(291.210938 0)"/>
      <use xlink:href="#DejaVuSans-35" transform="translate(322.998047 0)"/>
      <use xlink:href="#DejaVuSans-3a" transform="translate(386.621094 0)"/>
      <use xlink:href="#DejaVuSans-20" transform="translate(420.3125 0)"/>
      <use xlink:href="#DejaVuSans-34" transform="translate(452.099609 0)"/>
      <use xlink:href="#DejaVuSans-2e" transform="translate(515.722656 0)"/>
      <use xlink:href="#DejaVuSans-36" transform="translate(547.509766 0)"/>
      <use xlink:href="#DejaVuSans-32" transform="translate(611.132812 0)"/>
      <use xlink:href="#DejaVuSans-34" transform="translate(674.755859 0)"/>
      <use xlink:href="#DejaVuSans-25" transform="translate(738.378906 0)"/>
     </g>
    </g>
    <g id="patch_20">
     <path d="M 672.618978 194.052813 
L 690.618978 194.052813 
L 690.618978 187.752813 
L 672.618978 187.752813 
z
" style="fill: #e377c2"/>
    </g>
    <g id="text_30">
     <!-- miner 6: 4.046% -->
     <g transform="translate(697.818978 194.052813) scale(0.09 -0.09)">
      <use xlink:href="#DejaVuSans-6d"/>
      <use xlink:href="#DejaVuSans-69" transform="translate(97.412109 0)"/>
      <use xlink:href="#DejaVuSans-6e" transform="translate(125.195312 0)"/>
      <use xlink:href="#DejaVuSans-65" transform="translate(188.574219 0)"/>
      <use xlink:href="#DejaVuSans-72" transform="translate(250.097656 0)"/>
      <use xlink:href="#DejaVuSans-20" transform="translate(291.210938 0)"/>
      <use xlink:href="#DejaVuSans-36" transform="translate(322.998047 0)"/>
      <use xlink:href="#DejaVuSans-3a" transform="translate(386.621094 0)"/>
      <use xlink:href="#DejaVuSans-20" transform="translate(420.3125 0)"/>
      <use xlink:href="#DejaVuSans-34" transform="translate(452.099609 0)"/>
      <use xlink:href="#DejaVuSans-2e" transform="translate(515.722656 0)"/>
      <use xlink:href="#DejaVuSans-30" transform="translate(547.509766 0)"/>
      <use xlink:href="#DejaVuSans-34" transform="translate(611.132812 0)"/>
      <use xlink:href="#DejaVuSans-36" transform="translate(674.755859 0)"/>
      <use xlink:href="#DejaVuSans-25" transform="translate(738.378906 0)"/>
     </g>
    </g>
    <g id="patch_21">
     <path d="M 672.618978 207.263125 
L 690.618978 207.263125 
L 690.618978 200.963125 
L 672.618978 200.963125 
z
" style="fill: #17becf"/>
    </g>
    <g id="text_31">
     <!-- miner 7: 3.854% -->
     <g transform="translate(697.818978 207.263125) scale(0.09 -0.09)">
      <use xlink:href="#DejaVuSans-6d"/>
      <use xlink:href="#DejaVuSans-69" transform="translate(97.412109 0)"/>
      <use xlink:href="#DejaVuSans-6e" transform="translate(125.195312 0)"/>
      <use xlink:href="#DejaVuSans-65" transform="translate(188.574219 0)"/>
      <use xlink:href="#DejaVuSans-72" transform="translate(250.097656 0)"/>
      <use xlink:href="#DejaVuSans-20" transform="translate(291.210938 0)"/>
      <use xlink:href="#DejaVuSans-37" transform="translate(322.998047 0)"/>
      <use xlink:href="#DejaVuSans-3a" transform="translate(386.621094 0)"/>
      <use xlink:href="#DejaVuSans-20" transform="translate(420.3125 0)"/>
      <use xlink:href="#DejaVuSans-33" transform="translate(452.099609 0)"/>
      <use xlink:href="#DejaVuSans-2e" transform="translate(515.722656 0)"/>
      <use xlink:href="#DejaVuSans-38" transform="translate(547.509766 0)"/>
      <use xlink:href="#DejaVuSans-35" transform="translate(611.132812 0)"/>
      <use xlink:href="#DejaVuSans-34" transform="translate(674.755859 0)"/>
      <use xlink:href="#DejaVuSans-25" transform="translate(738.378906 0)"/>
     </g>
    </g>
    <g id="patch_22">
     <path d="M 672.618978 220.473438 
L 690.618978 220.473438 
L 690.618978 214.173438 
L 672.618978 214.173438 
z
" style="fill: #bcbd22"/>
    </g>
    <g id="text_32">
     <!-- miner 8: 2.408% -->
     <g transform="translate(697.818978 220.473438) scale(0.09 -0.09)">
      <use xlink:href="#DejaVuSans-6d"/>
      <use xlink:href="#DejaVuSans-69" transform="translate(97.412109 0)"/>
      <use xlink:href="#DejaVuSans-6e" transform="translate(125.195312 0)"/>
      <use xlink:href="#DejaVuSans-65" transform="translate(188.574219 0)"/>
      <use xlink:href="#DejaVuSans-72" transform="translate(250.097656 0)"/>
      <use xlink:href="#DejaVuSans-20" transform="translate(291.210938 0)"/>
      <use xlink:href="#DejaVuSans-38" transform="translate(322.998047 0)"/>
      <use xlink:href="#DejaVuSans-3a" transform="translate(386.621094 0)"/>
      <use xlink:href="#DejaVuSans-20" transform="translate(420.3125 0)"/>
      <use xlink:href="#DejaVuSans-32" transform="translate(452.099609 0)"/>
      <use xlink:href="#DejaVuSans-2e" transform="translate(515.722656 0)"/>
      <use xlink:href="#DejaVuSans-34" transform="translate(547.509766 0)"/>
      <use xlink:href="#DejaVuSans-30" transform="translate(611.132812 0)"/>
      <use xlink:href="#DejaVuSans-38" transform="translate(674.755859 0)"/>
      <use xlink:href="#DejaVuSans-25" transform="translate(738.378906 0)"/>
     </g>
    </g>
    <g id="patch_23">
     <path d="M 672.618978 233.68375 
L 690.618978 233.68375 
L 690.618978 227.38375 
L 672.618978 227.38375 
z
" style="fill: #ff9896"/>
    </g>
    <g id="text_33">
     <!-- miner 9: 1.927% -->
     <g transform="translate(697.818978 233.68375) scale(0.09 -0.09)">
      <use xlink:href="#DejaVuSans-6d"/>
      <use xlink:href="#DejaVuSans-69" transform="translate(97.412109 0)"/>
      <use xlink:href="#DejaVuSans-6e" transform="translate(125.195312 0)"/>
      <use xlink:href="#DejaVuSans-65" transform="translate(188.574219 0)"/>
      <use xlink:href="#DejaVuSans-72" transform="translate(250.097656 0)"/>
      <use xlink:href="#DejaVuSans-20" transform="translate(291.210938 0)"/>
      <use xlink:href="#DejaVuSans-39" transform="translate(322.998047 0)"/>
      <use xlink:href="#DejaVuSans-3a" transform="translate(386.621094 0)"/>
      <use xlink:href="#DejaVuSans-20" transform="translate(420.3125 0)"/>
      <use xlink:href="#DejaVuSans-31" transform="translate(452.099609 0)"/>
      <use xlink:href="#DejaVuSans-2e" transform="translate(515.722656 0)"/>
      <use xlink:href="#DejaVuSans-39" transform="translate(547.509766 0)"/>
      <use xlink:href="#DejaVuSans-32" transform="translate(611.132812 0)"/>
      <use xlink:href="#DejaVuSans-37" transform="translate(674.755859 0)"/>
      <use xlink:href="#DejaVuSans-25" transform="translate(738.378906 0)"/>
     </g>
    </g>
    <g id="patch_24">
     <path d="M 672.618978 246.894063 
L 690.618978 246.894063 
L 690.618978 240.594063 
L 672.618978 240.594063 
z
" style="fill: #d0d0d0"/>
    </g>
    <g id="text_34">
     <!-- miner 10-999: each 0.008077%, total 7.996% -->
     <g transform="translate(697.818978 246.894063) scale(0.09 -0.09)">
      <defs>
       <path id="DejaVuSans-63" d="M 3122 3366 
L 3122 2828 
Q 2878 2963 2633 3030 
Q 2388 3097 2138 3097 
Q 1578 3097 1268 2742 
Q 959 2388 959 1747 
Q 959 1106 1268 751 
Q 1578 397 2138 397 
Q 2388 397 2633 464 
Q 2878 531 3122 666 
L 3122 134 
Q 2881 22 2623 -34 
Q 2366 -91 2075 -91 
Q 1284 -91 818 406 
Q 353 903 353 1747 
Q 353 2603 823 3093 
Q 1294 3584 2113 3584 
Q 2378 3584 2631 3529 
Q 2884 3475 3122 3366 
z
" transform="scale(0.015625)"/>
       <path id="DejaVuSans-2c" d="M 750 794 
L 1409 794 
L 1409 256 
L 897 -744 
L 494 -744 
L 750 256 
L 750 794 
z
" transform="scale(0.015625)"/>
       <path id="DejaVuSans-6c" d="M 603 4863 
L 1178 4863 
L 1178 0 
L 603 0 
L 603 4863 
z
" transform="scale(0.015625)"/>
      </defs>
      <use xlink:href="#DejaVuSans-6d"/>
      <use xlink:href="#DejaVuSans-69" transform="translate(97.412109 0)"/>
      <use xlink:href="#DejaVuSans-6e" transform="translate(125.195312 0)"/>
      <use xlink:href="#DejaVuSans-65" transform="translate(188.574219 0)"/>
      <use xlink:href="#DejaVuSans-72" transform="translate(250.097656 0)"/>
      <use xlink:href="#DejaVuSans-20" transform="translate(291.210938 0)"/>
      <use xlink:href="#DejaVuSans-31" transform="translate(322.998047 0)"/>
      <use xlink:href="#DejaVuSans-30" transform="translate(386.621094 0)"/>
      <use xlink:href="#DejaVuSans-2d" transform="translate(450.244141 0)"/>
      <use xlink:href="#DejaVuSans-39" transform="translate(486.328125 0)"/>
      <use xlink:href="#DejaVuSans-39" transform="translate(549.951172 0)"/>
      <use xlink:href="#DejaVuSans-39" transform="translate(613.574219 0)"/>
      <use xlink:href="#DejaVuSans-3a" transform="translate(677.197266 0)"/>
      <use xlink:href="#DejaVuSans-20" transform="translate(710.888672 0)"/>
      <use xlink:href="#DejaVuSans-65" transform="translate(742.675781 0)"/>
      <use xlink:href="#DejaVuSans-61" transform="translate(804.199219 0)"/>
      <use xlink:href="#DejaVuSans-63" transform="translate(865.478516 0)"/>
      <use xlink:href="#DejaVuSans-68" transform="translate(920.458984 0)"/>
      <use xlink:href="#DejaVuSans-20" transform="translate(983.837891 0)"/>
      <use xlink:href="#DejaVuSans-30" transform="translate(1015.625 0)"/>
      <use xlink:href="#DejaVuSans-2e" transform="translate(1079.248047 0)"/>
      <use xlink:href="#DejaVuSans-30" transform="translate(1111.035156 0)"/>
      <use xlink:href="#DejaVuSans-30" transform="translate(1174.658203 0)"/>
      <use xlink:href="#DejaVuSans-38" transform="translate(1238.28125 0)"/>
      <use xlink:href="#DejaVuSans-30" transform="translate(1301.904297 0)"/>
      <use xlink:href="#DejaVuSans-37" transform="translate(1365.527344 0)"/>
      <use xlink:href="#DejaVuSans-37" transform="translate(1429.150391 0)"/>
      <use xlink:href="#DejaVuSans-25" transform="translate(1492.773438 0)"/>
      <use xlink:href="#DejaVuSans-2c" transform="translate(1587.792969 0)"/>
      <use xlink:href="#DejaVuSans-20" transform="translate(1619.580078 0)"/>
      <use xlink:href="#DejaVuSans-74" transform="translate(1651.367188 0)"/>
      <use xlink:href="#DejaVuSans-6f" transform="translate(1690.576172 0)"/>
      <use xlink:href="#DejaVuSans-74" transform="translate(1751.757812 0)"/>
      <use xlink:href="#DejaVuSans-61" transform="translate(1790.966797 0)"/>
      <use xlink:href="#DejaVuSans-6c" transform="translate(1852.246094 0)"/>
      <use xlink:href="#DejaVuSans-20" transform="translate(1880.029297 0)"/>
      <use xlink:href="#DejaVuSans-37" transform="translate(1911.816406 0)"/>
      <use xlink:href="#DejaVuSans-2e" transform="translate(1975.439453 0)"/>
      <use xlink:href="#DejaVuSans-39" transform="translate(2007.226562 0)"/>
      <use xlink:href="#DejaVuSans-39" transform="translate(2070.849609 0)"/>
      <use xlink:href="#DejaVuSans-36" transform="translate(2134.472656 0)"/>
      <use xlink:href="#DejaVuSans-25" transform="translate(2198.095703 0)"/>
     </g>
    </g>
   </g>
  </g>
 </g>
</svg>
