<?xml version="1.0" encoding="utf-8" standalone="no"?>
<!DOCTYPE svg PUBLIC "-//W3C//DTD SVG 1.1//EN"
  "http://www.w3.org/Graphics/SVG/1.1/DTD/svg11.dtd">
<svg xmlns:xlink="http://www.w3.org/1999/xlink" width="916.009911pt" height="671.67pt" viewBox="0 0 916.009911 671.67" xmlns="http://www.w3.org/2000/svg" version="1.1">
 <metadata>
  <rdf:RDF xmlns:dc="http://purl.org/dc/elements/1.1/" xmlns:cc="http://creativecommons.org/ns#" xmlns:rdf="http://www.w3.org/1999/02/22-rdf-syntax-ns#">
   <cc:Work>
    <dc:type rdf:resource="http://purl.org/dc/dcmitype/StillImage"/>
    <dc:date>2025-09-13T17:38:33.490776</dc:date>
    <dc:format>image/svg+xml</dc:format>
    <dc:creator>
     <cc:Agent>
      <dc:title>Matplotlib v3.10.3, https://matplotlib.org/</dc:title>
     </cc:Agent>
    </dc:creator>
   </cc:Work>
  </rdf:RDF>
 </metadata>
 <defs>
  <style type="text/css">*{stroke-linejoin: round; stroke-linecap: butt}</style>
 </defs>
 <g id="figure_1">
  <g id="patch_1">
   <path d="M 0 671.67 
L 916.009911 671.67 
L 916.009911 0 
L 0 0 
z
" style="fill: #ffffff"/>
  </g>
  <g id="axes_1">
   <g id="patch_2">
    <path d="M 606.451793 375.698704 
C 613.540063 337.74184 612.180017 298.685367 602.468656 261.3135 
C 592.757278 223.941633 574.930945 189.164063 550.260441 159.459963 
C 525.589937 129.755863 494.675773 105.848279 459.721729 89.441524 
C 424.767686 73.034768 386.624605 64.528189 348.011561 64.528189 
L 348.011573 327.436189 
z
" style="fill: #1f77b4"/>
   </g>
   <g id="patch_3">
    <path d="M 456.333672 583.612566 
C 494.961297 566.189639 528.810066 539.683347 554.986196 506.359745 
C 581.162325 473.036142 598.897942 433.872757 606.676828 392.21774 
L 348.236608 343.955226 
z
" style="fill: #ff7f0e"/>
   </g>
   <g id="patch_4">
    <path d="M 246.427645 595.292689 
C 278.585759 607.29184 312.784636 612.878073 347.089414 611.735377 
C 381.394192 610.592682 415.145495 602.743011 446.433824 588.630454 
L 338.33676 348.973113 
z
" style="fill: #2ca02c"/>
   </g>
   <g id="patch_5">
    <path d="M 101.724477 477.325814 
C 116.880583 503.576707 136.463067 527.009803 159.60469 546.587398 
C 182.746314 566.164992 209.100374 581.593734 237.4998 592.190403 
L 329.408916 345.870827 
z
" style="fill: #d62728"/>
   </g>
   <g id="patch_6">
    <path d="M 69.916845 334.786876 
C 69.704713 358.161263 72.610861 381.459894 78.558379 404.065954 
C 84.505896 426.672013 93.441817 448.384256 105.129578 468.627849 
L 332.814017 337.172862 
z
" style="fill: #9467bd"/>
   </g>
   <g id="patch_7">
    <path d="M 81.508942 257.425577 
C 77.749439 269.595097 74.879255 282.02172 72.92108 294.607293 
C 70.962905 307.192867 69.921896 319.904154 69.80631 332.640627 
L 332.703481 335.026614 
z
" style="fill: #8c564b"/>
   </g>
   <g id="patch_8">
    <path d="M 109.509122 195.375804 
C 103.647824 204.853541 98.395044 214.694318 93.782562 224.838648 
C 89.170081 234.982979 85.207221 245.410343 81.917991 256.057564 
L 333.11253 333.658601 
z
" style="fill: #e377c2"/>
   </g>
   <g id="patch_9">
    <path d="M 149.868519 144.68757 
C 142.285154 152.11202 135.158303 159.988816 128.52708 168.274754 
C 121.895856 176.560692 115.772406 185.240572 110.190388 194.266708 
L 333.793795 332.549505 
z
" style="fill: #17becf"/>
   </g>
   <g id="patch_10">
    <path d="M 181.012502 118.368299 
C 175.628513 122.240332 170.392986 126.314688 165.31711 130.582637 
C 160.241235 134.850586 155.328631 139.309074 150.589892 143.948509 
L 334.515168 331.810444 
z
" style="fill: #bcbd22"/>
   </g>
   <g id="patch_11">
    <path d="M 208.490712 100.970168 
C 203.841161 103.524842 199.270011 106.219657 194.78352 109.050932 
C 190.297029 111.882206 185.897275 114.848623 181.590275 117.946109 
L 335.092941 331.388254 
z
" style="fill: #aec7e8"/>
   </g>
   <g id="patch_12">
    <path d="M 337.899007 72.927 
C 315.855194 72.927016 293.89857 75.699463 272.546655 81.179011 
C 251.19474 86.65856 230.616558 94.801817 211.2969 105.416914 
L 337.899129 335.835 
z
" style="fill: #d0d0d0"/>
   </g>
   <g id="matplotlib.axis_1"/>
   <g id="matplotlib.axis_2"/>
   <g id="text_1">
    <!-- Miner 0 -->
    <g transform="translate(570.485333 139.822818) scale(0.1 -0.1)">
     <defs>
      <path id="DejaVuSans-4d" d="M 628 4666 
L 1569 4666 
L 2759 1491 
L 3956 4666 
L 4897 4666 
L 4897 0 
L 4281 0 
L 4281 4097 
L 3078 897 
L 2444 897 
L 1241 4097 
L 1241 0 
L 628 0 
L 628 4666 
z
" transform="scale(0.015625)"/>
      <path id="DejaVuSans-69" d="M 603 3500 
L 1178 3500 
L 1178 0 
L 603 0 
L 603 3500 
z
M 603 4863 
L 1178 4863 
L 1178 4134 
L 603 4134 
L 603 4863 
z
" transform="scale(0.015625)"/>
      <path id="DejaVuSans-6e" d="M 3513 2113 
L 3513 0 
L 2938 0 
L 2938 2094 
Q 2938 2591 2744 2837 
Q 2550 3084 2163 3084 
Q 1697 3084 1428 2787 
Q 1159 2491 1159 1978 
L 1159 0 
L 581 0 
L 581 3500 
L 1159 3500 
L 1159 2956 
Q 1366 3272 1645 3428 
Q 1925 3584 2291 3584 
Q 2894 3584 3203 3211 
Q 3513 2838 3513 2113 
z
" transform="scale(0.015625)"/>
      <path id="DejaVuSans-65" d="M 3597 1894 
L 3597 1613 
L 953 1613 
Q 991 1019 1311 708 
Q 1631 397 2203 397 
Q 2534 397 2845 478 
Q 3156 559 3463 722 
L 3463 178 
Q 3153 47 2828 -22 
Q 2503 -91 2169 -91 
Q 1331 -91 842 396 
Q 353 884 353 1716 
Q 353 2575 817 3079 
Q 1281 3584 2069 3584 
Q 2775 3584 3186 3129 
Q 3597 2675 3597 1894 
z
M 3022 2063 
Q 3016 2534 2758 2815 
Q 2500 3097 2075 3097 
Q 1594 3097 1305 2825 
Q 1016 2553 972 2059 
L 3022 2063 
z
" transform="scale(0.015625)"/>
      <path id="DejaVuSans-72" d="M 2631 2963 
Q 2534 3019 2420 3045 
Q 2306 3072 2169 3072 
Q 1681 3072 1420 2755 
Q 1159 2438 1159 1844 
L 1159 0 
L 581 0 
L 581 3500 
L 1159 3500 
L 1159 2956 
Q 1341 3275 1631 3429 
Q 1922 3584 2338 3584 
Q 2397 3584 2469 3576 
Q 2541 3569 2628 3553 
L 2631 2963 
z
" transform="scale(0.015625)"/>
      <path id="DejaVuSans-20" transform="scale(0.015625)"/>
      <path id="DejaVuSans-30" d="M 2034 4250 
Q 1547 4250 1301 3770 
Q 1056 3291 1056 2328 
Q 1056 1369 1301 889 
Q 1547 409 2034 409 
Q 2525 409 2770 889 
Q 3016 1369 3016 2328 
Q 3016 3291 2770 3770 
Q 2525 4250 2034 4250 
z
M 2034 4750 
Q 2819 4750 3233 4129 
Q 3647 3509 3647 2328 
Q 3647 1150 3233 529 
Q 2819 -91 2034 -91 
Q 1250 -91 836 529 
Q 422 1150 422 2328 
Q 422 3509 836 4129 
Q 1250 4750 2034 4750 
z
" transform="scale(0.015625)"/>
     </defs>
     <use xlink:href="#DejaVuSans-4d"/>
     <use xlink:href="#DejaVuSans-69" transform="translate(86.279297 0)"/>
     <use xlink:href="#DejaVuSans-6e" transform="translate(114.0625 0)"/>
     <use xlink:href="#DejaVuSans-65" transform="translate(177.441406 0)"/>
     <use xlink:href="#DejaVuSans-72" transform="translate(238.964844 0)"/>
     <use xlink:href="#DejaVuSans-20" transform="translate(280.078125 0)"/>
     <use xlink:href="#DejaVuSans-30" transform="translate(311.865234 0)"/>
    </g>
    <!-- (27.938%) -->
    <g transform="translate(570.485333 151.020631) scale(0.1 -0.1)">
     <defs>
      <path id="DejaVuSans-28" d="M 1984 4856 
Q 1566 4138 1362 3434 
Q 1159 2731 1159 2009 
Q 1159 1288 1364 580 
Q 1569 -128 1984 -844 
L 1484 -844 
Q 1016 -109 783 600 
Q 550 1309 550 2009 
Q 550 2706 781 3412 
Q 1013 4119 1484 4856 
L 1984 4856 
z
" transform="scale(0.015625)"/>
      <path id="DejaVuSans-32" d="M 1228 531 
L 3431 531 
L 3431 0 
L 469 0 
L 469 531 
Q 828 903 1448 1529 
Q 2069 2156 2228 2338 
Q 2531 2678 2651 2914 
Q 2772 3150 2772 3378 
Q 2772 3750 2511 3984 
Q 2250 4219 1831 4219 
Q 1534 4219 1204 4116 
Q 875 4013 500 3803 
L 500 4441 
Q 881 4594 1212 4672 
Q 1544 4750 1819 4750 
Q 2544 4750 2975 4387 
Q 3406 4025 3406 3419 
Q 3406 3131 3298 2873 
Q 3191 2616 2906 2266 
Q 2828 2175 2409 1742 
Q 1991 1309 1228 531 
z
" transform="scale(0.015625)"/>
      <path id="DejaVuSans-37" d="M 525 4666 
L 3525 4666 
L 3525 4397 
L 1831 0 
L 1172 0 
L 2766 4134 
L 525 4134 
L 525 4666 
z
" transform="scale(0.015625)"/>
      <path id="DejaVuSans-2e" d="M 684 794 
L 1344 794 
L 1344 0 
L 684 0 
L 684 794 
z
" transform="scale(0.015625)"/>
      <path id="DejaVuSans-39" d="M 703 97 
L 703 672 
Q 941 559 1184 500 
Q 1428 441 1663 441 
Q 2288 441 2617 861 
Q 2947 1281 2994 2138 
Q 2813 1869 2534 1725 
Q 2256 1581 1919 1581 
Q 1219 1581 811 2004 
Q 403 2428 403 3163 
Q 403 3881 828 4315 
Q 1253 4750 1959 4750 
Q 2769 4750 3195 4129 
Q 3622 3509 3622 2328 
Q 3622 1225 3098 567 
Q 2575 -91 1691 -91 
Q 1453 -91 1209 -44 
Q 966 3 703 97 
z
M 1959 2075 
Q 2384 2075 2632 2365 
Q 2881 2656 2881 3163 
Q 2881 3666 2632 3958 
Q 2384 4250 1959 4250 
Q 1534 4250 1286 3958 
Q 1038 3666 1038 3163 
Q 1038 2656 1286 2365 
Q 1534 2075 1959 2075 
z
" transform="scale(0.015625)"/>
      <path id="DejaVuSans-33" d="M 2597 2516 
Q 3050 2419 3304 2112 
Q 3559 1806 3559 1356 
Q 3559 666 3084 287 
Q 2609 -91 1734 -91 
Q 1441 -91 1130 -33 
Q 819 25 488 141 
L 488 750 
Q 750 597 1062 519 
Q 1375 441 1716 441 
Q 2309 441 2620 675 
Q 2931 909 2931 1356 
Q 2931 1769 2642 2001 
Q 2353 2234 1838 2234 
L 1294 2234 
L 1294 2753 
L 1863 2753 
Q 2328 2753 2575 2939 
Q 2822 3125 2822 3475 
Q 2822 3834 2567 4026 
Q 2313 4219 1838 4219 
Q 1578 4219 1281 4162 
Q 984 4106 628 3988 
L 628 4550 
Q 988 4650 1302 4700 
Q 1616 4750 1894 4750 
Q 2613 4750 3031 4423 
Q 3450 4097 3450 3541 
Q 3450 3153 3228 2886 
Q 3006 2619 2597 2516 
z
" transform="scale(0.015625)"/>
      <path id="DejaVuSans-38" d="M 2034 2216 
Q 1584 2216 1326 1975 
Q 1069 1734 1069 1313 
Q 1069 891 1326 650 
Q 1584 409 2034 409 
Q 2484 409 2743 651 
Q 3003 894 3003 1313 
Q 3003 1734 2745 1975 
Q 2488 2216 2034 2216 
z
M 1403 2484 
Q 997 2584 770 2862 
Q 544 3141 544 3541 
Q 544 4100 942 4425 
Q 1341 4750 2034 4750 
Q 2731 4750 3128 4425 
Q 3525 4100 3525 3541 
Q 3525 3141 3298 2862 
Q 3072 2584 2669 2484 
Q 3125 2378 3379 2068 
Q 3634 1759 3634 1313 
Q 3634 634 3220 271 
Q 2806 -91 2034 -91 
Q 1263 -91 848 271 
Q 434 634 434 1313 
Q 434 1759 690 2068 
Q 947 2378 1403 2484 
z
M 1172 3481 
Q 1172 3119 1398 2916 
Q 1625 2713 2034 2713 
Q 2441 2713 2670 2916 
Q 2900 3119 2900 3481 
Q 2900 3844 2670 4047 
Q 2441 4250 2034 4250 
Q 1625 4250 1398 4047 
Q 1172 3844 1172 3481 
z
" transform="scale(0.015625)"/>
      <path id="DejaVuSans-25" d="M 4653 2053 
Q 4381 2053 4226 1822 
Q 4072 1591 4072 1178 
Q 4072 772 4226 539 
Q 4381 306 4653 306 
Q 4919 306 5073 539 
Q 5228 772 5228 1178 
Q 5228 1588 5073 1820 
Q 4919 2053 4653 2053 
z
M 4653 2450 
Q 5147 2450 5437 2106 
Q 5728 1763 5728 1178 
Q 5728 594 5436 251 
Q 5144 -91 4653 -91 
Q 4153 -91 3862 251 
Q 3572 594 3572 1178 
Q 3572 1766 3864 2108 
Q 4156 2450 4653 2450 
z
M 1428 4353 
Q 1159 4353 1004 4120 
Q 850 3888 850 3481 
Q 850 3069 1003 2837 
Q 1156 2606 1428 2606 
Q 1700 2606 1854 2837 
Q 2009 3069 2009 3481 
Q 2009 3884 1853 4118 
Q 1697 4353 1428 4353 
z
M 4250 4750 
L 4750 4750 
L 1831 -91 
L 1331 -91 
L 4250 4750 
z
M 1428 4750 
Q 1922 4750 2215 4408 
Q 2509 4066 2509 3481 
Q 2509 2891 2217 2550 
Q 1925 2209 1428 2209 
Q 931 2209 642 2551 
Q 353 2894 353 3481 
Q 353 4063 643 4406 
Q 934 4750 1428 4750 
z
" transform="scale(0.015625)"/>
      <path id="DejaVuSans-29" d="M 513 4856 
L 1013 4856 
Q 1481 4119 1714 3412 
Q 1947 2706 1947 2009 
Q 1947 1309 1714 600 
Q 1481 -109 1013 -844 
L 513 -844 
Q 928 -128 1133 580 
Q 1338 1288 1338 2009 
Q 1338 2731 1133 3434 
Q 928 4138 513 4856 
z
" transform="scale(0.015625)"/>
     </defs>
     <use xlink:href="#DejaVuSans-28"/>
     <use xlink:href="#DejaVuSans-32" transform="translate(39.013672 0)"/>
     <use xlink:href="#DejaVuSans-37" transform="translate(102.636719 0)"/>
     <use xlink:href="#DejaVuSans-2e" transform="translate(166.259766 0)"/>
     <use xlink:href="#DejaVuSans-39" transform="translate(198.046875 0)"/>
     <use xlink:href="#DejaVuSans-33" transform="translate(261.669922 0)"/>
     <use xlink:href="#DejaVuSans-38" transform="translate(325.292969 0)"/>
     <use xlink:href="#DejaVuSans-25" transform="translate(388.916016 0)"/>
     <use xlink:href="#DejaVuSans-29" transform="translate(483.935547 0)"/>
    </g>
   </g>
   <g id="text_2">
    <!-- 27.94% -->
    <g transform="translate(450.296053 229.409833) scale(0.1 -0.1)">
     <defs>
      <path id="DejaVuSans-34" d="M 2419 4116 
L 825 1625 
L 2419 1625 
L 2419 4116 
z
M 2253 4666 
L 3047 4666 
L 3047 1625 
L 3713 1625 
L 3713 1100 
L 3047 1100 
L 3047 0 
L 2419 0 
L 2419 1100 
L 313 1100 
L 313 1709 
L 2253 4666 
z
" transform="scale(0.015625)"/>
     </defs>
     <use xlink:href="#DejaVuSans-32"/>
     <use xlink:href="#DejaVuSans-37" transform="translate(63.623047 0)"/>
     <use xlink:href="#DejaVuSans-2e" transform="translate(127.246094 0)"/>
     <use xlink:href="#DejaVuSans-39" transform="translate(159.033203 0)"/>
     <use xlink:href="#DejaVuSans-34" transform="translate(222.65625 0)"/>
     <use xlink:href="#DejaVuSans-25" transform="translate(286.279297 0)"/>
    </g>
   </g>
   <g id="text_3">
    <!-- Miner 1 -->
    <g transform="translate(575.66115 519.76066) scale(0.1 -0.1)">
     <defs>
      <path id="DejaVuSans-31" d="M 794 531 
L 1825 531 
L 1825 4091 
L 703 3866 
L 703 4441 
L 1819 4666 
L 2450 4666 
L 2450 531 
L 3481 531 
L 3481 0 
L 794 0 
L 794 531 
z
" transform="scale(0.015625)"/>
     </defs>
     <use xlink:href="#DejaVuSans-4d"/>
     <use xlink:href="#DejaVuSans-69" transform="translate(86.279297 0)"/>
     <use xlink:href="#DejaVuSans-6e" transform="translate(114.0625 0)"/>
     <use xlink:href="#DejaVuSans-65" transform="translate(177.441406 0)"/>
     <use xlink:href="#DejaVuSans-72" transform="translate(238.964844 0)"/>
     <use xlink:href="#DejaVuSans-20" transform="translate(280.078125 0)"/>
     <use xlink:href="#DejaVuSans-31" transform="translate(311.865234 0)"/>
    </g>
    <!-- (15.318%) -->
    <g transform="translate(575.66115 530.958473) scale(0.1 -0.1)">
     <defs>
      <path id="DejaVuSans-35" d="M 691 4666 
L 3169 4666 
L 3169 4134 
L 1269 4134 
L 1269 2991 
Q 1406 3038 1543 3061 
Q 1681 3084 1819 3084 
Q 2600 3084 3056 2656 
Q 3513 2228 3513 1497 
Q 3513 744 3044 326 
Q 2575 -91 1722 -91 
Q 1428 -91 1123 -41 
Q 819 9 494 109 
L 494 744 
Q 775 591 1075 516 
Q 1375 441 1709 441 
Q 2250 441 2565 725 
Q 2881 1009 2881 1497 
Q 2881 1984 2565 2268 
Q 2250 2553 1709 2553 
Q 1456 2553 1204 2497 
Q 953 2441 691 2322 
L 691 4666 
z
" transform="scale(0.015625)"/>
     </defs>
     <use xlink:href="#DejaVuSans-28"/>
     <use xlink:href="#DejaVuSans-31" transform="translate(39.013672 0)"/>
     <use xlink:href="#DejaVuSans-35" transform="translate(102.636719 0)"/>
     <use xlink:href="#DejaVuSans-2e" transform="translate(166.259766 0)"/>
     <use xlink:href="#DejaVuSans-33" transform="translate(198.046875 0)"/>
     <use xlink:href="#DejaVuSans-31" transform="translate(261.669922 0)"/>
     <use xlink:href="#DejaVuSans-38" transform="translate(325.292969 0)"/>
     <use xlink:href="#DejaVuSans-25" transform="translate(388.916016 0)"/>
     <use xlink:href="#DejaVuSans-29" transform="translate(483.935547 0)"/>
    </g>
   </g>
   <g id="text_4">
    <!-- 15.32% -->
    <g transform="translate(453.221515 444.157309) scale(0.1 -0.1)">
     <use xlink:href="#DejaVuSans-31"/>
     <use xlink:href="#DejaVuSans-35" transform="translate(63.623047 0)"/>
     <use xlink:href="#DejaVuSans-2e" transform="translate(127.246094 0)"/>
     <use xlink:href="#DejaVuSans-33" transform="translate(159.033203 0)"/>
     <use xlink:href="#DejaVuSans-32" transform="translate(222.65625 0)"/>
     <use xlink:href="#DejaVuSans-25" transform="translate(286.279297 0)"/>
    </g>
   </g>
   <g id="text_5">
    <!-- Miner 2 -->
    <g transform="translate(347.964646 635.172074) scale(0.1 -0.1)">
     <use xlink:href="#DejaVuSans-4d"/>
     <use xlink:href="#DejaVuSans-69" transform="translate(86.279297 0)"/>
     <use xlink:href="#DejaVuSans-6e" transform="translate(114.0625 0)"/>
     <use xlink:href="#DejaVuSans-65" transform="translate(177.441406 0)"/>
     <use xlink:href="#DejaVuSans-72" transform="translate(238.964844 0)"/>
     <use xlink:href="#DejaVuSans-20" transform="translate(280.078125 0)"/>
     <use xlink:href="#DejaVuSans-32" transform="translate(311.865234 0)"/>
    </g>
    <!-- (12.428%) -->
    <g transform="translate(347.964646 646.369886) scale(0.1 -0.1)">
     <use xlink:href="#DejaVuSans-28"/>
     <use xlink:href="#DejaVuSans-31" transform="translate(39.013672 0)"/>
     <use xlink:href="#DejaVuSans-32" transform="translate(102.636719 0)"/>
     <use xlink:href="#DejaVuSans-2e" transform="translate(166.259766 0)"/>
     <use xlink:href="#DejaVuSans-34" transform="translate(198.046875 0)"/>
     <use xlink:href="#DejaVuSans-32" transform="translate(261.669922 0)"/>
     <use xlink:href="#DejaVuSans-38" transform="translate(325.292969 0)"/>
     <use xlink:href="#DejaVuSans-25" transform="translate(388.916016 0)"/>
     <use xlink:href="#DejaVuSans-29" transform="translate(483.935547 0)"/>
    </g>
   </g>
   <g id="text_6">
    <!-- 12.43% -->
    <g transform="translate(324.52349 509.389847) scale(0.1 -0.1)">
     <use xlink:href="#DejaVuSans-31"/>
     <use xlink:href="#DejaVuSans-32" transform="translate(63.623047 0)"/>
     <use xlink:href="#DejaVuSans-2e" transform="translate(127.246094 0)"/>
     <use xlink:href="#DejaVuSans-34" transform="translate(159.033203 0)"/>
     <use xlink:href="#DejaVuSans-33" transform="translate(222.65625 0)"/>
     <use xlink:href="#DejaVuSans-25" transform="translate(286.279297 0)"/>
    </g>
   </g>
   <g id="text_7">
    <!-- Miner 3 -->
    <g transform="translate(105.075779 563.819479) scale(0.1 -0.1)">
     <use xlink:href="#DejaVuSans-4d"/>
     <use xlink:href="#DejaVuSans-69" transform="translate(86.279297 0)"/>
     <use xlink:href="#DejaVuSans-6e" transform="translate(114.0625 0)"/>
     <use xlink:href="#DejaVuSans-65" transform="translate(177.441406 0)"/>
     <use xlink:href="#DejaVuSans-72" transform="translate(238.964844 0)"/>
     <use xlink:href="#DejaVuSans-20" transform="translate(280.078125 0)"/>
     <use xlink:href="#DejaVuSans-33" transform="translate(311.865234 0)"/>
    </g>
    <!-- (10.983%) -->
    <g transform="translate(90.328904 575.017292) scale(0.1 -0.1)">
     <use xlink:href="#DejaVuSans-28"/>
     <use xlink:href="#DejaVuSans-31" transform="translate(39.013672 0)"/>
     <use xlink:href="#DejaVuSans-30" transform="translate(102.636719 0)"/>
     <use xlink:href="#DejaVuSans-2e" transform="translate(166.259766 0)"/>
     <use xlink:href="#DejaVuSans-39" transform="translate(198.046875 0)"/>
     <use xlink:href="#DejaVuSans-38" transform="translate(261.669922 0)"/>
     <use xlink:href="#DejaVuSans-33" transform="translate(325.292969 0)"/>
     <use xlink:href="#DejaVuSans-25" transform="translate(388.916016 0)"/>
     <use xlink:href="#DejaVuSans-29" transform="translate(483.935547 0)"/>
    </g>
   </g>
   <g id="text_8">
    <!-- 10.98% -->
    <g transform="translate(208.461509 469.06012) scale(0.1 -0.1)">
     <use xlink:href="#DejaVuSans-31"/>
     <use xlink:href="#DejaVuSans-30" transform="translate(63.623047 0)"/>
     <use xlink:href="#DejaVuSans-2e" transform="translate(127.246094 0)"/>
     <use xlink:href="#DejaVuSans-39" transform="translate(159.033203 0)"/>
     <use xlink:href="#DejaVuSans-38" transform="translate(222.65625 0)"/>
     <use xlink:href="#DejaVuSans-25" transform="translate(286.279297 0)"/>
    </g>
   </g>
   <g id="text_9">
    <!-- Miner 4 -->
    <g transform="translate(15.584375 407.915734) scale(0.1 -0.1)">
     <use xlink:href="#DejaVuSans-4d"/>
     <use xlink:href="#DejaVuSans-69" transform="translate(86.279297 0)"/>
     <use xlink:href="#DejaVuSans-6e" transform="translate(114.0625 0)"/>
     <use xlink:href="#DejaVuSans-65" transform="translate(177.441406 0)"/>
     <use xlink:href="#DejaVuSans-72" transform="translate(238.964844 0)"/>
     <use xlink:href="#DejaVuSans-20" transform="translate(280.078125 0)"/>
     <use xlink:href="#DejaVuSans-34" transform="translate(311.865234 0)"/>
    </g>
    <!-- (8.478%) -->
    <g transform="translate(7.2 419.113546) scale(0.1 -0.1)">
     <use xlink:href="#DejaVuSans-28"/>
     <use xlink:href="#DejaVuSans-38" transform="translate(39.013672 0)"/>
     <use xlink:href="#DejaVuSans-2e" transform="translate(102.636719 0)"/>
     <use xlink:href="#DejaVuSans-34" transform="translate(134.423828 0)"/>
     <use xlink:href="#DejaVuSans-37" transform="translate(198.046875 0)"/>
     <use xlink:href="#DejaVuSans-38" transform="translate(261.669922 0)"/>
     <use xlink:href="#DejaVuSans-25" transform="translate(325.292969 0)"/>
     <use xlink:href="#DejaVuSans-29" transform="translate(420.3125 0)"/>
    </g>
   </g>
   <g id="text_10">
    <!-- 8.48% -->
    <g transform="translate(164.377039 380.068093) scale(0.1 -0.1)">
     <use xlink:href="#DejaVuSans-38"/>
     <use xlink:href="#DejaVuSans-2e" transform="translate(63.623047 0)"/>
     <use xlink:href="#DejaVuSans-34" transform="translate(95.410156 0)"/>
     <use xlink:href="#DejaVuSans-38" transform="translate(159.033203 0)"/>
     <use xlink:href="#DejaVuSans-25" transform="translate(222.65625 0)"/>
    </g>
   </g>
   <g id="text_11">
    <!-- 4.62% -->
    <g transform="translate(160.950448 313.534398) scale(0.1 -0.1)">
     <defs>
      <path id="DejaVuSans-36" d="M 2113 2584 
Q 1688 2584 1439 2293 
Q 1191 2003 1191 1497 
Q 1191 994 1439 701 
Q 1688 409 2113 409 
Q 2538 409 2786 701 
Q 3034 994 3034 1497 
Q 3034 2003 2786 2293 
Q 2538 2584 2113 2584 
z
M 3366 4563 
L 3366 3988 
Q 3128 4100 2886 4159 
Q 2644 4219 2406 4219 
Q 1781 4219 1451 3797 
Q 1122 3375 1075 2522 
Q 1259 2794 1537 2939 
Q 1816 3084 2150 3084 
Q 2853 3084 3261 2657 
Q 3669 2231 3669 1497 
Q 3669 778 3244 343 
Q 2819 -91 2113 -91 
Q 1303 -91 875 529 
Q 447 1150 447 2328 
Q 447 3434 972 4092 
Q 1497 4750 2381 4750 
Q 2619 4750 2861 4703 
Q 3103 4656 3366 4563 
z
" transform="scale(0.015625)"/>
     </defs>
     <use xlink:href="#DejaVuSans-34"/>
     <use xlink:href="#DejaVuSans-2e" transform="translate(63.623047 0)"/>
     <use xlink:href="#DejaVuSans-36" transform="translate(95.410156 0)"/>
     <use xlink:href="#DejaVuSans-32" transform="translate(159.033203 0)"/>
     <use xlink:href="#DejaVuSans-25" transform="translate(222.65625 0)"/>
    </g>
   </g>
   <g id="text_12">
    <!-- 4.05% -->
    <g transform="translate(173.630953 271.126007) scale(0.1 -0.1)">
     <use xlink:href="#DejaVuSans-34"/>
     <use xlink:href="#DejaVuSans-2e" transform="translate(63.623047 0)"/>
     <use xlink:href="#DejaVuSans-30" transform="translate(95.410156 0)"/>
     <use xlink:href="#DejaVuSans-35" transform="translate(159.033203 0)"/>
     <use xlink:href="#DejaVuSans-25" transform="translate(222.65625 0)"/>
    </g>
   </g>
   <g id="text_13">
    <!-- 3.85% -->
    <g transform="translate(194.750176 236.744028) scale(0.1 -0.1)">
     <use xlink:href="#DejaVuSans-33"/>
     <use xlink:href="#DejaVuSans-2e" transform="translate(63.623047 0)"/>
     <use xlink:href="#DejaVuSans-38" transform="translate(95.410156 0)"/>
     <use xlink:href="#DejaVuSans-35" transform="translate(159.033203 0)"/>
     <use xlink:href="#DejaVuSans-25" transform="translate(222.65625 0)"/>
    </g>
   </g>
   <g id="text_14">
    <!-- Other Miners -->
    <g transform="translate(201.222484 47.274944) scale(0.1 -0.1)">
     <defs>
      <path id="DejaVuSans-4f" d="M 2522 4238 
Q 1834 4238 1429 3725 
Q 1025 3213 1025 2328 
Q 1025 1447 1429 934 
Q 1834 422 2522 422 
Q 3209 422 3611 934 
Q 4013 1447 4013 2328 
Q 4013 3213 3611 3725 
Q 3209 4238 2522 4238 
z
M 2522 4750 
Q 3503 4750 4090 4092 
Q 4678 3434 4678 2328 
Q 4678 1225 4090 567 
Q 3503 -91 2522 -91 
Q 1538 -91 948 565 
Q 359 1222 359 2328 
Q 359 3434 948 4092 
Q 1538 4750 2522 4750 
z
" transform="scale(0.015625)"/>
      <path id="DejaVuSans-74" d="M 1172 4494 
L 1172 3500 
L 2356 3500 
L 2356 3053 
L 1172 3053 
L 1172 1153 
Q 1172 725 1289 603 
Q 1406 481 1766 481 
L 2356 481 
L 2356 0 
L 1766 0 
Q 1100 0 847 248 
Q 594 497 594 1153 
L 594 3053 
L 172 3053 
L 172 3500 
L 594 3500 
L 594 4494 
L 1172 4494 
z
" transform="scale(0.015625)"/>
      <path id="DejaVuSans-68" d="M 3513 2113 
L 3513 0 
L 2938 0 
L 2938 2094 
Q 2938 2591 2744 2837 
Q 2550 3084 2163 3084 
Q 1697 3084 1428 2787 
Q 1159 2491 1159 1978 
L 1159 0 
L 581 0 
L 581 4863 
L 1159 4863 
L 1159 2956 
Q 1366 3272 1645 3428 
Q 1925 3584 2291 3584 
Q 2894 3584 3203 3211 
Q 3513 2838 3513 2113 
z
" transform="scale(0.015625)"/>
      <path id="DejaVuSans-73" d="M 2834 3397 
L 2834 2853 
Q 2591 2978 2328 3040 
Q 2066 3103 1784 3103 
Q 1356 3103 1142 2972 
Q 928 2841 928 2578 
Q 928 2378 1081 2264 
Q 1234 2150 1697 2047 
L 1894 2003 
Q 2506 1872 2764 1633 
Q 3022 1394 3022 966 
Q 3022 478 2636 193 
Q 2250 -91 1575 -91 
Q 1294 -91 989 -36 
Q 684 19 347 128 
L 347 722 
Q 666 556 975 473 
Q 1284 391 1588 391 
Q 1994 391 2212 530 
Q 2431 669 2431 922 
Q 2431 1156 2273 1281 
Q 2116 1406 1581 1522 
L 1381 1569 
Q 847 1681 609 1914 
Q 372 2147 372 2553 
Q 372 3047 722 3315 
Q 1072 3584 1716 3584 
Q 2034 3584 2315 3537 
Q 2597 3491 2834 3397 
z
" transform="scale(0.015625)"/>
     </defs>
     <use xlink:href="#DejaVuSans-4f"/>
     <use xlink:href="#DejaVuSans-74" transform="translate(78.710938 0)"/>
     <use xlink:href="#DejaVuSans-68" transform="translate(117.919922 0)"/>
     <use xlink:href="#DejaVuSans-65" transform="translate(181.298828 0)"/>
     <use xlink:href="#DejaVuSans-72" transform="translate(242.822266 0)"/>
     <use xlink:href="#DejaVuSans-20" transform="translate(283.935547 0)"/>
     <use xlink:href="#DejaVuSans-4d" transform="translate(315.722656 0)"/>
     <use xlink:href="#DejaVuSans-69" transform="translate(402.001953 0)"/>
     <use xlink:href="#DejaVuSans-6e" transform="translate(429.785156 0)"/>
     <use xlink:href="#DejaVuSans-65" transform="translate(493.164062 0)"/>
     <use xlink:href="#DejaVuSans-72" transform="translate(554.6875 0)"/>
     <use xlink:href="#DejaVuSans-73" transform="translate(595.800781 0)"/>
    </g>
    <!-- (Miner 10-999) -->
    <g transform="translate(191.602171 58.472756) scale(0.1 -0.1)">
     <defs>
      <path id="DejaVuSans-2d" d="M 313 2009 
L 1997 2009 
L 1997 1497 
L 313 1497 
L 313 2009 
z
" transform="scale(0.015625)"/>
     </defs>
     <use xlink:href="#DejaVuSans-28"/>
     <use xlink:href="#DejaVuSans-4d" transform="translate(39.013672 0)"/>
     <use xlink:href="#DejaVuSans-69" transform="translate(125.292969 0)"/>
     <use xlink:href="#DejaVuSans-6e" transform="translate(153.076172 0)"/>
     <use xlink:href="#DejaVuSans-65" transform="translate(216.455078 0)"/>
     <use xlink:href="#DejaVuSans-72" transform="translate(277.978516 0)"/>
     <use xlink:href="#DejaVuSans-20" transform="translate(319.091797 0)"/>
     <use xlink:href="#DejaVuSans-31" transform="translate(350.878906 0)"/>
     <use xlink:href="#DejaVuSans-30" transform="translate(414.501953 0)"/>
     <use xlink:href="#DejaVuSans-2d" transform="translate(478.125 0)"/>
     <use xlink:href="#DejaVuSans-39" transform="translate(514.208984 0)"/>
     <use xlink:href="#DejaVuSans-39" transform="translate(577.832031 0)"/>
     <use xlink:href="#DejaVuSans-39" transform="translate(641.455078 0)"/>
     <use xlink:href="#DejaVuSans-29" transform="translate(705.078125 0)"/>
    </g>
    <!-- (7.996%) -->
    <g transform="translate(220.078734 69.670569) scale(0.1 -0.1)">
     <use xlink:href="#DejaVuSans-28"/>
     <use xlink:href="#DejaVuSans-37" transform="translate(39.013672 0)"/>
     <use xlink:href="#DejaVuSans-2e" transform="translate(102.636719 0)"/>
     <use xlink:href="#DejaVuSans-39" transform="translate(134.423828 0)"/>
     <use xlink:href="#DejaVuSans-39" transform="translate(198.046875 0)"/>
     <use xlink:href="#DejaVuSans-36" transform="translate(261.669922 0)"/>
     <use xlink:href="#DejaVuSans-25" transform="translate(325.292969 0)"/>
     <use xlink:href="#DejaVuSans-29" transform="translate(420.3125 0)"/>
    </g>
   </g>
   <g id="text_15">
    <!-- 8.00% -->
    <g transform="translate(282.804127 185.800765) scale(0.1 -0.1)">
     <use xlink:href="#DejaVuSans-38"/>
     <use xlink:href="#DejaVuSans-2e" transform="translate(63.623047 0)"/>
     <use xlink:href="#DejaVuSans-30" transform="translate(95.410156 0)"/>
     <use xlink:href="#DejaVuSans-30" transform="translate(159.033203 0)"/>
     <use xlink:href="#DejaVuSans-25" transform="translate(222.65625 0)"/>
    </g>
   </g>
   <g id="legend_1">
    <g id="patch_13">
     <path d="M 672.834129 252.613281 
L 907.009911 252.613281 
Q 908.809911 252.613281 908.809911 250.813281 
L 908.809911 92.221719 
Q 908.809911 90.421719 907.009911 90.421719 
L 672.834129 90.421719 
Q 671.034129 90.421719 671.034129 92.221719 
L 671.034129 250.813281 
Q 671.034129 252.613281 672.834129 252.613281 
z
" style="fill: #ffffff; opacity: 0.8; stroke: #cccccc; stroke-linejoin: miter"/>
    </g>
    <g id="text_16">
     <!-- Hashrate Distribution -->
     <g transform="translate(736.410301 101.620156) scale(0.1 -0.1)">
      <defs>
       <path id="DejaVuSans-48" d="M 628 4666 
L 1259 4666 
L 1259 2753 
L 3553 2753 
L 3553 4666 
L 4184 4666 
L 4184 0 
L 3553 0 
L 3553 2222 
L 1259 2222 
L 1259 0 
L 628 0 
L 628 4666 
z
" transform="scale(0.015625)"/>
       <path id="DejaVuSans-61" d="M 2194 1759 
Q 1497 1759 1228 1600 
Q 959 1441 959 1056 
Q 959 750 1161 570 
Q 1363 391 1709 391 
Q 2188 391 2477 730 
Q 2766 1069 2766 1631 
L 2766 1759 
L 2194 1759 
z
M 3341 1997 
L 3341 0 
L 2766 0 
L 2766 531 
Q 2569 213 2275 61 
Q 1981 -91 1556 -91 
Q 1019 -91 701 211 
Q 384 513 384 1019 
Q 384 1609 779 1909 
Q 1175 2209 1959 2209 
L 2766 2209 
L 2766 2266 
Q 2766 2663 2505 2880 
Q 2244 3097 1772 3097 
Q 1472 3097 1187 3025 
Q 903 2953 641 2809 
L 641 3341 
Q 956 3463 1253 3523 
Q 1550 3584 1831 3584 
Q 2591 3584 2966 3190 
Q 3341 2797 3341 1997 
z
" transform="scale(0.015625)"/>
       <path id="DejaVuSans-44" d="M 1259 4147 
L 1259 519 
L 2022 519 
Q 2988 519 3436 956 
Q 3884 1394 3884 2338 
Q 3884 3275 3436 3711 
Q 2988 4147 2022 4147 
L 1259 4147 
z
M 628 4666 
L 1925 4666 
Q 3281 4666 3915 4102 
Q 4550 3538 4550 2338 
Q 4550 1131 3912 565 
Q 3275 0 1925 0 
L 628 0 
L 628 4666 
z
" transform="scale(0.015625)"/>
       <path id="DejaVuSans-62" d="M 3116 1747 
Q 3116 2381 2855 2742 
Q 2594 3103 2138 3103 
Q 1681 3103 1420 2742 
Q 1159 2381 1159 1747 
Q 1159 1113 1420 752 
Q 1681 391 2138 391 
Q 2594 391 2855 752 
Q 3116 1113 3116 1747 
z
M 1159 2969 
Q 1341 3281 1617 3432 
Q 1894 3584 2278 3584 
Q 2916 3584 3314 3078 
Q 3713 2572 3713 1747 
Q 3713 922 3314 415 
Q 2916 -91 2278 -91 
Q 1894 -91 1617 61 
Q 1341 213 1159 525 
L 1159 0 
L 581 0 
L 581 4863 
L 1159 4863 
L 1159 2969 
z
" transform="scale(0.015625)"/>
       <path id="DejaVuSans-75" d="M 544 1381 
L 544 3500 
L 1119 3500 
L 1119 1403 
Q 1119 906 1312 657 
Q 1506 409 1894 409 
Q 2359 409 2629 706 
Q 2900 1003 2900 1516 
L 2900 3500 
L 3475 3500 
L 3475 0 
L 2900 0 
L 2900 538 
Q 2691 219 2414 64 
Q 2138 -91 1772 -91 
Q 1169 -91 856 284 
Q 544 659 544 1381 
z
M 1991 3584 
L 1991 3584 
z
" transform="scale(0.015625)"/>
       <path id="DejaVuSans-6f" d="M 1959 3097 
Q 1497 3097 1228 2736 
Q 959 2375 959 1747 
Q 959 1119 1226 758 
Q 1494 397 1959 397 
Q 2419 397 2687 759 
Q 2956 1122 2956 1747 
Q 2956 2369 2687 2733 
Q 2419 3097 1959 3097 
z
M 1959 3584 
Q 2709 3584 3137 3096 
Q 3566 2609 3566 1747 
Q 3566 888 3137 398 
Q 2709 -91 1959 -91 
Q 1206 -91 779 398 
Q 353 888 353 1747 
Q 353 2609 779 3096 
Q 1206 3584 1959 3584 
z
" transform="scale(0.015625)"/>
      </defs>
      <use xlink:href="#DejaVuSans-48"/>
      <use xlink:href="#DejaVuSans-61" transform="translate(75.195312 0)"/>
      <use xlink:href="#DejaVuSans-73" transform="translate(136.474609 0)"/>
      <use xlink:href="#DejaVuSans-68" transform="translate(188.574219 0)"/>
      <use xlink:href="#DejaVuSans-72" transform="translate(251.953125 0)"/>
      <use xlink:href="#DejaVuSans-61" transform="translate(293.066406 0)"/>
      <use xlink:href="#DejaVuSans-74" transform="translate(354.345703 0)"/>
      <use xlink:href="#DejaVuSans-65" transform="translate(393.554688 0)"/>
      <use xlink:href="#DejaVuSans-20" transform="translate(455.078125 0)"/>
      <use xlink:href="#DejaVuSans-44" transform="translate(486.865234 0)"/>
      <use xlink:href="#DejaVuSans-69" transform="translate(563.867188 0)"/>
      <use xlink:href="#DejaVuSans-73" transform="translate(591.650391 0)"/>
      <use xlink:href="#DejaVuSans-74" transform="translate(643.75 0)"/>
      <use xlink:href="#DejaVuSans-72" transform="translate(682.958984 0)"/>
      <use xlink:href="#DejaVuSans-69" transform="translate(724.072266 0)"/>
      <use xlink:href="#DejaVuSans-62" transform="translate(751.855469 0)"/>
      <use xlink:href="#DejaVuSans-75" transform="translate(815.332031 0)"/>
      <use xlink:href="#DejaVuSans-74" transform="translate(878.710938 0)"/>
      <use xlink:href="#DejaVuSans-69" transform="translate(917.919922 0)"/>
      <use xlink:href="#DejaVuSans-6f" transform="translate(945.703125 0)"/>
      <use xlink:href="#DejaVuSans-6e" transform="translate(1006.884766 0)"/>
     </g>
    </g>
    <g id="patch_14">
     <path d="M 674.634129 115.038437 
L 692.634129 115.038437 
L 692.634129 108.738437 
L 674.634129 108.738437 
z
" style="fill: #1f77b4"/>
    </g>
    <g id="text_17">
     <!-- Miner 0: 27.938% -->
     <g transform="translate(699.834129 115.038437) scale(0.09 -0.09)">
      <defs>
       <path id="DejaVuSans-3a" d="M 750 794 
L 1409 794 
L 1409 0 
L 750 0 
L 750 794 
z
M 750 3309 
L 1409 3309 
L 1409 2516 
L 750 2516 
L 750 3309 
z
" transform="scale(0.015625)"/>
      </defs>
      <use xlink:href="#DejaVuSans-4d"/>
      <use xlink:href="#DejaVuSans-69" transform="translate(86.279297 0)"/>
      <use xlink:href="#DejaVuSans-6e" transform="translate(114.0625 0)"/>
      <use xlink:href="#DejaVuSans-65" transform="translate(177.441406 0)"/>
      <use xlink:href="#DejaVuSans-72" transform="translate(238.964844 0)"/>
      <use xlink:href="#DejaVuSans-20" transform="translate(280.078125 0)"/>
      <use xlink:href="#DejaVuSans-30" transform="translate(311.865234 0)"/>
      <use xlink:href="#DejaVuSans-3a" transform="translate(375.488281 0)"/>
      <use xlink:href="#DejaVuSans-20" transform="translate(409.179688 0)"/>
      <use xlink:href="#DejaVuSans-32" transform="translate(440.966797 0)"/>
      <use xlink:href="#DejaVuSans-37" transform="translate(504.589844 0)"/>
      <use xlink:href="#DejaVuSans-2e" transform="translate(568.212891 0)"/>
      <use xlink:href="#DejaVuSans-39" transform="translate(600 0)"/>
      <use xlink:href="#DejaVuSans-33" transform="translate(663.623047 0)"/>
      <use xlink:href="#DejaVuSans-38" transform="translate(727.246094 0)"/>
      <use xlink:href="#DejaVuSans-25" transform="translate(790.869141 0)"/>
     </g>
    </g>
    <g id="patch_15">
     <path d="M 674.634129 128.24875 
L 692.634129 128.24875 
L 692.634129 121.94875 
L 674.634129 121.94875 
z
" style="fill: #ff7f0e"/>
    </g>
    <g id="text_18">
     <!-- Miner 1: 15.318% -->
     <g transform="translate(699.834129 128.24875) scale(0.09 -0.09)">
      <use xlink:href="#DejaVuSans-4d"/>
      <use xlink:href="#DejaVuSans-69" transform="translate(86.279297 0)"/>
      <use xlink:href="#DejaVuSans-6e" transform="translate(114.0625 0)"/>
      <use xlink:href="#DejaVuSans-65" transform="translate(177.441406 0)"/>
      <use xlink:href="#DejaVuSans-72" transform="translate(238.964844 0)"/>
      <use xlink:href="#DejaVuSans-20" transform="translate(280.078125 0)"/>
      <use xlink:href="#DejaVuSans-31" transform="translate(311.865234 0)"/>
      <use xlink:href="#DejaVuSans-3a" transform="translate(375.488281 0)"/>
      <use xlink:href="#DejaVuSans-20" transform="translate(409.179688 0)"/>
      <use xlink:href="#DejaVuSans-31" transform="translate(440.966797 0)"/>
      <use xlink:href="#DejaVuSans-35" transform="translate(504.589844 0)"/>
      <use xlink:href="#DejaVuSans-2e" transform="translate(568.212891 0)"/>
      <use xlink:href="#DejaVuSans-33" transform="translate(600 0)"/>
      <use xlink:href="#DejaVuSans-31" transform="translate(663.623047 0)"/>
      <use xlink:href="#DejaVuSans-38" transform="translate(727.246094 0)"/>
      <use xlink:href="#DejaVuSans-25" transform="translate(790.869141 0)"/>
     </g>
    </g>
    <g id="patch_16">
     <path d="M 674.634129 141.459062 
L 692.634129 141.459062 
L 692.634129 135.159062 
L 674.634129 135.159062 
z
" style="fill: #2ca02c"/>
    </g>
    <g id="text_19">
     <!-- Miner 2: 12.428% -->
     <g transform="translate(699.834129 141.459062) scale(0.09 -0.09)">
      <use xlink:href="#DejaVuSans-4d"/>
      <use xlink:href="#DejaVuSans-69" transform="translate(86.279297 0)"/>
      <use xlink:href="#DejaVuSans-6e" transform="translate(114.0625 0)"/>
      <use xlink:href="#DejaVuSans-65" transform="translate(177.441406 0)"/>
      <use xlink:href="#DejaVuSans-72" transform="translate(238.964844 0)"/>
      <use xlink:href="#DejaVuSans-20" transform="translate(280.078125 0)"/>
      <use xlink:href="#DejaVuSans-32" transform="translate(311.865234 0)"/>
      <use xlink:href="#DejaVuSans-3a" transform="translate(375.488281 0)"/>
      <use xlink:href="#DejaVuSans-20" transform="translate(409.179688 0)"/>
      <use xlink:href="#DejaVuSans-31" transform="translate(440.966797 0)"/>
      <use xlink:href="#DejaVuSans-32" transform="translate(504.589844 0)"/>
      <use xlink:href="#DejaVuSans-2e" transform="translate(568.212891 0)"/>
      <use xlink:href="#DejaVuSans-34" transform="translate(600 0)"/>
      <use xlink:href="#DejaVuSans-32" transform="translate(663.623047 0)"/>
      <use xlink:href="#DejaVuSans-38" transform="translate(727.246094 0)"/>
      <use xlink:href="#DejaVuSans-25" transform="translate(790.869141 0)"/>
     </g>
    </g>
    <g id="patch_17">
     <path d="M 674.634129 154.669375 
L 692.634129 154.669375 
L 692.634129 148.369375 
L 674.634129 148.369375 
z
" style="fill: #d62728"/>
    </g>
    <g id="text_20">
     <!-- Miner 3: 10.983% -->
     <g transform="translate(699.834129 154.669375) scale(0.09 -0.09)">
      <use xlink:href="#DejaVuSans-4d"/>
      <use xlink:href="#DejaVuSans-69" transform="translate(86.279297 0)"/>
      <use xlink:href="#DejaVuSans-6e" transform="translate(114.0625 0)"/>
      <use xlink:href="#DejaVuSans-65" transform="translate(177.441406 0)"/>
      <use xlink:href="#DejaVuSans-72" transform="translate(238.964844 0)"/>
      <use xlink:href="#DejaVuSans-20" transform="translate(280.078125 0)"/>
      <use xlink:href="#DejaVuSans-33" transform="translate(311.865234 0)"/>
      <use xlink:href="#DejaVuSans-3a" transform="translate(375.488281 0)"/>
      <use xlink:href="#DejaVuSans-20" transform="translate(409.179688 0)"/>
      <use xlink:href="#DejaVuSans-31" transform="translate(440.966797 0)"/>
      <use xlink:href="#DejaVuSans-30" transform="translate(504.589844 0)"/>
      <use xlink:href="#DejaVuSans-2e" transform="translate(568.212891 0)"/>
      <use xlink:href="#DejaVuSans-39" transform="translate(600 0)"/>
      <use xlink:href="#DejaVuSans-38" transform="translate(663.623047 0)"/>
      <use xlink:href="#DejaVuSans-33" transform="translate(727.246094 0)"/>
      <use xlink:href="#DejaVuSans-25" transform="translate(790.869141 0)"/>
     </g>
    </g>
    <g id="patch_18">
     <path d="M 674.634129 167.879687 
L 692.634129 167.879687 
L 692.634129 161.579687 
L 674.634129 161.579687 
z
" style="fill: #9467bd"/>
    </g>
    <g id="text_21">
     <!-- Miner 4: 8.478% -->
     <g transform="translate(699.834129 167.879687) scale(0.09 -0.09)">
      <use xlink:href="#DejaVuSans-4d"/>
      <use xlink:href="#DejaVuSans-69" transform="translate(86.279297 0)"/>
      <use xlink:href="#DejaVuSans-6e" transform="translate(114.0625 0)"/>
      <use xlink:href="#DejaVuSans-65" transform="translate(177.441406 0)"/>
      <use xlink:href="#DejaVuSans-72" transform="translate(238.964844 0)"/>
      <use xlink:href="#DejaVuSans-20" transform="translate(280.078125 0)"/>
      <use xlink:href="#DejaVuSans-34" transform="translate(311.865234 0)"/>
      <use xlink:href="#DejaVuSans-3a" transform="translate(375.488281 0)"/>
      <use xlink:href="#DejaVuSans-20" transform="translate(409.179688 0)"/>
      <use xlink:href="#DejaVuSans-38" transform="translate(440.966797 0)"/>
      <use xlink:href="#DejaVuSans-2e" transform="translate(504.589844 0)"/>
      <use xlink:href="#DejaVuSans-34" transform="translate(536.376953 0)"/>
      <use xlink:href="#DejaVuSans-37" transform="translate(600 0)"/>
      <use xlink:href="#DejaVuSans-38" transform="translate(663.623047 0)"/>
      <use xlink:href="#DejaVuSans-25" transform="translate(727.246094 0)"/>
     </g>
    </g>
    <g id="patch_19">
     <path d="M 674.634129 181.09 
L 692.634129 181.09 
L 692.634129 174.79 
L 674.634129 174.79 
z
" style="fill: #8c564b"/>
    </g>
    <g id="text_22">
     <!-- Miner 5: 4.624% -->
     <g transform="translate(699.834129 181.09) scale(0.09 -0.09)">
      <use xlink:href="#DejaVuSans-4d"/>
      <use xlink:href="#DejaVuSans-69" transform="translate(86.279297 0)"/>
      <use xlink:href="#DejaVuSans-6e" transform="translate(114.0625 0)"/>
      <use xlink:href="#DejaVuSans-65" transform="translate(177.441406 0)"/>
      <use xlink:href="#DejaVuSans-72" transform="translate(238.964844 0)"/>
      <use xlink:href="#DejaVuSans-20" transform="translate(280.078125 0)"/>
      <use xlink:href="#DejaVuSans-35" transform="translate(311.865234 0)"/>
      <use xlink:href="#DejaVuSans-3a" transform="translate(375.488281 0)"/>
      <use xlink:href="#DejaVuSans-20" transform="translate(409.179688 0)"/>
      <use xlink:href="#DejaVuSans-34" transform="translate(440.966797 0)"/>
      <use xlink:href="#DejaVuSans-2e" transform="translate(504.589844 0)"/>
      <use xlink:href="#DejaVuSans-36" transform="translate(536.376953 0)"/>
      <use xlink:href="#DejaVuSans-32" transform="translate(600 0)"/>
      <use xlink:href="#DejaVuSans-34" transform="translate(663.623047 0)"/>
      <use xlink:href="#DejaVuSans-25" transform="translate(727.246094 0)"/>
     </g>
    </g>
    <g id="patch_20">
     <path d="M 674.634129 194.300312 
L 692.634129 194.300312 
L 692.634129 188.000312 
L 674.634129 188.000312 
z
" style="fill: #e377c2"/>
    </g>
    <g id="text_23">
     <!-- Miner 6: 4.046% -->
     <g transform="translate(699.834129 194.300312) scale(0.09 -0.09)">
      <use xlink:href="#DejaVuSans-4d"/>
      <use xlink:href="#DejaVuSans-69" transform="translate(86.279297 0)"/>
      <use xlink:href="#DejaVuSans-6e" transform="translate(114.0625 0)"/>
      <use xlink:href="#DejaVuSans-65" transform="translate(177.441406 0)"/>
      <use xlink:href="#DejaVuSans-72" transform="translate(238.964844 0)"/>
      <use xlink:href="#DejaVuSans-20" transform="translate(280.078125 0)"/>
      <use xlink:href="#DejaVuSans-36" transform="translate(311.865234 0)"/>
      <use xlink:href="#DejaVuSans-3a" transform="translate(375.488281 0)"/>
      <use xlink:href="#DejaVuSans-20" transform="translate(409.179688 0)"/>
      <use xlink:href="#DejaVuSans-34" transform="translate(440.966797 0)"/>
      <use xlink:href="#DejaVuSans-2e" transform="translate(504.589844 0)"/>
      <use xlink:href="#DejaVuSans-30" transform="translate(536.376953 0)"/>
      <use xlink:href="#DejaVuSans-34" transform="translate(600 0)"/>
      <use xlink:href="#DejaVuSans-36" transform="translate(663.623047 0)"/>
      <use xlink:href="#DejaVuSans-25" transform="translate(727.246094 0)"/>
     </g>
    </g>
    <g id="patch_21">
     <path d="M 674.634129 207.510625 
L 692.634129 207.510625 
L 692.634129 201.210625 
L 674.634129 201.210625 
z
" style="fill: #17becf"/>
    </g>
    <g id="text_24">
     <!-- Miner 7: 3.854% -->
     <g transform="translate(699.834129 207.510625) scale(0.09 -0.09)">
      <use xlink:href="#DejaVuSans-4d"/>
      <use xlink:href="#DejaVuSans-69" transform="translate(86.279297 0)"/>
      <use xlink:href="#DejaVuSans-6e" transform="translate(114.0625 0)"/>
      <use xlink:href="#DejaVuSans-65" transform="translate(177.441406 0)"/>
      <use xlink:href="#DejaVuSans-72" transform="translate(238.964844 0)"/>
      <use xlink:href="#DejaVuSans-20" transform="translate(280.078125 0)"/>
      <use xlink:href="#DejaVuSans-37" transform="translate(311.865234 0)"/>
      <use xlink:href="#DejaVuSans-3a" transform="translate(375.488281 0)"/>
      <use xlink:href="#DejaVuSans-20" transform="translate(409.179688 0)"/>
      <use xlink:href="#DejaVuSans-33" transform="translate(440.966797 0)"/>
      <use xlink:href="#DejaVuSans-2e" transform="translate(504.589844 0)"/>
      <use xlink:href="#DejaVuSans-38" transform="translate(536.376953 0)"/>
      <use xlink:href="#DejaVuSans-35" transform="translate(600 0)"/>
      <use xlink:href="#DejaVuSans-34" transform="translate(663.623047 0)"/>
      <use xlink:href="#DejaVuSans-25" transform="translate(727.246094 0)"/>
     </g>
    </g>
    <g id="patch_22">
     <path d="M 674.634129 220.720937 
L 692.634129 220.720937 
L 692.634129 214.420937 
L 674.634129 214.420937 
z
" style="fill: #bcbd22"/>
    </g>
    <g id="text_25">
     <!-- Miner 8: 2.408% -->
     <g transform="translate(699.834129 220.720937) scale(0.09 -0.09)">
      <use xlink:href="#DejaVuSans-4d"/>
      <use xlink:href="#DejaVuSans-69" transform="translate(86.279297 0)"/>
      <use xlink:href="#DejaVuSans-6e" transform="translate(114.0625 0)"/>
      <use xlink:href="#DejaVuSans-65" transform="translate(177.441406 0)"/>
      <use xlink:href="#DejaVuSans-72" transform="translate(238.964844 0)"/>
      <use xlink:href="#DejaVuSans-20" transform="translate(280.078125 0)"/>
      <use xlink:href="#DejaVuSans-38" transform="translate(311.865234 0)"/>
      <use xlink:href="#DejaVuSans-3a" transform="translate(375.488281 0)"/>
      <use xlink:href="#DejaVuSans-20" transform="translate(409.179688 0)"/>
      <use xlink:href="#DejaVuSans-32" transform="translate(440.966797 0)"/>
      <use xlink:href="#DejaVuSans-2e" transform="translate(504.589844 0)"/>
      <use xlink:href="#DejaVuSans-34" transform="translate(536.376953 0)"/>
      <use xlink:href="#DejaVuSans-30" transform="translate(600 0)"/>
      <use xlink:href="#DejaVuSans-38" transform="translate(663.623047 0)"/>
      <use xlink:href="#DejaVuSans-25" transform="translate(727.246094 0)"/>
     </g>
    </g>
    <g id="patch_23">
     <path d="M 674.634129 233.93125 
L 692.634129 233.93125 
L 692.634129 227.63125 
L 674.634129 227.63125 
z
" style="fill: #aec7e8"/>
    </g>
    <g id="text_26">
     <!-- Miner 9: 1.927% -->
     <g transform="translate(699.834129 233.93125) scale(0.09 -0.09)">
      <use xlink:href="#DejaVuSans-4d"/>
      <use xlink:href="#DejaVuSans-69" transform="translate(86.279297 0)"/>
      <use xlink:href="#DejaVuSans-6e" transform="translate(114.0625 0)"/>
      <use xlink:href="#DejaVuSans-65" transform="translate(177.441406 0)"/>
      <use xlink:href="#DejaVuSans-72" transform="translate(238.964844 0)"/>
      <use xlink:href="#DejaVuSans-20" transform="translate(280.078125 0)"/>
      <use xlink:href="#DejaVuSans-39" transform="translate(311.865234 0)"/>
      <use xlink:href="#DejaVuSans-3a" transform="translate(375.488281 0)"/>
      <use xlink:href="#DejaVuSans-20" transform="translate(409.179688 0)"/>
      <use xlink:href="#DejaVuSans-31" transform="translate(440.966797 0)"/>
      <use xlink:href="#DejaVuSans-2e" transform="translate(504.589844 0)"/>
      <use xlink:href="#DejaVuSans-39" transform="translate(536.376953 0)"/>
      <use xlink:href="#DejaVuSans-32" transform="translate(600 0)"/>
      <use xlink:href="#DejaVuSans-37" transform="translate(663.623047 0)"/>
      <use xlink:href="#DejaVuSans-25" transform="translate(727.246094 0)"/>
     </g>
    </g>
    <g id="patch_24">
     <path d="M 674.634129 247.141562 
L 692.634129 247.141562 
L 692.634129 240.841562 
L 674.634129 240.841562 
z
" style="fill: #d0d0d0"/>
    </g>
    <g id="text_27">
     <!-- Miner 10-999: each 0.008077%, total 7.996% -->
     <g transform="translate(699.834129 247.141562) scale(0.09 -0.09)">
      <defs>
       <path id="DejaVuSans-63" d="M 3122 3366 
L 3122 2828 
Q 2878 2963 2633 3030 
Q 2388 3097 2138 3097 
Q 1578 3097 1268 2742 
Q 959 2388 959 1747 
Q 959 1106 1268 751 
Q 1578 397 2138 397 
Q 2388 397 2633 464 
Q 2878 531 3122 666 
L 3122 134 
Q 2881 22 2623 -34 
Q 2366 -91 2075 -91 
Q 1284 -91 818 406 
Q 353 903 353 1747 
Q 353 2603 823 3093 
Q 1294 3584 2113 3584 
Q 2378 3584 2631 3529 
Q 2884 3475 3122 3366 
z
" transform="scale(0.015625)"/>
       <path id="DejaVuSans-2c" d="M 750 794 
L 1409 794 
L 1409 256 
L 897 -744 
L 494 -744 
L 750 256 
L 750 794 
z
" transform="scale(0.015625)"/>
       <path id="DejaVuSans-6c" d="M 603 4863 
L 1178 4863 
L 1178 0 
L 603 0 
L 603 4863 
z
" transform="scale(0.015625)"/>
      </defs>
      <use xlink:href="#DejaVuSans-4d"/>
      <use xlink:href="#DejaVuSans-69" transform="translate(86.279297 0)"/>
      <use xlink:href="#DejaVuSans-6e" transform="translate(114.0625 0)"/>
      <use xlink:href="#DejaVuSans-65" transform="translate(177.441406 0)"/>
      <use xlink:href="#DejaVuSans-72" transform="translate(238.964844 0)"/>
      <use xlink:href="#DejaVuSans-20" transform="translate(280.078125 0)"/>
      <use xlink:href="#DejaVuSans-31" transform="translate(311.865234 0)"/>
      <use xlink:href="#DejaVuSans-30" transform="translate(375.488281 0)"/>
      <use xlink:href="#DejaVuSans-2d" transform="translate(439.111328 0)"/>
      <use xlink:href="#DejaVuSans-39" transform="translate(475.195312 0)"/>
      <use xlink:href="#DejaVuSans-39" transform="translate(538.818359 0)"/>
      <use xlink:href="#DejaVuSans-39" transform="translate(602.441406 0)"/>
      <use xlink:href="#DejaVuSans-3a" transform="translate(666.064453 0)"/>
      <use xlink:href="#DejaVuSans-20" transform="translate(699.755859 0)"/>
      <use xlink:href="#DejaVuSans-65" transform="translate(731.542969 0)"/>
      <use xlink:href="#DejaVuSans-61" transform="translate(793.066406 0)"/>
      <use xlink:href="#DejaVuSans-63" transform="translate(854.345703 0)"/>
      <use xlink:href="#DejaVuSans-68" transform="translate(909.326172 0)"/>
      <use xlink:href="#DejaVuSans-20" transform="translate(972.705078 0)"/>
      <use xlink:href="#DejaVuSans-30" transform="translate(1004.492188 0)"/>
      <use xlink:href="#DejaVuSans-2e" transform="translate(1068.115234 0)"/>
      <use xlink:href="#DejaVuSans-30" transform="translate(1099.902344 0)"/>
      <use xlink:href="#DejaVuSans-30" transform="translate(1163.525391 0)"/>
      <use xlink:href="#DejaVuSans-38" transform="translate(1227.148438 0)"/>
      <use xlink:href="#DejaVuSans-30" transform="translate(1290.771484 0)"/>
      <use xlink:href="#DejaVuSans-37" transform="translate(1354.394531 0)"/>
      <use xlink:href="#DejaVuSans-37" transform="translate(1418.017578 0)"/>
      <use xlink:href="#DejaVuSans-25" transform="translate(1481.640625 0)"/>
      <use xlink:href="#DejaVuSans-2c" transform="translate(1576.660156 0)"/>
      <use xlink:href="#DejaVuSans-20" transform="translate(1608.447266 0)"/>
      <use xlink:href="#DejaVuSans-74" transform="translate(1640.234375 0)"/>
      <use xlink:href="#DejaVuSans-6f" transform="translate(1679.443359 0)"/>
      <use xlink:href="#DejaVuSans-74" transform="translate(1740.625 0)"/>
      <use xlink:href="#DejaVuSans-61" transform="translate(1779.833984 0)"/>
      <use xlink:href="#DejaVuSans-6c" transform="translate(1841.113281 0)"/>
      <use xlink:href="#DejaVuSans-20" transform="translate(1868.896484 0)"/>
      <use xlink:href="#DejaVuSans-37" transform="translate(1900.683594 0)"/>
      <use xlink:href="#DejaVuSans-2e" transform="translate(1964.306641 0)"/>
      <use xlink:href="#DejaVuSans-39" transform="translate(1996.09375 0)"/>
      <use xlink:href="#DejaVuSans-39" transform="translate(2059.716797 0)"/>
      <use xlink:href="#DejaVuSans-36" transform="translate(2123.339844 0)"/>
      <use xlink:href="#DejaVuSans-25" transform="translate(2186.962891 0)"/>
     </g>
    </g>
   </g>
  </g>
 </g>
</svg>
