<?xml version="1.0" encoding="utf-8" standalone="no"?>
<!DOCTYPE svg PUBLIC "-//W3C//DTD SVG 1.1//EN"
  "http://www.w3.org/Graphics/SVG/1.1/DTD/svg11.dtd">
<svg xmlns:xlink="http://www.w3.org/1999/xlink" width="858.224562pt" height="568.2675pt" viewBox="0 0 858.224562 568.2675" xmlns="http://www.w3.org/2000/svg" version="1.1">
 <metadata>
  <rdf:RDF xmlns:dc="http://purl.org/dc/elements/1.1/" xmlns:cc="http://creativecommons.org/ns#" xmlns:rdf="http://www.w3.org/1999/02/22-rdf-syntax-ns#">
   <cc:Work>
    <dc:type rdf:resource="http://purl.org/dc/dcmitype/StillImage"/>
    <dc:date>2025-09-05T13:30:33.293431</dc:date>
    <dc:format>image/svg+xml</dc:format>
    <dc:creator>
     <cc:Agent>
      <dc:title>Matplotlib v3.10.3, https://matplotlib.org/</dc:title>
     </cc:Agent>
    </dc:creator>
   </cc:Work>
  </rdf:RDF>
 </metadata>
 <defs>
  <style type="text/css">*{stroke-linejoin: round; stroke-linecap: butt}</style>
 </defs>
 <g id="figure_1">
  <g id="patch_1">
   <path d="M -0 568.2675 
L 858.224562 568.2675 
L 858.224562 0 
L -0 0 
z
" style="fill: #ffffff"/>
  </g>
  <g id="axes_1">
   <g id="patch_2">
    <path d="M 38.111875 526.84 
L 739.321875 526.84 
L 739.321875 7.2 
L 38.111875 7.2 
z
" style="fill: #ffffff"/>
   </g>
   <g id="matplotlib.axis_1">
    <g id="xtick_1">
     <g id="line2d_1">
      <path d="M 63.54603 526.84 
L 63.54603 7.2 
" clip-path="url(#pce4123b631)" style="fill: none; stroke: #b0b0b0; stroke-opacity: 0.3; stroke-width: 0.8; stroke-linecap: square"/>
     </g>
     <g id="line2d_2">
      <defs>
       <path id="m8d2f1824a1" d="M 0 0 
L 0 3.5 
" style="stroke: #000000; stroke-width: 0.8"/>
      </defs>
      <g>
       <use xlink:href="#m8d2f1824a1" x="63.54603" y="526.84" style="stroke: #000000; stroke-width: 0.8"/>
      </g>
     </g>
     <g id="text_1">
      <!-- 0 -->
      <g transform="translate(60.36478 541.438437) scale(0.1 -0.1)">
       <defs>
        <path id="DejaVuSans-30" d="M 2034 4250 
Q 1547 4250 1301 3770 
Q 1056 3291 1056 2328 
Q 1056 1369 1301 889 
Q 1547 409 2034 409 
Q 2525 409 2770 889 
Q 3016 1369 3016 2328 
Q 3016 3291 2770 3770 
Q 2525 4250 2034 4250 
z
M 2034 4750 
Q 2819 4750 3233 4129 
Q 3647 3509 3647 2328 
Q 3647 1150 3233 529 
Q 2819 -91 2034 -91 
Q 1250 -91 836 529 
Q 422 1150 422 2328 
Q 422 3509 836 4129 
Q 1250 4750 2034 4750 
z
" transform="scale(0.015625)"/>
       </defs>
       <use xlink:href="#DejaVuSans-30"/>
      </g>
     </g>
    </g>
    <g id="xtick_2">
     <g id="line2d_3">
      <path d="M 192.326563 526.84 
L 192.326563 7.2 
" clip-path="url(#pce4123b631)" style="fill: none; stroke: #b0b0b0; stroke-opacity: 0.3; stroke-width: 0.8; stroke-linecap: square"/>
     </g>
     <g id="line2d_4">
      <g>
       <use xlink:href="#m8d2f1824a1" x="192.326563" y="526.84" style="stroke: #000000; stroke-width: 0.8"/>
      </g>
     </g>
     <g id="text_2">
      <!-- 2 -->
      <g transform="translate(189.145313 541.438437) scale(0.1 -0.1)">
       <defs>
        <path id="DejaVuSans-32" d="M 1228 531 
L 3431 531 
L 3431 0 
L 469 0 
L 469 531 
Q 828 903 1448 1529 
Q 2069 2156 2228 2338 
Q 2531 2678 2651 2914 
Q 2772 3150 2772 3378 
Q 2772 3750 2511 3984 
Q 2250 4219 1831 4219 
Q 1534 4219 1204 4116 
Q 875 4013 500 3803 
L 500 4441 
Q 881 4594 1212 4672 
Q 1544 4750 1819 4750 
Q 2544 4750 2975 4387 
Q 3406 4025 3406 3419 
Q 3406 3131 3298 2873 
Q 3191 2616 2906 2266 
Q 2828 2175 2409 1742 
Q 1991 1309 1228 531 
z
" transform="scale(0.015625)"/>
       </defs>
       <use xlink:href="#DejaVuSans-32"/>
      </g>
     </g>
    </g>
    <g id="xtick_3">
     <g id="line2d_5">
      <path d="M 321.107095 526.84 
L 321.107095 7.2 
" clip-path="url(#pce4123b631)" style="fill: none; stroke: #b0b0b0; stroke-opacity: 0.3; stroke-width: 0.8; stroke-linecap: square"/>
     </g>
     <g id="line2d_6">
      <g>
       <use xlink:href="#m8d2f1824a1" x="321.107095" y="526.84" style="stroke: #000000; stroke-width: 0.8"/>
      </g>
     </g>
     <g id="text_3">
      <!-- 4 -->
      <g transform="translate(317.925845 541.438437) scale(0.1 -0.1)">
       <defs>
        <path id="DejaVuSans-34" d="M 2419 4116 
L 825 1625 
L 2419 1625 
L 2419 4116 
z
M 2253 4666 
L 3047 4666 
L 3047 1625 
L 3713 1625 
L 3713 1100 
L 3047 1100 
L 3047 0 
L 2419 0 
L 2419 1100 
L 313 1100 
L 313 1709 
L 2253 4666 
z
" transform="scale(0.015625)"/>
       </defs>
       <use xlink:href="#DejaVuSans-34"/>
      </g>
     </g>
    </g>
    <g id="xtick_4">
     <g id="line2d_7">
      <path d="M 449.887628 526.84 
L 449.887628 7.2 
" clip-path="url(#pce4123b631)" style="fill: none; stroke: #b0b0b0; stroke-opacity: 0.3; stroke-width: 0.8; stroke-linecap: square"/>
     </g>
     <g id="line2d_8">
      <g>
       <use xlink:href="#m8d2f1824a1" x="449.887628" y="526.84" style="stroke: #000000; stroke-width: 0.8"/>
      </g>
     </g>
     <g id="text_4">
      <!-- 6 -->
      <g transform="translate(446.706378 541.438437) scale(0.1 -0.1)">
       <defs>
        <path id="DejaVuSans-36" d="M 2113 2584 
Q 1688 2584 1439 2293 
Q 1191 2003 1191 1497 
Q 1191 994 1439 701 
Q 1688 409 2113 409 
Q 2538 409 2786 701 
Q 3034 994 3034 1497 
Q 3034 2003 2786 2293 
Q 2538 2584 2113 2584 
z
M 3366 4563 
L 3366 3988 
Q 3128 4100 2886 4159 
Q 2644 4219 2406 4219 
Q 1781 4219 1451 3797 
Q 1122 3375 1075 2522 
Q 1259 2794 1537 2939 
Q 1816 3084 2150 3084 
Q 2853 3084 3261 2657 
Q 3669 2231 3669 1497 
Q 3669 778 3244 343 
Q 2819 -91 2113 -91 
Q 1303 -91 875 529 
Q 447 1150 447 2328 
Q 447 3434 972 4092 
Q 1497 4750 2381 4750 
Q 2619 4750 2861 4703 
Q 3103 4656 3366 4563 
z
" transform="scale(0.015625)"/>
       </defs>
       <use xlink:href="#DejaVuSans-36"/>
      </g>
     </g>
    </g>
    <g id="xtick_5">
     <g id="line2d_9">
      <path d="M 578.668161 526.84 
L 578.668161 7.2 
" clip-path="url(#pce4123b631)" style="fill: none; stroke: #b0b0b0; stroke-opacity: 0.3; stroke-width: 0.8; stroke-linecap: square"/>
     </g>
     <g id="line2d_10">
      <g>
       <use xlink:href="#m8d2f1824a1" x="578.668161" y="526.84" style="stroke: #000000; stroke-width: 0.8"/>
      </g>
     </g>
     <g id="text_5">
      <!-- 8 -->
      <g transform="translate(575.486911 541.438437) scale(0.1 -0.1)">
       <defs>
        <path id="DejaVuSans-38" d="M 2034 2216 
Q 1584 2216 1326 1975 
Q 1069 1734 1069 1313 
Q 1069 891 1326 650 
Q 1584 409 2034 409 
Q 2484 409 2743 651 
Q 3003 894 3003 1313 
Q 3003 1734 2745 1975 
Q 2488 2216 2034 2216 
z
M 1403 2484 
Q 997 2584 770 2862 
Q 544 3141 544 3541 
Q 544 4100 942 4425 
Q 1341 4750 2034 4750 
Q 2731 4750 3128 4425 
Q 3525 4100 3525 3541 
Q 3525 3141 3298 2862 
Q 3072 2584 2669 2484 
Q 3125 2378 3379 2068 
Q 3634 1759 3634 1313 
Q 3634 634 3220 271 
Q 2806 -91 2034 -91 
Q 1263 -91 848 271 
Q 434 634 434 1313 
Q 434 1759 690 2068 
Q 947 2378 1403 2484 
z
M 1172 3481 
Q 1172 3119 1398 2916 
Q 1625 2713 2034 2713 
Q 2441 2713 2670 2916 
Q 2900 3119 2900 3481 
Q 2900 3844 2670 4047 
Q 2441 4250 2034 4250 
Q 1625 4250 1398 4047 
Q 1172 3844 1172 3481 
z
" transform="scale(0.015625)"/>
       </defs>
       <use xlink:href="#DejaVuSans-38"/>
      </g>
     </g>
    </g>
    <g id="xtick_6">
     <g id="line2d_11">
      <path d="M 707.448693 526.84 
L 707.448693 7.2 
" clip-path="url(#pce4123b631)" style="fill: none; stroke: #b0b0b0; stroke-opacity: 0.3; stroke-width: 0.8; stroke-linecap: square"/>
     </g>
     <g id="line2d_12">
      <g>
       <use xlink:href="#m8d2f1824a1" x="707.448693" y="526.84" style="stroke: #000000; stroke-width: 0.8"/>
      </g>
     </g>
     <g id="text_6">
      <!-- 10 -->
      <g transform="translate(701.086193 541.438437) scale(0.1 -0.1)">
       <defs>
        <path id="DejaVuSans-31" d="M 794 531 
L 1825 531 
L 1825 4091 
L 703 3866 
L 703 4441 
L 1819 4666 
L 2450 4666 
L 2450 531 
L 3481 531 
L 3481 0 
L 794 0 
L 794 531 
z
" transform="scale(0.015625)"/>
       </defs>
       <use xlink:href="#DejaVuSans-31"/>
       <use xlink:href="#DejaVuSans-30" transform="translate(63.623047 0)"/>
      </g>
     </g>
    </g>
    <g id="text_7">
     <!-- Δ/T -->
     <g transform="translate(377.294844 558.155937) scale(0.14 -0.14)">
      <defs>
       <path id="DejaVuSans-394" d="M 2188 4044 
L 906 525 
L 3472 525 
L 2188 4044 
z
M 50 0 
L 1831 4666 
L 2547 4666 
L 4325 0 
L 50 0 
z
" transform="scale(0.015625)"/>
       <path id="DejaVuSans-2f" d="M 1625 4666 
L 2156 4666 
L 531 -594 
L 0 -594 
L 1625 4666 
z
" transform="scale(0.015625)"/>
       <path id="DejaVuSans-54" d="M -19 4666 
L 3928 4666 
L 3928 4134 
L 2272 4134 
L 2272 0 
L 1638 0 
L 1638 4134 
L -19 4134 
L -19 4666 
z
" transform="scale(0.015625)"/>
      </defs>
      <use xlink:href="#DejaVuSans-394"/>
      <use xlink:href="#DejaVuSans-2f" transform="translate(68.408203 0)"/>
      <use xlink:href="#DejaVuSans-54" transform="translate(102.099609 0)"/>
     </g>
    </g>
   </g>
   <g id="matplotlib.axis_2">
    <g id="ytick_1">
     <g id="line2d_13">
      <path d="M 38.111875 503.22 
L 739.321875 503.22 
" clip-path="url(#pce4123b631)" style="fill: none; stroke: #b0b0b0; stroke-opacity: 0.3; stroke-width: 0.8; stroke-linecap: square"/>
     </g>
     <g id="line2d_14">
      <defs>
       <path id="m8f9059f6e2" d="M 0 0 
L -3.5 0 
" style="stroke: #000000; stroke-width: 0.8"/>
      </defs>
      <g>
       <use xlink:href="#m8f9059f6e2" x="38.111875" y="503.22" style="stroke: #000000; stroke-width: 0.8"/>
      </g>
     </g>
     <g id="text_8">
      <!-- 0 -->
      <g transform="translate(24.749375 507.019219) scale(0.1 -0.1)">
       <use xlink:href="#DejaVuSans-30"/>
      </g>
     </g>
    </g>
    <g id="ytick_2">
     <g id="line2d_15">
      <path d="M 38.111875 423.100789 
L 739.321875 423.100789 
" clip-path="url(#pce4123b631)" style="fill: none; stroke: #b0b0b0; stroke-opacity: 0.3; stroke-width: 0.8; stroke-linecap: square"/>
     </g>
     <g id="line2d_16">
      <g>
       <use xlink:href="#m8f9059f6e2" x="38.111875" y="423.100789" style="stroke: #000000; stroke-width: 0.8"/>
      </g>
     </g>
     <g id="text_9">
      <!-- 1 -->
      <g transform="translate(24.749375 426.900008) scale(0.1 -0.1)">
       <use xlink:href="#DejaVuSans-31"/>
      </g>
     </g>
    </g>
    <g id="ytick_3">
     <g id="line2d_17">
      <path d="M 38.111875 342.981579 
L 739.321875 342.981579 
" clip-path="url(#pce4123b631)" style="fill: none; stroke: #b0b0b0; stroke-opacity: 0.3; stroke-width: 0.8; stroke-linecap: square"/>
     </g>
     <g id="line2d_18">
      <g>
       <use xlink:href="#m8f9059f6e2" x="38.111875" y="342.981579" style="stroke: #000000; stroke-width: 0.8"/>
      </g>
     </g>
     <g id="text_10">
      <!-- 2 -->
      <g transform="translate(24.749375 346.780798) scale(0.1 -0.1)">
       <use xlink:href="#DejaVuSans-32"/>
      </g>
     </g>
    </g>
    <g id="ytick_4">
     <g id="line2d_19">
      <path d="M 38.111875 262.862368 
L 739.321875 262.862368 
" clip-path="url(#pce4123b631)" style="fill: none; stroke: #b0b0b0; stroke-opacity: 0.3; stroke-width: 0.8; stroke-linecap: square"/>
     </g>
     <g id="line2d_20">
      <g>
       <use xlink:href="#m8f9059f6e2" x="38.111875" y="262.862368" style="stroke: #000000; stroke-width: 0.8"/>
      </g>
     </g>
     <g id="text_11">
      <!-- 3 -->
      <g transform="translate(24.749375 266.661587) scale(0.1 -0.1)">
       <defs>
        <path id="DejaVuSans-33" d="M 2597 2516 
Q 3050 2419 3304 2112 
Q 3559 1806 3559 1356 
Q 3559 666 3084 287 
Q 2609 -91 1734 -91 
Q 1441 -91 1130 -33 
Q 819 25 488 141 
L 488 750 
Q 750 597 1062 519 
Q 1375 441 1716 441 
Q 2309 441 2620 675 
Q 2931 909 2931 1356 
Q 2931 1769 2642 2001 
Q 2353 2234 1838 2234 
L 1294 2234 
L 1294 2753 
L 1863 2753 
Q 2328 2753 2575 2939 
Q 2822 3125 2822 3475 
Q 2822 3834 2567 4026 
Q 2313 4219 1838 4219 
Q 1578 4219 1281 4162 
Q 984 4106 628 3988 
L 628 4550 
Q 988 4650 1302 4700 
Q 1616 4750 1894 4750 
Q 2613 4750 3031 4423 
Q 3450 4097 3450 3541 
Q 3450 3153 3228 2886 
Q 3006 2619 2597 2516 
z
" transform="scale(0.015625)"/>
       </defs>
       <use xlink:href="#DejaVuSans-33"/>
      </g>
     </g>
    </g>
    <g id="ytick_5">
     <g id="line2d_21">
      <path d="M 38.111875 182.743158 
L 739.321875 182.743158 
" clip-path="url(#pce4123b631)" style="fill: none; stroke: #b0b0b0; stroke-opacity: 0.3; stroke-width: 0.8; stroke-linecap: square"/>
     </g>
     <g id="line2d_22">
      <g>
       <use xlink:href="#m8f9059f6e2" x="38.111875" y="182.743158" style="stroke: #000000; stroke-width: 0.8"/>
      </g>
     </g>
     <g id="text_12">
      <!-- 4 -->
      <g transform="translate(24.749375 186.542376) scale(0.1 -0.1)">
       <use xlink:href="#DejaVuSans-34"/>
      </g>
     </g>
    </g>
    <g id="ytick_6">
     <g id="line2d_23">
      <path d="M 38.111875 102.623947 
L 739.321875 102.623947 
" clip-path="url(#pce4123b631)" style="fill: none; stroke: #b0b0b0; stroke-opacity: 0.3; stroke-width: 0.8; stroke-linecap: square"/>
     </g>
     <g id="line2d_24">
      <g>
       <use xlink:href="#m8f9059f6e2" x="38.111875" y="102.623947" style="stroke: #000000; stroke-width: 0.8"/>
      </g>
     </g>
     <g id="text_13">
      <!-- 5 -->
      <g transform="translate(24.749375 106.423166) scale(0.1 -0.1)">
       <defs>
        <path id="DejaVuSans-35" d="M 691 4666 
L 3169 4666 
L 3169 4134 
L 1269 4134 
L 1269 2991 
Q 1406 3038 1543 3061 
Q 1681 3084 1819 3084 
Q 2600 3084 3056 2656 
Q 3513 2228 3513 1497 
Q 3513 744 3044 326 
Q 2575 -91 1722 -91 
Q 1428 -91 1123 -41 
Q 819 9 494 109 
L 494 744 
Q 775 591 1075 516 
Q 1375 441 1709 441 
Q 2250 441 2565 725 
Q 2881 1009 2881 1497 
Q 2881 1984 2565 2268 
Q 2250 2553 1709 2553 
Q 1456 2553 1204 2497 
Q 953 2441 691 2322 
L 691 4666 
z
" transform="scale(0.015625)"/>
       </defs>
       <use xlink:href="#DejaVuSans-35"/>
      </g>
     </g>
    </g>
    <g id="ytick_7">
     <g id="line2d_25">
      <path d="M 38.111875 22.504737 
L 739.321875 22.504737 
" clip-path="url(#pce4123b631)" style="fill: none; stroke: #b0b0b0; stroke-opacity: 0.3; stroke-width: 0.8; stroke-linecap: square"/>
     </g>
     <g id="line2d_26">
      <g>
       <use xlink:href="#m8f9059f6e2" x="38.111875" y="22.504737" style="stroke: #000000; stroke-width: 0.8"/>
      </g>
     </g>
     <g id="text_14">
      <!-- 6 -->
      <g transform="translate(24.749375 26.303955) scale(0.1 -0.1)">
       <use xlink:href="#DejaVuSans-36"/>
      </g>
     </g>
    </g>
    <g id="text_15">
     <!-- mining share / hashrate ratio -->
     <g transform="translate(17.837813 368.867813) rotate(-90) scale(0.14 -0.14)">
      <defs>
       <path id="DejaVuSans-6d" d="M 3328 2828 
Q 3544 3216 3844 3400 
Q 4144 3584 4550 3584 
Q 5097 3584 5394 3201 
Q 5691 2819 5691 2113 
L 5691 0 
L 5113 0 
L 5113 2094 
Q 5113 2597 4934 2840 
Q 4756 3084 4391 3084 
Q 3944 3084 3684 2787 
Q 3425 2491 3425 1978 
L 3425 0 
L 2847 0 
L 2847 2094 
Q 2847 2600 2669 2842 
Q 2491 3084 2119 3084 
Q 1678 3084 1418 2786 
Q 1159 2488 1159 1978 
L 1159 0 
L 581 0 
L 581 3500 
L 1159 3500 
L 1159 2956 
Q 1356 3278 1631 3431 
Q 1906 3584 2284 3584 
Q 2666 3584 2933 3390 
Q 3200 3197 3328 2828 
z
" transform="scale(0.015625)"/>
       <path id="DejaVuSans-69" d="M 603 3500 
L 1178 3500 
L 1178 0 
L 603 0 
L 603 3500 
z
M 603 4863 
L 1178 4863 
L 1178 4134 
L 603 4134 
L 603 4863 
z
" transform="scale(0.015625)"/>
       <path id="DejaVuSans-6e" d="M 3513 2113 
L 3513 0 
L 2938 0 
L 2938 2094 
Q 2938 2591 2744 2837 
Q 2550 3084 2163 3084 
Q 1697 3084 1428 2787 
Q 1159 2491 1159 1978 
L 1159 0 
L 581 0 
L 581 3500 
L 1159 3500 
L 1159 2956 
Q 1366 3272 1645 3428 
Q 1925 3584 2291 3584 
Q 2894 3584 3203 3211 
Q 3513 2838 3513 2113 
z
" transform="scale(0.015625)"/>
       <path id="DejaVuSans-67" d="M 2906 1791 
Q 2906 2416 2648 2759 
Q 2391 3103 1925 3103 
Q 1463 3103 1205 2759 
Q 947 2416 947 1791 
Q 947 1169 1205 825 
Q 1463 481 1925 481 
Q 2391 481 2648 825 
Q 2906 1169 2906 1791 
z
M 3481 434 
Q 3481 -459 3084 -895 
Q 2688 -1331 1869 -1331 
Q 1566 -1331 1297 -1286 
Q 1028 -1241 775 -1147 
L 775 -588 
Q 1028 -725 1275 -790 
Q 1522 -856 1778 -856 
Q 2344 -856 2625 -561 
Q 2906 -266 2906 331 
L 2906 616 
Q 2728 306 2450 153 
Q 2172 0 1784 0 
Q 1141 0 747 490 
Q 353 981 353 1791 
Q 353 2603 747 3093 
Q 1141 3584 1784 3584 
Q 2172 3584 2450 3431 
Q 2728 3278 2906 2969 
L 2906 3500 
L 3481 3500 
L 3481 434 
z
" transform="scale(0.015625)"/>
       <path id="DejaVuSans-20" transform="scale(0.015625)"/>
       <path id="DejaVuSans-73" d="M 2834 3397 
L 2834 2853 
Q 2591 2978 2328 3040 
Q 2066 3103 1784 3103 
Q 1356 3103 1142 2972 
Q 928 2841 928 2578 
Q 928 2378 1081 2264 
Q 1234 2150 1697 2047 
L 1894 2003 
Q 2506 1872 2764 1633 
Q 3022 1394 3022 966 
Q 3022 478 2636 193 
Q 2250 -91 1575 -91 
Q 1294 -91 989 -36 
Q 684 19 347 128 
L 347 722 
Q 666 556 975 473 
Q 1284 391 1588 391 
Q 1994 391 2212 530 
Q 2431 669 2431 922 
Q 2431 1156 2273 1281 
Q 2116 1406 1581 1522 
L 1381 1569 
Q 847 1681 609 1914 
Q 372 2147 372 2553 
Q 372 3047 722 3315 
Q 1072 3584 1716 3584 
Q 2034 3584 2315 3537 
Q 2597 3491 2834 3397 
z
" transform="scale(0.015625)"/>
       <path id="DejaVuSans-68" d="M 3513 2113 
L 3513 0 
L 2938 0 
L 2938 2094 
Q 2938 2591 2744 2837 
Q 2550 3084 2163 3084 
Q 1697 3084 1428 2787 
Q 1159 2491 1159 1978 
L 1159 0 
L 581 0 
L 581 4863 
L 1159 4863 
L 1159 2956 
Q 1366 3272 1645 3428 
Q 1925 3584 2291 3584 
Q 2894 3584 3203 3211 
Q 3513 2838 3513 2113 
z
" transform="scale(0.015625)"/>
       <path id="DejaVuSans-61" d="M 2194 1759 
Q 1497 1759 1228 1600 
Q 959 1441 959 1056 
Q 959 750 1161 570 
Q 1363 391 1709 391 
Q 2188 391 2477 730 
Q 2766 1069 2766 1631 
L 2766 1759 
L 2194 1759 
z
M 3341 1997 
L 3341 0 
L 2766 0 
L 2766 531 
Q 2569 213 2275 61 
Q 1981 -91 1556 -91 
Q 1019 -91 701 211 
Q 384 513 384 1019 
Q 384 1609 779 1909 
Q 1175 2209 1959 2209 
L 2766 2209 
L 2766 2266 
Q 2766 2663 2505 2880 
Q 2244 3097 1772 3097 
Q 1472 3097 1187 3025 
Q 903 2953 641 2809 
L 641 3341 
Q 956 3463 1253 3523 
Q 1550 3584 1831 3584 
Q 2591 3584 2966 3190 
Q 3341 2797 3341 1997 
z
" transform="scale(0.015625)"/>
       <path id="DejaVuSans-72" d="M 2631 2963 
Q 2534 3019 2420 3045 
Q 2306 3072 2169 3072 
Q 1681 3072 1420 2755 
Q 1159 2438 1159 1844 
L 1159 0 
L 581 0 
L 581 3500 
L 1159 3500 
L 1159 2956 
Q 1341 3275 1631 3429 
Q 1922 3584 2338 3584 
Q 2397 3584 2469 3576 
Q 2541 3569 2628 3553 
L 2631 2963 
z
" transform="scale(0.015625)"/>
       <path id="DejaVuSans-65" d="M 3597 1894 
L 3597 1613 
L 953 1613 
Q 991 1019 1311 708 
Q 1631 397 2203 397 
Q 2534 397 2845 478 
Q 3156 559 3463 722 
L 3463 178 
Q 3153 47 2828 -22 
Q 2503 -91 2169 -91 
Q 1331 -91 842 396 
Q 353 884 353 1716 
Q 353 2575 817 3079 
Q 1281 3584 2069 3584 
Q 2775 3584 3186 3129 
Q 3597 2675 3597 1894 
z
M 3022 2063 
Q 3016 2534 2758 2815 
Q 2500 3097 2075 3097 
Q 1594 3097 1305 2825 
Q 1016 2553 972 2059 
L 3022 2063 
z
" transform="scale(0.015625)"/>
       <path id="DejaVuSans-74" d="M 1172 4494 
L 1172 3500 
L 2356 3500 
L 2356 3053 
L 1172 3053 
L 1172 1153 
Q 1172 725 1289 603 
Q 1406 481 1766 481 
L 2356 481 
L 2356 0 
L 1766 0 
Q 1100 0 847 248 
Q 594 497 594 1153 
L 594 3053 
L 172 3053 
L 172 3500 
L 594 3500 
L 594 4494 
L 1172 4494 
z
" transform="scale(0.015625)"/>
       <path id="DejaVuSans-6f" d="M 1959 3097 
Q 1497 3097 1228 2736 
Q 959 2375 959 1747 
Q 959 1119 1226 758 
Q 1494 397 1959 397 
Q 2419 397 2687 759 
Q 2956 1122 2956 1747 
Q 2956 2369 2687 2733 
Q 2419 3097 1959 3097 
z
M 1959 3584 
Q 2709 3584 3137 3096 
Q 3566 2609 3566 1747 
Q 3566 888 3137 398 
Q 2709 -91 1959 -91 
Q 1206 -91 779 398 
Q 353 888 353 1747 
Q 353 2609 779 3096 
Q 1206 3584 1959 3584 
z
" transform="scale(0.015625)"/>
      </defs>
      <use xlink:href="#DejaVuSans-6d"/>
      <use xlink:href="#DejaVuSans-69" transform="translate(97.412109 0)"/>
      <use xlink:href="#DejaVuSans-6e" transform="translate(125.195312 0)"/>
      <use xlink:href="#DejaVuSans-69" transform="translate(188.574219 0)"/>
      <use xlink:href="#DejaVuSans-6e" transform="translate(216.357422 0)"/>
      <use xlink:href="#DejaVuSans-67" transform="translate(279.736328 0)"/>
      <use xlink:href="#DejaVuSans-20" transform="translate(343.212891 0)"/>
      <use xlink:href="#DejaVuSans-73" transform="translate(375 0)"/>
      <use xlink:href="#DejaVuSans-68" transform="translate(427.099609 0)"/>
      <use xlink:href="#DejaVuSans-61" transform="translate(490.478516 0)"/>
      <use xlink:href="#DejaVuSans-72" transform="translate(551.757812 0)"/>
      <use xlink:href="#DejaVuSans-65" transform="translate(590.621094 0)"/>
      <use xlink:href="#DejaVuSans-20" transform="translate(652.144531 0)"/>
      <use xlink:href="#DejaVuSans-2f" transform="translate(683.931641 0)"/>
      <use xlink:href="#DejaVuSans-20" transform="translate(717.623047 0)"/>
      <use xlink:href="#DejaVuSans-68" transform="translate(749.410156 0)"/>
      <use xlink:href="#DejaVuSans-61" transform="translate(812.789062 0)"/>
      <use xlink:href="#DejaVuSans-73" transform="translate(874.068359 0)"/>
      <use xlink:href="#DejaVuSans-68" transform="translate(926.167969 0)"/>
      <use xlink:href="#DejaVuSans-72" transform="translate(989.546875 0)"/>
      <use xlink:href="#DejaVuSans-61" transform="translate(1030.660156 0)"/>
      <use xlink:href="#DejaVuSans-74" transform="translate(1091.939453 0)"/>
      <use xlink:href="#DejaVuSans-65" transform="translate(1131.148438 0)"/>
      <use xlink:href="#DejaVuSans-20" transform="translate(1192.671875 0)"/>
      <use xlink:href="#DejaVuSans-72" transform="translate(1224.458984 0)"/>
      <use xlink:href="#DejaVuSans-61" transform="translate(1265.572266 0)"/>
      <use xlink:href="#DejaVuSans-74" transform="translate(1326.851562 0)"/>
      <use xlink:href="#DejaVuSans-69" transform="translate(1366.060547 0)"/>
      <use xlink:href="#DejaVuSans-6f" transform="translate(1393.84375 0)"/>
     </g>
    </g>
   </g>
   <g id="line2d_27">
    <path d="M 69.985057 421.855438 
L 70.700433 421.96689 
L 71.594813 420.716693 
L 72.744609 420.014063 
L 74.277741 419.96076 
L 76.424083 418.570037 
L 79.643597 416.462147 
L 85.009452 413.763078 
L 95.741163 401.527624 
L 127.936296 324.286773 
L 160.13143 257.381854 
L 192.326563 220.908085 
L 224.521696 189.565938 
L 256.716829 167.605114 
L 288.911962 147.020476 
L 321.107095 131.770981 
L 353.302229 118.343478 
L 385.497362 102.842005 
L 417.692495 91.03782 
L 449.887628 75.138997 
L 482.082761 64.987204 
L 514.277894 59.225638 
L 546.473027 50.639014 
L 578.668161 46.704285 
L 610.863294 48.007785 
L 643.058427 41.490286 
L 675.25356 36.600949 
L 707.448693 30.82 
" clip-path="url(#pce4123b631)" style="fill: none; stroke: #1f77b4; stroke-width: 2; stroke-linecap: square"/>
    <defs>
     <path id="m7387f0cdb3" d="M 0 3 
C 0.795609 3 1.55874 2.683901 2.12132 2.12132 
C 2.683901 1.55874 3 0.795609 3 0 
C 3 -0.795609 2.683901 -1.55874 2.12132 -2.12132 
C 1.55874 -2.683901 0.795609 -3 0 -3 
C -0.795609 -3 -1.55874 -2.683901 -2.12132 -2.12132 
C -2.683901 -1.55874 -3 -0.795609 -3 0 
C -3 0.795609 -2.683901 1.55874 -2.12132 2.12132 
C -1.55874 2.683901 -0.795609 3 0 3 
z
" style="stroke: #1f77b4"/>
    </defs>
    <g clip-path="url(#pce4123b631)">
     <use xlink:href="#m7387f0cdb3" x="69.985057" y="421.855438" style="fill: #1f77b4; stroke: #1f77b4"/>
     <use xlink:href="#m7387f0cdb3" x="70.700433" y="421.96689" style="fill: #1f77b4; stroke: #1f77b4"/>
     <use xlink:href="#m7387f0cdb3" x="71.594813" y="420.716693" style="fill: #1f77b4; stroke: #1f77b4"/>
     <use xlink:href="#m7387f0cdb3" x="72.744609" y="420.014063" style="fill: #1f77b4; stroke: #1f77b4"/>
     <use xlink:href="#m7387f0cdb3" x="74.277741" y="419.96076" style="fill: #1f77b4; stroke: #1f77b4"/>
     <use xlink:href="#m7387f0cdb3" x="76.424083" y="418.570037" style="fill: #1f77b4; stroke: #1f77b4"/>
     <use xlink:href="#m7387f0cdb3" x="79.643597" y="416.462147" style="fill: #1f77b4; stroke: #1f77b4"/>
     <use xlink:href="#m7387f0cdb3" x="85.009452" y="413.763078" style="fill: #1f77b4; stroke: #1f77b4"/>
     <use xlink:href="#m7387f0cdb3" x="95.741163" y="401.527624" style="fill: #1f77b4; stroke: #1f77b4"/>
     <use xlink:href="#m7387f0cdb3" x="127.936296" y="324.286773" style="fill: #1f77b4; stroke: #1f77b4"/>
     <use xlink:href="#m7387f0cdb3" x="160.13143" y="257.381854" style="fill: #1f77b4; stroke: #1f77b4"/>
     <use xlink:href="#m7387f0cdb3" x="192.326563" y="220.908085" style="fill: #1f77b4; stroke: #1f77b4"/>
     <use xlink:href="#m7387f0cdb3" x="224.521696" y="189.565938" style="fill: #1f77b4; stroke: #1f77b4"/>
     <use xlink:href="#m7387f0cdb3" x="256.716829" y="167.605114" style="fill: #1f77b4; stroke: #1f77b4"/>
     <use xlink:href="#m7387f0cdb3" x="288.911962" y="147.020476" style="fill: #1f77b4; stroke: #1f77b4"/>
     <use xlink:href="#m7387f0cdb3" x="321.107095" y="131.770981" style="fill: #1f77b4; stroke: #1f77b4"/>
     <use xlink:href="#m7387f0cdb3" x="353.302229" y="118.343478" style="fill: #1f77b4; stroke: #1f77b4"/>
     <use xlink:href="#m7387f0cdb3" x="385.497362" y="102.842005" style="fill: #1f77b4; stroke: #1f77b4"/>
     <use xlink:href="#m7387f0cdb3" x="417.692495" y="91.03782" style="fill: #1f77b4; stroke: #1f77b4"/>
     <use xlink:href="#m7387f0cdb3" x="449.887628" y="75.138997" style="fill: #1f77b4; stroke: #1f77b4"/>
     <use xlink:href="#m7387f0cdb3" x="482.082761" y="64.987204" style="fill: #1f77b4; stroke: #1f77b4"/>
     <use xlink:href="#m7387f0cdb3" x="514.277894" y="59.225638" style="fill: #1f77b4; stroke: #1f77b4"/>
     <use xlink:href="#m7387f0cdb3" x="546.473027" y="50.639014" style="fill: #1f77b4; stroke: #1f77b4"/>
     <use xlink:href="#m7387f0cdb3" x="578.668161" y="46.704285" style="fill: #1f77b4; stroke: #1f77b4"/>
     <use xlink:href="#m7387f0cdb3" x="610.863294" y="48.007785" style="fill: #1f77b4; stroke: #1f77b4"/>
     <use xlink:href="#m7387f0cdb3" x="643.058427" y="41.490286" style="fill: #1f77b4; stroke: #1f77b4"/>
     <use xlink:href="#m7387f0cdb3" x="675.25356" y="36.600949" style="fill: #1f77b4; stroke: #1f77b4"/>
     <use xlink:href="#m7387f0cdb3" x="707.448693" y="30.82" style="fill: #1f77b4; stroke: #1f77b4"/>
    </g>
   </g>
   <g id="line2d_28">
    <path d="M 69.985057 421.735701 
L 70.700433 421.301935 
L 71.594813 421.225388 
L 72.744609 419.668932 
L 74.277741 419.91133 
L 76.424083 419.107587 
L 79.643597 418.90984 
L 85.009452 417.748877 
L 95.741163 410.802235 
L 127.936296 370.321622 
L 160.13143 349.169129 
L 192.326563 354.316916 
L 224.521696 372.279949 
L 256.716829 381.280603 
L 288.911962 399.907043 
L 321.107095 404.219192 
L 353.302229 418.010413 
L 385.497362 425.001707 
L 417.692495 439.118253 
L 449.887628 453.202904 
L 482.082761 456.972844 
L 514.277894 462.784039 
L 546.473027 472.448099 
L 578.668161 474.795541 
L 610.863294 471.599703 
L 643.058427 480.115559 
L 675.25356 486.373277 
L 707.448693 490.742836 
" clip-path="url(#pce4123b631)" style="fill: none; stroke: #ff7f0e; stroke-width: 2; stroke-linecap: square"/>
    <defs>
     <path id="m46fb628368" d="M 0 3 
C 0.795609 3 1.55874 2.683901 2.12132 2.12132 
C 2.683901 1.55874 3 0.795609 3 0 
C 3 -0.795609 2.683901 -1.55874 2.12132 -2.12132 
C 1.55874 -2.683901 0.795609 -3 0 -3 
C -0.795609 -3 -1.55874 -2.683901 -2.12132 -2.12132 
C -2.683901 -1.55874 -3 -0.795609 -3 0 
C -3 0.795609 -2.683901 1.55874 -2.12132 2.12132 
C -1.55874 2.683901 -0.795609 3 0 3 
z
" style="stroke: #ff7f0e"/>
    </defs>
    <g clip-path="url(#pce4123b631)">
     <use xlink:href="#m46fb628368" x="69.985057" y="421.735701" style="fill: #ff7f0e; stroke: #ff7f0e"/>
     <use xlink:href="#m46fb628368" x="70.700433" y="421.301935" style="fill: #ff7f0e; stroke: #ff7f0e"/>
     <use xlink:href="#m46fb628368" x="71.594813" y="421.225388" style="fill: #ff7f0e; stroke: #ff7f0e"/>
     <use xlink:href="#m46fb628368" x="72.744609" y="419.668932" style="fill: #ff7f0e; stroke: #ff7f0e"/>
     <use xlink:href="#m46fb628368" x="74.277741" y="419.91133" style="fill: #ff7f0e; stroke: #ff7f0e"/>
     <use xlink:href="#m46fb628368" x="76.424083" y="419.107587" style="fill: #ff7f0e; stroke: #ff7f0e"/>
     <use xlink:href="#m46fb628368" x="79.643597" y="418.90984" style="fill: #ff7f0e; stroke: #ff7f0e"/>
     <use xlink:href="#m46fb628368" x="85.009452" y="417.748877" style="fill: #ff7f0e; stroke: #ff7f0e"/>
     <use xlink:href="#m46fb628368" x="95.741163" y="410.802235" style="fill: #ff7f0e; stroke: #ff7f0e"/>
     <use xlink:href="#m46fb628368" x="127.936296" y="370.321622" style="fill: #ff7f0e; stroke: #ff7f0e"/>
     <use xlink:href="#m46fb628368" x="160.13143" y="349.169129" style="fill: #ff7f0e; stroke: #ff7f0e"/>
     <use xlink:href="#m46fb628368" x="192.326563" y="354.316916" style="fill: #ff7f0e; stroke: #ff7f0e"/>
     <use xlink:href="#m46fb628368" x="224.521696" y="372.279949" style="fill: #ff7f0e; stroke: #ff7f0e"/>
     <use xlink:href="#m46fb628368" x="256.716829" y="381.280603" style="fill: #ff7f0e; stroke: #ff7f0e"/>
     <use xlink:href="#m46fb628368" x="288.911962" y="399.907043" style="fill: #ff7f0e; stroke: #ff7f0e"/>
     <use xlink:href="#m46fb628368" x="321.107095" y="404.219192" style="fill: #ff7f0e; stroke: #ff7f0e"/>
     <use xlink:href="#m46fb628368" x="353.302229" y="418.010413" style="fill: #ff7f0e; stroke: #ff7f0e"/>
     <use xlink:href="#m46fb628368" x="385.497362" y="425.001707" style="fill: #ff7f0e; stroke: #ff7f0e"/>
     <use xlink:href="#m46fb628368" x="417.692495" y="439.118253" style="fill: #ff7f0e; stroke: #ff7f0e"/>
     <use xlink:href="#m46fb628368" x="449.887628" y="453.202904" style="fill: #ff7f0e; stroke: #ff7f0e"/>
     <use xlink:href="#m46fb628368" x="482.082761" y="456.972844" style="fill: #ff7f0e; stroke: #ff7f0e"/>
     <use xlink:href="#m46fb628368" x="514.277894" y="462.784039" style="fill: #ff7f0e; stroke: #ff7f0e"/>
     <use xlink:href="#m46fb628368" x="546.473027" y="472.448099" style="fill: #ff7f0e; stroke: #ff7f0e"/>
     <use xlink:href="#m46fb628368" x="578.668161" y="474.795541" style="fill: #ff7f0e; stroke: #ff7f0e"/>
     <use xlink:href="#m46fb628368" x="610.863294" y="471.599703" style="fill: #ff7f0e; stroke: #ff7f0e"/>
     <use xlink:href="#m46fb628368" x="643.058427" y="480.115559" style="fill: #ff7f0e; stroke: #ff7f0e"/>
     <use xlink:href="#m46fb628368" x="675.25356" y="486.373277" style="fill: #ff7f0e; stroke: #ff7f0e"/>
     <use xlink:href="#m46fb628368" x="707.448693" y="490.742836" style="fill: #ff7f0e; stroke: #ff7f0e"/>
    </g>
   </g>
   <g id="line2d_29">
    <path d="M 69.985057 421.97225 
L 70.700433 422.021934 
L 71.594813 421.624461 
L 72.744609 421.340552 
L 74.277741 421.290868 
L 76.424083 420.900492 
L 79.643597 420.382358 
L 85.009452 417.742001 
L 95.741163 410.750734 
L 127.936296 381.280946 
L 160.13143 372.586223 
L 192.326563 386.781689 
L 224.521696 403.198746 
L 256.716829 422.454896 
L 288.911962 430.901198 
L 321.107095 447.900269 
L 353.302229 452.236984 
L 385.497362 467.106734 
L 417.692495 468.668236 
L 449.887628 476.170539 
L 482.082761 486.852628 
L 514.277894 488.733527 
L 546.473027 490.600231 
L 578.668161 493.787113 
L 610.863294 495.277637 
L 643.058427 495.469276 
L 675.25356 495.682208 
L 707.448693 498.847796 
" clip-path="url(#pce4123b631)" style="fill: none; stroke: #2ca02c; stroke-width: 2; stroke-linecap: square"/>
    <defs>
     <path id="mee238cad61" d="M 0 3 
C 0.795609 3 1.55874 2.683901 2.12132 2.12132 
C 2.683901 1.55874 3 0.795609 3 0 
C 3 -0.795609 2.683901 -1.55874 2.12132 -2.12132 
C 1.55874 -2.683901 0.795609 -3 0 -3 
C -0.795609 -3 -1.55874 -2.683901 -2.12132 -2.12132 
C -2.683901 -1.55874 -3 -0.795609 -3 0 
C -3 0.795609 -2.683901 1.55874 -2.12132 2.12132 
C -1.55874 2.683901 -0.795609 3 0 3 
z
" style="stroke: #2ca02c"/>
    </defs>
    <g clip-path="url(#pce4123b631)">
     <use xlink:href="#mee238cad61" x="69.985057" y="421.97225" style="fill: #2ca02c; stroke: #2ca02c"/>
     <use xlink:href="#mee238cad61" x="70.700433" y="422.021934" style="fill: #2ca02c; stroke: #2ca02c"/>
     <use xlink:href="#mee238cad61" x="71.594813" y="421.624461" style="fill: #2ca02c; stroke: #2ca02c"/>
     <use xlink:href="#mee238cad61" x="72.744609" y="421.340552" style="fill: #2ca02c; stroke: #2ca02c"/>
     <use xlink:href="#mee238cad61" x="74.277741" y="421.290868" style="fill: #2ca02c; stroke: #2ca02c"/>
     <use xlink:href="#mee238cad61" x="76.424083" y="420.900492" style="fill: #2ca02c; stroke: #2ca02c"/>
     <use xlink:href="#mee238cad61" x="79.643597" y="420.382358" style="fill: #2ca02c; stroke: #2ca02c"/>
     <use xlink:href="#mee238cad61" x="85.009452" y="417.742001" style="fill: #2ca02c; stroke: #2ca02c"/>
     <use xlink:href="#mee238cad61" x="95.741163" y="410.750734" style="fill: #2ca02c; stroke: #2ca02c"/>
     <use xlink:href="#mee238cad61" x="127.936296" y="381.280946" style="fill: #2ca02c; stroke: #2ca02c"/>
     <use xlink:href="#mee238cad61" x="160.13143" y="372.586223" style="fill: #2ca02c; stroke: #2ca02c"/>
     <use xlink:href="#mee238cad61" x="192.326563" y="386.781689" style="fill: #2ca02c; stroke: #2ca02c"/>
     <use xlink:href="#mee238cad61" x="224.521696" y="403.198746" style="fill: #2ca02c; stroke: #2ca02c"/>
     <use xlink:href="#mee238cad61" x="256.716829" y="422.454896" style="fill: #2ca02c; stroke: #2ca02c"/>
     <use xlink:href="#mee238cad61" x="288.911962" y="430.901198" style="fill: #2ca02c; stroke: #2ca02c"/>
     <use xlink:href="#mee238cad61" x="321.107095" y="447.900269" style="fill: #2ca02c; stroke: #2ca02c"/>
     <use xlink:href="#mee238cad61" x="353.302229" y="452.236984" style="fill: #2ca02c; stroke: #2ca02c"/>
     <use xlink:href="#mee238cad61" x="385.497362" y="467.106734" style="fill: #2ca02c; stroke: #2ca02c"/>
     <use xlink:href="#mee238cad61" x="417.692495" y="468.668236" style="fill: #2ca02c; stroke: #2ca02c"/>
     <use xlink:href="#mee238cad61" x="449.887628" y="476.170539" style="fill: #2ca02c; stroke: #2ca02c"/>
     <use xlink:href="#mee238cad61" x="482.082761" y="486.852628" style="fill: #2ca02c; stroke: #2ca02c"/>
     <use xlink:href="#mee238cad61" x="514.277894" y="488.733527" style="fill: #2ca02c; stroke: #2ca02c"/>
     <use xlink:href="#mee238cad61" x="546.473027" y="490.600231" style="fill: #2ca02c; stroke: #2ca02c"/>
     <use xlink:href="#mee238cad61" x="578.668161" y="493.787113" style="fill: #2ca02c; stroke: #2ca02c"/>
     <use xlink:href="#mee238cad61" x="610.863294" y="495.277637" style="fill: #2ca02c; stroke: #2ca02c"/>
     <use xlink:href="#mee238cad61" x="643.058427" y="495.469276" style="fill: #2ca02c; stroke: #2ca02c"/>
     <use xlink:href="#mee238cad61" x="675.25356" y="495.682208" style="fill: #2ca02c; stroke: #2ca02c"/>
     <use xlink:href="#mee238cad61" x="707.448693" y="498.847796" style="fill: #2ca02c; stroke: #2ca02c"/>
    </g>
   </g>
   <g id="line2d_30">
    <path d="M 69.985057 426.592058 
L 70.700433 424.360525 
L 71.594813 421.157197 
L 72.744609 425.584269 
L 74.277741 425.296329 
L 76.424083 424.648465 
L 79.643597 422.848842 
L 85.009452 425.620261 
L 95.741163 430.407258 
L 127.936296 456.105873 
L 160.13143 482.344375 
L 192.326563 492.710202 
L 224.521696 498.864913 
L 256.716829 501.348392 
L 288.911962 502.608128 
L 321.107095 502.860075 
L 353.302229 502.896068 
L 385.497362 503.004045 
L 417.692495 502.824083 
L 449.887628 503.184008 
L 482.082761 503.07603 
L 514.277894 503.22 
L 546.473027 503.22 
L 578.668161 503.148015 
L 610.863294 503.22 
L 643.058427 503.22 
L 675.25356 503.22 
L 707.448693 503.22 
" clip-path="url(#pce4123b631)" style="fill: none; stroke: #d62728; stroke-width: 2; stroke-linecap: square"/>
    <defs>
     <path id="mcd25f888c2" d="M 0 3 
C 0.795609 3 1.55874 2.683901 2.12132 2.12132 
C 2.683901 1.55874 3 0.795609 3 0 
C 3 -0.795609 2.683901 -1.55874 2.12132 -2.12132 
C 1.55874 -2.683901 0.795609 -3 0 -3 
C -0.795609 -3 -1.55874 -2.683901 -2.12132 -2.12132 
C -2.683901 -1.55874 -3 -0.795609 -3 0 
C -3 0.795609 -2.683901 1.55874 -2.12132 2.12132 
C -1.55874 2.683901 -0.795609 3 0 3 
z
" style="stroke: #d62728"/>
    </defs>
    <g clip-path="url(#pce4123b631)">
     <use xlink:href="#mcd25f888c2" x="69.985057" y="426.592058" style="fill: #d62728; stroke: #d62728"/>
     <use xlink:href="#mcd25f888c2" x="70.700433" y="424.360525" style="fill: #d62728; stroke: #d62728"/>
     <use xlink:href="#mcd25f888c2" x="71.594813" y="421.157197" style="fill: #d62728; stroke: #d62728"/>
     <use xlink:href="#mcd25f888c2" x="72.744609" y="425.584269" style="fill: #d62728; stroke: #d62728"/>
     <use xlink:href="#mcd25f888c2" x="74.277741" y="425.296329" style="fill: #d62728; stroke: #d62728"/>
     <use xlink:href="#mcd25f888c2" x="76.424083" y="424.648465" style="fill: #d62728; stroke: #d62728"/>
     <use xlink:href="#mcd25f888c2" x="79.643597" y="422.848842" style="fill: #d62728; stroke: #d62728"/>
     <use xlink:href="#mcd25f888c2" x="85.009452" y="425.620261" style="fill: #d62728; stroke: #d62728"/>
     <use xlink:href="#mcd25f888c2" x="95.741163" y="430.407258" style="fill: #d62728; stroke: #d62728"/>
     <use xlink:href="#mcd25f888c2" x="127.936296" y="456.105873" style="fill: #d62728; stroke: #d62728"/>
     <use xlink:href="#mcd25f888c2" x="160.13143" y="482.344375" style="fill: #d62728; stroke: #d62728"/>
     <use xlink:href="#mcd25f888c2" x="192.326563" y="492.710202" style="fill: #d62728; stroke: #d62728"/>
     <use xlink:href="#mcd25f888c2" x="224.521696" y="498.864913" style="fill: #d62728; stroke: #d62728"/>
     <use xlink:href="#mcd25f888c2" x="256.716829" y="501.348392" style="fill: #d62728; stroke: #d62728"/>
     <use xlink:href="#mcd25f888c2" x="288.911962" y="502.608128" style="fill: #d62728; stroke: #d62728"/>
     <use xlink:href="#mcd25f888c2" x="321.107095" y="502.860075" style="fill: #d62728; stroke: #d62728"/>
     <use xlink:href="#mcd25f888c2" x="353.302229" y="502.896068" style="fill: #d62728; stroke: #d62728"/>
     <use xlink:href="#mcd25f888c2" x="385.497362" y="503.004045" style="fill: #d62728; stroke: #d62728"/>
     <use xlink:href="#mcd25f888c2" x="417.692495" y="502.824083" style="fill: #d62728; stroke: #d62728"/>
     <use xlink:href="#mcd25f888c2" x="449.887628" y="503.184008" style="fill: #d62728; stroke: #d62728"/>
     <use xlink:href="#mcd25f888c2" x="482.082761" y="503.07603" style="fill: #d62728; stroke: #d62728"/>
     <use xlink:href="#mcd25f888c2" x="514.277894" y="503.22" style="fill: #d62728; stroke: #d62728"/>
     <use xlink:href="#mcd25f888c2" x="546.473027" y="503.22" style="fill: #d62728; stroke: #d62728"/>
     <use xlink:href="#mcd25f888c2" x="578.668161" y="503.148015" style="fill: #d62728; stroke: #d62728"/>
     <use xlink:href="#mcd25f888c2" x="610.863294" y="503.22" style="fill: #d62728; stroke: #d62728"/>
     <use xlink:href="#mcd25f888c2" x="643.058427" y="503.22" style="fill: #d62728; stroke: #d62728"/>
     <use xlink:href="#mcd25f888c2" x="675.25356" y="503.22" style="fill: #d62728; stroke: #d62728"/>
     <use xlink:href="#mcd25f888c2" x="707.448693" y="503.22" style="fill: #d62728; stroke: #d62728"/>
    </g>
   </g>
   <g id="line2d_31">
    <path d="M 69.985057 424.612473 
L 70.700433 422.596895 
L 71.594813 422.722869 
L 72.744609 421.526119 
L 74.277741 424.297539 
L 76.424083 425.746235 
L 79.643597 427.824799 
L 85.009452 424.108578 
L 95.741163 430.155311 
L 127.936296 461.648711 
L 160.13143 487.410313 
L 192.326563 497.488201 
L 224.521696 501.393383 
L 256.716829 502.401172 
L 288.911962 502.590132 
L 321.107095 503.22 
L 353.302229 503.22 
L 385.497362 503.157013 
L 417.692495 503.22 
L 449.887628 503.22 
L 482.082761 503.094026 
L 514.277894 503.22 
L 546.473027 503.22 
L 578.668161 503.22 
L 610.863294 503.22 
L 643.058427 503.22 
L 675.25356 503.22 
L 707.448693 503.22 
" clip-path="url(#pce4123b631)" style="fill: none; stroke: #9467bd; stroke-width: 2; stroke-linecap: square"/>
    <defs>
     <path id="m79487d9928" d="M 0 3 
C 0.795609 3 1.55874 2.683901 2.12132 2.12132 
C 2.683901 1.55874 3 0.795609 3 0 
C 3 -0.795609 2.683901 -1.55874 2.12132 -2.12132 
C 1.55874 -2.683901 0.795609 -3 0 -3 
C -0.795609 -3 -1.55874 -2.683901 -2.12132 -2.12132 
C -2.683901 -1.55874 -3 -0.795609 -3 0 
C -3 0.795609 -2.683901 1.55874 -2.12132 2.12132 
C -1.55874 2.683901 -0.795609 3 0 3 
z
" style="stroke: #9467bd"/>
    </defs>
    <g clip-path="url(#pce4123b631)">
     <use xlink:href="#m79487d9928" x="69.985057" y="424.612473" style="fill: #9467bd; stroke: #9467bd"/>
     <use xlink:href="#m79487d9928" x="70.700433" y="422.596895" style="fill: #9467bd; stroke: #9467bd"/>
     <use xlink:href="#m79487d9928" x="71.594813" y="422.722869" style="fill: #9467bd; stroke: #9467bd"/>
     <use xlink:href="#m79487d9928" x="72.744609" y="421.526119" style="fill: #9467bd; stroke: #9467bd"/>
     <use xlink:href="#m79487d9928" x="74.277741" y="424.297539" style="fill: #9467bd; stroke: #9467bd"/>
     <use xlink:href="#m79487d9928" x="76.424083" y="425.746235" style="fill: #9467bd; stroke: #9467bd"/>
     <use xlink:href="#m79487d9928" x="79.643597" y="427.824799" style="fill: #9467bd; stroke: #9467bd"/>
     <use xlink:href="#m79487d9928" x="85.009452" y="424.108578" style="fill: #9467bd; stroke: #9467bd"/>
     <use xlink:href="#m79487d9928" x="95.741163" y="430.155311" style="fill: #9467bd; stroke: #9467bd"/>
     <use xlink:href="#m79487d9928" x="127.936296" y="461.648711" style="fill: #9467bd; stroke: #9467bd"/>
     <use xlink:href="#m79487d9928" x="160.13143" y="487.410313" style="fill: #9467bd; stroke: #9467bd"/>
     <use xlink:href="#m79487d9928" x="192.326563" y="497.488201" style="fill: #9467bd; stroke: #9467bd"/>
     <use xlink:href="#m79487d9928" x="224.521696" y="501.393383" style="fill: #9467bd; stroke: #9467bd"/>
     <use xlink:href="#m79487d9928" x="256.716829" y="502.401172" style="fill: #9467bd; stroke: #9467bd"/>
     <use xlink:href="#m79487d9928" x="288.911962" y="502.590132" style="fill: #9467bd; stroke: #9467bd"/>
     <use xlink:href="#m79487d9928" x="321.107095" y="503.22" style="fill: #9467bd; stroke: #9467bd"/>
     <use xlink:href="#m79487d9928" x="353.302229" y="503.22" style="fill: #9467bd; stroke: #9467bd"/>
     <use xlink:href="#m79487d9928" x="385.497362" y="503.157013" style="fill: #9467bd; stroke: #9467bd"/>
     <use xlink:href="#m79487d9928" x="417.692495" y="503.22" style="fill: #9467bd; stroke: #9467bd"/>
     <use xlink:href="#m79487d9928" x="449.887628" y="503.22" style="fill: #9467bd; stroke: #9467bd"/>
     <use xlink:href="#m79487d9928" x="482.082761" y="503.094026" style="fill: #9467bd; stroke: #9467bd"/>
     <use xlink:href="#m79487d9928" x="514.277894" y="503.22" style="fill: #9467bd; stroke: #9467bd"/>
     <use xlink:href="#m79487d9928" x="546.473027" y="503.22" style="fill: #9467bd; stroke: #9467bd"/>
     <use xlink:href="#m79487d9928" x="578.668161" y="503.22" style="fill: #9467bd; stroke: #9467bd"/>
     <use xlink:href="#m79487d9928" x="610.863294" y="503.22" style="fill: #9467bd; stroke: #9467bd"/>
     <use xlink:href="#m79487d9928" x="643.058427" y="503.22" style="fill: #9467bd; stroke: #9467bd"/>
     <use xlink:href="#m79487d9928" x="675.25356" y="503.22" style="fill: #9467bd; stroke: #9467bd"/>
     <use xlink:href="#m79487d9928" x="707.448693" y="503.22" style="fill: #9467bd; stroke: #9467bd"/>
    </g>
   </g>
   <g id="line2d_32">
    <path d="M 69.985057 424.108578 
L 70.700433 420.581317 
L 71.594813 425.368314 
L 72.744609 425.242341 
L 74.277741 424.612473 
L 76.424083 428.265707 
L 79.643597 425.872209 
L 85.009452 428.139733 
L 95.741163 429.651417 
L 127.936296 464.798052 
L 160.13143 491.252508 
L 192.326563 499.188845 
L 224.521696 501.330396 
L 256.716829 502.842079 
L 288.911962 503.22 
L 321.107095 503.22 
L 353.302229 503.094026 
L 385.497362 503.22 
L 417.692495 503.22 
L 449.887628 503.22 
L 482.082761 503.22 
L 514.277894 503.22 
L 546.473027 503.22 
L 578.668161 503.22 
L 610.863294 503.22 
L 643.058427 503.22 
L 675.25356 503.22 
L 707.448693 503.22 
" clip-path="url(#pce4123b631)" style="fill: none; stroke: #8c564b; stroke-width: 2; stroke-linecap: square"/>
    <defs>
     <path id="ma9756f9338" d="M 0 3 
C 0.795609 3 1.55874 2.683901 2.12132 2.12132 
C 2.683901 1.55874 3 0.795609 3 0 
C 3 -0.795609 2.683901 -1.55874 2.12132 -2.12132 
C 1.55874 -2.683901 0.795609 -3 0 -3 
C -0.795609 -3 -1.55874 -2.683901 -2.12132 -2.12132 
C -2.683901 -1.55874 -3 -0.795609 -3 0 
C -3 0.795609 -2.683901 1.55874 -2.12132 2.12132 
C -1.55874 2.683901 -0.795609 3 0 3 
z
" style="stroke: #8c564b"/>
    </defs>
    <g clip-path="url(#pce4123b631)">
     <use xlink:href="#ma9756f9338" x="69.985057" y="424.108578" style="fill: #8c564b; stroke: #8c564b"/>
     <use xlink:href="#ma9756f9338" x="70.700433" y="420.581317" style="fill: #8c564b; stroke: #8c564b"/>
     <use xlink:href="#ma9756f9338" x="71.594813" y="425.368314" style="fill: #8c564b; stroke: #8c564b"/>
     <use xlink:href="#ma9756f9338" x="72.744609" y="425.242341" style="fill: #8c564b; stroke: #8c564b"/>
     <use xlink:href="#ma9756f9338" x="74.277741" y="424.612473" style="fill: #8c564b; stroke: #8c564b"/>
     <use xlink:href="#ma9756f9338" x="76.424083" y="428.265707" style="fill: #8c564b; stroke: #8c564b"/>
     <use xlink:href="#ma9756f9338" x="79.643597" y="425.872209" style="fill: #8c564b; stroke: #8c564b"/>
     <use xlink:href="#ma9756f9338" x="85.009452" y="428.139733" style="fill: #8c564b; stroke: #8c564b"/>
     <use xlink:href="#ma9756f9338" x="95.741163" y="429.651417" style="fill: #8c564b; stroke: #8c564b"/>
     <use xlink:href="#ma9756f9338" x="127.936296" y="464.798052" style="fill: #8c564b; stroke: #8c564b"/>
     <use xlink:href="#ma9756f9338" x="160.13143" y="491.252508" style="fill: #8c564b; stroke: #8c564b"/>
     <use xlink:href="#ma9756f9338" x="192.326563" y="499.188845" style="fill: #8c564b; stroke: #8c564b"/>
     <use xlink:href="#ma9756f9338" x="224.521696" y="501.330396" style="fill: #8c564b; stroke: #8c564b"/>
     <use xlink:href="#ma9756f9338" x="256.716829" y="502.842079" style="fill: #8c564b; stroke: #8c564b"/>
     <use xlink:href="#ma9756f9338" x="288.911962" y="503.22" style="fill: #8c564b; stroke: #8c564b"/>
     <use xlink:href="#ma9756f9338" x="321.107095" y="503.22" style="fill: #8c564b; stroke: #8c564b"/>
     <use xlink:href="#ma9756f9338" x="353.302229" y="503.094026" style="fill: #8c564b; stroke: #8c564b"/>
     <use xlink:href="#ma9756f9338" x="385.497362" y="503.22" style="fill: #8c564b; stroke: #8c564b"/>
     <use xlink:href="#ma9756f9338" x="417.692495" y="503.22" style="fill: #8c564b; stroke: #8c564b"/>
     <use xlink:href="#ma9756f9338" x="449.887628" y="503.22" style="fill: #8c564b; stroke: #8c564b"/>
     <use xlink:href="#ma9756f9338" x="482.082761" y="503.22" style="fill: #8c564b; stroke: #8c564b"/>
     <use xlink:href="#ma9756f9338" x="514.277894" y="503.22" style="fill: #8c564b; stroke: #8c564b"/>
     <use xlink:href="#ma9756f9338" x="546.473027" y="503.22" style="fill: #8c564b; stroke: #8c564b"/>
     <use xlink:href="#ma9756f9338" x="578.668161" y="503.22" style="fill: #8c564b; stroke: #8c564b"/>
     <use xlink:href="#ma9756f9338" x="610.863294" y="503.22" style="fill: #8c564b; stroke: #8c564b"/>
     <use xlink:href="#ma9756f9338" x="643.058427" y="503.22" style="fill: #8c564b; stroke: #8c564b"/>
     <use xlink:href="#ma9756f9338" x="675.25356" y="503.22" style="fill: #8c564b; stroke: #8c564b"/>
     <use xlink:href="#ma9756f9338" x="707.448693" y="503.22" style="fill: #8c564b; stroke: #8c564b"/>
    </g>
   </g>
   <g id="line2d_33">
    <path d="M 69.985057 418.313793 
L 70.700433 425.116367 
L 71.594813 423.856631 
L 72.744609 428.391681 
L 74.277741 431.1631 
L 76.424083 425.620261 
L 79.643597 434.942308 
L 85.009452 436.957886 
L 95.741163 433.682572 
L 127.936296 471.7266 
L 160.13143 492.890165 
L 192.326563 499.692739 
L 224.521696 502.212211 
L 256.716829 502.968053 
L 288.911962 503.22 
L 321.107095 503.22 
L 353.302229 502.464158 
L 385.497362 503.22 
L 417.692495 503.22 
L 449.887628 503.22 
L 482.082761 503.22 
L 514.277894 503.22 
L 546.473027 503.22 
L 578.668161 503.22 
L 610.863294 503.22 
L 643.058427 503.22 
L 675.25356 503.22 
L 707.448693 503.22 
" clip-path="url(#pce4123b631)" style="fill: none; stroke: #e377c2; stroke-width: 2; stroke-linecap: square"/>
    <defs>
     <path id="me9bc6d243e" d="M 0 3 
C 0.795609 3 1.55874 2.683901 2.12132 2.12132 
C 2.683901 1.55874 3 0.795609 3 0 
C 3 -0.795609 2.683901 -1.55874 2.12132 -2.12132 
C 1.55874 -2.683901 0.795609 -3 0 -3 
C -0.795609 -3 -1.55874 -2.683901 -2.12132 -2.12132 
C -2.683901 -1.55874 -3 -0.795609 -3 0 
C -3 0.795609 -2.683901 1.55874 -2.12132 2.12132 
C -1.55874 2.683901 -0.795609 3 0 3 
z
" style="stroke: #e377c2"/>
    </defs>
    <g clip-path="url(#pce4123b631)">
     <use xlink:href="#me9bc6d243e" x="69.985057" y="418.313793" style="fill: #e377c2; stroke: #e377c2"/>
     <use xlink:href="#me9bc6d243e" x="70.700433" y="425.116367" style="fill: #e377c2; stroke: #e377c2"/>
     <use xlink:href="#me9bc6d243e" x="71.594813" y="423.856631" style="fill: #e377c2; stroke: #e377c2"/>
     <use xlink:href="#me9bc6d243e" x="72.744609" y="428.391681" style="fill: #e377c2; stroke: #e377c2"/>
     <use xlink:href="#me9bc6d243e" x="74.277741" y="431.1631" style="fill: #e377c2; stroke: #e377c2"/>
     <use xlink:href="#me9bc6d243e" x="76.424083" y="425.620261" style="fill: #e377c2; stroke: #e377c2"/>
     <use xlink:href="#me9bc6d243e" x="79.643597" y="434.942308" style="fill: #e377c2; stroke: #e377c2"/>
     <use xlink:href="#me9bc6d243e" x="85.009452" y="436.957886" style="fill: #e377c2; stroke: #e377c2"/>
     <use xlink:href="#me9bc6d243e" x="95.741163" y="433.682572" style="fill: #e377c2; stroke: #e377c2"/>
     <use xlink:href="#me9bc6d243e" x="127.936296" y="471.7266" style="fill: #e377c2; stroke: #e377c2"/>
     <use xlink:href="#me9bc6d243e" x="160.13143" y="492.890165" style="fill: #e377c2; stroke: #e377c2"/>
     <use xlink:href="#me9bc6d243e" x="192.326563" y="499.692739" style="fill: #e377c2; stroke: #e377c2"/>
     <use xlink:href="#me9bc6d243e" x="224.521696" y="502.212211" style="fill: #e377c2; stroke: #e377c2"/>
     <use xlink:href="#me9bc6d243e" x="256.716829" y="502.968053" style="fill: #e377c2; stroke: #e377c2"/>
     <use xlink:href="#me9bc6d243e" x="288.911962" y="503.22" style="fill: #e377c2; stroke: #e377c2"/>
     <use xlink:href="#me9bc6d243e" x="321.107095" y="503.22" style="fill: #e377c2; stroke: #e377c2"/>
     <use xlink:href="#me9bc6d243e" x="353.302229" y="502.464158" style="fill: #e377c2; stroke: #e377c2"/>
     <use xlink:href="#me9bc6d243e" x="385.497362" y="503.22" style="fill: #e377c2; stroke: #e377c2"/>
     <use xlink:href="#me9bc6d243e" x="417.692495" y="503.22" style="fill: #e377c2; stroke: #e377c2"/>
     <use xlink:href="#me9bc6d243e" x="449.887628" y="503.22" style="fill: #e377c2; stroke: #e377c2"/>
     <use xlink:href="#me9bc6d243e" x="482.082761" y="503.22" style="fill: #e377c2; stroke: #e377c2"/>
     <use xlink:href="#me9bc6d243e" x="514.277894" y="503.22" style="fill: #e377c2; stroke: #e377c2"/>
     <use xlink:href="#me9bc6d243e" x="546.473027" y="503.22" style="fill: #e377c2; stroke: #e377c2"/>
     <use xlink:href="#me9bc6d243e" x="578.668161" y="503.22" style="fill: #e377c2; stroke: #e377c2"/>
     <use xlink:href="#me9bc6d243e" x="610.863294" y="503.22" style="fill: #e377c2; stroke: #e377c2"/>
     <use xlink:href="#me9bc6d243e" x="643.058427" y="503.22" style="fill: #e377c2; stroke: #e377c2"/>
     <use xlink:href="#me9bc6d243e" x="675.25356" y="503.22" style="fill: #e377c2; stroke: #e377c2"/>
     <use xlink:href="#me9bc6d243e" x="707.448693" y="503.22" style="fill: #e377c2; stroke: #e377c2"/>
    </g>
   </g>
   <g id="line2d_34">
    <path d="M 69.985057 428.391681 
L 70.700433 423.856631 
L 71.594813 422.344948 
L 72.744609 429.147522 
L 74.277741 426.879997 
L 76.424083 425.872209 
L 79.643597 433.430625 
L 85.009452 427.383892 
L 95.741163 435.69815 
L 127.936296 469.962969 
L 160.13143 495.15769 
L 192.326563 496.92132 
L 224.521696 501.960264 
L 256.716829 503.22 
L 288.911962 503.22 
L 321.107095 503.22 
L 353.302229 503.22 
L 385.497362 503.22 
L 417.692495 503.22 
L 449.887628 503.22 
L 482.082761 503.22 
L 514.277894 503.22 
L 546.473027 503.22 
L 578.668161 503.22 
L 610.863294 503.22 
L 643.058427 503.22 
L 675.25356 503.22 
L 707.448693 503.22 
" clip-path="url(#pce4123b631)" style="fill: none; stroke: #17becf; stroke-width: 2; stroke-linecap: square"/>
    <defs>
     <path id="m76cfc43cb9" d="M 0 3 
C 0.795609 3 1.55874 2.683901 2.12132 2.12132 
C 2.683901 1.55874 3 0.795609 3 0 
C 3 -0.795609 2.683901 -1.55874 2.12132 -2.12132 
C 1.55874 -2.683901 0.795609 -3 0 -3 
C -0.795609 -3 -1.55874 -2.683901 -2.12132 -2.12132 
C -2.683901 -1.55874 -3 -0.795609 -3 0 
C -3 0.795609 -2.683901 1.55874 -2.12132 2.12132 
C -1.55874 2.683901 -0.795609 3 0 3 
z
" style="stroke: #17becf"/>
    </defs>
    <g clip-path="url(#pce4123b631)">
     <use xlink:href="#m76cfc43cb9" x="69.985057" y="428.391681" style="fill: #17becf; stroke: #17becf"/>
     <use xlink:href="#m76cfc43cb9" x="70.700433" y="423.856631" style="fill: #17becf; stroke: #17becf"/>
     <use xlink:href="#m76cfc43cb9" x="71.594813" y="422.344948" style="fill: #17becf; stroke: #17becf"/>
     <use xlink:href="#m76cfc43cb9" x="72.744609" y="429.147522" style="fill: #17becf; stroke: #17becf"/>
     <use xlink:href="#m76cfc43cb9" x="74.277741" y="426.879997" style="fill: #17becf; stroke: #17becf"/>
     <use xlink:href="#m76cfc43cb9" x="76.424083" y="425.872209" style="fill: #17becf; stroke: #17becf"/>
     <use xlink:href="#m76cfc43cb9" x="79.643597" y="433.430625" style="fill: #17becf; stroke: #17becf"/>
     <use xlink:href="#m76cfc43cb9" x="85.009452" y="427.383892" style="fill: #17becf; stroke: #17becf"/>
     <use xlink:href="#m76cfc43cb9" x="95.741163" y="435.69815" style="fill: #17becf; stroke: #17becf"/>
     <use xlink:href="#m76cfc43cb9" x="127.936296" y="469.962969" style="fill: #17becf; stroke: #17becf"/>
     <use xlink:href="#m76cfc43cb9" x="160.13143" y="495.15769" style="fill: #17becf; stroke: #17becf"/>
     <use xlink:href="#m76cfc43cb9" x="192.326563" y="496.92132" style="fill: #17becf; stroke: #17becf"/>
     <use xlink:href="#m76cfc43cb9" x="224.521696" y="501.960264" style="fill: #17becf; stroke: #17becf"/>
     <use xlink:href="#m76cfc43cb9" x="256.716829" y="503.22" style="fill: #17becf; stroke: #17becf"/>
     <use xlink:href="#m76cfc43cb9" x="288.911962" y="503.22" style="fill: #17becf; stroke: #17becf"/>
     <use xlink:href="#m76cfc43cb9" x="321.107095" y="503.22" style="fill: #17becf; stroke: #17becf"/>
     <use xlink:href="#m76cfc43cb9" x="353.302229" y="503.22" style="fill: #17becf; stroke: #17becf"/>
     <use xlink:href="#m76cfc43cb9" x="385.497362" y="503.22" style="fill: #17becf; stroke: #17becf"/>
     <use xlink:href="#m76cfc43cb9" x="417.692495" y="503.22" style="fill: #17becf; stroke: #17becf"/>
     <use xlink:href="#m76cfc43cb9" x="449.887628" y="503.22" style="fill: #17becf; stroke: #17becf"/>
     <use xlink:href="#m76cfc43cb9" x="482.082761" y="503.22" style="fill: #17becf; stroke: #17becf"/>
     <use xlink:href="#m76cfc43cb9" x="514.277894" y="503.22" style="fill: #17becf; stroke: #17becf"/>
     <use xlink:href="#m76cfc43cb9" x="546.473027" y="503.22" style="fill: #17becf; stroke: #17becf"/>
     <use xlink:href="#m76cfc43cb9" x="578.668161" y="503.22" style="fill: #17becf; stroke: #17becf"/>
     <use xlink:href="#m76cfc43cb9" x="610.863294" y="503.22" style="fill: #17becf; stroke: #17becf"/>
     <use xlink:href="#m76cfc43cb9" x="643.058427" y="503.22" style="fill: #17becf; stroke: #17becf"/>
     <use xlink:href="#m76cfc43cb9" x="675.25356" y="503.22" style="fill: #17becf; stroke: #17becf"/>
     <use xlink:href="#m76cfc43cb9" x="707.448693" y="503.22" style="fill: #17becf; stroke: #17becf"/>
    </g>
   </g>
   <g id="line2d_35">
    <path d="M 69.985057 419.573529 
L 70.700433 420.581317 
L 71.594813 422.596895 
L 72.744609 403.448908 
L 74.277741 429.147522 
L 76.424083 408.991746 
L 79.643597 425.620261 
L 85.009452 421.589106 
L 95.741163 438.217622 
L 127.936296 468.451286 
L 160.13143 491.630429 
L 192.326563 497.677162 
L 224.521696 503.22 
L 256.716829 503.22 
L 288.911962 503.22 
L 321.107095 503.22 
L 353.302229 503.22 
L 385.497362 503.22 
L 417.692495 503.22 
L 449.887628 503.22 
L 482.082761 503.22 
L 514.277894 503.22 
L 546.473027 503.22 
L 578.668161 503.22 
L 610.863294 503.22 
L 643.058427 503.22 
L 675.25356 503.22 
L 707.448693 503.22 
" clip-path="url(#pce4123b631)" style="fill: none; stroke: #bcbd22; stroke-width: 2; stroke-linecap: square"/>
    <defs>
     <path id="m89c830b90d" d="M 0 3 
C 0.795609 3 1.55874 2.683901 2.12132 2.12132 
C 2.683901 1.55874 3 0.795609 3 0 
C 3 -0.795609 2.683901 -1.55874 2.12132 -2.12132 
C 1.55874 -2.683901 0.795609 -3 0 -3 
C -0.795609 -3 -1.55874 -2.683901 -2.12132 -2.12132 
C -2.683901 -1.55874 -3 -0.795609 -3 0 
C -3 0.795609 -2.683901 1.55874 -2.12132 2.12132 
C -1.55874 2.683901 -0.795609 3 0 3 
z
" style="stroke: #bcbd22"/>
    </defs>
    <g clip-path="url(#pce4123b631)">
     <use xlink:href="#m89c830b90d" x="69.985057" y="419.573529" style="fill: #bcbd22; stroke: #bcbd22"/>
     <use xlink:href="#m89c830b90d" x="70.700433" y="420.581317" style="fill: #bcbd22; stroke: #bcbd22"/>
     <use xlink:href="#m89c830b90d" x="71.594813" y="422.596895" style="fill: #bcbd22; stroke: #bcbd22"/>
     <use xlink:href="#m89c830b90d" x="72.744609" y="403.448908" style="fill: #bcbd22; stroke: #bcbd22"/>
     <use xlink:href="#m89c830b90d" x="74.277741" y="429.147522" style="fill: #bcbd22; stroke: #bcbd22"/>
     <use xlink:href="#m89c830b90d" x="76.424083" y="408.991746" style="fill: #bcbd22; stroke: #bcbd22"/>
     <use xlink:href="#m89c830b90d" x="79.643597" y="425.620261" style="fill: #bcbd22; stroke: #bcbd22"/>
     <use xlink:href="#m89c830b90d" x="85.009452" y="421.589106" style="fill: #bcbd22; stroke: #bcbd22"/>
     <use xlink:href="#m89c830b90d" x="95.741163" y="438.217622" style="fill: #bcbd22; stroke: #bcbd22"/>
     <use xlink:href="#m89c830b90d" x="127.936296" y="468.451286" style="fill: #bcbd22; stroke: #bcbd22"/>
     <use xlink:href="#m89c830b90d" x="160.13143" y="491.630429" style="fill: #bcbd22; stroke: #bcbd22"/>
     <use xlink:href="#m89c830b90d" x="192.326563" y="497.677162" style="fill: #bcbd22; stroke: #bcbd22"/>
     <use xlink:href="#m89c830b90d" x="224.521696" y="503.22" style="fill: #bcbd22; stroke: #bcbd22"/>
     <use xlink:href="#m89c830b90d" x="256.716829" y="503.22" style="fill: #bcbd22; stroke: #bcbd22"/>
     <use xlink:href="#m89c830b90d" x="288.911962" y="503.22" style="fill: #bcbd22; stroke: #bcbd22"/>
     <use xlink:href="#m89c830b90d" x="321.107095" y="503.22" style="fill: #bcbd22; stroke: #bcbd22"/>
     <use xlink:href="#m89c830b90d" x="353.302229" y="503.22" style="fill: #bcbd22; stroke: #bcbd22"/>
     <use xlink:href="#m89c830b90d" x="385.497362" y="503.22" style="fill: #bcbd22; stroke: #bcbd22"/>
     <use xlink:href="#m89c830b90d" x="417.692495" y="503.22" style="fill: #bcbd22; stroke: #bcbd22"/>
     <use xlink:href="#m89c830b90d" x="449.887628" y="503.22" style="fill: #bcbd22; stroke: #bcbd22"/>
     <use xlink:href="#m89c830b90d" x="482.082761" y="503.22" style="fill: #bcbd22; stroke: #bcbd22"/>
     <use xlink:href="#m89c830b90d" x="514.277894" y="503.22" style="fill: #bcbd22; stroke: #bcbd22"/>
     <use xlink:href="#m89c830b90d" x="546.473027" y="503.22" style="fill: #bcbd22; stroke: #bcbd22"/>
     <use xlink:href="#m89c830b90d" x="578.668161" y="503.22" style="fill: #bcbd22; stroke: #bcbd22"/>
     <use xlink:href="#m89c830b90d" x="610.863294" y="503.22" style="fill: #bcbd22; stroke: #bcbd22"/>
     <use xlink:href="#m89c830b90d" x="643.058427" y="503.22" style="fill: #bcbd22; stroke: #bcbd22"/>
     <use xlink:href="#m89c830b90d" x="675.25356" y="503.22" style="fill: #bcbd22; stroke: #bcbd22"/>
     <use xlink:href="#m89c830b90d" x="707.448693" y="503.22" style="fill: #bcbd22; stroke: #bcbd22"/>
    </g>
   </g>
   <g id="line2d_36">
    <path d="M 38.111875 423.100789 
L 739.321875 423.100789 
" clip-path="url(#pce4123b631)" style="fill: none; stroke-dasharray: 5.55,2.4; stroke-dashoffset: 0; stroke: #000000; stroke-opacity: 0.5; stroke-width: 1.5"/>
   </g>
   <g id="patch_3">
    <path d="M 38.111875 526.84 
L 38.111875 7.2 
" style="fill: none; stroke: #000000; stroke-width: 0.8; stroke-linejoin: miter; stroke-linecap: square"/>
   </g>
   <g id="patch_4">
    <path d="M 739.321875 526.84 
L 739.321875 7.2 
" style="fill: none; stroke: #000000; stroke-width: 0.8; stroke-linejoin: miter; stroke-linecap: square"/>
   </g>
   <g id="patch_5">
    <path d="M 38.111875 526.84 
L 739.321875 526.84 
" style="fill: none; stroke: #000000; stroke-width: 0.8; stroke-linejoin: miter; stroke-linecap: square"/>
   </g>
   <g id="patch_6">
    <path d="M 38.111875 7.2 
L 739.321875 7.2 
" style="fill: none; stroke: #000000; stroke-width: 0.8; stroke-linejoin: miter; stroke-linecap: square"/>
   </g>
   <g id="legend_1">
    <g id="patch_7">
     <path d="M 781.382375 147.303125 
L 849.024563 147.303125 
Q 851.024563 147.303125 851.024563 145.303125 
L 851.024563 14.2 
Q 851.024563 12.2 849.024563 12.2 
L 781.382375 12.2 
Q 779.382375 12.2 779.382375 14.2 
L 779.382375 145.303125 
Q 779.382375 147.303125 781.382375 147.303125 
z
" style="fill: #ffffff; opacity: 0.8; stroke: #cccccc; stroke-linejoin: miter"/>
    </g>
    <g id="line2d_37">
     <path d="M 783.382375 20.298438 
L 793.382375 20.298438 
L 803.382375 20.298438 
" style="fill: none; stroke: #1f77b4; stroke-width: 2; stroke-linecap: square"/>
     <g>
      <use xlink:href="#m7387f0cdb3" x="793.382375" y="20.298438" style="fill: #1f77b4; stroke: #1f77b4"/>
     </g>
    </g>
    <g id="text_16">
     <!-- Node 0 -->
     <g transform="translate(811.382375 23.798438) scale(0.1 -0.1)">
      <defs>
       <path id="DejaVuSans-4e" d="M 628 4666 
L 1478 4666 
L 3547 763 
L 3547 4666 
L 4159 4666 
L 4159 0 
L 3309 0 
L 1241 3903 
L 1241 0 
L 628 0 
L 628 4666 
z
" transform="scale(0.015625)"/>
       <path id="DejaVuSans-64" d="M 2906 2969 
L 2906 4863 
L 3481 4863 
L 3481 0 
L 2906 0 
L 2906 525 
Q 2725 213 2448 61 
Q 2172 -91 1784 -91 
Q 1150 -91 751 415 
Q 353 922 353 1747 
Q 353 2572 751 3078 
Q 1150 3584 1784 3584 
Q 2172 3584 2448 3432 
Q 2725 3281 2906 2969 
z
M 947 1747 
Q 947 1113 1208 752 
Q 1469 391 1925 391 
Q 2381 391 2643 752 
Q 2906 1113 2906 1747 
Q 2906 2381 2643 2742 
Q 2381 3103 1925 3103 
Q 1469 3103 1208 2742 
Q 947 2381 947 1747 
z
" transform="scale(0.015625)"/>
      </defs>
      <use xlink:href="#DejaVuSans-4e"/>
      <use xlink:href="#DejaVuSans-6f" transform="translate(74.804688 0)"/>
      <use xlink:href="#DejaVuSans-64" transform="translate(135.986328 0)"/>
      <use xlink:href="#DejaVuSans-65" transform="translate(199.462891 0)"/>
      <use xlink:href="#DejaVuSans-20" transform="translate(260.986328 0)"/>
      <use xlink:href="#DejaVuSans-30" transform="translate(292.773438 0)"/>
     </g>
    </g>
    <g id="line2d_38">
     <path d="M 783.382375 34.976563 
L 793.382375 34.976563 
L 803.382375 34.976563 
" style="fill: none; stroke: #ff7f0e; stroke-width: 2; stroke-linecap: square"/>
     <g>
      <use xlink:href="#m46fb628368" x="793.382375" y="34.976563" style="fill: #ff7f0e; stroke: #ff7f0e"/>
     </g>
    </g>
    <g id="text_17">
     <!-- Node 1 -->
     <g transform="translate(811.382375 38.476563) scale(0.1 -0.1)">
      <use xlink:href="#DejaVuSans-4e"/>
      <use xlink:href="#DejaVuSans-6f" transform="translate(74.804688 0)"/>
      <use xlink:href="#DejaVuSans-64" transform="translate(135.986328 0)"/>
      <use xlink:href="#DejaVuSans-65" transform="translate(199.462891 0)"/>
      <use xlink:href="#DejaVuSans-20" transform="translate(260.986328 0)"/>
      <use xlink:href="#DejaVuSans-31" transform="translate(292.773438 0)"/>
     </g>
    </g>
    <g id="line2d_39">
     <path d="M 783.382375 49.654688 
L 793.382375 49.654688 
L 803.382375 49.654688 
" style="fill: none; stroke: #2ca02c; stroke-width: 2; stroke-linecap: square"/>
     <g>
      <use xlink:href="#mee238cad61" x="793.382375" y="49.654688" style="fill: #2ca02c; stroke: #2ca02c"/>
     </g>
    </g>
    <g id="text_18">
     <!-- Node 2 -->
     <g transform="translate(811.382375 53.154688) scale(0.1 -0.1)">
      <use xlink:href="#DejaVuSans-4e"/>
      <use xlink:href="#DejaVuSans-6f" transform="translate(74.804688 0)"/>
      <use xlink:href="#DejaVuSans-64" transform="translate(135.986328 0)"/>
      <use xlink:href="#DejaVuSans-65" transform="translate(199.462891 0)"/>
      <use xlink:href="#DejaVuSans-20" transform="translate(260.986328 0)"/>
      <use xlink:href="#DejaVuSans-32" transform="translate(292.773438 0)"/>
     </g>
    </g>
    <g id="line2d_40">
     <path d="M 783.382375 64.332813 
L 793.382375 64.332813 
L 803.382375 64.332813 
" style="fill: none; stroke: #d62728; stroke-width: 2; stroke-linecap: square"/>
     <g>
      <use xlink:href="#mcd25f888c2" x="793.382375" y="64.332813" style="fill: #d62728; stroke: #d62728"/>
     </g>
    </g>
    <g id="text_19">
     <!-- Node 3 -->
     <g transform="translate(811.382375 67.832813) scale(0.1 -0.1)">
      <use xlink:href="#DejaVuSans-4e"/>
      <use xlink:href="#DejaVuSans-6f" transform="translate(74.804688 0)"/>
      <use xlink:href="#DejaVuSans-64" transform="translate(135.986328 0)"/>
      <use xlink:href="#DejaVuSans-65" transform="translate(199.462891 0)"/>
      <use xlink:href="#DejaVuSans-20" transform="translate(260.986328 0)"/>
      <use xlink:href="#DejaVuSans-33" transform="translate(292.773438 0)"/>
     </g>
    </g>
    <g id="line2d_41">
     <path d="M 783.382375 79.010938 
L 793.382375 79.010938 
L 803.382375 79.010938 
" style="fill: none; stroke: #9467bd; stroke-width: 2; stroke-linecap: square"/>
     <g>
      <use xlink:href="#m79487d9928" x="793.382375" y="79.010938" style="fill: #9467bd; stroke: #9467bd"/>
     </g>
    </g>
    <g id="text_20">
     <!-- Node 4 -->
     <g transform="translate(811.382375 82.510938) scale(0.1 -0.1)">
      <use xlink:href="#DejaVuSans-4e"/>
      <use xlink:href="#DejaVuSans-6f" transform="translate(74.804688 0)"/>
      <use xlink:href="#DejaVuSans-64" transform="translate(135.986328 0)"/>
      <use xlink:href="#DejaVuSans-65" transform="translate(199.462891 0)"/>
      <use xlink:href="#DejaVuSans-20" transform="translate(260.986328 0)"/>
      <use xlink:href="#DejaVuSans-34" transform="translate(292.773438 0)"/>
     </g>
    </g>
    <g id="line2d_42">
     <path d="M 783.382375 93.689063 
L 793.382375 93.689063 
L 803.382375 93.689063 
" style="fill: none; stroke: #8c564b; stroke-width: 2; stroke-linecap: square"/>
     <g>
      <use xlink:href="#ma9756f9338" x="793.382375" y="93.689063" style="fill: #8c564b; stroke: #8c564b"/>
     </g>
    </g>
    <g id="text_21">
     <!-- Node 5 -->
     <g transform="translate(811.382375 97.189063) scale(0.1 -0.1)">
      <use xlink:href="#DejaVuSans-4e"/>
      <use xlink:href="#DejaVuSans-6f" transform="translate(74.804688 0)"/>
      <use xlink:href="#DejaVuSans-64" transform="translate(135.986328 0)"/>
      <use xlink:href="#DejaVuSans-65" transform="translate(199.462891 0)"/>
      <use xlink:href="#DejaVuSans-20" transform="translate(260.986328 0)"/>
      <use xlink:href="#DejaVuSans-35" transform="translate(292.773438 0)"/>
     </g>
    </g>
    <g id="line2d_43">
     <path d="M 783.382375 108.367188 
L 793.382375 108.367188 
L 803.382375 108.367188 
" style="fill: none; stroke: #e377c2; stroke-width: 2; stroke-linecap: square"/>
     <g>
      <use xlink:href="#me9bc6d243e" x="793.382375" y="108.367188" style="fill: #e377c2; stroke: #e377c2"/>
     </g>
    </g>
    <g id="text_22">
     <!-- Node 6 -->
     <g transform="translate(811.382375 111.867188) scale(0.1 -0.1)">
      <use xlink:href="#DejaVuSans-4e"/>
      <use xlink:href="#DejaVuSans-6f" transform="translate(74.804688 0)"/>
      <use xlink:href="#DejaVuSans-64" transform="translate(135.986328 0)"/>
      <use xlink:href="#DejaVuSans-65" transform="translate(199.462891 0)"/>
      <use xlink:href="#DejaVuSans-20" transform="translate(260.986328 0)"/>
      <use xlink:href="#DejaVuSans-36" transform="translate(292.773438 0)"/>
     </g>
    </g>
    <g id="line2d_44">
     <path d="M 783.382375 123.045313 
L 793.382375 123.045313 
L 803.382375 123.045313 
" style="fill: none; stroke: #17becf; stroke-width: 2; stroke-linecap: square"/>
     <g>
      <use xlink:href="#m76cfc43cb9" x="793.382375" y="123.045313" style="fill: #17becf; stroke: #17becf"/>
     </g>
    </g>
    <g id="text_23">
     <!-- Node 7 -->
     <g transform="translate(811.382375 126.545313) scale(0.1 -0.1)">
      <defs>
       <path id="DejaVuSans-37" d="M 525 4666 
L 3525 4666 
L 3525 4397 
L 1831 0 
L 1172 0 
L 2766 4134 
L 525 4134 
L 525 4666 
z
" transform="scale(0.015625)"/>
      </defs>
      <use xlink:href="#DejaVuSans-4e"/>
      <use xlink:href="#DejaVuSans-6f" transform="translate(74.804688 0)"/>
      <use xlink:href="#DejaVuSans-64" transform="translate(135.986328 0)"/>
      <use xlink:href="#DejaVuSans-65" transform="translate(199.462891 0)"/>
      <use xlink:href="#DejaVuSans-20" transform="translate(260.986328 0)"/>
      <use xlink:href="#DejaVuSans-37" transform="translate(292.773438 0)"/>
     </g>
    </g>
    <g id="line2d_45">
     <path d="M 783.382375 137.723438 
L 793.382375 137.723438 
L 803.382375 137.723438 
" style="fill: none; stroke: #bcbd22; stroke-width: 2; stroke-linecap: square"/>
     <g>
      <use xlink:href="#m89c830b90d" x="793.382375" y="137.723438" style="fill: #bcbd22; stroke: #bcbd22"/>
     </g>
    </g>
    <g id="text_24">
     <!-- Node 8 -->
     <g transform="translate(811.382375 141.223438) scale(0.1 -0.1)">
      <use xlink:href="#DejaVuSans-4e"/>
      <use xlink:href="#DejaVuSans-6f" transform="translate(74.804688 0)"/>
      <use xlink:href="#DejaVuSans-64" transform="translate(135.986328 0)"/>
      <use xlink:href="#DejaVuSans-65" transform="translate(199.462891 0)"/>
      <use xlink:href="#DejaVuSans-20" transform="translate(260.986328 0)"/>
      <use xlink:href="#DejaVuSans-38" transform="translate(292.773438 0)"/>
     </g>
    </g>
   </g>
  </g>
 </g>
 <defs>
  <clipPath id="pce4123b631">
   <rect x="38.111875" y="7.2" width="701.21" height="519.64"/>
  </clipPath>
 </defs>
</svg>
