<?xml version="1.0" encoding="utf-8" standalone="no"?>
<!DOCTYPE svg PUBLIC "-//W3C//DTD SVG 1.1//EN"
  "http://www.w3.org/Graphics/SVG/1.1/DTD/svg11.dtd">
<svg xmlns:xlink="http://www.w3.org/1999/xlink" width="1080pt" height="576pt" viewBox="0 0 1080 576" xmlns="http://www.w3.org/2000/svg" version="1.1">
 <metadata>
  <rdf:RDF xmlns:dc="http://purl.org/dc/elements/1.1/" xmlns:cc="http://creativecommons.org/ns#" xmlns:rdf="http://www.w3.org/1999/02/22-rdf-syntax-ns#">
   <cc:Work>
    <dc:type rdf:resource="http://purl.org/dc/dcmitype/StillImage"/>
    <dc:date>2025-07-30T11:10:23.199743</dc:date>
    <dc:format>image/svg+xml</dc:format>
    <dc:creator>
     <cc:Agent>
      <dc:title>Matplotlib v3.10.3, https://matplotlib.org/</dc:title>
     </cc:Agent>
    </dc:creator>
   </cc:Work>
  </rdf:RDF>
 </metadata>
 <defs>
  <style type="text/css">*{stroke-linejoin: round; stroke-linecap: butt}</style>
 </defs>
 <g id="figure_1">
  <g id="patch_1">
   <path d="M 0 576 
L 1080 576 
L 1080 0 
L 0 0 
z
" style="fill: #ffffff"/>
  </g>
  <g id="axes_1">
   <g id="patch_2">
    <path d="M 77.16 525.3 
L 1020.66 525.3 
L 1020.66 50.96 
L 77.16 50.96 
z
" style="fill: #ffffff"/>
   </g>
   <g id="matplotlib.axis_1">
    <g id="xtick_1">
     <g id="line2d_1">
      <path d="M 120.037786 525.3 
L 120.037786 50.96 
" clip-path="url(#p9b2c864d63)" style="fill: none; stroke-dasharray: 1.85,0.8; stroke-dashoffset: 0; stroke: #cccccc; stroke-width: 0.5"/>
     </g>
     <g id="line2d_2"/>
     <g id="text_1">
      <!-- 0 -->
      <g style="fill: #262626" transform="translate(115.584036 539.437813) scale(0.14 -0.14)">
       <defs>
        <path id="DejaVuSans-30" d="M 2034 4250 
Q 1547 4250 1301 3770 
Q 1056 3291 1056 2328 
Q 1056 1369 1301 889 
Q 1547 409 2034 409 
Q 2525 409 2770 889 
Q 3016 1369 3016 2328 
Q 3016 3291 2770 3770 
Q 2525 4250 2034 4250 
z
M 2034 4750 
Q 2819 4750 3233 4129 
Q 3647 3509 3647 2328 
Q 3647 1150 3233 529 
Q 2819 -91 2034 -91 
Q 1250 -91 836 529 
Q 422 1150 422 2328 
Q 422 3509 836 4129 
Q 1250 4750 2034 4750 
z
" transform="scale(0.015625)"/>
       </defs>
       <use xlink:href="#DejaVuSans-30"/>
      </g>
     </g>
    </g>
    <g id="xtick_2">
     <g id="line2d_3">
      <path d="M 291.584956 525.3 
L 291.584956 50.96 
" clip-path="url(#p9b2c864d63)" style="fill: none; stroke-dasharray: 1.85,0.8; stroke-dashoffset: 0; stroke: #cccccc; stroke-width: 0.5"/>
     </g>
     <g id="line2d_4"/>
     <g id="text_2">
      <!-- 20000 -->
      <g style="fill: #262626" transform="translate(269.316206 539.437813) scale(0.14 -0.14)">
       <defs>
        <path id="DejaVuSans-32" d="M 1228 531 
L 3431 531 
L 3431 0 
L 469 0 
L 469 531 
Q 828 903 1448 1529 
Q 2069 2156 2228 2338 
Q 2531 2678 2651 2914 
Q 2772 3150 2772 3378 
Q 2772 3750 2511 3984 
Q 2250 4219 1831 4219 
Q 1534 4219 1204 4116 
Q 875 4013 500 3803 
L 500 4441 
Q 881 4594 1212 4672 
Q 1544 4750 1819 4750 
Q 2544 4750 2975 4387 
Q 3406 4025 3406 3419 
Q 3406 3131 3298 2873 
Q 3191 2616 2906 2266 
Q 2828 2175 2409 1742 
Q 1991 1309 1228 531 
z
" transform="scale(0.015625)"/>
       </defs>
       <use xlink:href="#DejaVuSans-32"/>
       <use xlink:href="#DejaVuSans-30" transform="translate(63.623047 0)"/>
       <use xlink:href="#DejaVuSans-30" transform="translate(127.246094 0)"/>
       <use xlink:href="#DejaVuSans-30" transform="translate(190.869141 0)"/>
       <use xlink:href="#DejaVuSans-30" transform="translate(254.492188 0)"/>
      </g>
     </g>
    </g>
    <g id="xtick_3">
     <g id="line2d_5">
      <path d="M 463.132126 525.3 
L 463.132126 50.96 
" clip-path="url(#p9b2c864d63)" style="fill: none; stroke-dasharray: 1.85,0.8; stroke-dashoffset: 0; stroke: #cccccc; stroke-width: 0.5"/>
     </g>
     <g id="line2d_6"/>
     <g id="text_3">
      <!-- 40000 -->
      <g style="fill: #262626" transform="translate(440.863376 539.437813) scale(0.14 -0.14)">
       <defs>
        <path id="DejaVuSans-34" d="M 2419 4116 
L 825 1625 
L 2419 1625 
L 2419 4116 
z
M 2253 4666 
L 3047 4666 
L 3047 1625 
L 3713 1625 
L 3713 1100 
L 3047 1100 
L 3047 0 
L 2419 0 
L 2419 1100 
L 313 1100 
L 313 1709 
L 2253 4666 
z
" transform="scale(0.015625)"/>
       </defs>
       <use xlink:href="#DejaVuSans-34"/>
       <use xlink:href="#DejaVuSans-30" transform="translate(63.623047 0)"/>
       <use xlink:href="#DejaVuSans-30" transform="translate(127.246094 0)"/>
       <use xlink:href="#DejaVuSans-30" transform="translate(190.869141 0)"/>
       <use xlink:href="#DejaVuSans-30" transform="translate(254.492188 0)"/>
      </g>
     </g>
    </g>
    <g id="xtick_4">
     <g id="line2d_7">
      <path d="M 634.679296 525.3 
L 634.679296 50.96 
" clip-path="url(#p9b2c864d63)" style="fill: none; stroke-dasharray: 1.85,0.8; stroke-dashoffset: 0; stroke: #cccccc; stroke-width: 0.5"/>
     </g>
     <g id="line2d_8"/>
     <g id="text_4">
      <!-- 60000 -->
      <g style="fill: #262626" transform="translate(612.410546 539.437813) scale(0.14 -0.14)">
       <defs>
        <path id="DejaVuSans-36" d="M 2113 2584 
Q 1688 2584 1439 2293 
Q 1191 2003 1191 1497 
Q 1191 994 1439 701 
Q 1688 409 2113 409 
Q 2538 409 2786 701 
Q 3034 994 3034 1497 
Q 3034 2003 2786 2293 
Q 2538 2584 2113 2584 
z
M 3366 4563 
L 3366 3988 
Q 3128 4100 2886 4159 
Q 2644 4219 2406 4219 
Q 1781 4219 1451 3797 
Q 1122 3375 1075 2522 
Q 1259 2794 1537 2939 
Q 1816 3084 2150 3084 
Q 2853 3084 3261 2657 
Q 3669 2231 3669 1497 
Q 3669 778 3244 343 
Q 2819 -91 2113 -91 
Q 1303 -91 875 529 
Q 447 1150 447 2328 
Q 447 3434 972 4092 
Q 1497 4750 2381 4750 
Q 2619 4750 2861 4703 
Q 3103 4656 3366 4563 
z
" transform="scale(0.015625)"/>
       </defs>
       <use xlink:href="#DejaVuSans-36"/>
       <use xlink:href="#DejaVuSans-30" transform="translate(63.623047 0)"/>
       <use xlink:href="#DejaVuSans-30" transform="translate(127.246094 0)"/>
       <use xlink:href="#DejaVuSans-30" transform="translate(190.869141 0)"/>
       <use xlink:href="#DejaVuSans-30" transform="translate(254.492188 0)"/>
      </g>
     </g>
    </g>
    <g id="xtick_5">
     <g id="line2d_9">
      <path d="M 806.226466 525.3 
L 806.226466 50.96 
" clip-path="url(#p9b2c864d63)" style="fill: none; stroke-dasharray: 1.85,0.8; stroke-dashoffset: 0; stroke: #cccccc; stroke-width: 0.5"/>
     </g>
     <g id="line2d_10"/>
     <g id="text_5">
      <!-- 80000 -->
      <g style="fill: #262626" transform="translate(783.957716 539.437813) scale(0.14 -0.14)">
       <defs>
        <path id="DejaVuSans-38" d="M 2034 2216 
Q 1584 2216 1326 1975 
Q 1069 1734 1069 1313 
Q 1069 891 1326 650 
Q 1584 409 2034 409 
Q 2484 409 2743 651 
Q 3003 894 3003 1313 
Q 3003 1734 2745 1975 
Q 2488 2216 2034 2216 
z
M 1403 2484 
Q 997 2584 770 2862 
Q 544 3141 544 3541 
Q 544 4100 942 4425 
Q 1341 4750 2034 4750 
Q 2731 4750 3128 4425 
Q 3525 4100 3525 3541 
Q 3525 3141 3298 2862 
Q 3072 2584 2669 2484 
Q 3125 2378 3379 2068 
Q 3634 1759 3634 1313 
Q 3634 634 3220 271 
Q 2806 -91 2034 -91 
Q 1263 -91 848 271 
Q 434 634 434 1313 
Q 434 1759 690 2068 
Q 947 2378 1403 2484 
z
M 1172 3481 
Q 1172 3119 1398 2916 
Q 1625 2713 2034 2713 
Q 2441 2713 2670 2916 
Q 2900 3119 2900 3481 
Q 2900 3844 2670 4047 
Q 2441 4250 2034 4250 
Q 1625 4250 1398 4047 
Q 1172 3844 1172 3481 
z
" transform="scale(0.015625)"/>
       </defs>
       <use xlink:href="#DejaVuSans-38"/>
       <use xlink:href="#DejaVuSans-30" transform="translate(63.623047 0)"/>
       <use xlink:href="#DejaVuSans-30" transform="translate(127.246094 0)"/>
       <use xlink:href="#DejaVuSans-30" transform="translate(190.869141 0)"/>
       <use xlink:href="#DejaVuSans-30" transform="translate(254.492188 0)"/>
      </g>
     </g>
    </g>
    <g id="xtick_6">
     <g id="line2d_11">
      <path d="M 977.773636 525.3 
L 977.773636 50.96 
" clip-path="url(#p9b2c864d63)" style="fill: none; stroke-dasharray: 1.85,0.8; stroke-dashoffset: 0; stroke: #cccccc; stroke-width: 0.5"/>
     </g>
     <g id="line2d_12"/>
     <g id="text_6">
      <!-- 100000 -->
      <g style="fill: #262626" transform="translate(951.051136 539.437813) scale(0.14 -0.14)">
       <defs>
        <path id="DejaVuSans-31" d="M 794 531 
L 1825 531 
L 1825 4091 
L 703 3866 
L 703 4441 
L 1819 4666 
L 2450 4666 
L 2450 531 
L 3481 531 
L 3481 0 
L 794 0 
L 794 531 
z
" transform="scale(0.015625)"/>
       </defs>
       <use xlink:href="#DejaVuSans-31"/>
       <use xlink:href="#DejaVuSans-30" transform="translate(63.623047 0)"/>
       <use xlink:href="#DejaVuSans-30" transform="translate(127.246094 0)"/>
       <use xlink:href="#DejaVuSans-30" transform="translate(190.869141 0)"/>
       <use xlink:href="#DejaVuSans-30" transform="translate(254.492188 0)"/>
       <use xlink:href="#DejaVuSans-30" transform="translate(318.115234 0)"/>
      </g>
     </g>
    </g>
    <g id="text_7">
     <!-- Block Number -->
     <g style="fill: #262626" transform="translate(492.5925 558.506875) scale(0.16 -0.16)">
      <defs>
       <path id="DejaVuSans-42" d="M 1259 2228 
L 1259 519 
L 2272 519 
Q 2781 519 3026 730 
Q 3272 941 3272 1375 
Q 3272 1813 3026 2020 
Q 2781 2228 2272 2228 
L 1259 2228 
z
M 1259 4147 
L 1259 2741 
L 2194 2741 
Q 2656 2741 2882 2914 
Q 3109 3088 3109 3444 
Q 3109 3797 2882 3972 
Q 2656 4147 2194 4147 
L 1259 4147 
z
M 628 4666 
L 2241 4666 
Q 2963 4666 3353 4366 
Q 3744 4066 3744 3513 
Q 3744 3084 3544 2831 
Q 3344 2578 2956 2516 
Q 3422 2416 3680 2098 
Q 3938 1781 3938 1306 
Q 3938 681 3513 340 
Q 3088 0 2303 0 
L 628 0 
L 628 4666 
z
" transform="scale(0.015625)"/>
       <path id="DejaVuSans-6c" d="M 603 4863 
L 1178 4863 
L 1178 0 
L 603 0 
L 603 4863 
z
" transform="scale(0.015625)"/>
       <path id="DejaVuSans-6f" d="M 1959 3097 
Q 1497 3097 1228 2736 
Q 959 2375 959 1747 
Q 959 1119 1226 758 
Q 1494 397 1959 397 
Q 2419 397 2687 759 
Q 2956 1122 2956 1747 
Q 2956 2369 2687 2733 
Q 2419 3097 1959 3097 
z
M 1959 3584 
Q 2709 3584 3137 3096 
Q 3566 2609 3566 1747 
Q 3566 888 3137 398 
Q 2709 -91 1959 -91 
Q 1206 -91 779 398 
Q 353 888 353 1747 
Q 353 2609 779 3096 
Q 1206 3584 1959 3584 
z
" transform="scale(0.015625)"/>
       <path id="DejaVuSans-63" d="M 3122 3366 
L 3122 2828 
Q 2878 2963 2633 3030 
Q 2388 3097 2138 3097 
Q 1578 3097 1268 2742 
Q 959 2388 959 1747 
Q 959 1106 1268 751 
Q 1578 397 2138 397 
Q 2388 397 2633 464 
Q 2878 531 3122 666 
L 3122 134 
Q 2881 22 2623 -34 
Q 2366 -91 2075 -91 
Q 1284 -91 818 406 
Q 353 903 353 1747 
Q 353 2603 823 3093 
Q 1294 3584 2113 3584 
Q 2378 3584 2631 3529 
Q 2884 3475 3122 3366 
z
" transform="scale(0.015625)"/>
       <path id="DejaVuSans-6b" d="M 581 4863 
L 1159 4863 
L 1159 1991 
L 2875 3500 
L 3609 3500 
L 1753 1863 
L 3688 0 
L 2938 0 
L 1159 1709 
L 1159 0 
L 581 0 
L 581 4863 
z
" transform="scale(0.015625)"/>
       <path id="DejaVuSans-20" transform="scale(0.015625)"/>
       <path id="DejaVuSans-4e" d="M 628 4666 
L 1478 4666 
L 3547 763 
L 3547 4666 
L 4159 4666 
L 4159 0 
L 3309 0 
L 1241 3903 
L 1241 0 
L 628 0 
L 628 4666 
z
" transform="scale(0.015625)"/>
       <path id="DejaVuSans-75" d="M 544 1381 
L 544 3500 
L 1119 3500 
L 1119 1403 
Q 1119 906 1312 657 
Q 1506 409 1894 409 
Q 2359 409 2629 706 
Q 2900 1003 2900 1516 
L 2900 3500 
L 3475 3500 
L 3475 0 
L 2900 0 
L 2900 538 
Q 2691 219 2414 64 
Q 2138 -91 1772 -91 
Q 1169 -91 856 284 
Q 544 659 544 1381 
z
M 1991 3584 
L 1991 3584 
z
" transform="scale(0.015625)"/>
       <path id="DejaVuSans-6d" d="M 3328 2828 
Q 3544 3216 3844 3400 
Q 4144 3584 4550 3584 
Q 5097 3584 5394 3201 
Q 5691 2819 5691 2113 
L 5691 0 
L 5113 0 
L 5113 2094 
Q 5113 2597 4934 2840 
Q 4756 3084 4391 3084 
Q 3944 3084 3684 2787 
Q 3425 2491 3425 1978 
L 3425 0 
L 2847 0 
L 2847 2094 
Q 2847 2600 2669 2842 
Q 2491 3084 2119 3084 
Q 1678 3084 1418 2786 
Q 1159 2488 1159 1978 
L 1159 0 
L 581 0 
L 581 3500 
L 1159 3500 
L 1159 2956 
Q 1356 3278 1631 3431 
Q 1906 3584 2284 3584 
Q 2666 3584 2933 3390 
Q 3200 3197 3328 2828 
z
" transform="scale(0.015625)"/>
       <path id="DejaVuSans-62" d="M 3116 1747 
Q 3116 2381 2855 2742 
Q 2594 3103 2138 3103 
Q 1681 3103 1420 2742 
Q 1159 2381 1159 1747 
Q 1159 1113 1420 752 
Q 1681 391 2138 391 
Q 2594 391 2855 752 
Q 3116 1113 3116 1747 
z
M 1159 2969 
Q 1341 3281 1617 3432 
Q 1894 3584 2278 3584 
Q 2916 3584 3314 3078 
Q 3713 2572 3713 1747 
Q 3713 922 3314 415 
Q 2916 -91 2278 -91 
Q 1894 -91 1617 61 
Q 1341 213 1159 525 
L 1159 0 
L 581 0 
L 581 4863 
L 1159 4863 
L 1159 2969 
z
" transform="scale(0.015625)"/>
       <path id="DejaVuSans-65" d="M 3597 1894 
L 3597 1613 
L 953 1613 
Q 991 1019 1311 708 
Q 1631 397 2203 397 
Q 2534 397 2845 478 
Q 3156 559 3463 722 
L 3463 178 
Q 3153 47 2828 -22 
Q 2503 -91 2169 -91 
Q 1331 -91 842 396 
Q 353 884 353 1716 
Q 353 2575 817 3079 
Q 1281 3584 2069 3584 
Q 2775 3584 3186 3129 
Q 3597 2675 3597 1894 
z
M 3022 2063 
Q 3016 2534 2758 2815 
Q 2500 3097 2075 3097 
Q 1594 3097 1305 2825 
Q 1016 2553 972 2059 
L 3022 2063 
z
" transform="scale(0.015625)"/>
       <path id="DejaVuSans-72" d="M 2631 2963 
Q 2534 3019 2420 3045 
Q 2306 3072 2169 3072 
Q 1681 3072 1420 2755 
Q 1159 2438 1159 1844 
L 1159 0 
L 581 0 
L 581 3500 
L 1159 3500 
L 1159 2956 
Q 1341 3275 1631 3429 
Q 1922 3584 2338 3584 
Q 2397 3584 2469 3576 
Q 2541 3569 2628 3553 
L 2631 2963 
z
" transform="scale(0.015625)"/>
      </defs>
      <use xlink:href="#DejaVuSans-42"/>
      <use xlink:href="#DejaVuSans-6c" transform="translate(68.603516 0)"/>
      <use xlink:href="#DejaVuSans-6f" transform="translate(96.386719 0)"/>
      <use xlink:href="#DejaVuSans-63" transform="translate(157.568359 0)"/>
      <use xlink:href="#DejaVuSans-6b" transform="translate(212.548828 0)"/>
      <use xlink:href="#DejaVuSans-20" transform="translate(270.458984 0)"/>
      <use xlink:href="#DejaVuSans-4e" transform="translate(302.246094 0)"/>
      <use xlink:href="#DejaVuSans-75" transform="translate(377.050781 0)"/>
      <use xlink:href="#DejaVuSans-6d" transform="translate(440.429688 0)"/>
      <use xlink:href="#DejaVuSans-62" transform="translate(537.841797 0)"/>
      <use xlink:href="#DejaVuSans-65" transform="translate(601.318359 0)"/>
      <use xlink:href="#DejaVuSans-72" transform="translate(662.841797 0)"/>
     </g>
    </g>
   </g>
   <g id="matplotlib.axis_2">
    <g id="ytick_1">
     <g id="line2d_13">
      <path d="M 77.16 482.112647 
L 1020.66 482.112647 
" clip-path="url(#p9b2c864d63)" style="fill: none; stroke-dasharray: 1.85,0.8; stroke-dashoffset: 0; stroke: #cccccc; stroke-width: 0.5"/>
     </g>
     <g id="line2d_14"/>
     <g id="text_8">
      <!-- 0.975 -->
      <g style="fill: #000080" transform="translate(33.580625 487.431553) scale(0.14 -0.14)">
       <defs>
        <path id="DejaVuSans-2e" d="M 684 794 
L 1344 794 
L 1344 0 
L 684 0 
L 684 794 
z
" transform="scale(0.015625)"/>
        <path id="DejaVuSans-39" d="M 703 97 
L 703 672 
Q 941 559 1184 500 
Q 1428 441 1663 441 
Q 2288 441 2617 861 
Q 2947 1281 2994 2138 
Q 2813 1869 2534 1725 
Q 2256 1581 1919 1581 
Q 1219 1581 811 2004 
Q 403 2428 403 3163 
Q 403 3881 828 4315 
Q 1253 4750 1959 4750 
Q 2769 4750 3195 4129 
Q 3622 3509 3622 2328 
Q 3622 1225 3098 567 
Q 2575 -91 1691 -91 
Q 1453 -91 1209 -44 
Q 966 3 703 97 
z
M 1959 2075 
Q 2384 2075 2632 2365 
Q 2881 2656 2881 3163 
Q 2881 3666 2632 3958 
Q 2384 4250 1959 4250 
Q 1534 4250 1286 3958 
Q 1038 3666 1038 3163 
Q 1038 2656 1286 2365 
Q 1534 2075 1959 2075 
z
" transform="scale(0.015625)"/>
        <path id="DejaVuSans-37" d="M 525 4666 
L 3525 4666 
L 3525 4397 
L 1831 0 
L 1172 0 
L 2766 4134 
L 525 4134 
L 525 4666 
z
" transform="scale(0.015625)"/>
        <path id="DejaVuSans-35" d="M 691 4666 
L 3169 4666 
L 3169 4134 
L 1269 4134 
L 1269 2991 
Q 1406 3038 1543 3061 
Q 1681 3084 1819 3084 
Q 2600 3084 3056 2656 
Q 3513 2228 3513 1497 
Q 3513 744 3044 326 
Q 2575 -91 1722 -91 
Q 1428 -91 1123 -41 
Q 819 9 494 109 
L 494 744 
Q 775 591 1075 516 
Q 1375 441 1709 441 
Q 2250 441 2565 725 
Q 2881 1009 2881 1497 
Q 2881 1984 2565 2268 
Q 2250 2553 1709 2553 
Q 1456 2553 1204 2497 
Q 953 2441 691 2322 
L 691 4666 
z
" transform="scale(0.015625)"/>
       </defs>
       <use xlink:href="#DejaVuSans-30"/>
       <use xlink:href="#DejaVuSans-2e" transform="translate(63.623047 0)"/>
       <use xlink:href="#DejaVuSans-39" transform="translate(95.410156 0)"/>
       <use xlink:href="#DejaVuSans-37" transform="translate(159.033203 0)"/>
       <use xlink:href="#DejaVuSans-35" transform="translate(222.65625 0)"/>
      </g>
     </g>
    </g>
    <g id="ytick_2">
     <g id="line2d_15">
      <path d="M 77.16 400.1943 
L 1020.66 400.1943 
" clip-path="url(#p9b2c864d63)" style="fill: none; stroke-dasharray: 1.85,0.8; stroke-dashoffset: 0; stroke: #cccccc; stroke-width: 0.5"/>
     </g>
     <g id="line2d_16"/>
     <g id="text_9">
      <!-- 0.980 -->
      <g style="fill: #000080" transform="translate(33.580625 405.513206) scale(0.14 -0.14)">
       <use xlink:href="#DejaVuSans-30"/>
       <use xlink:href="#DejaVuSans-2e" transform="translate(63.623047 0)"/>
       <use xlink:href="#DejaVuSans-39" transform="translate(95.410156 0)"/>
       <use xlink:href="#DejaVuSans-38" transform="translate(159.033203 0)"/>
       <use xlink:href="#DejaVuSans-30" transform="translate(222.65625 0)"/>
      </g>
     </g>
    </g>
    <g id="ytick_3">
     <g id="line2d_17">
      <path d="M 77.16 318.275952 
L 1020.66 318.275952 
" clip-path="url(#p9b2c864d63)" style="fill: none; stroke-dasharray: 1.85,0.8; stroke-dashoffset: 0; stroke: #cccccc; stroke-width: 0.5"/>
     </g>
     <g id="line2d_18"/>
     <g id="text_10">
      <!-- 0.985 -->
      <g style="fill: #000080" transform="translate(33.580625 323.594858) scale(0.14 -0.14)">
       <use xlink:href="#DejaVuSans-30"/>
       <use xlink:href="#DejaVuSans-2e" transform="translate(63.623047 0)"/>
       <use xlink:href="#DejaVuSans-39" transform="translate(95.410156 0)"/>
       <use xlink:href="#DejaVuSans-38" transform="translate(159.033203 0)"/>
       <use xlink:href="#DejaVuSans-35" transform="translate(222.65625 0)"/>
      </g>
     </g>
    </g>
    <g id="ytick_4">
     <g id="line2d_19">
      <path d="M 77.16 236.357604 
L 1020.66 236.357604 
" clip-path="url(#p9b2c864d63)" style="fill: none; stroke-dasharray: 1.85,0.8; stroke-dashoffset: 0; stroke: #cccccc; stroke-width: 0.5"/>
     </g>
     <g id="line2d_20"/>
     <g id="text_11">
      <!-- 0.990 -->
      <g style="fill: #000080" transform="translate(33.580625 241.676511) scale(0.14 -0.14)">
       <use xlink:href="#DejaVuSans-30"/>
       <use xlink:href="#DejaVuSans-2e" transform="translate(63.623047 0)"/>
       <use xlink:href="#DejaVuSans-39" transform="translate(95.410156 0)"/>
       <use xlink:href="#DejaVuSans-39" transform="translate(159.033203 0)"/>
       <use xlink:href="#DejaVuSans-30" transform="translate(222.65625 0)"/>
      </g>
     </g>
    </g>
    <g id="ytick_5">
     <g id="line2d_21">
      <path d="M 77.16 154.439257 
L 1020.66 154.439257 
" clip-path="url(#p9b2c864d63)" style="fill: none; stroke-dasharray: 1.85,0.8; stroke-dashoffset: 0; stroke: #cccccc; stroke-width: 0.5"/>
     </g>
     <g id="line2d_22"/>
     <g id="text_12">
      <!-- 0.995 -->
      <g style="fill: #000080" transform="translate(33.580625 159.758163) scale(0.14 -0.14)">
       <use xlink:href="#DejaVuSans-30"/>
       <use xlink:href="#DejaVuSans-2e" transform="translate(63.623047 0)"/>
       <use xlink:href="#DejaVuSans-39" transform="translate(95.410156 0)"/>
       <use xlink:href="#DejaVuSans-39" transform="translate(159.033203 0)"/>
       <use xlink:href="#DejaVuSans-35" transform="translate(222.65625 0)"/>
      </g>
     </g>
    </g>
    <g id="ytick_6">
     <g id="line2d_23">
      <path d="M 77.16 72.520909 
L 1020.66 72.520909 
" clip-path="url(#p9b2c864d63)" style="fill: none; stroke-dasharray: 1.85,0.8; stroke-dashoffset: 0; stroke: #cccccc; stroke-width: 0.5"/>
     </g>
     <g id="line2d_24"/>
     <g id="text_13">
      <!-- 1.000 -->
      <g style="fill: #000080" transform="translate(33.580625 77.839815) scale(0.14 -0.14)">
       <use xlink:href="#DejaVuSans-31"/>
       <use xlink:href="#DejaVuSans-2e" transform="translate(63.623047 0)"/>
       <use xlink:href="#DejaVuSans-30" transform="translate(95.410156 0)"/>
       <use xlink:href="#DejaVuSans-30" transform="translate(159.033203 0)"/>
       <use xlink:href="#DejaVuSans-30" transform="translate(222.65625 0)"/>
      </g>
     </g>
    </g>
    <g id="text_14">
     <!-- Highest-Hashrate Node's Mining Share -->
     <g style="fill: #000080" transform="translate(26.253125 442.56) rotate(-90) scale(0.16 -0.16)">
      <defs>
       <path id="DejaVuSans-48" d="M 628 4666 
L 1259 4666 
L 1259 2753 
L 3553 2753 
L 3553 4666 
L 4184 4666 
L 4184 0 
L 3553 0 
L 3553 2222 
L 1259 2222 
L 1259 0 
L 628 0 
L 628 4666 
z
" transform="scale(0.015625)"/>
       <path id="DejaVuSans-69" d="M 603 3500 
L 1178 3500 
L 1178 0 
L 603 0 
L 603 3500 
z
M 603 4863 
L 1178 4863 
L 1178 4134 
L 603 4134 
L 603 4863 
z
" transform="scale(0.015625)"/>
       <path id="DejaVuSans-67" d="M 2906 1791 
Q 2906 2416 2648 2759 
Q 2391 3103 1925 3103 
Q 1463 3103 1205 2759 
Q 947 2416 947 1791 
Q 947 1169 1205 825 
Q 1463 481 1925 481 
Q 2391 481 2648 825 
Q 2906 1169 2906 1791 
z
M 3481 434 
Q 3481 -459 3084 -895 
Q 2688 -1331 1869 -1331 
Q 1566 -1331 1297 -1286 
Q 1028 -1241 775 -1147 
L 775 -588 
Q 1028 -725 1275 -790 
Q 1522 -856 1778 -856 
Q 2344 -856 2625 -561 
Q 2906 -266 2906 331 
L 2906 616 
Q 2728 306 2450 153 
Q 2172 0 1784 0 
Q 1141 0 747 490 
Q 353 981 353 1791 
Q 353 2603 747 3093 
Q 1141 3584 1784 3584 
Q 2172 3584 2450 3431 
Q 2728 3278 2906 2969 
L 2906 3500 
L 3481 3500 
L 3481 434 
z
" transform="scale(0.015625)"/>
       <path id="DejaVuSans-68" d="M 3513 2113 
L 3513 0 
L 2938 0 
L 2938 2094 
Q 2938 2591 2744 2837 
Q 2550 3084 2163 3084 
Q 1697 3084 1428 2787 
Q 1159 2491 1159 1978 
L 1159 0 
L 581 0 
L 581 4863 
L 1159 4863 
L 1159 2956 
Q 1366 3272 1645 3428 
Q 1925 3584 2291 3584 
Q 2894 3584 3203 3211 
Q 3513 2838 3513 2113 
z
" transform="scale(0.015625)"/>
       <path id="DejaVuSans-73" d="M 2834 3397 
L 2834 2853 
Q 2591 2978 2328 3040 
Q 2066 3103 1784 3103 
Q 1356 3103 1142 2972 
Q 928 2841 928 2578 
Q 928 2378 1081 2264 
Q 1234 2150 1697 2047 
L 1894 2003 
Q 2506 1872 2764 1633 
Q 3022 1394 3022 966 
Q 3022 478 2636 193 
Q 2250 -91 1575 -91 
Q 1294 -91 989 -36 
Q 684 19 347 128 
L 347 722 
Q 666 556 975 473 
Q 1284 391 1588 391 
Q 1994 391 2212 530 
Q 2431 669 2431 922 
Q 2431 1156 2273 1281 
Q 2116 1406 1581 1522 
L 1381 1569 
Q 847 1681 609 1914 
Q 372 2147 372 2553 
Q 372 3047 722 3315 
Q 1072 3584 1716 3584 
Q 2034 3584 2315 3537 
Q 2597 3491 2834 3397 
z
" transform="scale(0.015625)"/>
       <path id="DejaVuSans-74" d="M 1172 4494 
L 1172 3500 
L 2356 3500 
L 2356 3053 
L 1172 3053 
L 1172 1153 
Q 1172 725 1289 603 
Q 1406 481 1766 481 
L 2356 481 
L 2356 0 
L 1766 0 
Q 1100 0 847 248 
Q 594 497 594 1153 
L 594 3053 
L 172 3053 
L 172 3500 
L 594 3500 
L 594 4494 
L 1172 4494 
z
" transform="scale(0.015625)"/>
       <path id="DejaVuSans-2d" d="M 313 2009 
L 1997 2009 
L 1997 1497 
L 313 1497 
L 313 2009 
z
" transform="scale(0.015625)"/>
       <path id="DejaVuSans-61" d="M 2194 1759 
Q 1497 1759 1228 1600 
Q 959 1441 959 1056 
Q 959 750 1161 570 
Q 1363 391 1709 391 
Q 2188 391 2477 730 
Q 2766 1069 2766 1631 
L 2766 1759 
L 2194 1759 
z
M 3341 1997 
L 3341 0 
L 2766 0 
L 2766 531 
Q 2569 213 2275 61 
Q 1981 -91 1556 -91 
Q 1019 -91 701 211 
Q 384 513 384 1019 
Q 384 1609 779 1909 
Q 1175 2209 1959 2209 
L 2766 2209 
L 2766 2266 
Q 2766 2663 2505 2880 
Q 2244 3097 1772 3097 
Q 1472 3097 1187 3025 
Q 903 2953 641 2809 
L 641 3341 
Q 956 3463 1253 3523 
Q 1550 3584 1831 3584 
Q 2591 3584 2966 3190 
Q 3341 2797 3341 1997 
z
" transform="scale(0.015625)"/>
       <path id="DejaVuSans-64" d="M 2906 2969 
L 2906 4863 
L 3481 4863 
L 3481 0 
L 2906 0 
L 2906 525 
Q 2725 213 2448 61 
Q 2172 -91 1784 -91 
Q 1150 -91 751 415 
Q 353 922 353 1747 
Q 353 2572 751 3078 
Q 1150 3584 1784 3584 
Q 2172 3584 2448 3432 
Q 2725 3281 2906 2969 
z
M 947 1747 
Q 947 1113 1208 752 
Q 1469 391 1925 391 
Q 2381 391 2643 752 
Q 2906 1113 2906 1747 
Q 2906 2381 2643 2742 
Q 2381 3103 1925 3103 
Q 1469 3103 1208 2742 
Q 947 2381 947 1747 
z
" transform="scale(0.015625)"/>
       <path id="DejaVuSans-27" d="M 1147 4666 
L 1147 2931 
L 616 2931 
L 616 4666 
L 1147 4666 
z
" transform="scale(0.015625)"/>
       <path id="DejaVuSans-4d" d="M 628 4666 
L 1569 4666 
L 2759 1491 
L 3956 4666 
L 4897 4666 
L 4897 0 
L 4281 0 
L 4281 4097 
L 3078 897 
L 2444 897 
L 1241 4097 
L 1241 0 
L 628 0 
L 628 4666 
z
" transform="scale(0.015625)"/>
       <path id="DejaVuSans-6e" d="M 3513 2113 
L 3513 0 
L 2938 0 
L 2938 2094 
Q 2938 2591 2744 2837 
Q 2550 3084 2163 3084 
Q 1697 3084 1428 2787 
Q 1159 2491 1159 1978 
L 1159 0 
L 581 0 
L 581 3500 
L 1159 3500 
L 1159 2956 
Q 1366 3272 1645 3428 
Q 1925 3584 2291 3584 
Q 2894 3584 3203 3211 
Q 3513 2838 3513 2113 
z
" transform="scale(0.015625)"/>
       <path id="DejaVuSans-53" d="M 3425 4513 
L 3425 3897 
Q 3066 4069 2747 4153 
Q 2428 4238 2131 4238 
Q 1616 4238 1336 4038 
Q 1056 3838 1056 3469 
Q 1056 3159 1242 3001 
Q 1428 2844 1947 2747 
L 2328 2669 
Q 3034 2534 3370 2195 
Q 3706 1856 3706 1288 
Q 3706 609 3251 259 
Q 2797 -91 1919 -91 
Q 1588 -91 1214 -16 
Q 841 59 441 206 
L 441 856 
Q 825 641 1194 531 
Q 1563 422 1919 422 
Q 2459 422 2753 634 
Q 3047 847 3047 1241 
Q 3047 1584 2836 1778 
Q 2625 1972 2144 2069 
L 1759 2144 
Q 1053 2284 737 2584 
Q 422 2884 422 3419 
Q 422 4038 858 4394 
Q 1294 4750 2059 4750 
Q 2388 4750 2728 4690 
Q 3069 4631 3425 4513 
z
" transform="scale(0.015625)"/>
      </defs>
      <use xlink:href="#DejaVuSans-48"/>
      <use xlink:href="#DejaVuSans-69" transform="translate(75.195312 0)"/>
      <use xlink:href="#DejaVuSans-67" transform="translate(102.978516 0)"/>
      <use xlink:href="#DejaVuSans-68" transform="translate(166.455078 0)"/>
      <use xlink:href="#DejaVuSans-65" transform="translate(229.833984 0)"/>
      <use xlink:href="#DejaVuSans-73" transform="translate(291.357422 0)"/>
      <use xlink:href="#DejaVuSans-74" transform="translate(343.457031 0)"/>
      <use xlink:href="#DejaVuSans-2d" transform="translate(382.666016 0)"/>
      <use xlink:href="#DejaVuSans-48" transform="translate(418.75 0)"/>
      <use xlink:href="#DejaVuSans-61" transform="translate(493.945312 0)"/>
      <use xlink:href="#DejaVuSans-73" transform="translate(555.224609 0)"/>
      <use xlink:href="#DejaVuSans-68" transform="translate(607.324219 0)"/>
      <use xlink:href="#DejaVuSans-72" transform="translate(670.703125 0)"/>
      <use xlink:href="#DejaVuSans-61" transform="translate(711.816406 0)"/>
      <use xlink:href="#DejaVuSans-74" transform="translate(773.095703 0)"/>
      <use xlink:href="#DejaVuSans-65" transform="translate(812.304688 0)"/>
      <use xlink:href="#DejaVuSans-20" transform="translate(873.828125 0)"/>
      <use xlink:href="#DejaVuSans-4e" transform="translate(905.615234 0)"/>
      <use xlink:href="#DejaVuSans-6f" transform="translate(980.419922 0)"/>
      <use xlink:href="#DejaVuSans-64" transform="translate(1041.601562 0)"/>
      <use xlink:href="#DejaVuSans-65" transform="translate(1105.078125 0)"/>
      <use xlink:href="#DejaVuSans-27" transform="translate(1166.601562 0)"/>
      <use xlink:href="#DejaVuSans-73" transform="translate(1194.091797 0)"/>
      <use xlink:href="#DejaVuSans-20" transform="translate(1246.191406 0)"/>
      <use xlink:href="#DejaVuSans-4d" transform="translate(1277.978516 0)"/>
      <use xlink:href="#DejaVuSans-69" transform="translate(1364.257812 0)"/>
      <use xlink:href="#DejaVuSans-6e" transform="translate(1392.041016 0)"/>
      <use xlink:href="#DejaVuSans-69" transform="translate(1455.419922 0)"/>
      <use xlink:href="#DejaVuSans-6e" transform="translate(1483.203125 0)"/>
      <use xlink:href="#DejaVuSans-67" transform="translate(1546.582031 0)"/>
      <use xlink:href="#DejaVuSans-20" transform="translate(1610.058594 0)"/>
      <use xlink:href="#DejaVuSans-53" transform="translate(1641.845703 0)"/>
      <use xlink:href="#DejaVuSans-68" transform="translate(1705.322266 0)"/>
      <use xlink:href="#DejaVuSans-61" transform="translate(1768.701172 0)"/>
      <use xlink:href="#DejaVuSans-72" transform="translate(1829.980469 0)"/>
      <use xlink:href="#DejaVuSans-65" transform="translate(1868.84375 0)"/>
     </g>
    </g>
   </g>
   <g id="line2d_25">
    <path d="M 120.046364 72.520909 
L 120.672511 72.520909 
L 120.681088 503.739091 
L 120.775439 72.520909 
L 122.722499 72.520909 
L 122.739654 228.001933 
L 122.834005 122.818775 
L 123.357224 114.790776 
L 123.365801 114.790776 
L 123.640277 111.514043 
L 123.648854 111.514043 
L 123.666009 111.186369 
L 123.674586 265.192863 
L 123.76036 110.203349 
L 123.768937 110.203349 
L 123.983371 108.073472 
L 123.991949 108.073472 
L 124.18065 106.435105 
L 124.189228 106.435105 
L 124.369352 104.960575 
L 124.37793 104.960575 
L 124.549477 103.649881 
L 124.558054 103.649881 
L 124.721024 102.503024 
L 124.729601 102.503024 
L 124.883994 101.520004 
L 124.892571 101.520004 
L 125.046964 100.536984 
L 125.064118 100.536984 
L 125.209933 99.7178 
L 125.218511 99.7178 
L 125.364326 98.898617 
L 125.381481 98.898617 
L 125.527296 98.079434 
L 125.553028 98.079434 
L 125.621647 97.75176 
L 125.630224 147.721952 
L 125.70742 97.26025 
L 125.724575 97.26025 
L 125.733152 97.26025 
L 125.87039 96.604903 
L 125.878967 168.693049 
L 125.939009 96.27723 
L 125.973318 96.27723 
L 126.110556 95.621883 
L 126.136288 95.621883 
L 126.264949 95.130373 
L 126.273526 95.130373 
L 126.359299 94.8027 
L 126.385032 161.156561 
L 126.479383 159.845868 
L 126.539424 159.026684 
L 126.548001 245.040949 
L 126.642352 157.552154 
L 126.65093 157.552154 
L 126.951137 153.78391 
L 126.959715 153.78391 
L 127.225613 150.671013 
L 127.23419 150.671013 
L 127.474356 148.049626 
L 127.482933 148.049626 
L 127.594439 146.902769 
L 127.611594 202.279572 
L 127.68879 145.919749 
L 127.697367 145.919749 
L 127.903224 143.953708 
L 127.911801 143.953708 
L 128.109081 142.151505 
L 128.117658 142.151505 
L 128.30636 140.513138 
L 128.314937 140.513138 
L 128.503639 138.874771 
L 128.512216 138.874771 
L 128.692341 137.40024 
L 128.709496 137.40024 
L 128.881043 136.089547 
L 128.88962 136.089547 
L 129.026858 135.106527 
L 129.044013 181.636148 
L 129.138364 149.687993 
L 129.146941 149.687993 
L 129.189828 149.360319 
L 129.198405 179.833944 
L 129.292756 148.377299 
L 129.309911 148.377299 
L 129.34422 148.049626 
L 129.352798 193.104717 
L 129.438571 147.230442 
L 129.447149 147.230442 
L 129.627273 145.755912 
L 129.63585 145.755912 
L 129.807398 144.445218 
L 129.815975 144.445218 
L 129.987522 143.134525 
L 129.996099 143.134525 
L 130.167647 141.823831 
L 130.184801 141.823831 
L 130.347771 140.676974 
L 130.356349 140.676974 
L 130.519318 139.530117 
L 130.527896 139.530117 
L 130.682288 138.547097 
L 130.690866 138.547097 
L 130.845258 137.564077 
L 130.853835 137.564077 
L 131.008228 136.581057 
L 131.016805 136.581057 
L 131.059692 136.253384 
L 131.094001 237.832135 
L 131.179775 236.521441 
L 131.600066 230.459483 
L 131.608643 230.459483 
L 131.960315 225.708219 
L 131.968892 225.708219 
L 132.286254 221.612302 
L 132.294832 221.612302 
L 132.577884 218.171731 
L 132.586462 218.171731 
L 132.85236 215.058834 
L 132.860937 215.058834 
L 133.118258 212.109773 
L 133.126835 212.109773 
L 133.264073 210.635243 
L 133.289805 231.60634 
L 133.392733 230.295647 
L 133.401311 230.295647 
L 133.675786 227.018913 
L 133.684364 227.018913 
L 133.941684 224.069852 
L 133.950262 224.069852 
L 134.173273 221.612302 
L 134.199005 241.272705 
L 134.293356 240.125848 
L 134.559254 237.012951 
L 134.567832 237.012951 
L 134.825152 234.063891 
L 134.83373 234.063891 
L 135.082473 231.278667 
L 135.09105 231.278667 
L 135.322639 228.821116 
L 135.331216 256.181844 
L 135.434145 255.034988 
L 135.442722 255.034988 
L 135.725775 251.594417 
L 135.734352 251.594417 
L 135.991673 248.645356 
L 136.00025 248.645356 
L 136.248994 245.860133 
L 136.257571 245.860133 
L 136.497737 243.238746 
L 136.506315 243.238746 
L 136.737903 240.781195 
L 136.746481 240.781195 
L 136.969492 238.487481 
L 136.978069 238.487481 
L 137.089575 237.340624 
L 137.115307 245.368623 
L 137.209658 244.385602 
L 137.424092 242.255725 
L 137.432669 242.255725 
L 137.655681 239.962012 
L 137.664258 239.962012 
L 137.870115 237.995971 
L 137.878692 237.995971 
L 138.084549 236.029931 
L 138.093126 236.029931 
L 138.298983 234.063891 
L 138.30756 234.063891 
L 138.504839 232.261687 
L 138.513416 232.261687 
L 138.702118 230.62332 
L 138.710696 230.62332 
L 138.899398 228.984953 
L 138.907975 228.984953 
L 139.096677 227.346586 
L 139.105254 227.346586 
L 139.293956 225.708219 
L 139.311111 225.708219 
L 139.491235 224.233689 
L 139.499813 224.233689 
L 139.679937 222.759159 
L 139.688515 222.759159 
L 139.868639 221.284628 
L 139.885794 221.284628 
L 140.065918 219.810098 
L 140.083073 219.810098 
L 140.25462 218.499405 
L 140.263198 218.499405 
L 140.434745 217.188711 
L 140.443322 217.188711 
L 140.614869 215.878017 
L 140.632024 215.878017 
L 140.803571 214.567324 
L 140.820726 214.567324 
L 140.983696 213.420467 
L 140.992273 213.420467 
L 141.155243 212.27361 
L 141.16382 212.27361 
L 141.32679 211.126753 
L 141.335367 211.126753 
L 141.498337 209.979896 
L 141.515492 209.979896 
L 141.678462 208.83304 
L 141.695616 208.83304 
L 141.858586 207.686183 
L 141.875741 207.686183 
L 142.030133 206.703162 
L 142.038711 206.703162 
L 142.193103 205.720142 
L 142.201681 205.720142 
L 142.356073 204.737122 
L 142.36465 204.737122 
L 142.519043 203.754102 
L 142.536198 203.754102 
L 142.69059 202.771082 
L 142.707745 202.771082 
L 142.862137 201.788062 
L 142.879292 201.788062 
L 143.033684 200.805041 
L 143.050839 200.805041 
L 143.205232 199.822021 
L 143.230964 199.822021 
L 143.385356 198.839001 
L 143.411088 198.839001 
L 143.556903 198.019818 
L 143.565481 198.019818 
L 143.711296 197.200634 
L 143.719873 197.200634 
L 143.865688 196.381451 
L 143.874266 196.381451 
L 144.020081 195.562267 
L 144.037235 195.562267 
L 144.18305 194.743084 
L 144.191628 194.743084 
L 144.337443 193.9239 
L 144.354598 193.9239 
L 144.500413 193.104717 
L 144.526145 193.104717 
L 144.67196 192.285533 
L 144.689115 192.285533 
L 144.83493 191.46635 
L 144.860662 191.46635 
L 144.972167 190.811003 
L 144.980745 202.115735 
L 145.075096 190.319493 
L 145.100828 190.319493 
L 145.238066 189.664146 
L 145.246643 189.664146 
L 145.392458 188.844963 
L 145.41819 188.844963 
L 145.555428 188.189616 
L 145.564005 188.189616 
L 145.701243 187.534269 
L 145.70982 187.534269 
L 145.847058 186.878922 
L 145.855635 186.878922 
L 145.992873 186.223576 
L 146.010028 186.223576 
L 146.147266 185.568229 
L 146.155843 185.568229 
L 146.293081 184.912882 
L 146.310235 184.912882 
L 146.447473 184.257535 
L 146.464628 184.257535 
L 146.601866 183.602188 
L 146.61902 183.602188 
L 146.756258 182.946842 
L 146.78199 182.946842 
L 146.919228 182.291495 
L 146.936383 182.291495 
L 147.07362 181.636148 
L 147.099352 181.636148 
L 147.23659 180.980801 
L 147.262322 180.980801 
L 147.39956 180.325455 
L 147.425292 180.325455 
L 147.56253 179.670108 
L 147.596839 179.670108 
L 147.734077 179.014761 
L 147.768386 179.014761 
L 147.905624 178.359414 
L 147.939933 178.359414 
L 148.077171 177.704067 
L 148.111481 177.704067 
L 148.248718 177.048721 
L 148.291605 177.048721 
L 148.428843 176.393374 
L 148.463152 176.393374 
L 148.591813 175.901864 
L 148.60039 175.901864 
L 148.72905 175.410354 
L 148.737628 175.410354 
L 148.866288 174.918844 
L 148.874866 174.918844 
L 149.003526 174.427334 
L 149.012103 174.427334 
L 149.140764 173.935823 
L 149.157918 173.935823 
L 149.286579 173.444313 
L 149.295156 173.444313 
L 149.423817 172.952803 
L 149.440971 172.952803 
L 149.569632 172.461293 
L 149.586786 172.461293 
L 149.715447 171.969783 
L 149.732601 171.969783 
L 149.861262 171.478273 
L 149.878417 171.478273 
L 150.007077 170.986763 
L 150.032809 170.986763 
L 150.161469 170.495253 
L 150.178624 170.495253 
L 150.247243 170.167579 
L 150.264398 188.681126 
L 150.341594 169.839906 
L 150.350171 169.839906 
L 150.384481 169.839906 
L 150.513141 169.348396 
L 150.538873 169.348396 
L 150.667533 168.856886 
L 150.693266 168.856886 
L 150.821926 168.365376 
L 150.847658 168.365376 
L 150.976318 167.873866 
L 151.010628 167.873866 
L 151.139288 167.382356 
L 151.173598 167.382356 
L 151.302258 166.890846 
L 151.336567 166.890846 
L 151.465228 166.399335 
L 151.499537 166.399335 
L 151.628198 165.907825 
L 151.662507 165.907825 
L 151.791167 165.416315 
L 151.825477 165.416315 
L 151.954137 164.924805 
L 151.997024 164.924805 
L 152.125684 164.433295 
L 152.168571 164.433295 
L 152.297232 163.941785 
L 152.340118 163.941785 
L 152.468779 163.450275 
L 152.520243 163.450275 
L 152.648903 162.958765 
L 152.69179 162.958765 
L 152.82045 162.467255 
L 152.871915 162.467255 
L 153.000575 161.975745 
L 153.052039 161.975745 
L 153.1807 161.484235 
L 153.232164 161.484235 
L 153.352247 161.156561 
L 153.360824 161.156561 
L 153.489484 160.665051 
L 153.540949 160.665051 
L 153.661032 160.337378 
L 153.669609 160.337378 
L 153.789692 160.009704 
L 153.798269 160.009704 
L 153.918352 159.682031 
L 153.92693 159.682031 
L 154.047013 159.354358 
L 154.05559 159.354358 
L 154.175673 159.026684 
L 154.18425 159.026684 
L 154.304333 158.699011 
L 154.312911 158.699011 
L 154.432994 158.371337 
L 154.441571 158.371337 
L 154.561654 158.043664 
L 154.570232 158.043664 
L 154.690315 157.715991 
L 154.707469 157.715991 
L 154.827552 157.388317 
L 154.83613 157.388317 
L 154.956213 157.060644 
L 154.973367 157.060644 
L 155.09345 156.73297 
L 155.110605 156.73297 
L 155.230688 156.405297 
L 155.247843 156.405297 
L 155.367926 156.077624 
L 155.385081 156.077624 
L 155.505164 155.74995 
L 155.522318 155.74995 
L 155.642401 155.422277 
L 155.668133 155.422277 
L 155.788217 155.094603 
L 155.805371 155.094603 
L 155.925454 154.76693 
L 155.951186 154.76693 
L 156.071269 154.439257 
L 156.097001 154.439257 
L 156.217084 154.111583 
L 156.242817 154.111583 
L 156.3629 153.78391 
L 156.388632 153.78391 
L 156.508715 153.456237 
L 156.534447 153.456237 
L 156.65453 153.128563 
L 156.680262 153.128563 
L 156.800345 152.80089 
L 156.834654 152.80089 
L 156.954737 152.473216 
L 156.980469 152.473216 
L 157.100552 152.145543 
L 157.134862 152.145543 
L 157.254945 151.81787 
L 157.289254 151.81787 
L 157.409337 151.490196 
L 157.443647 151.490196 
L 157.56373 151.162523 
L 157.598039 151.162523 
L 157.718122 150.834849 
L 157.752432 150.834849 
L 157.872515 150.507176 
L 157.915401 150.507176 
L 158.035484 150.179503 
L 158.078371 150.179503 
L 158.198454 149.851829 
L 158.232764 149.851829 
L 158.352847 149.524156 
L 158.395733 149.524156 
L 158.515817 149.196482 
L 158.558703 149.196482 
L 158.678786 148.868809 
L 158.73025 148.868809 
L 158.850333 148.541136 
L 158.89322 148.541136 
L 159.013303 148.213462 
L 159.064767 148.213462 
L 159.18485 147.885789 
L 159.236315 147.885789 
L 159.356398 147.558116 
L 159.407862 147.558116 
L 159.527945 147.230442 
L 159.579409 147.230442 
L 159.699492 146.902769 
L 159.750956 146.902769 
L 159.871039 146.575095 
L 159.931081 146.575095 
L 160.051164 146.247422 
L 160.102628 146.247422 
L 160.222711 145.919749 
L 160.282752 145.919749 
L 160.402835 145.592075 
L 160.462877 145.592075 
L 160.58296 145.264402 
L 160.651579 145.264402 
L 160.771662 144.936728 
L 160.831703 144.936728 
L 160.951786 144.609055 
L 161.020405 144.609055 
L 161.140488 144.281382 
L 161.209107 144.281382 
L 161.32919 143.953708 
L 161.397809 143.953708 
L 161.517892 143.626035 
L 161.586511 143.626035 
L 161.706594 143.298361 
L 161.775213 143.298361 
L 161.895296 142.970688 
L 161.972492 142.970688 
L 162.092575 142.643015 
L 162.169771 142.643015 
L 162.289854 142.315341 
L 162.36705 142.315341 
L 162.487133 141.987668 
L 162.56433 141.987668 
L 162.684413 141.659994 
L 162.770186 141.659994 
L 162.890269 141.332321 
L 162.967466 141.332321 
L 163.087549 141.004648 
L 163.173322 141.004648 
L 163.293405 140.676974 
L 163.387756 140.676974 
L 163.507839 140.349301 
L 163.593613 140.349301 
L 163.713696 140.021628 
L 163.808047 140.021628 
L 163.92813 139.693954 
L 164.022481 139.693954 
L 164.142564 139.366281 
L 164.236915 139.366281 
L 164.356998 139.038607 
L 164.451349 139.038607 
L 164.571432 138.710934 
L 164.67436 138.710934 
L 164.794443 138.383261 
L 164.897371 138.383261 
L 165.017454 138.055587 
L 165.120383 138.055587 
L 165.240466 137.727914 
L 165.351971 137.727914 
L 165.472054 137.40024 
L 165.574983 137.40024 
L 165.686488 137.236404 
L 165.695066 137.236404 
L 165.815149 136.90873 
L 165.926654 136.90873 
L 166.046737 136.581057 
L 166.158243 136.581057 
L 166.269749 136.41722 
L 166.278326 136.41722 
L 166.389832 136.253384 
L 166.398409 136.253384 
L 166.509915 136.089547 
L 166.518492 136.089547 
L 166.629998 135.92571 
L 166.638575 135.92571 
L 166.750081 135.761873 
L 166.758658 135.761873 
L 166.870164 135.598037 
L 166.878741 135.598037 
L 166.990247 135.4342 
L 166.998824 135.4342 
L 167.11033 135.270363 
L 167.127484 135.270363 
L 167.23899 135.106527 
L 167.247567 135.106527 
L 167.359073 134.94269 
L 167.376228 134.94269 
L 167.487734 134.778853 
L 167.496311 134.778853 
L 167.607817 134.615017 
L 167.624971 134.615017 
L 167.736477 134.45118 
L 167.745054 134.45118 
L 167.85656 134.287343 
L 167.873715 134.287343 
L 167.98522 134.123506 
L 168.002375 134.123506 
L 168.113881 133.95967 
L 168.131035 133.95967 
L 168.242541 133.795833 
L 168.259696 133.795833 
L 168.371201 133.631996 
L 168.388356 133.631996 
L 168.499862 133.46816 
L 168.517017 133.46816 
L 168.628522 133.304323 
L 168.654254 133.304323 
L 168.76576 133.140486 
L 168.782915 133.140486 
L 168.89442 132.97665 
L 168.911575 132.97665 
L 169.023081 132.812813 
L 169.048813 132.812813 
L 169.160318 132.648976 
L 169.177473 132.648976 
L 169.288979 132.48514 
L 169.314711 132.48514 
L 169.426217 132.321303 
L 169.451949 132.321303 
L 169.563454 132.157466 
L 169.589186 132.157466 
L 169.700692 131.993629 
L 169.726424 131.993629 
L 169.83793 131.829793 
L 169.863662 131.829793 
L 169.975167 131.665956 
L 170.0009 131.665956 
L 170.112405 131.502119 
L 170.138137 131.502119 
L 170.249643 131.338283 
L 170.275375 131.338283 
L 170.386881 131.174446 
L 170.42119 131.174446 
L 170.532696 131.010609 
L 170.558428 131.010609 
L 170.669934 130.846773 
L 170.704243 130.846773 
L 170.815749 130.682936 
L 170.841481 130.682936 
L 170.952986 130.519099 
L 170.987296 130.519099 
L 171.098801 130.355263 
L 171.133111 130.355263 
L 171.244617 130.191426 
L 171.278926 130.191426 
L 171.390432 130.027589 
L 171.424741 130.027589 
L 171.536247 129.863752 
L 171.570556 129.863752 
L 171.682062 129.699916 
L 171.716371 129.699916 
L 171.827877 129.536079 
L 171.870764 129.536079 
L 171.982269 129.372242 
L 172.016579 129.372242 
L 172.128084 129.208406 
L 172.170971 129.208406 
L 172.282477 129.044569 
L 172.316786 129.044569 
L 172.428292 128.880732 
L 172.471179 128.880732 
L 172.582684 128.716896 
L 172.625571 128.716896 
L 172.737077 128.553059 
L 172.779964 128.553059 
L 172.891469 128.389222 
L 172.934356 128.389222 
L 173.045862 128.225385 
L 173.088749 128.225385 
L 173.200254 128.061549 
L 173.243141 128.061549 
L 173.354647 127.897712 
L 173.406111 127.897712 
L 173.517617 127.733875 
L 173.560503 127.733875 
L 173.672009 127.570039 
L 173.723473 127.570039 
L 173.834979 127.406202 
L 173.886443 127.406202 
L 173.997949 127.242365 
L 174.040835 127.242365 
L 174.152341 127.078529 
L 174.203805 127.078529 
L 174.315311 126.914692 
L 174.366775 126.914692 
L 174.478281 126.750855 
L 174.538322 126.750855 
L 174.649828 126.587019 
L 174.701292 126.587019 
L 174.752756 126.423182 
L 174.761334 131.502119 
L 174.855684 126.423182 
L 174.864262 126.423182 
L 174.975767 126.259345 
L 175.035809 126.259345 
L 175.147315 126.095508 
L 175.198779 126.095508 
L 175.310284 125.931672 
L 175.370326 125.931672 
L 175.481832 125.767835 
L 175.541873 125.767835 
L 175.653379 125.603998 
L 175.71342 125.603998 
L 175.824926 125.440162 
L 175.884967 125.440162 
L 175.996473 125.276325 
L 176.056515 125.276325 
L 176.16802 125.112488 
L 176.236639 125.112488 
L 176.348145 124.948652 
L 176.408186 124.948652 
L 176.519692 124.784815 
L 176.588311 124.784815 
L 176.699817 124.620978 
L 176.768435 124.620978 
L 176.879941 124.457141 
L 176.94856 124.457141 
L 177.060066 124.293305 
L 177.128684 124.293305 
L 177.24019 124.129468 
L 177.308809 124.129468 
L 177.420315 123.965631 
L 177.488934 123.965631 
L 177.600439 123.801795 
L 177.677635 123.801795 
L 177.789141 123.637958 
L 177.85776 123.637958 
L 177.969266 123.474121 
L 178.046462 123.474121 
L 178.157967 123.310285 
L 178.235164 123.310285 
L 178.346669 123.146448 
L 178.423866 123.146448 
L 178.535371 122.982611 
L 178.612567 122.982611 
L 178.724073 122.818775 
L 178.801269 122.818775 
L 178.912775 122.654938 
L 178.921352 122.654938 
L 178.92993 132.157466 
L 178.998549 122.491101 
L 179.024281 122.491101 
L 179.18725 122.491101 
L 179.298756 122.327264 
L 179.38453 122.327264 
L 179.496035 122.163428 
L 179.581809 122.163428 
L 179.693315 121.999591 
L 179.779088 121.999591 
L 179.890594 121.835754 
L 179.976367 121.835754 
L 180.087873 121.671918 
L 180.173647 121.671918 
L 180.285152 121.508081 
L 180.379503 121.508081 
L 180.491009 121.344244 
L 180.576783 121.344244 
L 180.688288 121.180408 
L 180.782639 121.180408 
L 180.894145 121.016571 
L 180.988496 121.016571 
L 181.100001 120.852734 
L 181.194352 120.852734 
L 181.305858 120.688897 
L 181.408786 120.688897 
L 181.520292 120.525061 
L 181.614643 120.525061 
L 181.674684 120.361224 
L 181.683262 124.948652 
L 181.777613 120.361224 
L 181.829077 120.361224 
L 181.940583 120.197387 
L 182.034934 120.197387 
L 182.146439 120.033551 
L 182.249367 120.033551 
L 182.360873 119.869714 
L 182.472379 119.869714 
L 182.583884 119.705877 
L 182.686813 119.705877 
L 182.798318 119.542041 
L 182.901247 119.542041 
L 183.012752 119.378204 
L 183.124258 119.378204 
L 183.235764 119.214367 
L 183.347269 119.214367 
L 183.458775 119.050531 
L 183.570281 119.050531 
L 183.681786 118.886694 
L 183.793292 118.886694 
L 183.904798 118.722857 
L 184.024881 118.722857 
L 184.136386 118.55902 
L 184.247892 118.55902 
L 184.359398 118.395184 
L 184.393707 118.395184 
L 184.402284 124.948652 
L 184.488058 118.231347 
L 184.496635 118.231347 
L 184.711069 118.231347 
L 184.822575 118.06751 
L 184.942658 118.06751 
L 185.054164 117.903674 
L 185.174247 117.903674 
L 185.285752 117.739837 
L 185.414413 117.739837 
L 185.525918 117.576 
L 185.654579 117.576 
L 185.766084 117.412164 
L 185.894745 117.412164 
L 186.006251 117.248327 
L 186.134911 117.248327 
L 186.246417 117.08449 
L 186.375077 117.08449 
L 186.486583 116.920653 
L 186.62382 116.920653 
L 186.735326 116.756817 
L 186.872564 116.756817 
L 186.984069 116.59298 
L 187.121307 116.59298 
L 187.232813 116.429143 
L 187.370051 116.429143 
L 187.481556 116.265307 
L 187.618794 116.265307 
L 187.7303 116.10147 
L 187.876115 116.10147 
L 187.98762 115.937633 
L 188.133435 115.937633 
L 188.244941 115.773797 
L 188.390756 115.773797 
L 188.502262 115.60996 
L 188.648077 115.60996 
L 188.759583 115.446123 
L 188.913975 115.446123 
L 189.025481 115.282287 
L 189.179873 115.282287 
L 189.291379 115.11845 
L 189.445771 115.11845 
L 189.557277 114.954613 
L 189.711669 114.954613 
L 189.823175 114.790776 
L 189.986145 114.790776 
L 190.097651 114.62694 
L 190.26062 114.62694 
L 190.372126 114.463103 
L 190.535096 114.463103 
L 190.646601 114.299266 
L 190.809571 114.299266 
L 190.921077 114.13543 
L 191.092624 114.13543 
L 191.20413 113.971593 
L 191.264171 113.971593 
L 191.272749 119.869714 
L 191.3671 113.971593 
L 191.478605 113.807756 
L 191.650152 113.807756 
L 191.761658 113.64392 
L 191.941783 113.64392 
L 192.053288 113.480083 
L 192.224835 113.480083 
L 192.336341 113.316246 
L 192.516466 113.316246 
L 192.627971 113.15241 
L 192.808096 113.15241 
L 192.919601 112.988573 
L 193.108303 112.988573 
L 193.219809 112.824736 
L 193.399934 112.824736 
L 193.511439 112.660899 
L 193.700141 112.660899 
L 193.811647 112.497063 
L 194.008926 112.497063 
L 194.120432 112.333226 
L 194.309134 112.333226 
L 194.420639 112.169389 
L 194.557877 112.169389 
L 194.566454 115.937633 
L 194.626496 112.005553 
L 194.660805 112.005553 
L 194.926703 112.005553 
L 195.038209 111.841716 
L 195.244066 111.841716 
L 195.355571 111.677879 
L 195.561428 111.677879 
L 195.672934 111.514043 
L 195.87879 111.514043 
L 195.990296 111.350206 
L 196.196152 111.350206 
L 196.307658 111.186369 
L 196.3677 111.186369 
L 196.376277 116.756817 
L 196.470628 111.186369 
L 196.522092 111.186369 
L 196.633598 111.022532 
L 196.848032 111.022532 
L 196.959537 110.858696 
L 197.173971 110.858696 
L 197.285477 110.694859 
L 197.328364 110.694859 
L 197.345518 121.671918 
L 197.431292 110.694859 
L 197.508488 110.694859 
L 197.619994 110.531022 
L 197.843005 110.531022 
L 197.954511 110.367186 
L 198.177522 110.367186 
L 198.289028 110.203349 
L 198.520617 110.203349 
L 198.632122 110.039512 
L 198.863711 110.039512 
L 198.975217 109.875676 
L 199.206805 109.875676 
L 199.318311 109.711839 
L 199.558477 109.711839 
L 199.669983 109.548002 
L 199.910149 109.548002 
L 199.918726 109.384166 
L 199.927303 114.790776 
L 200.021654 109.384166 
L 200.270398 109.384166 
L 200.381903 109.220329 
L 200.622069 109.220329 
L 200.733575 109.056492 
L 200.990896 109.056492 
L 201.102401 108.892655 
L 201.351145 108.892655 
L 201.462651 108.728819 
L 201.719971 108.728819 
L 201.831477 108.564982 
L 202.097375 108.564982 
L 202.208881 108.401145 
L 202.466201 108.401145 
L 202.577707 108.237309 
L 202.852183 108.237309 
L 202.963688 108.073472 
L 203.229586 108.073472 
L 203.341092 107.909635 
L 203.615568 107.909635 
L 203.727073 107.745799 
L 204.010126 107.745799 
L 204.121632 107.581962 
L 204.404684 107.581962 
L 204.51619 107.418125 
L 204.799243 107.418125 
L 204.910749 107.254288 
L 205.202379 107.254288 
L 205.245266 107.090452 
L 205.253843 110.367186 
L 205.348194 107.090452 
L 205.4597 107.090452 
L 205.468277 110.367186 
L 205.562628 107.090452 
L 205.605515 107.090452 
L 205.71702 106.926615 
L 206.008651 106.926615 
L 206.120156 106.762778 
L 206.420364 106.762778 
L 206.531869 106.598942 
L 206.840654 106.598942 
L 206.95216 106.435105 
L 207.260945 106.435105 
L 207.372451 106.271268 
L 207.681235 106.271268 
L 207.792741 106.107432 
L 208.007175 106.107432 
L 208.015752 110.858696 
L 208.110103 106.107432 
L 208.221609 105.943595 
L 208.547549 105.943595 
L 208.659054 105.779758 
L 208.984994 105.779758 
L 209.0965 105.615922 
L 209.422439 105.615922 
L 209.533945 105.452085 
L 209.868462 105.452085 
L 209.979968 105.288248 
L 210.323062 105.288248 
L 210.434568 105.124411 
L 210.777662 105.124411 
L 210.889168 104.960575 
L 211.232262 104.960575 
L 211.343768 104.796738 
L 211.704017 104.796738 
L 211.815522 104.632901 
L 212.167194 104.632901 
L 212.2787 104.469065 
L 212.638949 104.469065 
L 212.750454 104.305228 
L 213.119281 104.305228 
L 213.230786 104.141391 
L 213.60819 104.141391 
L 213.719696 103.977555 
L 214.0971 103.977555 
L 214.208605 103.813718 
L 214.586009 103.813718 
L 214.697515 103.649881 
L 215.083496 103.649881 
L 215.195001 103.486044 
L 215.58956 103.486044 
L 215.701066 103.322208 
L 216.095624 103.322208 
L 216.20713 103.158371 
L 216.618843 103.158371 
L 216.730349 102.994534 
L 217.133485 102.994534 
L 217.219258 102.830698 
L 217.24499 108.728819 
L 217.322186 102.830698 
L 217.665281 102.830698 
L 217.776786 102.666861 
L 218.197077 102.666861 
L 218.308583 102.503024 
L 218.728873 102.503024 
L 218.840379 102.339188 
L 219.277824 102.339188 
L 219.38933 102.175351 
L 219.826775 102.175351 
L 219.938281 102.011514 
L 220.384303 102.011514 
L 220.495809 101.847678 
L 220.941832 101.847678 
L 221.053337 101.683841 
L 221.507937 101.683841 
L 221.619443 101.520004 
L 222.091198 101.520004 
L 222.202703 101.356167 
L 222.665881 101.356167 
L 222.777386 101.192331 
L 223.257718 101.192331 
L 223.369224 101.028494 
L 223.849556 101.028494 
L 223.961062 100.864657 
L 224.449971 100.864657 
L 224.561477 100.700821 
L 224.775911 100.700821 
L 224.784488 104.796738 
L 224.878839 100.700821 
L 225.058964 100.700821 
L 225.170469 100.536984 
L 225.676534 100.536984 
L 225.788039 100.373147 
L 226.302681 100.373147 
L 226.414186 100.209311 
L 226.928828 100.209311 
L 227.040334 100.045474 
L 227.57213 100.045474 
L 227.683635 99.881637 
L 228.215432 99.881637 
L 228.326937 99.7178 
L 228.507062 99.7178 
L 228.515639 104.960575 
L 228.60999 99.7178 
L 228.867311 99.7178 
L 228.978817 99.553964 
L 229.527768 99.553964 
L 229.639273 99.390127 
L 230.205379 99.390127 
L 230.316885 99.22629 
L 230.88299 99.22629 
L 230.994496 99.062454 
L 231.569179 99.062454 
L 231.680685 98.898617 
L 232.263945 98.898617 
L 232.375451 98.73478 
L 232.967288 98.73478 
L 233.078794 98.570944 
L 233.679209 98.570944 
L 233.790715 98.407107 
L 234.399707 98.407107 
L 234.511213 98.24327 
L 235.128783 98.24327 
L 235.240288 98.079434 
L 235.866435 98.079434 
L 235.977941 97.915597 
L 236.621243 97.915597 
L 236.732749 97.75176 
L 237.376051 97.75176 
L 237.487556 97.587923 
L 238.148013 97.587923 
L 238.259518 97.424087 
L 238.928552 97.424087 
L 239.040058 97.26025 
L 239.717669 97.26025 
L 239.829175 97.096413 
L 240.515364 97.096413 
L 240.626869 96.932577 
L 241.330213 96.932577 
L 241.441718 96.76874 
L 242.153639 96.76874 
L 242.265145 96.604903 
L 242.839828 96.604903 
L 242.848405 98.898617 
L 242.942756 96.604903 
L 242.985643 96.604903 
L 243.097149 96.441067 
L 243.826224 96.441067 
L 243.93773 96.27723 
L 244.68396 96.27723 
L 244.744002 96.113393 
L 244.752579 98.407107 
L 244.84693 96.113393 
L 245.129983 96.113393 
L 245.147137 100.536984 
L 245.232911 96.113393 
L 245.558851 96.113393 
L 245.670356 95.949557 
L 246.433741 95.949557 
L 246.545247 95.78572 
L 247.325786 95.78572 
L 247.437292 95.621883 
L 248.234986 95.621883 
L 248.346492 95.458046 
L 249.152764 95.458046 
L 249.264269 95.29421 
L 249.641673 95.29421 
L 249.650251 100.700821 
L 249.744602 95.29421 
L 250.087696 95.29421 
L 250.199202 95.130373 
L 251.031205 95.130373 
L 251.142711 94.966536 
L 251.991869 94.966536 
L 252.103375 94.8027 
L 252.969688 94.8027 
L 253.081194 94.638863 
L 253.956085 94.638863 
L 254.06759 94.475026 
L 254.959635 94.475026 
L 255.071141 94.31119 
L 255.980341 94.31119 
L 256.091847 94.147353 
L 257.009624 94.147353 
L 257.12113 93.983516 
L 258.056062 93.983516 
L 258.167568 93.819679 
L 259.128232 93.819679 
L 259.239737 93.655843 
L 260.208979 93.655843 
L 260.320485 93.492006 
L 261.306881 93.492006 
L 261.418386 93.328169 
L 262.421937 93.328169 
L 262.533443 93.164333 
L 263.562726 93.164333 
L 263.674232 93.000496 
L 264.712092 93.000496 
L 264.823598 92.836659 
L 265.88719 92.836659 
L 265.998696 92.672823 
L 267.070866 92.672823 
L 267.182371 92.508986 
L 268.280273 92.508986 
L 268.391779 92.345149 
L 269.515413 92.345149 
L 269.626919 92.181313 
L 270.767707 92.181313 
L 270.879213 92.017476 
L 272.037156 92.017476 
L 272.148662 91.853639 
L 273.332337 91.853639 
L 273.443843 91.689802 
L 274.644673 91.689802 
L 274.756179 91.525966 
L 275.982741 91.525966 
L 276.094247 91.362129 
L 277.346541 91.362129 
L 277.458047 91.198292 
L 278.736073 91.198292 
L 278.847579 91.034456 
L 280.14276 91.034456 
L 280.254266 90.870619 
L 281.583756 90.870619 
L 281.695262 90.706782 
L 283.041907 90.706782 
L 283.153413 90.542946 
L 284.534368 90.542946 
L 284.645873 90.379109 
L 286.043983 90.379109 
L 286.155488 90.215272 
L 287.587907 90.215272 
L 287.699413 90.051435 
L 289.166141 90.051435 
L 289.277647 89.887599 
L 290.770107 89.887599 
L 290.881613 89.723762 
L 291.499183 89.723762 
L 291.516337 93.000496 
L 291.602111 89.723762 
L 292.399805 89.723762 
L 292.511311 89.559925 
L 294.063813 89.559925 
L 294.175319 89.396089 
L 295.196024 89.396089 
L 295.213179 92.508986 
L 295.298953 89.396089 
L 295.76213 89.396089 
L 295.873636 89.232252 
L 297.494756 89.232252 
L 297.606262 89.068415 
L 299.261692 89.068415 
L 299.373198 88.904579 
L 301.062937 88.904579 
L 301.174443 88.740742 
L 301.569002 88.740742 
L 301.577579 91.853639 
L 301.67193 88.740742 
L 302.898492 88.740742 
L 303.009998 88.576905 
L 304.776934 88.576905 
L 304.888439 88.413069 
L 306.689685 88.413069 
L 306.80119 88.249232 
L 308.645322 88.249232 
L 308.756828 88.085395 
L 310.643847 88.085395 
L 310.755353 87.921558 
L 312.676681 87.921558 
L 312.788187 87.757722 
L 314.760979 87.757722 
L 314.872485 87.593885 
L 316.879587 87.593885 
L 316.896741 89.723762 
L 316.905319 87.430048 
L 316.982515 87.430048 
L 319.066813 87.430048 
L 319.178319 87.266212 
L 321.288349 87.266212 
L 321.399854 87.102375 
L 323.561349 87.102375 
L 323.672854 86.938538 
L 325.885813 86.938538 
L 325.997319 86.774702 
L 328.270319 86.774702 
L 328.373247 86.610865 
L 328.49333 88.740742 
L 329.025126 88.740742 
L 329.136632 88.576905 
L 330.457545 88.576905 
L 330.4747 91.198292 
L 330.560473 88.576905 
L 331.169466 88.576905 
L 331.280971 88.413069 
L 333.236609 88.413069 
L 333.270919 92.345149 
L 333.339537 88.413069 
L 333.356692 88.413069 
L 333.442466 88.249232 
L 333.451043 89.559925 
L 333.545394 88.249232 
L 335.586805 88.249232 
L 335.698311 88.085395 
L 337.868383 88.085395 
L 337.979888 87.921558 
L 340.201424 87.921558 
L 340.31293 87.757722 
L 342.577353 87.757722 
L 342.688858 87.593885 
L 345.013322 87.593885 
L 345.124828 87.430048 
L 346.651598 87.430048 
L 346.660175 89.232252 
L 346.754526 87.430048 
L 347.500756 87.430048 
L 347.552221 87.266212 
L 347.560798 89.887599 
L 347.655149 87.266212 
L 350.039654 87.266212 
L 350.15116 87.102375 
L 352.638594 87.102375 
L 352.7501 86.938538 
L 355.297575 86.938538 
L 355.409081 86.774702 
L 357.982288 86.774702 
L 357.990866 88.413069 
L 358.025175 86.610865 
L 358.085217 86.610865 
L 360.804239 86.610865 
L 360.915745 86.447028 
L 363.651922 86.447028 
L 363.763428 86.283191 
L 366.568224 86.283191 
L 366.67973 86.119355 
L 369.553145 86.119355 
L 369.664651 85.955518 
L 370.256488 85.955518 
L 370.265066 87.102375 
L 370.359417 85.955518 
L 372.615262 85.955518 
L 372.726768 85.791681 
L 375.754575 85.791681 
L 375.866081 85.627845 
L 378.971085 85.627845 
L 379.08259 85.464008 
L 382.273368 85.464008 
L 382.384873 85.300171 
L 385.652847 85.300171 
L 385.764353 85.136335 
L 389.126677 85.136335 
L 389.238183 84.972498 
L 392.694858 84.972498 
L 392.806364 84.808661 
L 396.348813 84.808661 
L 396.460319 84.644825 
L 398.913443 84.644825 
L 398.930598 86.119355 
L 399.024949 85.136335 
L 400.337285 85.136335 
L 400.44879 84.972498 
L 401.906941 84.972498 
L 401.915519 85.955518 
L 402.00987 84.972498 
L 404.051281 84.972498 
L 404.162787 84.808661 
L 407.868205 84.808661 
L 407.979711 84.644825 
L 411.779481 84.644825 
L 411.890987 84.480988 
L 412.13973 84.480988 
L 412.148307 86.447028 
L 412.242658 84.480988 
L 415.802262 84.480988 
L 415.913768 84.317151 
L 419.945126 84.317151 
L 420.056632 84.153314 
L 424.190919 84.153314 
L 424.302424 83.989478 
L 428.573949 83.989478 
L 428.685455 83.825641 
L 433.077062 83.825641 
L 433.188568 83.661804 
L 437.717413 83.661804 
L 437.828919 83.497968 
L 442.486424 83.497968 
L 442.59793 83.334131 
L 444.605032 83.334131 
L 444.613609 84.153314 
L 444.70796 83.334131 
L 447.409828 83.334131 
L 447.521334 83.170294 
L 450.137428 83.170294 
L 450.146006 84.480988 
L 450.240356 83.170294 
L 452.487624 83.170294 
L 452.59913 83.006458 
L 457.72839 83.006458 
L 457.839896 82.842621 
L 458.122949 82.842621 
L 458.243032 84.153314 
L 459.400975 84.153314 
L 459.409553 84.972498 
L 459.503904 84.153314 
L 460.696156 84.153314 
L 460.807662 83.989478 
L 463.303673 83.989478 
L 463.312251 84.808661 
L 463.406602 83.989478 
L 465.593828 83.989478 
L 465.705334 83.825641 
L 470.637315 83.825641 
L 470.748821 83.661804 
L 475.835194 83.661804 
L 475.9467 83.497968 
L 481.187466 83.497968 
L 481.298972 83.334131 
L 486.702707 83.334131 
L 486.814213 83.170294 
L 487.457515 83.170294 
L 487.466092 83.989478 
L 487.560443 83.170294 
L 492.380919 83.170294 
L 492.492424 83.006458 
L 498.247832 83.006458 
L 498.359338 82.842621 
L 504.29487 82.842621 
L 504.406375 82.678784 
L 510.547764 82.678784 
L 510.65927 82.514947 
L 515.342508 82.514947 
L 515.351085 83.170294 
L 515.445436 82.514947 
L 516.997938 82.514947 
L 517.109443 82.351111 
L 523.671123 82.351111 
L 523.782628 82.187274 
L 524.760447 82.187274 
L 524.777602 83.661804 
L 524.863375 82.187274 
L 526.450187 82.187274 
L 526.458764 83.170294 
L 526.553115 82.187274 
L 530.575896 82.187274 
L 530.687402 82.023437 
L 530.756021 82.023437 
L 530.781753 83.497968 
L 530.858949 82.023437 
L 537.712258 82.023437 
L 537.823764 81.859601 
L 545.105942 81.859601 
L 545.217447 81.695764 
L 552.765523 81.695764 
L 552.877028 81.531927 
L 560.708157 81.531927 
L 560.819662 81.368091 
L 568.118994 81.368091 
L 568.127572 81.859601 
L 568.221923 81.368091 
L 568.942421 81.368091 
L 569.053926 81.204254 
L 576.825013 81.204254 
L 576.833591 81.695764 
L 576.927942 81.204254 
L 577.494047 81.204254 
L 577.605553 81.040417 
L 586.371613 81.040417 
L 586.483119 80.876581 
L 595.609428 80.876581 
L 595.720934 80.712744 
L 602.008138 80.712744 
L 602.016715 81.859601 
L 602.111066 80.712744 
L 605.21607 80.712744 
L 605.327576 80.548907 
L 609.333202 80.548907 
L 609.341779 81.368091 
L 609.43613 80.548907 
L 615.21727 80.548907 
L 615.328776 80.38507 
L 616.45241 80.38507 
L 616.469564 81.531927 
L 616.555338 80.38507 
L 625.647338 80.38507 
L 625.758843 80.221234 
L 636.523428 80.221234 
L 636.634934 80.057397 
L 644.088659 80.057397 
L 644.105813 80.876581 
L 644.191587 80.057397 
L 644.397444 80.057397 
L 644.406021 80.876581 
L 644.500372 80.057397 
L 647.871274 80.057397 
L 647.982779 79.89356 
L 652.382964 79.89356 
L 652.400119 81.040417 
L 652.485893 79.89356 
L 659.733761 79.89356 
L 659.845266 79.729724 
L 672.136621 79.729724 
L 672.248127 79.565887 
L 676.708353 79.565887 
L 676.725508 80.38507 
L 676.811281 79.565887 
L 684.033417 79.565887 
L 684.162078 80.057397 
L 685.09701 80.057397 
L 685.208515 80.548907 
L 685.748889 80.548907 
L 685.757466 81.204254 
L 685.851817 80.548907 
L 685.963323 80.548907 
L 686.074828 80.38507 
L 697.877274 80.38507 
L 697.988779 80.221234 
L 704.584768 80.221234 
L 704.593345 81.368091 
L 704.687696 80.221234 
L 708.607549 80.221234 
L 708.616127 81.368091 
L 708.710478 80.221234 
L 710.305866 80.221234 
L 710.417372 80.057397 
L 716.112738 80.057397 
L 716.121315 80.712744 
L 716.215666 80.057397 
L 723.274832 80.057397 
L 723.386338 79.89356 
L 736.835636 79.89356 
L 736.947142 79.729724 
L 741.75904 79.729724 
L 741.784772 81.040417 
L 741.861968 79.729724 
L 749.675942 79.729724 
L 749.684519 80.057397 
L 749.77887 79.729724 
L 751.01401 79.729724 
L 751.125515 79.565887 
L 760.56061 79.565887 
L 760.569187 80.38507 
L 760.663538 79.565887 
L 765.861417 79.565887 
L 765.972923 79.40205 
L 769.335247 79.40205 
L 769.45533 79.89356 
L 771.059296 79.89356 
L 771.067874 80.548907 
L 771.162225 79.89356 
L 773.358029 79.89356 
L 773.366606 80.221234 
L 773.460957 79.89356 
L 775.382285 79.89356 
L 775.493791 79.729724 
L 778.633104 79.729724 
L 778.641681 80.221234 
L 778.736032 79.729724 
L 790.444127 79.729724 
L 790.555632 79.565887 
L 806.226466 79.565887 
L 806.337972 79.40205 
L 807.470183 79.40205 
L 807.478761 79.89356 
L 807.573112 79.40205 
L 810.257825 79.40205 
L 810.283557 80.38507 
L 810.360753 79.40205 
L 812.728104 79.40205 
L 812.736681 80.221234 
L 812.831032 79.40205 
L 822.755036 79.40205 
L 822.866542 79.238214 
L 824.779293 79.238214 
L 824.78787 79.729724 
L 824.882221 79.238214 
L 837.130689 79.238214 
L 837.139266 79.565887 
L 837.233617 79.238214 
L 838.889048 79.238214 
L 838.897625 79.729724 
L 838.991976 79.238214 
L 840.107032 79.238214 
L 840.218538 79.074377 
L 841.264976 79.074377 
L 841.273553 79.729724 
L 841.367904 79.074377 
L 844.550104 79.074377 
L 844.558681 79.729724 
L 844.653032 79.074377 
L 858.333919 79.074377 
L 858.445425 78.91054 
L 865.230115 78.91054 
L 865.238693 79.238214 
L 865.333044 78.91054 
L 867.580312 78.91054 
L 867.588889 79.40205 
L 867.68324 78.91054 
L 875.428595 78.91054 
L 875.437172 79.729724 
L 875.531523 78.91054 
L 877.512893 78.91054 
L 877.624399 78.746704 
L 880.28338 78.746704 
L 880.300534 79.565887 
L 880.403463 79.238214 
L 882.462029 79.238214 
L 882.573534 79.074377 
L 886.081674 79.074377 
L 886.090251 79.565887 
L 886.184602 79.074377 
L 889.461153 79.074377 
L 889.581236 79.565887 
L 889.727051 79.565887 
L 889.735629 80.057397 
L 889.82998 79.565887 
L 899.247919 79.565887 
L 899.256497 80.057397 
L 899.350848 79.565887 
L 907.130512 79.565887 
L 907.242017 79.40205 
L 908.914602 79.40205 
L 908.92318 79.89356 
L 909.017531 79.40205 
L 925.537523 79.40205 
L 925.5461 79.729724 
L 925.640451 79.40205 
L 926.095051 79.40205 
L 926.206557 79.238214 
L 930.641051 79.238214 
L 930.649629 79.565887 
L 930.74398 79.238214 
L 946.0031 79.238214 
L 946.114606 79.074377 
L 946.414814 79.074377 
L 946.423391 79.89356 
L 946.517742 79.074377 
L 966.914701 79.074377 
L 967.026206 78.91054 
L 977.773636 78.91054 
L 977.773636 78.91054 
" clip-path="url(#p9b2c864d63)" style="fill: none; stroke: #000080; stroke-width: 1.5; stroke-linecap: round"/>
   </g>
   <g id="patch_3">
    <path d="M 77.16 525.3 
L 77.16 50.96 
" style="fill: none; stroke: #cccccc; stroke-linejoin: miter; stroke-linecap: square"/>
   </g>
   <g id="patch_4">
    <path d="M 1020.66 525.3 
L 1020.66 50.96 
" style="fill: none; stroke: #cccccc; stroke-linejoin: miter; stroke-linecap: square"/>
   </g>
   <g id="patch_5">
    <path d="M 77.16 525.3 
L 1020.66 525.3 
" style="fill: none; stroke: #cccccc; stroke-linejoin: miter; stroke-linecap: square"/>
   </g>
   <g id="patch_6">
    <path d="M 77.16 50.96 
L 1020.66 50.96 
" style="fill: none; stroke: #cccccc; stroke-linejoin: miter; stroke-linecap: square"/>
   </g>
  </g>
  <g id="axes_2">
   <g id="matplotlib.axis_3">
    <g id="ytick_7">
     <g id="line2d_26">
      <path d="M 77.16 482.837561 
L 1020.66 482.837561 
" clip-path="url(#p9b2c864d63)" style="fill: none; stroke: #cccccc; stroke-width: 0.8; stroke-linecap: round"/>
     </g>
     <g id="line2d_27"/>
     <g id="text_15">
      <!-- 0.5 -->
      <g style="fill: #d2691e" transform="translate(1024.16 488.156467) scale(0.14 -0.14)">
       <use xlink:href="#DejaVuSans-30"/>
       <use xlink:href="#DejaVuSans-2e" transform="translate(63.623047 0)"/>
       <use xlink:href="#DejaVuSans-35" transform="translate(95.410156 0)"/>
      </g>
     </g>
    </g>
    <g id="ytick_8">
     <g id="line2d_28">
      <path d="M 77.16 400.77423 
L 1020.66 400.77423 
" clip-path="url(#p9b2c864d63)" style="fill: none; stroke: #cccccc; stroke-width: 0.8; stroke-linecap: round"/>
     </g>
     <g id="line2d_29"/>
     <g id="text_16">
      <!-- 0.6 -->
      <g style="fill: #d2691e" transform="translate(1024.16 406.093137) scale(0.14 -0.14)">
       <use xlink:href="#DejaVuSans-30"/>
       <use xlink:href="#DejaVuSans-2e" transform="translate(63.623047 0)"/>
       <use xlink:href="#DejaVuSans-36" transform="translate(95.410156 0)"/>
      </g>
     </g>
    </g>
    <g id="ytick_9">
     <g id="line2d_30">
      <path d="M 77.16 318.7109 
L 1020.66 318.7109 
" clip-path="url(#p9b2c864d63)" style="fill: none; stroke: #cccccc; stroke-width: 0.8; stroke-linecap: round"/>
     </g>
     <g id="line2d_31"/>
     <g id="text_17">
      <!-- 0.7 -->
      <g style="fill: #d2691e" transform="translate(1024.16 324.029806) scale(0.14 -0.14)">
       <use xlink:href="#DejaVuSans-30"/>
       <use xlink:href="#DejaVuSans-2e" transform="translate(63.623047 0)"/>
       <use xlink:href="#DejaVuSans-37" transform="translate(95.410156 0)"/>
      </g>
     </g>
    </g>
    <g id="ytick_10">
     <g id="line2d_32">
      <path d="M 77.16 236.64757 
L 1020.66 236.64757 
" clip-path="url(#p9b2c864d63)" style="fill: none; stroke: #cccccc; stroke-width: 0.8; stroke-linecap: round"/>
     </g>
     <g id="line2d_33"/>
     <g id="text_18">
      <!-- 0.8 -->
      <g style="fill: #d2691e" transform="translate(1024.16 241.966476) scale(0.14 -0.14)">
       <use xlink:href="#DejaVuSans-30"/>
       <use xlink:href="#DejaVuSans-2e" transform="translate(63.623047 0)"/>
       <use xlink:href="#DejaVuSans-38" transform="translate(95.410156 0)"/>
      </g>
     </g>
    </g>
    <g id="ytick_11">
     <g id="line2d_34">
      <path d="M 77.16 154.584239 
L 1020.66 154.584239 
" clip-path="url(#p9b2c864d63)" style="fill: none; stroke: #cccccc; stroke-width: 0.8; stroke-linecap: round"/>
     </g>
     <g id="line2d_35"/>
     <g id="text_19">
      <!-- 0.9 -->
      <g style="fill: #d2691e" transform="translate(1024.16 159.903146) scale(0.14 -0.14)">
       <use xlink:href="#DejaVuSans-30"/>
       <use xlink:href="#DejaVuSans-2e" transform="translate(63.623047 0)"/>
       <use xlink:href="#DejaVuSans-39" transform="translate(95.410156 0)"/>
      </g>
     </g>
    </g>
    <g id="ytick_12">
     <g id="line2d_36">
      <path d="M 77.16 72.520909 
L 1020.66 72.520909 
" clip-path="url(#p9b2c864d63)" style="fill: none; stroke: #cccccc; stroke-width: 0.8; stroke-linecap: round"/>
     </g>
     <g id="line2d_37"/>
     <g id="text_20">
      <!-- 1.0 -->
      <g style="fill: #d2691e" transform="translate(1024.16 77.839815) scale(0.14 -0.14)">
       <use xlink:href="#DejaVuSans-31"/>
       <use xlink:href="#DejaVuSans-2e" transform="translate(63.623047 0)"/>
       <use xlink:href="#DejaVuSans-30" transform="translate(95.410156 0)"/>
      </g>
     </g>
    </g>
    <g id="text_21">
     <!-- Chain Difficulty -->
     <g style="fill: #d2691e" transform="translate(1062.581875 349.32375) rotate(-90) scale(0.16 -0.16)">
      <defs>
       <path id="DejaVuSans-43" d="M 4122 4306 
L 4122 3641 
Q 3803 3938 3442 4084 
Q 3081 4231 2675 4231 
Q 1875 4231 1450 3742 
Q 1025 3253 1025 2328 
Q 1025 1406 1450 917 
Q 1875 428 2675 428 
Q 3081 428 3442 575 
Q 3803 722 4122 1019 
L 4122 359 
Q 3791 134 3420 21 
Q 3050 -91 2638 -91 
Q 1578 -91 968 557 
Q 359 1206 359 2328 
Q 359 3453 968 4101 
Q 1578 4750 2638 4750 
Q 3056 4750 3426 4639 
Q 3797 4528 4122 4306 
z
" transform="scale(0.015625)"/>
       <path id="DejaVuSans-44" d="M 1259 4147 
L 1259 519 
L 2022 519 
Q 2988 519 3436 956 
Q 3884 1394 3884 2338 
Q 3884 3275 3436 3711 
Q 2988 4147 2022 4147 
L 1259 4147 
z
M 628 4666 
L 1925 4666 
Q 3281 4666 3915 4102 
Q 4550 3538 4550 2338 
Q 4550 1131 3912 565 
Q 3275 0 1925 0 
L 628 0 
L 628 4666 
z
" transform="scale(0.015625)"/>
       <path id="DejaVuSans-66" d="M 2375 4863 
L 2375 4384 
L 1825 4384 
Q 1516 4384 1395 4259 
Q 1275 4134 1275 3809 
L 1275 3500 
L 2222 3500 
L 2222 3053 
L 1275 3053 
L 1275 0 
L 697 0 
L 697 3053 
L 147 3053 
L 147 3500 
L 697 3500 
L 697 3744 
Q 697 4328 969 4595 
Q 1241 4863 1831 4863 
L 2375 4863 
z
" transform="scale(0.015625)"/>
       <path id="DejaVuSans-79" d="M 2059 -325 
Q 1816 -950 1584 -1140 
Q 1353 -1331 966 -1331 
L 506 -1331 
L 506 -850 
L 844 -850 
Q 1081 -850 1212 -737 
Q 1344 -625 1503 -206 
L 1606 56 
L 191 3500 
L 800 3500 
L 1894 763 
L 2988 3500 
L 3597 3500 
L 2059 -325 
z
" transform="scale(0.015625)"/>
      </defs>
      <use xlink:href="#DejaVuSans-43"/>
      <use xlink:href="#DejaVuSans-68" transform="translate(69.824219 0)"/>
      <use xlink:href="#DejaVuSans-61" transform="translate(133.203125 0)"/>
      <use xlink:href="#DejaVuSans-69" transform="translate(194.482422 0)"/>
      <use xlink:href="#DejaVuSans-6e" transform="translate(222.265625 0)"/>
      <use xlink:href="#DejaVuSans-20" transform="translate(285.644531 0)"/>
      <use xlink:href="#DejaVuSans-44" transform="translate(317.431641 0)"/>
      <use xlink:href="#DejaVuSans-69" transform="translate(394.433594 0)"/>
      <use xlink:href="#DejaVuSans-66" transform="translate(422.216797 0)"/>
      <use xlink:href="#DejaVuSans-66" transform="translate(457.421875 0)"/>
      <use xlink:href="#DejaVuSans-69" transform="translate(492.626953 0)"/>
      <use xlink:href="#DejaVuSans-63" transform="translate(520.410156 0)"/>
      <use xlink:href="#DejaVuSans-75" transform="translate(575.390625 0)"/>
      <use xlink:href="#DejaVuSans-6c" transform="translate(638.769531 0)"/>
      <use xlink:href="#DejaVuSans-74" transform="translate(666.552734 0)"/>
      <use xlink:href="#DejaVuSans-79" transform="translate(705.761719 0)"/>
     </g>
    </g>
   </g>
   <g id="line2d_38">
    <path d="M 120.046364 72.520909 
L 137.329741 72.520909 
L 137.441247 473.022786 
L 154.621696 473.022786 
L 154.733201 484.667573 
L 171.91365 484.667573 
L 172.025156 476.231463 
L 189.205605 476.231463 
L 189.317111 454.993473 
L 206.49756 454.993473 
L 206.609066 503.739091 
L 223.789515 503.739091 
L 223.90102 497.461246 
L 241.081469 497.461246 
L 241.192975 486.390903 
L 258.373424 486.390903 
L 258.48493 482.583164 
L 275.665379 482.583164 
L 275.776885 474.007546 
L 292.957334 474.007546 
L 293.068839 482.870386 
L 310.249288 482.870386 
L 310.360794 491.322909 
L 327.541243 491.322909 
L 327.652749 485.81646 
L 344.833198 485.81646 
L 344.944704 482.131816 
L 362.125153 482.131816 
L 362.236658 476.61716 
L 379.417107 476.61716 
L 379.528613 488.138852 
L 396.709062 488.138852 
L 396.820568 492.914938 
L 414.001017 492.914938 
L 414.112522 486.80122 
L 431.292972 486.80122 
L 431.404477 484.946588 
L 448.584926 484.946588 
L 448.696432 484.807081 
L 465.876881 484.807081 
L 465.988387 493.046239 
L 483.168836 493.046239 
L 483.280341 473.769563 
L 500.460791 473.769563 
L 500.572296 480.687501 
L 517.752745 480.687501 
L 517.864251 459.07202 
L 535.0447 459.07202 
L 535.156206 497.674611 
L 552.336655 497.674611 
L 552.44816 464.955961 
L 569.628609 464.955961 
L 569.740115 474.852799 
L 586.920564 474.852799 
L 587.03207 487.318219 
L 604.212519 487.318219 
L 604.324025 494.186919 
L 621.504474 494.186919 
L 621.615979 481.442484 
L 638.796428 481.442484 
L 638.907934 491.470623 
L 656.088383 491.470623 
L 656.199889 485.750809 
L 673.380338 485.750809 
L 673.491844 480.113058 
L 690.672293 480.113058 
L 690.783798 484.175193 
L 707.964247 484.175193 
L 708.075753 481.376833 
L 725.256202 481.376833 
L 725.367708 498.766053 
L 742.548157 498.766053 
L 742.659662 477.995824 
L 759.840112 477.995824 
L 759.951617 484.552684 
L 777.132066 484.552684 
L 777.243572 476.108368 
L 794.424021 476.108368 
L 794.535527 478.463585 
L 811.715976 478.463585 
L 811.827481 485.939555 
L 829.007931 485.939555 
L 829.119436 479.16933 
L 846.299885 479.16933 
L 846.411391 492.701573 
L 863.59184 492.701573 
L 863.703346 472.948929 
L 880.883795 472.948929 
L 880.9953 485.849285 
L 898.175749 485.849285 
L 898.287255 499.603099 
L 915.467704 499.603099 
L 915.57921 482.574958 
L 932.759659 482.574958 
L 932.871165 483.625369 
L 950.051614 483.625369 
L 950.163119 466.621847 
L 967.343568 466.621847 
L 967.455074 489.927832 
L 977.773636 489.927832 
L 977.773636 489.927832 
" clip-path="url(#p9b2c864d63)" style="fill: none; stroke-dasharray: 5.55,2.4; stroke-dashoffset: 0; stroke: #d2691e; stroke-width: 1.5"/>
   </g>
   <g id="patch_7">
    <path d="M 77.16 525.3 
L 77.16 50.96 
" style="fill: none; stroke: #cccccc; stroke-linejoin: miter; stroke-linecap: square"/>
   </g>
   <g id="patch_8">
    <path d="M 1020.66 525.3 
L 1020.66 50.96 
" style="fill: none; stroke: #cccccc; stroke-linejoin: miter; stroke-linecap: square"/>
   </g>
   <g id="patch_9">
    <path d="M 77.16 525.3 
L 1020.66 525.3 
" style="fill: none; stroke: #cccccc; stroke-linejoin: miter; stroke-linecap: square"/>
   </g>
   <g id="patch_10">
    <path d="M 77.16 50.96 
L 1020.66 50.96 
" style="fill: none; stroke: #cccccc; stroke-linejoin: miter; stroke-linecap: square"/>
   </g>
   <g id="text_22">
    <!-- Mining Share and Chain Difficulty vs. Block Number -->
    <g style="fill: #262626" transform="translate(290.949063 30.96) scale(0.2 -0.2)">
     <defs>
      <path id="DejaVuSans-76" d="M 191 3500 
L 800 3500 
L 1894 563 
L 2988 3500 
L 3597 3500 
L 2284 0 
L 1503 0 
L 191 3500 
z
" transform="scale(0.015625)"/>
     </defs>
     <use xlink:href="#DejaVuSans-4d"/>
     <use xlink:href="#DejaVuSans-69" transform="translate(86.279297 0)"/>
     <use xlink:href="#DejaVuSans-6e" transform="translate(114.0625 0)"/>
     <use xlink:href="#DejaVuSans-69" transform="translate(177.441406 0)"/>
     <use xlink:href="#DejaVuSans-6e" transform="translate(205.224609 0)"/>
     <use xlink:href="#DejaVuSans-67" transform="translate(268.603516 0)"/>
     <use xlink:href="#DejaVuSans-20" transform="translate(332.080078 0)"/>
     <use xlink:href="#DejaVuSans-53" transform="translate(363.867188 0)"/>
     <use xlink:href="#DejaVuSans-68" transform="translate(427.34375 0)"/>
     <use xlink:href="#DejaVuSans-61" transform="translate(490.722656 0)"/>
     <use xlink:href="#DejaVuSans-72" transform="translate(552.001953 0)"/>
     <use xlink:href="#DejaVuSans-65" transform="translate(590.865234 0)"/>
     <use xlink:href="#DejaVuSans-20" transform="translate(652.388672 0)"/>
     <use xlink:href="#DejaVuSans-61" transform="translate(684.175781 0)"/>
     <use xlink:href="#DejaVuSans-6e" transform="translate(745.455078 0)"/>
     <use xlink:href="#DejaVuSans-64" transform="translate(808.833984 0)"/>
     <use xlink:href="#DejaVuSans-20" transform="translate(872.310547 0)"/>
     <use xlink:href="#DejaVuSans-43" transform="translate(904.097656 0)"/>
     <use xlink:href="#DejaVuSans-68" transform="translate(973.921875 0)"/>
     <use xlink:href="#DejaVuSans-61" transform="translate(1037.300781 0)"/>
     <use xlink:href="#DejaVuSans-69" transform="translate(1098.580078 0)"/>
     <use xlink:href="#DejaVuSans-6e" transform="translate(1126.363281 0)"/>
     <use xlink:href="#DejaVuSans-20" transform="translate(1189.742188 0)"/>
     <use xlink:href="#DejaVuSans-44" transform="translate(1221.529297 0)"/>
     <use xlink:href="#DejaVuSans-69" transform="translate(1298.53125 0)"/>
     <use xlink:href="#DejaVuSans-66" transform="translate(1326.314453 0)"/>
     <use xlink:href="#DejaVuSans-66" transform="translate(1361.519531 0)"/>
     <use xlink:href="#DejaVuSans-69" transform="translate(1396.724609 0)"/>
     <use xlink:href="#DejaVuSans-63" transform="translate(1424.507812 0)"/>
     <use xlink:href="#DejaVuSans-75" transform="translate(1479.488281 0)"/>
     <use xlink:href="#DejaVuSans-6c" transform="translate(1542.867188 0)"/>
     <use xlink:href="#DejaVuSans-74" transform="translate(1570.650391 0)"/>
     <use xlink:href="#DejaVuSans-79" transform="translate(1609.859375 0)"/>
     <use xlink:href="#DejaVuSans-20" transform="translate(1669.039062 0)"/>
     <use xlink:href="#DejaVuSans-76" transform="translate(1700.826172 0)"/>
     <use xlink:href="#DejaVuSans-73" transform="translate(1760.005859 0)"/>
     <use xlink:href="#DejaVuSans-2e" transform="translate(1812.105469 0)"/>
     <use xlink:href="#DejaVuSans-20" transform="translate(1843.892578 0)"/>
     <use xlink:href="#DejaVuSans-42" transform="translate(1875.679688 0)"/>
     <use xlink:href="#DejaVuSans-6c" transform="translate(1944.283203 0)"/>
     <use xlink:href="#DejaVuSans-6f" transform="translate(1972.066406 0)"/>
     <use xlink:href="#DejaVuSans-63" transform="translate(2033.248047 0)"/>
     <use xlink:href="#DejaVuSans-6b" transform="translate(2088.228516 0)"/>
     <use xlink:href="#DejaVuSans-20" transform="translate(2146.138672 0)"/>
     <use xlink:href="#DejaVuSans-4e" transform="translate(2177.925781 0)"/>
     <use xlink:href="#DejaVuSans-75" transform="translate(2252.730469 0)"/>
     <use xlink:href="#DejaVuSans-6d" transform="translate(2316.109375 0)"/>
     <use xlink:href="#DejaVuSans-62" transform="translate(2413.521484 0)"/>
     <use xlink:href="#DejaVuSans-65" transform="translate(2476.998047 0)"/>
     <use xlink:href="#DejaVuSans-72" transform="translate(2538.521484 0)"/>
    </g>
   </g>
  </g>
 </g>
 <defs>
  <clipPath id="p9b2c864d63">
   <rect x="77.16" y="50.96" width="943.5" height="474.34"/>
  </clipPath>
 </defs>
</svg>
